<svg xmlns="http://www.w3.org/2000/svg" width="50" height="50" viewBox="0 0 50 50">
    <defs>
        <style>
            .cls-1{fill:#fff}.cls-2{fill:#a9dff0}.cls-3{fill:#b6e5f9}.cls-4{fill:#faddc7}.cls-5,.cls-7{fill:none;stroke-linecap:round}.cls-5{stroke:#f4c1b4;stroke-linejoin:bevel}.cls-6{fill:#343535}.cls-7{stroke:#343535;stroke-miterlimit:10}.cls-8{fill:#111}.cls-9{fill:#f6ceb3}.cls-10{fill:#f0ceb7}.cls-11{fill:#94d2e5}
        </style>
    </defs>
    <g id="그룹_3061" data-name="그룹 3061" transform="translate(-578.419 -318.138)">
        <g id="그룹_3055" data-name="그룹 3055">
            <path id="사각형_2907" d="M0 0h50v50H0z" class="cls-1" data-name="사각형 2907" transform="translate(578.419 318.138)"/>
        </g>
        <g id="그룹_3060" data-name="그룹 3060">
            <path id="패스_3388" d="M597.807 350.583l-1.8 4.5-3.958-.057c-.071-.086-.128-.174-.183-.248a10.5 10.5 0 0 0 3.811-3.783 1.987 1.987 0 0 0 .04-.9 3.8 3.8 0 0 1 2.09.488z" class="cls-2" data-name="패스 3388"/>
            <path id="패스_3389" d="M595.72 350.09a1.987 1.987 0 0 1-.04.9 10.5 10.5 0 0 1-3.811 3.783 1.382 1.382 0 0 1-.227-.661 1.422 1.422 0 0 1 .848-1.491 1.342 1.342 0 0 0 .5-.352c.595-.608 1.16-1.713 2.176-2.072a1.973 1.973 0 0 1 .554-.107z" class="cls-3" data-name="패스 3389"/>
            <g id="그룹_3056" data-name="그룹 3056">
                <path id="패스_3390" d="M616.961 347.633c-.76 3.82-2.32 6.12-4.25 7.56-3.31 2.46-7.74 2.35-11.17 2.92-1.29.22-6.03.65-8.77-1.73a8.215 8.215 0 0 1-1.042-1.073.416.416 0 0 1 .184-.652 12.839 12.839 0 0 0 3.948-2.335.984.984 0 0 0-.57-1.75c-.732-.055-3.188-.043-4.78-.017a.409.409 0 0 1-.415-.417l.125-11.06v-.024a22.316 22.316 0 0 1 1.91-6.972 11.112 11.112 0 0 1 1.41-2.24 2.26 2.26 0 0 1 .21-.24 2.108 2.108 0 0 1 .25-.27c.11-.12.22-.23.33-.34.15-.14.31-.27.48-.41 4.01-3.12 10.91-2.4 10.91-2.4h.07a10.524 10.524 0 0 1 3.79.82c.04.01.08.03.12.04a13.041 13.041 0 0 1 6.04 5.22c3.42 5.4 1.22 15.37 1.22 15.37z" class="cls-4" data-name="패스 3390"/>
                <path id="사각형_2908" d="M0 0h13.81v9.215H0z" class="cls-4" data-name="사각형 2908" transform="translate(598.824 353.005)"/>
                <circle id="타원_799" cx="2.152" cy="2.152" r="2.152" class="cls-4" data-name="타원 799" transform="translate(588.48 344.562)"/>
                <path id="패스_3392" d="M593.919 343.887a1.4 1.4 0 0 1-1.4-1.395v.1a1.4 1.4 0 0 1 1.4-1.4 1.4 1.4 0 0 1 1.4 1.4v-.1a1.4 1.4 0 0 1-1.4 1.395z" class="cls-6" data-name="패스 3392"/>
                <path id="패스_3393" d="M592.121 338.855a3.148 3.148 0 0 0 3.6.68" class="cls-7" data-name="패스 3393"/>
                <path id="패스_3394" d="M609.568 324.649a13.478 13.478 0 0 1 8.089 5.828c5.011 7.458 1.323 17.277 1.323 17.277-1.723 4.4-4.335 6.005-6.264 7.441a.881.881 0 0 1-.083-.3c0-4.306-4.425-7.659-4.425-7.659a70.6 70.6 0 0 1-11.085-9.094 34.145 34.145 0 0 1-4.761-6.394c-.17-1.309.951-3.06 1.887-4.064a11.4 11.4 0 0 1 7.327-3.476 23.7 23.7 0 0 1 7.992.441z" class="cls-8" data-name="패스 3394"/>
                <path id="패스_3395" d="M602.73 349.08a6.254 6.254 0 0 0 2.3.415 3.455 3.455 0 0 0 3.379-3.458 3.721 3.721 0 0 0-3.087-3.659 3.817 3.817 0 0 0-1.113-.028z" class="cls-9" data-name="패스 3395"/>
                <path id="패스_3396" d="M601.114 348.4a10.085 10.085 0 0 0 3.478.85 3.569 3.569 0 0 0 3.565-3.653 3.165 3.165 0 0 0-2.83-3.221 3.088 3.088 0 0 0-1.465.028 4.472 4.472 0 0 0-2.384 1.409z" class="cls-4" data-name="패스 3396"/>
                <path id="패스_3397" d="M606.625 346.039a.546.546 0 0 1-.548-.263c-.605-.993-1.83-.427-1.882-.4a.544.544 0 0 1-.727-.287.575.575 0 0 1 .264-.755 2.5 2.5 0 0 1 3.265.84.583.583 0 0 1-.165.787.533.533 0 0 1-.207.078z" class="cls-10" data-name="패스 3397"/>
                <path id="패스_3398" d="M603.386 346.623a.545.545 0 0 1 .4-.458c1.117-.321.827-.82.817-.877a.543.543 0 0 1 .468-.625.575.575 0 0 1 .659.454c.142.806.044 1.622-1.605 2.1a.583.583 0 0 1-.715-.367.514.514 0 0 1-.024-.227z" class="cls-10" data-name="패스 3398"/>
                <path id="패스_3399" d="M598.824 358.3a32.76 32.76 0 0 0 7.8-2.4s-6.036 3.164-7.8 6.328z" class="cls-9" data-name="패스 3399"/>
            </g>
            <g id="그룹_3057" data-name="그룹 3057">
                <path id="패스_3400" d="M589.126 352.068a.581.581 0 0 1-.1-.813l1.356 1.08a3.778 3.778 0 0 1-1.256-.267z" class="cls-11" data-name="패스 3400"/>
                <path id="패스_3401" d="M590.384 352.335l-1.356-1.08a.582.582 0 0 1 .815-.086 3.8 3.8 0 0 1 .541 1.166z" class="cls-2" data-name="패스 3401"/>
            </g>
            <g id="그룹_3058" data-name="그룹 3058">
                <path id="패스_3402" d="M587.877 354.141a.526.526 0 0 1-.552-.494l1.566-.076a3.427 3.427 0 0 1-1.014.57z" class="cls-11" data-name="패스 3402"/>
                <path id="패스_3403" d="M588.891 353.571l-1.566.076a.526.526 0 0 1 .5-.545 3.435 3.435 0 0 1 1.066.469z" class="cls-2" data-name="패스 3403"/>
            </g>
            <g id="그룹_3059" data-name="그룹 3059">
                <path id="패스_3404" d="M590.523 355.167a.5.5 0 0 1-.708.015l1.145-1.07a3.551 3.551 0 0 1-.437 1.055z" class="cls-11" data-name="패스 3404"/>
                <path id="패스_3405" d="M590.96 354.112l-1.145 1.07a.5.5 0 0 1 .063-.706 3.544 3.544 0 0 1 1.082-.364z" class="cls-2" data-name="패스 3405"/>
            </g>
            <circle id="타원_800" cx=".237" cy=".237" r=".237" class="cls-3" data-name="타원 800" transform="translate(589.855 352.996)"/>
            <circle id="타원_801" cx=".237" cy=".237" r=".237" class="cls-3" data-name="타원 801" transform="translate(586.55 351.954)"/>
            <circle id="타원_802" cx=".237" cy=".237" r=".237" class="cls-3" data-name="타원 802" transform="translate(588.554 355.436)"/>
        </g>
    </g>
</svg>
