<svg xmlns="http://www.w3.org/2000/svg" width="50" height="50" viewBox="0 0 50 50">
    <defs>
        <style>
            .cls-1,.cls-6,.cls-8{fill:none}.cls-2{fill:#fff}.cls-3{fill:#ea5e16}.cls-4{fill:#f26f2b}.cls-5{fill:#faddc7}.cls-6{stroke:#f4c1b4;stroke-linejoin:bevel}.cls-6,.cls-8{stroke-linecap:round}.cls-7{fill:#343535}.cls-8{stroke:#343535;stroke-miterlimit:10}.cls-9{fill:#111}.cls-10{fill:#f6ceb3}.cls-11{fill:#f0ceb7}.cls-12{fill:#fd950d}.cls-13{fill:#288dce}.cls-14{fill:#1c5ba7}.cls-15{clip-path:url(#clip-path)}.cls-16{fill:#f5720e}.cls-17{fill:#eaf7fe}.cls-18{fill:#dff2f8}.cls-19{fill:#ea392c}.cls-20{clip-path:url(#clip-path-2)}.cls-21{fill:#dc362d}
        </style>
        <clipPath id="clip-path">
            <path id="사각형_2782" d="M0 0h2.409v2.24H0z" class="cls-1" data-name="사각형 2782" transform="rotate(64.793 -193.05 255.419)"/>
        </clipPath>
        <clipPath id="clip-path-2">
            <path id="사각형_2785" d="M0 0h1.023v2.087H0z" class="cls-1" data-name="사각형 2785" transform="rotate(64.793 -197.903 252.339)"/>
        </clipPath>
    </defs>
    <g id="그룹_2741" data-name="그룹 2741" transform="translate(-105.348 -285.797)">
        <g id="그룹_2732" data-name="그룹 2732">
            <path id="사각형_2777" d="M0 0h50v50H0z" class="cls-2" data-name="사각형 2777" transform="translate(105.348 285.797)"/>
            <path id="사각형_2778" d="M0 0h50v50H0z" class="cls-2" data-name="사각형 2778" transform="translate(105.348 285.797)"/>
        </g>
        <g id="그룹_2740" data-name="그룹 2740">
            <path id="패스_2911" d="M124.78 322.47a3.39 3.39 0 0 1-2.17-.46.5.5 0 0 1-.21-.22l3.67-1.24a.579.579 0 0 1 .05.14c.2.73-.24 1.49-1.34 1.78z" class="cls-3" data-name="패스 2911"/>
            <path id="패스_2912" d="M126.07 320.55l-3.67 1.24a.5.5 0 0 1 .02-.5 3.424 3.424 0 0 1 1.65-1.48c1.03-.27 1.76.1 2 .74z" class="cls-4" data-name="패스 2912"/>
            <path id="패스_2913" d="M122.62 319.13l-2 1.28a.275.275 0 0 1-.02-.2 2.042 2.042 0 0 1 .66-1.18c.58-.39 1.11-.29 1.36.1z" class="cls-4" data-name="패스 2913"/>
            <g id="그룹_2734" data-name="그룹 2734">
                <g id="그룹_2733" data-name="그룹 2733">
                    <path id="패스_2914" d="M147.966 315.293c-.76 3.82-2.32 6.12-4.25 7.56-3.31 2.46-7.74 2.35-11.17 2.919-1.29.221-6.03.651-8.77-1.729a8.284 8.284 0 0 1-1.042-1.074.416.416 0 0 1 .184-.652 12.819 12.819 0 0 0 3.948-2.334.984.984 0 0 0-.57-1.75c-.732-.055-3.189-.043-4.781-.018a.409.409 0 0 1-.415-.417l.125-11.059v-.024a22.28 22.28 0 0 1 1.91-6.972 11.111 11.111 0 0 1 1.41-2.24 2.254 2.254 0 0 1 .21-.24 2.105 2.105 0 0 1 .25-.27c.11-.12.22-.23.33-.341.15-.139.31-.269.48-.409 4.01-3.12 10.91-2.4 10.91-2.4h.07a10.525 10.525 0 0 1 3.79.82c.04.01.08.03.12.04a13.041 13.041 0 0 1 6.04 5.22c3.421 5.4 1.221 15.37 1.221 15.37z" class="cls-5" data-name="패스 2914"/>
                    <path id="사각형_2779" d="M0 0h13.81v9.215H0z" class="cls-5" data-name="사각형 2779" transform="translate(129.837 320.664)"/>
                    <circle id="타원_644" cx="2.152" cy="2.152" r="2.152" class="cls-5" data-name="타원 644" transform="translate(119.493 312.222)"/>
                    <path id="패스_2916" d="M124.932 311.546a1.4 1.4 0 0 1-1.395-1.395v.1a1.4 1.4 0 0 1 1.395-1.4 1.4 1.4 0 0 1 1.4 1.4v-.1a1.4 1.4 0 0 1-1.4 1.395z" class="cls-7" data-name="패스 2916"/>
                    <path id="패스_2917" d="M123.134 306.515a3.15 3.15 0 0 0 3.6.68" class="cls-8" data-name="패스 2917"/>
                    <path id="패스_2918" d="M140.581 292.308a13.478 13.478 0 0 1 8.089 5.829c5.011 7.458 1.323 17.277 1.323 17.277-1.723 4.4-4.335 6-6.264 7.44a.882.882 0 0 1-.083-.3c0-4.306-4.425-7.66-4.425-7.66a70.6 70.6 0 0 1-11.085-9.094 34.113 34.113 0 0 1-4.761-6.394c-.17-1.309.951-3.059 1.887-4.064a11.4 11.4 0 0 1 7.327-3.476 23.7 23.7 0 0 1 7.992.442z" class="cls-9" data-name="패스 2918"/>
                    <path id="패스_2919" d="M133.743 316.74a6.277 6.277 0 0 0 2.305.414 3.454 3.454 0 0 0 3.379-3.458 3.721 3.721 0 0 0-3.087-3.658 3.777 3.777 0 0 0-1.113-.029z" class="cls-10" data-name="패스 2919"/>
                    <path id="패스_2920" d="M132.127 316.061a10.077 10.077 0 0 0 3.478.851 3.57 3.57 0 0 0 3.565-3.654 3.163 3.163 0 0 0-2.83-3.22 3.07 3.07 0 0 0-1.465.027 4.472 4.472 0 0 0-2.384 1.409z" class="cls-5" data-name="패스 2920"/>
                    <path id="패스_2921" d="M137.481 313.9a.546.546 0 0 1-.5-.344c-.446-1.073-1.744-.7-1.8-.685a.543.543 0 0 1-.674-.394.575.575 0 0 1 .376-.706 2.5 2.5 0 0 1 3.1 1.329.583.583 0 0 1-.283.752.529.529 0 0 1-.219.048z" class="cls-11" data-name="패스 2921"/>
                    <path id="패스_2922" d="M134.4 314.283a.545.545 0 0 1 .4-.459c1.117-.321.827-.82.817-.876a.545.545 0 0 1 .469-.626.576.576 0 0 1 .658.455c.142.8.044 1.621-1.6 2.094a.583.583 0 0 1-.715-.367.51.51 0 0 1-.029-.221z" class="cls-11" data-name="패스 2922"/>
                    <path id="패스_2923" d="M129.837 325.955a32.7 32.7 0 0 0 7.8-2.4s-6.036 3.164-7.8 6.328z" class="cls-10" data-name="패스 2923"/>
                </g>
            </g>
            <g id="그룹_2739" data-name="그룹 2739">
                <rect id="사각형_2780" width="4.819" height="2.24" class="cls-12" data-name="사각형 2780" rx="1.12" transform="rotate(64.793 -191.846 253.52)"/>
                <path id="패스_2924" d="M118.463 324.389l.636-.3-1.723-3.661-.636.3a1.918 1.918 0 0 0-1.988-.217l-5.4 2.544a.455.455 0 0 0-.218.607l1.111 2.361 1.112 2.362a.455.455 0 0 0 .607.218l5.4-2.543a1.917 1.917 0 0 0 1.099-1.671z" class="cls-13" data-name="패스 2924"/>
                <path id="패스_2925" d="M118.237 322.26l.862 1.83-.636.3a1.917 1.917 0 0 1-1.1 1.671l-5.4 2.543a.455.455 0 0 1-.607-.218l-1.112-2.362z" class="cls-14" data-name="패스 2925"/>
                <g id="그룹_2736" data-name="그룹 2736">
                    <g id="그룹_2735" class="cls-15" data-name="그룹 2735">
                        <rect id="사각형_2781" width="4.819" height="2.24" class="cls-16" data-name="사각형 2781" rx="1.12" transform="rotate(64.793 -191.846 253.52)"/>
                    </g>
                </g>
                <path id="사각형_2783" d="M0 0h6.133v4.145H0z" class="cls-17" data-name="사각형 2783" transform="rotate(64.793 -195.56 250.438)"/>
                <path id="사각형_2784" d="M0 0h3.066v4.145H0z" class="cls-18" data-name="사각형 2784" transform="rotate(64.793 -197.092 252.854)"/>
                <path id="패스_2926" d="M114.5 325.15l-.3-.629.629-.3-.3-.629-.629.3-.3-.629-.629.3.3.629-.629.3.3.629.629-.3.3.629z" class="cls-19" data-name="패스 2926"/>
                <g id="그룹_2738" data-name="그룹 2738">
                    <g id="그룹_2737" class="cls-20" data-name="그룹 2737">
                        <path id="패스_2927" d="M114.5 325.15l-.3-.629.629-.3-.3-.629-.629.3-.3-.629-.629.3.3.629-.629.3.3.629.629-.3.3.629z" class="cls-21" data-name="패스 2927"/>
                    </g>
                </g>
            </g>
            <path id="패스_2928" d="M122.2 320.43a2.13 2.13 0 0 1-1.35.16.308.308 0 0 1-.23-.18l2-1.28c.26.39.16.91-.42 1.3z" class="cls-3" data-name="패스 2928"/>
            <path id="선_454" d="M.92 0L0 .31" class="cls-1" data-name="선 454" transform="translate(126.07 320.24)"/>
            <path id="선_455" d="M.54 0L0 .18" class="cls-1" data-name="선 455" transform="translate(121.86 321.79)"/>
            <circle id="타원_645" cx=".275" cy=".275" r=".275" class="cls-4" data-name="타원 645" transform="translate(121.222 321.1)"/>
            <circle id="타원_646" cx=".207" cy=".207" r=".207" class="cls-4" data-name="타원 646" transform="translate(123.373 318.923)"/>
        </g>
    </g>
</svg>
