<svg xmlns="http://www.w3.org/2000/svg" width="50" height="50" viewBox="0 0 50 50">
  <g id="그룹_1736" data-name="그룹 1736" transform="translate(-651.436 -443.746)">
    <g id="그룹_1731" data-name="그룹 1731" transform="translate(651.435 443.746)">
      <rect id="사각형_2250" data-name="사각형 2250" width="50" height="50" fill="none"/>
    </g>
    <g id="그룹_1735" data-name="그룹 1735" transform="translate(654.603 449.665)">
      <g id="그룹_1732" data-name="그룹 1732" transform="translate(10.793)">
        <path id="패스_1686" data-name="패스 1686" d="M693.875,473.245c-.76,3.817-2.313,6.122-4.243,7.558-3.315,2.464-7.741,2.355-11.174,2.923-1.294.217-6.029.651-8.768-1.729a7.211,7.211,0,0,1-2.681-5.62l.133-11.7a22.325,22.325,0,0,1,1.9-6.982,11.084,11.084,0,0,1,1.411-2.238,1.372,1.372,0,0,1,.209-.242,2.579,2.579,0,0,1,.25-.276c.109-.117.217-.225.334-.334.151-.142.309-.275.476-.409,4.009-3.123,10.915-2.405,10.915-2.405h.067a10.631,10.631,0,0,1,3.792.818.611.611,0,0,0,.117.042,13.044,13.044,0,0,1,6.038,5.22C696.08,463.274,693.875,473.245,693.875,473.245Z" transform="translate(-665.396 -449.665)" fill="#faddc7"/>
        <rect id="사각형_2251" data-name="사각형 2251" width="13.81" height="9.215" transform="translate(10.344 28.948)" fill="#faddc7"/>
        <circle id="타원_539" data-name="타원 539" cx="2.152" cy="2.152" r="2.152" transform="translate(0 20.506)" fill="#faddc7"/>
        <path id="패스_1687" data-name="패스 1687" d="M669.163,481.5a6.23,6.23,0,0,1-1.667-2.571,8.4,8.4,0,0,1-.485-2.552v-.827h5.829a1.865,1.865,0,0,1,1.787,1.55C674.812,478.01,674.349,480.414,669.163,481.5Z" transform="translate(-665.396 -449.665)" fill="#ee5840"/>
        <path id="패스_1688" data-name="패스 1688" d="M669.691,482" transform="translate(-665.396 -449.665)" fill="none" stroke="#f4c1b4" stroke-linecap="round" stroke-linejoin="bevel" stroke-width="1"/>
        <path id="패스_1689" data-name="패스 1689" d="M670.835,469.495h0a1.4,1.4,0,0,1-1.4-1.395v.1a1.4,1.4,0,0,1,1.4-1.4h0a1.4,1.4,0,0,1,1.395,1.4v-.1A1.4,1.4,0,0,1,670.835,469.495Z" transform="translate(-665.396 -449.665)" fill="#343535"/>
        <path id="패스_1690" data-name="패스 1690" d="M669.037,464.463a3.15,3.15,0,0,0,3.6.681" transform="translate(-665.396 -449.665)" fill="none" stroke="#343535" stroke-linecap="round" stroke-miterlimit="10" stroke-width="1"/>
        <path id="패스_1691" data-name="패스 1691" d="M686.485,450.257a13.482,13.482,0,0,1,8.089,5.828c5.01,7.458,1.322,17.277,1.322,17.277-1.723,4.4-4.334,6.005-6.264,7.441a.881.881,0,0,1-.083-.3c0-4.306-4.425-7.659-4.425-7.659a70.6,70.6,0,0,1-11.085-9.094,34.2,34.2,0,0,1-4.761-6.394c-.17-1.309.951-3.06,1.888-4.064a11.392,11.392,0,0,1,7.326-3.476A23.712,23.712,0,0,1,686.485,450.257Z" transform="translate(-665.396 -449.665)" fill="#111"/>
        <path id="패스_1692" data-name="패스 1692" d="M679.646,474.688a6.264,6.264,0,0,0,2.3.415,3.455,3.455,0,0,0,3.38-3.458,3.721,3.721,0,0,0-3.088-3.658,3.655,3.655,0,0,0-.65-.057,3.723,3.723,0,0,0-.463.028Z" transform="translate(-665.396 -449.665)" fill="#f6ceb3"/>
        <path id="패스_1693" data-name="패스 1693" d="M678.03,474.01a10.077,10.077,0,0,0,3.478.851,3.57,3.57,0,0,0,3.565-3.654,3.163,3.163,0,0,0-2.83-3.22,3.07,3.07,0,0,0-1.465.027,4.472,4.472,0,0,0-2.384,1.409Z" transform="translate(-665.396 -449.665)" fill="#faddc7"/>
        <path id="패스_1694" data-name="패스 1694" d="M683.541,471.647a.547.547,0,0,1-.548-.263c-.6-.993-1.83-.427-1.882-.4a.545.545,0,0,1-.727-.286.578.578,0,0,1,.264-.756,2.5,2.5,0,0,1,3.265.84.583.583,0,0,1-.164.787A.539.539,0,0,1,683.541,471.647Z" transform="translate(-665.396 -449.665)" fill="#f0ceb7"/>
        <path id="패스_1695" data-name="패스 1695" d="M680.3,472.231a.546.546,0,0,1,.4-.458c1.117-.321.827-.82.817-.877a.543.543,0,0,1,.468-.625.575.575,0,0,1,.658.454c.143.806.044,1.622-1.6,2.1a.584.584,0,0,1-.716-.367A.529.529,0,0,1,680.3,472.231Z" transform="translate(-665.396 -449.665)" fill="#f0ceb7"/>
        <path id="패스_1696" data-name="패스 1696" d="M675.74,483.9a32.7,32.7,0,0,0,7.8-2.4s-6.036,3.164-7.8,6.328Z" transform="translate(-665.396 -449.665)" fill="#f6ceb3"/>
      </g>
      <g id="그룹_1734" data-name="그룹 1734" transform="translate(0 22.471)">
        <rect id="사각형_2252" data-name="사각형 2252" width="5.07" height="10.14" rx="2.535" transform="matrix(-0.559, 0.829, -0.829, -0.559, 11.241, 5.673)" fill="#f69946"/>
        <path id="패스_1697" data-name="패스 1697" d="M664.43,479.91a2.549,2.549,0,0,1-2.1,1.12,2.5,2.5,0,0,1-1.42-.44l-2.18-1.47,2.83-4.2,2.18,1.47A2.54,2.54,0,0,1,664.43,479.91Z" transform="translate(-654.603 -472.136)" fill="none"/>
        <path id="패스_1698" data-name="패스 1698" d="M661.56,474.92l-2.83,4.2-2.03-1.36a2.539,2.539,0,0,1,2.84-4.21Z" transform="translate(-654.603 -472.136)" fill="#ee522a"/>
        <g id="그룹_1733" data-name="그룹 1733" transform="translate(8.332 4.507)">
          <path id="패스_1699" data-name="패스 1699" d="M662.971,476.736a.211.211,0,0,1,.293-.057,2.242,2.242,0,0,1,.6,3.109.211.211,0,1,1-.35-.237,1.818,1.818,0,0,0-.489-2.522A.211.211,0,0,1,662.971,476.736Z" transform="translate(-662.935 -476.643)" fill="#fff"/>
        </g>
        <circle id="타원_540" data-name="타원 540" cx="0.27" cy="0.27" r="0.27" transform="translate(7.567 3.972)" fill="#fff"/>
        <line id="선_330" data-name="선 330" x1="1.61" y2="2.38" transform="translate(2.517 6.984)" fill="none"/>
        <line id="선_331" data-name="선 331" x1="1.37" y2="2.03" transform="translate(6.957 0.754)" fill="none"/>
      </g>
    </g>
  </g>
</svg>
