<svg xmlns="http://www.w3.org/2000/svg" width="50" height="50" viewBox="0 0 50 50">
    <defs>
        <style>
            .cls-1,.cls-5,.cls-7{fill:none}.cls-2{clip-path:url(#clip-path)}.cls-3{fill:#faddc7}.cls-4{fill:#ee5840}.cls-5{stroke:#f4c1b4;stroke-linejoin:bevel}.cls-5,.cls-7{stroke-linecap:round}.cls-6{fill:#343535}.cls-7{stroke:#343535;stroke-miterlimit:10}.cls-8{fill:#111}.cls-9{fill:#f6ceb3}.cls-10{fill:#f0ceb7}.cls-11{fill:#eff9fe}.cls-12{fill:#d9e9f0}.cls-13{fill:#6f6f6f}.cls-14{fill:#dfdfde}.cls-15{fill:#288dce}.cls-16{fill:#1c5ba7}.cls-17,.cls-18{fill:#fff}.cls-17{opacity:.4}.cls-18{opacity:.9}.cls-19{fill:#898989}
        </style>
        <clipPath id="clip-path">
            <path id="사각형_2848" d="M0 0h41.672v36.922H0z" class="cls-1" data-name="사각형 2848" transform="translate(-114.671 325.12)"/>
        </clipPath>
    </defs>
    <g id="그룹_2952" data-name="그룹 2952" transform="translate(118.835 -318.138)">
        <path id="사각형_2846" d="M0 0h50v50H0z" class="cls-1" data-name="사각형 2846" transform="translate(-118.835 318.138)"/>
        <g id="그룹_2951" data-name="그룹 2951">
            <g id="그룹_2947" data-name="그룹 2947">
                <g id="그룹_2946" data-name="그룹 2946">
                    <g id="그룹_2945" class="cls-2" data-name="그룹 2945">
                        <g id="그룹_2944" data-name="그룹 2944">
                            <path id="패스_3192" d="M-80.383 363.7c-.862 4.326-2.622 6.939-4.809 8.567-3.758 2.792-8.774 2.669-12.665 3.313-1.467.246-6.834.738-9.938-1.96a8.175 8.175 0 0 1-3.039-6.37l.152-13.261a25.308 25.308 0 0 1 2.158-7.913 12.562 12.562 0 0 1 1.6-2.537 1.576 1.576 0 0 1 .236-.274 2.867 2.867 0 0 1 .284-.313 8.444 8.444 0 0 1 .918-.842c4.544-3.54 12.372-2.726 12.372-2.726h.075a12.034 12.034 0 0 1 4.3.927.779.779 0 0 0 .132.048 14.785 14.785 0 0 1 6.844 5.916c3.879 6.119 1.38 17.425 1.38 17.425z" class="cls-3" data-name="패스 3192"/>
                            <path id="사각형_2847" d="M0 0h15.652v10.445H0z" class="cls-3" data-name="사각형 2847" transform="translate(-100.937 369.779)"/>
                            <circle id="타원_762" cx="2.439" cy="2.439" r="2.439" class="cls-3" data-name="타원 762" transform="translate(-112.661 360.21)"/>
                            <path id="패스_3193" d="M-108.392 373.051a7.052 7.052 0 0 1-1.889-2.913 9.512 9.512 0 0 1-.551-2.893v-.937h6.607a2.114 2.114 0 0 1 2.026 1.756c.21 1.036-.315 3.757-6.193 4.987z" class="cls-4" data-name="패스 3193"/>
                            <path id="패스_3195" d="M-106.5 359.445a1.586 1.586 0 0 1-1.581-1.581v.108a1.585 1.585 0 0 1 1.581-1.581 1.585 1.585 0 0 1 1.581 1.581v-.108a1.586 1.586 0 0 1-1.581 1.581z" class="cls-6" data-name="패스 3195"/>
                            <path id="패스_3196" d="M-108.535 353.742a3.571 3.571 0 0 0 4.076.771" class="cls-7" data-name="패스 3196"/>
                            <path id="패스_3197" d="M-88.76 337.64a15.278 15.278 0 0 1 9.169 6.606c5.679 8.453 1.5 19.582 1.5 19.582-1.953 4.986-4.913 6.806-7.1 8.434a.989.989 0 0 1-.094-.341c0-4.881-5.016-8.682-5.016-8.682a80 80 0 0 1-12.563-10.307 38.717 38.717 0 0 1-5.4-7.247c-.192-1.484 1.078-3.467 2.14-4.606a12.918 12.918 0 0 1 8.3-3.94 26.868 26.868 0 0 1 9.064.501z" class="cls-8" data-name="패스 3197"/>
                            <path id="패스_3198" d="M-96.51 365.331a7.114 7.114 0 0 0 2.612.47 3.915 3.915 0 0 0 3.83-3.919 4.217 4.217 0 0 0-3.5-4.147 4.251 4.251 0 0 0-.736-.064 4.329 4.329 0 0 0-.525.032z" class="cls-9" data-name="패스 3198"/>
                            <path id="패스_3199" d="M-98.342 364.562a11.432 11.432 0 0 0 3.942.964 4.046 4.046 0 0 0 4.041-4.141 3.586 3.586 0 0 0-3.208-3.65 3.485 3.485 0 0 0-1.66.032 5.082 5.082 0 0 0-2.7 1.6z" class="cls-3" data-name="패스 3199"/>
                            <path id="패스_3200" d="M-92.274 362.111a.619.619 0 0 1-.568-.39c-.5-1.216-1.976-.8-2.039-.776a.615.615 0 0 1-.764-.446.654.654 0 0 1 .427-.8 2.829 2.829 0 0 1 3.511 1.507.659.659 0 0 1-.321.852.585.585 0 0 1-.246.053z" class="cls-10" data-name="패스 3200"/>
                            <path id="패스_3201" d="M-95.767 362.546a.617.617 0 0 1 .452-.519c1.266-.364.937-.93.926-.994a.615.615 0 0 1 .53-.708.653.653 0 0 1 .747.515c.161.912.049 1.837-1.819 2.373a.66.66 0 0 1-.811-.416.586.586 0 0 1-.025-.251z" class="cls-10" data-name="패스 3201"/>
                            <path id="패스_3202" d="M-100.937 375.776a37.092 37.092 0 0 0 8.845-2.725s-6.841 3.587-8.845 7.173z" class="cls-9" data-name="패스 3202"/>
                        </g>
                    </g>
                </g>
            </g>
            <g id="그룹_2950" data-name="그룹 2950">
                <path id="패스_3203" d="M-89.714 342.486c-2.67 3.66-8.74 4.25-11.26 2.37a1.458 1.458 0 0 1-.58-1.49 1.39 1.39 0 0 0 .58.94c2.45 1.82 8.26 1.31 11.03-2.08z" class="cls-11" data-name="패스 3203"/>
                <path id="패스_3204" d="M-89.944 342.226c-2.77 3.39-8.58 3.9-11.03 2.08a1.39 1.39 0 0 1-.58-.94 1.947 1.947 0 0 1 .74-1.19c1.05-.8 2.48-1.1 4.48.24 1.37.92 5.83-.84 5.83-.84z" class="cls-12" data-name="패스 3204"/>
                <g id="그룹_2949" data-name="그룹 2949">
                    <path id="패스_3205" d="M-87.753 339.5l-.992.845a.408.408 0 0 0-.046.571.405.405 0 0 0 .572.046l.992-.845.789.926-2.835 1.783a.538.538 0 0 1-.7-.1l-.782-.918a.543.543 0 0 1 .007-.717l2.211-2.515z" class="cls-13" data-name="패스 3205"/>
                    <path id="패스_3206" d="M-88.1 335.977l4.3 5.046-.758.553a1.08 1.08 0 0 1-1.524-.122l-2.805-3.293a1.08 1.08 0 0 1 .122-1.524z" class="cls-14" data-name="패스 3206"/>
                    <path id="패스_3207" d="M-73.538 332.839a.547.547 0 0 1-.094.79l-1.4 1.015-5.378-6.313 1.225-1.222a.547.547 0 0 1 .795.033z" class="cls-14" data-name="패스 3207"/>
                    <path id="패스_3208" d="M-80.412 328.33l2.693 3.161-8.232 7.012-2.153-2.527z" class="cls-15" data-name="패스 3208"/>
                    <path id="패스_3209" d="M-85.951 338.5l8.232-7.012 2.686 3.153-8.771 6.379z" class="cls-16" data-name="패스 3209"/>
                    <g id="그룹_2948" data-name="그룹 2948">
                        <path id="패스_3210" d="M-75.18 332.9l.984-.838.526.617-.984.838a.407.407 0 0 1-.571-.046.408.408 0 0 1 .045-.571z" class="cls-17" data-name="패스 3210"/>
                        <path id="패스_3211" d="M-76.2 331.711l.983-.838.53.622-.984.838a.41.41 0 0 1-.575-.05.408.408 0 0 1 .046-.572z" class="cls-17" data-name="패스 3211"/>
                        <path id="패스_3212" d="M-77.21 330.522l.984-.838.526.617-.984.838a.407.407 0 0 1-.571-.046.4.4 0 0 1 .045-.571z" class="cls-17" data-name="패스 3212"/>
                        <path id="패스_3213" d="M-78.226 329.328l.983-.838.53.622-.984.838a.41.41 0 0 1-.575-.05.408.408 0 0 1 .046-.572z" class="cls-17" data-name="패스 3213"/>
                        <path id="패스_3214" d="M-79.243 328.135l.984-.838.529.621-.984.838a.407.407 0 0 1-.571-.046.408.408 0 0 1 .042-.575z" class="cls-17" data-name="패스 3214"/>
                    </g>
                    <path id="패스_3215" d="M-83.353 333.623a.759.759 0 0 1 1.064.085l.335.393.393-.335a.758.758 0 0 1 1.064.086.759.759 0 0 1-.085 1.064l-.393.334.334.393a.758.758 0 0 1-.085 1.064.757.757 0 0 1-1.064-.085l-.335-.393-.393.335a.754.754 0 0 1-1.06-.088.754.754 0 0 1 .082-1.061l.392-.335-.334-.393a.758.758 0 0 1 .085-1.064z" class="cls-18" data-name="패스 3215"/>
                    <path id="패스_3216" d="M-88.745 340.343l.992-.845.526.617-.992.845a.405.405 0 0 1-.572-.046.408.408 0 0 1 .046-.571z" class="cls-19" data-name="패스 3216"/>
                </g>
            </g>
        </g>
    </g>
</svg>
