<svg xmlns="http://www.w3.org/2000/svg" width="50" height="50" viewBox="0 0 50 50">
    <defs>
        <style>
            .cls-1,.cls-12{fill:#fff}.cls-2{fill:#faddc7}.cls-15,.cls-3,.cls-5{fill:none;stroke-linecap:round}.cls-3{stroke:#f4c1b4;stroke-linejoin:bevel}.cls-4{fill:#343535}.cls-5{stroke:#343535}.cls-15,.cls-5{stroke-miterlimit:10}.cls-6{fill:#111}.cls-7{fill:#f6ceb3}.cls-8{fill:#f0ceb7}.cls-9{fill:#bbcd1b}.cls-10{fill:#dbdbe1}.cls-11{fill:#8e8e96}.cls-12{opacity:.4}.cls-13{fill:#469b40}.cls-14{fill:#2e7331}.cls-15{stroke:#cddef2;stroke-width:.5px;stroke-dasharray:2}
        </style>
    </defs>
    <g id="그룹_3022" data-name="그룹 3022" transform="translate(-258.226 -318.138)">
        <g id="그룹_3012" data-name="그룹 3012">
            <path id="사각형_2859" d="M0 0h50v50H0z" class="cls-1" data-name="사각형 2859" transform="translate(258.226 318.138)"/>
        </g>
        <g id="그룹_3021" data-name="그룹 3021">
            <g id="그룹_3015" data-name="그룹 3015">
                <g id="그룹_3014" data-name="그룹 3014">
                    <g id="그룹_3013" data-name="그룹 3013">
                        <path id="패스_3316" d="M298.71 347.193c-.76 3.82-2.32 6.12-4.25 7.56-3.31 2.46-7.74 2.35-11.17 2.92-1.29.22-6.03.65-8.77-1.73a8.217 8.217 0 0 1-1.042-1.073.416.416 0 0 1 .184-.652 12.837 12.837 0 0 0 3.948-2.335.984.984 0 0 0-.57-1.75c-.732-.055-3.188-.043-4.78-.017a.408.408 0 0 1-.415-.417l.125-11.059a.207.207 0 0 1 0-.025 22.287 22.287 0 0 1 1.91-6.972 11.11 11.11 0 0 1 1.41-2.24 2.254 2.254 0 0 1 .21-.24 2.106 2.106 0 0 1 .25-.27c.11-.12.22-.23.33-.34.15-.14.31-.27.48-.41 4.01-3.12 10.91-2.4 10.91-2.4h.07a10.524 10.524 0 0 1 3.79.82c.04.01.08.03.12.04a13.041 13.041 0 0 1 6.04 5.22c3.42 5.4 1.22 15.37 1.22 15.37z" class="cls-2" data-name="패스 3316"/>
                        <path id="사각형_2860" d="M0 0h13.81v9.215H0z" class="cls-2" data-name="사각형 2860" transform="translate(280.573 352.565)"/>
                        <circle id="타원_783" cx="2.152" cy="2.152" r="2.152" class="cls-2" data-name="타원 783" transform="translate(270.229 344.122)"/>
                        <path id="패스_3318" d="M275.668 343.447a1.4 1.4 0 0 1-1.395-1.395v.1a1.4 1.4 0 0 1 1.395-1.4 1.4 1.4 0 0 1 1.395 1.4v-.1a1.4 1.4 0 0 1-1.395 1.395z" class="cls-4" data-name="패스 3318"/>
                        <path id="패스_3319" d="M273.87 338.415a3.15 3.15 0 0 0 3.6.681" class="cls-5" data-name="패스 3319"/>
                        <path id="패스_3320" d="M291.317 324.209a13.478 13.478 0 0 1 8.089 5.828c5.011 7.458 1.323 17.277 1.323 17.277-1.723 4.4-4.335 6.005-6.264 7.441a.882.882 0 0 1-.083-.3c0-4.306-4.425-7.659-4.425-7.659a70.6 70.6 0 0 1-11.085-9.094 34.147 34.147 0 0 1-4.761-6.394c-.17-1.309.951-3.06 1.887-4.064a11.4 11.4 0 0 1 7.327-3.476 23.7 23.7 0 0 1 7.992.441z" class="cls-6" data-name="패스 3320"/>
                        <path id="패스_3321" d="M284.479 348.64a6.255 6.255 0 0 0 2.3.415 3.455 3.455 0 0 0 3.379-3.458 3.72 3.72 0 0 0-3.087-3.658 3.663 3.663 0 0 0-.65-.057 3.723 3.723 0 0 0-.463.028z" class="cls-7" data-name="패스 3321"/>
                        <path id="패스_3322" d="M282.863 347.962a10.077 10.077 0 0 0 3.478.851 3.57 3.57 0 0 0 3.565-3.654 3.163 3.163 0 0 0-2.83-3.22 3.07 3.07 0 0 0-1.465.027 4.472 4.472 0 0 0-2.384 1.409z" class="cls-2" data-name="패스 3322"/>
                        <path id="패스_3323" d="M288.374 345.6a.546.546 0 0 1-.548-.263c-.6-.993-1.83-.427-1.882-.4a.544.544 0 0 1-.727-.286.576.576 0 0 1 .264-.756 2.5 2.5 0 0 1 3.265.84.583.583 0 0 1-.165.787.534.534 0 0 1-.207.078z" class="cls-8" data-name="패스 3323"/>
                        <path id="패스_3324" d="M285.135 346.183a.545.545 0 0 1 .4-.458c1.117-.321.827-.82.817-.877a.543.543 0 0 1 .468-.625.576.576 0 0 1 .659.454c.142.806.044 1.622-1.6 2.1a.583.583 0 0 1-.715-.367.514.514 0 0 1-.029-.227z" class="cls-8" data-name="패스 3324"/>
                        <path id="패스_3325" d="M280.573 357.856a32.7 32.7 0 0 0 7.8-2.4s-6.036 3.164-7.8 6.328z" class="cls-7" data-name="패스 3325"/>
                    </g>
                </g>
            </g>
            <g id="그룹_3020" data-name="그룹 3020">
                <g id="그룹_3019" data-name="그룹 3019">
                    <path id="사각형_2861" d="M.383 0h3.4a.383.383 0 0 1 .383.383v3.609a.7.7 0 0 1-.7.7H.7a.7.7 0 0 1-.7-.7V.383A.383.383 0 0 1 .383 0z" class="cls-9" data-name="사각형 2861" transform="rotate(-34.81 705.328 -243.906)"/>
                    <path id="사각형_2862" d="M.461 0h1.313a.461.461 0 0 1 .461.461V1.82H0V.461A.461.461 0 0 1 .461 0z" class="cls-10" data-name="사각형 2862" transform="rotate(-34.81 698.967 -243.643)"/>
                    <path id="사각형_2863" d="M0 0h1.277v.426H0z" class="cls-11" data-name="사각형 2863" transform="rotate(-34.81 699.209 -247.633)"/>
                    <path id="사각형_2864" d="M0 0h4.171v2.445H0z" class="cls-12" data-name="사각형 2864" transform="rotate(-34.81 707.175 -244.485)"/>
                    <g id="그룹_3016" data-name="그룹 3016">
                        <path id="패스_3326" d="M265.183 357.6l.806 1.159.179-.125-1.024-1.473a.447.447 0 0 0 .039.439z" class="cls-13" data-name="패스 3326"/>
                        <path id="사각형_2865" d="M0 0h.301v1.859H0z" class="cls-13" data-name="사각형 2865" transform="rotate(-34.81 701.55 -245.574)"/>
                        <path id="사각형_2866" d="M0 0h.301v1.859H0z" class="cls-13" data-name="사각형 2866" transform="rotate(-34.81 701.836 -244.66)"/>
                        <path id="사각형_2867" d="M0 0h.301v1.859H0z" class="cls-13" data-name="사각형 2867" transform="rotate(-34.81 701.264 -246.485)"/>
                        <path id="패스_3327" d="M267.226 355.674l1.041 1.5-.222.155-1.059-1.523-.247.171 1.061 1.523.705-.49-.806-1.159a.445.445 0 0 0-.473-.177z" class="cls-13" data-name="패스 3327"/>
                    </g>
                    <path id="사각형_2868" d="M0 0h.271v1.859H0z" class="cls-14" data-name="사각형 2868" transform="rotate(-34.81 701.4 -246.053)"/>
                    <path id="사각형_2869" d="M0 0h.271v1.859H0z" class="cls-14" data-name="사각형 2869" transform="rotate(-34.81 701.685 -245.14)"/>
                    <path id="패스_3328" d="M268.267 357.171l-1.041-1.5a.426.426 0 0 0-.15.066l-.09.063 1.059 1.523z" class="cls-14" data-name="패스 3328"/>
                    <path id="사각형_2870" d="M0 0h.271v1.859H0z" class="cls-14" data-name="사각형 2870" transform="rotate(-34.81 701.113 -246.965)"/>
                    <path id="패스_3329" d="M265.3 356.978a.439.439 0 0 0-.151.184l1.024 1.473.223-.155-1.061-1.526z" class="cls-14" data-name="패스 3329"/>
                    <path id="패스_3330" d="M268.068 354.857l-.68-.979.936-.443.486.7z" class="cls-10" data-name="패스 3330"/>
                </g>
                <path id="선_653" d="M0 1.749L2.772 0" class="cls-15" data-name="선 653" transform="translate(269.286 351.511)"/>
                <path id="선_654" d="M0 2.73L1.814 0" class="cls-15" data-name="선 654" transform="translate(268.623 349.691)"/>
                <path id="선_655" d="M0 .435L3.248 0" class="cls-15" data-name="선 655" transform="translate(269.638 353.92)"/>
            </g>
        </g>
    </g>
</svg>
