<svg xmlns="http://www.w3.org/2000/svg" width="50" height="50" viewBox="0 0 50 50">
    <defs>
        <style>
            .cls-1,.cls-11,.cls-18,.cls-5,.cls-6{fill:none}.cls-2{fill:#f7f8f8}.cls-3{clip-path:url(#clip-path)}.cls-4{fill:#faddc7}.cls-5{stroke:#f4c1b4;stroke-linejoin:bevel}.cls-11,.cls-18,.cls-5,.cls-6{stroke-linecap:round}.cls-6{stroke:#343535}.cls-11,.cls-18,.cls-6{stroke-miterlimit:10}.cls-7{fill:#111}.cls-8{fill:#f6ceb3}.cls-9{fill:#f0ceb7}.cls-10{fill:#343535}.cls-11{stroke:#e12f18}.cls-12{fill:#d3c318}.cls-13{fill:#dbdbe1}.cls-14{fill:#8e8e96}.cls-15{fill:#fff;opacity:.4}.cls-16{fill:#9ea425}.cls-17{fill:#596524}.cls-18{stroke:#cddef2;stroke-width:.75px;stroke-dasharray:1}
        </style>
        <clipPath id="clip-path">
            <path id="패스_3355" d="M427.914 342.515a18.913 18.913 0 0 1-1.663 7.784c-.119.27-.249.54-.378.8a18.794 18.794 0 0 1-3.477 4.8c-.249.248-.508.485-.767.723-.2.173-.389.345-.583.507-.216.2-.432.357-.648.529a18.775 18.775 0 0 1-4.255 2.429 15.658 15.658 0 0 1-1.555.562.912.912 0 0 1-.151.054 20.266 20.266 0 0 1-1.976.485 19.327 19.327 0 0 1-3.553.335c-.345 0-.68-.022-1.015-.022a18.98 18.98 0 0 1-11.025-33.638 18.666 18.666 0 0 1 3.769-2.429c.172-.087.345-.162.518-.238.2-.1.41-.183.615-.27a18.551 18.551 0 0 1 3.013-.939c.216-.054.443-.1.67-.14v-.011l.723-.129a19.422 19.422 0 0 1 1.976-.162 2.045 2.045 0 0 1 .259-.011c.162-.011.335-.011.5-.011a18.994 18.994 0 0 1 19.003 18.992z" class="cls-1" data-name="패스 3355"/>
        </clipPath>
    </defs>
    <g id="그룹_3044" data-name="그룹 3044" transform="translate(-383.914 -318.138)">
        <path id="사각형_2888" d="M0 0h50v50H0z" class="cls-1" data-name="사각형 2888" transform="translate(383.914 318.138)"/>
        <g id="그룹_3043" data-name="그룹 3043">
            <g id="그룹_3037" data-name="그룹 3037">
                <g id="그룹_3036" data-name="그룹 3036">
                    <circle id="타원_796" cx="19" cy="19" r="19" class="cls-2" data-name="타원 796" transform="translate(389.914 323.526)"/>
                    <g id="그룹_3035" data-name="그룹 3035">
                        <g id="그룹_3034" class="cls-3" data-name="그룹 3034">
                            <g id="그룹_3033" data-name="그룹 3033">
                                <g id="그룹_3032" data-name="그룹 3032">
                                    <path id="패스_3343" d="M404.585 346.619l.205-18.131v-.04a36.537 36.537 0 0 1 3.131-11.429 18.236 18.236 0 0 1 2.312-3.673 3.675 3.675 0 0 1 .345-.393 3.39 3.39 0 0 1 .409-.443c.181-.2.361-.377.542-.557.246-.23.508-.443.787-.672 6.575-5.115 17.89-3.935 17.89-3.935h.115a17.26 17.26 0 0 1 6.215 1.345c.066.016.131.049.2.065a21.377 21.377 0 0 1 9.9 8.558c5.609 8.852 2 25.2 2 25.2-1.246 6.262-3.8 10.033-6.969 12.393-5.428 4.033-12.693 3.853-18.317 4.787-2.116.361-9.888 1.066-14.381-2.836a13.42 13.42 0 0 1-1.708-1.76 14.541 14.541 0 0 1-2.676-8.479z" class="cls-4" data-name="패스 3343"/>
                                    <path id="사각형_2889" d="M0 0h22.645v15.107H0z" class="cls-4" data-name="사각형 2889" transform="translate(418.897 351.313)"/>
                                    <path id="패스_3344" d="M398.1 341.244c0-1.552 2.1-2.81 4.7-2.81s4.7 1.258 4.7 2.81-2.1 2.18-4.7 2.18-4.7-.624-4.7-2.18z" class="cls-4" data-name="패스 3344"/>
                                    <path id="패스_3346" d="M407.991 329.989a5.167 5.167 0 0 0 5.439-2.537" class="cls-6" data-name="패스 3346"/>
                                    <path id="패스_3347" d="M436.516 304.827a22.1 22.1 0 0 1 13.264 9.555c8.217 12.227 2.169 28.323 2.169 28.323-2.825 7.211-7.108 9.844-10.271 12.2a1.434 1.434 0 0 1-.137-.493c0-7.059-7.256-12.557-7.256-12.557s-10.686-6.947-18.177-14.909c-3.812-4.051-7.729-9.873-7.808-10.481-.279-2.147 1.56-5.016 3.1-6.663a18.7 18.7 0 0 1 12.015-5.7 38.883 38.883 0 0 1 13.101.725z" class="cls-7" data-name="패스 3347"/>
                                    <path id="패스_3348" d="M425.3 344.879a10.3 10.3 0 0 0 3.779.68 5.665 5.665 0 0 0 5.543-5.669 6.138 6.138 0 0 0-6.888-6.044z" class="cls-8" data-name="패스 3348"/>
                                    <path id="패스_3349" d="M422.652 343.767a16.533 16.533 0 0 0 5.7 1.395c3.345-.281 5.845-2.414 5.845-5.99a5.186 5.186 0 0 0-4.64-5.279 5.042 5.042 0 0 0-2.4.045 7.346 7.346 0 0 0-3.91 2.309z" class="cls-4" data-name="패스 3349"/>
                                    <path id="패스_3350" d="M431.689 339.893a.894.894 0 0 1-.9-.431c-.992-1.627-3-.7-3.087-.659a.891.891 0 0 1-1.191-.469.945.945 0 0 1 .432-1.239 4.1 4.1 0 0 1 5.354 1.377.954.954 0 0 1-.27 1.29.858.858 0 0 1-.338.131z" class="cls-9" data-name="패스 3350"/>
                                    <path id="패스_3351" d="M426.377 340.851a.9.9 0 0 1 .654-.751c1.832-.526 1.356-1.345 1.34-1.437a.89.89 0 0 1 .767-1.025.944.944 0 0 1 1.08.745c.234 1.32.072 2.657-2.631 3.433a.956.956 0 0 1-1.173-.6.871.871 0 0 1-.037-.365z" class="cls-9" data-name="패스 3351"/>
                                    <path id="패스_3352" d="M418.9 359.987a53.685 53.685 0 0 0 12.8-3.941s-9.9 5.187-12.8 10.374z" class="cls-8" data-name="패스 3352"/>
                                    <rect id="사각형_2890" width="7.032" height="1.639" class="cls-10" data-name="사각형 2890" rx=".585" transform="rotate(-13.763 1587.168 -1522.614)"/>
                                    <rect id="사각형_2891" width="1.639" height="7.032" class="cls-10" data-name="사각형 2891" rx=".585" transform="rotate(-77.603 412.296 -86.033)"/>
                                    <path id="패스_3353" d="M404.791 328.448l-6.4 11.83 9.106.965z" class="cls-4" data-name="패스 3353"/>
                                    <path id="패스_3354" d="M404.846 353.293c3.145 0 4.947-.56 6.851-2.786" class="cls-11" data-name="패스 3354"/>
                                </g>
                            </g>
                        </g>
                    </g>
                </g>
            </g>
            <g id="그룹_3042" data-name="그룹 3042">
                <g id="그룹_3041" data-name="그룹 3041">
                    <path id="사각형_2892" d="M.383 0h5.1a.383.383 0 0 1 .383.383V5.9a.7.7 0 0 1-.7.7H.7a.7.7 0 0 1-.7-.7V.383A.383.383 0 0 1 .383 0z" class="cls-12" data-name="사각형 2892" transform="rotate(-38.843 704.197 -378.805)"/>
                    <path id="사각형_2893" d="M.461 0h2.221a.461.461 0 0 1 .461.461v2.1H0v-2.1A.461.461 0 0 1 .461 0z" class="cls-13" data-name="사각형 2893" transform="rotate(-38.843 696.163 -378.187)"/>
                    <path id="사각형_2894" d="M0 0h1.797v.599H0z" class="cls-14" data-name="사각형 2894" transform="rotate(-38.843 696.291 -383.244)"/>
                    <path id="사각형_2895" d="M0 0h5.866v3.439H0z" class="cls-15" data-name="사각형 2895" transform="rotate(-38.843 706.507 -379.62)"/>
                    <g id="그룹_3038" data-name="그룹 3038">
                        <path id="패스_3356" d="M392.678 355.852l1.245 1.546.239-.192-1.583-1.966a.629.629 0 0 0 .099.612z" class="cls-16" data-name="패스 3356"/>
                        <path id="사각형_2896" d="M0 0h.423v2.615H0z" class="cls-16" data-name="사각형 2896" transform="rotate(-38.843 699.343 -380.744)"/>
                        <path id="사각형_2897" d="M0 0h.423v2.615H0z" class="cls-16" data-name="사각형 2897" transform="rotate(-38.843 699.746 -379.603)"/>
                        <path id="사각형_2898" d="M0 0h.423v2.615H0z" class="cls-16" data-name="사각형 2898" transform="rotate(-38.843 698.941 -381.884)"/>
                        <path id="패스_3357" d="M395.353 352.946l1.609 2-.3.239-1.637-2.032-.329.265 1.64 2.037.94-.757-1.245-1.546a.629.629 0 0 0-.678-.206z" class="cls-16" data-name="패스 3357"/>
                    </g>
                    <path id="사각형_2899" d="M0 0h.381v2.615H0z" class="cls-17" data-name="사각형 2899" transform="rotate(-38.843 699.132 -381.343)"/>
                    <path id="사각형_2900" d="M0 0h.381v2.615H0z" class="cls-17" data-name="사각형 2900" transform="rotate(-38.843 699.534 -380.204)"/>
                    <path id="패스_3358" d="M396.962 354.944l-1.609-2a.632.632 0 0 0-.2.108l-.12.1 1.637 2.032z" class="cls-17" data-name="패스 3358"/>
                    <path id="사각형_2901" d="M0 0h.381v2.615H0z" class="cls-17" data-name="사각형 2901" transform="rotate(-38.843 698.73 -382.485)"/>
                    <path id="패스_3359" d="M392.773 354.967a.626.626 0 0 0-.194.273l1.583 1.966.3-.24-1.64-2.036z" class="cls-17" data-name="패스 3359"/>
                    <path id="패스_3360" d="M396.452 351.717l-1.052-1.306 1.27-.715.751.933z" class="cls-13" data-name="패스 3360"/>
                </g>
                <path id="선_660" d="M0 2.728L3.715 0" class="cls-18" data-name="선 660" transform="translate(398.002 346.627)"/>
                <path id="선_661" d="M0 4.009L2.274 0" class="cls-18" data-name="선 661" transform="translate(396.99 344.235)"/>
                <path id="선_662" d="M0 .932L4.514 0" class="cls-18" data-name="선 662" transform="translate(398.605 349.924)"/>
            </g>
        </g>
    </g>
</svg>
