<svg xmlns="http://www.w3.org/2000/svg" width="50" height="50" viewBox="0 0 50 50">
    <defs>
        <style>
            .cls-1,.cls-20,.cls-5,.cls-7{fill:none}.cls-2{clip-path:url(#clip-path)}.cls-3{fill:#faddc7}.cls-4{fill:#ee5840}.cls-5{stroke:#f4c1b4;stroke-linejoin:bevel}.cls-20,.cls-5,.cls-7{stroke-linecap:round}.cls-6{fill:#343535}.cls-7{stroke:#343535}.cls-20,.cls-7{stroke-miterlimit:10}.cls-8{fill:#111}.cls-9{fill:#f6ceb3}.cls-10{fill:#f0ceb7}.cls-11{fill:#fd950d}.cls-12{fill:#dbdbe1}.cls-13{fill:#8e8e96}.cls-14,.cls-16{fill:#fff}.cls-14{opacity:.4}.cls-15{fill:#1c5ba7}.cls-16{opacity:.1}.cls-17{opacity:.02}.cls-18{clip-path:url(#clip-path-2)}.cls-19{fill:#0b0c0c}.cls-20{stroke:#cddef2;stroke-dasharray:2}
        </style>
        <clipPath id="clip-path">
            <path id="사각형_2821" d="M0 0h41.672v36.922H0z" class="cls-1" data-name="사각형 2821" transform="translate(-180.122 325.144)"/>
        </clipPath>
        <clipPath id="clip-path-2">
            <path id="사각형_2835" d="M0 0h3.8v15.247H0z" class="cls-1" data-name="사각형 2835" transform="scale(-1) rotate(-49.14 -299.1 -314.628)"/>
        </clipPath>
    </defs>
    <g id="그룹_2933" data-name="그룹 2933" transform="translate(181.679 -318.138)">
        <g id="그룹_2932" data-name="그룹 2932">
            <g id="그룹_2927" data-name="그룹 2927">
                <g id="그룹_2926" class="cls-2" data-name="그룹 2926">
                    <g id="그룹_2925" data-name="그룹 2925">
                        <path id="패스_3155" d="M-145.835 363.72c-.861 4.325-2.621 6.938-4.808 8.566-3.758 2.792-8.774 2.669-12.665 3.313-1.467.246-6.834.738-9.939-1.96a8.176 8.176 0 0 1-3.038-6.37l.152-13.261a25.308 25.308 0 0 1 2.158-7.913 12.6 12.6 0 0 1 1.6-2.537 1.62 1.62 0 0 1 .237-.274 2.963 2.963 0 0 1 .284-.313 8.444 8.444 0 0 1 .918-.842c4.544-3.54 12.371-2.726 12.371-2.726h.076a12.031 12.031 0 0 1 4.3.927.818.818 0 0 0 .133.048 14.785 14.785 0 0 1 6.844 5.916c3.876 6.124 1.377 17.426 1.377 17.426z" class="cls-3" data-name="패스 3155"/>
                        <path id="사각형_2820" d="M0 0h15.652v10.445H0z" class="cls-3" data-name="사각형 2820" transform="translate(-166.388 369.803)"/>
                        <circle id="타원_758" cx="2.439" cy="2.439" r="2.439" class="cls-3" data-name="타원 758" transform="translate(-178.113 360.235)"/>
                        <path id="패스_3156" d="M-173.843 373.076a7.035 7.035 0 0 1-1.889-2.914 9.512 9.512 0 0 1-.551-2.893v-.937h6.607a2.115 2.115 0 0 1 2.026 1.757c.21 1.032-.315 3.756-6.193 4.987z" class="cls-4" data-name="패스 3156"/>
                        <path id="패스_3158" d="M-171.948 359.469a1.586 1.586 0 0 1-1.582-1.581V358a1.587 1.587 0 0 1 1.582-1.581 1.586 1.586 0 0 1 1.581 1.581v-.108a1.585 1.585 0 0 1-1.581 1.577z" class="cls-6" data-name="패스 3158"/>
                        <path id="패스_3159" d="M-173.986 353.766a3.571 3.571 0 0 0 4.076.771" class="cls-7" data-name="패스 3159"/>
                        <path id="패스_3160" d="M-154.211 337.664a15.278 15.278 0 0 1 9.168 6.606c5.68 8.453 1.5 19.582 1.5 19.582-1.953 4.986-4.913 6.806-7.1 8.434a.99.99 0 0 1-.1-.341c0-4.88-5.015-8.682-5.015-8.682a79.929 79.929 0 0 1-12.563-10.307 38.756 38.756 0 0 1-5.4-7.246c-.193-1.485 1.078-3.468 2.139-4.607a12.923 12.923 0 0 1 8.305-3.94 26.868 26.868 0 0 1 9.066.501z" class="cls-8" data-name="패스 3160"/>
                        <path id="패스_3161" d="M-161.962 365.355a7.1 7.1 0 0 0 2.613.471 3.917 3.917 0 0 0 3.83-3.92 4.218 4.218 0 0 0-3.5-4.147 4.254 4.254 0 0 0-.737-.064 4.312 4.312 0 0 0-.524.032z" class="cls-9" data-name="패스 3161"/>
                        <path id="패스_3162" d="M-163.794 364.586a11.422 11.422 0 0 0 3.943.964 4.044 4.044 0 0 0 4.04-4.14 3.586 3.586 0 0 0-3.207-3.651 3.489 3.489 0 0 0-1.661.032 5.071 5.071 0 0 0-2.7 1.6z" class="cls-3" data-name="패스 3162"/>
                        <path id="패스_3163" d="M-157.725 362.135a.618.618 0 0 1-.568-.389c-.505-1.217-1.976-.8-2.039-.777a.615.615 0 0 1-.764-.446.653.653 0 0 1 .426-.8 2.83 2.83 0 0 1 3.512 1.507.66.66 0 0 1-.321.852.585.585 0 0 1-.246.053z" class="cls-10" data-name="패스 3163"/>
                        <path id="패스_3164" d="M-161.218 362.571a.618.618 0 0 1 .452-.52c1.266-.363.937-.93.925-.994a.617.617 0 0 1 .531-.708.653.653 0 0 1 .747.515c.161.912.049 1.837-1.819 2.373a.66.66 0 0 1-.811-.415.587.587 0 0 1-.025-.251z" class="cls-10" data-name="패스 3164"/>
                        <path id="패스_3165" d="M-166.388 375.8a37.113 37.113 0 0 0 8.845-2.724s-6.842 3.586-8.845 7.172z" class="cls-9" data-name="패스 3165"/>
                    </g>
                </g>
            </g>
            <g id="그룹_2931" data-name="그룹 2931">
                <g id="그룹_2930" data-name="그룹 2930">
                    <path id="사각형_2822" d="M3.023 0h1.555A3.023 3.023 0 0 1 7.6 3.023v2.95a2.57 2.57 0 0 1-2.57 2.57H2.57A2.57 2.57 0 0 1 0 5.973v-2.95A3.023 3.023 0 0 1 3.023 0z" class="cls-11" data-name="사각형 2822" transform="scale(-1) rotate(-49.14 -297.2 -310.47)"/>
                    <path id="사각형_2823" d="M0 0h4.073v1.28a2.036 2.036 0 0 1-2.037 2.037A2.036 2.036 0 0 1 0 1.28V0z" class="cls-12" data-name="사각형 2823" transform="scale(-1) rotate(-49.14 -285.046 -318.405)"/>
                    <path id="사각형_2824" d="M0 0h2.328v.776H0z" class="cls-13" data-name="사각형 2824" transform="scale(-1) rotate(-49.14 -286.003 -323.356)"/>
                    <path id="사각형_2825" d="M0 0h7.601v4.455H0z" class="cls-14" data-name="사각형 2825" transform="scale(-1) rotate(-49.14 -295.039 -311.458)"/>
                    <path id="패스_3166" d="M-141.075 325.5l1.945 1.683-.26.3-2.473-2.139a.81.81 0 0 1 .788.156z" class="cls-15" data-name="패스 3166"/>
                    <path id="사각형_2826" d="M0 0h.548v3.388H0z" class="cls-15" data-name="사각형 2826" transform="rotate(-49.14 285.904 320.282)"/>
                    <path id="사각형_2827" d="M0 0h.548v3.388H0z" class="cls-15" data-name="사각형 2827" transform="rotate(-49.14 285.382 319.14)"/>
                    <path id="사각형_2828" d="M0 0h.548v3.388H0z" class="cls-15" data-name="사각형 2828" transform="rotate(-49.14 286.425 321.42)"/>
                    <path id="패스_3167" d="M-144.961 328.828l2.514 2.175.324-.374-2.557-2.212.358-.414 2.562 2.216-1.023 1.183-1.945-1.683a.814.814 0 0 1-.233-.891z" class="cls-15" data-name="패스 3167"/>
                    <path id="사각형_2829" d="M0 0h.494v3.388H0z" class="cls-15" data-name="사각형 2829" transform="rotate(-49.14 286.15 320.821)"/>
                    <path id="사각형_2830" d="M0 0h.494v3.388H0z" class="cls-16" data-name="사각형 2830" transform="rotate(-49.14 286.15 320.821)"/>
                    <path id="사각형_2831" d="M0 0h.494v3.388H0z" class="cls-15" data-name="사각형 2831" transform="rotate(-49.14 285.63 319.681)"/>
                    <path id="사각형_2832" d="M0 0h.494v3.388H0z" class="cls-16" data-name="사각형 2832" transform="rotate(-49.14 285.63 319.681)"/>
                    <path id="패스_3168" d="M-142.447 331l-2.514-2.175a.812.812 0 0 1 .15-.26l.131-.151 2.557 2.212z" class="cls-15" data-name="패스 3168"/>
                    <path id="패스_3169" d="M-142.447 331l-2.514-2.175a.812.812 0 0 1 .15-.26l.131-.151 2.557 2.212z" class="cls-16" data-name="패스 3169"/>
                    <path id="사각형_2833" d="M0 0h.494v3.388H0z" class="cls-15" data-name="사각형 2833" transform="rotate(-49.14 286.673 321.962)"/>
                    <path id="사각형_2834" d="M0 0h.494v3.388H0z" class="cls-16" data-name="사각형 2834" transform="rotate(-49.14 286.673 321.962)"/>
                    <path id="패스_3170" d="M-142.226 325.58a.8.8 0 0 1 .363-.238l2.473 2.139-.324.374-2.562-2.217z" class="cls-15" data-name="패스 3170"/>
                    <path id="패스_3171" d="M-142.226 325.58a.8.8 0 0 1 .363-.238l2.473 2.139-.324.374-2.562-2.217z" class="cls-16" data-name="패스 3171"/>
                    <path id="패스_3172" d="M-146.6 330.2l-1.643-1.421-.984 1.611 1.174 1.015z" class="cls-12" data-name="패스 3172"/>
                    <g id="그룹_2929" class="cls-17" data-name="그룹 2929">
                        <g id="그룹_2928" class="cls-18" data-name="그룹 2928">
                            <path id="패스_3173" d="M-142.65 332.821l4.767 4.125a1.207 1.207 0 0 0 1.7-.123l3.392-3.921a1.207 1.207 0 0 0-.123-1.7l-4.768-4.124a1.027 1.027 0 0 0-1.45.1l-1.945-1.683a.819.819 0 0 0-.789-.159.831.831 0 0 0-.362.242l.031-.036-1.891-1.636a.814.814 0 0 0-1.151.083l-1.6 1.845a.814.814 0 0 0 .083 1.151l1.891 1.636.05-.057a.807.807 0 0 0-.152.26.817.817 0 0 0 .235.891l1.945 1.683a1.028 1.028 0 0 0 .137 1.423z" class="cls-19" data-name="패스 3173"/>
                        </g>
                    </g>
                </g>
                <path id="선_603" d="M3.702 0L0 4.686" class="cls-20" data-name="선 603" transform="translate(-153.434 332.095)"/>
                <path id="선_604" d="M5.296 0L0 2.761" class="cls-20" data-name="선 604" transform="translate(-156.42 330.733)"/>
                <path id="선_605" d="M1.414 0L0 5.803" class="cls-20" data-name="선 605" transform="translate(-149.229 332.944)"/>
            </g>
        </g>
        <path id="사각형_2836" d="M0 0h50v50H0z" class="cls-1" data-name="사각형 2836" transform="translate(-181.679 318.138)"/>
    </g>
</svg>
