<svg xmlns="http://www.w3.org/2000/svg" width="50" height="50" viewBox="0 0 50 50">
    <defs>
        <style>
            .cls-1{fill:#faddc7}.cls-2{fill:#f2d2bd}.cls-3{fill:#ffede1}.cls-4{fill:#f7e3d9}.cls-5{fill:#eb8467}.cls-6{fill:#f18c6a}.cls-10,.cls-16,.cls-7,.cls-9{fill:none}.cls-10,.cls-7,.cls-9{stroke:#fff;stroke-miterlimit:10}.cls-10,.cls-7{stroke-linecap:round;stroke-width:.25px}.cls-7{opacity:.34}.cls-8{fill:#d7c4db}.cls-9{stroke-width:.04px}.cls-10,.cls-9{opacity:.38}.cls-11{fill:#d47fb3}.cls-12{fill:#b63a86}.cls-13{fill:#cb4491}.cls-14{fill:#bd5c99}.cls-15{fill:#c9b8cf}
        </style>
    </defs>
    <g id="그룹_3003" data-name="그룹 3003" transform="translate(-132.539 -318.138)">
        <g id="그룹_3002" data-name="그룹 3002">
            <path id="사각형_2854" d="M14.053 0a14.053 14.053 0 0 1 14.053 14.053v14.053H0V14.053A14.053 14.053 0 0 1 14.053 0z" class="cls-1" data-name="사각형 2854" transform="translate(143.196 335.732)"/>
            <path id="패스_3278" d="M166.24 348.132v1.5a6.3 6.3 0 0 1-6.3 6.3h-5.38a6.3 6.3 0 0 1-6.3-6.3v-1.5a6.3 6.3 0 0 0 6.3 6.3h5.38a6.3 6.3 0 0 0 6.3-6.3z" class="cls-2" data-name="패스 3278"/>
            <path id="패스_3279" d="M157.25 332.9v21.53h-2.69a6.3 6.3 0 0 1-6.3-6.3v-6.23a8.992 8.992 0 0 1 8.99-9z" class="cls-3" data-name="패스 3279"/>
            <path id="패스_3280" d="M166.24 348.132v1.46a6.3 6.3 0 0 1-6.3 6.3h-5.38a6.3 6.3 0 0 1-6.3-6.3v-1.46a6.3 6.3 0 0 0 6.3 6.3h5.38a6.3 6.3 0 0 0 6.3-6.3z" class="cls-2" data-name="패스 3280"/>
            <path id="패스_3281" d="M166.24 341.9v6.23a6.3 6.3 0 0 1-6.3 6.3h-2.69V332.9a9 9 0 0 1 8.99 9z" class="cls-4" data-name="패스 3281"/>
            <path id="패스_3282" d="M158.51 350.192a5.494 5.494 0 0 1-3.47 2.02s-2.43.24-3.62-1.07a4.012 4.012 0 0 1-.88-3.09 3.153 3.153 0 0 1 1.3-1.89 3.583 3.583 0 0 0-.49 1.08 4.04 4.04 0 0 0 .89 3.09c1.18 1.3 3.61 1.07 3.61 1.07a5.42 5.42 0 0 0 2.66-1.21z" class="cls-5" data-name="패스 3282"/>
            <path id="패스_3283" d="M160.22 345.752a8.4 8.4 0 0 1-1.71 4.44 5.42 5.42 0 0 1-2.66 1.21s-2.43.23-3.61-1.07a4.04 4.04 0 0 1-.89-3.09 3.583 3.583 0 0 1 .49-1.08 2.975 2.975 0 0 1 .96-.39 19.247 19.247 0 0 0 4.47-2.37c.02 0 .03 0 .04-.02.46-.3.75-.5.75-.5v.08c0 .12.01.35 0 .55-.02.29-.56.57-.8.98s.86.25.8.57c-.03.18.36.24.84.21a.34.34 0 0 1 .01.1v.25a2.881 2.881 0 0 0 .56-.13c.52-.17.69.14.74.23a.078.078 0 0 1 .01.03z" class="cls-6" data-name="패스 3283"/>
            <path id="패스_3284" d="M155.833 350.483a3.941 3.941 0 0 1-2.888-.856 3.232 3.232 0 0 1-.712-2.472" class="cls-7" data-name="패스 3284"/>
            <g id="그룹_3001" data-name="그룹 3001">
                <path id="패스_3285" d="M156.693 343.719l.535-.713 3.823-5.341 2.017 1.065-2.463 6.275-.037.07-.2.559a.654.654 0 0 1-.642.125c-.027-.014-.058-.019-.085-.033a.675.675 0 0 1-.275-.27.65.65 0 0 1-1.093-.351.7.7 0 0 1-.442-.064.637.637 0 0 1-.339-.62.653.653 0 0 1-.794-.7z" class="cls-8" data-name="패스 3285"/>
                <path id="선_645" d="M0 3.5L1.422 0" class="cls-9" data-name="선 645" transform="translate(159.353 342.348)"/>
                <path id="선_646" d="M0 5.524L3.131 0" class="cls-9" data-name="선 646" transform="translate(158.141 339.88)"/>
                <path id="선_647" d="M0 4.54L2.652 0" class="cls-9" data-name="선 647" transform="translate(157.329 340.11)"/>
                <path id="선_648" d="M0 3.765L1.988 0" class="cls-10" data-name="선 648" transform="translate(161.883 334.957)"/>
                <path id="선_649" d="M0 2.875L1.837 0" class="cls-10" data-name="선 649" transform="translate(161.619 334.579)"/>
                <path id="선_650" d="M0 1.203L.479 0" class="cls-10" data-name="선 650" transform="translate(163.908 335.117)"/>
                <path id="선_651" d="M0 1.322L.81 0" class="cls-9" data-name="선 651" transform="translate(160.432 338.168)"/>
                <path id="선_652" d="M0 1.349L.56 0" class="cls-9" data-name="선 652" transform="translate(161.9 339.164)"/>
                <g id="그룹_3000" data-name="그룹 3000">
                    <path id="사각형_2855" d="M0 0h9.77v2.339H0z" class="cls-11" data-name="사각형 2855" transform="rotate(-62.159 361.149 36.098)"/>
                    <path id="패스_3286" d="M159.769 337.575a.528.528 0 0 1 .763-.185l3.107 1.641a.524.524 0 1 1-.485.92l-3.108-1.641a.529.529 0 0 1-.277-.735z" class="cls-11" data-name="패스 3286"/>
                </g>
                <path id="패스_3287" d="M165.382 332.024l4.642-8.79 1.017.538a1.583 1.583 0 0 1 .659 2.134l-3.167 6a1.584 1.584 0 0 1-2.135.659z" class="cls-12" data-name="패스 3287"/>
                <path id="패스_3288" d="M163.564 329.277l3.166-5.995a1.577 1.577 0 0 1 2.135-.659l1.159.611-4.642 8.79-1.159-.612a1.577 1.577 0 0 1-.659-2.135z" class="cls-13" data-name="패스 3288"/>
                <path id="패스_3289" d="M166.161 332.408l-1.833-.968-.293.562z" class="cls-14" data-name="패스 3289"/>
                <path id="패스_3290" d="M156.495 343.987c.014-.026.036-.048.05-.075l.148-.193a.653.653 0 0 0 .794.7.637.637 0 0 0 .339.62.7.7 0 0 0 .442.064.65.65 0 0 0 1.093.351.675.675 0 0 0 .275.27c.027.014.058.019.085.033a.654.654 0 0 0 .642-.125l-.081.24a.655.655 0 0 1-.832.4c-.027-.014-.058-.02-.085-.034a.663.663 0 0 1-.275-.27.649.649 0 0 1-1.093-.35.694.694 0 0 1-.441-.064.637.637 0 0 1-.34-.62.648.648 0 0 1-.53-.111.655.655 0 0 1-.191-.836z" class="cls-15" data-name="패스 3290"/>
            </g>
        </g>
        <path id="사각형_2856" d="M0 0h50v50H0z" class="cls-16" data-name="사각형 2856" transform="translate(132.539 318.138)"/>
    </g>
</svg>
