<svg xmlns="http://www.w3.org/2000/svg" xmlns:xlink="http://www.w3.org/1999/xlink" width="50" height="50" viewBox="0 0 50 50">
  <defs>
    <clipPath id="clip-path">
      <rect id="사각형_2059" data-name="사각형 2059" width="41.672" height="36.922" fill="none"/>
    </clipPath>
    <clipPath id="clip-path-2">
      <rect id="사각형_2073" data-name="사각형 2073" width="3.8" height="15.247" transform="matrix(-0.654, 0.756, -0.756, -0.654, 14.017, 9.976)" fill="none"/>
    </clipPath>
  </defs>
  <g id="그룹_1543" data-name="그룹 1543" transform="translate(-691.117 -261.571)">
    <g id="그룹_1542" data-name="그룹 1542" transform="translate(692.674 266.807)">
      <g id="그룹_1537" data-name="그룹 1537" transform="translate(0 1.769)">
        <g id="그룹_1536" data-name="그룹 1536" clip-path="url(#clip-path)">
          <g id="그룹_1535" data-name="그룹 1535" transform="translate(2.01 11.849)">
            <path id="패스_1412" data-name="패스 1412" d="M726.962,307.153c-.862,4.325-2.622,6.938-4.809,8.566-3.758,2.792-8.774,2.669-12.665,3.313-1.467.246-6.834.738-9.939-1.96a8.176,8.176,0,0,1-3.038-6.37l.152-13.261a25.308,25.308,0,0,1,2.158-7.913,12.6,12.6,0,0,1,1.6-2.537,1.622,1.622,0,0,1,.237-.274,2.965,2.965,0,0,1,.284-.313c.123-.132.246-.255.379-.378.17-.161.35-.313.539-.464,4.544-3.54,12.371-2.726,12.371-2.726h.076a12.031,12.031,0,0,1,4.3.927.82.82,0,0,0,.133.048,14.785,14.785,0,0,1,6.844,5.916C729.46,295.851,726.962,307.153,726.962,307.153Z" transform="translate(-694.683 -280.426)" fill="#faddc7"/>
            <rect id="사각형_2058" data-name="사각형 2058" width="15.652" height="10.445" transform="translate(11.724 32.81)" fill="#faddc7"/>
            <circle id="타원_495" data-name="타원 495" cx="2.439" cy="2.439" r="2.439" transform="translate(0 23.242)" fill="#faddc7"/>
            <path id="패스_1413" data-name="패스 1413" d="M698.953,316.508a7.026,7.026,0,0,1-1.889-2.913,9.511,9.511,0,0,1-.551-2.893v-.937h6.607a2.114,2.114,0,0,1,2.026,1.756C705.356,312.553,704.831,315.278,698.953,316.508Z" transform="translate(-694.683 -280.426)" fill="#ee5840"/>
            <path id="패스_1414" data-name="패스 1414" d="M699.552,317.072" transform="translate(-694.683 -280.426)" fill="none" stroke="#f4c1b4" stroke-linecap="round" stroke-linejoin="bevel" stroke-width="1"/>
            <path id="패스_1415" data-name="패스 1415" d="M700.848,302.9h0a1.587,1.587,0,0,1-1.582-1.581v.108a1.587,1.587,0,0,1,1.582-1.581h0a1.586,1.586,0,0,1,1.581,1.581v-.108A1.586,1.586,0,0,1,700.848,302.9Z" transform="translate(-694.683 -280.426)" fill="#343535"/>
            <path id="패스_1416" data-name="패스 1416" d="M698.81,297.2a3.571,3.571,0,0,0,4.076.771" transform="translate(-694.683 -280.426)" fill="none" stroke="#343535" stroke-linecap="round" stroke-miterlimit="10" stroke-width="1"/>
            <path id="패스_1417" data-name="패스 1417" d="M718.585,281.1a15.278,15.278,0,0,1,9.168,6.606c5.68,8.453,1.5,19.582,1.5,19.582-1.953,4.986-4.913,6.806-7.1,8.434a.989.989,0,0,1-.1-.341c0-4.88-5.015-8.682-5.015-8.682a79.929,79.929,0,0,1-12.563-10.307,38.716,38.716,0,0,1-5.4-7.247c-.193-1.484,1.078-3.467,2.139-4.606a12.923,12.923,0,0,1,8.3-3.94A26.868,26.868,0,0,1,718.585,281.1Z" transform="translate(-694.683 -280.426)" fill="#111"/>
            <path id="패스_1418" data-name="패스 1418" d="M710.834,308.788a7.1,7.1,0,0,0,2.613.47,3.915,3.915,0,0,0,3.83-3.919,4.232,4.232,0,0,0-4.236-4.211,4.311,4.311,0,0,0-.524.032Z" transform="translate(-694.683 -280.426)" fill="#f6ceb3"/>
            <path id="패스_1419" data-name="패스 1419" d="M709,308.019a11.432,11.432,0,0,0,3.942.964,4.045,4.045,0,0,0,4.04-4.141,3.586,3.586,0,0,0-3.207-3.65,3.489,3.489,0,0,0-1.661.032,5.082,5.082,0,0,0-2.7,1.6Z" transform="translate(-694.683 -280.426)" fill="#faddc7"/>
            <path id="패스_1420" data-name="패스 1420" d="M715.071,305.568a.619.619,0,0,1-.568-.389c-.505-1.217-1.976-.8-2.039-.777a.615.615,0,0,1-.764-.446.653.653,0,0,1,.426-.8,2.83,2.83,0,0,1,3.512,1.507.659.659,0,0,1-.321.852A.585.585,0,0,1,715.071,305.568Z" transform="translate(-694.683 -280.426)" fill="#f0ceb7"/>
            <path id="패스_1421" data-name="패스 1421" d="M711.578,306a.618.618,0,0,1,.452-.519c1.266-.364.937-.93.926-.994a.615.615,0,0,1,.53-.708.653.653,0,0,1,.747.515c.161.912.049,1.837-1.819,2.373a.66.66,0,0,1-.811-.416A.585.585,0,0,1,711.578,306Z" transform="translate(-694.683 -280.426)" fill="#f0ceb7"/>
            <path id="패스_1422" data-name="패스 1422" d="M706.408,319.233a37.091,37.091,0,0,0,8.845-2.725s-6.842,3.587-8.845,7.173Z" transform="translate(-694.683 -280.426)" fill="#f6ceb3"/>
          </g>
        </g>
      </g>
      <g id="그룹_1541" data-name="그룹 1541" transform="translate(23.703)">
        <g id="그룹_1540" data-name="그룹 1540" transform="translate(7.191)">
          <path id="사각형_2060" data-name="사각형 2060" d="M3.023,0H4.578A3.023,3.023,0,0,1,7.6,3.023v2.95a2.57,2.57,0,0,1-2.57,2.57H2.57A2.57,2.57,0,0,1,0,5.973V3.023A3.023,3.023,0,0,1,3.023,0Z" transform="matrix(-0.654, 0.756, -0.756, -0.654, 17.234, 8.615)" fill="#fd950d"/>
          <path id="사각형_2061" data-name="사각형 2061" d="M0,0H4.073a0,0,0,0,1,0,0V1.28A2.036,2.036,0,0,1,2.036,3.317h0A2.036,2.036,0,0,1,0,1.28V0A0,0,0,0,1,0,0Z" transform="matrix(-0.654, 0.756, -0.756, -0.654, 7.034, 2.17)" fill="#dbdbe1"/>
          <rect id="사각형_2062" data-name="사각형 2062" width="2.328" height="0.776" transform="matrix(-0.654, 0.756, -0.756, -0.654, 3.622, 4.603)" fill="#8e8e96"/>
          <rect id="사각형_2063" data-name="사각형 2063" width="7.601" height="4.455" transform="matrix(-0.654, 0.756, -0.756, -0.654, 15.74, 7.322)" fill="#fff" opacity="0.4"/>
          <path id="패스_1423" data-name="패스 1423" d="M731.721,268.93l1.945,1.683-.26.3-2.473-2.139A.81.81,0,0,1,731.721,268.93Z" transform="translate(-723.567 -266.807)" fill="#1c5ba7"/>
          <rect id="사각형_2064" data-name="사각형 2064" width="0.548" height="3.388" transform="matrix(0.654, -0.756, 0.756, 0.654, 5.912, 3.466)" fill="#1c5ba7"/>
          <rect id="사각형_2065" data-name="사각형 2065" width="0.548" height="3.388" transform="matrix(0.654, -0.756, 0.756, 0.654, 6.594, 2.678)" fill="#1c5ba7"/>
          <rect id="사각형_2066" data-name="사각형 2066" width="0.548" height="3.388" transform="matrix(0.654, -0.756, 0.756, 0.654, 5.231, 4.254)" fill="#1c5ba7"/>
          <path id="패스_1424" data-name="패스 1424" d="M727.835,272.261l2.514,2.175.324-.374-2.557-2.212.358-.415,2.563,2.217-1.024,1.183-1.945-1.683A.814.814,0,0,1,727.835,272.261Z" transform="translate(-723.567 -266.807)" fill="#1c5ba7"/>
          <rect id="사각형_2067" data-name="사각형 2067" width="0.494" height="3.388" transform="matrix(0.654, -0.756, 0.756, 0.654, 5.589, 3.84)" fill="#1c5ba7"/>
          <rect id="사각형_2068" data-name="사각형 2068" width="0.494" height="3.388" transform="matrix(0.654, -0.756, 0.756, 0.654, 5.589, 3.84)" fill="#fff" opacity="0.1"/>
          <rect id="사각형_2069" data-name="사각형 2069" width="0.494" height="3.388" transform="matrix(0.654, -0.756, 0.756, 0.654, 6.271, 3.052)" fill="#1c5ba7"/>
          <rect id="사각형_2070" data-name="사각형 2070" width="0.494" height="3.388" transform="matrix(0.654, -0.756, 0.756, 0.654, 6.271, 3.052)" fill="#fff" opacity="0.1"/>
          <path id="패스_1425" data-name="패스 1425" d="M730.349,274.436l-2.514-2.175a.811.811,0,0,1,.15-.26l.131-.151,2.557,2.212Z" transform="translate(-723.567 -266.807)" fill="#1c5ba7"/>
          <path id="패스_1426" data-name="패스 1426" d="M730.349,274.436l-2.514-2.175a.811.811,0,0,1,.15-.26l.131-.151,2.557,2.212Z" transform="translate(-723.567 -266.807)" fill="#fff" opacity="0.1"/>
          <rect id="사각형_2071" data-name="사각형 2071" width="0.494" height="3.388" transform="matrix(0.654, -0.756, 0.756, 0.654, 4.907, 4.628)" fill="#1c5ba7"/>
          <rect id="사각형_2072" data-name="사각형 2072" width="0.494" height="3.388" transform="matrix(0.654, -0.756, 0.756, 0.654, 4.907, 4.628)" fill="#fff" opacity="0.1"/>
          <path id="패스_1427" data-name="패스 1427" d="M730.57,269.013a.8.8,0,0,1,.363-.238l2.473,2.139-.324.374-2.562-2.217Z" transform="translate(-723.567 -266.807)" fill="#1c5ba7"/>
          <path id="패스_1428" data-name="패스 1428" d="M730.57,269.013a.8.8,0,0,1,.363-.238l2.473,2.139-.324.374-2.562-2.217Z" transform="translate(-723.567 -266.807)" fill="#fff" opacity="0.1"/>
          <path id="패스_1429" data-name="패스 1429" d="M726.194,273.628l-1.643-1.421-.984,1.611,1.174,1.015Z" transform="translate(-723.567 -266.807)" fill="#dbdbe1"/>
          <g id="그룹_1539" data-name="그룹 1539" transform="translate(0.73 1.513)" opacity="0.02">
            <g id="그룹_1538" data-name="그룹 1538" clip-path="url(#clip-path-2)">
              <path id="패스_1430" data-name="패스 1430" d="M730.146,276.254l4.767,4.125a1.207,1.207,0,0,0,1.7-.123l3.392-3.921a1.207,1.207,0,0,0-.123-1.7l-4.768-4.124a1.027,1.027,0,0,0-1.45.105l0,0-1.945-1.683a.816.816,0,0,0-.789-.159.831.831,0,0,0-.362.242l.031-.036-1.891-1.636a.814.814,0,0,0-1.151.083l-1.6,1.845a.814.814,0,0,0,.083,1.151l1.891,1.636.05-.057a.807.807,0,0,0-.152.26.817.817,0,0,0,.235.891l1.945,1.682A1.03,1.03,0,0,0,730.146,276.254Z" transform="translate(-724.297 -268.32)" fill="#0b0c0c"/>
            </g>
          </g>
        </g>
        <line id="선_274" data-name="선 274" x1="3.702" y2="4.686" transform="translate(2.985 8.72)" fill="none" stroke="#cddef2" stroke-linecap="round" stroke-miterlimit="10" stroke-width="1" stroke-dasharray="2"/>
        <line id="선_275" data-name="선 275" x1="5.296" y2="2.761" transform="translate(0 7.358)" fill="none" stroke="#cddef2" stroke-linecap="round" stroke-miterlimit="10" stroke-width="1" stroke-dasharray="2"/>
        <line id="선_276" data-name="선 276" x1="1.414" y2="5.803" transform="translate(7.191 9.57)" fill="none" stroke="#cddef2" stroke-linecap="round" stroke-miterlimit="10" stroke-width="1" stroke-dasharray="2"/>
      </g>
    </g>
    <rect id="사각형_2074" data-name="사각형 2074" width="50" height="50" transform="translate(691.117 261.571)" fill="none"/>
  </g>
</svg>
