<svg xmlns="http://www.w3.org/2000/svg" width="50" height="50" viewBox="0 0 50 50">
    <defs>
        <style>
            .cls-1,.cls-10,.cls-9{fill:#fff}.cls-2{fill:#e6c3d7}.cls-3{fill:#f4d5e6}.cls-13,.cls-15,.cls-4{fill:none;stroke-linecap:round}.cls-4{stroke:#fffef9;stroke-width:.25px;opacity:.8}.cls-15,.cls-4{stroke-miterlimit:10}.cls-5{fill:#6f6f6f}.cls-6{fill:#dfdfde}.cls-7{fill:#a37fb8}.cls-8{fill:#6c2a85}.cls-9{opacity:.4}.cls-10{opacity:.9}.cls-11{fill:#898989}.cls-12{fill:#faddc7}.cls-13{stroke:#f4c1b4;stroke-linejoin:bevel}.cls-14{fill:#343535}.cls-15{stroke:#343535}.cls-16{fill:#111}.cls-17{fill:#f6ceb3}.cls-18{fill:#f0ceb7}
        </style>
    </defs>
    <g id="그룹_2991" data-name="그룹 2991" transform="translate(-6.852 -318.138)">
        <g id="그룹_2984" data-name="그룹 2984">
            <path id="사각형_2851" d="M0 0h50v50H0z" class="cls-1" data-name="사각형 2851" transform="translate(6.852 318.138)"/>
        </g>
        <g id="그룹_2990" data-name="그룹 2990">
            <g id="그룹_2987" data-name="그룹 2987">
                <path id="패스_3236" d="M23.045 350.683c1.029 1.215 3.216 2.8 4.142 2.917a2.415 2.415 0 0 0 1.855-.5 1.064 1.064 0 0 0 .238-.52.488.488 0 0 1-.062.082 2.376 2.376 0 0 1-1.856.5c-.925-.121-3.128-1.682-4.155-2.9" class="cls-2" data-name="패스 3236"/>
                <path id="패스_3237" d="M23.207 350.259c1.027 1.222 3.23 2.783 4.155 2.9a2.376 2.376 0 0 0 1.856-.5.488.488 0 0 0 .062-.082c.123-.61-.068-1.453-1.117-1.409a6.84 6.84 0 0 1-4.231-1.749" class="cls-3" data-name="패스 3237"/>
                <path id="패스_3238" d="M28.783 352.161a.6.6 0 0 0-.237-.445.983.983 0 0 0-.662-.1" class="cls-4" data-name="패스 3238"/>
                <g id="그룹_2986" data-name="그룹 2986">
                    <path id="패스_3239" d="M22.339 347.1l.737 1.176a.432.432 0 0 1-.732.458l-.737-1.176-1.1.688 2.308 2.719a.572.572 0 0 0 .749.122l1.089-.682a.578.578 0 0 0 .222-.73l-1.44-3.263z" class="cls-5" data-name="패스 3239"/>
                    <path id="패스_3240" d="M23.823 343.631l-5.983 3.747.592.805a1.152 1.152 0 0 0 1.588.365l3.9-2.446a1.151 1.151 0 0 0 .364-1.587z" class="cls-6" data-name="패스 3240"/>
                    <path id="패스_3241" d="M10.035 335.776a.582.582 0 0 0-.158.833l1.1 1.48 7.483-4.689-.853-1.633a.581.581 0 0 0-.818-.222z" class="cls-6" data-name="패스 3241"/>
                    <path id="패스_3242" d="M18.461 333.4l-3.748 2.348 6.114 9.76 3-1.877z" class="cls-7" data-name="패스 3242"/>
                    <path id="패스_3243" d="M20.827 345.507l-6.114-9.76-3.738 2.342 6.865 9.289z" class="cls-8" data-name="패스 3243"/>
                    <g id="그룹_2985" data-name="그룹 2985">
                        <path id="패스_3244" d="M11.681 336.369l-.731-1.169-.732.459.731 1.166a.432.432 0 1 0 .732-.459z" class="cls-9" data-name="패스 3244"/>
                        <path id="패스_3245" d="M13.1 335.483l-.731-1.166-.737.461.731 1.166a.435.435 0 0 0 .737-.461z" class="cls-9" data-name="패스 3245"/>
                        <path id="패스_3246" d="M14.506 334.6l-.73-1.166-.732.459.73 1.166a.432.432 0 1 0 .732-.459z" class="cls-9" data-name="패스 3246"/>
                        <path id="패스_3247" d="M15.921 333.713l-.73-1.166-.737.461.73 1.166a.435.435 0 0 0 .737-.461z" class="cls-9" data-name="패스 3247"/>
                        <path id="패스_3248" d="M17.336 332.826l-.73-1.166-.737.462.731 1.166a.435.435 0 0 0 .736-.462z" class="cls-9" data-name="패스 3248"/>
                    </g>
                    <path id="패스_3249" d="M19.752 339.718a.808.808 0 0 0-1.108-.255l-.466.292-.291-.466a.8.8 0 0 0-1.363.854l.292.466-.466.292a.8.8 0 1 0 .853 1.362l.466-.292.292.466a.8.8 0 0 0 1.363-.853l-.292-.466.466-.292a.807.807 0 0 0 .254-1.108z" class="cls-10" data-name="패스 3249"/>
                    <path id="패스_3250" d="M23.076 348.271l-.737-1.176-.732.458.737 1.176a.432.432 0 0 0 .732-.458z" class="cls-11" data-name="패스 3250"/>
                </g>
            </g>
            <g id="그룹_2989" data-name="그룹 2989">
                <g id="그룹_2988" data-name="그룹 2988">
                    <path id="패스_3251" d="M50.611 347.633c-.76 3.82-2.32 6.12-4.25 7.56-3.31 2.46-7.74 2.35-11.17 2.92-1.29.22-6.03.65-8.77-1.73a8.216 8.216 0 0 1-1.042-1.073.416.416 0 0 1 .184-.652 12.837 12.837 0 0 0 3.948-2.335.984.984 0 0 0-.57-1.75c-.732-.055-3.188-.043-4.78-.017a.409.409 0 0 1-.415-.417l.125-11.06a.2.2 0 0 1 0-.024 22.272 22.272 0 0 1 1.909-6.972 11.111 11.111 0 0 1 1.41-2.24 2.256 2.256 0 0 1 .21-.24 2.105 2.105 0 0 1 .25-.27c.11-.12.22-.23.33-.34.15-.14.31-.27.48-.41 4.01-3.12 10.91-2.4 10.91-2.4h.07a10.524 10.524 0 0 1 3.79.82c.04.01.08.03.12.04a13.041 13.041 0 0 1 6.04 5.22c3.421 5.4 1.221 15.37 1.221 15.37z" class="cls-12" data-name="패스 3251"/>
                    <path id="사각형_2852" d="M0 0h13.81v9.215H0z" class="cls-12" data-name="사각형 2852" transform="translate(32.474 353.005)"/>
                    <circle id="타원_769" cx="2.152" cy="2.152" r="2.152" class="cls-12" data-name="타원 769" transform="translate(22.13 344.562)"/>
                    <path id="패스_3253" d="M27.569 343.887a1.4 1.4 0 0 1-1.4-1.395v.1a1.4 1.4 0 0 1 1.4-1.4 1.4 1.4 0 0 1 1.4 1.4v-.1a1.4 1.4 0 0 1-1.4 1.395z" class="cls-14" data-name="패스 3253"/>
                    <path id="패스_3254" d="M25.771 338.855a3.148 3.148 0 0 0 3.6.68" class="cls-15" data-name="패스 3254"/>
                    <path id="패스_3255" d="M43.218 324.649a13.479 13.479 0 0 1 8.089 5.828c5.011 7.458 1.323 17.277 1.323 17.277-1.723 4.4-4.335 6.005-6.264 7.441a.882.882 0 0 1-.083-.3c0-4.306-4.425-7.659-4.425-7.659a70.6 70.6 0 0 1-11.085-9.094 34.147 34.147 0 0 1-4.761-6.394c-.17-1.309.951-3.06 1.887-4.064a11.4 11.4 0 0 1 7.327-3.476 23.7 23.7 0 0 1 7.992.441z" class="cls-16" data-name="패스 3255"/>
                    <path id="패스_3256" d="M36.38 349.08a6.254 6.254 0 0 0 2.305.415 3.455 3.455 0 0 0 3.379-3.458 3.721 3.721 0 0 0-3.087-3.659 3.817 3.817 0 0 0-1.113-.028z" class="cls-17" data-name="패스 3256"/>
                    <path id="패스_3257" d="M34.764 348.4a10.085 10.085 0 0 0 3.478.85 3.569 3.569 0 0 0 3.565-3.653 3.165 3.165 0 0 0-2.83-3.221 3.088 3.088 0 0 0-1.465.028 4.472 4.472 0 0 0-2.384 1.409z" class="cls-12" data-name="패스 3257"/>
                    <path id="패스_3258" d="M40.275 346.039a.546.546 0 0 1-.548-.263c-.6-.993-1.83-.427-1.882-.4a.544.544 0 0 1-.727-.287.575.575 0 0 1 .264-.755 2.5 2.5 0 0 1 3.265.84.583.583 0 0 1-.165.787.528.528 0 0 1-.207.078z" class="cls-18" data-name="패스 3258"/>
                    <path id="패스_3259" d="M37.036 346.623a.545.545 0 0 1 .4-.458c1.117-.321.827-.82.817-.877a.543.543 0 0 1 .469-.625.575.575 0 0 1 .658.454c.142.806.044 1.622-1.6 2.1a.583.583 0 0 1-.715-.367.514.514 0 0 1-.029-.227z" class="cls-18" data-name="패스 3259"/>
                    <path id="패스_3260" d="M32.474 358.3a32.76 32.76 0 0 0 7.8-2.4s-6.036 3.164-7.8 6.328z" class="cls-17" data-name="패스 3260"/>
                </g>
            </g>
        </g>
    </g>
</svg>
