<svg xmlns="http://www.w3.org/2000/svg" width="50" height="50" viewBox="0 0 50 50">
    <defs>
        <style>
            .cls-1{fill:#faddc7}.cls-2{fill:#f0ceb7}.cls-3{fill:#f6ceb3}.cls-4{fill:#111}.cls-5{fill:#e03b18}.cls-6{fill:#343535}.cls-10,.cls-11,.cls-12,.cls-13,.cls-7,.cls-8,.cls-9{fill:none}.cls-7{stroke:#dd8554;stroke-linejoin:round}.cls-10,.cls-11,.cls-12,.cls-7,.cls-8,.cls-9{stroke-linecap:round}.cls-11,.cls-8{stroke:#f6ceb3}.cls-10,.cls-11,.cls-12,.cls-8,.cls-9{stroke-miterlimit:10}.cls-9{stroke:#dbd6d4}.cls-10,.cls-9{stroke-width:.5px;opacity:.4}.cls-10{stroke:#bcbcbc}.cls-11{opacity:.5}.cls-12{stroke:#ecbfa5}
        </style>
    </defs>
    <g id="그룹_3054" data-name="그룹 3054" transform="translate(-516.19 -318.138)">
        <g id="그룹_3053" data-name="그룹 3053">
            <g id="그룹_3052" data-name="그룹 3052">
                <path id="패스_3368" d="M554.389 341.437a4.648 4.648 0 0 1 .569-.034 4.592 4.592 0 0 1 .373 9.168c-.123.01-.248.016-.373.016" class="cls-1" data-name="패스 3368"/>
                <path id="패스_3369" d="M528.36 349.537a4.527 4.527 0 0 1-.938.1 4.592 4.592 0 0 1-.428-9.163 4.1 4.1 0 0 1 .431-.021 4.648 4.648 0 0 1 .569.034" class="cls-1" data-name="패스 3369"/>
                <path id="패스_3370" d="M557.358 347.158a.592.592 0 0 1-.543-.356c-.484-1.113-1.893-.728-1.952-.711a.593.593 0 1 1-.324-1.14 2.763 2.763 0 0 1 3.363 1.378.594.594 0 0 1-.307.78.6.6 0 0 1-.237.049z" class="cls-2" data-name="패스 3370"/>
                <path id="패스_3371" d="M525.4 346.466a.592.592 0 0 1-.543-.829 2.763 2.763 0 0 1 3.363-1.378.593.593 0 0 1-.322 1.141c-.152-.041-1.485-.37-1.954.71a.593.593 0 0 1-.544.356z" class="cls-2" data-name="패스 3371"/>
                <path id="패스_3372" d="M555.39 338.412v9.55a13.946 13.946 0 0 1-1.462 6.238q-.3.591-.642 1.15a14.154 14.154 0 0 1-1.714 2.225 13.982 13.982 0 0 1-7.532 4.147 14.732 14.732 0 0 1-2.67.25 14.007 14.007 0 0 1-14.01-14.01v-9.55a14.007 14.007 0 0 1 14.01-14.01 14.732 14.732 0 0 1 2.67.25 14.029 14.029 0 0 1 11.35 13.76z" class="cls-1" data-name="패스 3372"/>
                <path id="패스_3373" d="M542.52 361.742a12.749 12.749 0 0 1-15.16-12.51v-8.68a12.749 12.749 0 0 1 15.16-12.51 12.741 12.741 0 0 0-10.32 12.51v8.68a12.741 12.741 0 0 0 10.32 12.51z" class="cls-3" data-name="패스 3373"/>
                <path id="패스_3374" d="M555.39 338.412v2.07c-15.75-.02-21.52-6.13-22.06-6.75a.172.172 0 0 1-.05-.05c0 2.81-2.82 5.79-5.92 6.8v-2.01a15.9 15.9 0 0 1 .16-2.19c.08-.45.17-.9.28-1.35.06-.22.13-.44.19-.67a14.679 14.679 0 0 1 1.76-3.68s.02-.01.02-.02c.25-.36.51-.72.79-1.06.16-.18.31-.36.47-.54s.31-.33.47-.49a14 14 0 0 1 1.54-1.33c.34-.25.7-.49 1.06-.71a13.942 13.942 0 0 1 7.27-2.03 14.537 14.537 0 0 1 2.57.23c.03.01.07.01.1.02a14.029 14.029 0 0 1 11.35 13.76z" class="cls-4" data-name="패스 3374"/>
                <path id="패스_3375" d="M544.853 354.324a.591.591 0 0 1 0 .838 5.43 5.43 0 0 1-7.671 0 .593.593 0 0 1 .838-.838 4.244 4.244 0 0 0 5.995 0 .594.594 0 0 1 .838 0z" class="cls-5" data-name="패스 3375"/>
                <g id="그룹_3051" data-name="그룹 3051">
                    <circle id="타원_797" cx="1.482" cy="1.482" r="1.482" class="cls-6" data-name="타원 797" transform="translate(533.163 343.463)"/>
                    <circle id="타원_798" cx="1.482" cy="1.482" r="1.482" class="cls-6" data-name="타원 798" transform="translate(545.88 343.463)"/>
                </g>
                <path id="패스_3376" d="M541.19 343.644v4.721a2.121 2.121 0 0 0-1.507 2.048s.127 1.561 1.507 1.561" class="cls-7" data-name="패스 3376"/>
                <path id="패스_3377" d="M545.276 352.672a2.892 2.892 0 0 0-.423 2.221 2.3 2.3 0 0 0 .913 1.5" class="cls-8" data-name="패스 3377"/>
                <path id="패스_3378" d="M537.01 352.672a2.892 2.892 0 0 1 .423 2.221 2.3 2.3 0 0 1-.913 1.5" class="cls-8" data-name="패스 3378"/>
                <path id="패스_3380" d="M532.343 353.008c1.269 2.465 2.567 5.37 1.21 6.069s-4.855-1.074-6.124-3.539-.947-5.615.411-6.313 3.235 1.319 4.503 3.783z" class="cls-3" data-name="패스 3380"/>
                <path id="패스_3381" d="M550.631 353.008c-1.269 2.465-2.567 5.37-1.21 6.069s4.856-1.074 6.124-3.539.947-5.615-.41-6.313-3.235 1.319-4.504 3.783z" class="cls-1" data-name="패스 3381"/>
                <path id="패스_3382" d="M554.108 359.138a5.675 5.675 0 0 0 2.249-1.978 5.391 5.391 0 0 0 .523-1.149" class="cls-9" data-name="패스 3382"/>
                <path id="패스_3383" d="M555.63 359.638a3.914 3.914 0 0 0 1.549-1.362 3.81 3.81 0 0 0 .361-.792" class="cls-9" data-name="패스 3383"/>
                <path id="패스_3384" d="M528.676 359.121a5.675 5.675 0 0 1-2.249-1.978 5.437 5.437 0 0 1-.524-1.148" class="cls-10" data-name="패스 3384"/>
                <path id="패스_3385" d="M527.154 359.622a3.916 3.916 0 0 1-1.549-1.363 3.726 3.726 0 0 1-.361-.791" class="cls-10" data-name="패스 3385"/>
                <path id="패스_3386" d="M554.108 355.077c-.934 1.78-2.2 2.5-3.155 2.5" class="cls-11" data-name="패스 3386"/>
                <path id="패스_3387" d="M528.382 354.534c.671 1.895 1.823 2.785 2.768 2.921" class="cls-12" data-name="패스 3387"/>
            </g>
        </g>
        <path id="사각형_2906" d="M0 0h50v50H0z" class="cls-13" data-name="사각형 2906" transform="translate(516.19 318.138)"/>
    </g>
</svg>
