<svg xmlns="http://www.w3.org/2000/svg" width="50" height="50" viewBox="0 0 50 50">
    <defs>
        <style>
            .cls-1{fill:#faddc7}.cls-2,.cls-8{fill:none}.cls-2{stroke:#eabd9e;stroke-linecap:round;stroke-linejoin:round;stroke-width:.25px}.cls-3{fill:#357554}.cls-4{fill:#44906b}.cls-5{fill:#daeee8}.cls-6{fill:#84c8ad}.cls-7{fill:#72c09e}
        </style>
    </defs>
    <g id="그룹_3050" data-name="그룹 3050" transform="translate(-450.273 -318.138)">
        <g id="그룹_3049" data-name="그룹 3049">
            <g id="그룹_3045" data-name="그룹 3045">
                <path id="패스_3362" d="M490.849 326.428v8.679a8.81 8.81 0 0 1-8.156 8.9 8.592 8.592 0 0 1-7.4-3.515.026.026 0 0 0-.043 0 8.592 8.592 0 0 1-7.4 3.515 8.81 8.81 0 0 1-8.156-8.9v-8.679a2.368 2.368 0 0 1 2.367-2.368h26.417a2.368 2.368 0 0 1 2.371 2.368z" class="cls-1" data-name="패스 3362"/>
                <path id="패스_3363" d="M471.836 327.862c2.214 0 3.437 2.091 3.437 3.977 0 0 0-4.161 3.132-3.977" class="cls-2" data-name="패스 3363"/>
                <path id="선_663" d="M0 0v2.354" class="cls-2" data-name="선 663" transform="translate(475.273 331.839)"/>
            </g>
            <g id="그룹_3048" data-name="그룹 3048">
                <g id="그룹_3046" data-name="그룹 3046">
                    <path id="패스_3364" d="M475.273 343.953V352a1.544 1.544 0 0 1-1.55-1.551v-4.939a1.551 1.551 0 0 1 1.55-1.557z" class="cls-3" data-name="패스 3364"/>
                    <path id="패스_3365" d="M476.824 345.512v4.939a1.544 1.544 0 0 1-1.551 1.549v-8.049a1.551 1.551 0 0 1 1.551 1.561z" class="cls-4" data-name="패스 3365"/>
                </g>
                <rect id="사각형_2903" width="7.588" height="15.647" class="cls-5" data-name="사각형 2903" rx="2.959" transform="translate(471.479 346.569)"/>
                <rect id="사각형_2904" width="6.07" height="12.517" class="cls-5" data-name="사각형 2904" rx="2.367" transform="translate(472.238 348.134)"/>
                <g id="그룹_3047" data-name="그룹 3047">
                    <path id="패스_3366" d="M475.273 348.1v12.577a2.413 2.413 0 0 1-2.423-2.423v-7.718a2.424 2.424 0 0 1 2.423-2.436z" class="cls-6" data-name="패스 3366"/>
                    <path id="패스_3367" d="M477.7 350.535v7.718a2.413 2.413 0 0 1-2.424 2.423V348.1a2.424 2.424 0 0 1 2.424 2.435z" class="cls-7" data-name="패스 3367"/>
                </g>
            </g>
        </g>
        <path id="사각형_2905" d="M0 0h50v50H0z" class="cls-8" data-name="사각형 2905" transform="translate(450.273 318.138)"/>
    </g>
</svg>
