<svg xmlns="http://www.w3.org/2000/svg" width="50" height="50" viewBox="0 0 50 50">
    <defs>
        <style>
            .cls-1{fill:#f06444}.cls-2{fill:#f4c4b4}.cls-3{opacity:.6}.cls-4{fill:#fff}.cls-5{fill:none}
        </style>
    </defs>
    <g id="그룹_2476" data-name="그룹 2476" transform="translate(-232 -302)">
        <g id="그룹_2475" data-name="그룹 2475" transform="translate(6.44 36.347)">
            <path id="패스_1556" d="M764.772 368.724a.478.478 0 0 0 .772.545l.887.434.131-.268-.886-.434a.478.478 0 0 0-.9-.277z" class="cls-1" data-name="패스 1556" transform="translate(-529.145 -88.965)"/>
            <path id="패스_1557" d="M764.744 371.291a.482.482 0 0 0 .635.247.475.475 0 0 0 .279-.486l.9-.4-.12-.274-.9.4a.478.478 0 0 0-.547-.123.483.483 0 0 0-.247.636z" class="cls-1" data-name="패스 1557" transform="translate(-529.145 -88.965)"/>
            <g id="그룹_2474" data-name="그룹 2474">
                <g id="그룹_1642" data-name="그룹 1642" transform="translate(-529.145 -88.965)">
                    <path id="패스_1553" d="M780.767 397.8a8.158 8.158 0 0 1-5.242-1.838c-2.87-2.334-4.149-5.495-3.511-10.418a14.008 14.008 0 0 1 4.661-9.02c1.631-1.644 2.809-2.832 2.925-6a3.269 3.269 0 0 0-1.293-3.048 5.534 5.534 0 0 0-5.4-.193 6.2 6.2 0 0 0-2.9 3.336 2 2 0 0 1-3.838-1.129 10.191 10.191 0 0 1 4.92-5.773c2.252-1.145 6.428-1.917 9.369.388a7.64 7.64 0 0 1 3.137 6.565c-.172 4.728-2.249 6.823-4.082 8.67a10.064 10.064 0 0 0-3.534 6.718c-.449 3.465.324 5.381 2.068 6.8a4.889 4.889 0 0 0 4.9.541c6.536-2.269 7.188-9.634 7.173-9.718a2 2 0 0 1 3.943-.674c.7 4.07-2.041 11.477-9.8 14.171a10.658 10.658 0 0 1-3.496.622z" class="cls-2" data-name="패스 1553"/>
                    <path id="패스_1554" d="M780.767 397.8a8.158 8.158 0 0 1-5.242-1.838c-2.87-2.334-4.149-5.495-3.511-10.418a14.008 14.008 0 0 1 4.661-9.02c1.631-1.644 2.809-2.832 2.925-6a3.269 3.269 0 0 0-1.293-3.048 5.534 5.534 0 0 0-5.4-.193 6.2 6.2 0 0 0-2.9 3.336 2 2 0 0 1-3.838-1.129 10.191 10.191 0 0 1 4.92-5.773c2.252-1.145 6.428-1.917 9.369.388a7.64 7.64 0 0 1 3.137 6.565c-.172 4.728-2.249 6.823-4.082 8.67a10.064 10.064 0 0 0-3.534 6.718c-.449 3.465.324 5.381 2.068 6.8a4.889 4.889 0 0 0 4.9.541c6.536-2.269 7.188-9.634 7.173-9.718a2 2 0 0 1 3.943-.674c.7 4.07-2.041 11.477-9.8 14.171a10.658 10.658 0 0 1-3.496.622z" class="cls-2" data-name="패스 1554"/>
                </g>
                <path id="패스_1555" d="M766.171 369.495a2 2 0 0 0 3.838 1.129 6.873 6.873 0 0 1 .628-1.255l-3.572-1.819a9.328 9.328 0 0 0-.894 1.945z" class="cls-1" data-name="패스 1555" transform="translate(-529.145 -88.965)"/>
                <path id="패스_1558" d="M771.515 371.547a.478.478 0 0 1-.909-.261l-.894-.419.127-.271.894.419a.477.477 0 0 1 .55-.109.482.482 0 0 1 .232.641z" class="cls-1" data-name="패스 1558" transform="translate(-529.145 -88.965)"/>
                <path id="패스_1559" d="M769.389 373.409a.483.483 0 0 1-.614-.3.476.476 0 0 1 .166-.536l-.324-.932.282-.1.324.932a.476.476 0 0 1 .462.317.482.482 0 0 1-.296.619z" class="cls-1" data-name="패스 1559" transform="translate(-529.145 -88.965)"/>
                <path id="패스_1560" d="M766.511 373.394a.483.483 0 0 0 .637-.244.477.477 0 0 0-.12-.548l.4-.9-.273-.121-.4.9a.478.478 0 0 0-.244.914z" class="cls-1" data-name="패스 1560" transform="translate(-529.145 -88.965)"/>
                <g id="그룹_1643" data-name="그룹 1643" transform="translate(-529.145 -88.965)">
                    <path id="패스_1561" d="M780.767 397.8a8.158 8.158 0 0 1-5.242-1.838c-2.87-2.334-4.149-5.495-3.511-10.418a14.008 14.008 0 0 1 4.661-9.02c1.631-1.644 2.809-2.832 2.925-6a3.269 3.269 0 0 0-1.293-3.048 5.534 5.534 0 0 0-5.4-.193 6.2 6.2 0 0 0-2.9 3.336 2 2 0 0 1-3.838-1.129 10.191 10.191 0 0 1 4.92-5.773c2.252-1.145 6.428-1.917 9.369.388a7.64 7.64 0 0 1 3.137 6.565c-.172 4.728-2.249 6.823-4.082 8.67a10.064 10.064 0 0 0-3.534 6.718c-.449 3.465.324 5.381 2.068 6.8a4.889 4.889 0 0 0 4.9.541c6.536-2.269 7.188-9.634 7.173-9.718a2 2 0 0 1 3.943-.674c.7 4.07-2.041 11.477-9.8 14.171a10.658 10.658 0 0 1-3.496.622z" class="cls-2" data-name="패스 1561"/>
                    <path id="패스_1562" d="M780.767 397.8a8.158 8.158 0 0 1-5.242-1.838c-2.87-2.334-4.149-5.495-3.511-10.418a14.008 14.008 0 0 1 4.661-9.02c1.631-1.644 2.809-2.832 2.925-6a3.269 3.269 0 0 0-1.293-3.048 5.534 5.534 0 0 0-5.4-.193 6.2 6.2 0 0 0-2.9 3.336 2 2 0 0 1-3.838-1.129 10.191 10.191 0 0 1 4.92-5.773c2.252-1.145 6.428-1.917 9.369.388a7.64 7.64 0 0 1 3.137 6.565c-.172 4.728-2.249 6.823-4.082 8.67a10.064 10.064 0 0 0-3.534 6.718c-.449 3.465.324 5.381 2.068 6.8a4.889 4.889 0 0 0 4.9.541c6.536-2.269 7.188-9.634 7.173-9.718a2 2 0 0 1 3.943-.674c.7 4.07-2.041 11.477-9.8 14.171a10.658 10.658 0 0 1-3.496.622z" class="cls-2" data-name="패스 1562"/>
                </g>
                <path id="패스_1563" d="M772.151 367.75l-3.056-2.664a9.963 9.963 0 0 0-1.067 1.1l3.385 2.217a5.715 5.715 0 0 1 .738-.653z" class="cls-2" data-name="패스 1563" transform="translate(-529.145 -88.965)"/>
                <path id="패스_1564" d="M779.6 370.529v.013l3.6-2.707a7.471 7.471 0 0 0-1.538-2.6l-2.1 4.586a5.272 5.272 0 0 1 .038.708z" class="cls-2" data-name="패스 1564" transform="translate(-529.145 -88.965)"/>
                <path id="패스_1565" d="M777.718 367.157l-.015-4.327a8.509 8.509 0 0 0-1.6-.2l.857 4.24a4.547 4.547 0 0 1 .758.287z" class="cls-2" data-name="패스 1565" transform="translate(-529.145 -88.965)"/>
                <path id="패스_1566" d="M779.277 372.712l4.283-1.441c.014-.2.03-.39.037-.6a8.277 8.277 0 0 0-.132-1.789l-4.01 3.014a7.686 7.686 0 0 1-.178.816z" class="cls-2" data-name="패스 1566" transform="translate(-529.145 -88.965)"/>
                <path id="패스_1567" d="M774.11 366.861l-2.693-3.293c-.111.051-.222.1-.326.154a9.49 9.49 0 0 0-1.2.731l3.172 2.764a6.15 6.15 0 0 1 1.047-.356z" class="cls-2" data-name="패스 1567" transform="translate(-529.145 -88.965)"/>
                <path id="패스_1568" d="M775.9 366.675l-.813-4.027a11.091 11.091 0 0 0-2.687.537l2.86 3.5a5.232 5.232 0 0 1 .64-.01z" class="cls-2" data-name="패스 1568" transform="translate(-529.145 -88.965)"/>
                <path id="패스_1569" d="M779.12 368.388l1.784-3.895c-.146-.129-.288-.261-.444-.383a6.662 6.662 0 0 0-1.756-.986l.016 4.733a2.718 2.718 0 0 1 .4.531z" class="cls-2" data-name="패스 1569" transform="translate(-529.145 -88.965)"/>
                <path id="패스_1570" d="M766.171 369.495a2 2 0 0 0 3.838 1.129 6.241 6.241 0 0 1 .763-1.444l-3.348-2.193a9.779 9.779 0 0 0-1.253 2.508z" class="cls-1" data-name="패스 1570" transform="translate(-529.145 -88.965)"/>
                <path id="패스_1571" d="M794.062 383.012a2 2 0 0 0-2.308-1.634 1.975 1.975 0 0 0-.526.176l2.928 2.686a7.813 7.813 0 0 0-.094-1.228z" class="cls-2" data-name="패스 1571" transform="translate(-529.145 -88.965)"/>
                <path id="패스_1572" d="M778.383 374.6l4.424.168a11.2 11.2 0 0 0 .634-2.4l-4.653 1.566a6.474 6.474 0 0 1-.405.666z" class="cls-2" data-name="패스 1572" transform="translate(-529.145 -88.965)"/>
                <path id="패스_1573" d="M777.111 376.084l4.188 1.306a10.711 10.711 0 0 0 1.063-1.644l-4.764-.18c-.156.171-.317.345-.487.518z" class="cls-2" data-name="패스 1573" transform="translate(-529.145 -88.965)"/>
                <path id="패스_1574" d="M780.6 378.219l-4.276-1.333c-.257.262-.52.537-.783.827l3.42 2.2c.182-.188.367-.375.556-.566.355-.362.721-.732 1.083-1.128z" class="cls-2" data-name="패스 1574" transform="translate(-529.145 -88.965)"/>
                <path id="패스_1575" d="M775.981 386.063c.039-.3.094-.565.145-.836l-3.99-.469a20.89 20.89 0 0 0-.122.79c-.045.349-.059.669-.085 1l4.03-.241c.01-.084.011-.158.022-.244z" class="cls-2" data-name="패스 1575" transform="translate(-529.145 -88.965)"/>
                <path id="패스_1576" d="M779.242 393.532l-2.714 3.128a8.037 8.037 0 0 0 2.374.937l1.75-3.807a4.463 4.463 0 0 1-1.41-.258z" class="cls-2" data-name="패스 1576" transform="translate(-529.145 -88.965)"/>
                <path id="패스_1577" d="M778.274 380.66l-3.391-2.18a12.887 12.887 0 0 0-1.376 2.1l3.69 1.592a9.516 9.516 0 0 1 1.077-1.512z" class="cls-2" data-name="패스 1577" transform="translate(-529.145 -88.965)"/>
                <path id="패스_1578" d="M778.049 392.863a6.1 6.1 0 0 1-1.084-1.128L773.649 394a10.359 10.359 0 0 0 1.876 1.963c.056.046.115.084.171.128l2.633-3.034c-.094-.062-.191-.121-.28-.194z" class="cls-2" data-name="패스 1578" transform="translate(-529.145 -88.965)"/>
                <path id="패스_1579" d="M789.433 386.617l2.507 4.612a14.622 14.622 0 0 0 1.006-1.808l-3.121-4.093c-.097.387-.225.821-.392 1.289z" class="cls-2" data-name="패스 1579" transform="translate(-529.145 -88.965)"/>
                <path id="패스_1580" d="M776.757 383.071l-3.678-1.586a14.058 14.058 0 0 0-.744 2.29l4.019.471a9.709 9.709 0 0 1 .403-1.175z" class="cls-2" data-name="패스 1580" transform="translate(-529.145 -88.965)"/>
                <path id="패스_1581" d="M783.89 393.011l-.364 4.4c.243-.068.487-.139.732-.224a15.82 15.82 0 0 0 1.49-.606l-.2-4.547a9.734 9.734 0 0 1-1.658.977z" class="cls-2" data-name="패스 1581" transform="translate(-529.145 -88.965)"/>
                <path id="패스_1582" d="M775.869 387.314l-4 .239a13.2 13.2 0 0 0 .179 2.539l3.868-1.292a9.889 9.889 0 0 1-.047-1.486z" class="cls-2" data-name="패스 1582" transform="translate(-529.145 -88.965)"/>
                <path id="패스_1583" d="M776.085 389.8l-3.811 1.274a9.127 9.127 0 0 0 .844 2.084l3.338-2.283a5.76 5.76 0 0 1-.371-1.075z" class="cls-2" data-name="패스 1583" transform="translate(-529.145 -88.965)"/>
                <path id="패스_1584" d="M788.23 389.124l1.028 5.192a14.574 14.574 0 0 0 2.038-2.177l-2.351-4.325a12.319 12.319 0 0 1-.715 1.31z" class="cls-2" data-name="패스 1584" transform="translate(-529.145 -88.965)"/>
                <path id="패스_1585" d="M786.517 391.227l.21 4.848a15.066 15.066 0 0 0 1.649-1.061l-.943-4.765a10.319 10.319 0 0 1-.916.978z" class="cls-2" data-name="패스 1585" transform="translate(-529.145 -88.965)"/>
                <path id="패스_1586" d="M790.454 382.2a2 2 0 0 0-.335 1.485 3.27 3.27 0 0 1-.034.334l3.3 4.332a12.729 12.729 0 0 0 .7-2.818z" class="cls-2" data-name="패스 1586" transform="translate(-529.145 -88.965)"/>
                <path id="패스_1587" d="M781.794 393.7l-1.867 4.061c.277.026.556.043.84.043a9.8 9.8 0 0 0 1.735-.159l.35-4.213a7.2 7.2 0 0 1-1.058.268z" class="cls-2" data-name="패스 1587" transform="translate(-529.145 -88.965)"/>
                <g id="그룹_1644" class="cls-3" data-name="그룹 1644" transform="translate(-529.145 -88.965)">
                    <path id="패스_1588" d="M768.028 366.187q-.338.406-.6.8l3.348 2.193a6.31 6.31 0 0 1 .641-.776z" class="cls-4" data-name="패스 1588"/>
                    <path id="패스_1589" d="M772.9 367.288c.042-.022.107-.048.158-.071l-3.172-2.764a9.563 9.563 0 0 0-.8.633l3.056 2.664a5.5 5.5 0 0 1 .758-.462z" class="cls-4" data-name="패스 1589"/>
                    <path id="패스_1590" d="M775.256 366.683l-2.86-3.5a10.206 10.206 0 0 0-.979.383l2.693 3.293a6.229 6.229 0 0 1 1.146-.176z" class="cls-4" data-name="패스 1590"/>
                    <path id="패스_1591" d="M776.956 366.865l-.857-4.24a9.8 9.8 0 0 0-1.016.023l.813 4.027a5 5 0 0 1 1.06.19z" class="cls-4" data-name="패스 1591"/>
                    <path id="패스_1592" d="M778.307 367.481a2.9 2.9 0 0 1 .413.376l-.016-4.733a7.436 7.436 0 0 0-1-.294l.015 4.327a4.391 4.391 0 0 1 .588.324z" class="cls-4" data-name="패스 1592"/>
                    <path id="패스_1593" d="M779.562 369.825l2.1-4.586a9.053 9.053 0 0 0-.758-.746l-1.784 3.895a3.438 3.438 0 0 1 .442 1.437z" class="cls-4" data-name="패스 1593"/>
                    <path id="패스_1594" d="M779.455 371.9l4.01-3.014a7.315 7.315 0 0 0-.265-1.051l-3.6 2.707a10.129 10.129 0 0 1-.145 1.358z" class="cls-4" data-name="패스 1594"/>
                    <path id="패스_1595" d="M778.788 373.932l4.653-1.566c.053-.346.09-.714.119-1.1l-4.283 1.441a6.212 6.212 0 0 1-.489 1.225z" class="cls-4" data-name="패스 1595"/>
                    <path id="패스_1596" d="M777.6 375.566l4.764.18a9.665 9.665 0 0 0 .445-.983l-4.424-.168a9.474 9.474 0 0 1-.785.971z" class="cls-4" data-name="패스 1596"/>
                    <path id="패스_1597" d="M776.675 376.528l-.353.358 4.276 1.333c.238-.262.473-.538.7-.829l-4.188-1.306c-.141.147-.284.292-.435.444z" class="cls-4" data-name="패스 1597"/>
                    <path id="패스_1598" d="M778.959 379.911l-3.42-2.2c-.22.243-.439.5-.656.767l3.391 2.18c.22-.258.449-.502.685-.747z" class="cls-4" data-name="패스 1598"/>
                    <path id="패스_1599" d="M777.2 382.172l-3.69-1.592a13.66 13.66 0 0 0-.428.9l3.678 1.586a8.443 8.443 0 0 1 .44-.894z" class="cls-4" data-name="패스 1599"/>
                    <path id="패스_1600" d="M776.354 384.246l-4.019-.471c-.074.313-.14.642-.2.983l3.99.469q.102-.522.229-.981z" class="cls-4" data-name="패스 1600"/>
                    <path id="패스_1601" d="M775.959 386.307l-4.03.241c-.027.34-.054.682-.061 1.005l4-.239c.016-.314.051-.659.091-1.007z" class="cls-4" data-name="패스 1601"/>
                    <path id="패스_1602" d="M775.915 388.8l-3.868 1.292c.059.339.14.662.227.979l3.811-1.274a7.158 7.158 0 0 1-.17-.997z" class="cls-4" data-name="패스 1602"/>
                    <path id="패스_1603" d="M776.456 390.872l-3.338 2.283a8.932 8.932 0 0 0 .531.848l3.316-2.268a5.219 5.219 0 0 1-.509-.863z" class="cls-4" data-name="패스 1603"/>
                    <path id="패스_1604" d="M778.329 393.06l-2.633 3.034a8.42 8.42 0 0 0 .832.566l2.714-3.128a4.1 4.1 0 0 1-.913-.472z" class="cls-4" data-name="패스 1604"/>
                    <path id="패스_1605" d="M780.652 393.79l-1.752 3.81a8.449 8.449 0 0 0 1.025.164l1.867-4.061a5.661 5.661 0 0 1-1.14.087z" class="cls-4" data-name="패스 1605"/>
                    <path id="패스_1606" d="M782.946 393.4c-.032.011-.062.018-.094.028l-.35 4.213c.338-.06.68-.143 1.024-.238l.364-4.4a9.81 9.81 0 0 1-.944.397z" class="cls-4" data-name="패스 1606"/>
                    <path id="패스_1607" d="M785.551 392.03l.2 4.547c.339-.157.663-.327.979-.5l-.21-4.848a9.727 9.727 0 0 1-.969.801z" class="cls-4" data-name="패스 1607"/>
                    <path id="패스_1608" d="M787.433 390.249l.943 4.765c.305-.226.6-.456.882-.7l-1.028-5.192a11.173 11.173 0 0 1-.797 1.127z" class="cls-4" data-name="패스 1608"/>
                    <path id="패스_1609" d="M788.945 387.814l2.351 4.325q.344-.449.644-.91l-2.507-4.612c-.133.383-.295.783-.488 1.197z" class="cls-4" data-name="패스 1609"/>
                    <path id="패스_1610" d="M789.825 385.328l3.121 4.093q.248-.535.442-1.069l-3.3-4.332a12.239 12.239 0 0 1-.263 1.308z" class="cls-4" data-name="패스 1610"/>
                    <path id="패스_1611" d="M790.454 382.2l3.633 3.333a10 10 0 0 0 .069-1.294l-2.928-2.686a2 2 0 0 0-.774.647z" class="cls-4" data-name="패스 1611"/>
                </g>
            </g>
        </g>
        <path id="사각형_2713" d="M0 0h50v50H0z" class="cls-5" data-name="사각형 2713" transform="translate(232 302)"/>
        <path id="사각형_2714" d="M0 0h50v50H0z" class="cls-5" data-name="사각형 2714" transform="translate(232 302)"/>
    </g>
</svg>
