<svg xmlns="http://www.w3.org/2000/svg" width="50" height="50" viewBox="0 0 50 50">
    <defs>
        <style>
            .cls-1{fill:#dccebd}.cls-2,.cls-3,.cls-4,.cls-7{fill:none}.cls-2{stroke:#dccebd}.cls-2,.cls-3,.cls-4{stroke-linecap:round;stroke-miterlimit:10;stroke-width:2px}.cls-3{stroke:#ee9a35}.cls-4{stroke:#bd9464}.cls-5{fill:#e97535}.cls-6{fill:#9ac134}
        </style>
    </defs>
    <g id="그룹_2471" data-name="그룹 2471" transform="translate(-47 -267)">
        <g id="그룹_1706" data-name="그룹 1706" transform="translate(-8.786 -727.627)">
            <g id="그룹_1637" data-name="그룹 1637" transform="translate(-529.145 643.035)">
                <path id="패스_1535" d="M617.347 378.185H615.9a2.16 2.16 0 1 1 0-4.32h1.444v-1.446a10.721 10.721 0 0 0-.51-3.267 2.153 2.153 0 0 1-2.926-.105 2.161 2.161 0 0 1 0-3.055l.709-.708a10.724 10.724 0 0 0-5.857-3.391v.739a2.16 2.16 0 1 1-4.32 0v-.739a10.722 10.722 0 0 0-5.868 3.4l.7.7a2.16 2.16 0 0 1 0 3.055 2.152 2.152 0 0 1-2.906.121 10.744 10.744 0 0 0-.5 3.251v1.446h1.111a2.16 2.16 0 0 1 0 4.32h-1.117v1.446a10.715 10.715 0 0 0 .406 2.894 2.158 2.158 0 0 1 3.017 3.086l-.914.914a10.733 10.733 0 0 0 16.469 0l-.914-.914a2.158 2.158 0 0 1 3.017-3.086 10.715 10.715 0 0 0 .406-2.894z" class="cls-1" data-name="패스 1535"/>
                <path id="패스_1536" d="M606.6 364.792a2.161 2.161 0 0 0 2.16-2.16v-2.88a2.16 2.16 0 1 0-4.32 0v2.88a2.161 2.161 0 0 0 2.16 2.16z" class="cls-1" data-name="패스 1536"/>
                <path id="패스_1537" d="M599.27 369.047a2.16 2.16 0 0 0 0-3.055l-.7-.7-1.341-1.341a2.16 2.16 0 1 0-3.055 3.055l2.037 2.036c.046.046.1.08.148.121a2.152 2.152 0 0 0 2.911-.116z" class="cls-1" data-name="패스 1537"/>
                <path id="패스_1538" d="M613.911 369.047a2.153 2.153 0 0 0 2.926.105c.043-.036.089-.065.129-.105l2.034-2.036a2.16 2.16 0 1 0-3.054-3.055l-1.328 1.328-.709.708a2.161 2.161 0 0 0 .002 3.055z" class="cls-1" data-name="패스 1538"/>
                <path id="패스_1539" d="M599.283 382.556a2.158 2.158 0 0 0-3.017-.031c-.012.012-.026.019-.038.031l-2.036 2.037a2.16 2.16 0 0 0 3.055 3.054l1.122-1.122.914-.914a2.16 2.16 0 0 0 0-3.055z" class="cls-1" data-name="패스 1539"/>
                <path id="패스_1540" d="M613.924 382.556a2.16 2.16 0 0 0 0 3.055l.914.914 1.122 1.122a2.16 2.16 0 0 0 3.055-3.054l-2.036-2.037c-.012-.012-.026-.019-.038-.031a2.158 2.158 0 0 0-3.017.031z" class="cls-1" data-name="패스 1540"/>
                <path id="패스_1541" d="M613.743 376.025a2.16 2.16 0 0 0 2.16 2.16h2.88a2.16 2.16 0 0 0 0-4.32H615.9a2.16 2.16 0 0 0-2.157 2.16z" class="cls-1" data-name="패스 1541"/>
                <path id="패스_1542" d="M599.131 376.025a2.16 2.16 0 0 0-2.16-2.16h-2.88a2.16 2.16 0 0 0 0 4.32h2.88a2.16 2.16 0 0 0 2.16-2.16z" class="cls-1" data-name="패스 1542"/>
            </g>
            <path id="패스_1543" d="M605.455 388.773s.771 6.95 7.879 6.95h3.958a9.656 9.656 0 0 0 7.358-2.986 10.3 10.3 0 0 0 2.742-6.679v-9.448" class="cls-2" data-name="패스 1543" transform="translate(-529.145 643.035)"/>
            <path id="선_310" d="M0 0l1 1.36" class="cls-3" data-name="선 310" transform="translate(81.572 1011.376)"/>
            <path id="선_311" d="M.554 0L0 .753" class="cls-3" data-name="선 311" transform="translate(83.213 1024.838)"/>
            <path id="선_312" d="M.863 0L0 1.172" class="cls-4" data-name="선 312" transform="translate(72.633 1026.212)"/>
            <path id="선_313" d="M0 0l.863 1.172" class="cls-3" data-name="선 313" transform="translate(71.271 1019.059)"/>
            <path id="패스_1544" d="M604.029 366.612a3.874 3.874 0 0 0-.87 3.479c.6 1.871 3.589 1.434 4.4 2.682 1.353 2.084-2.615 3.95-2.1 6.516.5 2.514 3.814.651 3.407 6.149" class="cls-3" data-name="패스 1544" transform="translate(-529.145 643.035)"/>
            <circle id="타원_526" cx=".639" cy=".639" r=".639" class="cls-5" data-name="타원 526" transform="translate(69.516 1014.028)"/>
            <circle id="타원_527" cx=".639" cy=".639" r=".639" class="cls-6" data-name="타원 527" transform="translate(82.572 1017.781)"/>
        </g>
        <path id="사각형_2712" d="M0 0h50v50H0z" class="cls-7" data-name="사각형 2712" transform="translate(46.999 267)"/>
    </g>
</svg>
