<svg xmlns="http://www.w3.org/2000/svg" width="50" height="50" viewBox="0 0 50 50">
    <defs>
        <style>
            .cls-1{fill:none}.cls-2{fill:#edde7e}.cls-3{opacity:.16}.cls-4{clip-path:url(#clip-path)}.cls-5{fill:#d3c26e}.cls-6{fill:#fff}.cls-7{fill:#090a0a}.cls-8{fill:#e53617}.cls-9{clip-path:url(#clip-path-2)}
        </style>
        <clipPath id="clip-path">
            <path id="패스_3138" d="M252.187 223.669c-.1.553-3.052.39-3.895.647a.825.825 0 0 0-.455 1.249c.478.734 2.849 2.5 2.563 2.993s-3-.676-3.878-.722a.824.824 0 0 0-.853 1.019c.2.856 1.817 3.335 1.388 3.7s-2.6-1.667-3.4-2.011a.825.825 0 0 0-1.152.666c-.105.872.573 3.753.042 3.944s-1.87-2.445-2.513-3.047a.825.825 0 0 0-1.311.23c-.4.784-.751 3.725-1.316 3.725s-.915-2.939-1.309-3.719a.825.825 0 0 0-1.312-.233c-.642.6-1.979 3.241-2.51 3.044s.147-3.072.042-3.944a.825.825 0 0 0-1.152-.666c-.807.344-2.966 2.372-3.4 2.011s1.188-2.847 1.387-3.7a.824.824 0 0 0-.853-1.019c-.878.046-3.6 1.213-3.877.722s2.08-2.262 2.555-2.995a.825.825 0 0 0-.455-1.248c-.837-.257-3.792-.094-3.888-.646s2.735-1.416 3.437-1.943a.825.825 0 0 0 0-1.331c-.7-.527-3.532-1.385-3.437-1.943s3.053-.39 3.9-.647a.825.825 0 0 0 .455-1.249c-.479-.737-2.85-2.512-2.563-3s3 .673 3.875.72a.825.825 0 0 0 .854-1.019c-.2-.854-1.816-3.331-1.386-3.692s2.594 1.667 3.4 2.011a.825.825 0 0 0 1.152-.666c.105-.872-.573-3.753-.042-3.944s1.868 2.444 2.51 3.044a.825.825 0 0 0 1.312-.233c.394-.78.745-3.719 1.309-3.719s.918 2.941 1.316 3.725a.825.825 0 0 0 1.311.23c.643-.6 1.981-3.244 2.513-3.047s-.147 3.072-.042 3.944a.825.825 0 0 0 1.152.666c.807-.344 2.966-2.372 3.4-2.011s-1.189 2.838-1.387 3.692a.825.825 0 0 0 .854 1.019c.877-.047 3.6-1.211 3.876-.72s-2.085 2.264-2.565 3a.825.825 0 0 0 .455 1.251c.843.255 3.8.088 3.9.647s-2.735 1.416-3.437 1.943a.825.825 0 0 0 0 1.331c.695.525 3.525 1.383 3.43 1.941z" class="cls-1" data-name="패스 3138"/>
        </clipPath>
        <clipPath id="clip-path-2">
            <path id="패스_3140" d="M263.294 232.866c-.033.19-1.052.134-1.343.223a.283.283 0 0 0-.156.43c.164.253.981.863.883 1.032s-1.034-.233-1.336-.249a.285.285 0 0 0-.3.351c.069.295.627 1.149.479 1.276s-.894-.574-1.173-.693a.284.284 0 0 0-.4.23c-.036.3.2 1.293.015 1.359s-.645-.843-.866-1.05a.284.284 0 0 0-.452.079c-.137.27-.259 1.284-.454 1.284s-.315-1.013-.451-1.282a.284.284 0 0 0-.452-.08c-.221.207-.682 1.117-.865 1.049s.051-1.059.015-1.359a.284.284 0 0 0-.4-.23c-.279.119-1.022.818-1.173.693s.41-.981.479-1.276a.285.285 0 0 0-.295-.351c-.3.016-1.239.418-1.336.249s.717-.78.881-1.032a.285.285 0 0 0-.157-.431c-.288-.088-1.307-.032-1.34-.222s.943-.488 1.185-.67a.285.285 0 0 0 0-.459c-.242-.181-1.218-.477-1.185-.669s1.052-.135 1.343-.223a.284.284 0 0 0 .157-.43c-.165-.254-.982-.866-.884-1.035s1.034.232 1.336.248a.284.284 0 0 0 .294-.351c-.068-.294-.626-1.148-.478-1.272s.894.574 1.173.693a.285.285 0 0 0 .4-.23c.036-.3-.2-1.293-.015-1.359s.644.842.865 1.049a.284.284 0 0 0 .452-.08c.136-.269.257-1.282.451-1.282s.317 1.013.454 1.283a.284.284 0 0 0 .452.08c.221-.208.683-1.118.866-1.05s-.051 1.059-.015 1.359a.285.285 0 0 0 .4.23c.279-.119 1.022-.818 1.173-.693s-.41.978-.478 1.272a.284.284 0 0 0 .294.351c.3-.016 1.239-.417 1.336-.248s-.719.78-.884 1.034a.284.284 0 0 0 .157.431c.29.088 1.31.03 1.343.223s-.943.488-1.185.669a.285.285 0 0 0 0 .459c.247.182 1.223.478 1.19.67z" class="cls-1" data-name="패스 3140"/>
        </clipPath>
    </defs>
    <g id="그룹_2918" data-name="그룹 2918" transform="translate(-217.962 -197.97)">
        <g id="그룹_2917" data-name="그룹 2917">
            <g id="그룹_2911" data-name="그룹 2911">
                <path id="패스_3137" d="M252.187 223.669c-.1.553-3.052.39-3.895.647a.825.825 0 0 0-.455 1.249c.478.734 2.849 2.5 2.563 2.993s-3-.676-3.878-.722a.824.824 0 0 0-.853 1.019c.2.856 1.817 3.335 1.388 3.7s-2.6-1.667-3.4-2.011a.825.825 0 0 0-1.152.666c-.105.872.573 3.753.042 3.944s-1.87-2.445-2.513-3.047a.825.825 0 0 0-1.311.23c-.4.784-.751 3.725-1.316 3.725s-.915-2.939-1.309-3.719a.825.825 0 0 0-1.312-.233c-.642.6-1.979 3.241-2.51 3.044s.147-3.072.042-3.944a.825.825 0 0 0-1.152-.666c-.807.344-2.966 2.372-3.4 2.011s1.188-2.847 1.387-3.7a.824.824 0 0 0-.853-1.019c-.878.046-3.6 1.213-3.877.722s2.08-2.262 2.555-2.995a.825.825 0 0 0-.455-1.248c-.837-.257-3.792-.094-3.888-.646s2.735-1.416 3.437-1.943a.825.825 0 0 0 0-1.331c-.7-.527-3.532-1.385-3.437-1.943s3.053-.39 3.9-.647a.825.825 0 0 0 .455-1.249c-.479-.737-2.85-2.512-2.563-3s3 .673 3.875.72a.825.825 0 0 0 .854-1.019c-.2-.854-1.816-3.331-1.386-3.692s2.594 1.667 3.4 2.011a.825.825 0 0 0 1.152-.666c.105-.872-.573-3.753-.042-3.944s1.868 2.444 2.51 3.044a.825.825 0 0 0 1.312-.233c.394-.78.745-3.719 1.309-3.719s.918 2.941 1.316 3.725a.825.825 0 0 0 1.311.23c.643-.6 1.981-3.244 2.513-3.047s-.147 3.072-.042 3.944a.825.825 0 0 0 1.152.666c.807-.344 2.966-2.372 3.4-2.011s-1.189 2.838-1.387 3.692a.825.825 0 0 0 .854 1.019c.877-.047 3.6-1.211 3.876-.72s-2.085 2.264-2.565 3a.825.825 0 0 0 .455 1.251c.843.255 3.8.088 3.9.647s-2.735 1.416-3.437 1.943a.825.825 0 0 0 0 1.331c.695.525 3.525 1.383 3.43 1.941z" class="cls-2" data-name="패스 3137"/>
                <g id="그룹_2908" class="cls-3" data-name="그룹 2908">
                    <g id="그룹_2907" class="cls-4" data-name="그룹 2907">
                        <path id="사각형_2814" d="M0 0h14.78v30.891H0z" class="cls-5" data-name="사각형 2814" transform="translate(237.41 205.651)"/>
                    </g>
                </g>
                <g id="그룹_2909" data-name="그룹 2909">
                    <ellipse id="타원_739" cx="1.816" cy="1.439" class="cls-6" data-name="타원 739" rx="1.816" ry="1.439" transform="translate(239.548 216.632)"/>
                    <circle id="타원_740" cx=".945" cy=".945" r=".945" class="cls-7" data-name="타원 740" transform="translate(240.299 216.687)"/>
                    <circle id="타원_741" cx=".236" cy=".236" r=".236" class="cls-6" data-name="타원 741" transform="translate(240.536 216.856)"/>
                </g>
                <g id="그룹_2910" data-name="그룹 2910">
                    <ellipse id="타원_742" cx="1.816" cy="1.439" class="cls-6" data-name="타원 742" rx="1.816" ry="1.439" transform="translate(231.086 216.632)"/>
                    <circle id="타원_743" cx=".945" cy=".945" r=".945" class="cls-7" data-name="타원 743" transform="translate(231.837 216.687)"/>
                    <circle id="타원_744" cx=".236" cy=".236" r=".236" class="cls-6" data-name="타원 744" transform="translate(232.074 216.856)"/>
                </g>
                <ellipse id="타원_745" cx="1.74" cy=".729" class="cls-8" data-name="타원 745" rx="1.74" ry=".729" transform="translate(235.449 222.759)"/>
            </g>
            <g id="그룹_2916" data-name="그룹 2916">
                <path id="패스_3139" d="M263.294 232.866c-.033.19-1.052.134-1.343.223a.283.283 0 0 0-.156.43c.164.253.981.863.883 1.032s-1.034-.233-1.336-.249a.285.285 0 0 0-.3.351c.069.295.627 1.149.479 1.276s-.894-.574-1.173-.693a.284.284 0 0 0-.4.23c-.036.3.2 1.293.015 1.359s-.645-.843-.866-1.05a.284.284 0 0 0-.452.079c-.137.27-.259 1.284-.454 1.284s-.315-1.013-.451-1.282a.284.284 0 0 0-.452-.08c-.221.207-.682 1.117-.865 1.049s.051-1.059.015-1.359a.284.284 0 0 0-.4-.23c-.279.119-1.022.818-1.173.693s.41-.981.479-1.276a.285.285 0 0 0-.295-.351c-.3.016-1.239.418-1.336.249s.717-.78.881-1.032a.285.285 0 0 0-.157-.431c-.288-.088-1.307-.032-1.34-.222s.943-.488 1.185-.67a.285.285 0 0 0 0-.459c-.242-.181-1.218-.477-1.185-.669s1.052-.135 1.343-.223a.284.284 0 0 0 .157-.43c-.165-.254-.982-.866-.884-1.035s1.034.232 1.336.248a.284.284 0 0 0 .294-.351c-.068-.294-.626-1.148-.478-1.272s.894.574 1.173.693a.285.285 0 0 0 .4-.23c.036-.3-.2-1.293-.015-1.359s.644.842.865 1.049a.284.284 0 0 0 .452-.08c.136-.269.257-1.282.451-1.282s.317 1.013.454 1.283a.284.284 0 0 0 .452.08c.221-.208.683-1.118.866-1.05s-.051 1.059-.015 1.359a.285.285 0 0 0 .4.23c.279-.119 1.022-.818 1.173-.693s-.41.978-.478 1.272a.284.284 0 0 0 .294.351c.3-.016 1.239-.417 1.336-.248s-.719.78-.884 1.034a.284.284 0 0 0 .157.431c.29.088 1.31.03 1.343.223s-.943.488-1.185.669a.285.285 0 0 0 0 .459c.247.182 1.223.478 1.19.67z" class="cls-2" data-name="패스 3139"/>
                <g id="그룹_2913" class="cls-3" data-name="그룹 2913">
                    <g id="그룹_2912" class="cls-9" data-name="그룹 2912">
                        <path id="사각형_2815" d="M0 0h5.093v10.646H0z" class="cls-5" data-name="사각형 2815" transform="translate(258.201 226.656)"/>
                    </g>
                </g>
                <g id="그룹_2914" data-name="그룹 2914">
                    <ellipse id="타원_746" cx=".626" cy=".496" class="cls-6" data-name="타원 746" rx=".626" ry=".496" transform="translate(256.022 230.441)"/>
                    <circle id="타원_747" cx=".326" cy=".326" r=".326" class="cls-7" data-name="타원 747" transform="translate(256.363 230.46)"/>
                    <circle id="타원_748" cx=".081" cy=".081" r=".081" class="cls-6" data-name="타원 748" transform="translate(256.77 230.518)"/>
                </g>
                <g id="그룹_2915" data-name="그룹 2915">
                    <ellipse id="타원_749" cx=".626" cy=".496" class="cls-6" data-name="타원 749" rx=".626" ry=".496" transform="translate(258.938 230.441)"/>
                    <circle id="타원_750" cx=".326" cy=".326" r=".326" class="cls-7" data-name="타원 750" transform="translate(259.279 230.46)"/>
                    <circle id="타원_751" cx=".081" cy=".081" r=".081" class="cls-6" data-name="타원 751" transform="translate(259.686 230.518)"/>
                </g>
                <ellipse id="타원_752" cx=".6" cy=".251" class="cls-8" data-name="타원 752" rx=".6" ry=".251" transform="translate(257.525 232.552)"/>
            </g>
            <circle id="타원_753" cx="1.74" cy="1.74" r="1.74" class="cls-2" data-name="타원 753" transform="translate(255.55 213.364)"/>
            <circle id="타원_754" cx=".87" cy=".87" r=".87" class="cls-2" data-name="타원 754" transform="translate(246.617 238.143)"/>
            <circle id="타원_755" cx=".87" cy=".87" r=".87" class="cls-2" data-name="타원 755" transform="translate(224.383 206.526)"/>
        </g>
        <path id="사각형_2816" d="M0 0h50v50H0z" class="cls-1" data-name="사각형 2816" transform="translate(217.962 197.97)"/>
    </g>
</svg>
