<svg xmlns="http://www.w3.org/2000/svg" width="50" height="50" viewBox="0 0 50 50">
    <defs>
        <style>
            .cls-1{fill:none}.cls-2{fill:#dbdbdb}.cls-3{fill:#404141}.cls-4{fill:#c7c7c7}
        </style>
    </defs>
    <g id="그룹_1737" data-name="그룹 1737" transform="translate(-102.852 -92.189)">
        <path id="사각형_1942" d="M0 0h50v50H0z" class="cls-1" data-name="사각형 1942" transform="translate(102.852 92.189)"/>
        <path id="합치기_8" d="M138.542 135.534l-1.8-2.036a22.73 22.73 0 0 1-3.833.145 20.136 20.136 0 0 1-8.427-1.724l-1.42 2.7a1.9 1.9 0 0 1-2.547.856 1.046 1.046 0 0 1-.1-.056 2.116 2.116 0 0 1-.765-2.794l1.463-2.777a34.8 34.8 0 0 1-6.012-5.976 36.616 36.616 0 0 1-.836-1.3l-4.768-1.156a2.06 2.06 0 0 1-1.46-2.467 1.95 1.95 0 0 1 2.277-1.552l.06.012 1.481.36a28.2 28.2 0 0 1-2.217-12.053 21.029 21.029 0 0 1 .484-3.359l-2.642-2.6a2.134 2.134 0 0 1-.1-2.91 1.876 1.876 0 0 1 2.645-.2c.039.033.074.066.109.1l1.742 1.712a4.61 4.61 0 0 1 3.221-1.736c4.113-.5 5.7 1.3 7.578 4.388l1.525-2.491a1.893 1.893 0 0 1 2.59-.669c.037.022.074.045.11.069a2.128 2.128 0 0 1 .574 2.843L125 104.885a23.02 23.02 0 0 0 7.028 6.053l2.537-2.971a1.876 1.876 0 0 1 2.64-.255l.116.1a2.137 2.137 0 0 1 .146 2.9l-1.709 2a21.627 21.627 0 0 0 2.9.934 7.865 7.865 0 0 1 5.668 5.434l2.467-.136a2 2 0 0 1 2.053 1.946v.006a2.019 2.019 0 0 1-1.85 2.158l-2.339.129a17.947 17.947 0 0 1-.3 2.077c-.824 3.4-2.108 5.445-3.676 6.663l.711.805a2.136 2.136 0 0 1-.1 2.9 1.874 1.874 0 0 1-2.75-.1z" class="cls-2" data-name="합치기 8"/>
        <rect id="타원_394" width="3.36" height="3.36" class="cls-3" data-name="타원 394" rx="1.68" transform="translate(114.72 102)"/>
        <rect id="타원_395" width="6.24" height="6.24" class="cls-3" data-name="타원 395" rx="3.12" transform="translate(114.72 110.16)"/>
        <rect id="타원_396" width="2.16" height="2.4" class="cls-3" data-name="타원 396" rx="1.08" transform="translate(125.76 114)"/>
        <rect id="타원_397" width="3.36" height="3.36" class="cls-3" data-name="타원 397" rx="1.68" transform="translate(120.72 120.96)"/>
        <rect id="타원_398" width="6.24" height="6.24" class="cls-3" data-name="타원 398" rx="3.12" transform="translate(130.8 118.08)"/>
        <rect id="타원_399" width="2.4" height="2.4" class="cls-3" data-name="타원 399" rx="1.2" transform="translate(127.68 126.96)"/>
        <rect id="타원_400" width="3.84" height="3.84" class="cls-3" data-name="타원 400" rx="1.92" transform="translate(135.12 125.52)"/>
        <path id="패스_1700" d="M111.851 117.769l-.543-1.382a28.092 28.092 0 0 1-1.68-10.67 20.273 20.273 0 0 1 .49-3.36l-2.649-2.6a2.142 2.142 0 0 1-.1-2.91 1.939 1.939 0 0 1 .791-.54 2.679 2.679 0 0 0 .134 2.814l2.64 2.6a18.331 18.331 0 0 0-.624 3.815 34.06 34.06 0 0 0 .325 5.769c.136 1.261 1.216 6.464 1.216 6.464z" class="cls-4" data-name="패스 1700"/>
        <path id="패스_1701" d="M120.758 131.637l.926-2a34.649 34.649 0 0 1-6.01-5.97c-.3-.44-.57-.87-.84-1.3l-4.76-1.16a2.045 2.045 0 0 1-1.46-2.46 12.718 12.718 0 0 1 .694-1.247 1.939 1.939 0 0 0-1.25 1.47 2.053 2.053 0 0 0 1.46 2.46l4.77 1.16c.26.43.54.86.83 1.3a35.061 35.061 0 0 0 6.02 5.97l-1.47 2.78a2.131 2.131 0 0 0 .77 2.8.467.467 0 0 1 .1.05 1.908 1.908 0 0 0 2.55-.85l.04-.07a1.966 1.966 0 0 1-2.252.473s-1.791-.491-.118-3.406z" class="cls-4" data-name="패스 1701"/>
        <path id="패스_1702" d="M132.34 133.228a20.4 20.4 0 0 0 4.622-.1l1.141 1.4c.35.41 1.4 1.339 2.178 1.242a2.362 2.362 0 0 0 1.391-.708 1.811 1.811 0 0 1-.39.57 1.879 1.879 0 0 1-2.75-.1l-1.8-2.04a22.278 22.278 0 0 1-3.83.15 20.422 20.422 0 0 1-8.42-1.726 39.05 39.05 0 0 0 7.858 1.312z" class="cls-4" data-name="패스 1702"/>
    </g>
</svg>
