<svg xmlns="http://www.w3.org/2000/svg" width="50" height="50" viewBox="0 0 50 50">
    <defs>
        <style>
            .cls-1{fill:#dbdbdb}.cls-2{fill:#c9c9c9}.cls-3{fill:#282828}.cls-4{fill:#fff}.cls-5{fill:#1c1c1c}.cls-6,.cls-9{fill:none}.cls-6{stroke:#8c3221;stroke-linecap:round;stroke-miterlimit:10}.cls-7{fill:#8c3221}.cls-8{fill:#030504;opacity:.04}
        </style>
    </defs>
    <g id="그룹_2906" data-name="그룹 2906" transform="translate(-160.066 -197.97)">
        <g id="그룹_2905" data-name="그룹 2905">
            <g id="그룹_2901" data-name="그룹 2901">
                <path id="패스_3120" d="M193.822 220.772a4.732 4.732 0 0 0 .43-3.75 1.215 1.215 0 0 0-.09-.2 6.167 6.167 0 0 0-2.18-1.26 5.354 5.354 0 0 0-.16-1 4.022 4.022 0 0 0-1.04-1.9 1.144 1.144 0 0 0-.17-.15 4.026 4.026 0 0 0-1.99-.95 6.8 6.8 0 0 0-.7-1.28 4.647 4.647 0 0 0-.62-.77l-.01-.01a4.011 4.011 0 0 0-1.78-1.09 4.318 4.318 0 0 0-2.87.27 4.747 4.747 0 0 0-3.65-1.19 4.32 4.32 0 0 0-2.51 1.44 4.278 4.278 0 0 0-2.79.07 4.655 4.655 0 0 0-2.46 2.67 4.013 4.013 0 0 0-1.68.86 4.446 4.446 0 0 0-1.39 2.92 4.654 4.654 0 0 0-2.78 2.37 4.323 4.323 0 0 0-.13 2.94 4.425 4.425 0 0 0-1.2 2.89 3.981 3.981 0 0 0 .43 1.77 6.156 6.156 0 0 0 .33.55 6.842 6.842 0 0 0 .99 1.14 3.8 3.8 0 0 0 .19 1.81c.03.08.06.15.09.22a3.6 3.6 0 0 0 .54.87v.01a4.432 4.432 0 0 0 .98.89 5.594 5.594 0 0 0 .42 2.55c1.21 1.06 3.08 1.28 5.26.79a6.418 6.418 0 0 0 .87 1.37.425.425 0 0 0 .11-.02c.05.11.11.22.17.33A3.885 3.885 0 0 0 176.2 237a4.724 4.724 0 0 0 3.75-.73 4.246 4.246 0 0 0 2.77.59 3.877 3.877 0 0 0 .49-.11h.02a3.763 3.763 0 0 0 2.45-1.22 4.543 4.543 0 0 0 3.38-.98 4.633 4.633 0 0 0 1.43-3.31 4.381 4.381 0 0 0 2.32-2.17 4.576 4.576 0 0 0-.1-3.62 4.525 4.525 0 0 0 1.44-3.15 3.73 3.73 0 0 0-.328-1.528zm-17.99 10.14a.035.035 0 0 1 .03.03z" class="cls-1" data-name="패스 3120"/>
                <path id="패스_3121" d="M195.132 223.652a4.525 4.525 0 0 1-1.44 3.15 4.576 4.576 0 0 1 .1 3.62 4.381 4.381 0 0 1-2.32 2.17 4.633 4.633 0 0 1-1.43 3.31 4.543 4.543 0 0 1-3.38.98 3.763 3.763 0 0 1-2.45 1.22h-.02a3.879 3.879 0 0 1-.49.11 4.245 4.245 0 0 1-2.77-.59 4.724 4.724 0 0 1-3.75.73 4.607 4.607 0 0 1-2.75-2.42A3.885 3.885 0 0 0 176.2 237a4.724 4.724 0 0 0 3.75-.73 4.246 4.246 0 0 0 2.77.59 3.877 3.877 0 0 0 .49-.11h.02a3.763 3.763 0 0 0 2.45-1.22 4.543 4.543 0 0 0 3.38-.98 4.633 4.633 0 0 0 1.43-3.31 4.381 4.381 0 0 0 2.32-2.17 4.576 4.576 0 0 0-.1-3.62 4.525 4.525 0 0 0 1.44-3.15 3.73 3.73 0 0 0-.33-1.53 4.732 4.732 0 0 0 .43-3.75 1.215 1.215 0 0 0-.09-.2 3.769 3.769 0 0 1 1.07 1.55 4.732 4.732 0 0 1-.43 3.75 3.73 3.73 0 0 1 .332 1.532z" class="cls-2" data-name="패스 3121"/>
                <path id="패스_3122" d="M173.282 234.252a6.418 6.418 0 0 0 .87 1.37c-2.25.49-4.16.2-5.34-.98a3.652 3.652 0 0 1-.79-1.18c1.21 1.06 3.078 1.28 5.26.79z" class="cls-2" data-name="패스 3122"/>
                <path id="패스_3123" d="M177.9 229.832l-.03-.03a.035.035 0 0 1 .03.03z" class="cls-3" data-name="패스 3123"/>
                <path id="패스_3124" d="M177.9 229.832l-.03-.03a.035.035 0 0 1 .03.03z" class="cls-3" data-name="패스 3124"/>
                <path id="패스_3125" d="M177.9 229.832l-.03-.03a.035.035 0 0 1 .03.03z" class="cls-3" data-name="패스 3125"/>
                <path id="패스_3126" d="M177.9 229.832l-.03-.03a.035.035 0 0 1 .03.03z" class="cls-3" data-name="패스 3126"/>
                <path id="패스_3127" d="M177.9 229.832l-.03-.03a.035.035 0 0 1 .03.03z" class="cls-3" data-name="패스 3127"/>
                <g id="그룹_2899" data-name="그룹 2899">
                    <circle id="타원_723" cx="2.226" cy="2.226" r="2.226" class="cls-4" data-name="타원 723" transform="translate(171.926 215.046)"/>
                    <circle id="타원_724" cx="1.113" cy="1.113" r="1.113" class="cls-5" data-name="타원 724" transform="translate(172.206 215.355)"/>
                    <circle id="타원_725" cx=".278" cy=".278" r=".278" class="cls-4" data-name="타원 725" transform="translate(172.484 215.634)"/>
                </g>
                <g id="그룹_2900" data-name="그룹 2900">
                    <circle id="타원_726" cx="2.226" cy="2.226" r="2.226" class="cls-4" data-name="타원 726" transform="translate(182.025 215.046)"/>
                    <circle id="타원_727" cx="1.113" cy="1.113" r="1.113" class="cls-5" data-name="타원 727" transform="translate(182.305 215.355)"/>
                    <circle id="타원_728" cx=".278" cy=".278" r=".278" class="cls-4" data-name="타원 728" transform="translate(182.583 215.634)"/>
                </g>
                <path id="패스_3128" d="M177.307 223.679a2.406 2.406 0 0 1 1.943-.769 4.111 4.111 0 0 1 1.943.769" class="cls-6" data-name="패스 3128"/>
            </g>
            <g id="그룹_2904" data-name="그룹 2904">
                <path id="패스_3129" d="M205.584 229.289a1.441 1.441 0 0 0 .131-1.142.419.419 0 0 0-.027-.061 1.881 1.881 0 0 0-.664-.383 1.579 1.579 0 0 0-.049-.305 1.218 1.218 0 0 0-.316-.578.349.349 0 0 0-.052-.046 1.218 1.218 0 0 0-.606-.289 2.1 2.1 0 0 0-.213-.39 1.44 1.44 0 0 0-.189-.235 1.224 1.224 0 0 0-.542-.332 1.316 1.316 0 0 0-.874.083 1.446 1.446 0 0 0-1.111-.363 1.76 1.76 0 0 1-1.614.46 1.415 1.415 0 0 0-.749.813 1.23 1.23 0 0 0-.512.262 1.358 1.358 0 0 0-.423.889 1.415 1.415 0 0 0-.846.722 1.316 1.316 0 0 0-.04.895 1.348 1.348 0 0 0-.365.88 1.2 1.2 0 0 0 .131.539 1.886 1.886 0 0 0 .1.167 2.033 2.033 0 0 0 .3.347 1.165 1.165 0 0 0 .057.552l.028.067a1.074 1.074 0 0 0 .164.264 1.326 1.326 0 0 0 .3.271 1.686 1.686 0 0 0 .128.777 1.787 1.787 0 0 0 1.6.24 1.965 1.965 0 0 0 .265.418.143.143 0 0 0 .034-.006c.015.033.033.067.051.1a1.192 1.192 0 0 0 .539.326 1.442 1.442 0 0 0 1.142-.222 1.292 1.292 0 0 0 .844.179 1.237 1.237 0 0 0 .149-.033h.006a1.194 1.194 0 0 0 .32-.076 1.175 1.175 0 0 0 .426-.3 1.382 1.382 0 0 0 1.029-.3 1.41 1.41 0 0 0 .435-1.008 1.336 1.336 0 0 0 .707-.661 1.391 1.391 0 0 0-.031-1.1 1.374 1.374 0 0 0 .439-.959 1.134 1.134 0 0 0-.102-.462zm-5.477 3.087h.006v.006z" class="cls-1" data-name="패스 3129"/>
                <path id="패스_3130" d="M205.983 230.166a1.377 1.377 0 0 1-.438.959 1.4 1.4 0 0 1 .03 1.1 1.33 1.33 0 0 1-.706.661 1.415 1.415 0 0 1-.436 1.008 1.381 1.381 0 0 1-1.029.3 1.141 1.141 0 0 1-.746.372h-.006a1.2 1.2 0 0 1-.149.033 1.3 1.3 0 0 1-.844-.179 1.44 1.44 0 0 1-1.141.222 1.4 1.4 0 0 1-.838-.737 1.192 1.192 0 0 0 .539.326 1.442 1.442 0 0 0 1.142-.222 1.292 1.292 0 0 0 .844.179 1.237 1.237 0 0 0 .149-.033h.006a1.194 1.194 0 0 0 .32-.076 1.175 1.175 0 0 0 .426-.3 1.382 1.382 0 0 0 1.029-.3 1.41 1.41 0 0 0 .435-1.008 1.336 1.336 0 0 0 .707-.661 1.391 1.391 0 0 0-.031-1.1 1.374 1.374 0 0 0 .439-.959 1.134 1.134 0 0 0-.1-.466 1.441 1.441 0 0 0 .131-1.142.419.419 0 0 0-.027-.061 1.149 1.149 0 0 1 .326.472 1.441 1.441 0 0 1-.131 1.142 1.136 1.136 0 0 1 .099.47z" class="cls-2" data-name="패스 3130"/>
                <path id="패스_3131" d="M199.33 233.393a1.965 1.965 0 0 0 .265.418 1.718 1.718 0 0 1-1.626-.3 1.1 1.1 0 0 1-.24-.359 1.787 1.787 0 0 0 1.601.241z" class="cls-2" data-name="패스 3131"/>
                <path id="패스_3132" d="M200.737 232.048l-.009-.009h.006z" class="cls-3" data-name="패스 3132"/>
                <path id="패스_3133" d="M200.737 232.048l-.009-.009h.006z" class="cls-3" data-name="패스 3133"/>
                <path id="패스_3134" d="M200.737 232.048l-.009-.009h.006z" class="cls-3" data-name="패스 3134"/>
                <path id="패스_3135" d="M200.737 232.048l-.009-.009h.006z" class="cls-3" data-name="패스 3135"/>
                <path id="패스_3136" d="M200.737 232.048l-.009-.009h.006z" class="cls-3" data-name="패스 3136"/>
                <g id="그룹_2902" data-name="그룹 2902">
                    <circle id="타원_729" cx=".678" cy=".678" r=".678" class="cls-4" data-name="타원 729" transform="translate(198.917 227.546)"/>
                    <circle id="타원_730" cx=".339" cy=".339" r=".339" class="cls-5" data-name="타원 730" transform="translate(199.51 227.64)"/>
                    <circle id="타원_731" cx=".085" cy=".085" r=".085" class="cls-4" data-name="타원 731" transform="translate(199.933 227.724)"/>
                </g>
                <g id="그룹_2903" data-name="그룹 2903">
                    <circle id="타원_732" cx=".678" cy=".678" r=".678" class="cls-4" data-name="타원 732" transform="translate(201.992 227.546)"/>
                    <circle id="타원_733" cx=".339" cy=".339" r=".339" class="cls-5" data-name="타원 733" transform="translate(202.078 227.64)"/>
                    <circle id="타원_734" cx=".085" cy=".085" r=".085" class="cls-4" data-name="타원 734" transform="translate(202.162 227.724)"/>
                </g>
                <circle id="타원_735" cx=".44" cy=".44" r=".44" class="cls-7" data-name="타원 735" transform="translate(200.728 229.753)"/>
            </g>
            <circle id="타원_736" cx=".879" cy=".879" r=".879" class="cls-8" data-name="타원 736" transform="translate(200.421 218.069)"/>
            <circle id="타원_737" cx=".879" cy=".879" r=".879" class="cls-8" data-name="타원 737" transform="translate(193.835 236.259)"/>
            <circle id="타원_738" cx=".879" cy=".879" r=".879" class="cls-8" data-name="타원 738" transform="translate(165.227 207.488)"/>
        </g>
        <path id="사각형_2813" d="M0 0h50v50H0z" class="cls-9" data-name="사각형 2813" transform="translate(160.066 197.97)"/>
    </g>
</svg>
