<svg xmlns="http://www.w3.org/2000/svg" width="50" height="50" viewBox="0 0 50 50">
    <defs>
        <style>
            .cls-1{fill:#f4e0d0}.cls-2{fill:#dcbeb2}.cls-2,.cls-6{stroke:#dcbeb2}.cls-2,.cls-3,.cls-4,.cls-6{stroke-linecap:round}.cls-2,.cls-3,.cls-6{stroke-linejoin:round}.cls-3{fill:#fff0e4;stroke:#fff0e4}.cls-4,.cls-5,.cls-6{fill:none}.cls-4{stroke:#f8efe9;stroke-miterlimit:10}
        </style>
    </defs>
    <g id="그룹_1790" data-name="그룹 1790" transform="translate(-291.992 -94.28)">
        <rect id="사각형_2264" width="11.76" height="4.8" class="cls-1" data-name="사각형 2264" rx="2" transform="translate(311.04 116.88)"/>
        <path id="패스_788" d="M314.24 140.948l.08-6.306a7.9 7.9 0 0 0-2.98-6.383 4.616 4.616 0 0 1-1.693-3.694 4.249 4.249 0 0 1 4.056-4.4 3.773 3.773 0 0 1 2.608 1.133.87.87 0 0 0 1.157.015 3.771 3.771 0 0 1 2.635-1.066 4.25 4.25 0 0 1 3.943 4.5 4.617 4.617 0 0 1-1.787 3.648 7.9 7.9 0 0 0-3.141 6.306l-.079 6.306" class="cls-2" data-name="패스 788"/>
        <path id="패스_788-2" d="M319.746 97.5l-.08 6.305a7.9 7.9 0 0 0 2.979 6.384 4.618 4.618 0 0 1 1.694 3.693 4.249 4.249 0 0 1-4.057 4.4 3.764 3.764 0 0 1-2.607-1.133.873.873 0 0 0-1.157-.015 3.764 3.764 0 0 1-2.635 1.066 4.248 4.248 0 0 1-3.943-4.5 4.614 4.614 0 0 1 1.787-3.649 7.9 7.9 0 0 0 3.14-6.305l.08-6.306" class="cls-2" data-name="패스 788"/>
        <path id="패스_788-3" d="M314.24 140.948l.08-6.306a7.9 7.9 0 0 0-2.98-6.383 4.616 4.616 0 0 1-1.693-3.694 4.249 4.249 0 0 1 4.056-4.4 3.773 3.773 0 0 1 2.608 1.133.87.87 0 0 0 1.157.015 3.771 3.771 0 0 1 2.635-1.066 4.25 4.25 0 0 1 3.943 4.5 4.617 4.617 0 0 1-1.787 3.648 7.9 7.9 0 0 0-3.141 6.306l-.079 6.306" class="cls-3" data-name="패스 788"/>
        <path id="패스_788-4" d="M314.24 140.948l.08-6.306a7.9 7.9 0 0 0-2.98-6.383 4.616 4.616 0 0 1-1.693-3.694 4.249 4.249 0 0 1 4.056-4.4 3.773 3.773 0 0 1 2.608 1.133.87.87 0 0 0 1.157.015 3.771 3.771 0 0 1 2.635-1.066 4.25 4.25 0 0 1 3.943 4.5 4.617 4.617 0 0 1-1.787 3.648 7.9 7.9 0 0 0-3.141 6.306l-.079 6.306" class="cls-2" data-name="패스 788"/>
        <path id="패스_1833" d="M320.057 122.642a2.143 2.143 0 0 1 1.994 2.306A2.166 2.166 0 0 1 320 127.2" class="cls-4" data-name="패스 1833"/>
        <path id="패스_1834" d="M313.928 115.8a2.142 2.142 0 0 1-1.993-2.306 2.164 2.164 0 0 1 2.051-2.254" class="cls-4" data-name="패스 1834"/>
        <path id="사각형_1945" d="M0 0h50v50H0z" class="cls-5" data-name="사각형 1945" transform="translate(291.993 94.28)"/>
        <path id="패스_788-5" d="M319.746 97.5l-.08 6.305a7.9 7.9 0 0 0 2.979 6.384 4.618 4.618 0 0 1 1.694 3.693 4.249 4.249 0 0 1-4.057 4.4 3.764 3.764 0 0 1-2.607-1.133.873.873 0 0 0-1.157-.015 3.764 3.764 0 0 1-2.635 1.066 4.248 4.248 0 0 1-3.943-4.5 4.614 4.614 0 0 1 1.787-3.649 7.9 7.9 0 0 0 3.14-6.305l.08-6.306" class="cls-6" data-name="패스 788"/>
    </g>
</svg>
