<svg xmlns="http://www.w3.org/2000/svg" width="50" height="50" viewBox="0 0 50 50">
    <defs>
        <style>
            .cls-1{fill:#ef5f4b}.cls-2{fill:#f59382}.cls-3,.cls-4,.cls-7{fill:none}.cls-3,.cls-4{stroke:#c4171e;stroke-linejoin:round}.cls-3{stroke-width:.25px}.cls-4{stroke-width:.2px}.cls-5{fill:#c4171e}.cls-6{fill:#f6ae82}
        </style>
    </defs>
    <g id="그룹_2511" data-name="그룹 2511" transform="translate(-950.617 -197.551)">
        <g id="그룹_2510" data-name="그룹 2510">
            <path id="패스_2453" d="M985.209 227.707a19.978 19.978 0 0 1-12.753 10.893 2.671 2.671 0 0 0-1.37.915 5.606 5.606 0 0 0-4.769-2.164 2.664 2.664 0 0 0-.213-1.633 19.979 19.979 0 0 1-.2-16.772c3.122-6.88 9.15-10.314 13.292-11.942.044-.014.092-.037.135-.05a2.77 2.77 0 0 0 1.389-1.152 5.6 5.6 0 0 0 4.623 2.1 2.824 2.824 0 0 0 .054 1.818l.007.014c1.522 4.174 2.953 11.038-.195 17.973z" class="cls-1" data-name="패스 2453"/>
            <path id="패스_2454" d="M977.937 223.9c-2.338 5.151-5.706 9.965-6.916 9.416s.2-6.254 2.534-11.405 5.213-8.881 6.423-8.332.296 5.174-2.041 10.321z" class="cls-2" data-name="패스 2454"/>
            <path id="패스_2455" d="M978.157 223.7c-1.465 3.228-6.388 9.6-6.934 10.261s-1.374 1.938-1.374 1.938.419-1.46.555-2.3 1.687-8.746 3.157-11.983c1.394-3.072 6-8.511 6.427-9.034.468-.577 2.672-4.193 2.672-4.193a44.239 44.239 0 0 0-1.954 4.411c-.106.678-1.083 7.674-2.549 10.9z" class="cls-3" data-name="패스 2455"/>
            <path id="패스_2456" d="M980.6 224.812c-3.021 6.657-9.482 10.638-10.264 11.583s-1.546 1.846-1.546 1.846.177-1.161.373-2.367-1.072-8.687 1.958-15.364c2.875-6.336 9.77-10.925 10.378-11.674.67-.827 1.432-1.755 1.432-1.755s-.246 1.1-.4 2.066 1.091 9.003-1.931 15.665z" class="cls-4" data-name="패스 2456"/>
            <path id="패스_2457" d="M983.56 226.873c-3.992 8.8-12.311 9.419-13.476 10.827s-1.766 1.456-1.766 1.456-.274-.434.017-2.232-4.873-8.13-.718-17.286c4.09-9.013 13.3-11.073 14.205-12.19 1-1.232 1.43-1.064 1.43-1.064s.338.085.1 1.528 4.31 9.922.208 18.961z" class="cls-4" data-name="패스 2457"/>
            <path id="사각형_2731" d="M0 0h.593v36.301H0z" class="cls-5" data-name="사각형 2731" transform="rotate(24.409 14.68 2375.49)"/>
            <path id="패스_2458" d="M971.086 239.516a2.03 2.03 0 0 0-.347.544l-1.077 2.374a1.086 1.086 0 0 1-1.461.451l-2.519-1.144a1.085 1.085 0 0 1-.623-1.4l1.077-2.373a2.009 2.009 0 0 0 .181-.62 5.606 5.606 0 0 1 4.769 2.164z" class="cls-6" data-name="패스 2458"/>
            <path id="패스_2459" d="M985.345 207.9a5.6 5.6 0 0 1-4.623-2.1 2.233 2.233 0 0 0 .124-.244l1.312-2.891a1.084 1.084 0 0 1 1.46-.451l2.52 1.144a1.085 1.085 0 0 1 .622 1.4l-1.312 2.89a2.247 2.247 0 0 0-.103.252z" class="cls-6" data-name="패스 2459"/>
        </g>
        <path id="사각형_2732" d="M0 0h50v50H0z" class="cls-7" data-name="사각형 2732" transform="translate(950.616 197.551)"/>
    </g>
</svg>
