<svg xmlns="http://www.w3.org/2000/svg" width="50" height="50" viewBox="0 0 50 50">
    <defs>
        <style>
            .cls-1{fill:#40bcd5}.cls-2{fill:#78ccdb}.cls-3,.cls-7,.cls-8{fill:none}.cls-3{stroke:#11a0ba;stroke-linecap:round;stroke-linejoin:round}.cls-4{fill:#fff;opacity:.8}.cls-5,.cls-6{fill:#0ba7cf}.cls-5{font-size:11.918px;font-family:Avenir-Medium,Avenir;font-weight:500}.cls-7{stroke:#030504;stroke-miterlimit:10;opacity:.05}
        </style>
    </defs>
    <g id="그룹_1751" data-name="그룹 1751" transform="translate(-922.895 -94.502)">
        <g id="그룹_1750" data-name="그룹 1750" transform="translate(936.222 102.035)">
            <path id="패스_1738" d="M960.21 119.127v14.42a3.663 3.663 0 0 1-3.65 3.73H940.1a3.728 3.728 0 0 1-3.72-3.73v-14.42a3.872 3.872 0 0 1 .31-1.5h23.21a3.873 3.873 0 0 1 .31 1.5z" class="cls-1" data-name="패스 1738" transform="translate(-936.38 -102.343)"/>
            <path id="패스_1739" d="M959.9 117.627h-23.21a4.2 4.2 0 0 1 .43-.74l3.73-4.96v-2.12h14.9v2.12l3.72 4.96a4.2 4.2 0 0 1 .43.74z" class="cls-2" data-name="패스 1739" transform="translate(-936.38 -102.124)"/>
            <path id="선_334" d="M0 0h8.805" class="cls-3" data-name="선 334" transform="translate(4.468 8.511)"/>
            <path id="선_335" d="M0 0h14.897" class="cls-3" data-name="선 335" transform="translate(4.468 9.8)"/>
            <path id="사각형_2255" d="M0 0h20.986v14.426H0z" class="cls-4" data-name="사각형 2255" transform="translate(1.505 16.78)"/>
            <text id="etc" class="cls-5" transform="translate(3.033 27.359)">
                <tspan x="0" y="0">etc</tspan>
            </text>
            <path id="패스_1740" d="M957.24 104.277v3.42a2.246 2.246 0 0 1-1.49 2.11h-14.9a2.233 2.233 0 0 1-1.49-2.11v-3.42a2.241 2.241 0 0 1 2.23-2.24H955a2.256 2.256 0 0 1 2.24 2.24z" class="cls-6" data-name="패스 1740" transform="translate(-936.38 -102.037)"/>
            <path id="선_336" d="M0 0v7.77" class="cls-7" data-name="선 336" transform="translate(5.701)"/>
            <path id="선_337" d="M0 0v7.77" class="cls-7" data-name="선 337" transform="translate(7.545)"/>
            <path id="선_338" d="M0 0v7.77" class="cls-7" data-name="선 338" transform="translate(9.389)"/>
            <path id="선_339" d="M0 0v7.77" class="cls-7" data-name="선 339" transform="translate(11.233)"/>
            <path id="선_340" d="M0 0v7.77" class="cls-7" data-name="선 340" transform="translate(13.078)"/>
            <path id="선_341" d="M0 0v7.77" class="cls-7" data-name="선 341" transform="translate(14.922)"/>
            <path id="선_342" d="M0 0v7.77" class="cls-7" data-name="선 342" transform="translate(16.766)"/>
            <path id="선_343" d="M0 0v7.77" class="cls-7" data-name="선 343" transform="translate(18.61)"/>
        </g>
        <path id="사각형_1945" d="M0 0h49.692v49.692H0z" class="cls-8" data-name="사각형 1945" transform="rotate(-.356 15720.584 -148485.792)"/>
    </g>
</svg>
