<svg xmlns="http://www.w3.org/2000/svg" width="50" height="50" viewBox="0 0 50 50">
    <defs>
        <style>
            .cls-1{fill:#faddc7}.cls-2{fill:#f0ceb7}.cls-3{fill:#f6ceb3}.cls-4{fill:#111}.cls-5,.cls-8{fill:none}.cls-6{fill:#e03b18}.cls-7{fill:#343535}.cls-8{stroke:#dd8554;stroke-linecap:round;stroke-linejoin:round}
        </style>
    </defs>
    <g id="그룹_1758" data-name="그룹 1758" transform="translate(-733.578 -92.983)">
        <g id="그룹_1757" data-name="그룹 1757" transform="translate(733.911 92.983)">
            <path id="패스_1751" d="M772.265 117.8a4.648 4.648 0 0 1 .569-.034 4.592 4.592 0 0 1 .374 9.168c-.123.01-.249.015-.374.015" class="cls-1" data-name="패스 1751" transform="translate(-734.555 -93.967)"/>
            <path id="패스_1752" d="M746.236 125.9a4.527 4.527 0 0 1-.937.1 4.591 4.591 0 0 1-.428-9.162 4.106 4.106 0 0 1 .431-.021 4.649 4.649 0 0 1 .569.034" class="cls-1" data-name="패스 1752" transform="translate(-733.911 -93.929)"/>
            <path id="패스_1753" d="M775.235 123.524a.592.592 0 0 1-.544-.357c-.484-1.112-1.892-.727-1.952-.71a.593.593 0 0 1-.324-1.14 2.762 2.762 0 0 1 3.363 1.378.592.592 0 0 1-.543.829z" class="cls-2" data-name="패스 1753" transform="translate(-734.439 -93.943)"/>
            <path id="패스_1754" d="M743.271 122.832a.6.6 0 0 1-.236-.049.594.594 0 0 1-.307-.78 2.763 2.763 0 0 1 3.363-1.378.593.593 0 0 1-.321 1.141c-.153-.042-1.485-.37-1.955.71a.593.593 0 0 1-.544.356z" class="cls-2" data-name="패스 1754" transform="translate(-734.033 -93.92)"/>
            <path id="패스_1755" d="M772.622 114.77v9.545a14.285 14.285 0 0 1-.588 4.074 14.082 14.082 0 0 1-.84 2.162q-.287.591-.627 1.148a14 14 0 0 1-1.674 2.224 13.57 13.57 0 0 1-7.36 4.145 14.084 14.084 0 0 1-2.609.25 13.845 13.845 0 0 1-13.688-14v-9.548a13.845 13.845 0 0 1 13.688-14 14.083 14.083 0 0 1 2.609.25 13.56 13.56 0 0 1 7.074 3.848 14.121 14.121 0 0 1 4.015 9.902z" class="cls-1" data-name="패스 1755" transform="translate(-733.911 -94.596)"/>
            <path id="패스_1756" d="M760.4 138.107a12.749 12.749 0 0 1-15.16-12.51v-8.68a12.749 12.749 0 0 1 15.16-12.51 12.741 12.741 0 0 0-10.32 12.51v8.68a12.741 12.741 0 0 0 10.32 12.51z" class="cls-3" data-name="패스 1756" transform="translate(-734.119 -94.616)"/>
            <path id="패스_1757" d="M772.622 114.777v2.07c-15.388-.02-21.026-6.13-21.554-6.75a.171.171 0 0 1-.049-.05c0 2.81-2.755 5.79-5.784 6.8v-2.01a16.276 16.276 0 0 1 .156-2.19c.078-.45.166-.9.274-1.35.059-.22.127-.44.186-.67a14.831 14.831 0 0 1 1.72-3.68s.02-.01.02-.02c.244-.36.5-.72.772-1.06.156-.18.3-.36.459-.54s.3-.33.459-.49a13.781 13.781 0 0 1 1.5-1.33c.332-.25.684-.49 1.036-.71a13.388 13.388 0 0 1 7.1-2.03 13.885 13.885 0 0 1 2.511.23c.029.01.068.01.1.02a13.558 13.558 0 0 1 7.074 3.85 14.133 14.133 0 0 1 4.02 9.91z" class="cls-4" data-name="패스 1757" transform="translate(-733.911 -93.354)"/>
            <path id="사각형_1945" d="M0 0h49.367v48.383H0z" class="cls-5" data-name="사각형 1945" transform="rotate(-.356 49.41 .154)"/>
            <path id="패스_1758" d="M762.73 130.69a.593.593 0 0 1 0 .838 5.431 5.431 0 0 1-7.672 0 .593.593 0 0 1 .838-.838 4.244 4.244 0 0 0 5.995 0 .593.593 0 0 1 .839 0z" class="cls-6" data-name="패스 1758" transform="translate(-734.231 -94.268)"/>
            <path id="패스_1759" d="M772.29 114.68v2.07c-15.388-.02-21.026-6.13-21.554-6.75a.171.171 0 0 1-.049-.05c0 2.81-2.755 5.79-5.784 6.8v-2.01a16.266 16.266 0 0 1 .156-2.19c.078-.45.166-.9.274-1.35.059-.22.127-.44.186-.67a14.831 14.831 0 0 1 1.72-3.68s.019-.01.019-.02c.244-.36.5-.72.772-1.06.156-.18.3-.36.459-.54s.3-.33.459-.49a13.768 13.768 0 0 1 1.5-1.33c.332-.25.684-.49 1.036-.71a13.389 13.389 0 0 1 7.1-2.03 13.884 13.884 0 0 1 2.511.23c.029.01.068.01.1.02a13.558 13.558 0 0 1 7.074 3.85 14.133 14.133 0 0 1 4.021 9.91z" class="cls-4" data-name="패스 1759" transform="translate(-733.911 -93.349)"/>
            <g id="그룹_1756" data-name="그룹 1756" transform="translate(16.809 25.92)">
                <circle id="타원_560" cx="1.482" cy="1.482" r="1.482" class="cls-7" data-name="타원 560"/>
                <circle id="타원_561" cx="1.482" cy="1.482" r="1.482" class="cls-7" data-name="타원 561" transform="translate(12.718)"/>
            </g>
            <path id="패스_1760" d="M759.066 120.009v4.722a2.119 2.119 0 0 0-1.506 2.048s.126 1.561 1.506 1.561" class="cls-8" data-name="패스 1760" transform="translate(-734.223 -94.034)"/>
        </g>
        <path id="사각형_1945-2" d="M0 0h49.367v48.383H0z" class="cls-5" data-name="사각형 1945" transform="rotate(-.356 15592.128 -118016.711)"/>
    </g>
</svg>
