<svg xmlns="http://www.w3.org/2000/svg" width="50" height="50" viewBox="0 0 50 50">
    <defs>
        <style>
            .cls-1{fill:#f09ab7}.cls-2{fill:#eb82aa}.cls-3{fill:#e55a7e}.cls-4{fill:#ec6c88}.cls-5{fill:#efefef}.cls-6{fill:#e5e4e4}.cls-7{fill:#fff}.cls-8,.cls-9{fill:none}.cls-9{stroke:#dd8554;stroke-miterlimit:10}
        </style>
    </defs>
    <g id="그룹_3202" data-name="그룹 3202" transform="translate(-1129.119 -244.11)">
        <g id="그룹_3201" data-name="그룹 3201">
            <g id="그룹_3198" data-name="그룹 3198">
                <path id="패스_3594" d="M1174.8 267.659v13.256h-41.38v-13.3a1.739 1.739 0 0 1 1.2-1.652l2.2-.719c1.09 6.74 8.4 11.94 17.25 11.94 8.82 0 16.11-5.16 17.24-11.86l2.24.661a1.745 1.745 0 0 1 1.25 1.674z" class="cls-1" data-name="패스 3594"/>
                <path id="사각형_2981" d="M0 0h41.364v4.063a2.109 2.109 0 0 1-2.109 2.109H2.109A2.109 2.109 0 0 1 0 4.063V0z" class="cls-2" data-name="사각형 2981" transform="translate(1133.45 280.917)"/>
                <path id="패스_3595" d="M1171.314 265.325c-1.13 6.7-8.42 11.86-17.24 11.86-8.85 0-16.16-5.2-17.25-11.94l2.56-.83a16.885 16.885 0 0 0 29.38.16z" class="cls-3" data-name="패스 3595"/>
                <path id="패스_3596" d="M1168.764 264.575a16.885 16.885 0 0 1-29.38-.16l1.36-.45a6.593 6.593 0 0 1 2.99-.27l5.82.83a40 40 0 0 1 9.15 0l5.78-.75a5.347 5.347 0 0 1 2.18.18z" class="cls-4" data-name="패스 3596"/>
            </g>
            <g id="그룹_3200" data-name="그룹 3200">
                <path id="패스_3597" d="M1159.487 251.13a7.342 7.342 0 0 0-2.886.592 6.285 6.285 0 0 1-4.96 0 7.337 7.337 0 0 0-2.885-.592 7.324 7.324 0 0 0-7.324 7.323 16.79 16.79 0 0 0 2.551 8.9l.207.331 2.4 10.572a2.011 2.011 0 0 0 1.962 1.566 2.012 2.012 0 0 0 1.986-1.681l1.655-9.928a1.954 1.954 0 0 1 1.925-1.632 1.953 1.953 0 0 1 1.927 1.632l1.656 9.928a2.011 2.011 0 0 0 1.984 1.681 2.012 2.012 0 0 0 1.962-1.566l2.4-10.572.208-.331a16.791 16.791 0 0 0 2.551-8.9 7.324 7.324 0 0 0-7.323-7.324z" class="cls-5" data-name="패스 3597"/>
                <path id="패스_3598" d="M1161.36 251.381c-3.249 11.043-12.039 16.036-16.787 17.986l2.02 8.887a2.012 2.012 0 0 0 3.946-.115l1.656-9.928a1.954 1.954 0 0 1 3.854 0l1.655 9.928a2.013 2.013 0 0 0 3.947.115l2.4-10.572.208-.331a16.788 16.788 0 0 0 2.551-8.9 7.321 7.321 0 0 0-5.45-7.07z" class="cls-6" data-name="패스 3598"/>
                <g id="그룹_3199" data-name="그룹 3199">
                    <path id="패스_3599" d="M1144.742 258.3h-1.1a4.256 4.256 0 0 1 3.2-4.4l.216 1.081-.106-.54.11.54a3.15 3.15 0 0 0-2.32 3.319z" class="cls-7" data-name="패스 3599"/>
                    <path id="사각형_2982" d="M0 0h1.103v1.103H0z" class="cls-7" data-name="사각형 2982" transform="translate(1148.052 253.889)"/>
                </g>
            </g>
        </g>
        <path id="사각형_2983" d="M0 0h50v50H0z" class="cls-8" data-name="사각형 2983" transform="translate(1129.119 244.11)"/>
        <path id="패스_3600" d="M1171.521 254.52l.624 4.642-3.381-.462.436 3.386" class="cls-9" data-name="패스 3600"/>
        <path id="패스_3601" d="M1135.466 257.273l2.57 1.268-1.389 1.559 1.868.935" class="cls-9" data-name="패스 3601"/>
    </g>
</svg>
