<svg xmlns="http://www.w3.org/2000/svg" width="50" height="50" viewBox="0 0 50 50">
    <defs>
        <style>
            .prefix__cls-4{fill:#e09a1e;opacity:.2}.prefix__cls-5{fill:#fcb01a}.prefix__cls-6{fill:none;stroke:#fee1af;stroke-linecap:round;stroke-miterlimit:10;stroke-width:.25px}
        </style>
    </defs>
    <g id="prefix__그룹_3473" data-name="그룹 3473" transform="translate(-132.539 -393.584)">
        <g id="prefix__그룹_3472" data-name="그룹 3472">
            <path id="prefix__패스_4083" d="M174.052 414.253a4.48 4.48 0 01-.71 2.375c-1.816-3.549-8.312-6.172-16.046-6.172-7.473 0-13.8 2.453-15.846 5.819a4.281 4.281 0 01-.511-2.022c0-4.528 7.413-8.194 16.556-8.194s16.557 3.666 16.557 8.194z" data-name="패스 4083" style="fill:#e79e0d"/>
            <g id="prefix__그룹_3467" data-name="그룹 3467">
                <path id="prefix__패스_4084" d="M174.849 433.436a1.119 1.119 0 01-.911 1.716h-2.95a9.447 9.447 0 01-.41-.922 4.448 4.448 0 01-.205-.491.107.107 0 01-.034-.082c-.114-.28-.216-.56-.319-.841-.023-.081-.057-.151-.08-.221-.034-.117-.079-.234-.1-.351-.057-.187-.125-.385-.171-.572a3.55 3.55 0 01-.125-.467c-.012-.047-.034-.1-.046-.152v-.012c-.091-.315-.171-.642-.239-.969-.046-.187-.08-.374-.114-.573-.057-.257-.114-.525-.159-.806s-.091-.584-.137-.876c-.1-.677-.182-1.39-.262-2.114 0-.035-.011-.07-.011-.105-.034-.4-.069-.806-.091-1.215-.023-.292-.046-.6-.057-.911a2.46 2.46 0 01-.012-.3c-.034-.678-.057-1.355-.079-2.068-.012-.806-.023-1.646-.023-2.511v-.175c0-.479 0-.946.011-1.413.012-.771.034-1.53.057-2.266.012-.386.034-.771.057-1.157q.086-1.664.273-3.188a32.085 32.085 0 01.752-4.182q.188-.719.41-1.4a20.466 20.466 0 011.116-2.792h2.95a1.12 1.12 0 01.911 1.717c-1.822 3.084-2.529 6.716-2.745 11.2v.012c-.057 1.156-.08 2.371-.08 3.644 0 .549 0 1.075.023 1.6a49.619 49.619 0 00.319 5.268c.023.187.057.385.08.572a23.419 23.419 0 00.854 3.878c.057.2.114.386.182.572a16.935 16.935 0 001.365 2.953z" data-name="패스 4084" style="fill:#f2d3bf"/>
                <path id="prefix__패스_4085" d="M170.578 434.23a9.447 9.447 0 00.41.922H141.06a1.118 1.118 0 01-.911-1.716 17.781 17.781 0 001.594-3.656 26.63 26.63 0 00.9-4.427c.182-1.542.273-3.2.307-4.987.023-.573.023-1.168.023-1.776 0-1.261-.023-2.453-.08-3.6-.205-4.509-.922-8.165-2.744-11.26a1.119 1.119 0 01.911-1.717h29.928c-2.13 4.322-2.665 9.578-2.676 16.4v.175c0 1.612.023 3.13.1 4.579a2.46 2.46 0 00.012.3c.011.316.034.619.057.911.022.409.057.818.091 1.215 0 .035.011.07.011.105.068.724.16 1.425.262 2.114.046.292.091.6.137.876s.1.549.159.806c.034.2.068.386.114.573.068.327.148.654.239.969a.44.44 0 00.046.164 3.55 3.55 0 00.125.467c.1.385.228.771.353 1.144.1.281.205.561.319.841a.107.107 0 00.034.082 4.448 4.448 0 00.207.496z" data-name="패스 4085" style="fill:#faddc7"/>
            </g>
            <path id="prefix__패스_4086" d="M173.3 429.908c-1.2-.082-2.585-.222-4.043-.4-.034 0-.08-.012-.114-.012-3.952-.49-8.472-2.219-11.467-2.861a.649.649 0 00-.137-.024c-.718-.163-1.453.187-1.931.059a31.148 31.148 0 01-5.7-1.729c-.25-.128-.5-.257-.751-.4a21.21 21.21 0 01-6.195-4.73l-.012-.012c.023-.479.023-.981.023-1.495v-.28c0-1.262-.023-2.453-.08-3.6 2.221 3.294 7.255 6.646 13.359 8.316.33.094.717.187 1.15.292.08.024.159.035.239.059 2.061.467 5.091 1.039 8.188 1.53a.072.072 0 01.046.011c.9.141 1.776.269 2.653.386a.067.067 0 00.046.012c1.344.186 2.63.327 3.792.42.023.187.057.385.08.572a23.419 23.419 0 00.854 3.886z" class="prefix__cls-4" data-name="패스 4086"/>
            <path id="prefix__패스_4087" d="M157.539 426.614a68.96 68.96 0 01-15.8 3.166 26.63 26.63 0 00.9-4.427c1.9-.152 4.179-.432 6.514-.806.25.14.5.269.751.4" class="prefix__cls-4" data-name="패스 4087"/>
            <path id="prefix__패스_4088" d="M172.024 418.59c0 .549 0 1.075.023 1.6a14.74 14.74 0 01-3.633 2.979c-1.761.969-3.115.654-3.9 1.063-.1.058-.216.116-.319.175a.064.064 0 00-.045-.012c-3.1-.49-4.447-.829-6.508-1.3-.08-.024-.159-.035-.239-.059.148-.023.3-.058.444-.093.034-.012.068-.012.1-.024.49-.116.923-.233 1.287-.327a29.357 29.357 0 009.077-4.181 17.646 17.646 0 003.792-3.469c-.056 1.158-.079 2.375-.079 3.648z" class="prefix__cls-4" data-name="패스 4088"/>
            <g id="prefix__그룹_3469" data-name="그룹 3469">
                <path id="prefix__패스_4089" d="M149.91 424a30.888 30.888 0 005.648 2.137c.547.152 1.276.328 2.118.5 5.3 1.144 15.409 2.686 18.586 2.347a.722.722 0 00.319-.1.993.993 0 00.478-.677l.262-2.278v-.029a1.014 1.014 0 00-.956-1.285 54.3 54.3 0 01-10.535-.934c-3.1-.491-6.127-1.063-8.188-1.53-.535-.129-1-.246-1.389-.351-7.266-1.985-13.017-6.365-14.327-10.185a4.054 4.054 0 00-.615.958 2.806 2.806 0 00-.125.327 2.911 2.911 0 00-.159.537c-.718 3.413 3.04 7.676 8.883 10.563z" class="prefix__cls-5" data-name="패스 4089"/>
                <g id="prefix__그룹_3468" data-name="그룹 3468">
                    <path id="prefix__선_671" d="M0 0L0 1.88" class="prefix__cls-6" data-name="선 671" transform="translate(174.144 425.844)"/>
                    <path id="prefix__선_672" d="M0 0L0 1.799" class="prefix__cls-6" data-name="선 672" transform="translate(175.829 425.925)"/>
                    <path id="prefix__선_673" d="M0 0L0 1.74" class="prefix__cls-6" data-name="선 673" transform="translate(171.934 425.633)"/>
                    <path id="prefix__선_674" d="M0 0L0 1.647" class="prefix__cls-6" data-name="선 674" transform="translate(169.737 425.376)"/>
                    <path id="prefix__선_675" d="M0 0L0 1.6" class="prefix__cls-6" data-name="선 675" transform="translate(167.539 425.073)"/>
                    <path id="prefix__선_676" d="M0 0L0 1.577" class="prefix__cls-6" data-name="선 676" transform="translate(165.341 424.746)"/>
                    <path id="prefix__선_677" d="M0 0L0 1.6" class="prefix__cls-6" data-name="선 677" transform="translate(163.131 424.372)"/>
                    <path id="prefix__선_678" d="M0 0L0 1.635" class="prefix__cls-6" data-name="선 678" transform="translate(160.933 423.986)"/>
                    <path id="prefix__선_679" d="M0 0L0 1.729" class="prefix__cls-6" data-name="선 679" transform="translate(158.735 423.543)"/>
                    <path id="prefix__선_680" d="M0 0L0 1.869" class="prefix__cls-6" data-name="선 680" transform="translate(156.538 423.052)"/>
                    <path id="prefix__선_681" d="M0 0L0 1.752" class="prefix__cls-6" data-name="선 681" transform="translate(154.328 422.386)"/>
                    <path id="prefix__선_682" d="M0 0L0 1.951" class="prefix__cls-6" data-name="선 682" transform="translate(152.13 421.569)"/>
                    <path id="prefix__선_683" d="M0 0L0 1.612" class="prefix__cls-6" data-name="선 683" transform="translate(149.932 420.564)"/>
                    <path id="prefix__선_684" d="M0 0L0 1.81" class="prefix__cls-6" data-name="선 684" transform="translate(147.734 419.314)"/>
                    <path id="prefix__선_685" d="M0 0L0 1.951" class="prefix__cls-6" data-name="선 685" transform="translate(145.525 417.773)"/>
                    <path id="prefix__선_686" d="M0 0L0 2.254" class="prefix__cls-6" data-name="선 686" transform="translate(143.327 415.717)"/>
                    <path id="prefix__패스_4090" d="M141.311 412.575a7.769 7.769 0 00.513 1.075 10.92 10.92 0 001.5 2.067 16.669 16.669 0 002.2 2.056 21.983 21.983 0 002.209 1.541 24.982 24.982 0 002.2 1.25c.1.047.2.105.308.152.615.3 1.241.6 1.89.853a22.55 22.55 0 002.2.817c.581.21 1.173.386 1.777.549.136.035.273.07.433.117.489.128 1.093.269 1.765.4.136.035.284.058.432.094.672.14 1.413.292 2.2.443.7.129 1.435.257 2.2.386.729.128 1.458.245 2.21.374.728.116 1.469.221 2.2.327s1.48.21 2.2.3c.751.094 1.491.187 2.2.257.786.082 1.526.152 2.21.21.6.036 1.173.071 1.685.082a12.007 12.007 0 001.492-.023" class="prefix__cls-6" data-name="패스 4090"/>
                    <path id="prefix__선_687" d="M0 0L0 2.161" class="prefix__cls-6" data-name="선 687" transform="translate(141.824 413.65)"/>
                </g>
            </g>
            <path id="prefix__패스_4091" d="M165.83 423.683a24.777 24.777 0 01-6.31 3.293c-1.2-.221-2.3-.432-3.245-.642a.544.544 0 00-.137-.023c.786-.175 1.469-.339 1.982-.479a30.966 30.966 0 005.648-2.138c.205-.105.41-.21.615-.327a.067.067 0 00.046.012c.649.105.771.21 1.401.304z" data-name="패스 4091" style="fill:#e09612;opacity:.5"/>
            <path id="prefix__패스_4092" d="M156.253 416.844a15.126 15.126 0 01.976 4.725 12.177 12.177 0 01-.976 4.724 25.5 25.5 0 00.544-4.63c-.084-1.863-.544-4.819-.544-4.819z" data-name="패스 4092" style="fill:#f7bc94"/>
            <g id="prefix__그룹_3471" data-name="그룹 3471">
                <path id="prefix__패스_4093" d="M165.784 423.671c-.205.117-.41.222-.615.327a30.927 30.927 0 01-5.649 2.137c-.512.141-1.2.3-1.981.479a.54.54 0 00-.137.024c-5.3 1.144-15.409 2.686-18.586 2.347a.722.722 0 01-.319-.1.993.993 0 01-.478-.677l-.262-2.278v-.03a1.014 1.014 0 01.957-1.285 54.287 54.287 0 0010.534-.934.064.064 0 00.045-.012c3.087-.479 6.093-1.051 8.143-1.518.034-.012.068-.012.1-.024.489-.117.922-.233 1.286-.327 7.266-1.985 13.017-6.365 14.327-10.185a4.055 4.055 0 01.615.958 2.806 2.806 0 01.125.327 2.992 2.992 0 01.16.537c.697 3.296-2.776 7.372-8.265 10.234z" class="prefix__cls-5" data-name="패스 4093"/>
                <g id="prefix__그룹_3470" data-name="그룹 3470">
                    <path id="prefix__선_688" d="M0 1.88L0 0" class="prefix__cls-6" data-name="선 688" transform="translate(140.934 425.844)"/>
                    <path id="prefix__선_689" d="M0 1.799L0 0" class="prefix__cls-6" data-name="선 689" transform="translate(139.249 425.925)"/>
                    <path id="prefix__선_690" d="M0 1.74L0 0" class="prefix__cls-6" data-name="선 690" transform="translate(143.144 425.633)"/>
                    <path id="prefix__선_691" d="M0 1.647L0 0" class="prefix__cls-6" data-name="선 691" transform="translate(145.342 425.376)"/>
                    <path id="prefix__선_692" d="M0 1.6L0 0" class="prefix__cls-6" data-name="선 692" transform="translate(147.54 425.073)"/>
                    <path id="prefix__선_693" d="M0 1.577L0 0" class="prefix__cls-6" data-name="선 693" transform="translate(149.738 424.746)"/>
                    <path id="prefix__선_694" d="M0 1.6L0 0" class="prefix__cls-6" data-name="선 694" transform="translate(151.947 424.372)"/>
                    <path id="prefix__선_695" d="M0 1.635L0 0" class="prefix__cls-6" data-name="선 695" transform="translate(154.145 423.986)"/>
                    <path id="prefix__선_696" d="M0 1.729L0 0" class="prefix__cls-6" data-name="선 696" transform="translate(156.343 423.543)"/>
                    <path id="prefix__선_697" d="M0 1.869L0 0" class="prefix__cls-6" data-name="선 697" transform="translate(158.541 423.052)"/>
                    <path id="prefix__선_698" d="M0 1.752L0 0" class="prefix__cls-6" data-name="선 698" transform="translate(160.75 422.386)"/>
                    <path id="prefix__선_699" d="M0 1.951L0 0" class="prefix__cls-6" data-name="선 699" transform="translate(162.948 421.569)"/>
                    <path id="prefix__선_700" d="M0 1.612L0 0" class="prefix__cls-6" data-name="선 700" transform="translate(165.146 420.564)"/>
                    <path id="prefix__선_701" d="M0 1.81L0 0" class="prefix__cls-6" data-name="선 701" transform="translate(167.344 419.314)"/>
                    <path id="prefix__선_702" d="M0 1.951L0 0" class="prefix__cls-6" data-name="선 702" transform="translate(169.553 417.773)"/>
                    <path id="prefix__선_703" d="M0 2.254L0 0" class="prefix__cls-6" data-name="선 703" transform="translate(171.751 415.717)"/>
                    <path id="prefix__패스_4094" d="M173.767 412.575a7.769 7.769 0 01-.513 1.075 10.92 10.92 0 01-1.5 2.067 16.668 16.668 0 01-2.2 2.056 21.98 21.98 0 01-2.209 1.541 24.837 24.837 0 01-2.2 1.25c-.1.047-.205.105-.308.152-.615.3-1.241.6-1.89.853a22.455 22.455 0 01-2.2.817c-.581.21-1.173.386-1.777.549-.136.035-.273.07-.432.117-.49.128-1.094.269-1.765.4-.137.035-.285.058-.433.094-.672.14-1.412.292-2.2.443-.7.129-1.435.257-2.2.386-.729.128-1.458.245-2.21.374-.728.116-1.469.221-2.2.327s-1.481.21-2.2.3c-.752.094-1.492.187-2.2.257-.786.082-1.526.152-2.21.21-.6.036-1.173.071-1.685.082a12.011 12.011 0 01-1.492-.023" class="prefix__cls-6" data-name="패스 4094"/>
                    <path id="prefix__선_704" d="M0 2.161L0 0" class="prefix__cls-6" data-name="선 704" transform="translate(173.254 413.65)"/>
                </g>
            </g>
        </g>
        <path id="prefix__사각형_3092" d="M0 0H50V50H0z" data-name="사각형 3092" transform="translate(132.539 393.584)" style="fill:none"/>
    </g>
</svg>
