<svg xmlns="http://www.w3.org/2000/svg" width="50" height="50" viewBox="0 0 50 50">
    <defs>
        <style>
            .cls-1{fill:#fae4d2}.cls-2{fill:#f8d0b2}.cls-3{fill:#64b2e2}.cls-4{fill:#68b4e4}.cls-5{fill:none}
        </style>
    </defs>
    <g id="그룹_3273" data-name="그룹 3273" transform="translate(-186.57 -.93)">
        <g id="그룹_3272" data-name="그룹 3272">
            <g id="그룹_3266" data-name="그룹 3266">
                <path id="패스_3733" d="M224.09 8.01v.07a2.9 2.9 0 0 1-2.77 3.03h-.01a2.615 2.615 0 0 1-1.35-.38h-.01a3.111 3.111 0 0 1-1.41-2.65v-.07z" class="cls-1" data-name="패스 3733"/>
                <g id="그룹_3265" data-name="그룹 3265">
                    <path id="패스_3734" d="M215.76 14.95v3.39a6.935 6.935 0 0 1-1.13.55v-2.7a9.373 9.373 0 0 1-8.47.57v-1.81a9.629 9.629 0 0 0 4.8 1.31 9.7 9.7 0 0 0 4.8-1.31z" class="cls-1" data-name="패스 3734"/>
                    <g id="그룹_3263" data-name="그룹 3263">
                        <path id="패스_3735" d="M232.35 32.26v11.6h-1.13V33.51a5.878 5.878 0 0 0-3.78-5.63l-7.56-2.56c-3.27-1.26-5.27-2.6-5.27-5.77v-.65c.01 0 .02-.01.03-.01a8.111 8.111 0 0 0 1.11-.54v.01a2.009 2.009 0 0 0 .01.25c.12 2.95 2.1 4.26 5.27 5.48l7.55 2.56a5.805 5.805 0 0 1 3.77 5.61z" class="cls-2" data-name="패스 3735"/>
                        <path id="패스_3736" d="M231.22 33.51v10.35h-40.43V32.1a6.256 6.256 0 0 1 1.06-3.5 5.331 5.331 0 0 1 2.54-2.05l6.46-2.47a11.367 11.367 0 0 0 3.37-1.74 4.921 4.921 0 0 0 1.9-4.04v-1.53a9.176 9.176 0 0 0 2.25.63 8.449 8.449 0 0 0 1.43.11 9.044 9.044 0 0 0 1.89-.2 9.547 9.547 0 0 0 2.91-1.12v3.35c0 3.17 2 4.51 5.27 5.77l7.56 2.56a5.876 5.876 0 0 1 3.79 5.64z" class="cls-1" data-name="패스 3736"/>
                        <g id="그룹_3261" data-name="그룹 3261">
                            <path id="패스_3737" d="M209.49 34.44a.9.9 0 0 1-.86-.88 1.263 1.263 0 0 0-.98-1.19c-1.56-.3-6.86-1.15-6.92-1.16a.941.941 0 0 1-.73-1.07.878.878 0 0 1 .98-.8c.22.04 5.38.86 6.97 1.17a3.132 3.132 0 0 1 2.4 2.93.915.915 0 0 1-.81 1z" class="cls-2" data-name="패스 3737"/>
                        </g>
                        <g id="그룹_3262" data-name="그룹 3262">
                            <path id="패스_3738" d="M212.38 34.44h-.05a.915.915 0 0 1-.81-1 3.124 3.124 0 0 1 2.4-2.93c1.59-.31 6.75-1.13 6.97-1.17a.889.889 0 0 1 .98.8.93.93 0 0 1-.73 1.07c-.05.01-5.35.85-6.92 1.16a1.294 1.294 0 0 0-.98 1.18.907.907 0 0 1-.86.89z" class="cls-2" data-name="패스 3738"/>
                        </g>
                    </g>
                    <g id="그룹_3264" data-name="그룹 3264">
                        <path id="패스_3739" d="M221.86 8.01a15.576 15.576 0 0 1-.55 3.1 12.417 12.417 0 0 1-5.22 7.28c-.08.05-.15.1-.23.14a.746.746 0 0 0-.12.07 6.92 6.92 0 0 1-1.03.49c-.04.01-.07.03-.11.04a8.573 8.573 0 0 1-3.03.56 7.645 7.645 0 0 1-1.26-.1 9.546 9.546 0 0 0 4.11-1.37 1.876 1.876 0 0 0 .18-.12c.01 0 .02-.01.03-.01v-.01a9.923 9.923 0 0 0 1.13-.83 2.84 2.84 0 0 0 .26-.24 7.261 7.261 0 0 0 .79-.78 10.765 10.765 0 0 0 .86-1.02c.13-.16.25-.34.37-.51.13-.19.25-.37.37-.57l.24-.39c.27-.48.52-.99.75-1.51.12-.27.23-.55.33-.82a.145.145 0 0 0 .02-.07c.08-.2.15-.41.21-.61l.09-.3c.08-.26.15-.53.22-.79.04-.16.07-.32.11-.48.02-.11.05-.23.07-.34.03-.19.07-.37.1-.56l.03-.25h1.28z" class="cls-2" data-name="패스 3739"/>
                        <path id="패스_3740" d="M220.58 8.01c-.01.09-.02.18-.03.25-.03.19-.07.37-.1.56-.02.11-.05.23-.07.34-.04.16-.07.32-.11.48-.07.26-.14.53-.22.79-.03.1-.06.2-.1.3a3.96 3.96 0 0 1-.2.61.254.254 0 0 1-.02.07c-.1.27-.21.55-.33.82a16.325 16.325 0 0 1-.75 1.51l-.24.39c-.12.2-.24.38-.37.57a4.744 4.744 0 0 1-.37.51 10.765 10.765 0 0 1-.86 1.02 8.3 8.3 0 0 1-.79.78 2.84 2.84 0 0 1-.26.24 8.847 8.847 0 0 1-1.13.83v.01c-.01 0-.02.01-.03.01a1.876 1.876 0 0 1-.18.12 9.546 9.546 0 0 1-4.11 1.37 8.679 8.679 0 0 1-3.26-1.2 8.471 8.471 0 0 1-.92-.65 12.834 12.834 0 0 1-4.29-6.64 15.576 15.576 0 0 1-.55-3.1h19.29z" class="cls-1" data-name="패스 3740"/>
                    </g>
                </g>
                <path id="패스_3741" d="M204.66 8.01v.07a2.9 2.9 0 0 1-2.77 3.03h-.05a2.917 2.917 0 0 1-2.72-3.03v-.07z" class="cls-1" data-name="패스 3741"/>
            </g>
            <g id="그룹_3267" data-name="그룹 3267">
                <path id="패스_3742" d="M215.76 21.14v4.32h-.01a1.694 1.694 0 0 1-1.68-1.7c.01-.87 1.53-2.45 1.69-2.62z" class="cls-3" data-name="패스 3742"/>
                <path id="패스_3743" d="M217.45 23.79a1.686 1.686 0 0 1-1.69 1.68v-4.32l.01-.01s1.69 1.72 1.68 2.65z" class="cls-4" data-name="패스 3743"/>
            </g>
            <g id="그룹_3268" data-name="그룹 3268">
                <path id="패스_3744" d="M200.69 12.27v3.07h-.01a1.127 1.127 0 0 1-1.04-1.2c.01-.63.95-1.75 1.05-1.87z" class="cls-3" data-name="패스 3744"/>
                <path id="패스_3745" d="M201.74 14.15a1.124 1.124 0 0 1-1.04 1.19v-3.07l.01-.01s1.03 1.23 1.03 1.89z" class="cls-4" data-name="패스 3745"/>
            </g>
            <g id="그룹_3269" data-name="그룹 3269">
                <path id="패스_3746" d="M213.76 10.69v3.8h-.01a1.47 1.47 0 0 1-1.47-1.49c0-.78 1.34-2.17 1.48-2.31z" class="cls-3" data-name="패스 3746"/>
                <path id="패스_3747" d="M215.24 13.01a1.475 1.475 0 0 1-1.48 1.47v-3.8l.01-.01s1.48 1.52 1.47 2.34z" class="cls-4" data-name="패스 3747"/>
            </g>
            <g id="그룹_3270" data-name="그룹 3270">
                <path id="패스_3748" d="M221.87 12.63v2.71h-.01a1.058 1.058 0 0 1-1.05-1.06c.01-.55.96-1.54 1.06-1.65z" class="cls-3" data-name="패스 3748"/>
                <path id="패스_3749" d="M222.93 14.29a1.052 1.052 0 0 1-1.06 1.05v-2.71l.01-.01s1.05 1.09 1.05 1.67z" class="cls-4" data-name="패스 3749"/>
            </g>
            <path id="패스_3750" d="M203.21 27.26a.491.491 0 0 1-.49-.49v-.82a.491.491 0 0 1 .49-.49.491.491 0 0 1 .49.49v.82a.485.485 0 0 1-.49.49z" class="cls-4" data-name="패스 3750"/>
            <path id="패스_3751" d="M210.85 28.14a.491.491 0 0 1-.49-.49v-.82a.491.491 0 0 1 .49-.49.491.491 0 0 1 .49.49v.82a.491.491 0 0 1-.49.49z" class="cls-4" data-name="패스 3751"/>
            <path id="패스_3752" d="M217.77 35.89a.491.491 0 0 1-.49-.49v-.82a.491.491 0 0 1 .49-.49.491.491 0 0 1 .49.49v.82a.491.491 0 0 1-.49.49z" class="cls-4" data-name="패스 3752"/>
            <path id="패스_3753" d="M226.26 34.18a.491.491 0 0 1-.49-.49v-1.64a.491.491 0 0 1 .49-.49.491.491 0 0 1 .49.49v1.64a.491.491 0 0 1-.49.49z" class="cls-4" data-name="패스 3753"/>
            <path id="패스_3754" d="M204.17 36.39a.491.491 0 0 1-.49-.49v-.82a.491.491 0 0 1 .49-.49.491.491 0 0 1 .49.49v.82a.491.491 0 0 1-.49.49z" class="cls-4" data-name="패스 3754"/>
            <path id="패스_3755" d="M210.94 39.08a.491.491 0 0 1-.49-.49v-.82a.491.491 0 0 1 .49-.49.491.491 0 0 1 .49.49v.82a.491.491 0 0 1-.49.49z" class="cls-4" data-name="패스 3755"/>
            <path id="패스_3756" d="M197.87 40.21a.491.491 0 0 1-.49-.49v-.82a.491.491 0 0 1 .49-.49.491.491 0 0 1 .49.49v.82a.491.491 0 0 1-.49.49z" class="cls-4" data-name="패스 3756"/>
            <path id="패스_3757" d="M218.64 41.11a.491.491 0 0 1-.49-.49v-.82a.491.491 0 0 1 .49-.49.491.491 0 0 1 .49.49v.82a.5.5 0 0 1-.49.49z" class="cls-4" data-name="패스 3757"/>
            <path id="패스_3758" d="M222.4 37.29a.491.491 0 0 1-.49-.49v-.82a.491.491 0 0 1 .49-.49.491.491 0 0 1 .49.49v.82a.491.491 0 0 1-.49.49z" class="cls-4" data-name="패스 3758"/>
            <path id="패스_3759" d="M205.18 41.11a.491.491 0 0 1-.49-.49v-.82a.491.491 0 0 1 .49-.49.491.491 0 0 1 .49.49v.82a.491.491 0 0 1-.49.49z" class="cls-4" data-name="패스 3759"/>
            <g id="그룹_3271" data-name="그룹 3271">
                <path id="패스_3760" d="M205.67 17.43v4.34h-.01a1.6 1.6 0 0 1-1.46-1.7c0-.88 1.33-2.47 1.47-2.64z" class="cls-3" data-name="패스 3760"/>
                <path id="패스_3761" d="M207.14 20.09a1.585 1.585 0 0 1-1.47 1.68v-4.34l.01-.01s1.46 1.74 1.46 2.67z" class="cls-4" data-name="패스 3761"/>
            </g>
            <path id="패스_3762" d="M196.06 35.4a.491.491 0 0 1-.49-.49v-1.64a.491.491 0 0 1 .49-.49.491.491 0 0 1 .49.49v1.64a.491.491 0 0 1-.49.49z" class="cls-4" data-name="패스 3762"/>
        </g>
        <path id="사각형_3005" d="M0 0h50v50H0z" class="cls-5" data-name="사각형 3005" transform="translate(186.57 .93)"/>
    </g>
</svg>
