<svg xmlns="http://www.w3.org/2000/svg" width="50" height="50" viewBox="0 0 50 50">
    <defs>
        <style>
            .cls-1{fill:#fae4d2}.cls-2{fill:#f8d0b2}.cls-3{fill:#64b2e2}.cls-4{fill:#68b4e4}.cls-5{fill:none}
        </style>
    </defs>
    <g id="그룹_3273" data-name="그룹 3273" transform="translate(-186.57 -.93)">
        <g id="그룹_3272" data-name="그룹 3272">
            <g id="그룹_3266" data-name="그룹 3266">
                <path id="패스_3733" d="M224.09 8.01v.07a2.9 2.9 0 0 1-2.77 3.03h-.01a2.615 2.615 0 0 1-1.35-.38h-.01a3.111 3.111 0 0 1-1.41-2.65v-.07z" class="cls-1" data-name="패스 3733"/>
                <g id="그룹_3265" data-name="그룹 3265">
                    <path id="패스_3734" d="M215.76 14.95v3.39a6.935 6.935 0 0 1-1.13.55v-2.7a9.373 9.373 0 0 1-8.47.57v-1.81a9.629 9.629 0 0 0 4.8 1.31 9.7 9.7 0 0 0 4.8-1.31z" class="cls-1" data-name="패스 3734"/>
                    <g id="그룹_3263" data-name="그룹 3263">
                        <path id="패스_3735" d="M232.35 32.26v11.6h-1.13V33.51a5.878 5.878 0 0 0-3.78-5.63l-7.56-2.56c-3.27-1.26-5.27-2.6-5.27-5.77v-.65c.01 0 .02-.01.03-.01a8.111 8.111 0 0 0 1.11-.54v.01a2.009 2.009 0 0 0 .01.25c.12 2.95 2.1 4.26 5.27 5.48l7.55 2.56a5.805 5.805 0 0 1 3.77 5.61z" class="cls-2" data-name="패스 3735"/>
                        <path id="패스_3736" d="M231.22 33.51v10.35h-40.43V32.1a6.256 6.256 0 0 1 1.06-3.5 5.331 5.331 0 0 1 2.54-2.05l6.46-2.47a11.367 11.367 0 0 0 3.37-1.74 4.921 4.921 0 0 0 1.9-4.04v-1.53a9.176 9.176 0 0 0 2.25.63 8.449 8.449 0 0 0 1.43.11 9.044 9.044 0 0 0 1.89-.2 9.547 9.547 0 0 0 2.91-1.12v3.35c0 3.17 2 4.51 5.27 5.77l7.56 2.56a5.876 5.876 0 0 1 3.79 5.64z" class="cls-1" data-name="패스 3736"/>
                        <g id="그룹_3261" data-name="그룹 3261">
                            <path id="패스_3737" d="M209.49 34.44a.9.9 0 0 1-.86-.88 1.263 1.263 0 0 0-.98-1.19c-1.56-.3-6.86-1.15-6.92-1.16a.941.941 0 0 1-.73-1.07.878.878 0 0 1 .98-.8c.22.04 5.38.86 6.97 1.17a3.132 3.132 0 0 1 2.4 2.93.915.915 0 0 1-.81 1z" class="cls-2" data-name="패스 3737"/>
                        </g>
                        <g id="그룹_3262" data-name="그룹 3262">
                            <path id="패스_3738" d="M212.38 34.44h-.05a.915.915 0 0 1-.81-1 3.124 3.124 0 0 1 2.4-2.93c1.59-.31 6.75-1.13 6.97-1.17a.889.889 0 0 1 .98.8.93.93 0 0 1-.73 1.07c-.05.01-5.35.85-6.92 1.16a1.294 1.294 0 0 0-.98 1.18.907.907 0 0 1-.86.89z" class="cls-2" data-name="패스 3738"/>
                        </g>
                    </g>
                    <g id="그룹_3264" data-name="그룹 3264">
                        <path id="패스_3739" d="M221.86 8.01a15.576 15.576 0 0 1-.55 3.1 12.417 12.417 0 0 1-5.22 7.28c-.08.05-.15.1-.23.14a.746.746 0 0 0-.12.07 6.92 6.92 0 0 1-1.03.49c-.04.01-.07.03-.11.04a8.573 8.573 0 0 1-3.03.56 7.645 7.645 0 0 1-1.26-.1 9.546 9.546 0 0 0 4.11-1.37 1.876 1.876 0 0 0 .18-.12c.01 0 .02-.01.03-.01v-.01a9.923 9.923 0 0 0 1.13-.83 2.84 2.84 0 0 0 .26-.24 7.261 7.261 0 0 0 .79-.78 10.765 10.765 0 0 0 .86-1.02c.13-.16.25-.34.37-.51.13-.19.25-.37.37-.57l.24-.39c.27-.48.52-.99.75-1.51.12-.27.23-.55.33-.82a.145.145 0 0 0 .02-.07c.08-.2.15-.41.21-.61l.09-.3c.08-.26.15-.53.22-.79.04-.16.07-.32.11-.48.02-.11.05-.23.07-.34.03-.19.07-.37.1-.56l.03-.25h1.28z" class="cls-2" data-name="패스 3739"/>
                        <path id="패스_3740" d="M220.58 8.01c-.01.09-.02.18-.03.25-.03.19-.07.37-.1.56-.02.11-.05.23-.07.34-.04.16-.07.32-.11.48-.07.26-.14.53-.22.79-.03.1-.06.2-.1.3a3.96 3.96 0 0 1-.2.61.254.254 0 0 1-.02.07c-.1.27-.21.55-.33.82a16.325 16.325 0 0 1-.75 1.51l-.24.39c-.12.2-.24.38-.37.57a4.744 4.744 0 0 1-.37.51 10.765 10.765 0 0 1-.86 1.02 8.3 8.3 0 0 1-.79.78 2.84 2.84 0 0 1-.26.24 8.847 8.847 0 0 1-1.13.83v.01c-.01 0-.02.01-.03.01a1.876 1.876 0 0 1-.18.12 9.546 9.546 0 0 1-4.11 1.37 8.679 8.679 0 0 1-3.26-1.2 8.471 8.471 0 0 1-.92-.65 12.834 12.834 0 0 1-4.29-6.64 15.576 15.576 0 0 1-.55-3.1h19.29z" class="cls-1" data-name="패스 3740"/>
                    </g>
                </g>
                <path id="패스_3741" d="M204.66 8.01v.07a2.9 2.9 0 0 1-2.77 3.03h-.05a2.917 2.917 0 0 1-2.72-3.03v-.07z" class="cls-1" data-name="패스 3741"/>
            </g>
            <g id="그룹_3267" data-name="그룹 3267" transform="translate(-7.466 5.403)">
                <path id="패스_3742" d="M216.621 21.14v6.522h-.015a2.558 2.558 0 0 1-2.536-2.562c.015-1.318 2.31-3.7 2.551-3.96z" class="cls-3" data-name="패스 3742"/>
                <path id="패스_3743" d="M218.311 25.141a2.545 2.545 0 0 1-2.551 2.536v-6.522l.015-.015s2.552 2.597 2.536 4.001z" class="cls-4" data-name="패스 3743" transform="translate(.861)"/>
            </g>
            <g id="그룹_3268" data-name="그룹 3268" transform="translate(20.229 10.869)">
                <path id="패스_3744" d="M201.461 12.27v5.324h-.017a1.954 1.954 0 0 1-1.8-2.081c.013-1.093 1.643-3.035 1.817-3.243z" class="cls-3" data-name="패스 3744" transform="translate(0 .007)"/>
                <path id="패스_3745" d="M202.5 15.538a1.949 1.949 0 0 1-1.8 2.064v-5.325l.017-.017s1.783 2.133 1.783 3.278z" class="cls-4" data-name="패스 3745" transform="translate(.778)"/>
            </g>
            <g id="그룹_3269" data-name="그룹 3269" transform="translate(11.667 27.57)">
                <path id="패스_3746" d="M214.093 10.69v4.656h-.012a1.8 1.8 0 0 1-1.8-1.825c-.001-.957 1.641-2.659 1.812-2.831z" class="cls-3" data-name="패스 3746" transform="translate(0 .005)"/>
                <path id="패스_3747" d="M215.573 13.537a1.806 1.806 0 0 1-1.813 1.8v-4.655l.012-.012s1.813 1.862 1.801 2.867z" class="cls-4" data-name="패스 3747" transform="translate(.333)"/>
            </g>
            <g id="그룹_3270" data-name="그룹 3270" transform="translate(-11.281 .64)">
                <path id="패스_3748" d="M222.151 12.63v3.427h-.013a1.339 1.339 0 0 1-1.328-1.341c.013-.695 1.214-1.947 1.341-2.086z" class="cls-3" data-name="패스 3748" transform="translate(0 .003)"/>
                <path id="패스_3749" d="M223.211 14.732a1.331 1.331 0 0 1-1.341 1.328v-3.427l.013-.013s1.328 1.38 1.328 2.112z" class="cls-4" data-name="패스 3749" transform="translate(.281)"/>
            </g>
            <path id="패스_3750" d="M203.21 27.26a.491.491 0 0 1-.49-.49v-.82a.491.491 0 0 1 .49-.49.491.491 0 0 1 .49.49v.82a.485.485 0 0 1-.49.49z" class="cls-4" data-name="패스 3750" transform="translate(0 2)"/>
            <path id="패스_3751" d="M210.85 28.14a.491.491 0 0 1-.49-.49v-.82a.491.491 0 0 1 .49-.49.491.491 0 0 1 .49.49v.82a.491.491 0 0 1-.49.49z" class="cls-4" data-name="패스 3751" transform="translate(-17 12)"/>
            <g id="그룹_3271" data-name="그룹 3271" transform="translate(-9.6 10.112)">
                <path id="패스_3760" d="M206.27 17.43v6.112h-.014a2.248 2.248 0 0 1-2.056-2.394c0-1.239 1.873-3.479 2.07-3.718z" class="cls-3" data-name="패스 3760" transform="translate(0 .004)"/>
                <path id="패스_3761" d="M207.74 21.18a2.233 2.233 0 0 1-2.07 2.366v-6.112l.014-.014s2.056 2.45 2.056 3.76z" class="cls-4" data-name="패스 3761" transform="translate(.6)"/>
            </g>
            <path id="패스_3835" d="M210.85 28.14a.491.491 0 0 1-.49-.49v-.82a.491.491 0 0 1 .49-.49.491.491 0 0 1 .49.49v.82a.491.491 0 0 1-.49.49z" class="cls-4" data-name="패스 3835" transform="translate(15 6)"/>
            <g id="그룹_3340" data-name="그룹 3340" transform="translate(-20.702 23.1)">
                <path id="패스_3748-2" d="M222.523 12.63v4.379h-.016a1.71 1.71 0 0 1-1.7-1.713c.019-.889 1.554-2.488 1.716-2.666z" class="cls-3" data-name="패스 3748" transform="translate(0 .006)"/>
                <path id="패스_3749-2" d="M223.583 15.318a1.7 1.7 0 0 1-1.713 1.7v-4.382l.016-.016s1.697 1.761 1.697 2.698z" class="cls-4" data-name="패스 3749" transform="translate(.653)"/>
            </g>
            <g id="그룹_3341" data-name="그룹 3341" transform="translate(-3.941 20.794)">
                <path id="패스_3748-3" d="M222.81 12.63v5.114h-.019a2 2 0 0 1-1.981-2c.019-1.038 1.812-2.906 2-3.114z" class="cls-3" data-name="패스 3748" transform="translate(0 .009)"/>
                <path id="패스_3749-3" d="M223.87 15.771a1.985 1.985 0 0 1-2 1.981v-5.113l.019-.019s1.981 2.057 1.981 3.151z" class="cls-4" data-name="패스 3749" transform="translate(.94)"/>
            </g>
            <path id="패스_3836" d="M210.85 28.14a.491.491 0 0 1-.49-.49v-.82a.491.491 0 0 1 .49-.49.491.491 0 0 1 .49.49v.82a.491.491 0 0 1-.49.49z" class="cls-4" data-name="패스 3836" transform="translate(0 12)"/>
            <g id="그룹_3342" data-name="그룹 3342" transform="translate(-4.281 3.64)">
                <path id="패스_3748-4" d="M222.151 12.63v3.427h-.013a1.339 1.339 0 0 1-1.328-1.341c.013-.695 1.214-1.947 1.341-2.086z" class="cls-3" data-name="패스 3748" transform="translate(0 .003)"/>
                <path id="패스_3749-4" d="M223.211 14.732a1.331 1.331 0 0 1-1.341 1.328v-3.427l.013-.013s1.328 1.38 1.328 2.112z" class="cls-4" data-name="패스 3749" transform="translate(.281)"/>
            </g>
            <path id="패스_3837" d="M203.21 27.26a.491.491 0 0 1-.49-.49v-.82a.491.491 0 0 1 .49-.49.491.491 0 0 1 .49.49v.82a.485.485 0 0 1-.49.49z" class="cls-4" data-name="패스 3837" transform="translate(10 -2)"/>
            <g id="그룹_3343" data-name="그룹 3343" transform="translate(-19.281 8.64)">
                <path id="패스_3748-5" d="M222.151 12.63v3.427h-.013a1.339 1.339 0 0 1-1.328-1.341c.013-.695 1.214-1.947 1.341-2.086z" class="cls-3" data-name="패스 3748" transform="translate(0 .003)"/>
                <path id="패스_3749-5" d="M223.211 14.732a1.331 1.331 0 0 1-1.341 1.328v-3.427l.013-.013s1.328 1.38 1.328 2.112z" class="cls-4" data-name="패스 3749" transform="translate(.281)"/>
            </g>
        </g>
        <path id="사각형_3005" d="M0 0h50v50H0z" class="cls-5" data-name="사각형 3005" transform="translate(186.57 .93)"/>
    </g>
</svg>
