<svg xmlns="http://www.w3.org/2000/svg" width="50" height="50" viewBox="0 0 50 50">
    <defs>
        <style>
            .prefix__cls-3{opacity:.4}.prefix__cls-4{fill:#981e19}.prefix__cls-4,.prefix__cls-7,.prefix__cls-9{opacity:.2}.prefix__cls-7{fill:#df003f}.prefix__cls-9{fill:#b00a3e}
        </style>
    </defs>
    <g id="prefix__그룹_3481" data-name="그룹 3481" transform="translate(-195.383 -393.584)">
        <g id="prefix__그룹_3480" data-name="그룹 3480">
            <path id="prefix__패스_4095" d="M235.71 409.07c-.29 1.24-.63 2.46-1.04 3.67-.23.67-.41 1.36-.58 2.04-.35 1.36-.81 2.68-1.13 4.05-.41 1.81-.93 3.54-1.2 5.42a23.782 23.782 0 01-.53 2.77c-.34 1.37-.79 2.7-1.23 4.06a10.118 10.118 0 01-.83 1.9 2.96 2.96 0 01-.26.42 2.715 2.715 0 01-.24.35c-.06.09-.13.18-.2.27l-.18.21c-.05.06-.1.12-.16.18a1.594 1.594 0 01-.13.13c-.01.01-.01.02-.02.02-.01.02-.03.03-.04.04s-.01.02-.02.02q-.015.03-.03.03c-.02.02-.03.04-.05.05 0 0-.01.01 0 .01a.265.265 0 00-.06.05l-.04.04a.176.176 0 00-.04.05h-.01a1.37 1.37 0 00-.27 1.01v3.66a1.425 1.425 0 01-1.42 1.42h-.47a1.43 1.43 0 001.41-1.45v-3.75c.01-.01 0-.01 0-.01v-.13a1.3 1.3 0 01.2-.79.035.035 0 01.01-.02l.01-.01a1.06 1.06 0 01.1-.12l.08-.08.09-.09a.645.645 0 00.08-.09.138.138 0 00.04-.03.175.175 0 00.04-.05c.02-.01.03-.03.04-.04l.03-.03c.05-.05.1-.12.15-.18s.12-.13.18-.2l.18-.24c.07-.1.14-.19.21-.29.07-.12.15-.25.22-.37.09-.15.17-.3.25-.45a10.66 10.66 0 00.69-1.67c.43-1.38.89-2.75 1.21-4.15a22.635 22.635 0 00.54-2.82c.26-1.93.78-3.71 1.2-5.55.32-1.4.78-2.75 1.13-4.15.17-.7.36-1.39.59-2.08.4-1.24.74-2.5 1.02-3.76a1.027 1.027 0 000-.55 1.231 1.231 0 01.48 1.28z" data-name="패스 4095" style="fill:#f2d3bf"/>
            <path id="prefix__패스_4096" d="M235.234 408.335c-.281 1.267-.628 2.523-1.029 3.769-.227.682-.411 1.375-.584 2.079-.347 1.4-.813 2.751-1.127 4.148-.422 1.841-.942 3.617-1.2 5.544a24.228 24.228 0 01-.541 2.827c-.325 1.4-.78 2.772-1.213 4.147a8.8 8.8 0 01-2.274 3.812 1.353 1.353 0 00-.325 1.083v3.747a1.428 1.428 0 01-1.408 1.451h-8.544a1.414 1.414 0 01-1.408-1.418V435.6a3.2 3.2 0 00-.011-.325 2.807 2.807 0 00-.206-.921 2.5 2.5 0 00-.368-.563 4.337 4.337 0 00-.39-.39c-.011-.011-.032-.021-.043-.032-.108-.087-.206-.174-.3-.26s-.195-.173-.293-.271a2.323 2.323 0 01-.216-.238c-.022-.011-.044-.033-.044-.043-.021-.011-.032-.033-.054-.044a.254.254 0 00-.043-.054.258.258 0 01-.054-.065.691.691 0 01-.087-.1.444.444 0 01-.087-.109.17.17 0 01-.065-.086.286.286 0 01-.075-.087.011.011 0 01-.011-.011 7.556 7.556 0 01-.91-1.473.037.037 0 01-.011-.032.238.238 0 01-.043-.108.265.265 0 01-.054-.109.322.322 0 01-.054-.13.4.4 0 01-.065-.14.2.2 0 01-.022-.076c-.022-.022-.032-.044-.022-.065a.1.1 0 01-.032-.076.152.152 0 01-.022-.065 1.909 1.909 0 01-.119-.346 3.188 3.188 0 01-.119-.423.9.9 0 01-.054-.184 3.139 3.139 0 00-.087-.3 5.5 5.5 0 00-.173-.607c-.076-.227-.152-.454-.238-.682-.1-.271-.206-.541-.3-.812-.152-.357-.293-.7-.434-1.061a36.423 36.423 0 00-4.1-7.722c-.314-.444-.671-.877-1-1.332a1.533 1.533 0 01.108-2.046 1.288 1.288 0 011.527-.488 6.662 6.662 0 013.292 2.209c.043.055.1.1.141.152a6.854 6.854 0 011.6 3.346 2.864 2.864 0 00.606 1.235 2.254 2.254 0 00.347.379.619.619 0 00.844-.011 5.616 5.616 0 001.484-2.664 18.382 18.382 0 00.325-7.375c-.206-2.025-.5-4.061-.6-6.108-.065-1.223-.249-2.425-.238-3.66a6.264 6.264 0 01.271-1.895 1.25 1.25 0 011.267-.9.94.94 0 01.812.4 2.123 2.123 0 01.26.433 22 22 0 011.386 6.27c.249 1.917.433 3.823.661 5.74.043.4.205.779.249 1.191a.5.5 0 01.021.119.57.57 0 00.628.52c.39-.033.564-.3.639-.693.314-1.874.444-3.769.618-5.664.173-1.765.184-3.552.444-5.306a12.629 12.629 0 01.974-4.462 1.239 1.239 0 011.419-.726.953.953 0 01.531.293 1.8 1.8 0 01.4.725 7.772 7.772 0 01.249 2.285 63.4 63.4 0 01-.747 10.819 15.985 15.985 0 00-.314 3.14v.011c.022.271-.022.607.368.628a.652.652 0 00.682-.552c.553-2.393 1.04-4.8 1.571-7.191.27-1.191.585-2.382.92-3.562.174-.639.444-1.235.617-1.874.282-.931 1-1.386 1.7-1.148a.542.542 0 01.2.1c.454.27.454.779.509 1.234a14.86 14.86 0 01-.206 3.379c-.184 1.538-.422 3.075-.736 4.592-.228 1.061-.39 2.111-.639 3.173-.228.92-.336 1.884-.564 2.815a.623.623 0 00-.01.141.562.562 0 00.314.52.683.683 0 00.834-.13 4.8 4.8 0 001.147-2.025c.553-1.549 1.083-3.108 1.636-4.646.4-1.094 1-1.495 1.819-1.4a1.018 1.018 0 01.5.206 1.15 1.15 0 01-.007.548z" data-name="패스 4096" style="fill:#faddc7"/>
            <g id="prefix__그룹_3475" class="prefix__cls-3" data-name="그룹 3475">
                <g id="prefix__그룹_3474" data-name="그룹 3474">
                    <path id="prefix__패스_4097" d="M213.749 432.6c-.022-.011-.044-.033-.044-.043-.021-.011-.032-.033-.054-.044a.254.254 0 00-.043-.054.258.258 0 01-.054-.065.691.691 0 01-.087-.1.444.444 0 01-.087-.109.17.17 0 01-.065-.086.286.286 0 01-.075-.087.011.011 0 01-.011-.011 7.556 7.556 0 01-.91-1.473.037.037 0 01-.011-.032.238.238 0 01-.043-.108.265.265 0 01-.054-.109.322.322 0 01-.054-.13.4.4 0 01-.065-.14.2.2 0 01-.022-.076c-.022-.022-.032-.044-.022-.065a.1.1 0 01-.032-.076.152.152 0 01-.022-.065 1.726 1.726 0 011.1-.4c.964 0 .725.563 1.31.942.612.396.07 1.75-.655 2.331z" class="prefix__cls-4" data-name="패스 4097"/>
                    <path id="prefix__패스_4098" d="M213.965 432.842a2.323 2.323 0 01-.216-.238c-.022-.011-.044-.033-.044-.043-.021-.011-.032-.033-.054-.044a.254.254 0 00-.043-.054.258.258 0 01-.054-.065.691.691 0 01-.087-.1.444.444 0 01-.087-.109.17.17 0 01-.065-.086.286.286 0 01-.075-.087.011.011 0 01-.011-.011 7.556 7.556 0 01-.91-1.473.037.037 0 01-.011-.032.238.238 0 01-.043-.108.265.265 0 01-.054-.109.322.322 0 01-.054-.13.4.4 0 01-.065-.14.2.2 0 01-.022-.076c-.022-.022-.032-.044-.022-.065a.1.1 0 01-.032-.076.152.152 0 01-.022-.065 1.909 1.909 0 01-.119-.346 2.016 2.016 0 011.235-.412c1.169 0 .877.671 1.581 1.137s.119 2.006-.726 2.732z" class="prefix__cls-4" data-name="패스 4098"/>
                    <path id="prefix__패스_4099" d="M214.258 433.113c-.1-.087-.195-.173-.293-.271a2.323 2.323 0 01-.216-.238c-.022-.011-.044-.033-.044-.043-.021-.011-.032-.033-.054-.044a.254.254 0 00-.043-.054.258.258 0 01-.054-.065.691.691 0 01-.087-.1.444.444 0 01-.087-.109.17.17 0 01-.065-.086.286.286 0 01-.075-.087.011.011 0 01-.011-.011 7.556 7.556 0 01-.91-1.473.037.037 0 01-.011-.032.238.238 0 01-.043-.108.265.265 0 01-.054-.109.322.322 0 01-.054-.13.4.4 0 01-.065-.14.2.2 0 01-.022-.076c-.022-.022-.032-.044-.022-.065a.1.1 0 01-.032-.076.152.152 0 01-.022-.065 1.909 1.909 0 01-.119-.346 3.188 3.188 0 01-.119-.423 2.426 2.426 0 011.375-.422c1.4 0 1.051.812 1.9 1.375.819.534.18 2.285-.773 3.198z" class="prefix__cls-4" data-name="패스 4099"/>
                    <path id="prefix__패스_4100" d="M214.6 433.4c-.011-.011-.032-.021-.043-.032-.108-.087-.206-.174-.3-.26s-.195-.173-.293-.271a2.323 2.323 0 01-.216-.238c-.022-.011-.044-.033-.044-.043-.021-.011-.032-.033-.054-.044a.254.254 0 00-.043-.054.258.258 0 01-.054-.065.691.691 0 01-.087-.1.444.444 0 01-.087-.109.17.17 0 01-.065-.086.286.286 0 01-.075-.087.011.011 0 01-.011-.011 7.556 7.556 0 01-.91-1.473.037.037 0 01-.011-.032.238.238 0 01-.043-.108.265.265 0 01-.054-.109.322.322 0 01-.054-.13.4.4 0 01-.065-.14.2.2 0 01-.022-.076c-.022-.022-.032-.044-.022-.065a.1.1 0 01-.032-.076.152.152 0 01-.022-.065 1.909 1.909 0 01-.119-.346 3.188 3.188 0 01-.119-.423.9.9 0 01-.054-.184 3.139 3.139 0 00-.087-.3 2.933 2.933 0 011.549-.444c1.668 0 1.256.974 2.274 1.635.954.636.25 2.636-.837 3.736z" class="prefix__cls-4" data-name="패스 4100"/>
                    <path id="prefix__패스_4101" d="M214.994 433.8a4.337 4.337 0 00-.39-.39c-.011-.011-.032-.021-.043-.032-.108-.087-.206-.174-.3-.26s-.195-.173-.293-.271a2.323 2.323 0 01-.216-.238c-.022-.011-.044-.033-.044-.043-.021-.011-.032-.033-.054-.044a.254.254 0 00-.043-.054.258.258 0 01-.054-.065.691.691 0 01-.087-.1.444.444 0 01-.087-.109.17.17 0 01-.065-.086.286.286 0 01-.075-.087.011.011 0 01-.011-.011 7.556 7.556 0 01-.91-1.473.037.037 0 01-.011-.032.238.238 0 01-.043-.108.265.265 0 01-.054-.109.322.322 0 01-.054-.13.4.4 0 01-.065-.14.2.2 0 01-.022-.076c-.022-.022-.032-.044-.022-.065a.1.1 0 01-.032-.076.152.152 0 01-.022-.065 1.909 1.909 0 01-.119-.346 3.188 3.188 0 01-.119-.423.9.9 0 01-.054-.184 3.139 3.139 0 00-.087-.3 5.5 5.5 0 00-.173-.607 3.52 3.52 0 011.743-.454c2.015 0 1.517 1.169 2.74 1.971 1.124.731.333 3.059-.934 4.407z" class="prefix__cls-4" data-name="패스 4101"/>
                    <path id="prefix__패스_4102" d="M215.362 434.358a2.5 2.5 0 00-.368-.563 4.337 4.337 0 00-.39-.39c-.011-.011-.032-.021-.043-.032-.108-.087-.206-.174-.3-.26s-.195-.173-.293-.271a2.323 2.323 0 01-.216-.238c-.022-.011-.044-.033-.044-.043-.021-.011-.032-.033-.054-.044a.254.254 0 00-.043-.054.258.258 0 01-.054-.065.691.691 0 01-.087-.1.444.444 0 01-.087-.109.17.17 0 01-.065-.086.286.286 0 01-.075-.087.011.011 0 01-.011-.011 7.556 7.556 0 01-.91-1.473.037.037 0 01-.011-.032.238.238 0 01-.043-.108.265.265 0 01-.054-.109.322.322 0 01-.054-.13.4.4 0 01-.065-.14.2.2 0 01-.022-.076c-.022-.022-.032-.044-.022-.065a.1.1 0 01-.032-.076.152.152 0 01-.022-.065 1.909 1.909 0 01-.119-.346 3.188 3.188 0 01-.119-.423.9.9 0 01-.054-.184 3.139 3.139 0 00-.087-.3 5.5 5.5 0 00-.173-.607c-.076-.227-.152-.454-.238-.682a4.283 4.283 0 012.025-.509c2.4 0 1.808 1.408 3.27 2.361 1.351.888.387 3.704-1.14 5.317z" class="prefix__cls-4" data-name="패스 4102"/>
                    <path id="prefix__패스_4103" d="M215.568 435.279a2.807 2.807 0 00-.206-.921 2.5 2.5 0 00-.368-.563 4.337 4.337 0 00-.39-.39c-.011-.011-.032-.021-.043-.032-.108-.087-.206-.174-.3-.26s-.195-.173-.293-.271a2.323 2.323 0 01-.216-.238c-.022-.011-.044-.033-.044-.043-.021-.011-.032-.033-.054-.044a.254.254 0 00-.043-.054.258.258 0 01-.054-.065.691.691 0 01-.087-.1.444.444 0 01-.087-.109.17.17 0 01-.065-.086.286.286 0 01-.075-.087.011.011 0 01-.011-.011 7.556 7.556 0 01-.91-1.473.037.037 0 01-.011-.032.238.238 0 01-.043-.108.265.265 0 01-.054-.109.322.322 0 01-.054-.13.4.4 0 01-.065-.14.2.2 0 01-.022-.076c-.022-.022-.032-.044-.022-.065a.1.1 0 01-.032-.076.152.152 0 01-.022-.065 1.909 1.909 0 01-.119-.346 3.188 3.188 0 01-.119-.423.9.9 0 01-.054-.184 3.139 3.139 0 00-.087-.3 5.5 5.5 0 00-.173-.607c-.076-.227-.152-.454-.238-.682-.1-.271-.206-.541-.3-.812a5.178 5.178 0 012.371-.574c2.892 0 2.177 1.679 3.931 2.826 1.705 1.127.341 4.787-1.641 6.65z" class="prefix__cls-4" data-name="패스 4103"/>
                    <path id="prefix__패스_4104" d="M213.554 432.4a.691.691 0 01-.087-.1.444.444 0 01-.087-.109.17.17 0 01-.065-.086.286.286 0 01-.075-.087.011.011 0 01-.011-.011 7.556 7.556 0 01-.91-1.473.037.037 0 01-.011-.032.238.238 0 01-.043-.108.265.265 0 01-.054-.109.322.322 0 01-.054-.13.4.4 0 01-.065-.14 1.456 1.456 0 01.985-.39c.812 0 .607.465 1.105.79.518.337.011 1.539-.628 1.985z" class="prefix__cls-4" data-name="패스 4104"/>
                    <path id="prefix__패스_4105" d="M213.608 432.463a.258.258 0 01-.054-.065.691.691 0 01-.087-.1.444.444 0 01-.087-.109.17.17 0 01-.065-.086.286.286 0 01-.075-.087.011.011 0 01-.011-.011 7.556 7.556 0 01-.91-1.473.037.037 0 01-.011-.032.238.238 0 01-.043-.108.265.265 0 01-.054-.109.322.322 0 01-.054-.13.4.4 0 01-.065-.14.2.2 0 01-.022-.076 1.491 1.491 0 011.018-.39c.845 0 .639.5 1.148.834.541.36.032 1.584-.628 2.082z" class="prefix__cls-4" data-name="패스 4105"/>
                    <path id="prefix__패스_4106" d="M213.651 432.517a.254.254 0 00-.043-.054.258.258 0 01-.054-.065.691.691 0 01-.087-.1.444.444 0 01-.087-.109.17.17 0 01-.065-.086.286.286 0 01-.075-.087.011.011 0 01-.011-.011 7.556 7.556 0 01-.91-1.473.037.037 0 01-.011-.032.238.238 0 01-.043-.108.265.265 0 01-.054-.109.322.322 0 01-.054-.13.4.4 0 01-.065-.14.2.2 0 01-.022-.076c-.022-.022-.032-.044-.022-.065a1.5 1.5 0 011.04-.4c.888 0 .671.52 1.213.866.563.382.032 1.662-.65 2.179z" class="prefix__cls-4" data-name="패스 4106"/>
                    <path id="prefix__패스_4107" d="M213.705 432.561c-.021-.011-.032-.033-.054-.044a.254.254 0 00-.043-.054.258.258 0 01-.054-.065.691.691 0 01-.087-.1.444.444 0 01-.087-.109.17.17 0 01-.065-.086.286.286 0 01-.075-.087.011.011 0 01-.011-.011 7.556 7.556 0 01-.91-1.473.037.037 0 01-.011-.032.238.238 0 01-.043-.108.265.265 0 01-.054-.109.322.322 0 01-.054-.13.4.4 0 01-.065-.14.2.2 0 01-.022-.076c-.022-.022-.032-.044-.022-.065a.1.1 0 01-.032-.076 1.591 1.591 0 011.072-.411c.942 0 .7.552 1.278.92s.054 1.703-.661 2.256z" class="prefix__cls-4" data-name="패스 4107"/>
                    <path id="prefix__패스_4108" d="M213.467 432.3a.444.444 0 01-.087-.109.17.17 0 01-.065-.086.286.286 0 01-.075-.087.011.011 0 01-.011-.011 7.556 7.556 0 01-.91-1.473.037.037 0 01-.011-.032.238.238 0 01-.043-.108.265.265 0 01-.054-.109.322.322 0 01-.054-.13 1.293 1.293 0 01.92-.379c.726 0 .542.423.986.7.476.33-.011 1.446-.596 1.824z" class="prefix__cls-4" data-name="패스 4108"/>
                </g>
                <path id="prefix__패스_4109" d="M213.38 432.192a.17.17 0 01-.065-.086.286.286 0 01-.075-.087.011.011 0 01-.011-.011 7.556 7.556 0 01-.91-1.473.037.037 0 01-.011-.032.238.238 0 01-.043-.108.265.265 0 01-.054-.109 1.131 1.131 0 01.855-.379c.65 0 .5.379.888.639.446.293-.021 1.332-.574 1.646z" class="prefix__cls-4" data-name="패스 4109"/>
                <path id="prefix__패스_4110" d="M213.315 432.106a.286.286 0 01-.075-.087.011.011 0 01-.011-.011 7.556 7.556 0 01-.91-1.473.037.037 0 01-.011-.032.238.238 0 01-.043-.108 1.04 1.04 0 01.8-.369c.585 0 .434.347.791.574.412.271-.032 1.246-.541 1.506z" class="prefix__cls-4" data-name="패스 4110"/>
                <path id="prefix__패스_4111" d="M213.24 432.019a.011.011 0 01-.011-.011 7.556 7.556 0 01-.91-1.473.037.037 0 01-.011-.032.933.933 0 01.748-.368c.53 0 .4.3.725.52.379.245-.065 1.169-.541 1.364z" class="prefix__cls-4" data-name="패스 4111"/>
                <path id="prefix__패스_4112" d="M213.229 432.008a7.556 7.556 0 01-.91-1.473.914.914 0 01.737-.368c.508 0 .389.293.693.5.368.233-.065 1.146-.52 1.341z" data-name="패스 4112" style="fill:#981e19"/>
            </g>
            <g id="prefix__그룹_3477" data-name="그룹 3477" style="opacity:.6">
                <g id="prefix__그룹_3476" data-name="그룹 3476">
                    <path id="prefix__패스_4113" d="M225.261 423.378c.715.467-.32 2.391-1.209 2.391a1.631 1.631 0 010-3.262c.889 0 .669.518 1.209.871z" class="prefix__cls-7" data-name="패스 4113"/>
                    <path id="prefix__패스_4114" d="M225.519 423.226c.858.561-.384 2.869-1.451 2.869a1.957 1.957 0 010-3.914c1.067 0 .804.619 1.451 1.045z" class="prefix__cls-7" data-name="패스 4114"/>
                    <path id="prefix__패스_4115" d="M225.829 423.043c1.03.674-.461 3.444-1.741 3.444a2.349 2.349 0 010-4.7c1.28.003.964.748 1.741 1.256z" class="prefix__cls-7" data-name="패스 4115"/>
                    <path id="prefix__패스_4116" d="M226.2 422.824c1.236.808-.553 4.133-2.089 4.133a2.819 2.819 0 010-5.637c1.536 0 1.157.895 2.089 1.504z" class="prefix__cls-7" data-name="패스 4116"/>
                    <path id="prefix__패스_4117" d="M226.646 422.561c1.483.97-.663 4.959-2.507 4.959a3.382 3.382 0 010-6.764c1.844 0 1.388 1.074 2.507 1.805z" class="prefix__cls-7" data-name="패스 4117"/>
                    <path id="prefix__패스_4118" d="M227.181 422.246c1.78 1.164-.8 5.951-3.009 5.951a4.059 4.059 0 010-8.117c2.213 0 1.666 1.288 3.009 2.166z" class="prefix__cls-7" data-name="패스 4118"/>
                    <path id="prefix__패스_4119" d="M227.823 421.868c2.136 1.4-.955 7.14-3.61 7.14a4.87 4.87 0 010-9.74c2.655 0 1.999 1.546 3.61 2.6z" class="prefix__cls-7" data-name="패스 4119"/>
                    <path id="prefix__패스_4120" d="M225.046 423.505c.6.389-.267 1.992-1.008 1.992a1.359 1.359 0 010-2.718c.741 0 .562.432 1.008.726z" class="prefix__cls-7" data-name="패스 4120"/>
                    <path id="prefix__패스_4121" d="M225.1 423.473c.626.409-.28 2.092-1.058 2.092a1.427 1.427 0 010-2.854c.778 0 .586.453 1.058.762z" class="prefix__cls-7" data-name="패스 4121"/>
                    <path id="prefix__패스_4122" d="M225.156 423.44c.657.429-.294 2.2-1.111 2.2a1.5 1.5 0 010-3c.817 0 .616.476 1.111.8z" class="prefix__cls-7" data-name="패스 4122"/>
                    <path id="prefix__패스_4123" d="M225.216 423.4c.69.451-.309 2.307-1.167 2.307a1.574 1.574 0 010-3.147c.858.005.651.504 1.167.84z" class="prefix__cls-7" data-name="패스 4123"/>
                    <path id="prefix__패스_4124" d="M224.939 423.568c.536.351-.24 1.793-.907 1.793a1.223 1.223 0 010-2.446c.668 0 .502.385.907.653z" class="prefix__cls-7" data-name="패스 4124"/>
                </g>
                <path id="prefix__패스_4125" d="M224.842 423.625c.483.316-.216 1.614-.816 1.614a1.1 1.1 0 010-2.2c.6-.002.452.348.816.586z" class="prefix__cls-7" data-name="패스 4125"/>
                <path id="prefix__패스_4126" d="M224.755 423.676c.434.284-.2 1.453-.735 1.453a.991.991 0 010-1.982c.54 0 .407.315.735.529z" class="prefix__cls-7" data-name="패스 4126"/>
                <path id="prefix__패스_4127" d="M224.676 423.722c.391.256-.175 1.308-.661 1.308a.892.892 0 010-1.784c.485 0 .366.284.661.476z" class="prefix__cls-7" data-name="패스 4127"/>
                <path id="prefix__패스_4128" d="M224.655 423.735c.379.248-.17 1.268-.641 1.268a.865.865 0 010-1.729c.471 0 .355.274.641.461z" data-name="패스 4128" style="fill:#df003f"/>
            </g>
            <g id="prefix__그룹_3479" class="prefix__cls-3" data-name="그룹 3479">
                <g id="prefix__그룹_3478" data-name="그룹 3478">
                    <path id="prefix__패스_4129" d="M228 434.54c-.01.01-.01.02-.02.02-.01.02-.03.03-.04.04s-.01.02-.02.02q-.015.03-.03.03c-.02.02-.03.04-.05.05 0 0-.01.01 0 .01a.265.265 0 00-.06.05l-.04.04a.176.176 0 00-.04.05h-.01a1.37 1.37 0 00-.27 1.01v.51a.985.985 0 01-.48-.13 1.085 1.085 0 01-.56-.95 1.069 1.069 0 011.06-1.07.688.688 0 01.22.03c.21.04.26.16.34.29z" class="prefix__cls-9" data-name="패스 4129"/>
                    <path id="prefix__패스_4130" d="M228.13 434.41a1.594 1.594 0 01-.13.13c-.01.01-.01.02-.02.02-.01.02-.03.03-.04.04s-.01.02-.02.02q-.015.03-.03.03c-.02.02-.03.04-.05.05 0 0-.01.01 0 .01a.265.265 0 00-.06.05l-.04.04a.176.176 0 00-.04.05h-.01a1.37 1.37 0 00-.27 1.01v.72a1.092 1.092 0 01-.48-.11 1.286 1.286 0 01.51-2.46.836.836 0 01.36.06.661.661 0 01.32.34z" class="prefix__cls-9" data-name="패스 4130"/>
                    <path id="prefix__패스_4131" d="M228.29 434.23c-.05.06-.1.12-.16.18a1.594 1.594 0 01-.13.13c-.01.01-.01.02-.02.02-.01.02-.03.03-.04.04s-.01.02-.02.02q-.015.03-.03.03c-.02.02-.03.04-.05.05 0 0-.01.01 0 .01a.265.265 0 00-.06.05l-.04.04a.176.176 0 00-.04.05h-.01a1.37 1.37 0 00-.27 1.01v.98a1.521 1.521 0 01-.48-.1 1.545 1.545 0 01.52-2.99.88.88 0 01.53.12 1.052 1.052 0 01.3.36z" class="prefix__cls-9" data-name="패스 4131"/>
                    <path id="prefix__패스_4132" d="M228.47 434.02l-.18.21c-.05.06-.1.12-.16.18a1.594 1.594 0 01-.13.13c-.01.01-.01.02-.02.02-.01.02-.03.03-.04.04s-.01.02-.02.02q-.015.03-.03.03c-.02.02-.03.04-.05.05 0 0-.01.01 0 .01a.265.265 0 00-.06.05l-.04.04a.176.176 0 00-.04.05h-.01a1.37 1.37 0 00-.27 1.01v1.28a1.51 1.51 0 01-.48-.08 1.854 1.854 0 01.54-3.62 1 1 0 01.69.19 1.5 1.5 0 01.3.39z" class="prefix__cls-9" data-name="패스 4132"/>
                    <path id="prefix__패스_4133" d="M228.67 433.75c-.06.09-.13.18-.2.27l-.18.21c-.05.06-.1.12-.16.18a1.594 1.594 0 01-.13.13c-.01.01-.01.02-.02.02-.01.02-.03.03-.04.04s-.01.02-.02.02q-.015.03-.03.03c-.02.02-.03.04-.05.05 0 0-.01.01 0 .01a.265.265 0 00-.06.05l-.04.04a.176.176 0 00-.04.05h-.01a1.37 1.37 0 00-.27 1.01v1.66a1.853 1.853 0 01-.48-.08 2.224 2.224 0 01.56-4.37 1.176 1.176 0 01.88.27 2.018 2.018 0 01.29.41z" class="prefix__cls-9" data-name="패스 4133"/>
                    <path id="prefix__패스_4134" d="M228.91 433.4a2.715 2.715 0 01-.24.35c-.06.09-.13.18-.2.27l-.18.21c-.05.06-.1.12-.16.18a1.594 1.594 0 01-.13.13c-.01.01-.01.02-.02.02-.01.02-.03.03-.04.04s-.01.02-.02.02q-.015.03-.03.03c-.02.02-.03.04-.05.05 0 0-.01.01 0 .01a.265.265 0 00-.06.05l-.04.04a.176.176 0 00-.04.05h-.01a1.37 1.37 0 00-.27 1.01v2.11a3.5 3.5 0 01-.48-.06 2.682 2.682 0 01.58-5.29 1.353 1.353 0 011.08.35 2.37 2.37 0 01.31.43z" class="prefix__cls-9" data-name="패스 4134"/>
                    <path id="prefix__패스_4135" d="M229.17 432.98a2.96 2.96 0 01-.26.42 2.715 2.715 0 01-.24.35c-.06.09-.13.18-.2.27l-.18.21c-.05.06-.1.12-.16.18a1.594 1.594 0 01-.13.13c-.01.01-.01.02-.02.02-.01.02-.03.03-.04.04s-.01.02-.02.02q-.015.03-.03.03c-.02.02-.03.04-.05.05 0 0-.01.01 0 .01a.265.265 0 00-.06.05l-.04.04a.176.176 0 00-.04.05h-.01a1.37 1.37 0 00-.27 1.01v2.63a1.972 1.972 0 01-.48-.06 3.2 3.2 0 01.61-6.34 1.573 1.573 0 011.3.43 2.213 2.213 0 01.32.46z" class="prefix__cls-9" data-name="패스 4135"/>
                    <path id="prefix__패스_4136" d="M227.89 434.65c-.02.02-.03.04-.05.05 0 0-.01.01 0 .01a.265.265 0 00-.06.05l-.04.04a.176.176 0 00-.04.05h-.01a1.37 1.37 0 00-.27 1.01v.33a.854.854 0 01-.48-.15.9.9 0 01-.39-.75.883.883 0 01.88-.89h.08a.4.4 0 01.38.25z" class="prefix__cls-9" data-name="패스 4136"/>
                    <path id="prefix__패스_4137" d="M227.92 434.62q-.015.03-.03.03c-.02.02-.03.04-.05.05 0 0-.01.01 0 .01a.265.265 0 00-.06.05l-.04.04a.176.176 0 00-.04.05h-.01a1.37 1.37 0 00-.27 1.01v.37a.872.872 0 01-.48-.14.946.946 0 01-.43-.8.926.926 0 01.92-.93.412.412 0 01.12.01.425.425 0 01.37.25z" class="prefix__cls-9" data-name="패스 4137"/>
                    <path id="prefix__패스_4138" d="M227.94 434.6c-.01.01-.01.02-.02.02q-.015.03-.03.03c-.02.02-.03.04-.05.05 0 0-.01.01 0 .01a.265.265 0 00-.06.05l-.04.04a.176.176 0 00-.04.05h-.01a1.37 1.37 0 00-.27 1.01v.42a.872.872 0 01-.48-.14.985.985 0 01.5-1.83.661.661 0 01.15.01.435.435 0 01.35.28z" class="prefix__cls-9" data-name="패스 4138"/>
                    <path id="prefix__패스_4139" d="M227.98 434.56c-.01.02-.03.03-.04.04s-.01.02-.02.02q-.015.03-.03.03c-.02.02-.03.04-.05.05 0 0-.01.01 0 .01a.265.265 0 00-.06.05l-.04.04a.176.176 0 00-.04.05h-.01a1.37 1.37 0 00-.27 1.01v.47a.872.872 0 01-.48-.14 1.033 1.033 0 01.5-1.93.92.92 0 01.19.02.507.507 0 01.35.28z" class="prefix__cls-9" data-name="패스 4139"/>
                    <path id="prefix__패스_4140" d="M227.84 434.7s-.01.01 0 .01a.265.265 0 00-.06.05l-.04.04a.176.176 0 00-.04.05h-.01a1.37 1.37 0 00-.27 1.01v.24a.74.74 0 01-.48-.17.811.811 0 01-.31-.64.8.8 0 01.8-.8.406.406 0 01.41.21z" class="prefix__cls-9" data-name="패스 4140"/>
                </g>
                <path id="prefix__패스_4141" d="M227.78 434.76l-.04.04a.176.176 0 00-.04.05h-.01a1.37 1.37 0 00-.27 1.01v.16a.657.657 0 01-.48-.2.724.724 0 01-.23-.53.715.715 0 01.63-.71.2.2 0 01.08-.01c.24 0 .3.08.36.19z" class="prefix__cls-9" data-name="패스 4141"/>
                <path id="prefix__패스_4142" d="M227.74 434.8a.176.176 0 00-.04.05h-.01a1.37 1.37 0 00-.27 1.01v.09a.649.649 0 01-.48-.21c.01-.01 0-.01 0-.01a.678.678 0 01-.16-.44.645.645 0 01.48-.63.777.777 0 01.16-.02.317.317 0 01.32.16z" class="prefix__cls-9" data-name="패스 4142"/>
                <path id="prefix__패스_4143" d="M227.7 434.85h-.01a1.37 1.37 0 00-.27 1.01v.02a.592.592 0 01-.48-.25v-.01a.611.611 0 01-.1-.33.551.551 0 01.31-.5l.01-.01a.485.485 0 01.26-.07c.19 0 .24.06.28.14z" class="prefix__cls-9" data-name="패스 4143"/>
                <path id="prefix__패스_4144" d="M227.69 434.85a1.37 1.37 0 00-.27 1.01.576.576 0 01-.48-.26.538.538 0 01-.09-.31.544.544 0 01.29-.48.538.538 0 01.28-.08.281.281 0 01.27.12z" data-name="패스 4144" style="fill:#b00a3e"/>
            </g>
        </g>
        <path id="prefix__사각형_3095" d="M0 0H50V50H0z" data-name="사각형 3095" transform="translate(195.383 393.584)" style="fill:none"/>
    </g>
</svg>
