<svg xmlns="http://www.w3.org/2000/svg" width="50" height="50" viewBox="0 0 50 50">
    <defs>
        <style>
            .cls-1{fill:#f49fa8}.cls-2{fill:#dc4d5b}.cls-3{fill:#ed6775}.cls-4{fill:#d13044}.cls-5{opacity:.4}.cls-6{fill:#fff}.cls-12,.cls-14,.cls-7{fill:none}.cls-7{stroke:#fff}.cls-12,.cls-7{stroke-miterlimit:10}.cls-8{fill:#dbdbdb}.cls-9{fill:#c9c9c9}.cls-10{fill:#282828}.cls-11{fill:#1c1c1c}.cls-12{stroke:#8c3221;stroke-linecap:round}.cls-13{fill:#030504;opacity:.04}
        </style>
    </defs>
    <g id="그룹_2898" data-name="그룹 2898" transform="translate(-3771.409 -207.378)">
        <g id="그룹_2897" data-name="그룹 2897">
            <g id="그룹_2892" data-name="그룹 2892">
                <g id="그룹_2890" data-name="그룹 2890">
                    <path id="패스_3083" d="M3805.406 219.465a1.95 1.95 0 0 1-.011.253c-.22 9.669-3.674 15.884-5.06 17.974-.051.081-.1 2.489-.13 4.118a1.5 1.5 0 0 1-1.5 1.468h-4.891a1.5 1.5 0 0 1-1.5-1.468c-.032-1.629-.079-4.037-.13-4.118-1.386-2.09-4.84-8.305-5.06-17.974a1.95 1.95 0 0 1-.011-.253.994.994 0 0 1 .671-.957c.011 0 .022-.011.044-.011a26.043 26.043 0 0 1 8.437-1.133 26.309 26.309 0 0 1 8.437 1.133c.011 0 .022.011.033.011a.994.994 0 0 1 .671.957z" class="cls-1" data-name="패스 3083"/>
                    <path id="패스_3084" d="M3815.24 222.919l-2.343 2.189-.11.1a.711.711 0 0 1-1-.044.7.7 0 0 1 .044-.99l.209-.2 2.244-2.079a2.781 2.781 0 0 0-1.694-4.818c-.132-.011-.253-.022-.385-.022-1.441 0-3.773 1.177-6.248 2.409-.891.451.385-.187-.561.253-1 .475-2.023.917-3.062 1.3a2.82 2.82 0 0 0-1.844 2.645v2.717a4.241 4.241 0 0 1-1.342 3.089 2.64 2.64 0 0 0-.77 1.932v2.855a2.086 2.086 0 0 1-.487 1.338 3.906 3.906 0 0 0-.921 2.49h-1.408v-.011a3.668 3.668 0 0 0-.845-2.429 2.3 2.3 0 0 1-.563-1.509v-2.716a2.658 2.658 0 0 0-.776-1.946 4.225 4.225 0 0 1-1.336-3.093v-2.717a2.815 2.815 0 0 0-1.84-2.64 36.935 36.935 0 0 1-3.077-1.309c-.946-.44.33.2-.561-.253-2.464-1.232-4.807-2.409-6.248-2.409-.132 0-.253.011-.385.022a2.781 2.781 0 0 0-1.694 4.818l2.244 2.079.4.374a.7.7 0 1 1-.968 1.023l-.275-.264h-.011l-2.343-2.189a4.131 4.131 0 0 1-1.122-4.411 4.2 4.2 0 0 1 3.641-2.827 3.947 3.947 0 0 1 .517-.033c1.782 0 4.147 1.188 6.875 2.563.913.462-.33-.165.638.286a33.571 33.571 0 0 0 4.169 1.661c.286.088.572.176.858.242.165.044.33.088.5.121q.4.1.792.165c.242.044.484.077.715.11.165.022.33.033.5.044a8.451 8.451 0 0 0 .913.044 8.055 8.055 0 0 0 .891-.044 7.22 7.22 0 0 0 .506-.044c.242-.033.473-.066.715-.11s.5-.088.737-.154c.176-.033.363-.077.55-.132.286-.066.572-.154.858-.242.242-.077.484-.154.726-.242.033-.011.077-.022.11-.033 1.122-.4 2.245-.879 3.344-1.386a3.88 3.88 0 0 0 .627-.286c2.739-1.375 5.093-2.563 6.875-2.563a3.952 3.952 0 0 1 .517.033 4.2 4.2 0 0 1 3.641 2.827 4.132 4.132 0 0 1-1.137 4.416z" class="cls-2" data-name="패스 3084"/>
                    <ellipse id="타원_714" cx="3.032" cy="3.706" class="cls-1" data-name="타원 714" rx="3.032" ry="3.706" transform="rotate(-56.871 2098.855 -3375.079)"/>
                    <path id="패스_3085" d="M3782.688 225.114a4.941 4.941 0 0 1 2.475-.6 4.587 4.587 0 0 0-.532-.414c-1.715-1.119-3.847-.889-4.762.514a3.1 3.1 0 0 0 .4 3.607 4.586 4.586 0 0 1 2.419-3.107z" class="cls-3" data-name="패스 3085"/>
                    <ellipse id="타원_715" cx="3.706" cy="3.032" class="cls-1" data-name="타원 715" rx="3.706" ry="3.032" transform="rotate(-33.129 2282.52 -6282.856)"/>
                    <path id="패스_3086" d="M3809.831 225.114a4.935 4.935 0 0 0-2.474-.6 4.505 4.505 0 0 1 .532-.414c1.715-1.119 3.847-.889 4.762.514a3.1 3.1 0 0 1-.4 3.607 4.589 4.589 0 0 0-2.42-3.107z" class="cls-3" data-name="패스 3086"/>
                    <g id="그룹_2889" data-name="그룹 2889">
                        <path id="패스_3087" d="M3798.377 232.148v2.112a2.114 2.114 0 0 1-.847 1.683 1.422 1.422 0 0 0-.561 1.122v6.213h-1.408v-6.235a1.381 1.381 0 0 0-.528-1.1 2.267 2.267 0 0 1-.88-1.8v-1.991a2.112 2.112 0 1 0 4.224 0z" class="cls-4" data-name="패스 3087"/>
                        <path id="패스_3088" d="M3796.26 220.888a15.558 15.558 0 0 1-5.1-1.01c2.764 1.628 3.565 3.122 5.1 3.122s2.339-1.494 5.1-3.122a15.547 15.547 0 0 1-5.1 1.01z" class="cls-4" data-name="패스 3088"/>
                    </g>
                </g>
                <g id="그룹_2891" class="cls-5" data-name="그룹 2891">
                    <path id="패스_3089" d="M3793.361 224.25a.294.294 0 0 1-.3.286h-1.023v-.583h1.023a.3.3 0 0 1 .3.297z" class="cls-6" data-name="패스 3089"/>
                    <path id="패스_3090" d="M3793.031 225.35a.291.291 0 0 1-.286.286h-.7v-.583h.7a.294.294 0 0 1 .286.297z" class="cls-6" data-name="패스 3090"/>
                    <path id="패스_3091" d="M3793.24 226.45a.294.294 0 0 1-.286.3h-.891a2.014 2.014 0 0 1-.022-.363v-.22h.913a.291.291 0 0 1 .286.283z" class="cls-6" data-name="패스 3091"/>
                    <path id="패스_3092" d="M3793.24 227.55a.294.294 0 0 1-.286.3h-.649a3.59 3.59 0 0 1-.176-.583h.825a.291.291 0 0 1 .286.283z" class="cls-6" data-name="패스 3092"/>
                    <path id="패스_3093" d="M3793.757 228.65a.3.3 0 0 1-.3.3h-.55a2.773 2.773 0 0 1-.374-.583h.924a.294.294 0 0 1 .3.283z" class="cls-6" data-name="패스 3093"/>
                    <path id="패스_3094" d="M3794.4 229.761a.294.294 0 0 1-.3.286h-.286a2.21 2.21 0 0 0-.44-.572l-.011-.011h.737a.3.3 0 0 1 .3.297z" class="cls-6" data-name="패스 3094"/>
                    <path id="선_600" d="M0 .572V0" class="cls-6" data-name="선 600" transform="translate(3794.153 231.675)"/>
                    <path id="패스_3095" d="M3800.489 223.953v.583h-1.221a.292.292 0 1 1 0-.583z" class="cls-6" data-name="패스 3095"/>
                    <path id="패스_3096" d="M3800.489 225.053v.583h-.891a.292.292 0 1 1 0-.583z" class="cls-6" data-name="패스 3096"/>
                    <path id="패스_3097" d="M3800.489 226.164v.22a2.014 2.014 0 0 1-.022.363h-1.078a.292.292 0 1 1 0-.583z" class="cls-6" data-name="패스 3097"/>
                    <path id="패스_3098" d="M3800.39 227.264a3.531 3.531 0 0 1-.165.583h-.836a.292.292 0 1 1 0-.583z" class="cls-6" data-name="패스 3098"/>
                    <path id="패스_3099" d="M3799.983 228.364a3.269 3.269 0 0 1-.374.583h-.737a.292.292 0 1 1 0-.583z" class="cls-6" data-name="패스 3099"/>
                    <path id="패스_3100" d="M3799.158 229.464l-.011.011a2.2 2.2 0 0 0-.44.572h-.473a.292.292 0 0 1 0-.583z" class="cls-6" data-name="패스 3100"/>
                </g>
            </g>
            <g id="그룹_2895" data-name="그룹 2895">
                <path id="패스_3102" d="M3813.42 238.9a2.966 2.966 0 0 0 .269-2.353.688.688 0 0 0-.056-.125 3.863 3.863 0 0 0-1.368-.791 3.327 3.327 0 0 0-.1-.628 2.524 2.524 0 0 0-.652-1.192.681.681 0 0 0-.107-.094 2.52 2.52 0 0 0-1.249-.6 4.192 4.192 0 0 0-.439-.8 2.958 2.958 0 0 0-.389-.484l-.006-.006a2.517 2.517 0 0 0-1.117-.684 2.706 2.706 0 0 0-1.8.17 2.98 2.98 0 0 0-2.291-.747 3.637 3.637 0 0 1-3.326.947 2.92 2.92 0 0 0-1.543 1.676 2.517 2.517 0 0 0-1.055.539 2.8 2.8 0 0 0-.872 1.833 2.917 2.917 0 0 0-1.744 1.487 2.712 2.712 0 0 0-.082 1.845 2.78 2.78 0 0 0-.753 1.814 2.491 2.491 0 0 0 .27 1.11 3.854 3.854 0 0 0 .207.346 4.289 4.289 0 0 0 .621.715 2.4 2.4 0 0 0 .119 1.136c.019.05.038.094.057.138a2.269 2.269 0 0 0 .339.546v.006a2.786 2.786 0 0 0 .615.559 3.511 3.511 0 0 0 .263 1.6 3.693 3.693 0 0 0 3.3.495 4.024 4.024 0 0 0 .546.86.277.277 0 0 0 .069-.012c.031.069.069.138.107.207a2.44 2.44 0 0 0 1.11.671 2.964 2.964 0 0 0 2.354-.458 2.665 2.665 0 0 0 1.738.37 2.328 2.328 0 0 0 .307-.069h.013a2.363 2.363 0 0 0 1.537-.765 2.853 2.853 0 0 0 2.121-.615 2.906 2.906 0 0 0 .9-2.077 2.754 2.754 0 0 0 1.456-1.362 2.874 2.874 0 0 0-.063-2.272 2.837 2.837 0 0 0 .9-1.977 2.341 2.341 0 0 0-.206-.959zm-11.29 6.364a.026.026 0 0 0 .013.006.021.021 0 0 0 .006.012z" class="cls-8" data-name="패스 3102"/>
                <path id="패스_3103" d="M3814.242 240.7a2.835 2.835 0 0 1-.9 1.976 2.874 2.874 0 0 1 .063 2.272 2.754 2.754 0 0 1-1.456 1.362 2.907 2.907 0 0 1-.9 2.077 2.85 2.85 0 0 1-2.121.615 2.349 2.349 0 0 1-1.537.765h-.013a2.177 2.177 0 0 1-.307.069 2.659 2.659 0 0 1-1.738-.37 2.964 2.964 0 0 1-2.354.458 2.887 2.887 0 0 1-1.725-1.518 2.44 2.44 0 0 0 1.11.671 2.964 2.964 0 0 0 2.354-.458 2.665 2.665 0 0 0 1.738.37 2.328 2.328 0 0 0 .307-.069h.013a2.363 2.363 0 0 0 1.537-.765 2.853 2.853 0 0 0 2.121-.615 2.906 2.906 0 0 0 .9-2.077 2.754 2.754 0 0 0 1.456-1.362 2.874 2.874 0 0 0-.063-2.272 2.837 2.837 0 0 0 .9-1.977 2.341 2.341 0 0 0-.207-.96 2.966 2.966 0 0 0 .269-2.353.688.688 0 0 0-.056-.125 2.364 2.364 0 0 1 .671.972 2.965 2.965 0 0 1-.27 2.354 2.319 2.319 0 0 1 .208.96z" class="cls-9" data-name="패스 3103"/>
                <path id="패스_3104" d="M3800.53 247.355a4.024 4.024 0 0 0 .546.86 3.54 3.54 0 0 1-3.351-.615 2.289 2.289 0 0 1-.5-.74 3.693 3.693 0 0 0 3.305.495z" class="cls-9" data-name="패스 3104"/>
                <path id="패스_3105" d="M3803.429 244.582l-.019-.019a.02.02 0 0 1 .019.019z" class="cls-10" data-name="패스 3105"/>
                <path id="패스_3106" d="M3803.429 244.582l-.019-.019a.02.02 0 0 1 .019.019z" class="cls-10" data-name="패스 3106"/>
                <path id="패스_3107" d="M3803.429 244.582l-.019-.019a.02.02 0 0 1 .019.019z" class="cls-10" data-name="패스 3107"/>
                <path id="패스_3108" d="M3803.429 244.582l-.019-.019a.02.02 0 0 1 .019.019z" class="cls-10" data-name="패스 3108"/>
                <path id="패스_3109" d="M3803.429 244.582l-.019-.019a.02.02 0 0 1 .019.019z" class="cls-10" data-name="패스 3109"/>
                <g id="그룹_2893" data-name="그룹 2893">
                    <circle id="타원_716" cx="1.397" cy="1.397" r="1.397" class="cls-6" data-name="타원 716" transform="translate(3799.679 235.303)"/>
                    <circle id="타원_717" cx=".699" cy=".699" r=".699" class="cls-11" data-name="타원 717" transform="translate(3799.855 235.497)"/>
                    <circle id="타원_718" cx=".175" cy=".175" r=".175" class="cls-6" data-name="타원 718" transform="translate(3800.029 235.672)"/>
                </g>
                <g id="그룹_2894" data-name="그룹 2894">
                    <circle id="타원_719" cx="1.397" cy="1.397" r="1.397" class="cls-6" data-name="타원 719" transform="translate(3806.017 235.303)"/>
                    <circle id="타원_720" cx=".699" cy=".699" r=".699" class="cls-11" data-name="타원 720" transform="translate(3806.192 235.497)"/>
                    <circle id="타원_721" cx=".175" cy=".175" r=".175" class="cls-6" data-name="타원 721" transform="translate(3806.367 235.672)"/>
                </g>
                <path id="패스_3110" d="M3803.056 240.721a1.51 1.51 0 0 1 1.219-.483 2.585 2.585 0 0 1 1.22.483" class="cls-12" data-name="패스 3110"/>
            </g>
            <g id="그룹_2896" data-name="그룹 2896">
                <path id="패스_3111" d="M3790.294 217.364a1.442 1.442 0 0 0 .131-1.139.373.373 0 0 0-.028-.06 1.866 1.866 0 0 0-.661-.383 1.653 1.653 0 0 0-.049-.3 1.226 1.226 0 0 0-.316-.577.444.444 0 0 0-.051-.046 1.232 1.232 0 0 0-.6-.288 2.054 2.054 0 0 0-.213-.388 1.372 1.372 0 0 0-.188-.234 1.221 1.221 0 0 0-.54-.331 1.307 1.307 0 0 0-.871.082 1.442 1.442 0 0 0-1.108-.361 1.758 1.758 0 0 1-1.609.458 1.415 1.415 0 0 0-.747.81 1.232 1.232 0 0 0-.51.261 1.353 1.353 0 0 0-.422.887 1.41 1.41 0 0 0-.843.719 1.309 1.309 0 0 0-.04.893 1.339 1.339 0 0 0-.364.877 1.207 1.207 0 0 0 .13.537c.031.058.064.112.1.167a2.091 2.091 0 0 0 .3.346 1.151 1.151 0 0 0 .058.549l.027.067a1.073 1.073 0 0 0 .164.264 1.333 1.333 0 0 0 .3.271 1.707 1.707 0 0 0 .128.774 1.787 1.787 0 0 0 1.6.239 1.9 1.9 0 0 0 .265.416.128.128 0 0 0 .033-.006c.015.033.033.067.052.1a1.173 1.173 0 0 0 .537.325 1.433 1.433 0 0 0 1.138-.222 1.292 1.292 0 0 0 .841.18 1.465 1.465 0 0 0 .149-.034h.006a1.136 1.136 0 0 0 .318-.076 1.158 1.158 0 0 0 .425-.294 1.38 1.38 0 0 0 1.026-.3 1.4 1.4 0 0 0 .434-1 1.335 1.335 0 0 0 .705-.659 1.392 1.392 0 0 0-.031-1.1 1.369 1.369 0 0 0 .437-.956 1.121 1.121 0 0 0-.113-.468zm-5.461 3.078h.007v.006z" class="cls-8" data-name="패스 3111"/>
                <path id="패스_3112" d="M3790.692 218.238a1.373 1.373 0 0 1-.437.956 1.387 1.387 0 0 1 .03 1.1 1.324 1.324 0 0 1-.7.658 1.407 1.407 0 0 1-.434 1 1.379 1.379 0 0 1-1.026.3 1.18 1.18 0 0 1-.425.294 1.142 1.142 0 0 1-.319.076h-.006a1.16 1.16 0 0 1-.149.033 1.282 1.282 0 0 1-.84-.179 1.436 1.436 0 0 1-1.139.222 1.4 1.4 0 0 1-.834-.735 1.173 1.173 0 0 0 .537.325 1.433 1.433 0 0 0 1.138-.222 1.292 1.292 0 0 0 .841.18 1.465 1.465 0 0 0 .149-.034h.006a1.136 1.136 0 0 0 .318-.076 1.158 1.158 0 0 0 .425-.294 1.38 1.38 0 0 0 1.026-.3 1.4 1.4 0 0 0 .434-1 1.335 1.335 0 0 0 .705-.659 1.392 1.392 0 0 0-.031-1.1 1.369 1.369 0 0 0 .437-.956 1.121 1.121 0 0 0-.1-.464 1.442 1.442 0 0 0 .131-1.139.373.373 0 0 0-.028-.06 1.14 1.14 0 0 1 .325.47 1.434 1.434 0 0 1-.13 1.138 1.149 1.149 0 0 1 .096.466z" class="cls-9" data-name="패스 3112"/>
                <path id="패스_3113" d="M3784.059 221.455a1.9 1.9 0 0 0 .265.416 1.714 1.714 0 0 1-1.621-.3 1.111 1.111 0 0 1-.24-.358 1.787 1.787 0 0 0 1.596.242z" class="cls-9" data-name="패스 3113"/>
                <path id="패스_3114" d="M3785.462 220.114l-.009-.009h.006z" class="cls-10" data-name="패스 3114"/>
                <path id="패스_3115" d="M3785.462 220.114l-.009-.009h.006z" class="cls-10" data-name="패스 3115"/>
                <path id="패스_3116" d="M3785.462 220.114l-.009-.009h.006z" class="cls-10" data-name="패스 3116"/>
                <path id="패스_3117" d="M3785.462 220.114l-.009-.009h.006z" class="cls-10" data-name="패스 3117"/>
                <path id="패스_3118" d="M3785.462 220.114l-.009-.009h.006z" class="cls-10" data-name="패스 3118"/>
            </g>
            <circle id="타원_722" cx=".484" cy=".484" r=".484" class="cls-13" data-name="타원 722" transform="translate(3810.941 246.099)"/>
        </g>
        <path id="사각형_2812" d="M0 0h50v50H0z" class="cls-14" data-name="사각형 2812" transform="translate(3771.409 207.378)"/>
    </g>
</svg>
