<svg xmlns="http://www.w3.org/2000/svg" width="50" height="50" viewBox="0 0 50 50">
    <defs>
        <style>
            .cls-1{fill:none}.cls-2{fill:#9b1db2;stroke:#9b1db2;stroke-miterlimit:10;stroke-width:3px}.cls-3{fill:#818180}
        </style>
    </defs>
    <g id="그룹_2607" data-name="그룹 2607" transform="translate(-2018.813 -208.32)">
        <path id="사각형_2753" d="M0 0h50v50H0z" class="cls-1" data-name="사각형 2753" transform="translate(2018.812 208.32)"/>
        <g id="그룹_2606" data-name="그룹 2606">
            <g id="그룹_2604" data-name="그룹 2604">
                <g id="그룹_2603" data-name="그룹 2603">
                    <path id="패스_2674" d="M2038.584 241.729a2.836 2.836 0 0 1-1.8.606h-3.958v-26.948h6.532v11.732l7.464-11.732h7.336l-8.59 12.634 9.234 14.314h-7.143l-8.3-13.287v11.109a1.911 1.911 0 0 1-.775 1.572z" class="cls-2" data-name="패스 2674"/>
                </g>
            </g>
            <g id="그룹_2605" data-name="그룹 2605">
                <path id="패스_2675" d="M2034.483 249.422a1.481 1.481 0 0 0 .024-.159 1.312 1.312 0 0 1 .023-.159l.481-1.71h1.254l-1.164 3.534a.46.46 0 0 1-.142.216.358.358 0 0 1-.242.084h-.733l-1.278-3.834h1.248l.492 1.716a.928.928 0 0 1 .022.159q.009.117.015.153z" class="cls-3" data-name="패스 2675"/>
                <path id="패스_2676" d="M2037.639 246.65a.29.29 0 0 1-.091.234.41.41 0 0 1-.275.078h-.865v-1.1h1.231zm-1.219 4.578v-3.786h1.212v3.366a.372.372 0 0 1-.144.3.515.515 0 0 1-.336.117z" class="cls-3" data-name="패스 2676"/>
                <path id="패스_2677" d="M2038.322 247.544v-1.122h1.206v1.122h.613v.432a.327.327 0 0 1-.087.252.384.384 0 0 1-.261.078h-.265v1.776a.428.428 0 0 0 .055.237.17.17 0 0 0 .15.081h.408v.5a.327.327 0 0 1-.087.252.384.384 0 0 1-.261.078h-.3a1.162 1.162 0 0 1-.866-.306 1.078 1.078 0 0 1-.3-.792v-1.83h-.023a.38.38 0 0 1-.261-.078.324.324 0 0 1-.088-.252v-.432z" class="cls-3" data-name="패스 2677"/>
                <path id="패스_2678" d="M2042.379 251.216c-.012-.044-.022-.068-.03-.072h-.006v-.012l-.2.06a1.633 1.633 0 0 1-.48.06 1.339 1.339 0 0 1-1.014-.342 1.2 1.2 0 0 1-.324-.858 1.145 1.145 0 0 1 .33-.819 1.37 1.37 0 0 1 1.02-.351l.636-.012v-.1a.747.747 0 0 0-.1-.423.314.314 0 0 0-.267-.153.41.41 0 0 0-.249.087.482.482 0 0 0-.159.315h-1.152a1.1 1.1 0 0 1 .479-.9 1.894 1.894 0 0 1 2.233.063 1.256 1.256 0 0 1 .426.954v1.824q0 .168.015.339t.045.345zm-.066-1.638l-.5.006a.272.272 0 0 0-.207.123.5.5 0 0 0-.1.321.438.438 0 0 0 .1.312.3.3 0 0 0 .215.108.451.451 0 0 0 .361-.153.752.752 0 0 0 .132-.495z" class="cls-3" data-name="패스 2678"/>
                <path id="패스_2679" d="M2046.1 251.228v-2.3a.981.981 0 0 0-.1-.489.322.322 0 0 0-.582 0 .984.984 0 0 0-.1.486v1.908a.351.351 0 0 1-.132.291.5.5 0 0 1-.324.1h-.756v-3.012q0-.228-.012-.408t-.036-.4h1.176q.012.06.033.144a.518.518 0 0 1 .021.126.759.759 0 0 1 .342-.234 1.148 1.148 0 0 1 .384-.078 1.223 1.223 0 0 1 .576.132.929.929 0 0 1 .378.342 1.272 1.272 0 0 1 .381-.33 1.1 1.1 0 0 1 .573-.144 1.353 1.353 0 0 1 1.023.4 1.418 1.418 0 0 1 .381 1.026v2.04a.352.352 0 0 1-.132.291.5.5 0 0 1-.324.1h-.762v-2.3a.988.988 0 0 0-.1-.5.32.32 0 0 0-.288-.168.336.336 0 0 0-.291.168.883.883 0 0 0-.111.486v1.926a.351.351 0 0 1-.132.291.5.5 0 0 1-.324.1z" class="cls-3" data-name="패스 2679"/>
                <path id="패스_2680" d="M2051.109 246.65a.294.294 0 0 1-.091.234.414.414 0 0 1-.276.078h-.864v-1.1h1.231zm-1.219 4.578v-3.786h1.212v3.366a.373.373 0 0 1-.144.3.517.517 0 0 1-.336.117z" class="cls-3" data-name="패스 2680"/>
                <path id="패스_2681" d="M2051.708 251.228v-3.006q0-.234-.006-.417a3.55 3.55 0 0 0-.036-.4h1.189a.981.981 0 0 1 .036.138.7.7 0 0 1 .011.1.78.78 0 0 1 .291-.2 1 1 0 0 1 .4-.084 1.232 1.232 0 0 1 .98.393 1.5 1.5 0 0 1 .345 1.029v2.046a.351.351 0 0 1-.132.291.5.5 0 0 1-.324.1h-.75v-2.31a1.016 1.016 0 0 0-.1-.492.327.327 0 0 0-.587.006.975.975 0 0 0-.106.486v1.914a.351.351 0 0 1-.132.291.5.5 0 0 1-.324.1z" class="cls-3" data-name="패스 2681"/>
            </g>
        </g>
    </g>
</svg>
