<svg xmlns="http://www.w3.org/2000/svg" width="50" height="50" viewBox="0 0 50 50">
    <defs>
        <style>
            .cls-1{fill:none}.cls-2{fill:#fa9800;stroke:#fa9800;stroke-miterlimit:10;stroke-width:4px}.cls-3{fill:#f46e0f;stroke:#fff;stroke-linecap:round;stroke-linejoin:round}.cls-4{fill:#818180}
        </style>
    </defs>
    <g id="그룹_2597" data-name="그룹 2597" transform="translate(-1912.896 -209.108)">
        <path id="사각형_2751" d="M0 0h50v50H0z" class="cls-1" data-name="사각형 2751" transform="translate(1912.897 209.108)"/>
        <g id="그룹_2596" data-name="그룹 2596">
            <g id="그룹_2594" data-name="그룹 2594">
                <g id="그룹_2591" data-name="그룹 2591">
                    <g id="그룹_2590" data-name="그룹 2590">
                        <path id="패스_2657" d="M1927.077 242.47a2.362 2.362 0 0 1-1.66-.532 2.027 2.027 0 0 1-.575-1.564v-24.206h9.8a10.171 10.171 0 0 1 6.913 2.369 8.477 8.477 0 0 1 2.954 6.166q.1 1.488.128 4.449t-.128 4.662q-.415 4.556-3.209 6.605a10.947 10.947 0 0 1-6.658 2.051zm10.923-9.355a35.34 35.34 0 0 0 .144-3.872q-.016-2.415-.144-3.812a6.214 6.214 0 0 0-1.1-3.113 3.1 3.1 0 0 0-2.7-1.412h-2.874v16.826h2.874a3.269 3.269 0 0 0 2.476-1.17 5.98 5.98 0 0 0 1.324-3.447z" class="cls-2" data-name="패스 2657"/>
                    </g>
                </g>
                <g id="그룹_2593" data-name="그룹 2593">
                    <g id="그룹_2592" data-name="그룹 2592">
                        <path id="패스_2658" d="M1950.951 240.193a3.328 3.328 0 0 1-.989 2.517 4.268 4.268 0 0 1-5.359.006 3.744 3.744 0 0 1-.983-2.775h2.6a2.378 2.378 0 0 0 .306 1.308.9.9 0 0 0 .77.418.938.938 0 0 0 .73-.378 1.753 1.753 0 0 0 .319-1.149 1.792 1.792 0 0 0-.325-1.149.981.981 0 0 0-.79-.4h-.625v-1.931h.625a.865.865 0 0 0 .657-.385 1.553 1.553 0 0 0 .312-1.009 1.677 1.677 0 0 0-.279-1.056.785.785 0 0 0-.611-.352.8.8 0 0 0-.67.4 2.43 2.43 0 0 0-.313 1.235h-2.589a3.659 3.659 0 0 1 1-2.683 3.922 3.922 0 0 1 5.1 0 3.207 3.207 0 0 1 .943 2.365 2.948 2.948 0 0 1-.4 1.447 1.935 1.935 0 0 1-1.022.943 2.5 2.5 0 0 1 1.136 1.056 3.025 3.025 0 0 1 .457 1.572z" class="cls-3" data-name="패스 2658"/>
                    </g>
                </g>
            </g>
            <g id="그룹_2595" data-name="그룹 2595">
                <path id="패스_2659" d="M1928.567 250.219a1.224 1.224 0 0 0 .025-.159 1.006 1.006 0 0 1 .023-.159l.481-1.71h1.253l-1.164 3.534a.459.459 0 0 1-.141.216.362.362 0 0 1-.242.084h-.733l-1.278-3.834h1.248l.492 1.716a.928.928 0 0 1 .022.159c.005.078.01.134.014.153z" class="cls-4" data-name="패스 2659"/>
                <path id="패스_2660" d="M1931.723 247.447a.293.293 0 0 1-.09.234.414.414 0 0 1-.276.078h-.864v-1.1h1.23zm-1.218 4.578v-3.786h1.212v3.361a.373.373 0 0 1-.144.3.517.517 0 0 1-.336.117z" class="cls-4" data-name="패스 2660"/>
                <path id="패스_2661" d="M1932.407 248.341v-1.122h1.206v1.122h.612v.432a.323.323 0 0 1-.087.252.379.379 0 0 1-.26.078h-.265v1.776a.428.428 0 0 0 .055.237.169.169 0 0 0 .149.081h.408v.5a.323.323 0 0 1-.087.252.379.379 0 0 1-.26.078h-.3a1.162 1.162 0 0 1-.866-.306 1.078 1.078 0 0 1-.3-.792V249.1h-.023a.377.377 0 0 1-.261-.078.32.32 0 0 1-.088-.252v-.432z" class="cls-4" data-name="패스 2661"/>
                <path id="패스_2662" d="M1936.464 252.013c-.012-.044-.023-.068-.031-.072h-.005v-.012l-.2.06a1.63 1.63 0 0 1-.479.06 1.343 1.343 0 0 1-1.015-.342 1.2 1.2 0 0 1-.323-.858 1.141 1.141 0 0 1 .33-.819 1.37 1.37 0 0 1 1.02-.351l.635-.012v-.1a.747.747 0 0 0-.1-.423.315.315 0 0 0-.268-.153.41.41 0 0 0-.249.087.481.481 0 0 0-.158.315h-1.152a1.1 1.1 0 0 1 .479-.9 1.894 1.894 0 0 1 2.233.063 1.255 1.255 0 0 1 .425.954v1.824a4.18 4.18 0 0 0 .061.684zm-.067-1.638l-.5.006a.275.275 0 0 0-.207.123.5.5 0 0 0-.1.321.442.442 0 0 0 .1.312.3.3 0 0 0 .216.108.449.449 0 0 0 .36-.153.752.752 0 0 0 .132-.495z" class="cls-4" data-name="패스 2662"/>
                <path id="패스_2663" d="M1940.188 252.025v-2.3a.98.98 0 0 0-.1-.489.322.322 0 0 0-.582 0 .973.973 0 0 0-.106.486v1.908a.351.351 0 0 1-.132.291.5.5 0 0 1-.324.1h-.756v-3.012c0-.152 0-.288-.011-.408s-.02-.252-.036-.4h1.175l.034.144a.572.572 0 0 1 .021.126.754.754 0 0 1 .342-.234 1.14 1.14 0 0 1 .384-.078 1.226 1.226 0 0 1 .576.132.928.928 0 0 1 .378.342 1.249 1.249 0 0 1 .381-.33 1.1 1.1 0 0 1 .573-.144 1.351 1.351 0 0 1 1.022.4 1.415 1.415 0 0 1 .382 1.026v2.04a.349.349 0 0 1-.133.291.5.5 0 0 1-.323.1h-.763v-2.3a.991.991 0 0 0-.1-.5.321.321 0 0 0-.288-.168.336.336 0 0 0-.291.168.874.874 0 0 0-.112.486v1.926a.351.351 0 0 1-.132.291.5.5 0 0 1-.324.1z" class="cls-4" data-name="패스 2663"/>
                <path id="패스_2664" d="M1945.193 247.447a.29.29 0 0 1-.091.234.409.409 0 0 1-.275.078h-.864v-1.1h1.23zm-1.219 4.578v-3.786h1.212v3.361a.374.374 0 0 1-.143.3.517.517 0 0 1-.336.117z" class="cls-4" data-name="패스 2664"/>
                <path id="패스_2665" d="M1945.793 252.025v-3.006q0-.234-.006-.417a3.83 3.83 0 0 0-.036-.4h1.188a.771.771 0 0 1 .036.138.715.715 0 0 1 .012.1.773.773 0 0 1 .291-.2 1 1 0 0 1 .4-.084 1.234 1.234 0 0 1 .98.393 1.5 1.5 0 0 1 .345 1.029v2.046a.351.351 0 0 1-.132.291.5.5 0 0 1-.324.1h-.75v-2.31a1.026 1.026 0 0 0-.1-.492.328.328 0 0 0-.588.006.984.984 0 0 0-.1.486v1.914a.351.351 0 0 1-.132.291.5.5 0 0 1-.324.1z" class="cls-4" data-name="패스 2665"/>
            </g>
        </g>
    </g>
</svg>
