<svg xmlns="http://www.w3.org/2000/svg" width="50" height="50" viewBox="0 0 50 50">
    <defs>
        <style>
            .cls-1{fill:none}.cls-2{fill:#fa9800;stroke:#fa9800;stroke-miterlimit:10;stroke-width:4px}.cls-3{fill:#818180}
        </style>
    </defs>
    <g id="그룹_2602" data-name="그룹 2602" transform="translate(-2070.506 -209.124)">
        <path id="사각형_2752" d="M0 0h50v50H0z" class="cls-1" data-name="사각형 2752" transform="translate(2070.505 209.124)"/>
        <g id="그룹_2601" data-name="그룹 2601">
            <g id="그룹_2599" data-name="그룹 2599">
                <g id="그룹_2598" data-name="그룹 2598">
                    <path id="패스_2666" d="M2087.838 242.533a2.36 2.36 0 0 1-1.66-.531 2.028 2.028 0 0 1-.575-1.564v-24.206h9.8a10.166 10.166 0 0 1 6.913 2.369 8.474 8.474 0 0 1 2.954 6.165q.1 1.488.128 4.449t-.128 4.662q-.415 4.557-3.209 6.606a10.946 10.946 0 0 1-6.658 2.05zm10.922-9.354a35.14 35.14 0 0 0 .143-3.872q-.015-2.415-.143-3.812a6.22 6.22 0 0 0-1.1-3.113 3.1 3.1 0 0 0-2.7-1.412h-2.874v16.83h2.874a3.27 3.27 0 0 0 2.476-1.17 5.983 5.983 0 0 0 1.324-3.451z" class="cls-2" data-name="패스 2666"/>
                </g>
            </g>
            <g id="그룹_2600" data-name="그룹 2600">
                <path id="패스_2667" d="M2086.175 250.187a1.208 1.208 0 0 0 .025-.159 1.181 1.181 0 0 1 .023-.159l.481-1.71h1.254l-1.164 3.534a.469.469 0 0 1-.142.216.359.359 0 0 1-.242.084h-.733l-1.278-3.834h1.248l.492 1.716a.9.9 0 0 1 .022.159c.006.078.011.129.014.153z" class="cls-3" data-name="패스 2667"/>
                <path id="패스_2668" d="M2089.332 247.415a.293.293 0 0 1-.091.234.411.411 0 0 1-.276.078h-.864v-1.1h1.231zm-1.219 4.578v-3.786h1.212v3.366a.372.372 0 0 1-.144.3.515.515 0 0 1-.336.117z" class="cls-3" data-name="패스 2668"/>
                <path id="패스_2669" d="M2090.015 248.309v-1.122h1.206v1.122h.613v.432a.327.327 0 0 1-.087.252.384.384 0 0 1-.261.078h-.265v1.776a.429.429 0 0 0 .055.237.17.17 0 0 0 .149.081h.409v.5a.327.327 0 0 1-.087.252.384.384 0 0 1-.261.078h-.3a1.162 1.162 0 0 1-.866-.306 1.078 1.078 0 0 1-.3-.792v-1.83h-.023a.381.381 0 0 1-.261-.078.324.324 0 0 1-.088-.252v-.432z" class="cls-3" data-name="패스 2669"/>
                <path id="패스_2670" d="M2094.072 251.981a.163.163 0 0 0-.03-.072h-.006v-.009l-.2.06a1.637 1.637 0 0 1-.48.06 1.343 1.343 0 0 1-1.015-.342 1.2 1.2 0 0 1-.323-.858 1.144 1.144 0 0 1 .33-.819 1.37 1.37 0 0 1 1.02-.351l.636-.012v-.1a.746.746 0 0 0-.105-.423.314.314 0 0 0-.268-.153.414.414 0 0 0-.249.087.484.484 0 0 0-.158.315h-1.152a1.1 1.1 0 0 1 .479-.9 1.894 1.894 0 0 1 2.233.063 1.256 1.256 0 0 1 .426.954v1.819c0 .112 0 .225.015.339s.025.229.045.345zm-.066-1.638l-.5.006a.272.272 0 0 0-.207.123.5.5 0 0 0-.1.321.437.437 0 0 0 .1.312.3.3 0 0 0 .215.108.452.452 0 0 0 .361-.153.752.752 0 0 0 .132-.495z" class="cls-3" data-name="패스 2670"/>
                <path id="패스_2671" d="M2097.8 251.993v-2.3a.98.98 0 0 0-.105-.489.322.322 0 0 0-.582 0 .983.983 0 0 0-.105.486v1.91a.351.351 0 0 1-.132.291.505.505 0 0 1-.325.1h-.755v-3.012q0-.228-.012-.408t-.036-.4h1.176q.012.06.033.144a.58.58 0 0 1 .021.126.759.759 0 0 1 .342-.234 1.15 1.15 0 0 1 .384-.078 1.224 1.224 0 0 1 .576.132.929.929 0 0 1 .378.342 1.275 1.275 0 0 1 .381-.33 1.1 1.1 0 0 1 .573-.144 1.354 1.354 0 0 1 1.023.4 1.419 1.419 0 0 1 .381 1.026v2.04a.351.351 0 0 1-.132.291.5.5 0 0 1-.324.1h-.762v-2.3a.991.991 0 0 0-.1-.5.32.32 0 0 0-.288-.168.336.336 0 0 0-.291.168.883.883 0 0 0-.111.486v1.928a.351.351 0 0 1-.132.291.506.506 0 0 1-.324.1z" class="cls-3" data-name="패스 2671"/>
                <path id="패스_2672" d="M2102.8 247.415a.293.293 0 0 1-.09.234.413.413 0 0 1-.276.078h-.864v-1.1h1.23zm-1.218 4.578v-3.786h1.212v3.366a.372.372 0 0 1-.144.3.516.516 0 0 1-.336.117z" class="cls-3" data-name="패스 2672"/>
                <path id="패스_2673" d="M2103.4 251.993v-3.006q0-.234-.006-.417a3.554 3.554 0 0 0-.036-.4h1.189a1.016 1.016 0 0 1 .036.138.831.831 0 0 1 .011.1.782.782 0 0 1 .291-.2 1 1 0 0 1 .4-.084 1.233 1.233 0 0 1 .98.393 1.5 1.5 0 0 1 .345 1.029v2.054a.352.352 0 0 1-.132.291.5.5 0 0 1-.324.1h-.75v-2.31a1.013 1.013 0 0 0-.1-.492.319.319 0 0 0-.3-.18.323.323 0 0 0-.291.186.983.983 0 0 0-.1.486v1.919a.351.351 0 0 1-.132.291.5.5 0 0 1-.324.1z" class="cls-3" data-name="패스 2673"/>
            </g>
        </g>
    </g>
</svg>
