<svg xmlns="http://www.w3.org/2000/svg" width="50" height="50" viewBox="0 0 50 50">
    <defs>
        <style>
            .cls-1{fill:none}.cls-2{fill:#ea3524}.cls-3{fill:#f46e0f;stroke:#fff;stroke-linecap:round;stroke-linejoin:round}.cls-4{fill:#818180}
        </style>
    </defs>
    <g id="그룹_2663" data-name="그룹 2663" transform="translate(-2420.477 -208.193)">
        <path id="사각형_2760" d="M0 0h50v50H0z" class="cls-1" data-name="사각형 2760" transform="translate(2420.477 208.193)"/>
        <g id="그룹_2662" data-name="그룹 2662">
            <g id="그룹_2660" data-name="그룹 2660">
                <g id="그룹_2657" data-name="그룹 2657">
                    <g id="그룹_2656" data-name="그룹 2656">
                        <g id="그룹_2655" data-name="그룹 2655">
                            <path id="패스_2734" d="M2454.907 230.841a7.994 7.994 0 0 0-1.993-1.979 7.723 7.723 0 0 0 1.729-1.657 6.42 6.42 0 0 0 1.172-3.875 7.949 7.949 0 0 0-3.051-6.439c-2.014-1.627-4.85-2.456-8.437-2.456H2430.1v26.237a3.017 3.017 0 0 0 1.108 2.474 4.576 4.576 0 0 0 2.957.888h10.616a13.129 13.129 0 0 0 8.309-2.444 8.014 8.014 0 0 0 3.143-6.6 7.219 7.219 0 0 0-1.326-4.149zm-10.08-5.854a1.269 1.269 0 0 1-.95.388h-4.708v-3.649h4.708a1.313 1.313 0 0 1 .972.37 1.875 1.875 0 0 1 .464 1.419 1.972 1.972 0 0 1-.486 1.472zm.365 11.327a1.255 1.255 0 0 1-.979.435h-5.044v-4.089h5.044a1.253 1.253 0 0 1 .986.423 2.72 2.72 0 0 1-.007 3.231z" class="cls-2" data-name="패스 2734"/>
                        </g>
                    </g>
                </g>
                <g id="그룹_2659" data-name="그룹 2659">
                    <g id="그룹_2658" data-name="그룹 2658">
                        <path id="패스_2735" d="M2453.756 233.248a.741.741 0 0 1-.193-.565v-1.235h7.318v1.9a50.774 50.774 0 0 0-2.079 5.086 45.325 45.325 0 0 0-1.295 4.542h-2.776a49.251 49.251 0 0 1 1.66-4.993q.916-2.312 1.966-4.556h-4.025a.822.822 0 0 1-.576-.179z" class="cls-3" data-name="패스 2735"/>
                    </g>
                </g>
            </g>
            <g id="그룹_2661" data-name="그룹 2661">
                <path id="패스_2736" d="M2436.215 250.218a1.135 1.135 0 0 0 .024-.159 1.142 1.142 0 0 1 .023-.159l.474-1.712 1.253-.005-1.15 3.539a.464.464 0 0 1-.14.216.366.366 0 0 1-.242.085h-.733l-1.293-3.829 1.248-.005.5 1.714a.9.9 0 0 1 .022.159c.005.081.01.132.014.156z" class="cls-4" data-name="패스 2736"/>
                <path id="패스_2737" d="M2439.361 247.434a.294.294 0 0 1-.09.234.41.41 0 0 1-.275.079h-.865v-1.1h1.23zm-1.2 4.582l-.015-3.786h1.212l.013 3.365a.373.373 0 0 1-.142.3.518.518 0 0 1-.336.118z" class="cls-4" data-name="패스 2737"/>
                <path id="패스_2738" d="M2440.048 248.324l-.005-1.121 1.206-.005v1.122h.612v.432a.327.327 0 0 1-.086.253.388.388 0 0 1-.261.079h-.264l.007 1.776a.427.427 0 0 0 .055.237.171.171 0 0 0 .15.08h.408v.5a.322.322 0 0 1-.086.252.379.379 0 0 1-.26.079h-.3a1.16 1.16 0 0 1-.867-.3 1.08 1.08 0 0 1-.307-.791l-.007-1.83h-.024a.38.38 0 0 1-.261-.077.323.323 0 0 1-.089-.252v-.432z" class="cls-4" data-name="패스 2738"/>
                <path id="패스_2739" d="M2444.119 251.981c-.012-.045-.023-.069-.031-.072h-.006v-.009l-.2.061a1.652 1.652 0 0 1-.479.061 1.338 1.338 0 0 1-1.016-.338 1.2 1.2 0 0 1-.327-.856 1.144 1.144 0 0 1 .327-.82 1.365 1.365 0 0 1 1.018-.355l.636-.015v-.1a.754.754 0 0 0-.106-.423.315.315 0 0 0-.269-.151.408.408 0 0 0-.248.087.482.482 0 0 0-.157.316l-1.153.005a1.106 1.106 0 0 1 .476-.9 1.894 1.894 0 0 1 2.233.054 1.256 1.256 0 0 1 .43.952l.007 1.824a4.187 4.187 0 0 0 .063.684zm-.073-1.638l-.5.008a.271.271 0 0 0-.206.124.5.5 0 0 0-.1.321.442.442 0 0 0 .1.312.3.3 0 0 0 .216.107.456.456 0 0 0 .36-.154.758.758 0 0 0 .13-.5z" class="cls-4" data-name="패스 2739"/>
                <path id="패스_2740" d="M2447.843 251.978l-.009-2.3a.969.969 0 0 0-.106-.489.322.322 0 0 0-.582.005.99.99 0 0 0-.1.487l.008 1.908a.35.35 0 0 1-.131.291.507.507 0 0 1-.324.107h-.755l-.012-3.012c0-.152 0-.288-.014-.408s-.02-.252-.037-.4l1.175-.005.034.144a.538.538 0 0 1 .022.126.757.757 0 0 1 .341-.235 1.146 1.146 0 0 1 .383-.08 1.215 1.215 0 0 1 .577.13.928.928 0 0 1 .379.34 1.285 1.285 0 0 1 .38-.331 1.094 1.094 0 0 1 .573-.146 1.352 1.352 0 0 1 1.024.391 1.42 1.42 0 0 1 .386 1.025l.008 2.04a.348.348 0 0 1-.132.291.5.5 0 0 1-.323.107h-.762l-.01-2.3a.987.987 0 0 0-.1-.5.322.322 0 0 0-.289-.167.335.335 0 0 0-.29.17.875.875 0 0 0-.11.486l.008 1.926a.351.351 0 0 1-.131.291.5.5 0 0 1-.324.107z" class="cls-4" data-name="패스 2740"/>
                <path id="패스_2741" d="M2452.83 247.38a.287.287 0 0 1-.09.234.414.414 0 0 1-.275.08h-.864v-1.1l1.23-.005zm-1.2 4.583l-.015-3.786 1.211-.005.014 3.366a.375.375 0 0 1-.143.3.519.519 0 0 1-.335.118z" class="cls-4" data-name="패스 2741"/>
                <path id="패스_2742" d="M2453.448 251.955l-.012-3.006c0-.155 0-.294-.008-.416a3.544 3.544 0 0 0-.037-.4l1.188-.005a.892.892 0 0 1 .037.138.71.71 0 0 1 .012.1.771.771 0 0 1 .29-.2 1 1 0 0 1 .4-.086 1.233 1.233 0 0 1 .982.389 1.5 1.5 0 0 1 .349 1.028l.008 2.046a.349.349 0 0 1-.13.291.5.5 0 0 1-.324.106h-.75l-.009-2.31a1.027 1.027 0 0 0-.1-.491.319.319 0 0 0-.3-.179.324.324 0 0 0-.29.187.981.981 0 0 0-.1.486l.007 1.915a.35.35 0 0 1-.13.291.5.5 0 0 1-.324.106z" class="cls-4" data-name="패스 2742"/>
            </g>
        </g>
    </g>
</svg>
