<svg xmlns="http://www.w3.org/2000/svg" width="50" height="50" viewBox="0 0 50 50">
    <defs>
        <style>
            .cls-1{fill:none}.cls-2{fill:#0d4e86;stroke:#0d4e86;stroke-miterlimit:10}.cls-3{fill:#818180}
        </style>
    </defs>
    <g id="그룹_2684" data-name="그룹 2684" transform="translate(-2744.63 -209.884)">
        <path id="사각형_2765" d="M0 0h50v50H0z" class="cls-1" data-name="사각형 2765" transform="translate(2744.629 209.884)"/>
        <g id="그룹_2683" data-name="그룹 2683">
            <g id="그룹_2681" data-name="그룹 2681">
                <path id="패스_2778" d="M2765.6 241.159a2.134 2.134 0 0 1-1.389.483h-3.05v-21.47h5.033v9.347l5.753-9.347h5.652l-6.62 10.066 7.116 11.4h-5.5l-6.4-10.586v8.851a1.54 1.54 0 0 1-.595 1.256z" class="cls-2" data-name="패스 2778"/>
            </g>
            <g id="그룹_2682" data-name="그룹 2682">
                <path id="패스_2779" d="M2755.527 249.6v-5.2h1.349l1.05 2.988 1.044-2.988h1.356v4.776a.372.372 0 0 1-.144.3.521.521 0 0 1-.336.116h-.737v-2.447c0-.02 0-.067.006-.142s.005-.123.005-.147c0 .017-.01.059-.021.126a.872.872 0 0 1-.026.132l-.582 1.693a.452.452 0 0 1-.16.231.447.447 0 0 1-.266.081h-.582l-.685-2.04a1.415 1.415 0 0 1-.026-.144.764.764 0 0 0-.033-.144V249.172a.373.373 0 0 1-.144.3.522.522 0 0 1-.336.116z" class="cls-3" data-name="패스 2779"/>
                <path id="패스_2780" d="M2761.124 244.4h1.218v4.776a.376.376 0 0 1-.144.3.521.521 0 0 1-.336.116h-.738z" class="cls-3" data-name="패스 2780"/>
                <path id="패스_2781" d="M2765.949 249.6l-1.525-2.706c-.008-.019-.021-.067-.042-.14a.658.658 0 0 0-.048-.142c0 .028.01.083.019.166s.012.134.012.158v2.244a.374.374 0 0 1-.145.3.521.521 0 0 1-.336.116h-.737v-5.2h1.1l1.5 2.646a.582.582 0 0 1 .053.142 1.069 1.069 0 0 0 .054.152c0-.031 0-.084-.012-.155a1.5 1.5 0 0 1-.011-.151v-2.63h1.223v4.776a.378.378 0 0 1-.143.3.524.524 0 0 1-.336.116z" class="cls-3" data-name="패스 2781"/>
                <path id="패스_2782" d="M2769.062 245.336v1.164h1.86v.617a.32.32 0 0 1-.088.252.376.376 0 0 1-.26.078h-1.512v1.212h2.178v.522a.417.417 0 0 1-.108.309.431.431 0 0 1-.312.1h-2.556a.432.432 0 0 1-.313-.1.415.415 0 0 1-.107-.309V244.4h3.4v.606a.324.324 0 0 1-.087.252.376.376 0 0 1-.261.079z" class="cls-3" data-name="패스 2782"/>
                <path id="패스_2783" d="M2771.84 249.6v-5.2h1.991a1.632 1.632 0 0 1 1.231.459 1.576 1.576 0 0 1 .444 1.138 1.416 1.416 0 0 1-.336.947 1.036 1.036 0 0 1-.642.426 1.412 1.412 0 0 1 .306.291 1.263 1.263 0 0 1 .168.34q.144.412.309.894a1.837 1.837 0 0 0 .387.7h-1.32a1.338 1.338 0 0 1-.337-.705 7.673 7.673 0 0 0-.227-.861 1.316 1.316 0 0 0-.165-.339c-.071-.1-.133-.152-.189-.152h-.4v1.637a.374.374 0 0 1-.145.3.52.52 0 0 1-.336.116zm2.447-3.6a.716.716 0 0 0-.152-.487.473.473 0 0 0-.363-.173h-.714v1.319h.714a.469.469 0 0 0 .363-.173.713.713 0 0 0 .152-.486z" class="cls-3" data-name="패스 2783"/>
                <path id="패스_2784" d="M2778.836 249.6l-.282-.936h-1.374l-.288.936h-1.254l1.722-5.2h1.008l1.728 5.2zm-.942-3.36q-.012.042-.033.132l-.033.138-.377 1.272h.857l-.359-1.272a1.34 1.34 0 0 1-.028-.138 1.313 1.313 0 0 0-.027-.137z" class="cls-3" data-name="패스 2784"/>
                <path id="패스_2785" d="M2783.624 249.49a.43.43 0 0 1-.312.1h-2.512a.428.428 0 0 1-.312-.1.412.412 0 0 1-.108-.309V244.4h1.218v4.26h2.136v.522a.412.412 0 0 1-.11.308z" class="cls-3" data-name="패스 2785"/>
            </g>
        </g>
    </g>
</svg>
