<svg xmlns="http://www.w3.org/2000/svg" width="50" height="50" viewBox="0 0 50 50">
    <defs>
        <style>
            .cls-1{fill:none}.cls-2{fill:#0d4e86;stroke:#0d4e86;stroke-miterlimit:10}.cls-3{fill:#818180}
        </style>
    </defs>
    <g id="그룹_2692" data-name="그룹 2692" transform="translate(-2801.892 -209.828)">
        <path id="사각형_2767" d="M0 0h50v50H0z" class="cls-1" data-name="사각형 2767" transform="translate(2801.891 209.828)"/>
        <g id="그룹_2691" data-name="그룹 2691">
            <g id="그룹_2689" data-name="그룹 2689">
                <path id="패스_2794" d="M2825.465 241.18a1.777 1.777 0 0 1-1.289.434h-10.562a1.776 1.776 0 0 1-1.289-.434 1.7 1.7 0 0 1-.446-1.277v-1.611l7.388-12.719c.181-.281.347-.533.5-.756s.347-.508.595-.855a4.361 4.361 0 0 1-.732.062c-.14-.009-.368-.013-.682-.013h-5.28a1.572 1.572 0 0 1-1.079-.322 1.335 1.335 0 0 1-.359-1.042v-2.5h13.685v3.247l-7.462 12.868q-.223.4-.459.731t-.582.806q.5-.05.693-.05h7.81v2.151a1.7 1.7 0 0 1-.45 1.28z" class="cls-2" data-name="패스 2794"/>
                <path id="패스_2795" d="M2828.638 241.614v-12.421q0-.967-.024-1.723a16.155 16.155 0 0 0-.149-1.649h4.909a3.142 3.142 0 0 1 .148.57 3.021 3.021 0 0 1 .05.422 3.183 3.183 0 0 1 1.2-.818 4.114 4.114 0 0 1 1.648-.348 5.111 5.111 0 0 1 4.054 1.624 6.215 6.215 0 0 1 1.426 4.252v8.455a1.45 1.45 0 0 1-.546 1.2 2.085 2.085 0 0 1-1.339.434h-3.1v-9.545a4.241 4.241 0 0 0-.409-2.033 1.354 1.354 0 0 0-2.43.025 4.064 4.064 0 0 0-.433 2.008v7.909a1.45 1.45 0 0 1-.546 1.2 2.086 2.086 0 0 1-1.339.434z" class="cls-2" data-name="패스 2795"/>
            </g>
            <g id="그룹_2690" data-name="그룹 2690">
                <path id="패스_2796" d="M2812.788 249.513v-5.2h1.35l1.05 2.988 1.044-2.988h1.356v4.776a.37.37 0 0 1-.145.3.515.515 0 0 1-.335.117h-.738v-2.448q0-.03.006-.141c0-.074.006-.123.006-.147 0 .016-.011.058-.022.126a.674.674 0 0 1-.026.132l-.582 1.692a.423.423 0 0 1-.426.312h-.582l-.684-2.04a1.253 1.253 0 0 1-.027-.144.648.648 0 0 0-.033-.144c0 .036.006.094.006.174v2.208a.371.371 0 0 1-.145.3.514.514 0 0 1-.335.117z" class="cls-3" data-name="패스 2796"/>
                <path id="패스_2797" d="M2818.386 244.317h1.218v4.776a.371.371 0 0 1-.145.3.517.517 0 0 1-.336.117h-.737z" class="cls-3" data-name="패스 2797"/>
                <path id="패스_2798" d="M2823.21 249.513l-1.524-2.706q-.012-.03-.042-.141a.7.7 0 0 0-.048-.141c0 .028.01.083.018.165s.012.135.012.159v2.244a.373.373 0 0 1-.144.3.517.517 0 0 1-.336.117h-.738v-5.2h1.1l1.494 2.646a.568.568 0 0 1 .054.141.978.978 0 0 0 .054.153q0-.048-.012-.156t-.012-.15v-2.634h1.224v4.776a.373.373 0 0 1-.144.3.517.517 0 0 1-.336.117z" class="cls-3" data-name="패스 2798"/>
                <path id="패스_2799" d="M2826.323 245.253v1.164h1.861v.618a.323.323 0 0 1-.088.252.38.38 0 0 1-.261.078h-1.512v1.212h2.178v.522a.415.415 0 0 1-.107.309.438.438 0 0 1-.313.1h-2.555a.435.435 0 0 1-.313-.1.416.416 0 0 1-.107-.309v-4.782h3.4v.606a.324.324 0 0 1-.087.252.377.377 0 0 1-.261.078z" class="cls-3" data-name="패스 2799"/>
                <path id="패스_2800" d="M2829.1 249.513v-5.2h1.991a1.631 1.631 0 0 1 1.23.459 1.573 1.573 0 0 1 .445 1.137 1.422 1.422 0 0 1-.336.948 1.048 1.048 0 0 1-.643.426 1.42 1.42 0 0 1 .307.291 1.3 1.3 0 0 1 .168.339c.1.276.2.574.308.894a1.864 1.864 0 0 0 .387.7h-1.319a1.331 1.331 0 0 1-.337-.705 7.877 7.877 0 0 0-.228-.861 1.27 1.27 0 0 0-.165-.339c-.07-.1-.133-.153-.188-.153h-.4v1.638a.37.37 0 0 1-.144.3.517.517 0 0 1-.336.117zm2.447-3.6a.716.716 0 0 0-.152-.486.472.472 0 0 0-.364-.174h-.714v1.32h.714a.472.472 0 0 0 .364-.174.716.716 0 0 0 .154-.486z" class="cls-3" data-name="패스 2800"/>
                <path id="패스_2801" d="M2836.1 249.513l-.282-.936h-1.374l-.289.936h-1.255l1.721-5.2h1.009l1.728 5.2zm-.943-3.36l-.033.132-.032.138-.378 1.272h.857l-.359-1.272a1.468 1.468 0 0 1-.027-.138 1.24 1.24 0 0 0-.03-.132z" class="cls-3" data-name="패스 2801"/>
                <path id="패스_2802" d="M2840.886 249.408a.437.437 0 0 1-.313.1h-2.513a.435.435 0 0 1-.313-.1.415.415 0 0 1-.107-.309v-4.782h1.218v4.26h2.135v.522a.415.415 0 0 1-.107.309z" class="cls-3" data-name="패스 2802"/>
            </g>
        </g>
    </g>
</svg>
