<svg xmlns="http://www.w3.org/2000/svg" width="50" height="50" viewBox="0 0 50 50">
    <defs>
        <style>
            .cls-1{fill:none}.cls-2{fill:#ea3524}.cls-3{fill:#f46e0f;stroke:#fff;stroke-linecap:round;stroke-linejoin:round}.cls-4{fill:#818180}
        </style>
    </defs>
    <g id="그룹_2654" data-name="그룹 2654" transform="translate(-2362.508 -208.231)">
        <path id="사각형_2759" d="M0 0h50v50H0z" class="cls-1" data-name="사각형 2759" transform="translate(2362.508 208.231)"/>
        <g id="그룹_2653" data-name="그룹 2653">
            <g id="그룹_2651" data-name="그룹 2651">
                <g id="그룹_2648" data-name="그룹 2648">
                    <g id="그룹_2647" data-name="그룹 2647">
                        <g id="그룹_2646" data-name="그룹 2646">
                            <path id="패스_2725" d="M2397.016 230.994a8.007 8.007 0 0 0-1.985-1.987 7.718 7.718 0 0 0 1.735-1.651 6.42 6.42 0 0 0 1.187-3.87 7.944 7.944 0 0 0-3.025-6.45c-2.008-1.636-4.841-2.476-8.427-2.49l-14.231-.057-.1 26.237a3.018 3.018 0 0 0 1.1 2.478 4.584 4.584 0 0 0 2.955.9l10.615.042a13.122 13.122 0 0 0 8.319-2.411 8.016 8.016 0 0 0 3.169-6.593 7.216 7.216 0 0 0-1.312-4.148zm-10.057-5.894a1.267 1.267 0 0 1-.952.383l-4.707-.018.014-3.649 4.708.019a1.313 1.313 0 0 1 .97.374 1.874 1.874 0 0 1 .459 1.42 1.976 1.976 0 0 1-.492 1.471zm.32 11.328a1.258 1.258 0 0 1-.981.431l-5.044-.02.017-4.089 5.043.02a1.255 1.255 0 0 1 .985.427 2.719 2.719 0 0 1-.02 3.231z" class="cls-2" data-name="패스 2725"/>
                        </g>
                    </g>
                </g>
                <g id="그룹_2650" data-name="그룹 2650">
                    <g id="그룹_2649" data-name="그룹 2649">
                        <path id="패스_2726" d="M2402.849 239.819a3.332 3.332 0 0 1-1 2.512 4.269 4.269 0 0 1-5.36-.014 3.746 3.746 0 0 1-.972-2.78l2.6.01a2.381 2.381 0 0 0 .3 1.31.9.9 0 0 0 .768.421.938.938 0 0 0 .732-.375 1.758 1.758 0 0 0 .324-1.148 1.793 1.793 0 0 0-.321-1.15.983.983 0 0 0-.789-.408h-.624l.008-1.925h.624a.867.867 0 0 0 .66-.383 1.551 1.551 0 0 0 .315-1.007 1.675 1.675 0 0 0-.275-1.057.785.785 0 0 0-.609-.355.8.8 0 0 0-.672.4 2.426 2.426 0 0 0-.317 1.234l-2.59-.011a3.658 3.658 0 0 1 1.006-2.678 3.919 3.919 0 0 1 5.1.02 3.2 3.2 0 0 1 .934 2.368 2.958 2.958 0 0 1-.4 1.446 1.935 1.935 0 0 1-1.027.939 2.486 2.486 0 0 1 1.132 1.06 3.031 3.031 0 0 1 .453 1.571z" class="cls-3" data-name="패스 2726"/>
                    </g>
                </g>
            </g>
            <g id="그룹_2652" data-name="그룹 2652">
                <path id="패스_2727" d="M2378.178 250.143a1.088 1.088 0 0 0 .024-.159 1.109 1.109 0 0 1 .024-.16l.48-1.71h1.254l-1.164 3.535a.45.45 0 0 1-.142.215.353.353 0 0 1-.242.084h-.732l-1.278-3.834h1.248l.492 1.717a.987.987 0 0 1 .021.158c.006.079.011.129.015.154z" class="cls-4" data-name="패스 2727"/>
                <path id="패스_2728" d="M2381.334 247.371a.291.291 0 0 1-.091.234.413.413 0 0 1-.275.078h-.864v-1.1h1.23zm-1.219 4.577v-3.785h1.212v3.366a.374.374 0 0 1-.143.3.522.522 0 0 1-.336.116z" class="cls-4" data-name="패스 2728"/>
                <path id="패스_2729" d="M2382.018 248.264v-1.121h1.206v1.121h.612v.433a.32.32 0 0 1-.087.251.376.376 0 0 1-.261.079h-.264v1.773a.431.431 0 0 0 .054.238.173.173 0 0 0 .15.081h.408v.5a.327.327 0 0 1-.087.252.386.386 0 0 1-.261.078h-.3a1.166 1.166 0 0 1-.867-.306 1.078 1.078 0 0 1-.3-.792v-1.83h-.024a.371.371 0 0 1-.26-.079.317.317 0 0 1-.088-.251v-.433z" class="cls-4" data-name="패스 2729"/>
                <path id="패스_2730" d="M2386.074 251.937c-.011-.045-.022-.069-.03-.073h-.006v-.011l-.2.06a1.67 1.67 0 0 1-.479.059 1.343 1.343 0 0 1-1.015-.341 1.2 1.2 0 0 1-.323-.858 1.141 1.141 0 0 1 .33-.819 1.366 1.366 0 0 1 1.019-.351l.636-.012v-.1a.741.741 0 0 0-.1-.423.314.314 0 0 0-.267-.153.411.411 0 0 0-.249.087.482.482 0 0 0-.158.315h-1.153a1.1 1.1 0 0 1 .48-.9 1.892 1.892 0 0 1 2.232.063 1.254 1.254 0 0 1 .426.953v1.825c0 .111 0 .225.016.339a3.479 3.479 0 0 0 .045.345zm-.066-1.638l-.5.005a.273.273 0 0 0-.207.123.5.5 0 0 0-.1.322.442.442 0 0 0 .1.312.3.3 0 0 0 .216.108.454.454 0 0 0 .36-.153.751.751 0 0 0 .132-.5z" class="cls-4" data-name="패스 2730"/>
                <path id="패스_2731" d="M2389.8 251.948v-2.3a.99.99 0 0 0-.1-.49.323.323 0 0 0-.583 0 .987.987 0 0 0-.1.487v1.907a.35.35 0 0 1-.132.291.5.5 0 0 1-.324.1h-.756v-3.011c0-.153 0-.288-.012-.408s-.019-.252-.036-.4h1.176l.033.144a.538.538 0 0 1 .022.126.746.746 0 0 1 .342-.234 1.114 1.114 0 0 1 .383-.078 1.235 1.235 0 0 1 .576.131.938.938 0 0 1 .378.343 1.273 1.273 0 0 1 .381-.33 1.1 1.1 0 0 1 .573-.144 1.35 1.35 0 0 1 1.023.4 1.415 1.415 0 0 1 .382 1.025v2.04a.348.348 0 0 1-.133.291.5.5 0 0 1-.323.1h-.763v-2.3a.981.981 0 0 0-.1-.5.321.321 0 0 0-.288-.169.338.338 0 0 0-.291.169.883.883 0 0 0-.111.486v1.925a.35.35 0 0 1-.132.291.5.5 0 0 1-.324.1z" class="cls-4" data-name="패스 2731"/>
                <path id="패스_2732" d="M2394.8 247.371a.291.291 0 0 1-.091.234.415.415 0 0 1-.275.078h-.865v-1.1h1.231zm-1.219 4.577v-3.785h1.212v3.366a.373.373 0 0 1-.144.3.519.519 0 0 1-.335.116z" class="cls-4" data-name="패스 2732"/>
                <path id="패스_2733" d="M2395.4 251.948v-3.005c0-.156 0-.295-.005-.417a3.566 3.566 0 0 0-.037-.4h1.189a.908.908 0 0 1 .036.137.725.725 0 0 1 .012.1.776.776 0 0 1 .291-.2 1 1 0 0 1 .4-.084 1.236 1.236 0 0 1 .981.393 1.5 1.5 0 0 1 .344 1.029v2.045a.349.349 0 0 1-.131.291.507.507 0 0 1-.325.1h-.75v-2.31a1.027 1.027 0 0 0-.1-.491.328.328 0 0 0-.588.006.981.981 0 0 0-.106.485v1.914a.352.352 0 0 1-.131.291.5.5 0 0 1-.325.1z" class="cls-4" data-name="패스 2733"/>
            </g>
        </g>
    </g>
</svg>
