<svg xmlns="http://www.w3.org/2000/svg" width="50" height="50" viewBox="0 0 50 50">
    <defs>
        <style>
            .cls-1{fill:none}.cls-2{fill:#0d4e86;stroke:#0d4e86;stroke-miterlimit:10}.cls-3{fill:#818180}
        </style>
    </defs>
    <g id="그룹_2671" data-name="그룹 2671" transform="translate(-2552.556 -209.549)">
        <path id="사각형_2762" d="M0 0h50v50H0z" class="cls-1" data-name="사각형 2762" transform="translate(2552.556 209.549)"/>
        <g id="그룹_2670" data-name="그룹 2670">
            <g id="그룹_2668" data-name="그룹 2668">
                <path id="패스_2751" d="M2575.334 240.045a7.955 7.955 0 0 1-5.782 2.152 8.2 8.2 0 0 1-4.934-1.611 7.8 7.8 0 0 1-2.9-5.041 28.538 28.538 0 0 1-.489-5.186 24.459 24.459 0 0 1 .489-5.107 7.43 7.43 0 0 1 3.114-5.08 8.7 8.7 0 0 1 4.723-1.544 8.121 8.121 0 0 1 5.569 1.926 8.641 8.641 0 0 1 2.719 5.411h-5.463a3.659 3.659 0 0 0-.937-2.349 2.426 2.426 0 0 0-1.755-.871q-1.53 0-2.3 1.874a16.347 16.347 0 0 0-.765 5.806 16.584 16.584 0 0 0 .739 5.965 2.457 2.457 0 0 0 2.35 1.689 2.414 2.414 0 0 0 1.636-.831 3.883 3.883 0 0 0 1.029-2.389h5.463a8.1 8.1 0 0 1-2.506 5.186z" class="cls-2" data-name="패스 2751"/>
                <path id="패스_2752" d="M2588.609 241.8c-.054-.193-.1-.3-.133-.316h-.025v-.053l-.872.264a7.183 7.183 0 0 1-2.111.264 5.889 5.889 0 0 1-4.461-1.505 5.268 5.268 0 0 1-1.425-3.774 5.035 5.035 0 0 1 1.452-3.6 6.027 6.027 0 0 1 4.487-1.544l2.8-.053v-.449a3.245 3.245 0 0 0-.463-1.86 1.376 1.376 0 0 0-1.173-.674 1.8 1.8 0 0 0-1.095.383 2.132 2.132 0 0 0-.7 1.386h-5.068a4.85 4.85 0 0 1 2.111-3.972 8.324 8.324 0 0 1 9.819.277 5.526 5.526 0 0 1 1.874 4.2v8.024q0 .738.065 1.491t.2 1.517zm-.291-7.205l-2.217.027a1.2 1.2 0 0 0-.911.541 2.188 2.188 0 0 0-.435 1.412 1.919 1.919 0 0 0 .449 1.372 1.3 1.3 0 0 0 .95.475 1.978 1.978 0 0 0 1.583-.673 3.307 3.307 0 0 0 .581-2.177z" class="cls-2" data-name="패스 2752"/>
            </g>
            <g id="그룹_2669" data-name="그룹 2669">
                <path id="패스_2753" d="M2564.634 250.47v-5.2h1.35l1.049 2.988 1.044-2.988h1.357v4.776a.371.371 0 0 1-.145.3.515.515 0 0 1-.336.117h-.737v-2.448q0-.03.006-.141c0-.073.006-.123.006-.147 0 .016-.011.058-.022.126a.674.674 0 0 1-.026.132l-.582 1.692a.425.425 0 0 1-.426.313h-.582l-.684-2.041a1.253 1.253 0 0 1-.027-.144.728.728 0 0 0-.033-.144 1.727 1.727 0 0 1 .006.174v2.208a.371.371 0 0 1-.145.3.515.515 0 0 1-.336.117z" class="cls-3" data-name="패스 2753"/>
                <path id="패스_2754" d="M2570.232 245.274h1.217v4.776a.369.369 0 0 1-.144.3.517.517 0 0 1-.336.117h-.737z" class="cls-3" data-name="패스 2754"/>
                <path id="패스_2755" d="M2575.056 250.47l-1.524-2.706a1.578 1.578 0 0 1-.042-.141.773.773 0 0 0-.048-.141c0 .028.009.083.018.165s.012.135.012.159v2.244a.37.37 0 0 1-.145.3.515.515 0 0 1-.336.117h-.737v-5.2h1.1l1.494 2.646a.568.568 0 0 1 .054.141 1.071 1.071 0 0 0 .053.153c0-.031 0-.084-.011-.155s-.012-.123-.012-.151v-2.634h1.224v4.776a.373.373 0 0 1-.144.3.519.519 0 0 1-.336.117z" class="cls-3" data-name="패스 2755"/>
                <path id="패스_2756" d="M2578.169 246.21v1.164h1.861v.618a.323.323 0 0 1-.088.252.38.38 0 0 1-.261.078h-1.512v1.212h2.178v.522a.415.415 0 0 1-.107.309.434.434 0 0 1-.313.1h-2.556a.43.43 0 0 1-.312-.1.416.416 0 0 1-.108-.309v-4.782h3.4v.606a.321.321 0 0 1-.087.252.379.379 0 0 1-.261.078z" class="cls-3" data-name="패스 2756"/>
                <path id="패스_2757" d="M2580.948 250.47v-5.2h1.991a1.631 1.631 0 0 1 1.23.459 1.573 1.573 0 0 1 .445 1.138 1.422 1.422 0 0 1-.336.947 1.044 1.044 0 0 1-.643.426 1.42 1.42 0 0 1 .307.291 1.309 1.309 0 0 1 .168.339l.308.894a1.864 1.864 0 0 0 .387.7h-1.319a1.324 1.324 0 0 1-.337-.705 7.877 7.877 0 0 0-.228-.861 1.3 1.3 0 0 0-.165-.339c-.07-.1-.133-.152-.188-.152h-.4v1.637a.373.373 0 0 1-.144.3.517.517 0 0 1-.336.117zm2.447-3.6a.714.714 0 0 0-.153-.487.469.469 0 0 0-.363-.174h-.714v1.32h.714a.465.465 0 0 0 .363-.174.709.709 0 0 0 .158-.484z" class="cls-3" data-name="패스 2757"/>
                <path id="패스_2758" d="M2587.944 250.47l-.283-.936h-1.374l-.288.936h-1.254l1.722-5.2h1.009l1.727 5.2zm-.943-3.36l-.033.132c-.015.06-.024.107-.032.138l-.378 1.272h.857l-.359-1.272a1.216 1.216 0 0 1-.027-.138 1.24 1.24 0 0 0-.029-.132z" class="cls-3" data-name="패스 2758"/>
                <path id="패스_2759" d="M2592.732 250.365a.434.434 0 0 1-.313.1h-2.513a.431.431 0 0 1-.313-.1.415.415 0 0 1-.107-.309v-4.782h1.217v4.26h2.136v.522a.415.415 0 0 1-.107.309z" class="cls-3" data-name="패스 2759"/>
            </g>
        </g>
    </g>
</svg>
