<svg xmlns="http://www.w3.org/2000/svg" width="50" height="50" viewBox="0 0 50 50">
    <defs>
        <style>
            .cls-1{fill:none}.cls-2{fill:#ea3524}.cls-3{fill:#f46e0f;stroke:#fff;stroke-linecap:round;stroke-linejoin:round}.cls-4{fill:#818180}
        </style>
    </defs>
    <g id="그룹_3415" data-name="그룹 3415" transform="translate(-36.665 -140.04)">
        <path id="사각형_3082" d="M0 0h50v50H0z" class="cls-1" data-name="사각형 3082" transform="translate(36.665 140.04)"/>
        <g id="그룹_3414" data-name="그룹 3414">
            <g id="그룹_3412" data-name="그룹 3412">
                <g id="그룹_3409" data-name="그룹 3409">
                    <g id="그룹_3408" data-name="그룹 3408">
                        <g id="그룹_3407" data-name="그룹 3407">
                            <path id="패스_3952" d="M71.14 162.7a8.011 8.011 0 0 0-1.993-1.979 7.74 7.74 0 0 0 1.729-1.657 6.428 6.428 0 0 0 1.171-3.875A7.951 7.951 0 0 0 69 148.746c-2.015-1.627-4.851-2.456-8.437-2.456H46.329v26.237A3.016 3.016 0 0 0 47.436 175a4.581 4.581 0 0 0 2.958.888H61.01a13.127 13.127 0 0 0 8.308-2.444 8.017 8.017 0 0 0 3.144-6.606 7.226 7.226 0 0 0-1.322-4.138zm-10.08-5.854a1.271 1.271 0 0 1-.95.387H55.4v-3.648h4.71a1.31 1.31 0 0 1 .971.37 1.875 1.875 0 0 1 .464 1.419 1.976 1.976 0 0 1-.485 1.468zm.364 11.327a1.258 1.258 0 0 1-.979.435H55.4v-4.09h5.043a1.253 1.253 0 0 1 .986.424 2.717 2.717 0 0 1-.007 3.231z" class="cls-2" data-name="패스 3952"/>
                        </g>
                    </g>
                </g>
                <g id="그룹_3411" data-name="그룹 3411">
                    <g id="그룹_3410" data-name="그룹 3410">
                        <path id="패스_3953" d="M73.477 167.537a1.5 1.5 0 0 1 .318-.046 1.388 1.388 0 0 1 .252.006 3.166 3.166 0 0 1 2.165 1.1 3.708 3.708 0 0 1 .81 2.483 3.881 3.881 0 0 1-.983 2.8 3.816 3.816 0 0 1-5.213 0 3.735 3.735 0 0 1-.949-2.69 7 7 0 0 1 .18-1.567 9.681 9.681 0 0 1 .657-1.726q.53-1.143 1.235-2.458t1.2-2.138h2.691q-.61.891-1.248 2.039t-1.115 2.197zm.956 3.573a2.629 2.629 0 0 0-.3-1.335.742.742 0 0 0-1.408-.006 2.607 2.607 0 0 0-.3 1.341 2.65 2.65 0 0 0 .3 1.348.74.74 0 0 0 1.408 0 2.66 2.66 0 0 0 .3-1.348z" class="cls-3" data-name="패스 3953"/>
                    </g>
                </g>
            </g>
            <g id="그룹_3413" data-name="그룹 3413">
                <path id="패스_3954" d="M52.4 182.057a1.262 1.262 0 0 0 .024-.159 1 1 0 0 1 .023-.159l.473-1.712h1.254l-1.15 3.539a.452.452 0 0 1-.141.216.353.353 0 0 1-.241.085h-.733l-1.293-3.829h1.248l.5 1.714a.923.923 0 0 1 .022.159q.014.11.014.146z" class="cls-4" data-name="패스 3954"/>
                <path id="패스_3955" d="M55.548 179.273a.287.287 0 0 1-.09.234.408.408 0 0 1-.275.079h-.864v-1.1l1.23-.005zm-1.2 4.582l-.015-3.785 1.212-.005.013 3.366a.373.373 0 0 1-.142.3.518.518 0 0 1-.336.118z" class="cls-4" data-name="패스 3955"/>
                <path id="패스_3956" d="M56.235 180.164v-1.122l1.206-.005v1.122h.613v.433a.319.319 0 0 1-.086.252.379.379 0 0 1-.26.079h-.265l.007 1.776a.436.436 0 0 0 .056.237.167.167 0 0 0 .15.08h.408v.5a.324.324 0 0 1-.086.252.379.379 0 0 1-.26.079h-.3a1.163 1.163 0 0 1-.868-.3 1.081 1.081 0 0 1-.306-.791l-.008-1.83h-.023a.38.38 0 0 1-.261-.077.32.32 0 0 1-.089-.252v-.432z" class="cls-4" data-name="패스 3956"/>
                <path id="패스_3957" d="M60.307 183.82c-.012-.044-.023-.068-.031-.072h-.006v-.012l-.2.061a1.627 1.627 0 0 1-.479.061 1.342 1.342 0 0 1-1.016-.337 1.2 1.2 0 0 1-.327-.857 1.142 1.142 0 0 1 .327-.82 1.365 1.365 0 0 1 1.018-.355l.636-.015v-.1a.739.739 0 0 0-.106-.423.313.313 0 0 0-.268-.151.405.405 0 0 0-.249.088.48.48 0 0 0-.157.315h-1.152a1.1 1.1 0 0 1 .476-.9 1.894 1.894 0 0 1 2.233.054 1.253 1.253 0 0 1 .429.952l.007 1.824a4.194 4.194 0 0 0 .064.684zm-.073-1.638l-.5.008a.27.27 0 0 0-.207.124.5.5 0 0 0-.1.321.438.438 0 0 0 .1.312.3.3 0 0 0 .216.107.455.455 0 0 0 .36-.154.763.763 0 0 0 .13-.5z" class="cls-4" data-name="패스 3957"/>
                <path id="패스_3958" d="M64.031 183.817l-.009-2.3a.991.991 0 0 0-.106-.489.321.321 0 0 0-.582.006.973.973 0 0 0-.1.486l.008 1.908a.35.35 0 0 1-.131.291.5.5 0 0 1-.324.107h-.756l-.012-3.012a6.142 6.142 0 0 0-.051-.808L63.14 180l.034.144a.532.532 0 0 1 .022.126.746.746 0 0 1 .341-.235 1.146 1.146 0 0 1 .383-.08 1.229 1.229 0 0 1 .577.13.93.93 0 0 1 .379.341 1.261 1.261 0 0 1 .38-.332 1.1 1.1 0 0 1 .572-.146 1.347 1.347 0 0 1 1.024.392 1.411 1.411 0 0 1 .386 1.024l.008 2.04a.351.351 0 0 1-.131.292.508.508 0 0 1-.323.106h-.763l-.009-2.3a.981.981 0 0 0-.1-.5.32.32 0 0 0-.288-.168.338.338 0 0 0-.291.17.884.884 0 0 0-.109.486l.008 1.926a.354.354 0 0 1-.131.292.51.51 0 0 1-.324.106z" class="cls-4" data-name="패스 3958"/>
                <path id="패스_3959" d="M69.018 179.219a.3.3 0 0 1-.09.235.414.414 0 0 1-.275.079h-.864l-.005-1.1 1.231-.005zm-1.2 4.583l-.015-3.786 1.212-.005.014 3.366a.375.375 0 0 1-.143.3.519.519 0 0 1-.335.118z" class="cls-4" data-name="패스 3959"/>
                <path id="패스_3960" d="M69.636 183.795l-.012-3.006c0-.156 0-.295-.008-.417a3.379 3.379 0 0 0-.038-.4l1.189-.005a.874.874 0 0 1 .037.138.721.721 0 0 1 .012.1.773.773 0 0 1 .29-.2 1 1 0 0 1 .4-.086 1.237 1.237 0 0 1 .982.389 1.5 1.5 0 0 1 .349 1.028l.008 2.046a.35.35 0 0 1-.131.291.509.509 0 0 1-.324.107h-.749l-.01-2.31a1.026 1.026 0 0 0-.1-.492.328.328 0 0 0-.588.008.991.991 0 0 0-.1.487l.008 1.914a.35.35 0 0 1-.131.291.507.507 0 0 1-.324.107z" class="cls-4" data-name="패스 3960"/>
            </g>
        </g>
    </g>
</svg>
