<svg xmlns="http://www.w3.org/2000/svg" width="50" height="50" viewBox="0 0 50 50">
    <defs>
        <style>
            .cls-1{fill:none}.cls-2{fill:#ea3524}.cls-3{fill:#f46e0f;stroke:#fff;stroke-linecap:round;stroke-linejoin:round}.cls-4{fill:#818180}
        </style>
    </defs>
    <g id="그룹_2629" data-name="그룹 2629" transform="translate(-2186.273 -207.718)">
        <path id="사각형_2756" d="M0 0h50v50H0z" class="cls-1" data-name="사각형 2756" transform="translate(2186.273 207.718)"/>
        <g id="그룹_2628" data-name="그룹 2628">
            <g id="그룹_2626" data-name="그룹 2626">
                <g id="그룹_2623" data-name="그룹 2623">
                    <g id="그룹_2622" data-name="그룹 2622">
                        <g id="그룹_2621" data-name="그룹 2621">
                            <path id="패스_2699" d="M2220.782 230.365a8.014 8.014 0 0 0-1.993-1.98 7.7 7.7 0 0 0 1.728-1.657 6.42 6.42 0 0 0 1.172-3.875 7.948 7.948 0 0 0-3.05-6.438c-2.015-1.628-4.851-2.457-8.437-2.457h-14.231V240.2a3.016 3.016 0 0 0 1.107 2.474 4.581 4.581 0 0 0 2.958.888h10.616a13.12 13.12 0 0 0 8.308-2.444 8.014 8.014 0 0 0 3.143-6.605 7.219 7.219 0 0 0-1.321-4.148zm-10.08-5.855a1.269 1.269 0 0 1-.951.388h-4.707v-3.649h4.707a1.315 1.315 0 0 1 .972.37 1.874 1.874 0 0 1 .464 1.419 1.975 1.975 0 0 1-.487 1.472zm.364 11.327a1.255 1.255 0 0 1-.979.435h-5.043v-4.089h5.043a1.252 1.252 0 0 1 .986.423 2.716 2.716 0 0 1-.007 3.231z" class="cls-2" data-name="패스 2699"/>
                        </g>
                    </g>
                </g>
                <g id="그룹_2625" data-name="그룹 2625">
                    <g id="그룹_2624" data-name="그룹 2624">
                        <path id="패스_2700" d="M2226.444 242.32a.826.826 0 0 1-.578.18h-6.295a5.027 5.027 0 0 1 .3-2.039 9.019 9.019 0 0 1 1.2-1.8l2.457-3.068a2.357 2.357 0 0 0 .492-1.354 1.533 1.533 0 0 0-.272-.977.811.811 0 0 0-.644-.339.79.79 0 0 0-.678.412 2.526 2.526 0 0 0-.266 1.329h-2.589a4.03 4.03 0 0 1 .9-2.743 3.273 3.273 0 0 1 2.616-1.043 3.509 3.509 0 0 1 2.563.923 3.274 3.274 0 0 1 .943 2.451 2.83 2.83 0 0 1-.345 1.421 9.191 9.191 0 0 1-.85 1.235l-2.909 3.612h4.144v1.236a.739.739 0 0 1-.189.564z" class="cls-3" data-name="패스 2700"/>
                    </g>
                </g>
            </g>
            <g id="그룹_2627" data-name="그룹 2627">
                <path id="패스_2701" d="M2202.011 249.746a1.262 1.262 0 0 0 .024-.159 1.036 1.036 0 0 1 .023-.16l.473-1.711 1.254-.005-1.15 3.538a.459.459 0 0 1-.141.217.363.363 0 0 1-.241.085h-.733l-1.293-3.829 1.248-.005.5 1.714a.954.954 0 0 1 .022.159c.003.081.01.132.014.156z" class="cls-4" data-name="패스 2701"/>
                <path id="패스_2702" d="M2205.156 246.961a.29.29 0 0 1-.09.235.413.413 0 0 1-.275.079h-.864v-1.1h1.23zm-1.2 4.583l-.015-3.786h1.212l.013 3.366a.377.377 0 0 1-.142.3.523.523 0 0 1-.336.118z" class="cls-4" data-name="패스 2702"/>
                <path id="패스_2703" d="M2205.843 247.852v-1.121l1.206-.005v1.121h.613v.432a.322.322 0 0 1-.085.252.384.384 0 0 1-.261.08h-.265l.008 1.776a.429.429 0 0 0 .055.237.172.172 0 0 0 .15.08h.408v.5a.324.324 0 0 1-.086.253.385.385 0 0 1-.26.079h-.3a1.158 1.158 0 0 1-.867-.3 1.076 1.076 0 0 1-.307-.79l-.008-1.831h-.023a.376.376 0 0 1-.261-.078.32.32 0 0 1-.089-.251v-.432z" class="cls-4" data-name="패스 2703"/>
                <path id="패스_2704" d="M2209.915 251.508c-.012-.044-.023-.068-.031-.072h-.006v-.011l-.2.06a1.623 1.623 0 0 1-.479.062 1.342 1.342 0 0 1-1.016-.338 1.2 1.2 0 0 1-.327-.856 1.144 1.144 0 0 1 .327-.821 1.372 1.372 0 0 1 1.018-.355l.636-.014v-.1a.738.738 0 0 0-.106-.423.313.313 0 0 0-.268-.152.417.417 0 0 0-.249.088.484.484 0 0 0-.156.316h-1.153a1.1 1.1 0 0 1 .476-.9 1.894 1.894 0 0 1 2.233.054 1.252 1.252 0 0 1 .429.952l.008 1.824a3.178 3.178 0 0 0 .017.339c.01.114.025.229.046.345zm-.073-1.637l-.5.007a.278.278 0 0 0-.207.124.5.5 0 0 0-.1.322.438.438 0 0 0 .1.312.3.3 0 0 0 .216.107.455.455 0 0 0 .36-.155.757.757 0 0 0 .13-.495z" class="cls-4" data-name="패스 2704"/>
                <path id="패스_2705" d="M2213.639 251.505l-.009-2.3a.99.99 0 0 0-.106-.489.322.322 0 0 0-.582.005.98.98 0 0 0-.1.487l.008 1.908a.351.351 0 0 1-.131.291.5.5 0 0 1-.324.106h-.756l-.012-3.011a6.12 6.12 0 0 0-.051-.808l1.176-.005.034.144a.525.525 0 0 1 .022.126.739.739 0 0 1 .341-.235 1.123 1.123 0 0 1 .383-.08 1.226 1.226 0 0 1 .577.129.93.93 0 0 1 .379.341 1.259 1.259 0 0 1 .38-.331 1.1 1.1 0 0 1 .572-.147 1.354 1.354 0 0 1 1.024.392 1.413 1.413 0 0 1 .386 1.025l.008 2.04a.347.347 0 0 1-.131.291.5.5 0 0 1-.323.106h-.763l-.009-2.3a1 1 0 0 0-.1-.5.319.319 0 0 0-.289-.167.336.336 0 0 0-.291.17.884.884 0 0 0-.109.486l.008 1.926a.35.35 0 0 1-.131.291.5.5 0 0 1-.324.106z" class="cls-4" data-name="패스 2705"/>
                <path id="패스_2706" d="M2218.626 246.908a.293.293 0 0 1-.09.234.408.408 0 0 1-.275.079h-.864v-1.1l1.231-.005zm-1.2 4.582l-.015-3.785 1.212-.005.014 3.366a.371.371 0 0 1-.143.3.513.513 0 0 1-.335.118z" class="cls-4" data-name="패스 2706"/>
                <path id="패스_2707" d="M2219.244 251.483l-.012-3.006c0-.155 0-.295-.008-.417a3.611 3.611 0 0 0-.037-.4l1.188-.005a.883.883 0 0 1 .037.137.179.179 0 1 0 .3-.1 1 1 0 0 1 .4-.085 1.232 1.232 0 0 1 .982.389 1.5 1.5 0 0 1 .349 1.027l.008 2.046a.35.35 0 0 1-.131.292.5.5 0 0 1-.323.106h-.75l-.01-2.31a1.011 1.011 0 0 0-.1-.491.328.328 0 0 0-.588.008.986.986 0 0 0-.1.486l.008 1.914a.35.35 0 0 1-.131.292.5.5 0 0 1-.323.106z" class="cls-4" data-name="패스 2707"/>
            </g>
        </g>
    </g>
</svg>
