<svg xmlns="http://www.w3.org/2000/svg" width="50" height="50" viewBox="0 0 50 50">
    <defs>
        <style>
            .cls-1{fill:none}.cls-2{fill:#0d4e86;stroke:#0d4e86;stroke-miterlimit:10}.cls-3{fill:#818180}
        </style>
    </defs>
    <g id="그룹_2680" data-name="그룹 2680" transform="translate(-2686.019 -209.874)">
        <path id="사각형_2764" d="M0 0h50v50H0z" class="cls-1" data-name="사각형 2764" transform="translate(2686.019 209.874)"/>
        <g id="그룹_2679" data-name="그룹 2679">
            <g id="그룹_2677" data-name="그룹 2677">
                <path id="패스_2769" d="M2706.37 241.581l-6.3-11.181q-.049-.124-.173-.583a2.9 2.9 0 0 0-.2-.582c.017.115.041.343.075.681s.049.558.049.657v9.273a1.541 1.541 0 0 1-.595 1.252 2.138 2.138 0 0 1-1.388.483h-3.05v-21.47h4.538l6.173 10.933a2.4 2.4 0 0 1 .223.583 3.932 3.932 0 0 0 .223.632 6.29 6.29 0 0 0-.05-.644 6.683 6.683 0 0 1-.049-.62v-10.884h5.058v19.735a1.539 1.539 0 0 1-.6 1.252 2.137 2.137 0 0 1-1.388.483z" class="cls-2" data-name="패스 2769"/>
                <path id="패스_2770" d="M2722.287 241.531c-.05-.182-.091-.28-.124-.3h-.025v-.049l-.818.248a6.8 6.8 0 0 1-1.983.247 5.531 5.531 0 0 1-4.19-1.413 4.948 4.948 0 0 1-1.339-3.545 4.728 4.728 0 0 1 1.363-3.384 5.662 5.662 0 0 1 4.215-1.451l2.628-.049v-.422a3.059 3.059 0 0 0-.434-1.748 1.3 1.3 0 0 0-1.1-.632 1.7 1.7 0 0 0-1.029.359 2.012 2.012 0 0 0-.657 1.3h-4.76a4.55 4.55 0 0 1 1.983-3.731 7.82 7.82 0 0 1 9.223.26 5.19 5.19 0 0 1 1.76 3.942v7.537q0 .694.062 1.4c.042.471.1.946.186 1.425zm-.273-6.768l-2.082.025a1.133 1.133 0 0 0-.856.508 2.056 2.056 0 0 0-.409 1.327 1.808 1.808 0 0 0 .422 1.289 1.222 1.222 0 0 0 .892.446 1.865 1.865 0 0 0 1.488-.632 3.11 3.11 0 0 0 .545-2.045z" class="cls-2" data-name="패스 2770"/>
            </g>
            <g id="그룹_2678" data-name="그룹 2678">
                <path id="패스_2771" d="M2696.916 249.637v-5.2h1.35l1.049 2.988 1.044-2.988h1.357v4.776a.371.371 0 0 1-.145.3.52.52 0 0 1-.336.117h-.737v-2.448q0-.03.006-.141t.006-.147c0 .016-.011.058-.022.126a.658.658 0 0 1-.026.131l-.582 1.693a.447.447 0 0 1-.159.231.442.442 0 0 1-.267.081h-.582l-.684-2.04a1.254 1.254 0 0 1-.027-.144.71.71 0 0 0-.033-.144 1.713 1.713 0 0 1 .006.174v2.208a.371.371 0 0 1-.145.3.52.52 0 0 1-.336.117z" class="cls-3" data-name="패스 2771"/>
                <path id="패스_2772" d="M2702.514 244.441h1.217v4.776a.369.369 0 0 1-.144.3.522.522 0 0 1-.336.117h-.737z" class="cls-3" data-name="패스 2772"/>
                <path id="패스_2773" d="M2707.338 249.637l-1.525-2.707a2.723 2.723 0 0 1-.042-.14.728.728 0 0 0-.047-.141c0 .028.009.083.018.165s.012.135.012.158v2.245a.37.37 0 0 1-.145.3.52.52 0 0 1-.336.117h-.737v-5.2h1.1l1.494 2.646a.558.558 0 0 1 .054.141 1.079 1.079 0 0 0 .053.153c0-.032 0-.084-.011-.156s-.012-.122-.012-.15v-2.634h1.224v4.776a.373.373 0 0 1-.144.3.524.524 0 0 1-.336.117z" class="cls-3" data-name="패스 2773"/>
                <path id="패스_2774" d="M2710.451 245.377v1.164h1.861v.617a.321.321 0 0 1-.088.252.376.376 0 0 1-.261.079h-1.512v1.211h2.178v.522a.413.413 0 0 1-.108.31.434.434 0 0 1-.312.1h-2.556a.434.434 0 0 1-.312-.1.417.417 0 0 1-.108-.31v-4.781h3.4v.606a.323.323 0 0 1-.087.252.381.381 0 0 1-.261.078z" class="cls-3" data-name="패스 2774"/>
                <path id="패스_2775" d="M2713.23 249.637v-5.2h1.991a1.631 1.631 0 0 1 1.23.459 1.572 1.572 0 0 1 .445 1.137 1.423 1.423 0 0 1-.336.948 1.042 1.042 0 0 1-.643.425 1.478 1.478 0 0 1 .307.291 1.324 1.324 0 0 1 .168.34l.308.894a1.851 1.851 0 0 0 .387.7h-1.319a1.324 1.324 0 0 1-.337-.706 7.862 7.862 0 0 0-.228-.86 1.3 1.3 0 0 0-.165-.339c-.07-.1-.133-.153-.188-.153h-.4v1.638a.373.373 0 0 1-.144.3.522.522 0 0 1-.336.117zm2.447-3.6a.711.711 0 0 0-.153-.486.468.468 0 0 0-.363-.174h-.714v1.32h.714a.468.468 0 0 0 .363-.174.711.711 0 0 0 .153-.486z" class="cls-3" data-name="패스 2775"/>
                <path id="패스_2776" d="M2720.226 249.637l-.283-.937h-1.374l-.288.937h-1.254l1.722-5.2h1.009l1.727 5.2zm-.943-3.36c-.008.027-.018.071-.033.131s-.024.107-.032.139l-.378 1.272h.857l-.359-1.272a1.242 1.242 0 0 1-.027-.139 1.157 1.157 0 0 0-.028-.131z" class="cls-3" data-name="패스 2776"/>
                <path id="패스_2777" d="M2725.014 249.532a.438.438 0 0 1-.313.1h-2.513a.435.435 0 0 1-.313-.1.416.416 0 0 1-.107-.31v-4.781h1.217v4.259h2.136v.522a.416.416 0 0 1-.107.31z" class="cls-3" data-name="패스 2777"/>
            </g>
        </g>
    </g>
</svg>
