<svg xmlns="http://www.w3.org/2000/svg" width="50" height="50" viewBox="0 0 50 50">
    <defs>
        <style>
            .cls-1{fill:none}.cls-2{fill:#ea3524}.cls-3{fill:#f46e0f;stroke:#fff;stroke-linecap:round;stroke-linejoin:round}.cls-4{fill:#818180}
        </style>
    </defs>
    <g id="그룹_2638" data-name="그룹 2638" transform="translate(-2246.139 -207.722)">
        <path id="사각형_2757" d="M0 0h50v50H0z" class="cls-1" data-name="사각형 2757" transform="translate(2246.139 207.722)"/>
        <g id="그룹_2637" data-name="그룹 2637">
            <g id="그룹_2635" data-name="그룹 2635">
                <g id="그룹_2632" data-name="그룹 2632">
                    <g id="그룹_2631" data-name="그룹 2631">
                        <g id="그룹_2630" data-name="그룹 2630">
                            <path id="패스_2708" d="M2280.644 230.361a8.012 8.012 0 0 0-1.993-1.979 7.71 7.71 0 0 0 1.728-1.658 6.42 6.42 0 0 0 1.172-3.875 7.948 7.948 0 0 0-3.05-6.438c-2.015-1.628-4.851-2.456-8.437-2.456h-14.231v26.236a3.015 3.015 0 0 0 1.107 2.474 4.582 4.582 0 0 0 2.958.889h10.615a13.124 13.124 0 0 0 8.309-2.445 8.014 8.014 0 0 0 3.143-6.6 7.226 7.226 0 0 0-1.321-4.148zm-10.08-5.854a1.272 1.272 0 0 1-.951.387h-4.708v-3.648h4.708a1.316 1.316 0 0 1 .972.369 1.874 1.874 0 0 1 .464 1.419 1.977 1.977 0 0 1-.485 1.473zm.364 11.326a1.257 1.257 0 0 1-.979.436h-5.044v-4.09h5.044a1.255 1.255 0 0 1 .986.423 2.716 2.716 0 0 1-.007 3.231z" class="cls-2" data-name="패스 2708"/>
                        </g>
                    </g>
                </g>
                <g id="그룹_2634" data-name="그룹 2634">
                    <g id="그룹_2633" data-name="그룹 2633">
                        <path id="패스_2709" d="M2282.194 232.947l-.172 2.151a1.71 1.71 0 0 1 .478-.266 2.107 2.107 0 0 1 .757-.119 2.942 2.942 0 0 1 2.391 1.016 4.339 4.339 0 0 1 .85 2.862 4.261 4.261 0 0 1-.936 2.975 3.4 3.4 0 0 1-2.637 1.023 3.582 3.582 0 0 1-2.476-.883 3.35 3.35 0 0 1-1.043-2.517H2282a1.95 1.95 0 0 0 .371 1.035q.306.386.558.386a.794.794 0 0 0 .7-.505 3.358 3.358 0 0 0 .266-1.514 2.966 2.966 0 0 0-.312-1.434c-.209-.381-.414-.571-.618-.572a.884.884 0 0 0-.551.22 1.2 1.2 0 0 0-.379.71h-2.483l.384-6.547h6.3v1.248a.718.718 0 0 1-.192.558.844.844 0 0 1-.578.172z" class="cls-3" data-name="패스 2709"/>
                    </g>
                </g>
            </g>
            <g id="그룹_2636" data-name="그룹 2636">
                <path id="패스_2710" d="M2261.877 249.757a1.216 1.216 0 0 0 .024-.159 1.177 1.177 0 0 1 .022-.159l.474-1.712 1.254-.005-1.15 3.539a.46.46 0 0 1-.141.216.359.359 0 0 1-.242.085h-.732l-1.294-3.829h1.249l.5 1.714a1.232 1.232 0 0 1 .022.159c.005.076.01.127.014.151z" class="cls-4" data-name="패스 2710"/>
                <path id="패스_2711" d="M2265.022 246.973a.287.287 0 0 1-.09.234.408.408 0 0 1-.275.079h-.864v-1.1l1.23-.005zm-1.2 4.582l-.016-3.785 1.212-.005.014 3.365a.372.372 0 0 1-.143.3.513.513 0 0 1-.335.118z" class="cls-4" data-name="패스 2711"/>
                <path id="패스_2712" d="M2265.709 247.864v-1.122l1.206-.005v1.122h.613v.433a.32.32 0 0 1-.086.252.38.38 0 0 1-.26.079h-.265l.007 1.776a.437.437 0 0 0 .056.237.167.167 0 0 0 .15.08h.408v.5a.329.329 0 0 1-.086.252.38.38 0 0 1-.26.079h-.3a1.164 1.164 0 0 1-.868-.3 1.077 1.077 0 0 1-.306-.791l-.008-1.83h-.023a.381.381 0 0 1-.261-.077.32.32 0 0 1-.089-.252v-.432z" class="cls-4" data-name="패스 2712"/>
                <path id="패스_2713" d="M2269.78 251.52c-.011-.045-.022-.068-.03-.072h-.006v-.012l-.2.061a1.626 1.626 0 0 1-.479.061 1.34 1.34 0 0 1-1.016-.337 1.2 1.2 0 0 1-.327-.857 1.141 1.141 0 0 1 .327-.82 1.364 1.364 0 0 1 1.018-.355l.636-.015v-.1a.738.738 0 0 0-.106-.423.314.314 0 0 0-.268-.151.4.4 0 0 0-.249.088.479.479 0 0 0-.157.315l-1.152.005a1.1 1.1 0 0 1 .476-.9 1.894 1.894 0 0 1 2.233.054 1.253 1.253 0 0 1 .429.952l.007 1.824a4.194 4.194 0 0 0 .064.684zm-.072-1.638l-.5.008a.27.27 0 0 0-.207.124.5.5 0 0 0-.1.321.438.438 0 0 0 .1.312.3.3 0 0 0 .216.107.455.455 0 0 0 .36-.154.758.758 0 0 0 .129-.5z" class="cls-4" data-name="패스 2713"/>
                <path id="패스_2714" d="M2273.5 251.517l-.009-2.3a.979.979 0 0 0-.107-.489.321.321 0 0 0-.291-.182.327.327 0 0 0-.291.187.991.991 0 0 0-.1.487l.008 1.908a.353.353 0 0 1-.131.291.5.5 0 0 1-.324.107h-.756l-.012-3.012a6.142 6.142 0 0 0-.051-.808l1.176-.005.034.144a.525.525 0 0 1 .022.126.747.747 0 0 1 .341-.235 1.147 1.147 0 0 1 .383-.08 1.228 1.228 0 0 1 .577.13.931.931 0 0 1 .379.341 1.26 1.26 0 0 1 .38-.332 1.1 1.1 0 0 1 .572-.146 1.347 1.347 0 0 1 1.024.392 1.415 1.415 0 0 1 .386 1.024l.008 2.04a.348.348 0 0 1-.131.291.5.5 0 0 1-.323.107h-.763l-.009-2.3a.98.98 0 0 0-.1-.5.319.319 0 0 0-.288-.168.338.338 0 0 0-.291.17.884.884 0 0 0-.109.486l.008 1.926a.353.353 0 0 1-.131.291.506.506 0 0 1-.324.107z" class="cls-4" data-name="패스 2714"/>
                <path id="패스_2715" d="M2278.492 246.919a.293.293 0 0 1-.09.234.416.416 0 0 1-.275.08h-.865v-1.1l1.231-.005zm-1.2 4.583l-.015-3.786 1.212-.005.013 3.366a.373.373 0 0 1-.142.3.518.518 0 0 1-.335.118z" class="cls-4" data-name="패스 2715"/>
                <path id="패스_2716" d="M2279.11 251.494l-.012-3.005c0-.156 0-.295-.008-.417a3.644 3.644 0 0 0-.038-.4l1.189-.005a.864.864 0 0 1 .036.138.8.8 0 0 1 .013.1.761.761 0 0 1 .29-.2.994.994 0 0 1 .4-.086 1.237 1.237 0 0 1 .982.389 1.505 1.505 0 0 1 .349 1.028l.008 2.046a.351.351 0 0 1-.131.291.509.509 0 0 1-.324.107h-.75l-.009-2.31a1.022 1.022 0 0 0-.1-.491.328.328 0 0 0-.588.008.98.98 0 0 0-.1.487l.008 1.914a.35.35 0 0 1-.131.291.5.5 0 0 1-.324.106z" class="cls-4" data-name="패스 2716"/>
            </g>
        </g>
    </g>
</svg>
