<svg xmlns="http://www.w3.org/2000/svg" width="50" height="50" viewBox="0 0 50 50">
    <defs>
        <style>
            .cls-1{fill:none}.cls-2{fill:#9b1db2}.cls-3{fill:#818180}
        </style>
    </defs>
    <g id="그룹_2576" data-name="그룹 2576" transform="translate(-1790.377 -208.118)">
        <path id="사각형_2748" d="M0 0h50v50H0z" class="cls-1" data-name="사각형 2748" transform="translate(1790.376 208.118)"/>
        <g id="그룹_2575" data-name="그룹 2575">
            <g id="그룹_2573" data-name="그룹 2573">
                <g id="그룹_2572" data-name="그룹 2572">
                    <g id="그룹_2571" data-name="그룹 2571">
                        <g id="그룹_2570" data-name="그룹 2570">
                            <path id="패스_2631" d="M1820.982 243.95l-1.631-5.328h-7.95l-1.665 5.328h-7.255l9.962-29.579h5.831l10 29.579zm-5.45-19.128c-.047.16-.11.41-.191.752s-.144.6-.19.786l-2.187 7.241h4.964l-2.083-7.241q-.07-.274-.156-.786a7.484 7.484 0 0 0-.157-.752z" class="cls-2" data-name="패스 2631"/>
                        </g>
                    </g>
                </g>
            </g>
            <g id="그룹_2574" data-name="그룹 2574">
                <path id="패스_2632" d="M1806.047 250.012a1.5 1.5 0 0 0 .024-.159 1.354 1.354 0 0 1 .023-.159l.481-1.709h1.254l-1.164 3.532a.461.461 0 0 1-.142.216.358.358 0 0 1-.242.084h-.732l-1.279-3.832h1.248l.492 1.716a.912.912 0 0 1 .022.158q.009.117.015.153z" class="cls-3" data-name="패스 2632"/>
                <path id="패스_2633" d="M1809.2 247.242a.29.29 0 0 1-.091.234.41.41 0 0 1-.275.078h-.865v-1.1h1.231zm-1.219 4.575v-3.783h1.212v3.366a.373.373 0 0 1-.144.3.515.515 0 0 1-.336.117z" class="cls-3" data-name="패스 2633"/>
                <path id="패스_2634" d="M1809.886 248.135v-1.121h1.206v1.121h.613v.432a.327.327 0 0 1-.087.252.384.384 0 0 1-.261.078h-.265v1.775a.428.428 0 0 0 .055.237.17.17 0 0 0 .15.081h.408v.5a.327.327 0 0 1-.087.252.384.384 0 0 1-.261.078h-.3a1.163 1.163 0 0 1-.866-.306 1.078 1.078 0 0 1-.3-.791V248.9h-.023a.38.38 0 0 1-.261-.078.323.323 0 0 1-.088-.252v-.432z" class="cls-3" data-name="패스 2634"/>
                <path id="패스_2635" d="M1813.943 251.8q-.018-.066-.03-.072h-.006v-.012l-.2.06a1.633 1.633 0 0 1-.48.06 1.339 1.339 0 0 1-1.014-.342 1.2 1.2 0 0 1-.324-.857 1.141 1.141 0 0 1 .33-.818 1.37 1.37 0 0 1 1.02-.351l.636-.012v-.1a.747.747 0 0 0-.1-.423.313.313 0 0 0-.267-.153.41.41 0 0 0-.249.087.481.481 0 0 0-.159.315h-1.152a1.1 1.1 0 0 1 .479-.9 1.894 1.894 0 0 1 2.233.063 1.252 1.252 0 0 1 .426.953v1.823a3.855 3.855 0 0 0 .06.683zm-.066-1.637l-.5.006a.272.272 0 0 0-.207.123.5.5 0 0 0-.1.321.438.438 0 0 0 .1.312.3.3 0 0 0 .215.108.455.455 0 0 0 .361-.153.752.752 0 0 0 .132-.495z" class="cls-3" data-name="패스 2635"/>
                <path id="패스_2636" d="M1817.668 251.817v-2.3a.98.98 0 0 0-.1-.489.322.322 0 0 0-.582 0 .984.984 0 0 0-.1.486v1.906a.351.351 0 0 1-.132.291.5.5 0 0 1-.324.1h-.756v-3.01q0-.228-.012-.408t-.036-.4h1.176q.012.06.033.144a.525.525 0 0 1 .021.126.75.75 0 0 1 .342-.233 1.128 1.128 0 0 1 .384-.079 1.223 1.223 0 0 1 .576.132.935.935 0 0 1 .378.342 1.288 1.288 0 0 1 .381-.33 1.1 1.1 0 0 1 .573-.144 1.354 1.354 0 0 1 1.023.4 1.418 1.418 0 0 1 .381 1.025v2.039a.351.351 0 0 1-.132.291.5.5 0 0 1-.324.1h-.762v-2.3a.99.99 0 0 0-.1-.5.32.32 0 0 0-.288-.168.336.336 0 0 0-.291.168.883.883 0 0 0-.111.486v1.924a.351.351 0 0 1-.132.291.5.5 0 0 1-.324.1z" class="cls-3" data-name="패스 2636"/>
                <path id="패스_2637" d="M1822.673 247.242a.294.294 0 0 1-.091.234.413.413 0 0 1-.276.078h-.864v-1.1h1.231zm-1.219 4.575v-3.783h1.212v3.366a.372.372 0 0 1-.144.3.517.517 0 0 1-.336.117z" class="cls-3" data-name="패스 2637"/>
                <path id="패스_2638" d="M1823.272 251.817v-3q0-.234-.006-.417a3.565 3.565 0 0 0-.036-.4h1.189a.968.968 0 0 1 .036.137.683.683 0 0 1 .011.1.794.794 0 0 1 .291-.2.984.984 0 0 1 .4-.084 1.232 1.232 0 0 1 .98.392 1.5 1.5 0 0 1 .345 1.029v2.044a.351.351 0 0 1-.132.291.5.5 0 0 1-.324.1h-.75V249.5a1.013 1.013 0 0 0-.1-.491.327.327 0 0 0-.587.006.972.972 0 0 0-.106.485v1.913a.351.351 0 0 1-.132.291.5.5 0 0 1-.324.1z" class="cls-3" data-name="패스 2638"/>
            </g>
        </g>
    </g>
</svg>
