<svg xmlns="http://www.w3.org/2000/svg" width="50" height="50" viewBox="0 0 50 50">
    <defs>
        <style>
            .cls-1{fill:none}.cls-2{fill:#0d4e86;stroke:#0d4e86;stroke-miterlimit:10}.cls-3{fill:#818180}
        </style>
    </defs>
    <g id="그룹_2676" data-name="그룹 2676" transform="translate(-2618.622 -209.879)">
        <path id="사각형_2763" d="M0 0h50v50H0z" class="cls-1" data-name="사각형 2763" transform="translate(2618.623 209.879)"/>
        <g id="그룹_2675" data-name="그룹 2675">
            <g id="그룹_2673" data-name="그룹 2673">
                <g id="그룹_2672" data-name="그룹 2672">
                    <path id="패스_2760" d="M2627 238.284V218.2h5.219l4.059 11.55 4.035-11.55h5.241v18.462a1.44 1.44 0 0 1-.556 1.171 2 2 0 0 1-1.3.452h-2.853v-9.463c0-.077.008-.258.024-.545s.022-.475.022-.568a8.06 8.06 0 0 0-.081.487 2.763 2.763 0 0 1-.1.51l-2.25 6.541a1.635 1.635 0 0 1-1.647 1.206h-2.249l-2.644-7.886a4.7 4.7 0 0 1-.1-.556 2.536 2.536 0 0 0-.128-.557c.015.139.023.364.023.673v8.535a1.439 1.439 0 0 1-.556 1.171 2 2 0 0 1-1.3.452z" class="cls-2" data-name="패스 2760"/>
                    <path id="패스_2761" d="M2660.124 237.473a6.125 6.125 0 0 1-1.658 4.36 6.328 6.328 0 0 1-4.836 1.762 6.022 6.022 0 0 1-4.058-1.368 4.442 4.442 0 0 1-1.624-3.479h4.615a2.193 2.193 0 0 0 .6 1.276 1.269 1.269 0 0 0 .789.347q.742 0 1.1-.9a5.636 5.636 0 0 0 .359-2.087v-.884a3.388 3.388 0 0 1-.858.65 3.567 3.567 0 0 1-1.624.278 4.5 4.5 0 0 1-3.977-1.751 9.589 9.589 0 0 1-1.217-5.416 9.184 9.184 0 0 1 1.275-5.322 4.506 4.506 0 0 1 3.943-1.8 5.3 5.3 0 0 1 1.878.278 2.131 2.131 0 0 1 1 .673 1.165 1.165 0 0 1 .012-.359 2.273 2.273 0 0 1 .127-.43h4.268q-.093.813-.1 1.45t-.012 1.4zm-4.708-7.214a7.5 7.5 0 0 0-.394-2.7q-.4-.984-1.136-.985-.651 0-1.068 1.02a7.155 7.155 0 0 0-.417 2.667 8.216 8.216 0 0 0 .382 2.633q.384 1.125 1.1 1.125.834 0 1.182-1.137a8.963 8.963 0 0 0 .351-2.623z" class="cls-2" data-name="패스 2761"/>
                </g>
            </g>
            <g id="그룹_2674" data-name="그룹 2674">
                <path id="패스_2762" d="M2629.52 251.56v-5.2h1.35l1.05 2.988 1.044-2.988h1.356v4.776a.371.371 0 0 1-.145.3.52.52 0 0 1-.335.117h-.738v-2.448q0-.03.006-.141t.006-.147c0 .016-.011.058-.022.126a.657.657 0 0 1-.026.131l-.582 1.693a.447.447 0 0 1-.159.231.44.44 0 0 1-.267.081h-.582l-.684-2.04a1.254 1.254 0 0 1-.027-.144.648.648 0 0 0-.033-.144 1.714 1.714 0 0 1 .006.174v2.208a.371.371 0 0 1-.145.3.52.52 0 0 1-.335.117z" class="cls-3" data-name="패스 2762"/>
                <path id="패스_2763" d="M2635.118 246.364h1.218v4.776a.37.37 0 0 1-.145.3.522.522 0 0 1-.336.117h-.737z" class="cls-3" data-name="패스 2763"/>
                <path id="패스_2764" d="M2639.942 251.56l-1.524-2.707a1.516 1.516 0 0 1-.042-.14.685.685 0 0 0-.048-.141c0 .028.01.083.018.165s.012.135.012.158v2.245a.372.372 0 0 1-.144.3.523.523 0 0 1-.336.117h-.738v-5.2h1.1l1.494 2.646a.558.558 0 0 1 .054.141.948.948 0 0 0 .054.153q0-.048-.012-.156a1.608 1.608 0 0 1-.012-.15v-2.634h1.224v4.776a.373.373 0 0 1-.144.3.524.524 0 0 1-.336.117z" class="cls-3" data-name="패스 2764"/>
                <path id="패스_2765" d="M2643.055 247.3v1.164h1.861v.617a.32.32 0 0 1-.088.252.375.375 0 0 1-.261.079h-1.512v1.211h2.178v.522a.416.416 0 0 1-.107.31.438.438 0 0 1-.313.1h-2.555a.435.435 0 0 1-.313-.1.416.416 0 0 1-.107-.31v-4.781h3.4v.606a.323.323 0 0 1-.087.252.377.377 0 0 1-.261.078z" class="cls-3" data-name="패스 2765"/>
                <path id="패스_2766" d="M2645.834 251.56v-5.2h1.991a1.631 1.631 0 0 1 1.23.459 1.572 1.572 0 0 1 .445 1.137 1.423 1.423 0 0 1-.336.948 1.042 1.042 0 0 1-.643.425 1.471 1.471 0 0 1 .307.291 1.316 1.316 0 0 1 .168.34l.308.894a1.864 1.864 0 0 0 .387.7h-1.319a1.331 1.331 0 0 1-.337-.706 7.862 7.862 0 0 0-.228-.86 1.27 1.27 0 0 0-.165-.339c-.07-.1-.133-.153-.188-.153h-.4v1.638a.37.37 0 0 1-.144.3.522.522 0 0 1-.336.117zm2.447-3.6a.716.716 0 0 0-.152-.486.472.472 0 0 0-.364-.174h-.714v1.32h.714a.472.472 0 0 0 .364-.174.716.716 0 0 0 .152-.486z" class="cls-3" data-name="패스 2766"/>
                <path id="패스_2767" d="M2652.83 251.56l-.282-.937h-1.374l-.289.937h-1.253l1.721-5.2h1.009l1.728 5.2zm-.943-3.36l-.033.131c-.015.06-.024.107-.032.139l-.378 1.272h.857l-.359-1.272a1.242 1.242 0 0 1-.027-.139 1.157 1.157 0 0 0-.028-.131z" class="cls-3" data-name="패스 2767"/>
                <path id="패스_2768" d="M2657.618 251.455a.437.437 0 0 1-.313.1h-2.513a.435.435 0 0 1-.313-.1.416.416 0 0 1-.107-.31v-4.781h1.218v4.259h2.135v.522a.416.416 0 0 1-.107.31z" class="cls-3" data-name="패스 2768"/>
            </g>
        </g>
    </g>
</svg>
