<svg xmlns="http://www.w3.org/2000/svg" width="50" height="50" viewBox="0 0 50 50">
    <defs>
        <style>
            .cls-1{fill:#fa9800;stroke:#fa9800;stroke-miterlimit:10;stroke-width:4px}.cls-2{fill:#f46e0f;stroke:#fff;stroke-linecap:round;stroke-linejoin:round}.cls-3{fill:none}.cls-4{fill:#818180}
        </style>
    </defs>
    <g id="그룹_2589" data-name="그룹 2589" transform="translate(-1850.084 -208.617)">
        <g id="그룹_2587" data-name="그룹 2587">
            <g id="그룹_2584" data-name="그룹 2584">
                <path id="패스_2648" d="M1864.771 242.961a2.36 2.36 0 0 1-1.66-.532 2.027 2.027 0 0 1-.575-1.564v-24.206h9.8a10.172 10.172 0 0 1 6.914 2.369 8.481 8.481 0 0 1 2.954 6.165q.1 1.49.128 4.45t-.128 4.662q-.415 4.556-3.209 6.605a10.948 10.948 0 0 1-6.659 2.051zm10.922-9.355a35.13 35.13 0 0 0 .143-3.872q-.015-2.415-.143-3.812a6.222 6.222 0 0 0-1.1-3.113 3.1 3.1 0 0 0-2.7-1.412h-2.874v16.826h2.874a3.269 3.269 0 0 0 2.476-1.17 5.98 5.98 0 0 0 1.324-3.447z" class="cls-1" data-name="패스 2648"/>
            </g>
            <g id="그룹_2586" data-name="그룹 2586">
                <g id="그룹_2585" data-name="그룹 2585">
                    <path id="패스_2649" d="M1887.427 244.123a.912.912 0 0 1-.618.182h-6.726a4.885 4.885 0 0 1 .327-2.072 9.1 9.1 0 0 1 1.277-1.828l2.625-3.118a2.242 2.242 0 0 0 .4-.729 2.161 2.161 0 0 0 .121-.648 1.5 1.5 0 0 0-.291-.991.875.875 0 0 0-.688-.345.848.848 0 0 0-.724.419 2.467 2.467 0 0 0-.283 1.349h-2.768a3.983 3.983 0 0 1 .965-2.787 3.594 3.594 0 0 1 2.8-1.059 3.859 3.859 0 0 1 2.738.938 3.24 3.24 0 0 1 1.008 2.49 2.771 2.771 0 0 1-.369 1.444 9.272 9.272 0 0 1-.908 1.255l-3.108 3.671h4.427v1.255a.731.731 0 0 1-.205.574z" class="cls-2" data-name="패스 2649"/>
                </g>
            </g>
        </g>
        <path id="사각형_2750" d="M0 0h50v50H0z" class="cls-3" data-name="사각형 2750" transform="translate(1850.084 208.618)"/>
        <g id="그룹_2588" data-name="그룹 2588">
            <path id="패스_2650" d="M1865.755 250.694a1.551 1.551 0 0 0 .024-.159 1.346 1.346 0 0 1 .023-.16l.481-1.71h1.254l-1.164 3.535a.458.458 0 0 1-.142.215.353.353 0 0 1-.242.084h-.732l-1.279-3.834h1.248l.492 1.717a.928.928 0 0 1 .022.158c.006.079.011.129.015.154z" class="cls-4" data-name="패스 2650"/>
            <path id="패스_2651" d="M1868.911 247.922a.292.292 0 0 1-.091.234.416.416 0 0 1-.275.078h-.865v-1.1h1.231zm-1.219 4.577v-3.785h1.212v3.366a.373.373 0 0 1-.144.3.519.519 0 0 1-.335.116z" class="cls-4" data-name="패스 2651"/>
            <path id="패스_2652" d="M1869.594 248.815v-1.121h1.206v1.121h.613v.432a.32.32 0 0 1-.087.252.379.379 0 0 1-.261.079h-.265v1.775a.432.432 0 0 0 .055.238.172.172 0 0 0 .15.081h.408v.5a.326.326 0 0 1-.087.252.389.389 0 0 1-.261.078h-.3a1.163 1.163 0 0 1-.866-.306 1.08 1.08 0 0 1-.3-.792v-1.83h-.023a.375.375 0 0 1-.261-.079.32.32 0 0 1-.088-.252v-.432z" class="cls-4" data-name="패스 2652"/>
            <path id="패스_2653" d="M1873.651 252.488c-.012-.045-.022-.069-.03-.073h-.006v-.015l-.2.06a1.671 1.671 0 0 1-.48.059 1.339 1.339 0 0 1-1.014-.341 1.2 1.2 0 0 1-.324-.858 1.145 1.145 0 0 1 .33-.819 1.37 1.37 0 0 1 1.02-.351l.636-.012v-.1a.737.737 0 0 0-.1-.422.313.313 0 0 0-.267-.153.41.41 0 0 0-.249.087.481.481 0 0 0-.159.315h-1.152a1.1 1.1 0 0 1 .48-.9 1.892 1.892 0 0 1 2.232.063 1.252 1.252 0 0 1 .426.953v1.819a3.895 3.895 0 0 0 .06.684zm-.066-1.638h-.5a.273.273 0 0 0-.207.123.5.5 0 0 0-.1.322.441.441 0 0 0 .1.312.3.3 0 0 0 .215.108.455.455 0 0 0 .361-.153.752.752 0 0 0 .132-.495z" class="cls-4" data-name="패스 2653"/>
            <path id="패스_2654" d="M1877.376 252.5v-2.3a.976.976 0 0 0-.1-.49.322.322 0 0 0-.582 0 .989.989 0 0 0-.1.487v1.903a.35.35 0 0 1-.132.291.5.5 0 0 1-.324.1h-.756v-3.011c0-.153 0-.288-.012-.408s-.019-.252-.036-.4h1.176l.033.144a.518.518 0 0 1 .021.126.751.751 0 0 1 .342-.234 1.125 1.125 0 0 1 .384-.078 1.222 1.222 0 0 1 .576.131.937.937 0 0 1 .378.343 1.274 1.274 0 0 1 .381-.33 1.094 1.094 0 0 1 .573-.144 1.35 1.35 0 0 1 1.023.4 1.412 1.412 0 0 1 .381 1.025v2.04a.347.347 0 0 1-.132.291.5.5 0 0 1-.324.1h-.762v-2.3a.98.98 0 0 0-.1-.5.321.321 0 0 0-.288-.169.337.337 0 0 0-.291.169.883.883 0 0 0-.111.486v1.928a.35.35 0 0 1-.132.291.5.5 0 0 1-.324.1z" class="cls-4" data-name="패스 2654"/>
            <path id="패스_2655" d="M1882.381 247.922a.3.3 0 0 1-.091.234.419.419 0 0 1-.276.078h-.864v-1.1h1.231zm-1.219 4.577v-3.785h1.212v3.366a.372.372 0 0 1-.144.3.521.521 0 0 1-.336.116z" class="cls-4" data-name="패스 2655"/>
            <path id="패스_2656" d="M1882.98 252.5v-3q0-.234-.006-.417a3.582 3.582 0 0 0-.036-.4h1.189a1 1 0 0 1 .036.137.731.731 0 0 1 .012.1.776.776 0 0 1 .291-.2.993.993 0 0 1 .4-.084 1.232 1.232 0 0 1 .98.393 1.5 1.5 0 0 1 .345 1.029v2.042a.35.35 0 0 1-.132.291.5.5 0 0 1-.324.1h-.75v-2.31a1.013 1.013 0 0 0-.1-.491.327.327 0 0 0-.587.006.972.972 0 0 0-.106.485v1.919a.35.35 0 0 1-.132.291.5.5 0 0 1-.324.1z" class="cls-4" data-name="패스 2656"/>
        </g>
    </g>
</svg>
