<svg xmlns="http://www.w3.org/2000/svg" width="50" height="50" viewBox="0 0 50 50">
    <defs>
        <style>
            .cls-1{fill:none}.cls-2{fill:#0d4e86;stroke:#0d4e86;stroke-miterlimit:10}.cls-3{fill:#818180}
        </style>
    </defs>
    <g id="그룹_2700" data-name="그룹 2700" transform="translate(-2920.452 -210.178)">
        <path id="사각형_2769" d="M0 0h50v50H0z" class="cls-1" data-name="사각형 2769" transform="translate(2920.453 210.178)"/>
        <g id="그룹_2699" data-name="그룹 2699">
            <g id="그룹_2697" data-name="그룹 2697">
                <path id="패스_2812" d="M2945.349 235.413a5.65 5.65 0 0 1-1.949 4.465 7.642 7.642 0 0 1-5.218 1.7 7.456 7.456 0 0 1-4.824-1.565 5.244 5.244 0 0 1-1.948-4.326h4.87a2.8 2.8 0 0 0 .661 1.751 1.988 1.988 0 0 0 1.473.545 2.167 2.167 0 0 0 1.693-.695 2.57 2.57 0 0 0 .626-1.786 2.612 2.612 0 0 0-.487-1.717 2.176 2.176 0 0 0-1.229-.742l-2.2-.487a7.343 7.343 0 0 1-3.874-2.076 5.081 5.081 0 0 1-1.414-3.583 5.852 5.852 0 0 1 1.82-4.383 7.017 7.017 0 0 1 5.091-1.763 6.869 6.869 0 0 1 4.441 1.542 5.156 5.156 0 0 1 2.03 3.908h-4.639a2.5 2.5 0 0 0-.765-1.461 1.938 1.938 0 0 0-1.276-.464 1.974 1.974 0 0 0-1.565.649 2.585 2.585 0 0 0-.568 1.763 2.164 2.164 0 0 0 .522 1.508 2.462 2.462 0 0 0 1.24.765l2.157.511a8.527 8.527 0 0 1 3.932 1.971 5.247 5.247 0 0 1 1.4 3.97z" class="cls-2" data-name="패스 2812"/>
                <path id="패스_2813" d="M2951.146 234.949a4.409 4.409 0 0 0 .522 2.284 1.672 1.672 0 0 0 1.52.87 2.3 2.3 0 0 0 .556-.069 1.312 1.312 0 0 0 .51-.256 1.587 1.587 0 0 0 .4-.475 1.955 1.955 0 0 0 .208-.754h4.639a4.44 4.44 0 0 1-.638 2 5.3 5.3 0 0 1-1.4 1.507 6.318 6.318 0 0 1-1.959.951 8.035 8.035 0 0 1-2.285.325 7.026 7.026 0 0 1-2.922-.568 5.744 5.744 0 0 1-2.088-1.578 6.772 6.772 0 0 1-1.252-2.388 10.426 10.426 0 0 1-.418-3.027 10.088 10.088 0 0 1 .453-3.131 6.711 6.711 0 0 1 1.3-2.366 5.671 5.671 0 0 1 2.042-1.495 6.62 6.62 0 0 1 2.678-.522 6.693 6.693 0 0 1 2.575.487 5.877 5.877 0 0 1 2.052 1.4 6.5 6.5 0 0 1 1.357 2.2 8.126 8.126 0 0 1 .487 2.888v1.716zm3.711-2.644a4.376 4.376 0 0 0-.058-.939 3.462 3.462 0 0 0-.289-.94 2 2 0 0 0-.58-.73 1.465 1.465 0 0 0-.928-.29 1.412 1.412 0 0 0-.858.255 1.936 1.936 0 0 0-.568.673 3.426 3.426 0 0 0-.325.939 5.218 5.218 0 0 0-.1 1.032z" class="cls-2" data-name="패스 2813"/>
            </g>
            <g id="그룹_2698" data-name="그룹 2698">
                <path id="패스_2814" d="M2931.35 249.6v-5.2h1.35l1.05 2.988 1.044-2.988h1.356v4.776a.372.372 0 0 1-.144.3.517.517 0 0 1-.336.117h-.738v-2.448c0-.02 0-.067.006-.141s.006-.123.006-.147c0 .016-.011.058-.021.126a.729.729 0 0 1-.027.132l-.582 1.692a.423.423 0 0 1-.425.312h-.583l-.684-2.04a1.109 1.109 0 0 1-.026-.144.7.7 0 0 0-.034-.144c0 .036.006.094.006.174v2.208a.373.373 0 0 1-.144.3.517.517 0 0 1-.336.117z" class="cls-3" data-name="패스 2814"/>
                <path id="패스_2815" d="M2936.948 244.4h1.218v4.776a.371.371 0 0 1-.145.3.515.515 0 0 1-.336.117h-.737z" class="cls-3" data-name="패스 2815"/>
                <path id="패스_2816" d="M2941.772 249.6l-1.524-2.706q-.012-.03-.042-.141a.7.7 0 0 0-.048-.141c0 .028.01.083.019.165s.011.135.011.159v2.244a.373.373 0 0 1-.144.3.517.517 0 0 1-.336.117h-.737v-5.2h1.1l1.494 2.646a.54.54 0 0 1 .054.141 1.092 1.092 0 0 0 .054.153q0-.048-.012-.156t-.012-.15V244.4h1.224v4.776a.373.373 0 0 1-.144.3.517.517 0 0 1-.336.117z" class="cls-3" data-name="패스 2816"/>
                <path id="패스_2817" d="M2944.886 245.341v1.164h1.86v.618a.32.32 0 0 1-.088.252.379.379 0 0 1-.261.078h-1.511v1.212h2.177v.522a.415.415 0 0 1-.107.309.432.432 0 0 1-.313.1h-2.555a.431.431 0 0 1-.313-.1.416.416 0 0 1-.107-.309V244.4h3.4v.606a.324.324 0 0 1-.087.252.376.376 0 0 1-.26.078z" class="cls-3" data-name="패스 2817"/>
                <path id="패스_2818" d="M2947.664 249.6v-5.2h1.991a1.632 1.632 0 0 1 1.231.459 1.576 1.576 0 0 1 .444 1.137 1.417 1.417 0 0 1-.336.948 1.048 1.048 0 0 1-.643.426 1.4 1.4 0 0 1 .307.291 1.3 1.3 0 0 1 .168.339c.1.276.2.574.309.894a1.851 1.851 0 0 0 .386.7h-1.321a1.331 1.331 0 0 1-.337-.705 7.674 7.674 0 0 0-.227-.861 1.3 1.3 0 0 0-.166-.339c-.07-.1-.132-.153-.188-.153h-.4v1.638a.371.371 0 0 1-.145.3.517.517 0 0 1-.336.117zm2.447-3.6a.716.716 0 0 0-.152-.486.471.471 0 0 0-.363-.174h-.714v1.32h.714a.468.468 0 0 0 .363-.174.716.716 0 0 0 .152-.486z" class="cls-3" data-name="패스 2818"/>
                <path id="패스_2819" d="M2954.66 249.6l-.282-.936H2953l-.288.936h-1.254l1.721-5.2h1.009l1.728 5.2zm-.942-3.36l-.034.132c-.015.06-.024.106-.032.138l-.378 1.272h.858l-.36-1.272q-.012-.048-.027-.138a1.743 1.743 0 0 0-.027-.131z" class="cls-3" data-name="패스 2819"/>
                <path id="패스_2820" d="M2959.448 249.5a.431.431 0 0 1-.312.1h-2.514a.432.432 0 0 1-.313-.1.415.415 0 0 1-.107-.309V244.4h1.218v4.26h2.135v.522a.415.415 0 0 1-.107.318z" class="cls-3" data-name="패스 2820"/>
            </g>
        </g>
    </g>
</svg>
