<svg xmlns="http://www.w3.org/2000/svg" width="50" height="50" viewBox="0 0 50 50">
    <defs>
        <style>
            .cls-1{fill:none}.cls-2{fill:#ea3524}.cls-3{fill:#f46e0f;stroke:#fff;stroke-linecap:round;stroke-linejoin:round}.cls-4{fill:#818180}
        </style>
    </defs>
    <g id="그룹_2620" data-name="그룹 2620" transform="translate(-2130.627 -207.713)">
        <path id="사각형_2755" d="M0 0h50v50H0z" class="cls-1" data-name="사각형 2755" transform="translate(2130.627 207.713)"/>
        <g id="그룹_2619" data-name="그룹 2619">
            <g id="그룹_2617" data-name="그룹 2617">
                <g id="그룹_2614" data-name="그룹 2614">
                    <g id="그룹_2613" data-name="그룹 2613">
                        <g id="그룹_2612" data-name="그룹 2612">
                            <path id="패스_2690" d="M2165.974 230.366a8.012 8.012 0 0 0-1.993-1.979 7.739 7.739 0 0 0 1.729-1.657 6.426 6.426 0 0 0 1.171-3.875 7.948 7.948 0 0 0-3.05-6.439c-2.015-1.627-4.851-2.456-8.437-2.456h-14.231v26.24a3.016 3.016 0 0 0 1.107 2.474 4.581 4.581 0 0 0 2.958.888h10.616a13.127 13.127 0 0 0 8.308-2.444 8.017 8.017 0 0 0 3.144-6.606 7.22 7.22 0 0 0-1.322-4.146zm-10.08-5.854a1.272 1.272 0 0 1-.95.388h-4.708v-3.649h4.708a1.309 1.309 0 0 1 .971.37 1.875 1.875 0 0 1 .465 1.419 1.976 1.976 0 0 1-.486 1.472zm.364 11.327a1.258 1.258 0 0 1-.979.435h-5.043v-4.089h5.043a1.252 1.252 0 0 1 .986.423 2.236 2.236 0 0 1 .529 1.621 2.259 2.259 0 0 1-.536 1.61z" class="cls-2" data-name="패스 2690"/>
                        </g>
                    </g>
                </g>
                <g id="그룹_2616" data-name="그룹 2616">
                    <g id="그룹_2615" data-name="그룹 2615">
                        <path id="패스_2691" d="M2167.525 242.5v-8.18a7.985 7.985 0 0 1-.983.618 4.051 4.051 0 0 1-1.142.431v-2.258a4.96 4.96 0 0 0 1.256-.79 2.794 2.794 0 0 0 .948-1.348h2.51v10.6a.825.825 0 0 1-.319.671 1.143 1.143 0 0 1-.744.259z" class="cls-3" data-name="패스 2691"/>
                    </g>
                </g>
            </g>
            <g id="그룹_2618" data-name="그룹 2618">
                <path id="패스_2692" d="M2146.365 249.731a1.294 1.294 0 0 0 .024-.159 1.016 1.016 0 0 1 .023-.16l.473-1.712h1.254l-1.15 3.539a.466.466 0 0 1-.14.217.369.369 0 0 1-.242.085h-.733l-1.293-3.828 1.248-.005.5 1.714a.921.921 0 0 1 .022.159c.005.075.01.125.014.15z" class="cls-4" data-name="패스 2692"/>
                <path id="패스_2693" d="M2149.51 246.946a.293.293 0 0 1-.089.235.418.418 0 0 1-.276.079h-.864v-1.1h1.23zm-1.2 4.583l-.015-3.786h1.212l.013 3.366a.374.374 0 0 1-.142.3.523.523 0 0 1-.336.118z" class="cls-4" data-name="패스 2693"/>
                <path id="패스_2694" d="M2150.2 247.837v-1.121l1.206-.005.005 1.121h.612v.432a.326.326 0 0 1-.086.252.384.384 0 0 1-.261.08h-.264l.007 1.775a.435.435 0 0 0 .055.238.173.173 0 0 0 .15.08h.408v.5a.324.324 0 0 1-.086.253.385.385 0 0 1-.26.079h-.3a1.162 1.162 0 0 1-.867-.3 1.077 1.077 0 0 1-.307-.791l-.007-1.83h-.024a.376.376 0 0 1-.261-.077.32.32 0 0 1-.089-.251v-.432z" class="cls-4" data-name="패스 2694"/>
                <path id="패스_2695" d="M2154.269 251.493c-.012-.044-.023-.068-.031-.072h-.006v-.011l-.2.06a1.653 1.653 0 0 1-.479.062 1.342 1.342 0 0 1-1.016-.338 1.2 1.2 0 0 1-.327-.857 1.144 1.144 0 0 1 .327-.82 1.368 1.368 0 0 1 1.018-.355l.636-.015v-.1a.747.747 0 0 0-.107-.422.313.313 0 0 0-.268-.152.412.412 0 0 0-.248.088.48.48 0 0 0-.157.316h-1.153a1.1 1.1 0 0 1 .476-.9 1.889 1.889 0 0 1 2.233.054 1.252 1.252 0 0 1 .429.952l.008 1.824a3.178 3.178 0 0 0 .017.339c.01.114.025.228.046.345zm-.073-1.638l-.5.008a.278.278 0 0 0-.207.124.505.505 0 0 0-.1.322.44.44 0 0 0 .1.311.3.3 0 0 0 .216.108.455.455 0 0 0 .36-.155.752.752 0 0 0 .13-.495z" class="cls-4" data-name="패스 2695"/>
                <path id="패스_2696" d="M2157.993 251.49l-.009-2.3a.979.979 0 0 0-.106-.489.322.322 0 0 0-.582.005.98.98 0 0 0-.1.487l.008 1.907a.353.353 0 0 1-.131.292.5.5 0 0 1-.324.106h-.756l-.011-3.011a6.122 6.122 0 0 0-.052-.809l1.176-.005.034.144a.538.538 0 0 1 .022.126.759.759 0 0 1 .341-.236 1.143 1.143 0 0 1 .383-.079 1.226 1.226 0 0 1 .577.129.93.93 0 0 1 .379.341 1.271 1.271 0 0 1 .38-.331 1.1 1.1 0 0 1 .573-.147 1.356 1.356 0 0 1 1.024.392 1.416 1.416 0 0 1 .385 1.024l.009 2.041a.348.348 0 0 1-.132.291.5.5 0 0 1-.323.106h-.763l-.009-2.3a1 1 0 0 0-.1-.5.319.319 0 0 0-.289-.167.334.334 0 0 0-.29.169.881.881 0 0 0-.11.487l.008 1.926a.35.35 0 0 1-.131.291.5.5 0 0 1-.324.106z" class="cls-4" data-name="패스 2696"/>
                <path id="패스_2697" d="M2162.98 246.893a.293.293 0 0 1-.09.234.408.408 0 0 1-.275.079h-.864v-1.1l1.231-.005zm-1.2 4.582l-.015-3.785 1.212-.005.014 3.366a.371.371 0 0 1-.143.3.513.513 0 0 1-.335.118z" class="cls-4" data-name="패스 2697"/>
                <path id="패스_2698" d="M2163.6 251.468l-.012-3.006c0-.156 0-.295-.008-.417a3.566 3.566 0 0 0-.037-.4h1.188a.854.854 0 0 1 .037.137.179.179 0 1 0 .3-.1 1 1 0 0 1 .4-.085 1.232 1.232 0 0 1 .982.389 1.5 1.5 0 0 1 .349 1.027l.008 2.046a.352.352 0 0 1-.13.292.505.505 0 0 1-.324.106h-.75l-.009-2.31a1.019 1.019 0 0 0-.1-.491.328.328 0 0 0-.588.008.973.973 0 0 0-.1.486l.007 1.914a.35.35 0 0 1-.131.292.5.5 0 0 1-.323.106z" class="cls-4" data-name="패스 2698"/>
            </g>
        </g>
    </g>
</svg>
