<svg xmlns="http://www.w3.org/2000/svg" width="50" height="50" viewBox="0 0 50 50">
    <defs>
        <style>
            .cls-1{fill:#faddc7}.cls-2,.cls-3{fill:#f6ceb3}.cls-3{opacity:.52}.cls-4{fill:#1a1818}.cls-5{fill:none}
        </style>
    </defs>
    <g id="그룹_2746" data-name="그룹 2746" transform="translate(-3030.627 -207.378)">
        <g id="그룹_2745" data-name="그룹 2745">
            <g id="그룹_2743" data-name="그룹 2743">
                <path id="패스_2929" d="M3049.667 218.4s-1.893 8.623.631 12.2c0 0 3.786-1.332 6.31.631 0 0 6.863-6.482 13.691-2.929a3.028 3.028 0 0 1 1.441 1.608c1.178 3.1 3.867 12.363-6.3 11.837a27.3 27.3 0 0 1-3.785.421 16.147 16.147 0 0 1-15.564.421 24.066 24.066 0 0 0-4-1.473 4.472 4.472 0 0 1-3.576-3.576s-.631-5.047.21-7.15c0 0 4.838-10.1 6.1-13.041 0 0 1.262-2.524 1.682-3.785 0 0 1.052-2.945 3.366-2.945 0 0 4.486 0 6.169.631a3.693 3.693 0 0 1 1.665 2.156 28.635 28.635 0 0 1 .263 4.1s-.236 1.288-1.735.579a1.251 1.251 0 0 1-2.05.14s-.666.911-2.033-.246c0 0-1.332.982-1.858-.28l-.631.176v.525z" class="cls-1" data-name="패스 2929"/>
                <g id="그룹_2742" data-name="그룹 2742">
                    <path id="패스_2930" d="M3061.41 236.279a.71.71 0 0 0 .026.072c.277.622.633 1.168.948 1.77a17.115 17.115 0 0 0 1.043 1.793 6.591 6.591 0 0 0 1.383 1.551 4.971 4.971 0 0 1-1.726-1.277 11.684 11.684 0 0 1-1.3-1.724 18.745 18.745 0 0 1-1-1.827.48.48 0 0 1-.039-.118 5.562 5.562 0 0 0-.665-1.847 11.231 11.231 0 0 0-1.187-1.222 4.678 4.678 0 0 0-1.393-.84 4.581 4.581 0 0 0-1.638-.276 5.5 5.5 0 0 0-1.709.3 4.419 4.419 0 0 1 3.529-.613 4.6 4.6 0 0 1 1.692.84 6.244 6.244 0 0 1 1.287 1.357 9.1 9.1 0 0 1 .749 2.061z" class="cls-2" data-name="패스 2930"/>
                    <path id="패스_2931" d="M3048.265 233.893a14.565 14.565 0 0 0 .651 2.664 4.668 4.668 0 0 0 .62 1.109 6.6 6.6 0 0 0 .972.994 2.423 2.423 0 0 1-1.435-.521 3 3 0 0 1-.938-1.27 3.712 3.712 0 0 1-.252-1.521 3.291 3.291 0 0 1 .382-1.455z" class="cls-2" data-name="패스 2931"/>
                    <path id="패스_2932" d="M3051.349 240.9c1.135-.07 2.175-.1 3.208-.248.515-.072 1.025-.159 1.535-.283s1.018-.282 1.567-.451a3.755 3.755 0 0 1-1.339 1.066 5.26 5.26 0 0 1-1.65.5 5.886 5.886 0 0 1-1.713-.026 4.4 4.4 0 0 1-1.608-.558z" class="cls-2" data-name="패스 2932"/>
                    <path id="패스_2933" d="M3040.132 236.7c.244.554.374.968.563 1.312a3.194 3.194 0 0 0 .322.5c.134.171.307.343.518.573a1.2 1.2 0 0 1-.9-.03 1.431 1.431 0 0 1-.689-.65 1.583 1.583 0 0 1-.171-.9 1.346 1.346 0 0 1 .357-.805z" class="cls-2" data-name="패스 2933"/>
                    <path id="패스_2934" d="M3049.667 217.347a2.424 2.424 0 0 1-1.052-.313 3.111 3.111 0 0 1-.853-.725 4.378 4.378 0 0 1-.593-.946 4.893 4.893 0 0 1-.36-1.06l.392-.023a9.518 9.518 0 0 1-.247 1.268 4.624 4.624 0 0 1-.21.614 1.675 1.675 0 0 1-.338.554 2.14 2.14 0 0 0 .187-.6c.035-.206.067-.413.092-.622.051-.415.091-.836.12-1.25l.086-1.225.306 1.2a6.286 6.286 0 0 0 .348.966 5.606 5.606 0 0 0 .508.9 3.777 3.777 0 0 0 .7.75 3.144 3.144 0 0 0 .914.512z" class="cls-3" data-name="패스 2934"/>
                    <path id="패스_2935" d="M3063.864 229.651a2.6 2.6 0 0 1 1.469-1.078 4.708 4.708 0 0 1 1.833-.21 6.2 6.2 0 0 1 1.765.406 5.646 5.646 0 0 1 1.558.883c-.6-.059-1.169-.161-1.729-.249s-1.11-.158-1.656-.2a9.008 9.008 0 0 0-1.626.008 4.807 4.807 0 0 0-1.614.44z" class="cls-2" data-name="패스 2935"/>
                    <path id="패스_2936" d="M3050.3 230.6a7.01 7.01 0 0 0-1.714.555 7.453 7.453 0 0 0-1.465.983 8.824 8.824 0 0 1-1.549 1.094 4.922 4.922 0 0 1-1.9.518.415.415 0 0 1-.36-.67l.016-.022a9.89 9.89 0 0 0 .993-1.591c.3-.566.562-1.161.812-1.761s.47-1.217.676-1.841.4-1.256.6-1.893a14.554 14.554 0 0 1-.191 1.995 15.756 15.756 0 0 1-.456 1.962 14.059 14.059 0 0 1-.722 1.9 9.24 9.24 0 0 1-1.085 1.782l-.344-.692a4.555 4.555 0 0 0 1.621-.389 10.979 10.979 0 0 0 1.511-.907 6.318 6.318 0 0 1 1.7-.838 5.136 5.136 0 0 1 1.857-.185z" class="cls-2" data-name="패스 2936"/>
                </g>
            </g>
            <g id="그룹_2744" data-name="그룹 2744">
                <path id="패스_2937" d="M3044.819 252.889v-5.628h2.139a1.635 1.635 0 0 1 1.427.588 2.016 2.016 0 0 1 .419 1.173 1.94 1.94 0 0 1-.429 1.206 1.682 1.682 0 0 1-1.417.556h-.819v1.651a.4.4 0 0 1-.157.328.557.557 0 0 1-.363.126zm2.659-3.867a.822.822 0 0 0-.169-.552.516.516 0 0 0-.4-.2h-.766v1.489h.766a.518.518 0 0 0 .407-.192.813.813 0 0 0 .162-.545z" class="cls-4" data-name="패스 2937"/>
                <path id="패스_2938" d="M3049.213 252.889v-3.341c0-.134 0-.268-.01-.4s-.017-.265-.035-.391h1.241c.009.048.021.1.036.16a.3.3 0 0 1 .01.14.79.79 0 0 1 .354-.257 1.158 1.158 0 0 1 .425-.088 1.478 1.478 0 0 1 .5.088.886.886 0 0 1 .429.354l-.409 1a.839.839 0 0 0-.332-.364.749.749 0 0 0-.338-.1.458.458 0 0 0-.406.267 1.259 1.259 0 0 0-.153.637v1.865a.376.376 0 0 1-.143.315.539.539 0 0 1-.351.114z" class="cls-4" data-name="패스 2938"/>
                <path id="패스_2939" d="M3055.849 250.8a2.555 2.555 0 0 1-.412 1.605 2.01 2.01 0 0 1-2.688 0 2.446 2.446 0 0 1-.436-1.6 2.293 2.293 0 0 1 .471-1.6 1.906 1.906 0 0 1 2.6 0 2.3 2.3 0 0 1 .465 1.595zm-1.306 0a2.075 2.075 0 0 0-.137-.884c-.091-.178-.2-.267-.325-.267s-.245.089-.331.267a2.162 2.162 0 0 0-.131.884 2.37 2.37 0 0 0 .124.858c.082.2.2.305.338.305s.267-.1.345-.305a2.488 2.488 0 0 0 .117-.858z" class="cls-4" data-name="패스 2939"/>
                <path id="패스_2940" d="M3056.447 248.9v-1.215h1.306v1.215h.663v.469a.351.351 0 0 1-.094.273.414.414 0 0 1-.283.084h-.286v1.924a.456.456 0 0 0 .059.257.186.186 0 0 0 .163.087h.441v.547a.351.351 0 0 1-.094.273.414.414 0 0 1-.283.084h-.325a1.264 1.264 0 0 1-.939-.332 1.168 1.168 0 0 1-.328-.857v-1.983h-.026a.414.414 0 0 1-.283-.084.351.351 0 0 1-.094-.273v-.469z" class="cls-4" data-name="패스 2940"/>
                <path id="패스_2941" d="M3059.989 251.134a1.233 1.233 0 0 0 .146.641.468.468 0 0 0 .426.244.642.642 0 0 0 .156-.02.36.36 0 0 0 .142-.072.445.445 0 0 0 .112-.133.524.524 0 0 0 .057-.211h1.3a1.239 1.239 0 0 1-.179.559 1.486 1.486 0 0 1-.393.422 1.787 1.787 0 0 1-.549.267 2.247 2.247 0 0 1-.641.091 1.967 1.967 0 0 1-.819-.159 1.633 1.633 0 0 1-.585-.442 1.92 1.92 0 0 1-.35-.67 2.875 2.875 0 0 1-.118-.848 2.826 2.826 0 0 1 .127-.878 1.862 1.862 0 0 1 .365-.662 1.6 1.6 0 0 1 .571-.42 1.863 1.863 0 0 1 .751-.146 1.889 1.889 0 0 1 .721.136 1.661 1.661 0 0 1 .576.394 1.828 1.828 0 0 1 .38.617 2.3 2.3 0 0 1 .136.809v.481zm1.039-.74a1.27 1.27 0 0 0-.015-.264 1 1 0 0 0-.081-.263.566.566 0 0 0-.163-.205.412.412 0 0 0-.26-.081.4.4 0 0 0-.24.071.537.537 0 0 0-.16.189.9.9 0 0 0-.09.263 1.441 1.441 0 0 0-.03.29z" class="cls-4" data-name="패스 2941"/>
                <path id="패스_2942" d="M3064.123 247.93a.319.319 0 0 1-.1.254.448.448 0 0 1-.3.084h-.937v-1.189h1.333zm-1.32 4.959v-4.1h1.313v3.647a.4.4 0 0 1-.156.328.564.564 0 0 1-.364.126z" class="cls-4" data-name="패스 2942"/>
                <path id="패스_2943" d="M3064.772 252.889v-3.256-.452a3.34 3.34 0 0 0-.039-.432h1.287a1.041 1.041 0 0 1 .039.149.2.2 0 1 0 .328-.1 1.084 1.084 0 0 1 .431-.09 1.344 1.344 0 0 1 1.064.425 1.63 1.63 0 0 1 .373 1.115v2.216a.379.379 0 0 1-.143.315.538.538 0 0 1-.351.114h-.813v-2.5a1.119 1.119 0 0 0-.106-.533.347.347 0 0 0-.322-.2.351.351 0 0 0-.316.2 1.079 1.079 0 0 0-.113.527v2.073a.376.376 0 0 1-.144.315.535.535 0 0 1-.35.114z" class="cls-4" data-name="패스 2943"/>
            </g>
        </g>
        <path id="사각형_2787" d="M0 0h50v50H0z" class="cls-5" data-name="사각형 2787" transform="translate(3030.627 207.378)"/>
    </g>
</svg>
