<svg xmlns="http://www.w3.org/2000/svg" width="50" height="50" viewBox="0 0 50 50">
    <defs>
        <style>
            .cls-1{fill:none}.cls-2{fill:#0d4e86;stroke:#0d4e86;stroke-miterlimit:10}.cls-3{fill:#818180}
        </style>
    </defs>
    <g id="그룹_2688" data-name="그룹 2688" transform="translate(-2975.13 -210.526)">
        <path id="사각형_2766" d="M0 0h50v50H0z" class="cls-1" data-name="사각형 2766" transform="translate(2975.131 210.526)"/>
        <g id="그룹_2687" data-name="그룹 2687">
            <g id="그룹_2685" data-name="그룹 2685">
                <path id="패스_2786" d="M2993.114 242.277v-21.471h14.033v2.5a1.339 1.339 0 0 1-.359 1.042 1.574 1.574 0 0 1-1.079.322h-7.562v5.107h7.686v2.48a1.339 1.339 0 0 1-.359 1.041 1.575 1.575 0 0 1-1.079.322h-6.248v6.918a1.539 1.539 0 0 1-.595 1.252 2.137 2.137 0 0 1-1.388.483z" class="cls-2" data-name="패스 2786"/>
            </g>
            <g id="그룹_2686" data-name="그룹 2686">
                <path id="패스_2787" d="M2986.028 250.247v-5.2h1.35l1.049 2.988 1.044-2.988h1.357v4.776a.37.37 0 0 1-.145.3.521.521 0 0 1-.336.117h-.737v-2.44q0-.03.006-.141t.006-.147c0 .016-.011.058-.022.126a.658.658 0 0 1-.026.131l-.582 1.693a.447.447 0 0 1-.159.231.441.441 0 0 1-.267.081h-.582l-.684-2.04a1.254 1.254 0 0 1-.027-.144.71.71 0 0 0-.033-.144c0 .036.006.094.006.174v2.208a.371.371 0 0 1-.145.3.521.521 0 0 1-.336.117z" class="cls-3" data-name="패스 2787"/>
                <path id="패스_2788" d="M2991.626 245.051h1.217v4.776a.37.37 0 0 1-.144.3.522.522 0 0 1-.336.117h-.737z" class="cls-3" data-name="패스 2788"/>
                <path id="패스_2789" d="M2996.45 250.247l-1.524-2.707a1.516 1.516 0 0 1-.042-.14.773.773 0 0 0-.048-.141c0 .028.009.083.018.165s.012.135.012.158v2.245a.37.37 0 0 1-.145.3.52.52 0 0 1-.336.117h-.737v-5.2h1.1l1.494 2.646a.568.568 0 0 1 .054.141 1.118 1.118 0 0 0 .053.153c0-.032 0-.084-.011-.156s-.012-.122-.012-.151v-2.633h1.224v4.776a.373.373 0 0 1-.144.3.525.525 0 0 1-.336.117z" class="cls-3" data-name="패스 2789"/>
                <path id="패스_2790" d="M2999.563 245.987v1.164h1.861v.617a.32.32 0 0 1-.088.252.375.375 0 0 1-.261.079h-1.512v1.211h2.178v.522a.416.416 0 0 1-.107.31.438.438 0 0 1-.313.1h-2.556a.434.434 0 0 1-.312-.1.418.418 0 0 1-.108-.31v-4.781h3.4v.606a.324.324 0 0 1-.087.252.381.381 0 0 1-.261.078z" class="cls-3" data-name="패스 2790"/>
                <path id="패스_2791" d="M3002.342 250.247v-5.2h1.991a1.631 1.631 0 0 1 1.23.459 1.573 1.573 0 0 1 .445 1.137 1.425 1.425 0 0 1-.336.948 1.043 1.043 0 0 1-.643.425 1.47 1.47 0 0 1 .307.291 1.308 1.308 0 0 1 .168.34l.308.894a1.851 1.851 0 0 0 .387.7h-1.319a1.324 1.324 0 0 1-.337-.706 7.918 7.918 0 0 0-.228-.86 1.3 1.3 0 0 0-.165-.339c-.07-.1-.133-.153-.188-.153h-.4v1.638a.373.373 0 0 1-.144.3.522.522 0 0 1-.336.117zm2.447-3.6a.711.711 0 0 0-.153-.486.469.469 0 0 0-.363-.174h-.714v1.32h.714a.469.469 0 0 0 .363-.174.711.711 0 0 0 .153-.486z" class="cls-3" data-name="패스 2791"/>
                <path id="패스_2792" d="M3009.338 250.247l-.283-.937h-1.374l-.288.937h-1.254l1.722-5.2h1.009l1.727 5.2zm-.943-3.36c-.008.027-.018.071-.033.131s-.024.107-.032.139l-.378 1.272h.857l-.359-1.272a1.139 1.139 0 0 1-.027-.139 1.156 1.156 0 0 0-.023-.131z" class="cls-3" data-name="패스 2792"/>
                <path id="패스_2793" d="M3014.126 250.142a.438.438 0 0 1-.313.1h-2.513a.435.435 0 0 1-.313-.1.416.416 0 0 1-.107-.31v-4.781h1.217v4.259h2.136v.522a.416.416 0 0 1-.107.31z" class="cls-3" data-name="패스 2793"/>
            </g>
        </g>
    </g>
</svg>
