<svg xmlns="http://www.w3.org/2000/svg" width="50" height="50" viewBox="0 0 50 50">
    <defs>
        <style>
            .cls-1{fill:#0d4e86;stroke:#0d4e86;stroke-miterlimit:10}.cls-2{fill:#818180}.cls-3{fill:none}
        </style>
    </defs>
    <g id="그룹_2696" data-name="그룹 2696" transform="translate(-2859.329 -210.879)">
        <g id="그룹_2695" data-name="그룹 2695">
            <g id="그룹_2693" data-name="그룹 2693">
                <path id="패스_2803" d="M2867.48 241.949v-20.085h5.219l4.058 11.55 4.035-11.55h5.242v18.462a1.439 1.439 0 0 1-.556 1.171 2 2 0 0 1-1.3.452h-2.852v-9.463c0-.077.008-.258.023-.545s.023-.475.023-.568a7.277 7.277 0 0 0-.081.487 2.875 2.875 0 0 1-.1.51l-2.25 6.541a1.635 1.635 0 0 1-1.647 1.206h-2.249l-2.644-7.886a4.912 4.912 0 0 1-.1-.556 2.568 2.568 0 0 0-.127-.557c.015.139.023.364.023.673v8.535a1.438 1.438 0 0 1-.557 1.171 2 2 0 0 1-1.3.452z" class="cls-1" data-name="패스 2803"/>
                <path id="패스_2804" d="M2888.771 241.949V230.33q0-.9-.024-1.612a15.033 15.033 0 0 0-.139-1.543h4.592a3.01 3.01 0 0 1 .139.534 2.644 2.644 0 0 1 .047.394 2.979 2.979 0 0 1 1.124-.765 3.879 3.879 0 0 1 1.543-.325 4.78 4.78 0 0 1 3.792 1.519 5.811 5.811 0 0 1 1.333 3.978v7.908a1.357 1.357 0 0 1-.51 1.125 1.947 1.947 0 0 1-1.252.406h-2.9v-8.929a3.984 3.984 0 0 0-.382-1.9 1.267 1.267 0 0 0-2.274.023 3.813 3.813 0 0 0-.405 1.879v7.4a1.361 1.361 0 0 1-.51 1.125 1.949 1.949 0 0 1-1.253.406z" class="cls-1" data-name="패스 2804"/>
            </g>
            <g id="그룹_2694" data-name="그룹 2694">
                <path id="패스_2805" d="M2870.227 249.894v-5.2h1.349l1.05 2.988 1.044-2.988h1.356v4.776a.37.37 0 0 1-.144.3.517.517 0 0 1-.336.117h-.737v-2.448q0-.03.006-.141c0-.074.005-.123.005-.147 0 .016-.01.058-.021.126a.872.872 0 0 1-.026.132l-.583 1.692a.423.423 0 0 1-.425.312h-.582l-.685-2.04a1.109 1.109 0 0 1-.026-.144.785.785 0 0 0-.033-.144c0 .036.005.094.005.174v2.208a.37.37 0 0 1-.144.3.517.517 0 0 1-.336.117z" class="cls-2" data-name="패스 2805"/>
                <path id="패스_2806" d="M2875.824 244.7h1.218v4.776a.373.373 0 0 1-.144.3.517.517 0 0 1-.336.117h-.738z" class="cls-2" data-name="패스 2806"/>
                <path id="패스_2807" d="M2880.648 249.894l-1.524-2.706c-.008-.02-.021-.067-.042-.141a.642.642 0 0 0-.048-.141c0 .028.01.083.019.165s.012.135.012.159v2.244a.37.37 0 0 1-.145.3.517.517 0 0 1-.336.117h-.737v-5.2h1.1l1.495 2.646a.577.577 0 0 1 .053.141 1.092 1.092 0 0 0 .054.153q0-.048-.012-.156a1.488 1.488 0 0 1-.011-.15V244.7h1.223v4.776a.374.374 0 0 1-.143.3.519.519 0 0 1-.336.117z" class="cls-2" data-name="패스 2807"/>
                <path id="패스_2808" d="M2883.762 245.634v1.166h1.86v.618a.32.32 0 0 1-.088.252.377.377 0 0 1-.261.078h-1.511v1.212h2.178v.522a.416.416 0 0 1-.108.309.431.431 0 0 1-.312.1h-2.556a.433.433 0 0 1-.313-.1.416.416 0 0 1-.107-.309V244.7h3.4v.606a.327.327 0 0 1-.087.252.381.381 0 0 1-.261.078z" class="cls-2" data-name="패스 2808"/>
                <path id="패스_2809" d="M2886.54 249.894v-5.2h1.991a1.632 1.632 0 0 1 1.231.459 1.571 1.571 0 0 1 .444 1.137 1.418 1.418 0 0 1-.336.948 1.045 1.045 0 0 1-.642.426 1.413 1.413 0 0 1 .306.291 1.271 1.271 0 0 1 .168.339c.1.276.2.574.309.894a1.838 1.838 0 0 0 .387.7h-1.32a1.34 1.34 0 0 1-.337-.705 7.674 7.674 0 0 0-.227-.861 1.3 1.3 0 0 0-.165-.339c-.071-.1-.133-.153-.189-.153h-.4v1.638a.371.371 0 0 1-.145.3.515.515 0 0 1-.336.117zm2.447-3.6a.711.711 0 0 0-.152-.486.471.471 0 0 0-.363-.174h-.714v1.32h.714a.471.471 0 0 0 .363-.174.711.711 0 0 0 .152-.486z" class="cls-2" data-name="패스 2809"/>
                <path id="패스_2810" d="M2893.536 249.894l-.282-.936h-1.374l-.288.936h-1.254l1.722-5.2h1.008l1.728 5.2zm-.942-3.36q-.012.042-.033.132l-.033.138-.378 1.272h.858l-.36-1.272a1.889 1.889 0 0 1-.027-.138 1.3 1.3 0 0 0-.027-.132z" class="cls-2" data-name="패스 2810"/>
                <path id="패스_2811" d="M2898.324 249.789a.43.43 0 0 1-.312.1h-2.512a.428.428 0 0 1-.312-.1.412.412 0 0 1-.108-.309v-4.78h1.218v4.26h2.136v.522a.412.412 0 0 1-.11.307z" class="cls-2" data-name="패스 2811"/>
            </g>
        </g>
        <path id="사각형_2768" d="M0 0h50v50H0z" class="cls-3" data-name="사각형 2768" transform="translate(2859.329 210.879)"/>
    </g>
</svg>
