<svg xmlns="http://www.w3.org/2000/svg" width="50" height="50" viewBox="0 0 50 50">
    <defs>
        <style>
            .cls-1{fill:none}.cls-2{fill:#ea3524}.cls-3{fill:#f46e0f;stroke:#fff;stroke-linecap:round;stroke-linejoin:round;font-size:13.281px;font-family:TmonMonsoriBlack,TmonMonsori;letter-spacing:-.2em}.cls-4{fill:#818180}
        </style>
    </defs>
    <g id="그룹_2645" data-name="그룹 2645" transform="translate(-2307.189 -207.713)">
        <path id="사각형_2758" d="M0 0h50v50H0z" class="cls-1" data-name="사각형 2758" transform="translate(2307.188 207.713)"/>
        <g id="그룹_2644" data-name="그룹 2644">
            <g id="그룹_2642" data-name="그룹 2642">
                <g id="그룹_2641" data-name="그룹 2641">
                    <g id="그룹_2640" data-name="그룹 2640">
                        <g id="그룹_2639" data-name="그룹 2639">
                            <path id="패스_2717" d="M2341.664 230.37a8.037 8.037 0 0 0-1.994-1.98 7.7 7.7 0 0 0 1.729-1.657 6.421 6.421 0 0 0 1.172-3.875 7.946 7.946 0 0 0-3.051-6.438c-2.014-1.628-4.85-2.456-8.437-2.456h-14.231V240.2a3.017 3.017 0 0 0 1.108 2.474 4.576 4.576 0 0 0 2.957.889h10.616a13.124 13.124 0 0 0 8.309-2.445 8.014 8.014 0 0 0 3.143-6.6 7.221 7.221 0 0 0-1.321-4.148zm-10.081-5.854a1.268 1.268 0 0 1-.95.387h-4.708v-3.648h4.708a1.316 1.316 0 0 1 .972.369 1.874 1.874 0 0 1 .464 1.419 1.974 1.974 0 0 1-.486 1.473zm.365 11.326a1.257 1.257 0 0 1-.979.436h-5.044v-4.09h5.044a1.256 1.256 0 0 1 .986.423 2.717 2.717 0 0 1-.007 3.231z" class="cls-2" data-name="패스 2717"/>
                        </g>
                    </g>
                </g>
                <text id="_6" class="cls-3" data-name="6" transform="translate(2339.936 240.722)">
                    <tspan x="0" y="0">6</tspan>
                </text>
            </g>
            <g id="그룹_2643" data-name="그룹 2643">
                <path id="패스_2718" d="M2322.927 249.731a1.354 1.354 0 0 0 .023-.159 1.4 1.4 0 0 1 .023-.16l.474-1.712h1.254l-1.15 3.539a.466.466 0 0 1-.141.217.364.364 0 0 1-.242.085h-.732l-1.294-3.828 1.248-.005.5 1.714a.9.9 0 0 1 .022.159c.006.075.011.125.015.15z" class="cls-4" data-name="패스 2718"/>
                <path id="패스_2719" d="M2326.072 246.946a.3.3 0 0 1-.09.235.413.413 0 0 1-.275.079h-.864l-.005-1.1h1.231zm-1.2 4.583l-.015-3.786h1.212l.014 3.366a.375.375 0 0 1-.143.3.519.519 0 0 1-.335.118z" class="cls-4" data-name="패스 2719"/>
                <path id="패스_2720" d="M2326.759 247.837v-1.121l1.206-.005v1.121h.612v.432a.323.323 0 0 1-.086.252.379.379 0 0 1-.26.08h-.265l.007 1.775a.432.432 0 0 0 .056.238.17.17 0 0 0 .149.08h.409v.5a.33.33 0 0 1-.086.253.387.387 0 0 1-.261.079h-.3a1.164 1.164 0 0 1-.868-.3 1.08 1.08 0 0 1-.307-.791l-.007-1.83h-.023a.372.372 0 0 1-.261-.077.316.316 0 0 1-.089-.251v-.432z" class="cls-4" data-name="패스 2720"/>
                <path id="패스_2721" d="M2330.83 251.493a.166.166 0 0 0-.03-.072h-.006v-.011l-.2.06a1.66 1.66 0 0 1-.48.062 1.343 1.343 0 0 1-1.016-.338 1.2 1.2 0 0 1-.326-.857 1.144 1.144 0 0 1 .327-.82 1.367 1.367 0 0 1 1.018-.355l.635-.015v-.1a.745.745 0 0 0-.106-.422.315.315 0 0 0-.268-.152.417.417 0 0 0-.249.088.484.484 0 0 0-.157.316h-1.152a1.1 1.1 0 0 1 .476-.9 1.888 1.888 0 0 1 2.232.054 1.253 1.253 0 0 1 .43.952l.007 1.824a4.245 4.245 0 0 0 .063.684zm-.073-1.638l-.5.008a.276.276 0 0 0-.206.124.5.5 0 0 0-.1.322.445.445 0 0 0 .1.311.3.3 0 0 0 .217.108.452.452 0 0 0 .359-.155.746.746 0 0 0 .13-.495z" class="cls-4" data-name="패스 2721"/>
                <path id="패스_2722" d="M2334.555 251.49l-.009-2.3a.979.979 0 0 0-.107-.489.322.322 0 0 0-.582.005.98.98 0 0 0-.1.487l.007 1.907a.352.352 0 0 1-.13.292.5.5 0 0 1-.324.106h-.756l-.012-3.011a6.174 6.174 0 0 0-.051-.809l1.176-.005.033.144a.538.538 0 0 1 .022.126.759.759 0 0 1 .341-.236 1.148 1.148 0 0 1 .384-.079 1.222 1.222 0 0 1 .576.129.933.933 0 0 1 .38.341 1.266 1.266 0 0 1 .379-.331 1.1 1.1 0 0 1 .573-.147 1.354 1.354 0 0 1 1.024.392 1.416 1.416 0 0 1 .386 1.024l.008 2.041a.348.348 0 0 1-.132.291.5.5 0 0 1-.322.106h-.763l-.009-2.3a.986.986 0 0 0-.1-.5.32.32 0 0 0-.289-.167.335.335 0 0 0-.29.169.881.881 0 0 0-.109.487l.007 1.926a.349.349 0 0 1-.13.291.5.5 0 0 1-.324.106z" class="cls-4" data-name="패스 2722"/>
                <path id="패스_2723" d="M2339.541 246.893a.289.289 0 0 1-.089.234.411.411 0 0 1-.276.079h-.864v-1.1l1.23-.005zm-1.2 4.582l-.015-3.785 1.212-.005.013 3.366a.371.371 0 0 1-.142.3.518.518 0 0 1-.336.118z" class="cls-4" data-name="패스 2723"/>
                <path id="패스_2724" d="M2340.159 251.468l-.012-3.006c0-.156 0-.295-.007-.417a3.83 3.83 0 0 0-.038-.4h1.189a.968.968 0 0 1 .036.137.737.737 0 0 1 .012.1.785.785 0 0 1 .291-.2 1 1 0 0 1 .4-.085 1.235 1.235 0 0 1 .982.389 1.5 1.5 0 0 1 .348 1.027l.009 2.046a.353.353 0 0 1-.131.292.505.505 0 0 1-.324.106h-.75l-.009-2.31a1.019 1.019 0 0 0-.1-.491.327.327 0 0 0-.587.008.973.973 0 0 0-.1.486l.008 1.914a.353.353 0 0 1-.131.292.5.5 0 0 1-.324.106z" class="cls-4" data-name="패스 2724"/>
            </g>
        </g>
    </g>
</svg>
