<svg xmlns="http://www.w3.org/2000/svg" width="50" height="50" viewBox="0 0 50 50">
    <defs>
        <style>
            .cls-1{fill:none}.cls-2{fill:#9b1db2;stroke:#9b1db2;stroke-miterlimit:10;stroke-width:3px}.cls-3{fill:#818180}
        </style>
    </defs>
    <g id="그룹_2611" data-name="그룹 2611" transform="translate(-1965.342 -208.259)">
        <path id="사각형_2754" d="M0 0h50v50H0z" class="cls-1" data-name="사각형 2754" transform="translate(1965.342 208.259)"/>
        <g id="그룹_2610" data-name="그룹 2610">
            <g id="그룹_2608" data-name="그룹 2608">
                <path id="패스_2682" d="M1987.768 220.059v6.041h9.974v3.2a1.645 1.645 0 0 1-.467 1.307 2.084 2.084 0 0 1-1.4.4h-8.108v6.293h11.679v2.707a2.1 2.1 0 0 1-.579 1.6 2.354 2.354 0 0 1-1.673.545h-13.707a2.351 2.351 0 0 1-1.672-.545 2.094 2.094 0 0 1-.58-1.6V215.2h18.211v3.143a1.643 1.643 0 0 1-.466 1.307 2.087 2.087 0 0 1-1.4.4z" class="cls-2" data-name="패스 2682"/>
            </g>
            <g id="그룹_2609" data-name="그룹 2609">
                <path id="패스_2683" d="M1981.012 249.483a1.093 1.093 0 0 0 .024-.159 1.076 1.076 0 0 1 .024-.159l.48-1.71h1.254l-1.164 3.534a.458.458 0 0 1-.141.216.363.363 0 0 1-.243.084h-.732l-1.278-3.834h1.248l.492 1.716a.945.945 0 0 1 .021.159q.009.117.015.153z" class="cls-3" data-name="패스 2683"/>
                <path id="패스_2684" d="M1984.168 246.711a.29.29 0 0 1-.091.234.409.409 0 0 1-.275.078h-.864v-1.1h1.23zm-1.219 4.578V247.5h1.212v3.366a.371.371 0 0 1-.143.3.517.517 0 0 1-.336.117z" class="cls-3" data-name="패스 2684"/>
                <path id="패스_2685" d="M1984.852 247.6v-1.122h1.206v1.122h.612v.432a.323.323 0 0 1-.087.252.379.379 0 0 1-.26.078h-.265v1.776a.42.42 0 0 0 .055.237.168.168 0 0 0 .149.081h.408v.5a.323.323 0 0 1-.087.252.379.379 0 0 1-.26.078h-.3a1.162 1.162 0 0 1-.866-.306 1.074 1.074 0 0 1-.3-.792v-1.83h-.024a.376.376 0 0 1-.26-.078.32.32 0 0 1-.088-.252v-.428z" class="cls-3" data-name="패스 2685"/>
                <path id="패스_2686" d="M1988.908 251.277c-.011-.044-.022-.068-.03-.072h-.006v-.012l-.2.06a1.63 1.63 0 0 1-.479.06 1.342 1.342 0 0 1-1.015-.342 1.2 1.2 0 0 1-.323-.858 1.14 1.14 0 0 1 .33-.819 1.367 1.367 0 0 1 1.019-.351l.636-.012v-.1a.748.748 0 0 0-.1-.423.317.317 0 0 0-.268-.153.41.41 0 0 0-.249.087.481.481 0 0 0-.158.315h-1.153a1.1 1.1 0 0 1 .48-.9 1.892 1.892 0 0 1 2.232.063 1.253 1.253 0 0 1 .426.954v1.824a4.18 4.18 0 0 0 .061.684zm-.066-1.638l-.5.006a.275.275 0 0 0-.207.123.5.5 0 0 0-.1.321.442.442 0 0 0 .1.312.3.3 0 0 0 .216.108.451.451 0 0 0 .36-.153.752.752 0 0 0 .132-.5z" class="cls-3" data-name="패스 2686"/>
                <path id="패스_2687" d="M1992.633 251.289v-2.3a.982.982 0 0 0-.1-.489.322.322 0 0 0-.582 0 .972.972 0 0 0-.106.486v1.908a.351.351 0 0 1-.132.291.5.5 0 0 1-.324.1h-.756v-3.012q0-.228-.012-.408t-.036-.4h1.176l.033.144a.531.531 0 0 1 .022.126.753.753 0 0 1 .342-.234 1.139 1.139 0 0 1 .383-.078 1.227 1.227 0 0 1 .577.132.926.926 0 0 1 .377.342 1.274 1.274 0 0 1 .381-.33 1.107 1.107 0 0 1 .574-.144 1.353 1.353 0 0 1 1.022.4 1.415 1.415 0 0 1 .382 1.026v2.04a.349.349 0 0 1-.133.291.5.5 0 0 1-.323.1h-.763v-2.3a.991.991 0 0 0-.1-.5.323.323 0 0 0-.289-.168.337.337 0 0 0-.291.168.883.883 0 0 0-.111.486v1.926a.351.351 0 0 1-.132.291.5.5 0 0 1-.324.1z" class="cls-3" data-name="패스 2687"/>
                <path id="패스_2688" d="M1997.638 246.711a.29.29 0 0 1-.091.234.409.409 0 0 1-.275.078h-.865v-1.1h1.231zm-1.219 4.578V247.5h1.212v3.366a.374.374 0 0 1-.143.3.517.517 0 0 1-.336.117z" class="cls-3" data-name="패스 2688"/>
                <path id="패스_2689" d="M1998.238 251.289v-3.006q0-.234-.006-.417a3.864 3.864 0 0 0-.036-.4h1.188a.878.878 0 0 1 .036.138.729.729 0 0 1 .012.1.765.765 0 0 1 .291-.2 1 1 0 0 1 .4-.084 1.236 1.236 0 0 1 .981.393 1.5 1.5 0 0 1 .345 1.029v2.046a.351.351 0 0 1-.132.291.507.507 0 0 1-.325.1h-.75v-2.31a1.027 1.027 0 0 0-.1-.492.328.328 0 0 0-.588.006.983.983 0 0 0-.106.486v1.914a.35.35 0 0 1-.131.291.505.505 0 0 1-.325.1z" class="cls-3" data-name="패스 2689"/>
            </g>
        </g>
    </g>
</svg>
