<svg xmlns="http://www.w3.org/2000/svg" width="50" height="50" viewBox="0 0 50 50">
    <defs>
        <style>
            .cls-1,.cls-6,.cls-7{fill:none}.cls-2{fill:#d64949}.cls-3{fill:#c74444}.cls-4{fill:#fff;opacity:.8}.cls-5{fill:#fed19f}.cls-6,.cls-7{stroke:#2be1f8;stroke-linecap:round;stroke-width:2px}.cls-7{stroke:#7ae9f7}
        </style>
    </defs>
    <g id="그룹_3348" data-name="그룹 3348" transform="translate(-575.999 -724)">
        <path id="사각형_3004" d="M0 0h50v50H0z" class="cls-1" data-name="사각형 3004" transform="translate(575.999 724)"/>
        <g id="그룹_3347" data-name="그룹 3347" transform="translate(-17.25 23.031)">
            <g id="그룹_3254" data-name="그룹 3254" transform="translate(594 698)">
                <path id="패스_3709" d="M25.49 29.09v3.16a9.871 9.871 0 0 1-1.54.06l-.72-.01-2.05-.03-7.4-.1a9.348 9.348 0 0 0-2.63.33c-1.82.5-3.85 1.32-3.85 1.32a1.6 1.6 0 0 1-2.05-1.53V25.9a14.922 14.922 0 0 1 12.42-14.71c.12.35.24.68.36.95.23.56 1.34 1.11 2.65 1.95a9.894 9.894 0 0 1 4.51 7.75c.16 2.55.34 5.98.3 7.25z" class="cls-2" data-name="패스 3709"/>
                <path id="패스_3710" d="M44.74 13.77c0 2.81-4.77 3.66-7.31 6.18-2.52 2.54-2.81 6.18-4.49 7.87-.47.47-.95 1.03-1.51 1.59a3.726 3.726 0 0 1-.43.36l-1.61 1.17a4.678 4.678 0 0 1-1.05.58c-.2.08-.41.16-.61.22l-1.53.39a.355.355 0 0 1-.1.02c-.2.04-.41.07-.61.09h-.01l-.36-9.95a10.5 10.5 0 0 0-5.01-8.57c-1.05-.64-1.89-1.12-2.08-1.59-.11-.26-.23-.6-.36-.95a14.83 14.83 0 0 1 2.51-.21h17.8c5.07 0 6.76.56 6.76 2.8z" class="cls-3" data-name="패스 3710"/>
                <path id="패스_3711" d="M27.74 31.75a10.093 10.093 0 0 1-1.53.39z" class="cls-3" data-name="패스 3711"/>
                <ellipse id="타원_941" cx="1.39" cy=".94" class="cls-4" data-name="타원 941" rx="1.39" ry=".94" transform="rotate(-73.345 18.312 5.85)"/>
                <ellipse id="타원_942" cx=".74" cy=".5" class="cls-4" data-name="타원 942" rx=".74" ry=".5" transform="rotate(-84.681 16.872 7.947)"/>
                <path id="패스_3713" d="M26.21 32.14l-.1.03v-.01a.355.355 0 0 0 .1-.02z" class="cls-3" data-name="패스 3713"/>
                <g id="그룹_3253" data-name="그룹 3253">
                    <path id="패스_3714" d="M34.7 19.23a.54.54 0 0 1-.75.25 2.166 2.166 0 0 1-1.1-1.64.109.109 0 0 1-.05.01 3.94 3.94 0 0 0-2.2.78 2.47 2.47 0 0 0-.39.4 10 10 0 0 0-1.55 4.23 10.544 10.544 0 0 1-.57 1.7 2.712 2.712 0 0 0-.27.95c-.07 1.06-.1 2.13-.08 3.19v15.73a1.125 1.125 0 0 1-2.25 0V29.09a3.4 3.4 0 0 0-.7-2.25.833.833 0 0 1-.15-.04 3.868 3.868 0 0 1-.99-.34l-.19-.07a.2.2 0 0 1-.08-.04c-1.36-.8-3.61-1.19-6.86-1.19a.127.127 0 0 0-.06-.01 2.166 2.166 0 0 1-1.1 1.63.555.555 0 1 1-.5-.99 1.275 1.275 0 0 0 .53-1.18 1.282 1.282 0 0 0-.53-1.19.535.535 0 0 1-.31-.47.547.547 0 0 1 .8-.53 2.166 2.166 0 0 1 1.1 1.63.127.127 0 0 0 .06-.01c3.42 0 5.84.44 7.39 1.33l.15.06c.37.14.72.27 1.05.36a1.5 1.5 0 0 0 1.01-.07c.6-.31 1.09-1.21 1.47-2.69a10.2 10.2 0 0 1 2-4.98 4.961 4.961 0 0 1 3.23-1.31.433.433 0 0 0 .05.01 2.183 2.183 0 0 1 1.1-1.64.559.559 0 0 1 .5 1 1.319 1.319 0 0 0-.53 1.18 1.309 1.309 0 0 0 .53 1.18.592.592 0 0 1 .24.76z" class="cls-5" data-name="패스 3714"/>
                </g>
            </g>
            <path id="패스_3856" d="M18010.469 3460.237c2.545-.884 8.98-.779 13.064 6.751s-1.666 14.627-3.518 14.727" class="cls-6" data-name="패스 3856" transform="rotate(8 28988.197 -122320.506)"/>
            <path id="패스_3857" d="M18011.3 3460.3c2.545-.884 7.814-.242 11.924 6.894s.186 13.479-2.2 14.5" class="cls-7" data-name="패스 3857" transform="rotate(8 28988.702 -122327.662)"/>
            <path id="패스_3858" d="M0 .3c2.011-.7 7.1-.618 10.324 5.333s-1.317 11.559-2.78 11.638" class="cls-6" data-name="패스 3858" transform="rotate(3 -13309.95 11878.465)"/>
            <path id="패스_3859" d="M0 .244c2.011-.7 6.175-.191 9.422 5.448s.147 10.652-1.74 11.456" class="cls-7" data-name="패스 3859" transform="rotate(3 -13311.815 11875.858)"/>
            <path id="패스_3860" d="M0 .212c1.483-.5 5.231-.439 7.61 3.806s-.971 8.246-2.049 8.3" class="cls-6" data-name="패스 3860" transform="translate(624.548 707.969)"/>
            <path id="패스_3861" d="M0 .174c1.48-.5 4.546-.136 6.936 3.885s.109 7.6-1.281 8.169" class="cls-7" data-name="패스 3861" transform="translate(624.448 708.046)"/>
        </g>
    </g>
</svg>
