<svg xmlns="http://www.w3.org/2000/svg" width="50" height="50" viewBox="0 0 50 50">
    <defs>
        <style>
            .cls-1{fill:#e0f2f5}.cls-2{fill:#5ccbd9}.cls-3{fill:#ffd007}.cls-4{fill:#9c39ff}.cls-5{fill:none}
        </style>
    </defs>
    <g id="그룹_3301" data-name="그룹 3301" transform="translate(-62.19 -.93)">
        <g id="그룹_3300" data-name="그룹 3300">
            <circle id="타원_993" cx="20" cy="20" r="20" class="cls-1" data-name="타원 993" transform="translate(67.19 5.93)"/>
            <circle id="타원_994" cx="16" cy="16" r="16" class="cls-2" data-name="타원 994" transform="translate(71.19 9.93)"/>
            <g id="그룹_3299" data-name="그룹 3299" transform="translate(3.958 -1.115)">
                <path id="패스_3790" d="M83.572 38.167a.507.507 0 0 1-.659-.146 6.183 6.183 0 0 1-.962-2.437 3.078 3.078 0 0 1 .711-2.447.521.521 0 0 1 .722-.021.508.508 0 0 1 .021.711 2.047 2.047 0 0 0-.45 1.6 5.143 5.143 0 0 0 .795 2 .517.517 0 0 1-.126.711c-.024.008-.031.018-.052.029z" class="cls-3" data-name="패스 3790" transform="translate(-5 1)"/>
            </g>
            <path id="패스_3786" d="M91.384 33.863l-.159-3.788 2.3-2.5a1.726 1.726 0 0 0-2.539-2.34l-2.479 2.7-3.391.139a1.737 1.737 0 0 0 .139 3.471l2.578-.1.1 2.578a1.745 1.745 0 0 0 1.8 1.666 1.772 1.772 0 0 0 1.651-1.826z" class="cls-4" data-name="패스 3786" transform="translate(1.153 -10.749)"/>
            <path id="패스_3833" d="M91.384 33.863l-.159-3.788 2.3-2.5a1.726 1.726 0 0 0-2.539-2.34l-2.479 2.7-3.391.139a1.737 1.737 0 0 0 .139 3.471l2.578-.1.1 2.578a1.745 1.745 0 0 0 1.8 1.666 1.772 1.772 0 0 0 1.651-1.826z" class="cls-4" data-name="패스 3833" transform="rotate(-74.99 81.208 33.563)"/>
            <path id="패스_3834" d="M91.384 33.863l-.159-3.788 2.3-2.5a1.726 1.726 0 0 0-2.539-2.34l-2.479 2.7-3.391.139a1.737 1.737 0 0 0 .139 3.471l2.578-.1.1 2.578a1.745 1.745 0 0 0 1.8 1.666 1.772 1.772 0 0 0 1.651-1.826z" class="cls-4" data-name="패스 3834" transform="rotate(-14.98 98.785 19.285)"/>
            <g id="그룹_3338" data-name="그룹 3338" transform="rotate(5.13 310.456 71.416)">
                <path id="패스_3790-2" d="M83.548 38.089a.5.5 0 0 1-.649-.144 6.09 6.09 0 0 1-.948-2.4 3.032 3.032 0 0 1 .7-2.41.513.513 0 0 1 .711-.021.5.5 0 0 1 .021.7 2.017 2.017 0 0 0-.443 1.576 5.066 5.066 0 0 0 .783 1.967.509.509 0 0 1-.124.7c-.021.012-.031.022-.051.032z" class="cls-3" data-name="패스 3790" transform="translate(-5 1)"/>
            </g>
            <g id="그룹_3339" data-name="그룹 3339" transform="rotate(120 91.331 35.548)">
                <path id="패스_3790-3" d="M83.6 38.253a.516.516 0 0 1-.67-.149 6.285 6.285 0 0 1-.978-2.477 3.129 3.129 0 0 1 .723-2.488.53.53 0 0 1 .734-.021.517.517 0 0 1 .021.723 2.081 2.081 0 0 0-.457 1.626 5.228 5.228 0 0 0 .808 2.03.525.525 0 0 1-.128.723c-.021.011-.032.022-.053.033z" class="cls-3" data-name="패스 3790" transform="translate(-5 1)"/>
            </g>
        </g>
        <path id="사각형_3006" d="M0 0h50v50H0z" class="cls-5" data-name="사각형 3006" transform="translate(62.19 .93)"/>
    </g>
</svg>
