<svg xmlns="http://www.w3.org/2000/svg" width="50" height="50" viewBox="0 0 50 50">
    <defs>
        <style>
            .prefix__cls-5{fill:#acacac}.prefix__cls-6{fill:#d9d9d8}.prefix__cls-9{fill:#f5f5f5}.prefix__cls-13{fill:#bf5726}.prefix__cls-14{fill:#a23b1a}.prefix__cls-17{fill:none;stroke:#dd8554;stroke-linecap:round;stroke-linejoin:round}
        </style>
    </defs>
    <g id="prefix__그룹_3598" data-name="그룹 3598" transform="translate(-744.616 53.572)">
        <g id="prefix__그룹_3597" data-name="그룹 3597">
            <g id="prefix__그룹_3595" data-name="그룹 3595">
                <g id="prefix__그룹_3594" data-name="그룹 3594">
                    <path id="prefix__패스_4285" d="M759.782-8.47a1.43 1.43 0 0 1-1.164-1.4v-1.23a2.667 2.667 0 0 0-1.6-2.424c-3.444-1.608-5.688-4.224-5.688-7.188v-16.75a2.74 2.74 0 0 1 1.728-2.544 2.78 2.78 0 0 0-.8 1.944v16.752c0 2.964 2.244 5.58 5.688 7.188a2.667 2.667 0 0 1 1.6 2.424v2.424a1.411 1.411 0 0 0 .236.804z" data-name="패스 4285" style="fill:#c1c1c0"/>
                    <path id="prefix__패스_4286" d="M778.694-21.634v.924a7.464 7.464 0 0 1-3.468 5.892c-.18.132-.372.264-.564.384a.037.037 0 0 0-.024.012c0 .012 0 .012-.012.012a10.871 10.871 0 0 1-1.476.816l-.144.072a2.533 2.533 0 0 0-.96.732 2.6 2.6 0 0 0-.624 1.692v1.224a1.424 1.424 0 0 1-1.428 1.428h-9.948a1.8 1.8 0 0 1-.264-.024 1.411 1.411 0 0 1-.24-.8v-2.43a2.667 2.667 0 0 0-1.6-2.424c-3.444-1.608-5.688-4.224-5.688-7.188v-16.75a2.78 2.78 0 0 1 .8-1.944l.012-.012a2.79 2.79 0 0 1 1.008-.192h5.328a2.755 2.755 0 0 1 2.748 2.748v12.972a1.424 1.424 0 0 0 1.428 1.428h13.68a1.424 1.424 0 0 1 1.436 1.428z" data-name="패스 4286" style="fill:#cfcfcf"/>
                    <path id="prefix__패스_4288" d="M777.182-8.446a1.219 1.219 0 0 1-1.212 1.224h-21.9a1.229 1.229 0 0 1-1.224-1.224 1.115 1.115 0 0 1 .06-.348 1.213 1.213 0 0 0 1.164.864h21.9a1.2 1.2 0 0 0 1.152-.864.852.852 0 0 1 .06.348z" data-name="패스 4288" style="fill:#9b9b99"/>
                    <path id="prefix__패스_4289" d="M777.122-8.794a1.2 1.2 0 0 1-1.152.864h-21.9a1.213 1.213 0 0 1-1.164-.864 1.213 1.213 0 0 1 1.164-.876h21.9a1.2 1.2 0 0 1 1.152.876z" class="prefix__cls-5" data-name="패스 4289"/>
                    <rect id="prefix__사각형_3183" width="11.626" height="2.407" class="prefix__cls-6" data-name="사각형 3183" rx=".377" transform="translate(750.909 -40.21)"/>
                    <path id="prefix__패스_4291" d="M751.334-37.8h10.824v.647s-7.321-.204-10.824-.647z" class="prefix__cls-5" data-name="패스 4291"/>
                    <path id="prefix__패스_4292" d="M774.638-14.422c0 .012 0 .012-.012.012a13.055 13.055 0 0 1-1.62.888 2.533 2.533 0 0 0-.96.732 62.033 62.033 0 0 1-6.721.084 33.943 33.943 0 0 0 6.3-.56 13.194 13.194 0 0 0 3.013-1.156z" class="prefix__cls-5" data-name="패스 4292"/>
                    <g id="prefix__그룹_3593" data-name="그룹 3593">
                        <path id="prefix__패스_4293" d="M756.746-46.326c-1.342 0-2.429.262-2.429.586v4.707a.183.183 0 0 0 .046.11.331.331 0 0 0 .038.035.576.576 0 0 0 .089.069.648.648 0 0 0 .07.037c.039.02.082.039.13.058.031.012.063.023.1.034.053.018.11.034.17.05.039.01.076.021.118.03.069.016.143.03.219.044l.121.022c.119.019.244.036.375.049.023 0 .048 0 .071.006.1.01.211.019.322.025l1.408.929v-.951c.923-.083 1.584-.3 1.584-.547v-4.707c-.003-.324-1.091-.586-2.432-.586z" data-name="패스 4293" style="fill:#030504;opacity:.06"/>
                        <g id="prefix__그룹_3592" data-name="그룹 3592">
                            <path id="prefix__패스_4294" d="M752.548-48.021v8.134c0 .559 1.88 1.012 4.2 1.012s4.2-.453 4.2-1.012v-8.134z" data-name="패스 4294" style="fill:#dfdfde"/>
                            <path id="prefix__패스_4295" d="M755.773-47.9l-3.225-.122v8.134c0 .478 1.376.879 3.225.985z" class="prefix__cls-9" data-name="패스 4295"/>
                            <path id="prefix__패스_4296" d="M756.746-49.033c-2.318 0-4.2.453-4.2 1.012s1.88 1.012 4.2 1.012 4.2-.453 4.2-1.012-1.882-1.012-4.2-1.012z" data-name="패스 4296" style="fill:#e8e9e9"/>
                            <path id="prefix__패스_4297" d="M756.746-48.273c-.578 0-1.046.113-1.046.252s.468.252 1.046.252 1.045-.113 1.045-.252-.468-.252-1.045-.252z" data-name="패스 4297" style="fill:#263d4a"/>
                            <path id="prefix__패스_4298" d="M755.773-47.037v8.137l2.434 1.6v-8.614z" class="prefix__cls-9" data-name="패스 4298"/>
                        </g>
                    </g>
                </g>
            </g>
            <path id="prefix__패스_4299" d="M766.125-28.058a8.345 8.345 0 0 1-.97 3.11 9.329 9.329 0 0 0 2.837-1.418 9.71 9.71 0 0 0 5.5 1.692 9.76 9.76 0 0 0 9.754-9.779 9.755 9.755 0 0 0-9.754-9.755 9.77 9.77 0 0 0-9.754 9.755 9.7 9.7 0 0 0 2.388 6.37z" data-name="패스 4299" style="fill:#ffe052"/>
            <g id="prefix__그룹_3596" data-name="그룹 3596">
                <path id="prefix__패스_4300" d="M777.407-33.265h-7.84a2.33 2.33 0 0 0-2.327 2.326 2.33 2.33 0 0 0 2.327 2.327h7.84a2.33 2.33 0 0 0 2.327-2.327 2.33 2.33 0 0 0-2.327-2.326z" class="prefix__cls-13" data-name="패스 4300"/>
                <path id="prefix__패스_4301" d="M777.407-33.265h-3.92v4.653h3.92a2.33 2.33 0 0 0 2.327-2.327 2.33 2.33 0 0 0-2.327-2.326z" class="prefix__cls-14" data-name="패스 4301"/>
                <path id="prefix__패스_4302" d="M776.623-36.4h-6.272a1.936 1.936 0 0 0-1.935 1.934 1.937 1.937 0 0 0 1.935 1.934h6.272a1.937 1.937 0 0 0 1.935-1.934 1.936 1.936 0 0 0-1.935-1.934z" data-name="패스 4302" style="fill:#f77b0c"/>
                <path id="prefix__패스_4303" d="M776.623-36.4h-3.136v3.868h3.136a1.937 1.937 0 0 0 1.935-1.934 1.936 1.936 0 0 0-1.935-1.934z" data-name="패스 4303" style="fill:#c8551a"/>
                <path id="prefix__패스_4304" d="M774.761-41.106a.366.366 0 0 0-.366.366.366.366 0 0 0 .366.366.615.615 0 0 1 .614.614.614.614 0 0 1-.614.614h-2.548a1.741 1.741 0 0 0-1.738 1.739 1.74 1.74 0 0 0 1.738 1.738H774.843a2.7 2.7 0 0 0 1.867-.822 2.7 2.7 0 0 0 .769-1.9 2.721 2.721 0 0 0-2.718-2.715z" class="prefix__cls-13" data-name="패스 4304"/>
                <path id="prefix__패스_4305" d="M774.824-35.671h.019a2.7 2.7 0 0 0 1.867-.822 2.7 2.7 0 0 0 .769-1.894 2.722 2.722 0 0 0-2.718-2.719.366.366 0 0 0-.366.366.366.366 0 0 0 .366.366.615.615 0 0 1 .614.614.614.614 0 0 1-.614.614h-1.274v3.477h1.274z" class="prefix__cls-14" data-name="패스 4305"/>
            </g>
            <path id="prefix__패스_4306" d="M778.14-49.923l-.388 2.493 1.312-.267-.354 2.359" class="prefix__cls-17" data-name="패스 4306"/>
            <path id="prefix__패스_4307" d="M783.725-39.967l2.481.459-.229-1.319 2.348.42" class="prefix__cls-17" data-name="패스 4307"/>
            <path id="prefix__패스_4308" d="M785.034-47.124l-2.562 1.551 1.4.951-2.419 1.068" class="prefix__cls-17" data-name="패스 4308"/>
        </g>
        <path id="prefix__사각형_3184" d="M0 0H50V50H0z" data-name="사각형 3184" transform="translate(744.616 -53.572)" style="fill:none"/>
    </g>
</svg>
