<svg xmlns="http://www.w3.org/2000/svg" id="그룹_3259" width="50" height="50" data-name="그룹 3259" viewBox="0 0 50 50">
    <defs>
        <style>
            .cls-1{fill:none}.cls-2{fill:#d64949}.cls-3{fill:#c74444}.cls-4{fill:#fff;opacity:.8}.cls-5{fill:#fed19f}.cls-6{fill:#e0f2f5}.cls-7{fill:#b4e2eb}
        </style>
    </defs>
    <path id="사각형_3004" d="M0 0h50v50H0z" class="cls-1" data-name="사각형 3004"/>
    <g id="그룹_3258" data-name="그룹 3258">
        <g id="그룹_3254" data-name="그룹 3254">
            <path id="패스_3709" d="M25.49 29.09v3.16a9.871 9.871 0 0 1-1.54.06l-.72-.01-2.05-.03-7.4-.1a9.348 9.348 0 0 0-2.63.33c-1.82.5-3.85 1.32-3.85 1.32a1.6 1.6 0 0 1-2.05-1.53V25.9a14.922 14.922 0 0 1 12.42-14.71c.12.35.24.68.36.95.23.56 1.34 1.11 2.65 1.95a9.894 9.894 0 0 1 4.51 7.75c.16 2.55.34 5.98.3 7.25z" class="cls-2" data-name="패스 3709"/>
            <path id="패스_3710" d="M44.74 13.77c0 2.81-4.77 3.66-7.31 6.18-2.52 2.54-2.81 6.18-4.49 7.87-.47.47-.95 1.03-1.51 1.59a3.726 3.726 0 0 1-.43.36l-1.61 1.17a4.678 4.678 0 0 1-1.05.58c-.2.08-.41.16-.61.22l-1.53.39a.355.355 0 0 1-.1.02c-.2.04-.41.07-.61.09h-.01l-.36-9.95a10.5 10.5 0 0 0-5.01-8.57c-1.05-.64-1.89-1.12-2.08-1.59-.11-.26-.23-.6-.36-.95a14.83 14.83 0 0 1 2.51-.21h17.8c5.07 0 6.76.56 6.76 2.8z" class="cls-3" data-name="패스 3710"/>
            <path id="패스_3711" d="M27.74 31.75a10.093 10.093 0 0 1-1.53.39z" class="cls-3" data-name="패스 3711"/>
            <ellipse id="타원_941" cx="1.39" cy=".94" class="cls-4" data-name="타원 941" rx="1.39" ry=".94" transform="rotate(-73.345 18.312 5.85)"/>
            <ellipse id="타원_942" cx=".74" cy=".5" class="cls-4" data-name="타원 942" rx=".74" ry=".5" transform="rotate(-84.681 16.872 7.947)"/>
            <path id="패스_3713" d="M26.21 32.14l-.1.03v-.01a.355.355 0 0 0 .1-.02z" class="cls-3" data-name="패스 3713"/>
            <g id="그룹_3253" data-name="그룹 3253">
                <path id="패스_3714" d="M34.7 19.23a.54.54 0 0 1-.75.25 2.166 2.166 0 0 1-1.1-1.64.109.109 0 0 1-.05.01 3.94 3.94 0 0 0-2.2.78 2.47 2.47 0 0 0-.39.4 10 10 0 0 0-1.55 4.23 10.544 10.544 0 0 1-.57 1.7 2.712 2.712 0 0 0-.27.95c-.07 1.06-.1 2.13-.08 3.19v15.73a1.125 1.125 0 0 1-2.25 0V29.09a3.4 3.4 0 0 0-.7-2.25.833.833 0 0 1-.15-.04 3.868 3.868 0 0 1-.99-.34l-.19-.07a.2.2 0 0 1-.08-.04c-1.36-.8-3.61-1.19-6.86-1.19a.127.127 0 0 0-.06-.01 2.166 2.166 0 0 1-1.1 1.63.555.555 0 1 1-.5-.99 1.275 1.275 0 0 0 .53-1.18 1.282 1.282 0 0 0-.53-1.19.535.535 0 0 1-.31-.47.547.547 0 0 1 .8-.53 2.166 2.166 0 0 1 1.1 1.63.127.127 0 0 0 .06-.01c3.42 0 5.84.44 7.39 1.33l.15.06c.37.14.72.27 1.05.36a1.5 1.5 0 0 0 1.01-.07c.6-.31 1.09-1.21 1.47-2.69a10.2 10.2 0 0 1 2-4.98 4.961 4.961 0 0 1 3.23-1.31.433.433 0 0 0 .05.01 2.183 2.183 0 0 1 1.1-1.64.559.559 0 0 1 .5 1 1.319 1.319 0 0 0-.53 1.18 1.309 1.309 0 0 0 .53 1.18.592.592 0 0 1 .24.76z" class="cls-5" data-name="패스 3714"/>
            </g>
        </g>
        <g id="그룹_3255" data-name="그룹 3255">
            <path id="패스_3715" d="M17.67 34.59c-5 .35-9.9-3.69-11.35-9.66-1.58-6.53 1.57-12.9 7.03-14.23a8.21 8.21 0 0 1 2.6-.22 7.521 7.521 0 0 0-1.41.22c-5.46 1.33-8.61 7.7-7.02 14.24 1.33 5.49 5.58 9.34 10.15 9.65z" class="cls-6" data-name="패스 3715"/>
            <path id="패스_3716" d="M21.24 33.51a8.532 8.532 0 0 1-2.15.85 9.995 9.995 0 0 1-1.42.23c-4.57-.31-8.82-4.16-10.15-9.66-1.59-6.53 1.56-12.9 7.02-14.23a9.614 9.614 0 0 1 1.41-.22h.06a11.519 11.519 0 0 0-7.68 13.96 11.583 11.583 0 0 0 11.78 9.07 5.335 5.335 0 0 0 1.13 0z" class="cls-7" data-name="패스 3716"/>
        </g>
        <g id="그룹_3256" data-name="그룹 3256">
            <path id="패스_3717" d="M26.03 32.51A12.809 12.809 0 0 1 14 22.32c-1.29-6.37 2.71-12.17 8.94-12.97a10.711 10.711 0 0 1 2.94.02 12.163 12.163 0 0 0-1.6.08c-6.23.79-10.24 6.6-8.93 12.97a12.855 12.855 0 0 0 10.68 10.09z" class="cls-6" data-name="패스 3717"/>
            <path id="패스_3718" d="M30.11 31.78a10.661 10.661 0 0 1-2.47.63 10.866 10.866 0 0 1-1.61.09 12.854 12.854 0 0 1-10.68-10.09c-1.3-6.37 2.7-12.18 8.93-12.97a10.655 10.655 0 0 1 1.6-.08h.06c-6.57 1.06-10.87 6.64-9.65 12.65 1.13 5.52 6.51 9.54 12.56 9.67a7.644 7.644 0 0 0 1.26.1z" class="cls-7" data-name="패스 3718"/>
        </g>
        <g id="그룹_3257" data-name="그룹 3257">
            <path id="패스_3719" d="M34.92 25.92c-3.82.61-7.84-1.88-9.35-5.97-1.64-4.47.36-9.17 4.47-10.5a7.218 7.218 0 0 1 1.98-.34 7.907 7.907 0 0 0-1.07.25c-4.11 1.32-6.11 6.02-4.46 10.5a8.982 8.982 0 0 0 8.43 6.06z" class="cls-6" data-name="패스 3719"/>
            <path id="패스_3720" d="M37.59 24.91a6.819 6.819 0 0 1-1.59.75 8.082 8.082 0 0 1-1.08.26 8.986 8.986 0 0 1-8.43-6.05c-1.65-4.47.35-9.17 4.46-10.5a7.57 7.57 0 0 1 1.07-.25h.04a8.054 8.054 0 0 0-4.99 10.35 8.849 8.849 0 0 0 9.64 5.52 6.122 6.122 0 0 0 .88-.08z" class="cls-7" data-name="패스 3720"/>
        </g>
        <circle id="타원_943" cx=".5" cy=".5" r=".5" class="cls-7" data-name="타원 943" transform="translate(36.59 7.78)"/>
        <circle id="타원_944" cx=".81" cy=".81" r=".81" class="cls-7" data-name="타원 944" transform="translate(10.53 36.05)"/>
        <circle id="타원_945" cx=".35" cy=".35" r=".35" class="cls-7" data-name="타원 945" transform="translate(24.98 4.06)"/>
        <circle id="타원_946" cx=".35" cy=".35" r=".35" class="cls-7" data-name="타원 946" transform="translate(30.86 5.3)"/>
        <circle id="타원_947" cx=".35" cy=".35" r=".35" class="cls-7" data-name="타원 947" transform="translate(17.68 4.06)"/>
        <circle id="타원_948" cx=".51" cy=".51" r=".51" class="cls-7" data-name="타원 948" transform="translate(26.47 6.72)"/>
        <circle id="타원_949" cx=".35" cy=".35" r=".35" class="cls-7" data-name="타원 949" transform="translate(11.44 7.58)"/>
        <circle id="타원_950" cx=".35" cy=".35" r=".35" class="cls-7" data-name="타원 950" transform="translate(15.38 8.28)"/>
        <circle id="타원_951" cx=".35" cy=".35" r=".35" class="cls-7" data-name="타원 951" transform="translate(13.82 39.07)"/>
        <circle id="타원_952" cx=".35" cy=".35" r=".35" class="cls-7" data-name="타원 952" transform="translate(33.58 9.13)"/>
        <circle id="타원_953" cx=".35" cy=".35" r=".35" class="cls-7" data-name="타원 953" transform="translate(21.56 34.26)"/>
        <circle id="타원_954" cx=".81" cy=".81" r=".81" class="cls-7" data-name="타원 954" transform="translate(16.87 36.05)"/>
        <circle id="타원_955" cx=".35" cy=".35" r=".35" class="cls-7" data-name="타원 955" transform="translate(20.53 38.72)"/>
        <circle id="타원_956" cx=".81" cy=".81" r=".81" class="cls-7" data-name="타원 956" transform="translate(20.43 5.61)"/>
        <circle id="타원_957" cx=".35" cy=".35" r=".35" class="cls-7" data-name="타원 957" transform="translate(32.36 31.05)"/>
        <circle id="타원_958" cx=".81" cy=".81" r=".81" class="cls-7" data-name="타원 958" transform="translate(30.4 34.61)"/>
        <circle id="타원_959" cx=".35" cy=".35" r=".35" class="cls-7" data-name="타원 959" transform="translate(36.24 35.07)"/>
        <circle id="타원_960" cx=".81" cy=".81" r=".81" class="cls-7" data-name="타원 960" transform="translate(36.28 30.24)"/>
        <circle id="타원_961" cx=".35" cy=".35" r=".35" class="cls-7" data-name="타원 961" transform="translate(37.24 26.91)"/>
    </g>
    <circle id="타원_962" cx=".32" cy=".32" r=".32" class="cls-7" data-name="타원 962" transform="translate(24.68 24.68)"/>
</svg>
