<svg xmlns="http://www.w3.org/2000/svg" width="50" height="50" viewBox="0 0 50 50">
    <defs>
        <style>
            .cls-1{fill:#ca3238}.cls-2{fill:#b82e33}.cls-3{fill:#fff;opacity:.8}.cls-4{fill:#ffc58c}.cls-5{fill:none}
        </style>
    </defs>
    <g id="그룹_2466" data-name="그룹 2466" transform="translate(-735.396 -198.16)">
        <g id="그룹_2465" data-name="그룹 2465">
            <path id="패스_2262" d="M760.837 223.734v2.847a8.652 8.652 0 0 1-1.387.055l-.652-.009-1.846-.027-6.677-.092a8.58 8.58 0 0 0-2.37.294 36.167 36.167 0 0 0-3.471 1.198 1.441 1.441 0 0 1-1.847-1.378v-5.772a13.46 13.46 0 0 1 11.206-13.272c.11.312.22.616.321.854.2.5 1.213 1 2.392 1.757a8.915 8.915 0 0 1 4.069 6.99c.139 2.312.304 5.403.262 6.555z" class="cls-1" data-name="패스 2262"/>
            <path id="패스_2263" d="M778.206 209.911c0 2.535-4.308 3.3-6.595 5.575s-2.535 5.575-4.05 7.1c-.425.424-.859.926-1.362 1.436a3.069 3.069 0 0 1-.384.327l-1.452 1.059a4.354 4.354 0 0 1-.946.525c-.181.072-.37.144-.55.2l-1.378.349a.329.329 0 0 1-.091.019 5.862 5.862 0 0 1-.551.082h-.01l-.325-8.979a9.481 9.481 0 0 0-4.522-7.736c-.947-.581-1.7-1.007-1.876-1.434-.1-.238-.211-.542-.321-.854a13.238 13.238 0 0 1 2.268-.193h16.055c4.565-.002 6.09.503 6.09 2.524z" class="cls-2" data-name="패스 2263"/>
            <path id="패스_2264" d="M762.867 226.131a8.83 8.83 0 0 1-1.378.349z" class="cls-2" data-name="패스 2264"/>
            <ellipse id="타원_609" cx="1.256" cy=".848" class="cls-3" data-name="타원 609" rx="1.256" ry=".848" transform="rotate(-73.32 518.076 -391.63)"/>
            <ellipse id="타원_610" cx=".663" cy=".448" class="cls-3" data-name="타원 610" rx=".663" ry=".448" transform="rotate(-84.67 492.375 -298.965)"/>
            <path id="패스_2266" d="M761.489 226.48l-.091.028v-.008a.329.329 0 0 0 .091-.02z" class="cls-2" data-name="패스 2266"/>
            <g id="그룹_2464" data-name="그룹 2464">
                <path id="패스_2267" d="M769.149 214.834a.5.5 0 0 1-.679.23 1.944 1.944 0 0 1-.992-1.479.1.1 0 0 1-.046.009 3.5 3.5 0 0 0-1.984.707 2.155 2.155 0 0 0-.349.359 8.94 8.94 0 0 0-1.4 3.811 9.442 9.442 0 0 1-.514 1.534 2.382 2.382 0 0 0-.248.854c-.065.955-.092 1.92-.074 2.875v14.19a1.015 1.015 0 0 1-2.03 0v-14.19a3.066 3.066 0 0 0-.633-2.03.707.707 0 0 1-.138-.037 3.765 3.765 0 0 1-.891-.3L759 221.3a.174.174 0 0 1-.073-.037c-1.231-.725-3.261-1.074-6.191-1.074a.116.116 0 0 0-.055-.009 1.942 1.942 0 0 1-.992 1.469.5.5 0 0 1-.679-.22.51.51 0 0 1 .229-.68 1.437 1.437 0 0 0 0-2.14.481.481 0 0 1-.275-.423.5.5 0 0 1 .725-.477 1.942 1.942 0 0 1 .992 1.469.116.116 0 0 0 .055-.009c3.086 0 5.272.395 6.669 1.2l.137.056a8.268 8.268 0 0 0 .946.321 1.339 1.339 0 0 0 .91-.064c.541-.276.982-1.093 1.322-2.425a9.331 9.331 0 0 1 1.8-4.491 4.441 4.441 0 0 1 2.912-1.185.37.37 0 0 0 .046.009 1.959 1.959 0 0 1 .992-1.479.508.508 0 0 1 .45.91 1.426 1.426 0 0 0 0 2.13.516.516 0 0 1 .229.683z" class="cls-4" data-name="패스 2267"/>
            </g>
        </g>
        <path id="사각형_2710" d="M0 0h50v50H0z" class="cls-5" data-name="사각형 2710" transform="translate(735.396 198.16)"/>
    </g>
</svg>
