<svg xmlns="http://www.w3.org/2000/svg" width="50" height="50" viewBox="0 0 50 50">
    <defs>
        <style>
            .cls-1,.cls-10{fill:none}.cls-2{fill:#c1c1c0}.cls-3{fill:#cfcfcf}.cls-4{fill:#1a1818}.cls-5{fill:#9b9b99}.cls-6{fill:#acacac}.cls-7{fill:#d9d9d8}.cls-8{fill:#faddc7}.cls-9{fill:#f4cb99}.cls-10{stroke:#4f1b11;stroke-linecap:round;stroke-linejoin:round;stroke-width:.75px}.cls-11{fill:#030504;opacity:.06}.cls-12{fill:#dfdfde}.cls-13{fill:#f5f5f5}.cls-14{fill:#e8e9e9}.cls-15{fill:#263d4a}.cls-16{fill:#ffe052}.cls-17{fill:#bf5726}.cls-18{fill:#a23b1a}.cls-19{fill:#f77b0c}.cls-20{fill:#c8551a}
        </style>
    </defs>
    <g id="그룹_2488" data-name="그룹 2488" transform="translate(-505.504 -198.16)">
        <path id="사각형_2723" d="M0 0h50v50H0z" class="cls-1" data-name="사각형 2723" transform="translate(505.503 198.16)"/>
        <g id="그룹_2487" data-name="그룹 2487">
            <g id="그룹_2485" data-name="그룹 2485">
                <g id="그룹_2484" data-name="그룹 2484">
                    <path id="패스_2324" d="M519.9 240.374a1.192 1.192 0 0 1-.97-1.17v-1.02a2.222 2.222 0 0 0-1.33-2.02c-2.87-1.34-4.74-3.52-4.74-5.99v-13.96a2.284 2.284 0 0 1 1.44-2.12 2.317 2.317 0 0 0-.67 1.62v13.96c0 2.47 1.87 4.65 4.74 5.99a2.222 2.222 0 0 1 1.33 2.02v2.02a1.176 1.176 0 0 0 .2.67z" class="cls-2" data-name="패스 2324"/>
                    <path id="패스_2325" d="M535.655 229.4v.77a6.22 6.22 0 0 1-2.89 4.91c-.15.11-.31.22-.47.32a.031.031 0 0 0-.02.01c0 .01 0 .01-.01.01a9.058 9.058 0 0 1-1.23.68l-.12.06a2.111 2.111 0 0 0-.8.61 2.169 2.169 0 0 0-.52 1.41v1.02a1.186 1.186 0 0 1-1.19 1.19h-8.29a1.5 1.5 0 0 1-.22-.02 1.176 1.176 0 0 1-.2-.67v-2.02a2.222 2.222 0 0 0-1.33-2.02c-2.87-1.34-4.74-3.52-4.74-5.99v-13.96a2.317 2.317 0 0 1 .67-1.62l.01-.01a2.324 2.324 0 0 1 .84-.16h4.44a2.3 2.3 0 0 1 2.29 2.29v10.81a1.186 1.186 0 0 0 1.19 1.19h11.4a1.186 1.186 0 0 1 1.19 1.19z" class="cls-3" data-name="패스 2325"/>
                    <path id="패스_2327" d="M534.4 240.394a1.016 1.016 0 0 1-1.01 1.02h-18.25a1.024 1.024 0 0 1-1.02-1.02.93.93 0 0 1 .05-.29 1.011 1.011 0 0 0 .97.72h18.25a1 1 0 0 0 .96-.72.709.709 0 0 1 .05.29z" class="cls-5" data-name="패스 2327"/>
                    <path id="패스_2328" d="M534.345 240.1a1 1 0 0 1-.96.72h-18.25a.756.756 0 1 1 0-1.45h18.25a1 1 0 0 1 .96.73z" class="cls-6" data-name="패스 2328"/>
                    <rect id="사각형_2724" width="9.688" height="2.006" class="cls-7" data-name="사각형 2724" rx=".377" transform="translate(512.501 213.924)"/>
                    <path id="패스_2330" d="M512.855 215.93h9.02v.539s-6.1-.169-9.02-.539z" class="cls-6" data-name="패스 2330"/>
                    <path id="패스_2331" d="M532.275 235.414c0 .01 0 .01-.01.01a10.881 10.881 0 0 1-1.35.74 2.111 2.111 0 0 0-.8.61 51.7 51.7 0 0 1-5.6.07 28.308 28.308 0 0 0 5.249-.467 10.92 10.92 0 0 0 2.511-.963z" class="cls-6" data-name="패스 2331"/>
                    <path id="패스_2332" d="M548.014 234.683a4.048 4.048 0 0 1-1.55 1.35l-.71.37a3.144 3.144 0 0 1-.64.25 4.949 4.949 0 0 1-5.98-2.17l-3.03-4.54a2.194 2.194 0 0 0-1.07-1.1 2.75 2.75 0 0 0-1.12-.17H528.9a4.982 4.982 0 0 1-2.36-.6.035.035 0 0 0-.02-.01 5.7 5.7 0 0 1-3.72-5.2 1.507 1.507 0 0 1 .03-.29l2.13-10.12c.01-.06.01-.12.02-.18a6.6 6.6 0 0 1 .2-1.48h8.91a14.632 14.632 0 0 1 .07 5.17c0 .03-.01.05-.01.08-.24 1.19-.58 2.58-.83 3.47a2.933 2.933 0 0 0-.1.5c-.08.49.07.67.43.73a2.809 2.809 0 0 0 .45.03h.61a5.227 5.227 0 0 1 4.46 2.47l4.6 7.66.14.24h.06a.3.3 0 0 1 .1-.04c1.41-.68 3.25-.82 4.11.82a2.6 2.6 0 0 1-.166 2.76z" class="cls-8" data-name="패스 2332"/>
                    <path id="패스_2333" d="M533.654 220.743a43.457 43.457 0 0 0-5.43 1.41.509.509 0 0 1-.11.04 41.687 41.687 0 0 1 5.11-2.18c-.08.487.07.67.43.73z" class="cls-9" data-name="패스 2333"/>
                    <path id="패스_2334" d="M545.648 231.044c-.54.43-1.16.93-1.6 1.25l1.3-1.45.14.24h.06a.3.3 0 0 1 .1-.04z" class="cls-9" data-name="패스 2334"/>
                    <path id="패스_2335" d="M536.936 209.785l-.578.491.179.623-.551.417.164.664-.536.374-.012.594" class="cls-10" data-name="패스 2335"/>
                    <path id="패스_2336" d="M534.465 215.063c-1.747 0-3.163.342-3.163.763v6.129a.236.236 0 0 0 .06.143.55.55 0 0 0 .049.045.764.764 0 0 0 .116.09c.027.016.06.032.091.048a1.83 1.83 0 0 0 .17.075 2.594 2.594 0 0 0 .348.11 5.98 5.98 0 0 0 .438.096c.054.01.1.02.159.029.154.025.316.046.488.064l.092.008c.136.013.274.025.419.033l1.834 1.209v-1.238c1.2-.109 2.062-.385 2.062-.713v-6.129c0-.425-1.416-.762-3.163-.762z" class="cls-11" data-name="패스 2336"/>
                    <path id="패스_2337" d="M539.268 211.618l-.753.094-.193.619-.69.046-.227.645-.653.019-.336.49" class="cls-10" data-name="패스 2337"/>
                    <g id="그룹_2483" data-name="그룹 2483">
                        <path id="패스_2338" d="M531.3 215.52v6.129c0 .421 1.416.763 3.163.763s3.163-.342 3.163-.763v-6.129z" class="cls-12" data-name="패스 2338"/>
                        <path id="패스_2339" d="M533.732 215.612l-2.43-.092v6.129c0 .36 1.037.662 2.43.742z" class="cls-13" data-name="패스 2339"/>
                        <path id="패스_2340" d="M534.465 214.757c-1.747 0-3.163.342-3.163.763s1.416.762 3.163.762 3.163-.341 3.163-.762-1.416-.763-3.163-.763z" class="cls-14" data-name="패스 2340"/>
                        <path id="패스_2341" d="M534.465 215.33c-.435 0-.788.085-.788.19s.353.19.788.19.788-.085.788-.19-.353-.19-.788-.19z" class="cls-15" data-name="패스 2341"/>
                        <path id="패스_2342" d="M533.732 216.262v6.129l1.834 1.208v-6.491z" class="cls-13" data-name="패스 2342"/>
                    </g>
                </g>
            </g>
            <path id="패스_2343" d="M522.855 211.4a3.351 3.351 0 0 0 .39 1.25 3.744 3.744 0 0 1-1.14-.57 4.068 4.068 0 1 1 .75-.69z" class="cls-16" data-name="패스 2343"/>
            <g id="그룹_2486" data-name="그룹 2486">
                <path id="패스_2344" d="M521.468 209.314h-3.151a.935.935 0 1 0 0 1.869h3.151a.935.935 0 1 0 0-1.869z" class="cls-17" data-name="패스 2344"/>
                <path id="패스_2345" d="M521.468 209.314h-1.576v1.869h1.576a.935.935 0 1 0 0-1.869z" class="cls-18" data-name="패스 2345"/>
                <path id="패스_2346" d="M521.153 208.053h-2.521a.778.778 0 0 0 0 1.555h2.521a.778.778 0 0 0 0-1.555z" class="cls-19" data-name="패스 2346"/>
                <path id="패스_2347" d="M521.153 208.053h-1.261v1.555h1.261a.778.778 0 0 0 0-1.555z" class="cls-20" data-name="패스 2347"/>
                <path id="패스_2348" d="M520.4 206.163a.147.147 0 0 0 0 .294.246.246 0 1 1 0 .493h-1.02a.7.7 0 0 0 0 1.4h1.057a1.092 1.092 0 0 0-.033-2.184z" class="cls-17" data-name="패스 2348"/>
                <path id="패스_2349" d="M520.43 208.347h.007a1.092 1.092 0 0 0-.033-2.184.147.147 0 0 0 0 .294.246.246 0 1 1 0 .493h-.512v1.4h.538z" class="cls-18" data-name="패스 2349"/>
            </g>
        </g>
    </g>
</svg>
