<svg xmlns="http://www.w3.org/2000/svg" width="50" height="50" viewBox="0 0 50 50">
    <defs>
        <style>
            .prefix__cls-1{fill:none;stroke:#dd8554;stroke-linecap:round;stroke-linejoin:round}.prefix__cls-3{fill:#f3cbc7}.prefix__cls-4{fill:#ed5752;opacity:.2}.prefix__cls-5{fill:#e74d4c;opacity:.4}.prefix__cls-6{fill:#de2a32;opacity:.6}
        </style>
    </defs>
    <g id="prefix__Layer_2" data-name="Layer 2" transform="translate(-616.827 53.572)">
        <g id="prefix__그룹_3607" data-name="그룹 3607">
            <g id="prefix__그룹_3606" data-name="그룹 3606">
                <path id="prefix__패스_4324" d="M621.376-40.155l2.775 2-1.508 1.011 2.613 1.907" class="prefix__cls-1" data-name="패스 4324"/>
                <path id="prefix__패스_4325" d="M621.376-32.14l2.061-.284-.337 1.124 1.772-.482" class="prefix__cls-1" data-name="패스 4325"/>
                <path id="prefix__패스_4326" d="M621.376-24.393l1.894-2.85 1.068 1.468 1.806-2.684" class="prefix__cls-1" data-name="패스 4326"/>
                <path id="prefix__패스_4327" d="M662.277-32.272l-2.775 2 1.508 1.011-2.61 1.909" class="prefix__cls-1" data-name="패스 4327"/>
                <path id="prefix__패스_4328" d="M662.277-24.258l-2.06-.284.341 1.127-1.772-.482" class="prefix__cls-1" data-name="패스 4328"/>
                <path id="prefix__패스_4329" d="M662.277-16.51l-1.894-2.85-1.068 1.468-1.806-2.684" class="prefix__cls-1" data-name="패스 4329"/>
                <path id="prefix__패스_4330" d="M655.794-23.562a8.315 8.315 0 0 1-1.65 5.01 7.261 7.261 0 0 1-5.68 2.98l-9.59.01h-.04a.947.947 0 0 0-.29.07.66.66 0 0 0-.24.17.655.655 0 0 0-.24.51v4.74h-7.25v-5.42c-.23-4.67 1.32-7.75 6.71-7.75h11a.277.277 0 0 0 .13-.03.35.35 0 0 0 .09-.06.284.284 0 0 0 .11-.23.284.284 0 0 0-.11-.23.287.287 0 0 0-.22-.1H635a7.315 7.315 0 0 1-6.2-3.79 9.94 9.94 0 0 1-1.01-4.68 8.26 8.26 0 0 1 .24-2.01 7.206 7.206 0 0 1 .54-1.56 6.624 6.624 0 0 1 .74-1.29c.06-.09.13-.17.2-.26a7 7 0 0 1 5.49-2.87h9.76a.806.806 0 0 0 .82-.75v-5.97h7.24v6.65c0 .49.03 1.17-.01 1.93-.01.17-.02.34-.04.51s-.05.36-.08.53a.506.506 0 0 1-.02.13 7.743 7.743 0 0 1-.3 1.12 1.783 1.783 0 0 1-.12.29c-.06.13-.12.27-.19.4a3.965 3.965 0 0 1-.23.39c-.09.13-.18.25-.27.37a3.735 3.735 0 0 1-.32.36 4.4 4.4 0 0 1-.39.35 4.943 4.943 0 0 1-.58.4 3.071 3.071 0 0 1-.31.17 5.4 5.4 0 0 1-.91.37c-.12.04-.25.08-.38.11a.309.309 0 0 1-.08.02c-.13.03-.26.06-.39.08a10.6 10.6 0 0 1-2.14.2h-11.13a.314.314 0 0 0-.29.2.585.585 0 0 0-.02.13.585.585 0 0 0 .02.13.32.32 0 0 0 .29.19h13.53a7.272 7.272 0 0 1 5.94 3.67 9.04 9.04 0 0 1 1.394 4.81z" data-name="패스 4330" style="fill:#f6dad5"/>
                <path id="prefix__패스_4331" d="M646.064-32.692h-1.29c7.16-.09 6.6-5.66 6.6-7.72v-6.66h1.46v6.66c0 2.08.56 7.72-6.77 7.72z" class="prefix__cls-3" data-name="패스 4331"/>
                <path id="prefix__패스_4332" d="M638.844-15.562a.81.81 0 0 0-.77.75v4.74h-1.46v-4.74a.81.81 0 0 1 .77-.75h1.46z" class="prefix__cls-3" data-name="패스 4332"/>
                <path id="prefix__패스_4333" d="M653.8-23.582a5 5 0 0 1-5.01 5 4.991 4.991 0 0 1-4.99-4.66h4.72a.277.277 0 0 0 .13-.03.35.35 0 0 0 .09-.06.326.326 0 0 0 .1-.23.326.326 0 0 0-.1-.23.287.287 0 0 0-.22-.1h-4.72a4.982 4.982 0 0 1 4.99-4.69 5 5 0 0 1 5.01 5z" class="prefix__cls-4" data-name="패스 4333"/>
                <path id="prefix__패스_4334" d="M639.684-32.042a5 5 0 0 1-4.99 4.77 5 5 0 0 1-5.01-5 5 5 0 0 1 5.01-5 5 5 0 0 1 4.98 4.58h-4.74a.314.314 0 0 0-.29.2.309.309 0 0 0-.03.13.309.309 0 0 0 .03.13.32.32 0 0 0 .29.19z" class="prefix__cls-4" data-name="패스 4334"/>
                <path id="prefix__패스_4335" d="M637.674-32.042a2.993 2.993 0 0 1-2.99 2.77 3 3 0 0 1-3-3 3 3 0 0 1 3-3 2.991 2.991 0 0 1 2.97 2.58h-2.72a.314.314 0 0 0-.29.2.585.585 0 0 0-.02.13.585.585 0 0 0 .02.13.32.32 0 0 0 .29.19z" class="prefix__cls-5" data-name="패스 4335"/>
                <path id="prefix__패스_4336" d="M636.454-32.042a1.784 1.784 0 0 1-1.77 1.57 1.805 1.805 0 0 1-1.8-1.8 1.805 1.805 0 0 1 1.8-1.8 1.79 1.79 0 0 1 1.74 1.38h-1.49a.314.314 0 0 0-.29.2.585.585 0 0 0-.02.13.585.585 0 0 0 .02.13.32.32 0 0 0 .29.19z" class="prefix__cls-6" data-name="패스 4336"/>
                <path id="prefix__패스_4337" d="M651.854-23.562a3 3 0 0 1-3 3 2.986 2.986 0 0 1-2.98-2.68h2.65a.277.277 0 0 0 .13-.03.35.35 0 0 0 .09-.06.326.326 0 0 0 .1-.23.326.326 0 0 0-.1-.23.287.287 0 0 0-.22-.1h-2.65a2.993 2.993 0 0 1 2.98-2.67 3 3 0 0 1 3 3z" class="prefix__cls-5" data-name="패스 4337"/>
                <path id="prefix__패스_4338" d="M650.654-23.562a1.805 1.805 0 0 1-1.8 1.8 1.785 1.785 0 0 1-1.76-1.48h1.43a.277.277 0 0 0 .13-.03.35.35 0 0 0 .09-.06.326.326 0 0 0 .1-.23.326.326 0 0 0-.1-.23.287.287 0 0 0-.22-.1h-1.43a1.793 1.793 0 0 1 1.76-1.47 1.805 1.805 0 0 1 1.8 1.8z" class="prefix__cls-6" data-name="패스 4338"/>
            </g>
            <path id="prefix__사각형_3189" d="M0 0H50V50H0z" data-name="사각형 3189" transform="translate(616.827 -53.572)" style="fill:none"/>
        </g>
    </g>
</svg>
