<svg xmlns="http://www.w3.org/2000/svg" width="50" height="50" viewBox="0 0 50 50">
    <defs>
        <style>
            .cls-1{fill:#f9c1ce}.cls-2{fill:#5eb2e2}.cls-10,.cls-11,.cls-3{fill:none}.cls-3{stroke:#cdecf6;stroke-miterlimit:10;opacity:.22}.cls-10,.cls-3{stroke-linecap:round;stroke-width:.25px}.cls-4{fill:#fff}.cls-5{fill:#65bae8}.cls-6{fill:#4db0db}.cls-7{fill:#78c7ea}.cls-8{fill:#57cbf5}.cls-9{fill:#64b2e2}.cls-10{stroke:rgba(255,255,255,.3)}
        </style>
    </defs>
    <g id="그룹_3346" data-name="그룹 3346" transform="translate(-712 -698)">
        <g id="그룹_3345" data-name="그룹 3345" transform="translate(-5.712 -.039)">
            <g id="그룹_3344" data-name="그룹 3344" transform="translate(728.711 702.039)">
                <path id="패스_3721" d="M144.988 41.034a30.573 30.573 0 0 0 3.58 0 19.306 19.306 0 0 0 3.8-.761c2.035 1.069 5.9-.314 8.035-2 3.122-2.677 4.32-5.257 5.654-9.152 3.162-9.036-1.325-17.475-7.915-19.2a11.576 11.576 0 0 0-9.338 1.593h-.987a2.461 2.461 0 0 1-2.468-2.45V6.7a1.734 1.734 0 0 0-1.749-1.731h-1.36a1.734 1.734 0 0 0-1.747 1.731v3.048c.013 3.065 3.16 5.754 6.134 6.423-1.587 6.439 3.124 7.688 4.257 10.962.427 1.243.393 2.239-1.688 4.006-1.094.924-2.108 2.614-1.522 4.184 0 0-2.621.018-4.825.275a5.322 5.322 0 0 0-4.758 4.935v5.72h5.56v-4.087c.027-.979.517-1.36 1.337-1.132z" class="cls-1" data-name="패스 3721" transform="translate(-138.092 -4.969)"/>
                <path id="합치기_25" d="M.049 16.182L0 11.35a4.755 4.755 0 0 1 5.017-4.714s1.383-.007 2.532-.128a12.617 12.617 0 0 0 2.183-.483A5.877 5.877 0 0 1 9.46 4.7a.243.243 0 0 1 .012-.1c.614.79 2.054.622 2.36.8 2.307 1.03 3.576 1.124 5.8 0A70.1 70.1 0 0 1 24.271.788c.187-.281.374-.536.534-.789a17.15 17.15 0 0 1-2.346 4.283 15.252 15.252 0 0 1-5.44 4.432 5.2 5.2 0 0 1-4.135.4 30.631 30.631 0 0 1-3.124.666 18.565 18.565 0 0 1-2.849.02 12.738 12.738 0 0 0-1.427-.029c-2.044.17-1.886 1.6-1.992 1.843v4.565z" class="cls-2" data-name="합치기 25" transform="translate(1.061 25.103)"/>
                <path id="패스_3724" d="M161.451 25.253c-.027.067-.04.134-.067.187-.161.254-.348.509-.535.79a18.847 18.847 0 0 1-6.747 5.462 6.762 6.762 0 0 1-6.412 0 7.884 7.884 0 0 1-1.7-1.646 3.394 3.394 0 0 1 1.392-2.5c1.673-1.379 2.557-2.088 2.8-4.645a3.43 3.43 0 0 0-.964-2.262c-.4-.522-.9-1.071-1.379-1.66a5.221 5.221 0 0 1 1.981-.335 4.539 4.539 0 0 1 .723.067c5.207.843 3.092 5.783 7.175 6.988a4.4 4.4 0 0 0 3.733-.446z" class="cls-2" data-name="패스 3724" transform="translate(-135.518 -.34)"/>
                <path id="패스_3725" d="M148.66 19.42c5.207.843 3.092 5.783 7.175 6.988" class="cls-3" data-name="패스 3725" transform="translate(-134.578 -.075)"/>
                <path id="패스_3726" d="M162.778 21.614a4.253 4.253 0 0 0-2.2.763c-1.459 1.058-2.075 2.5-4.458 2.262a6.964 6.964 0 0 1-1.874-.5h-.013a4.452 4.452 0 0 0-3.574-2.45 5.27 5.27 0 0 0-2.7.268c-1.352-1.673-2.7-3.695-2.236-6.452a9.23 9.23 0 0 1 .577-2.205 4.624 4.624 0 0 1 1.58-1.633 9.386 9.386 0 0 1 7.47-1.66h.013c4.015.925 7.375 5.811 7.415 11.607z" class="cls-4" data-name="패스 3726" transform="translate(-135.64 -3.327)"/>
                <path id="패스_3727" d="M159.686 23.364c-.12.428-.214.8-.335 1.165a4.4 4.4 0 0 1-3.735.442c-2.3-.669-2.624-2.543-3.427-4.19.87 1.472 1.633 2.985 3.855 3.333a4.8 4.8 0 0 0 3.642-.75z" class="cls-5" data-name="패스 3727" transform="translate(-133.419 .385)"/>
                <path id="패스_3728" d="M159.934 22.39c-.094.361-.161.683-.241.991a4.8 4.8 0 0 1-3.641.75c-2.222-.348-2.985-1.861-3.855-3.333-.013-.027-.013-.04-.027-.067a5.358 5.358 0 0 0 4.15 2.463 5.878 5.878 0 0 0 3.614-.804z" class="cls-6" data-name="패스 3728" transform="translate(-133.425 .368)"/>
                <path id="패스_3729" d="M160.6 18.63v.147q0 .522-.04 1.044c-.013.308-.054.616-.094.937a13.444 13.444 0 0 1-.375 1.887c-.04.161-.08.308-.12.455a5.878 5.878 0 0 1-3.614.8 5.358 5.358 0 0 1-4.15-2.463c-.04-.094-.094-.2-.134-.281a6.964 6.964 0 0 0 1.874.5c2.383.241 3-1.2 4.458-2.262a4.253 4.253 0 0 1 2.195-.764z" class="cls-7" data-name="패스 3729" transform="translate(-133.459 -.343)"/>
                <path id="패스_3730" d="M153.81 22.072c2.383.241 3-1.2 4.458-2.262" class="cls-3" data-name="패스 3730" transform="translate(-132.87 .057)"/>
                <path id="패스_3731" d="M152.33 19.763s.669-3.039 1.928-4.11c1.419-1.2 2.918-.094 2.53.843-.509 1.204-2.142 1.018-4.458 3.267z" class="cls-8" data-name="패스 3731" transform="translate(-133.348 -1.529)"/>
                <path id="패스_3732" d="M151.6 18.932s.8-2.972.187-4.484c-.7-1.7-2.517-1.406-2.6-.415-.103 1.298 1.423 1.874 2.413 4.899z" class="cls-9" data-name="패스 3732" transform="translate(-134.392 -2.171)"/>
                <circle id="타원_963" cx=".469" cy=".469" r=".469" class="cls-8" data-name="타원 963" transform="translate(14.283 15.744)"/>
                <circle id="타원_964" cx=".549" cy=".549" r=".549" class="cls-8" data-name="타원 964" transform="translate(20.698 18.287)"/>
            </g>
            <path id="패스_3841" d="M18140.143 3481.831v.848" class="cls-10" data-name="패스 3841" transform="translate(-17409.516 -2743.584)"/>
            <path id="패스_3842" d="M18140.143 3481.831v.947" class="cls-10" data-name="패스 3842" transform="translate(-17408.176 -2741.109)"/>
            <path id="패스_3843" d="M18144.539 3477.993a2.834 2.834 0 0 0 1.129-.092" class="cls-10" data-name="패스 3843" transform="translate(-17405.834 -2741.913)"/>
            <path id="패스_3844" d="M18141.578 3478.3a2.149 2.149 0 0 0-.432 1.563" class="cls-10" data-name="패스 3844" transform="translate(-17409.18 -2741.951)"/>
            <path id="패스_3847" d="M.578 0A4.565 4.565 0 0 1 0 1.577" class="cls-10" data-name="패스 3847" transform="rotate(34 -826.31 1579.612)"/>
            <path id="패스_3849" d="M0 0a4.465 4.465 0 0 1 .072 1.069" class="cls-10" data-name="패스 3849" transform="rotate(53.98 -347.915 1098.388)"/>
            <path id="패스_3850" d="M0 0a4.027 4.027 0 0 1 .064.964" class="cls-10" data-name="패스 3850" transform="rotate(25.97 -1201.864 1978.115)"/>
            <path id="패스_3851" d="M0 0a4.027 4.027 0 0 1 .064.964" class="cls-10" data-name="패스 3851" transform="rotate(25.97 -1212.179 1980.493)"/>
            <path id="패스_3852" d="M0 0a4.027 4.027 0 0 1 .064.964" class="cls-10" data-name="패스 3852" transform="rotate(25.97 -1211.495 1973.557)"/>
            <path id="패스_3853" d="M0 0a4.027 4.027 0 0 1 .064.964" class="cls-10" data-name="패스 3853" transform="rotate(53.98 -342.437 1099.673)"/>
            <path id="패스_3854" d="M18144.539 3477.993a2.834 2.834 0 0 0 1.129-.092" class="cls-10" data-name="패스 3854" transform="translate(-17408.504 -2743.251)"/>
            <path id="패스_3855" d="M0 .092A2.834 2.834 0 0 0 1.129 0" class="cls-10" data-name="패스 3855" transform="rotate(28 -1108.193 1841.466)"/>
        </g>
        <path id="사각형_3065" d="M0 0h50v50H0z" class="cls-11" data-name="사각형 3065" transform="translate(712 698)"/>
    </g>
</svg>
