<svg xmlns="http://www.w3.org/2000/svg" width="50" height="50" viewBox="0 0 50 50">
    <defs>
        <style>
            .cls-1,.cls-6{fill:none}.cls-2{fill:#f9c1ce}.cls-3{fill:#edaebf}.cls-4{fill:#4ba5d7}.cls-5{fill:#5eb2e2}.cls-6{stroke:#cdecf6;stroke-linecap:round;stroke-miterlimit:10;stroke-width:.25px;opacity:.22}.cls-7{fill:#fff}.cls-8{fill:#65bae8}.cls-9{fill:#4db0db}.cls-10{fill:#78c7ea}.cls-11{fill:#57cbf5}.cls-12{fill:#64b2e2}
        </style>
    </defs>
    <g id="그룹_3260" data-name="그룹 3260" transform="translate(-124.38 -.93)">
        <path id="사각형_1945_1_" d="M0 0h50v50H0z" class="cls-1" transform="translate(124.38 .93)"/>
        <path id="패스_3721" d="M142.44 32.09h2.88a6.687 6.687 0 0 0 3.42 1.01 9.138 9.138 0 0 0 5.67-2.38 17.263 17.263 0 0 0 5.1-7.51c2.37-6.75-1.71-13.79-6.65-15.08a8.7 8.7 0 0 0-7 1.19h-.74a1.842 1.842 0 0 1-1.85-1.83V5.72a1.3 1.3 0 0 0-1.31-1.29h-1.02a1.3 1.3 0 0 0-1.31 1.29V8a4.909 4.909 0 0 0 3.83 4.77c-1.19 4.81 3.53 6.89 3.71 9.24.08.98-.61 2.05-2.17 3.37a4.229 4.229 0 0 0-1.48 2.72h-1.26a3.773 3.773 0 0 0-3.79 3.75v3.79a.847.847 0 0 0 .04.17v.18c.02 2.09 1.72 2.76 3.79 2.75h11.28a.488.488 0 0 1 .19.38v1.36h-12.1a2.551 2.551 0 0 0-2.8 2.75v3.79a1.3 1.3 0 0 0 1.31 1.29h.85a1.3 1.3 0 0 0 1.31-1.29v-3.06a.493.493 0 0 1 .5-.49h13.09a1.3 1.3 0 0 0 1.31-1.29v-3.79c0-2.29-.48-2.75-2.41-2.75h-12.67a.488.488 0 0 1-.19-.38V32.4a.518.518 0 0 1 .47-.31z" class="cls-2" data-name="패스 3721"/>
        <path id="패스_3722" d="M159.52 23.27a17.136 17.136 0 0 1-5.12 7.51 9.159 9.159 0 0 1-5.69 2.38 6.781 6.781 0 0 1-3.43-1h-2.89a.546.546 0 0 0-.4.19l-.03-.08a.5.5 0 0 1 .46-.53l2.88-.21a8.108 8.108 0 0 0 3.82 1.04 9.954 9.954 0 0 0 5.68-3.01 14.522 14.522 0 0 0 4.31-7.14 13.838 13.838 0 0 0-1.65-11.08 11.8 11.8 0 0 1 2.06 11.93z" class="cls-3" data-name="패스 3722"/>
        <path id="패스_3723" d="M157.49 23.72a12.8 12.8 0 0 1-1.76 3.2 11.42 11.42 0 0 1-4.08 3.31 4.123 4.123 0 0 1-3.89 0 4.773 4.773 0 0 1-1.37-1.52 4.154 4.154 0 0 1-.41-1.48.17.17 0 0 1 .01-.07 5.89 5.89 0 0 0 1.27 1.23 5.052 5.052 0 0 0 4.79 0 14.079 14.079 0 0 0 5.04-4.08c.14-.21.28-.4.4-.59z" class="cls-4" data-name="패스 3723"/>
        <path id="패스_3724" d="M157.54 23.58c-.02.05-.03.1-.05.14-.12.19-.26.38-.4.59a14.079 14.079 0 0 1-5.04 4.08 5.052 5.052 0 0 1-4.79 0 5.89 5.89 0 0 1-1.27-1.23 2.536 2.536 0 0 1 1.04-1.87c1.25-1.03 1.91-1.56 2.09-3.47a2.563 2.563 0 0 0-.72-1.69c-.3-.39-.67-.8-1.03-1.24a3.9 3.9 0 0 1 1.48-.25 3.391 3.391 0 0 1 .54.05c3.89.63 2.31 4.32 5.36 5.22a3.288 3.288 0 0 0 2.79-.33z" class="cls-5" data-name="패스 3724"/>
        <path id="패스_3725" d="M148.66 19.42c3.89.63 2.31 4.32 5.36 5.22" class="cls-6" data-name="패스 3725"/>
        <path id="패스_3726" d="M158.44 18.63a3.177 3.177 0 0 0-1.64.57c-1.09.79-1.55 1.87-3.33 1.69a5.2 5.2 0 0 1-1.4-.37h-.01a3.326 3.326 0 0 0-2.67-1.83 3.937 3.937 0 0 0-2.02.2 5.875 5.875 0 0 1-1.67-4.82 6.894 6.894 0 0 1 .43-1.65 3.454 3.454 0 0 1 1.18-1.22 7.012 7.012 0 0 1 5.58-1.24h.01c3 .69 5.51 4.34 5.54 8.67z" class="cls-7" data-name="패스 3726"/>
        <path id="패스_3727" d="M157.79 22.71c-.09.32-.16.6-.25.87a3.288 3.288 0 0 1-2.79.33c-1.72-.5-1.96-1.9-2.56-3.13.65 1.1 1.22 2.23 2.88 2.49a3.584 3.584 0 0 0 2.72-.56z" class="cls-8" data-name="패스 3727"/>
        <path id="패스_3728" d="M157.97 21.97c-.07.27-.12.51-.18.74a3.584 3.584 0 0 1-2.72.56c-1.66-.26-2.23-1.39-2.88-2.49-.01-.02-.01-.03-.02-.05a4 4 0 0 0 3.1 1.84 4.391 4.391 0 0 0 2.7-.6z" class="cls-9" data-name="패스 3728"/>
        <path id="패스_3729" d="M158.44 18.63v.11q0 .39-.03.78c-.01.23-.04.46-.07.7a10.044 10.044 0 0 1-.28 1.41c-.03.12-.06.23-.09.34a4.391 4.391 0 0 1-2.7.6 4 4 0 0 1-3.1-1.84c-.03-.07-.07-.15-.1-.21a5.2 5.2 0 0 0 1.4.37c1.78.18 2.24-.9 3.33-1.69a3.177 3.177 0 0 1 1.64-.57z" class="cls-10" data-name="패스 3729"/>
        <path id="패스_3730" d="M153.81 21.5c1.78.18 2.24-.9 3.33-1.69" class="cls-6" data-name="패스 3730"/>
        <path id="패스_3731" d="M152.33 18.59s.5-2.27 1.44-3.07c1.06-.9 2.18-.07 1.89.63-.38.9-1.6.76-3.33 2.44z" class="cls-11" data-name="패스 3731"/>
        <path id="패스_3732" d="M150.99 17.49a7.046 7.046 0 0 0 .14-3.35c-.52-1.27-1.88-1.05-1.94-.31-.08.97 1.06 1.4 1.8 3.66z" class="cls-12" data-name="패스 3732"/>
        <circle id="타원_963" cx=".35" cy=".35" r=".35" class="cls-11" data-name="타원 963" transform="translate(148.8 16.73)"/>
        <circle id="타원_964" cx=".41" cy=".41" r=".41" class="cls-11" data-name="타원 964" transform="translate(153.61 18.63)"/>
    </g>
</svg>
