<svg xmlns="http://www.w3.org/2000/svg" width="50" height="50" viewBox="0 0 50 50">
    <defs>
        <style>
            .cls-1{fill:#f4b2c3}.cls-2{fill:#f9e2bd}.cls-3{fill:#fbeff3;opacity:.5}.cls-4{fill:#e59cb2}.cls-5{fill:#e84824}.cls-6{fill:#fff4e0}.cls-7{fill:#e65138}.cls-8{fill:#ce3e2a}.cls-9{fill:#f58f18}.cls-10{fill:#e68114}.cls-11{fill:#fac935}.cls-12{fill:#e5e3e2}.cls-13{fill:#fae08d}.cls-14{fill:#eaba29}.cls-15{fill:#4f1b11}.cls-16{fill:none}
        </style>
    </defs>
    <g id="그룹_2450" data-name="그룹 2450" transform="translate(-391.146 -198.16)">
        <g id="그룹_2449" data-name="그룹 2449">
            <g id="그룹_2443" data-name="그룹 2443">
                <path id="패스_2175" d="M402.342 242.907v-4.8a4.788 4.788 0 0 1 4.82-4.745h1.6a5.389 5.389 0 0 1 1.883-3.443c1.984-1.67 2.859-3.026 2.761-4.268-.238-2.979-6.235-5.611-4.719-11.7a6.211 6.211 0 0 1-4.869-6.033v-2.876a1.648 1.648 0 0 1 1.66-1.633h1.291a1.647 1.647 0 0 1 1.659 1.633v2.219a2.331 2.331 0 0 0 2.347 2.311h.946a11.089 11.089 0 0 1 8.893-1.506c6.277 1.637 11.462 10.546 8.454 19.093a21.825 21.825 0 0 1-6.478 9.509 11.621 11.621 0 0 1-7.206 3.016 8.441 8.441 0 0 1-4.347-1.272h-3.664a.623.623 0 0 0-.584.4v4.092z" class="cls-1" data-name="패스 2175"/>
                <path id="패스_2176" d="M424.472 231.323a27.062 27.062 0 0 1-2.42 2.843c-1.536 1.4-3.714 3.3-6.909 3.533a8.078 8.078 0 0 1-1.415-.108 4.139 4.139 0 0 1-3.267-2.626 4.325 4.325 0 0 1-.194-.762 3.024 3.024 0 0 1 .181-1.537 7.416 7.416 0 0 1 2.118-2.989c1.537-1.295 3.194-3.594 2.275-6.11a.951.951 0 0 0-.085-.194 4.458 4.458 0 0 1 1.936.206c.073.024.133.048.194.072.472 2.033-2.106 5.385-3.292 6.377a6.131 6.131 0 0 0-1.694 2.4 2.383 2.383 0 0 0-.145 1.234 2.954 2.954 0 0 0 .158.6 3.306 3.306 0 0 0 2.613 2.1 7.465 7.465 0 0 0 1.138.085c2.553-.181 5.7-3.436 6.921-4.562q.563-.581 1.052-1.161a8.545 8.545 0 0 0 .835.599z" class="cls-2" data-name="패스 2176"/>
                <path id="패스_2178" d="M427.485 221.074a21.285 21.285 0 0 1-.157 2.577 15.431 15.431 0 0 1-2.856 7.672c-4.114-2.553-2.045-5.663-7.78-7.744a4.458 4.458 0 0 0-1.936-.206c-.92-2.057-4.283-3.291-3.969-8.409a5.747 5.747 0 0 1 2.009-4.018 8.122 8.122 0 0 1 7.49-1.44c4.295 1.126 7.199 5.312 7.199 11.568z" class="cls-3" data-name="패스 2178"/>
                <path id="패스_2179" d="M428.976 227.253a21.718 21.718 0 0 1-6.478 9.5 11.6 11.6 0 0 1-7.206 3.017 8.487 8.487 0 0 1-4.348-1.272h-3.658a.642.642 0 0 0-.5.247l-.039-.108a.628.628 0 0 1 .582-.67l3.647-.266a10.3 10.3 0 0 0 4.832 1.311 12.577 12.577 0 0 0 7.187-3.814 18.468 18.468 0 0 0 5.46-9.033c1.341-4.92.394-10.52-2.091-14.03a14.962 14.962 0 0 1 2.612 15.118z" class="cls-4" data-name="패스 2179"/>
            </g>
            <path id="패스_2180" d="M417.487 219.888a.494.494 0 1 1-.82-.429 1.516 1.516 0 0 1 .82.429z" class="cls-5" data-name="패스 2180"/>
            <path id="패스_2181" d="M422.589 218.152a.494.494 0 1 1-.3-.875 1.517 1.517 0 0 1 .3.875z" class="cls-5" data-name="패스 2181"/>
            <path id="패스_2182" d="M418.495 215.785a.338.338 0 1 1-.589-.232 1.035 1.035 0 0 1 .589.232z" class="cls-5" data-name="패스 2182"/>
            <path id="패스_2283" d="M423.637 230.73q-.489.581-1.052 1.161c-1.222 1.126-4.368 4.381-6.921 4.562a7.465 7.465 0 0 1-1.138-.085 3.306 3.306 0 0 1-2.613-2.1 2.954 2.954 0 0 1-.158-.6 2.383 2.383 0 0 1 .145-1.234 6.131 6.131 0 0 1 1.694-2.4c1.186-.992 3.764-4.344 3.292-6.377 5.07 1.918 3.775 4.677 6.751 7.073z" class="cls-6" data-name="패스 2283"/>
            <path id="패스_2183" d="M419.944 219.1a.413.413 0 1 1-.028-.772 1.266 1.266 0 0 1 .028.772z" class="cls-5" data-name="패스 2183"/>
            <g id="그룹_2446" data-name="그룹 2446">
                <path id="패스_2184" d="M423.73 223.774c-.1-.321-.27-.773-.731-.16a1.725 1.725 0 0 1-.51.434 3.787 3.787 0 0 0-.019-1.694 3.145 3.145 0 0 1 .182-1.784.174.174 0 0 0-.212-.229 4.918 4.918 0 0 0-3.024 2.587 2.508 2.508 0 0 1-.147-1.21.229.229 0 0 0-.344-.226 1.52 1.52 0 0 0-.089.058 6.694 6.694 0 0 0-2.758 3.85c-.614 2.633 2.563 4.979 5.133 4.373 2.515-.592 3.247-3.591 2.519-5.999z" class="cls-7" data-name="패스 2184"/>
                <g id="그룹_2444" data-name="그룹 2444">
                    <path id="패스_2185" d="M416.5 225.786a6.97 6.97 0 0 1 2.758-3.912c0-.05.007-.1.013-.156a.229.229 0 0 0-.344-.226 1.52 1.52 0 0 0-.089.058 6.694 6.694 0 0 0-2.758 3.85 3.317 3.317 0 0 0 1.109 3.171 3.22 3.22 0 0 1-.689-2.785z" class="cls-8" data-name="패스 2185"/>
                    <path id="패스_2186" d="M419.922 223.142a5.093 5.093 0 0 1 2.686-2.451l.043-.12a.171.171 0 0 0-.2-.233 4.919 4.919 0 0 0-3.033 2.59l.105.21a.249.249 0 0 0 .27.133.225.225 0 0 0 .129-.129z" class="cls-8" data-name="패스 2186"/>
                </g>
                <path id="패스_2187" d="M422.335 225.244c-.072-.237-.2-.571-.54-.118a1.3 1.3 0 0 1-.376.321 2.806 2.806 0 0 0-.014-1.252 2.316 2.316 0 0 1 .134-1.318.129.129 0 0 0-.157-.169 3.633 3.633 0 0 0-2.233 1.911 1.845 1.845 0 0 1-.109-.893.169.169 0 0 0-.254-.167l-.066.042a4.953 4.953 0 0 0-2.037 2.844c-.454 1.945 1.893 3.678 3.792 3.231 1.857-.438 2.398-2.653 1.86-4.432z" class="cls-9" data-name="패스 2187"/>
                <path id="패스_2188" d="M417.1 226.817a5.363 5.363 0 0 1 1.924-2.82 1.951 1.951 0 0 1 .012-.271.169.169 0 0 0-.254-.167l-.066.042a4.953 4.953 0 0 0-2.037 2.844 2.463 2.463 0 0 0 .858 2.378 2.3 2.3 0 0 1-.437-2.006z" class="cls-10" data-name="패스 2188"/>
                <path id="패스_2189" d="M421.062 226.586c-.049-.16-.135-.386-.366-.08a.842.842 0 0 1-.255.217 1.9 1.9 0 0 0-.009-.847 1.568 1.568 0 0 1 .091-.892.087.087 0 0 0-.106-.114 2.458 2.458 0 0 0-1.512 1.293 1.251 1.251 0 0 1-.074-.6.115.115 0 0 0-.172-.114l-.044.029a3.347 3.347 0 0 0-1.379 1.925c-.307 1.317 1.281 2.49 2.566 2.187a1.655 1.655 0 0 0 1.042-.75 2.836 2.836 0 0 0 .218-2.254z" class="cls-11" data-name="패스 2189"/>
                <path id="패스_2190" d="M419.88 227.832c-.027-.089-.075-.216-.2-.045a.493.493 0 0 1-.142.121 1.07 1.07 0 0 0-.006-.472.872.872 0 0 1 .051-.5.048.048 0 0 0-.059-.063 1.368 1.368 0 0 0-.843.72.7.7 0 0 1-.041-.337.064.064 0 0 0-.1-.063l-.025.016a1.863 1.863 0 0 0-.768 1.073c-.234 1 1.424 1.762 2.01.8a1.581 1.581 0 0 0 .123-1.25z" class="cls-12" data-name="패스 2190"/>
                <path id="패스_2191" d="M418.044 228.647a1.522 1.522 0 0 1 .709-.949l.024-.013a.067.067 0 0 1 .1.061.63.63 0 0 0 .054.31 1.161 1.161 0 0 1 .613-.566.887.887 0 0 1 .04-.551.048.048 0 0 0-.059-.063 1.368 1.368 0 0 0-.843.72.7.7 0 0 1-.041-.337.064.064 0 0 0-.1-.063l-.025.016a1.863 1.863 0 0 0-.768 1.073.982.982 0 0 0 .478 1.018.8.8 0 0 1-.182-.656z" class="cls-13" data-name="패스 2191"/>
                <path id="패스_2192" d="M419.6 224.648a3.756 3.756 0 0 1 1.89-1.642c.014-.042.029-.085.046-.129a.129.129 0 0 0-.157-.169 3.579 3.579 0 0 0-1.9 1.357 5.427 5.427 0 0 0-.121.178 3.811 3.811 0 0 0-.213.376c.017.01.263.335.455.029z" class="cls-10" data-name="패스 2192"/>
                <g id="그룹_2445" data-name="그룹 2445">
                    <path id="패스_2193" d="M417.631 227.8a3.6 3.6 0 0 1 1.211-1.86 1.312 1.312 0 0 1-.011-.378.115.115 0 0 0-.172-.114l-.044.029a3.347 3.347 0 0 0-1.379 1.925 1.671 1.671 0 0 0 .59 1.619 1.611 1.611 0 0 1-.195-1.221z" class="cls-14" data-name="패스 2193"/>
                    <path id="패스_2194" d="M419.552 226.117a2.642 2.642 0 0 1 .88-.815 1.829 1.829 0 0 1 .091-.318.087.087 0 0 0-.106-.114 2.392 2.392 0 0 0-1.064.651 2.223 2.223 0 0 0-.168.2 2.694 2.694 0 0 0-.279.447c.241.152.485.19.646-.051z" class="cls-14" data-name="패스 2194"/>
                </g>
            </g>
            <g id="그룹_2447" data-name="그룹 2447">
                <path id="패스_2195" d="M413.8 225.325a.552.552 0 0 1-.5-.324l-1.9-4.205-1.535 2.385a.535.535 0 0 1-.482.251.549.549 0 0 1-.463-.284l-2.8-5.108a.55.55 0 1 1 .964-.53l2.359 4.3 1.582-2.457a.541.541 0 0 1 .5-.251.55.55 0 0 1 .461.322l2.316 5.126a.551.551 0 0 1-.5.777z" class="cls-15" data-name="패스 2195"/>
            </g>
            <g id="그룹_2448" data-name="그룹 2448">
                <path id="패스_2196" d="M409.527 228.764a.549.549 0 0 1-.187-.032l-3.626-1.308a.549.549 0 1 1 .372-1.034l2.8 1.007-.163-1.463a.549.549 0 0 1 .77-.563l3.378 1.508a.55.55 0 0 1-.448 1l-2.5-1.116.154 1.387a.55.55 0 0 1-.546.61z" class="cls-15" data-name="패스 2196"/>
            </g>
        </g>
        <path id="사각형_2703" d="M0 0h50v50H0z" class="cls-16" data-name="사각형 2703" transform="translate(391.147 198.16)"/>
    </g>
</svg>
