<svg xmlns="http://www.w3.org/2000/svg" width="50" height="50" viewBox="0 0 50 50">
    <defs>
        <style>
            .prefix__cls-1{fill:#faddc7}.prefix__cls-2{fill:#f0ceb7}.prefix__cls-5,.prefix__cls-6,.prefix__cls-8{fill:none}.prefix__cls-5{stroke:#343535}.prefix__cls-5,.prefix__cls-6,.prefix__cls-8{stroke-linecap:round}.prefix__cls-5,.prefix__cls-6{stroke-linejoin:round}.prefix__cls-6{stroke:#dd8554}.prefix__cls-8{stroke:#fff;stroke-miterlimit:10;opacity:.8}
        </style>
    </defs>
    <g id="prefix__그룹_3591" data-name="그룹 3591" transform="translate(-677.654 53.572)">
        <g id="prefix__그룹_3590" data-name="그룹 3590">
            <g id="prefix__그룹_3588" data-name="그룹 3588">
                <path id="prefix__패스_4272" d="M716.307-29.465a4.649 4.649 0 0 1 .569-.034 4.566 4.566 0 0 1 .8.07 4.591 4.591 0 0 1 3.794 4.521 4.59 4.59 0 0 1-4.219 4.577c-.123.01-.248.016-.373.016" class="prefix__cls-1" data-name="패스 4272"/>
                <path id="prefix__패스_4273" d="M690.279-21.364a4.6 4.6 0 0 1-.938.1 4.592 4.592 0 0 1-4.589-4.593 4.59 4.59 0 0 1 4.161-4.57 4.106 4.106 0 0 1 .431-.021 4.648 4.648 0 0 1 .569.034" class="prefix__cls-1" data-name="패스 4273"/>
                <path id="prefix__패스_4274" d="M719.277-23.744a.593.593 0 0 1-.544-.356c-.483-1.113-1.892-.727-1.952-.71a.594.594 0 0 1-.732-.409.594.594 0 0 1 .409-.732 2.762 2.762 0 0 1 3.362 1.378.593.593 0 0 1-.307.78.6.6 0 0 1-.236.049z" class="prefix__cls-2" data-name="패스 4274"/>
                <path id="prefix__패스_4275" d="M687.314-24.436a.6.6 0 0 1-.236-.049.592.592 0 0 1-.307-.78 2.763 2.763 0 0 1 3.363-1.378.594.594 0 0 1 .408.732.592.592 0 0 1-.73.409c-.153-.041-1.485-.37-1.954.71a.593.593 0 0 1-.544.356z" class="prefix__cls-2" data-name="패스 4275"/>
                <path id="prefix__패스_4276" d="M717.309-32.49v9.55a14.025 14.025 0 0 1-.6 4.075 14.1 14.1 0 0 1-.86 2.163q-.3.591-.642 1.15a14.154 14.154 0 0 1-1.714 2.225 13.986 13.986 0 0 1-7.532 4.147 14.733 14.733 0 0 1-2.67.25 14.007 14.007 0 0 1-14.01-14.01v-9.55a14.007 14.007 0 0 1 14.01-14.01 14.733 14.733 0 0 1 2.67.25 13.974 13.974 0 0 1 7.24 3.85 13.966 13.966 0 0 1 4.108 9.91z" class="prefix__cls-1" data-name="패스 4276"/>
                <path id="prefix__패스_4277" d="M704.439-9.16a12.814 12.814 0 0 1-2.42.23 12.748 12.748 0 0 1-12.74-12.74v-8.68a12.748 12.748 0 0 1 12.74-12.74 12.814 12.814 0 0 1 2.42.23 12.741 12.741 0 0 0-10.32 12.51v8.68a12.741 12.741 0 0 0 10.32 12.51z" data-name="패스 4277" style="fill:#f6ceb3"/>
                <path id="prefix__패스_4278" d="M717.309-32.49v2.07c-15.75-.02-21.52-6.13-22.06-6.75a.173.173 0 0 1-.05-.05c0 2.81-2.82 5.79-5.92 6.8v-2.01a15.9 15.9 0 0 1 .16-2.19c.08-.45.17-.9.28-1.35.06-.22.13-.44.19-.67a14.679 14.679 0 0 1 1.76-3.68s.02-.01.02-.02c.25-.36.51-.72.79-1.06.16-.18.31-.36.47-.54s.31-.33.47-.49a14 14 0 0 1 1.54-1.33c.34-.25.7-.49 1.06-.71a13.942 13.942 0 0 1 7.27-2.03 14.536 14.536 0 0 1 2.57.23c.03.01.07.01.1.02a13.974 13.974 0 0 1 7.24 3.85 13.966 13.966 0 0 1 4.11 9.91z" data-name="패스 4278" style="fill:#111"/>
                <path id="prefix__패스_4279" d="M695.966-26.9l3.848 2.334-3.848 2.179" class="prefix__cls-5" data-name="패스 4279"/>
                <path id="prefix__패스_4280" d="M709.2-26.762l-3.848 2.334 3.848 2.178" class="prefix__cls-5" data-name="패스 4280"/>
                <path id="prefix__패스_4281" d="M683.839-47.087l4.51 1.263-1.762 2.924 3.282.939" class="prefix__cls-6" data-name="패스 4281"/>
                <path id="prefix__패스_4282" d="M689.651-48.724l2.335 1.661-1.62 1.318 1.695 1.221" class="prefix__cls-6" data-name="패스 4282"/>
            </g>
            <path id="prefix__패스_4283" d="M710.754-11.508a3.087 3.087 0 0 1-3.088 3.087h-10.025a3.087 3.087 0 0 1-3.087-3.087c0-1.647.551-3.406 2.025-3.856a.963.963 0 0 0 .712-.907v-1.352a.94.94 0 0 1 .94-.941h8.846a.94.94 0 0 1 .94.941v1.352a.962.962 0 0 0 .711.907c1.472.452 2.026 2.216 2.026 3.856z" data-name="패스 4283" style="fill:#fda65b"/>
            <path id="prefix__선_803" d="M0 0L0 3.502" class="prefix__cls-8" data-name="선 803" transform="translate(699.814 -18.561)"/>
            <path id="prefix__선_804" d="M0 0L0 3.502" class="prefix__cls-8" data-name="선 804" transform="translate(702.452 -14.326)"/>
            <path id="prefix__선_805" d="M0 0L0 0.652" class="prefix__cls-8" data-name="선 805" transform="translate(699.814 -13.552)"/>
            <path id="prefix__선_806" d="M0 0L0 3.706" class="prefix__cls-8" data-name="선 806" transform="translate(705.355 -18.561)"/>
            <path id="prefix__선_807" d="M0 0L0 0.652" class="prefix__cls-8" data-name="선 807" transform="translate(705.355 -13.552)"/>
            <g id="prefix__그룹_3589" data-name="그룹 3589">
                <path id="prefix__패스_4284" d="M708.2-18.061h-11.088a.5.5 0 0 1-.5-.5.5.5 0 0 1 .5-.5H708.2a.5.5 0 0 1 .5.5.5.5 0 0 1-.5.5z" data-name="패스 4284" style="fill:#e03b18"/>
            </g>
        </g>
        <path id="prefix__사각형_1945" d="M0 0H50V50H0z" data-name="사각형 1945" transform="translate(677.654 -53.572)" style="fill:none"/>
    </g>
</svg>
