<svg xmlns="http://www.w3.org/2000/svg" width="50" height="50" viewBox="0 0 50 50">
    <defs>
        <style>
            .cls-1,.cls-6{fill:none}.cls-2{fill:#f4b2c3}.cls-3{fill:#fbeff3}.cls-4{fill:#d86389;stroke:rgba(0,0,0,0)}.cls-5{fill:#e59cb2}.cls-6{stroke:#fff;stroke-linecap:round;stroke-miterlimit:10;opacity:.6}
        </style>
    </defs>
    <g id="그룹_1738" data-name="그룹 1738" transform="translate(-165.223 -94.222)">
        <path id="사각형_1945" d="M0 0h50v50H0z" class="cls-1" data-name="사각형 1945" transform="translate(165.224 94.222)"/>
        <path id="패스_1703" d="M183.3 125.375h2.894a6.679 6.679 0 0 0 3.435 1.006 9.186 9.186 0 0 0 5.689-2.381 17.256 17.256 0 0 0 5.118-7.513c2.376-6.752-1.721-13.79-6.679-15.083a8.754 8.754 0 0 0-7.025 1.19h-.747a1.844 1.844 0 0 1-1.855-1.827v-1.754a1.3 1.3 0 0 0-1.311-1.291H181.8a1.3 1.3 0 0 0-1.312 1.291v2.272a4.907 4.907 0 0 0 3.847 4.766c-1.2 4.81 3.54 6.89 3.728 9.243.078.982-.614 2.053-2.181 3.372a4.254 4.254 0 0 0-1.488 2.72h-1.265a3.782 3.782 0 0 0-3.807 3.749v3.789a1.291 1.291 0 0 0 .036.175v.18c.019 2.086 1.723 2.763 3.808 2.749h11.319a.486.486 0 0 1 .188.375v1.356h-12.15a2.557 2.557 0 0 0-2.808 2.749v3.792a1.3 1.3 0 0 0 1.311 1.29h.857a1.3 1.3 0 0 0 1.317-1.29v-3.057a.494.494 0 0 1 .5-.49H196.838a1.3 1.3 0 0 0 1.311-1.29v-3.789c0-2.293-.48-2.749-2.415-2.749h-12.711a.49.49 0 0 1-.189-.375v-2.857a.5.5 0 0 1 .466-.318z" class="cls-2" data-name="패스 1703"/>
        <path id="패스_779" d="M196.049 114.5a2.813 2.813 0 0 1-2.248-.126 5.038 5.038 0 0 0-2.912-.694 1.233 1.233 0 0 0-1.09 1.133 7.508 7.508 0 0 1-2.3 4.238c-3.466 3.13.786 8.49 6.74 2.56a16.17 16.17 0 0 0 3.361-5.529 1.239 1.239 0 0 0-1.552-1.582z" class="cls-3" data-name="패스 779"/>
        <path id="교차_10" d="M1.856 4.85l-.546-.243A2.807 2.807 0 0 1 .809.235 2 2 0 0 1 2.563.173l3.581 1.595a2 2 0 0 1 1.1 1.26 6.9 6.9 0 0 1-4.34 1.983 3.373 3.373 0 0 1-1.048-.161z" class="cls-4" data-name="교차 10" transform="translate(186.254 119.266)"/>
        <path id="패스_1704" d="M200.358 116.557a17.143 17.143 0 0 1-5.117 7.508 9.162 9.162 0 0 1-5.693 2.383 6.708 6.708 0 0 1-3.435-1h-2.89a.509.509 0 0 0-.4.194l-.031-.084a.5.5 0 0 1 .46-.53l2.881-.21a8.14 8.14 0 0 0 3.817 1.036 9.937 9.937 0 0 0 5.678-3.013 14.6 14.6 0 0 0 4.314-7.137 13.844 13.844 0 0 0-1.652-11.084 11.82 11.82 0 0 1 2.068 11.937z" class="cls-5" data-name="패스 1704"/>
        <path id="패스_778" d="M198.1 108.406a9.3 9.3 0 0 0-5.983-5.628" class="cls-6" data-name="패스 778"/>
        <path id="패스_1705" d="M198.446 110.094a3.412 3.412 0 0 1 .157.451" class="cls-6" data-name="패스 1705"/>
    </g>
</svg>
