<svg xmlns="http://www.w3.org/2000/svg" width="50" height="50" viewBox="0 0 50 50">
    <defs>
        <style>
            .cls-1{fill:#c1c1c0}.cls-2{fill:#cfcfcf}.cls-3{fill:#1a1818}.cls-4{fill:#9b9b99}.cls-5{fill:#acacac}.cls-6{fill:#d9d9d8}.cls-7{fill:#f27b69}.cls-8{fill:#faddc7}.cls-9{fill:#f4cb99}.cls-10{fill:#f7c8b8}.cls-11{fill:#f0aa96}.cls-12{fill:#ee8c77}.cls-13,.cls-15,.cls-17{fill:none}.cls-13{stroke:#4f1b11;stroke-linejoin:round;stroke-width:.75px}.cls-13,.cls-15{stroke-linecap:round}.cls-14{fill:#ec9d6e}.cls-15{stroke:#ca855d;stroke-miterlimit:10;stroke-width:.25px}.cls-16{fill:#ca855d}
        </style>
    </defs>
    <g id="그룹_2491" data-name="그룹 2491" transform="translate(-563.271 -198.16)">
        <g id="그룹_2490" data-name="그룹 2490">
            <path id="패스_2350" d="M578.126 237.46a1.192 1.192 0 0 1-.97-1.17v-1.02a2.222 2.222 0 0 0-1.33-2.02c-2.87-1.34-4.74-3.52-4.74-5.99V213.3a2.284 2.284 0 0 1 1.44-2.12 2.317 2.317 0 0 0-.67 1.62v13.96c0 2.47 1.87 4.65 4.74 5.99a2.222 2.222 0 0 1 1.33 2.02v2.02a1.176 1.176 0 0 0 .2.67z" class="cls-1" data-name="패스 2350"/>
            <path id="패스_2351" d="M593.89 226.49v.85a6.26 6.26 0 0 1-2.89 4.83c-.15.11-.31.22-.47.32a.031.031 0 0 0-.02.01c0 .01 0 .01-.01.01a9.057 9.057 0 0 1-1.23.68l-.12.06a2.111 2.111 0 0 0-.8.61 2.17 2.17 0 0 0-.52 1.41v1.02a1.186 1.186 0 0 1-1.19 1.19h-8.29a1.5 1.5 0 0 1-.22-.02 1.176 1.176 0 0 1-.2-.67v-2.02a2.222 2.222 0 0 0-1.33-2.02c-2.87-1.34-4.74-3.52-4.74-5.99V212.8a2.317 2.317 0 0 1 .67-1.62l.01-.01a2.325 2.325 0 0 1 .84-.16h4.44a2.3 2.3 0 0 1 2.29 2.29v10.81a1.192 1.192 0 0 0 1.19 1.19h11.4a1.189 1.189 0 0 1 .77.28.75.75 0 0 1 .15.16 1.147 1.147 0 0 1 .27.75z" class="cls-2" data-name="패스 2351"/>
            <path id="패스_2353" d="M592.626 237.48a1.016 1.016 0 0 1-1.01 1.02h-18.25a1.024 1.024 0 0 1-1.02-1.02.93.93 0 0 1 .05-.29 1.011 1.011 0 0 0 .97.72h18.25a1 1 0 0 0 .96-.72.709.709 0 0 1 .05.29z" class="cls-4" data-name="패스 2353"/>
            <path id="패스_2354" d="M592.576 237.19a1 1 0 0 1-.96.72h-18.25a.756.756 0 1 1 0-1.45h18.25a1 1 0 0 1 .96.73z" class="cls-5" data-name="패스 2354"/>
            <rect id="사각형_2725" width="9.688" height="2.006" class="cls-6" data-name="사각형 2725" rx=".377" transform="translate(570.732 211.01)"/>
            <path id="패스_2355" d="M571.086 213.016h9.02v.539s-6.101-.168-9.02-.539z" class="cls-5" data-name="패스 2355"/>
            <path id="패스_2356" d="M590.506 232.5c0 .01 0 .01-.01.01a10.88 10.88 0 0 1-1.35.74 2.111 2.111 0 0 0-.8.61 51.7 51.7 0 0 1-5.6.07 28.307 28.307 0 0 0 5.249-.467 11.021 11.021 0 0 0 2.511-.963z" class="cls-5" data-name="패스 2356"/>
            <path id="패스_2357" d="M591.55 212.3v.06a.486.486 0 0 0-.01.12c-.03.21-.05.38-.07.51 0 .03-.01.05-.01.08-.02.12-.05.23-.07.35a.5.5 0 0 0-.02.12 1.025 1.025 0 0 0-.04.14.769.769 0 0 1-.25-.7.746.746 0 0 1 .47-.68z" class="cls-7" data-name="패스 2357"/>
            <g id="그룹_2489" data-name="그룹 2489">
                <path id="패스_2358" d="M604.34 234.56a4.008 4.008 0 0 1-1.82.96l-.77.19a3.287 3.287 0 0 1-.68.1 4.88 4.88 0 0 1-1.71-.09 4.994 4.994 0 0 1-3.62-3.39l-1.85-4.99-.05-.13a2.212 2.212 0 0 0-.79-1.32 5.032 5.032 0 0 0 1.1-.32 10.134 10.134 0 0 1-2.12-.1h-.04l-.71-.17-4.16-.98a5.044 5.044 0 0 1-2.16-1.13.01.01 0 0 0-.01-.01 6.574 6.574 0 0 1-.87-.71 5.853 5.853 0 0 1-.86-1.12 5.657 5.657 0 0 1-.7-4.09 1.121 1.121 0 0 1 .1-.27l4.4-9.36a.846.846 0 0 1 .06-.17 6.042 6.042 0 0 1 .53-1.4l8.67 2.05a10.439 10.439 0 0 1-.15 1.7c-1.28-.22-2.68.88-3.26 2.6a3.515 3.515 0 0 0 .75 3.84.918.918 0 0 1-.09.17 2.932 2.932 0 0 0-.21.46l-.03.09a.988.988 0 0 0-.05.16.956.956 0 0 1 .07-.25 42.37 42.37 0 0 0-5.45.95.345.345 0 0 0 .09-.01 42.425 42.425 0 0 1 5.61-.13h.01a3.111 3.111 0 0 0 .43.14l.59.14a5.229 5.229 0 0 1 3.78 3.43l2.71 8.51.08.26.06.02a.215.215 0 0 1 .11-.02c1.53-.34 3.35-.05 3.81 1.74a2.6 2.6 0 0 1-.8 2.65z" class="cls-8" data-name="패스 2358"/>
                <path id="패스_2359" d="M593.56 217.69a42.425 42.425 0 0 0-5.61.13.345.345 0 0 1-.09.01 42.37 42.37 0 0 1 5.45-.95.956.956 0 0 0-.07.25.439.439 0 0 0 .32.56z" class="cls-8" data-name="패스 2359"/>
                <path id="패스_2360" d="M594.15 225.57a5.032 5.032 0 0 1-1.1.32 2.117 2.117 0 0 0-.74-.33 2.3 2.3 0 0 0-.28-.09 10.134 10.134 0 0 0 2.12.1z" class="cls-8" data-name="패스 2360"/>
                <path id="패스_2361" d="M596.13 209.81c-.04.24-.08.47-.13.69l-.12.43-.02.11c-.03.12-.06.24-.09.34a.513.513 0 0 1-.04.1 1.962 1.962 0 0 1-.07.26.47.47 0 0 1-.03.09c-.03.07-.04.13-.07.19a.193.193 0 0 1-.03.1.563.563 0 0 1-.04.12c-.01.04-.01.07-.03.09l-.03.09a.319.319 0 0 1-.03.09l-.01.05a.564.564 0 0 0-.04.12c-.08.2-.14.36-.19.48a.149.149 0 0 1-.03.07c-.04.12-.1.22-.14.33a.536.536 0 0 0-.05.11.826.826 0 0 0-.07.13c0 .01 0 .01-.01.02-.02.05-.05.09-.07.14v.01a1.43 1.43 0 0 1-.12.21v.01a2.715 2.715 0 0 1-.11.25c-.06.11-.11.21-.17.32v.01c-.06.13-.12.25-.18.37-.01.01-.01.02-.02.03-.09.16-.16.32-.25.47a6.8 6.8 0 0 1-.32.61 3.515 3.515 0 0 1-.75-3.84c.58-1.72 1.98-2.82 3.26-2.6z" class="cls-8" data-name="패스 2361"/>
                <path id="패스_2362" d="M593.56 217.69a42.425 42.425 0 0 0-5.61.13.345.345 0 0 1-.09.01 42.37 42.37 0 0 1 5.45-.95.956.956 0 0 0-.07.25.439.439 0 0 0 .32.56z" class="cls-9" data-name="패스 2362"/>
                <path id="패스_2363" d="M594.15 225.57a5.032 5.032 0 0 1-1.1.32 2.117 2.117 0 0 0-.74-.33q-.135-.045-.3-.09h.02a10.134 10.134 0 0 0 2.12.1z" class="cls-9" data-name="패스 2363"/>
                <path id="패스_2364" d="M596.13 209.81c-.04.24-.08.47-.13.69-1.02-.2-2.16.68-2.63 2.08a2.8 2.8 0 0 0 .57 3.06 6.8 6.8 0 0 1-.32.61 3.515 3.515 0 0 1-.75-3.84c.58-1.72 1.98-2.82 3.26-2.6z" class="cls-10" data-name="패스 2364"/>
                <path id="패스_2365" d="M596 210.5c-.035.146-.079.29-.113.436l-.025.107c-.827-.154-1.732.546-2.113 1.679a2.235 2.235 0 0 0 .466 2.422.041.041 0 0 0-.017.027c-.09.164-.168.32-.255.474a2.806 2.806 0 0 1-.572-3.063c.47-1.4 1.613-2.282 2.629-2.082z" class="cls-11" data-name="패스 2365"/>
                <path id="패스_2366" d="M595.858 211.042a4.134 4.134 0 0 1-.091.338c-.009.039-.028.076-.035.1a1.694 1.694 0 0 0-1.682 1.339 1.815 1.815 0 0 0 .343 1.941v.01l-.18.368a2.235 2.235 0 0 1-.466-2.422c.379-1.128 1.284-1.828 2.111-1.674z" class="cls-11" data-name="패스 2366"/>
                <path id="패스_2367" d="M595.732 211.485a2.137 2.137 0 0 1-.069.251c-.007.029-.026.065-.033.1a1.373 1.373 0 0 0-1.33 1.062 1.468 1.468 0 0 0 .263 1.542v.01l-.168.32a1.815 1.815 0 0 1-.343-1.941 1.694 1.694 0 0 1 1.68-1.344z" class="cls-12" data-name="패스 2367"/>
                <path id="패스_2368" d="M595.63 211.831c-.026.065-.042.134-.065.19a.335.335 0 0 1-.033.1 1.052 1.052 0 0 0-1.022.847 1.26 1.26 0 0 0 .164 1.221v.01a2.576 2.576 0 0 1-.109.241 1.468 1.468 0 0 1-.263-1.542 1.373 1.373 0 0 1 1.328-1.067z" class="cls-12" data-name="패스 2368"/>
                <path id="패스_2369" d="M595.532 212.116a.516.516 0 0 1-.04.124.322.322 0 0 1-.032.1c-.321-.035-.645.249-.806.673a.941.941 0 0 0 .133.956v.01a2.11 2.11 0 0 1-.111.21 1.26 1.26 0 0 1-.164-1.221 1.052 1.052 0 0 1 1.02-.852z" class="cls-12" data-name="패스 2369"/>
                <path id="패스_2370" d="M595.46 212.335c-.007.029-.024.056-.031.085a.261.261 0 0 1-.03.085.748.748 0 0 0-.614.554.771.771 0 0 0 .083.739l-.005.02c-.023.056-.052.09-.076.146a.941.941 0 0 1-.133-.956c.161-.424.485-.708.806-.673z" class="cls-7" data-name="패스 2370"/>
                <path id="패스_2371" d="M596.633 215.042l1.059 1.54.561-1.1.9 1.562" class="cls-13" data-name="패스 2371"/>
                <path id="패스_2372" d="M597.353 212.845l1.85-.264-.735-.991 1.8-.115" class="cls-13" data-name="패스 2372"/>
            </g>
            <path id="패스_2373" d="M583.163 225.3H581.3a1.186 1.186 0 0 1-.88-.39l2.8-3.56a5.853 5.853 0 0 0 .86 1.12z" class="cls-14" data-name="패스 2373"/>
            <path id="선_424" d="M.977 0L0 1.433" class="cls-15" data-name="선 424" transform="translate(582.25 221.81)"/>
            <path id="선_425" d="M.649 0L0 1.609" class="cls-15" data-name="선 425" transform="translate(583.144 222.439)"/>
            <path id="선_426" d="M.33 0L0 .636" class="cls-15" data-name="선 426" transform="translate(583.139 222.134)"/>
            <path id="선_427" d="M.209 0L0 .216" class="cls-15" data-name="선 427" transform="translate(581.278 224.278)"/>
            <path id="선_428" d="M.032 0L0 .299" class="cls-15" data-name="선 428" transform="translate(581.628 224.779)"/>
            <path id="선_429" d="M.431 0L0 .572" class="cls-15" data-name="선 429" transform="translate(582.034 223.738)"/>
            <path id="선_430" d="M.308 0L0 .647" class="cls-15" data-name="선 430" transform="translate(582.267 224.347)"/>
            <path id="선_431" d="M.032 0L0 .297" class="cls-15" data-name="선 431" transform="translate(582.859 223.325)"/>
            <path id="선_432" d="M.207 0L0 .216" class="cls-15" data-name="선 432" transform="translate(582.929 224.386)"/>
            <path id="선_433" d="M.061 0L0 .293" class="cls-15" data-name="선 433" transform="translate(581.815 223.592)"/>
            <circle id="타원_616" cx=".118" cy=".118" r=".118" class="cls-16" data-name="타원 616" transform="translate(580.876 224.758)"/>
            <circle id="타원_617" cx=".118" cy=".118" r=".118" class="cls-16" data-name="타원 617" transform="translate(582.741 224.96)"/>
            <path id="패스_2374" d="M582.831 221.437a.694.694 0 0 1-.38.308c-.237.055-.45.005-.477-.11s.143-.254.38-.308a.689.689 0 0 1 .477.11z" class="cls-14" data-name="패스 2374"/>
            <path id="패스_2375" d="M581.824 221.161a.689.689 0 0 1-.444.206c-.243 0-.438-.1-.435-.223s.2-.21.443-.206a.688.688 0 0 1 .436.223z" class="cls-14" data-name="패스 2375"/>
            <path id="패스_2376" d="M584.425 224.061a.692.692 0 0 1 .295.39c.047.238-.009.45-.126.473s-.248-.152-.295-.39a.69.69 0 0 1 .126-.473z" class="cls-14" data-name="패스 2376"/>
            <path id="패스_2377" d="M584.227 223.163a.69.69 0 0 1 .472.13c.182.16.266.363.188.452s-.29.031-.472-.13a.693.693 0 0 1-.188-.452z" class="cls-14" data-name="패스 2377"/>
            <circle id="타원_618" cx=".13" cy=".13" r=".13" class="cls-14" data-name="타원 618" transform="translate(581.53 222.109)"/>
            <circle id="타원_619" cx=".13" cy=".13" r=".13" class="cls-14" data-name="타원 619" transform="translate(582.25 220.673)"/>
            <circle id="타원_620" cx=".13" cy=".13" r=".13" class="cls-14" data-name="타원 620" transform="translate(583.767 224.115)"/>
        </g>
        <path id="사각형_2726" d="M0 0h50v50H0z" class="cls-17" data-name="사각형 2726" transform="translate(563.272 198.16)"/>
    </g>
</svg>
