<svg xmlns="http://www.w3.org/2000/svg" width="50" height="50" viewBox="0 0 50 50">
    <defs>
        <style>
            .cls-1{fill:#e0f2f5}.cls-2{fill:#5ccbd9}.cls-3{fill:#ac5cfc}.cls-4{fill:#ffd007}.cls-5{fill:#a5dce1}.cls-6{fill:none}
        </style>
    </defs>
    <g id="그룹_3301" data-name="그룹 3301" transform="translate(-62.19 -.93)">
        <g id="그룹_3300" data-name="그룹 3300">
            <circle id="타원_993" cx="20" cy="20" r="20" class="cls-1" data-name="타원 993" transform="translate(67.19 5.93)"/>
            <circle id="타원_994" cx="16.67" cy="16.67" r="16.67" class="cls-2" data-name="타원 994" transform="translate(70.52 9.26)"/>
            <path id="패스_3783" d="M81.44 18.48l-1.91.04-1.23-1.18a.87.87 0 0 0-1.2 1.26l1.34 1.28.04 1.71a.87.87 0 1 0 1.74-.04l-.03-1.3 1.3-.03a.871.871 0 0 0 .85-.89.886.886 0 0 0-.9-.85z" class="cls-3" data-name="패스 3783"/>
            <g id="그룹_3297" data-name="그룹 3297">
                <path id="패스_3784" d="M86.34 17.46a.478.478 0 0 1-.48-.43 5.9 5.9 0 0 1 .33-2.49 2.924 2.924 0 0 1 1.73-1.71.483.483 0 0 1 .61.32.49.49 0 0 1-.31.61 1.963 1.963 0 0 0-1.12 1.13 4.962 4.962 0 0 0-.27 2.04.471.471 0 0 1-.43.53z" class="cls-4" data-name="패스 3784"/>
            </g>
            <circle id="타원_995" cx=".98" cy=".98" r=".98" class="cls-5" data-name="타원 995" transform="translate(86.6 36.47)"/>
            <circle id="타원_996" cx=".98" cy=".98" r=".98" class="cls-5" data-name="타원 996" transform="translate(82.87 21.35)"/>
            <circle id="타원_997" cx=".98" cy=".98" r=".98" class="cls-5" data-name="타원 997" transform="translate(91.4 25.67)"/>
            <circle id="타원_998" cx=".98" cy=".98" r=".98" class="cls-5" data-name="타원 998" transform="translate(73.82 23.32)"/>
            <path id="패스_3785" d="M91 20.81l1.9.21 1.07 1.33a.875.875 0 1 0 1.36-1.1l-1.16-1.44.18-1.7a.87.87 0 1 0-1.73-.19l-.14 1.29-1.29-.14a.875.875 0 0 0-.19 1.74z" class="cls-3" data-name="패스 3785"/>
            <path id="패스_3786" d="M87.45 29.31l-.08-1.91 1.16-1.26a.87.87 0 0 0-1.28-1.18L86 26.32l-1.71.07a.876.876 0 0 0 .07 1.75l1.3-.05.05 1.3a.88.88 0 0 0 .91.84.893.893 0 0 0 .83-.92z" class="cls-3" data-name="패스 3786"/>
            <path id="패스_3787" d="M96.67 34.15l-1.83-.53-.82-1.5a.877.877 0 1 0-1.54.84l.89 1.62-.48 1.64a.87.87 0 1 0 1.67.49l.36-1.24 1.24.36a.874.874 0 0 0 1.08-.59.846.846 0 0 0-.57-1.09z" class="cls-3" data-name="패스 3787"/>
            <g id="그룹_3298" data-name="그룹 3298">
                <path id="패스_3788" d="M96.85 25.29a.478.478 0 0 1 .53-.37 6.05 6.05 0 0 1 2.35.87 2.913 2.913 0 0 1 1.28 2.07.483.483 0 0 1-.44.52.476.476 0 0 1-.52-.44 1.947 1.947 0 0 0-.86-1.34 5.157 5.157 0 0 0-1.93-.72.471.471 0 0 1-.42-.54.09.09 0 0 0 .01-.05z" class="cls-4" data-name="패스 3788"/>
            </g>
            <path id="패스_3789" d="M79.46 31.68l-1.87-.38-.95-1.42a.872.872 0 1 0-1.45.97l1.02 1.54-.34 1.67a.873.873 0 1 0 1.71.35l.26-1.27 1.27.26a.878.878 0 0 0 .35-1.72z" class="cls-3" data-name="패스 3789"/>
            <g id="그룹_3299" data-name="그룹 3299">
                <path id="패스_3790" d="M83.5 37.94a.485.485 0 0 1-.63-.14 5.912 5.912 0 0 1-.92-2.33 2.943 2.943 0 0 1 .68-2.34.5.5 0 0 1 .69-.02.486.486 0 0 1 .02.68 1.958 1.958 0 0 0-.43 1.53 4.919 4.919 0 0 0 .76 1.91.494.494 0 0 1-.12.68c-.02.01-.03.02-.05.03z" class="cls-4" data-name="패스 3790"/>
            </g>
            <circle id="타원_999" cx=".61" cy=".61" r=".61" class="cls-5" data-name="타원 999" transform="translate(81.31 13.91)"/>
            <circle id="타원_1000" cx=".61" cy=".61" r=".61" class="cls-5" data-name="타원 1000" transform="translate(91.77 13.91)"/>
            <circle id="타원_1001" cx=".61" cy=".61" r=".61" class="cls-5" data-name="타원 1001" transform="translate(79.49 27.17)"/>
            <circle id="타원_1002" cx=".61" cy=".61" r=".61" class="cls-5" data-name="타원 1002" transform="translate(87.93 31.69)"/>
            <circle id="타원_1003" cx=".61" cy=".61" r=".61" class="cls-5" data-name="타원 1003" transform="translate(97.71 19.3)"/>
        </g>
        <path id="사각형_3006" d="M0 0h50v50H0z" class="cls-6" data-name="사각형 3006" transform="translate(62.19 .93)"/>
    </g>
</svg>
