<svg xmlns="http://www.w3.org/2000/svg" width="50" height="50" viewBox="0 0 50 50">
    <defs>
        <style>
            .prefix__cls-6{fill:#acacac}.prefix__cls-7{fill:#d9d9d8}.prefix__cls-10{fill:#f5f5f5}.prefix__cls-14{fill:#fff}
        </style>
    </defs>
    <g id="prefix__그룹_3605" data-name="그룹 3605" transform="translate(-809.411 53.572)">
        <path id="prefix__사각형_3185" d="M0 0H50V50H0z" data-name="사각형 3185" transform="translate(809.411 -53.572)" style="fill:none"/>
        <g id="prefix__그룹_3604" data-name="그룹 3604">
            <g id="prefix__그룹_3602" data-name="그룹 3602">
                <g id="prefix__그룹_3601" data-name="그룹 3601">
                    <path id="prefix__패스_4309" d="M827.115-8.915a1.43 1.43 0 0 1-1.164-1.4v-1.224a2.667 2.667 0 0 0-1.6-2.424c-3.444-1.608-5.688-4.224-5.688-7.188v-16.756a2.74 2.74 0 0 1 1.728-2.544 2.78 2.78 0 0 0-.8 1.944v16.752c0 2.964 2.244 5.58 5.688 7.188a2.667 2.667 0 0 1 1.6 2.424v2.424a1.411 1.411 0 0 0 .236.804z" data-name="패스 4309" style="fill:#c1c1c0"/>
                    <path id="prefix__패스_4310" d="M846.027-22.079v.924a7.464 7.464 0 0 1-3.468 5.892c-.18.132-.372.264-.564.384a.037.037 0 0 0-.024.012c0 .012 0 .012-.012.012a10.868 10.868 0 0 1-1.476.816l-.144.072a2.533 2.533 0 0 0-.96.732 2.6 2.6 0 0 0-.624 1.692v1.224a1.424 1.424 0 0 1-1.428 1.428h-9.948a1.8 1.8 0 0 1-.264-.024 1.411 1.411 0 0 1-.24-.8v-2.424a2.667 2.667 0 0 0-1.6-2.424c-3.444-1.608-5.688-4.224-5.688-7.188v-16.756a2.78 2.78 0 0 1 .8-1.944l.012-.012a2.79 2.79 0 0 1 1.008-.192h5.328a2.755 2.755 0 0 1 2.748 2.748v12.972a1.424 1.424 0 0 0 1.428 1.428H844.6a1.424 1.424 0 0 1 1.427 1.428z" data-name="패스 4310" style="fill:#cfcfcf"/>
                    <path id="prefix__패스_4312" d="M844.515-8.891a1.219 1.219 0 0 1-1.215 1.224h-21.9a1.229 1.229 0 0 1-1.224-1.224 1.115 1.115 0 0 1 .06-.348 1.213 1.213 0 0 0 1.164.864h21.9a1.2 1.2 0 0 0 1.152-.864.852.852 0 0 1 .063.348z" data-name="패스 4312" style="fill:#9b9b99"/>
                    <path id="prefix__패스_4313" d="M844.455-9.239a1.2 1.2 0 0 1-1.152.864H821.4a1.213 1.213 0 0 1-1.164-.864 1.213 1.213 0 0 1 1.164-.876h21.9a1.2 1.2 0 0 1 1.155.876z" class="prefix__cls-6" data-name="패스 4313"/>
                    <rect id="prefix__사각형_3186" width="11.626" height="2.407" class="prefix__cls-7" data-name="사각형 3186" rx=".377" transform="translate(818.243 -40.655)"/>
                    <path id="prefix__패스_4315" d="M818.667-38.248h10.824v.647s-7.32-.199-10.824-.647z" class="prefix__cls-6" data-name="패스 4315"/>
                    <path id="prefix__패스_4316" d="M841.971-14.867c0 .012 0 .012-.012.012a13.055 13.055 0 0 1-1.62.888 2.533 2.533 0 0 0-.96.732 62.015 62.015 0 0 1-6.72.084 33.923 33.923 0 0 0 6.3-.56 13.172 13.172 0 0 0 3.012-1.156z" class="prefix__cls-6" data-name="패스 4316"/>
                    <g id="prefix__그룹_3600" data-name="그룹 3600">
                        <path id="prefix__패스_4317" d="M824.079-46.771c-1.341 0-2.429.262-2.429.586v4.707a.182.182 0 0 0 .047.11.412.412 0 0 0 .037.035.559.559 0 0 0 .089.069c.021.013.046.025.07.037.04.02.082.039.13.058l.1.035c.052.017.11.033.17.049.039.011.076.021.117.03.069.016.143.03.22.044l.121.022c.119.019.243.036.375.049.023 0 .048 0 .071.006.1.01.21.019.321.026l1.409.928v-.951c.923-.083 1.583-.3 1.583-.547v-4.707c-.002-.324-1.089-.586-2.431-.586z" data-name="패스 4317" style="fill:#030504;opacity:.06"/>
                        <g id="prefix__그룹_3599" data-name="그룹 3599">
                            <path id="prefix__패스_4318" d="M819.882-48.466v8.134c0 .559 1.879 1.012 4.2 1.012s4.2-.453 4.2-1.012v-8.134z" data-name="패스 4318" style="fill:#dfdfde"/>
                            <path id="prefix__패스_4319" d="M823.107-48.344l-3.225-.122v8.134c0 .478 1.376.879 3.225.985z" class="prefix__cls-10" data-name="패스 4319"/>
                            <path id="prefix__패스_4320" d="M824.079-49.478c-2.318 0-4.2.453-4.2 1.012s1.879 1.012 4.2 1.012 4.2-.453 4.2-1.012-1.879-1.012-4.2-1.012z" data-name="패스 4320" style="fill:#e8e9e9"/>
                            <path id="prefix__패스_4321" d="M824.079-48.718c-.577 0-1.045.113-1.045.252s.468.252 1.045.252 1.046-.113 1.046-.252-.468-.252-1.046-.252z" data-name="패스 4321" style="fill:#263d4a"/>
                            <path id="prefix__패스_4322" d="M823.107-47.481v8.134l2.434 1.6v-8.615z" class="prefix__cls-10" data-name="패스 4322"/>
                        </g>
                    </g>
                </g>
            </g>
            <path id="prefix__패스_4323" d="M833.459-28.5a8.345 8.345 0 0 1-.97 3.11 9.325 9.325 0 0 0 2.836-1.418 9.715 9.715 0 0 0 5.5 1.692 9.76 9.76 0 0 0 9.755-9.779 9.755 9.755 0 0 0-9.755-9.755 9.771 9.771 0 0 0-9.755 9.75 9.7 9.7 0 0 0 2.389 6.37z" data-name="패스 4323" style="fill:#f37657"/>
            <g id="prefix__그룹_3603" data-name="그룹 3603">
                <rect id="prefix__사각형_3187" width="11.664" height="1.944" class="prefix__cls-14" data-name="사각형 3187" rx=".972" transform="rotate(-45 380.099 -1024.743)"/>
                <rect id="prefix__사각형_3188" width="11.664" height="1.944" class="prefix__cls-14" data-name="사각형 3188" rx=".972" transform="rotate(-135 415.877 -189.833)"/>
            </g>
        </g>
    </g>
</svg>
