<svg xmlns="http://www.w3.org/2000/svg" width="50" height="50" viewBox="0 0 50 50">
    <defs>
        <style>
            .cls-1,.cls-9{fill:none}.cls-2{clip-path:url(#clip-path)}.cls-3{fill:#faddc7}.cls-4{fill:#f7c8b8}.cls-5{fill:#f4bcae}.cls-6{fill:#f0aa96}.cls-7{fill:#ee8c77}.cls-8{fill:#f27b69}.cls-9{stroke:#4f1b11;stroke-linecap:round;stroke-linejoin:round;stroke-width:.75px}.cls-10{clip-path:url(#clip-path-2)}.cls-11{fill:#442512;opacity:.1}.cls-12{fill:#f6ceb3}
        </style>
        <clipPath id="clip-path">
            <path id="사각형_2728" d="M0 0h39.84v39.84H0z" class="cls-1" data-name="사각형 2728" transform="translate(619.823 203.24)"/>
        </clipPath>
        <clipPath id="clip-path-2">
            <path id="패스_2384" d="M656.549 251.408h-8.367s-.8-5.914-1.114-9.167-.723-4.5-1.837-4.338-.391 3.581-.391 3.581v9.924h-7.878l-1.193-14.671c-1.192-10.578-9.7-27.95-9.7-27.95a18.033 18.033 0 0 1 3.988-2.68h.02a7.187 7.187 0 0 0 2.971.634 7.464 7.464 0 0 0 6.216-3.376 18.913 18.913 0 0 1 6.06.021c.86 1.821 7.233 19.192 8.739 23.1 1.524 3.929 1.915 9.76 2.15 13.177.258 3.417.336 11.745.336 11.745z" class="cls-1" data-name="패스 2384"/>
        </clipPath>
    </defs>
    <g id="그룹_2498" data-name="그룹 2498" transform="translate(-614.742 -198.16)">
        <g id="그룹_2492" data-name="그룹 2492">
            <path id="사각형_2727" d="M0 0h50v50H0z" class="cls-1" data-name="사각형 2727" transform="translate(614.743 198.16)"/>
        </g>
        <g id="그룹_2497" data-name="그룹 2497">
            <g id="그룹_2496" class="cls-2" data-name="그룹 2496">
                <g id="그룹_2495" data-name="그룹 2495">
                    <path id="패스_2378" d="M656.557 251.409h-8.369s-.8-5.913-1.125-9.166c-.307-3.253-.716-4.5-1.842-4.338-1.1.164-.388 3.581-.388 3.581v9.923h-7.878l-1.187-14.67c-.573-5.1-2.844-11.806-5.074-17.351a.122.122 0 0 0-.021-.082c-.429-1.1-.879-2.169-1.288-3.151-1.822-4.317-3.315-7.366-3.315-7.366a18.041 18.041 0 0 1 3.99-2.68h.02a7.214 7.214 0 0 0 2.967.634 7.477 7.477 0 0 0 6.22-3.376 18.9 18.9 0 0 1 6.057.021c.859 1.821 7.243 19.192 8.736 23.1 1.535 3.929 1.924 9.76 2.149 13.177.266 3.417.348 11.744.348 11.744z" class="cls-3" data-name="패스 2378"/>
                    <circle id="타원_621" cx="7.17" cy="7.17" r="7.17" class="cls-4" data-name="타원 621" transform="translate(635.607 221.311)"/>
                    <circle id="타원_622" cx="5.736" cy="5.736" r="5.736" class="cls-5" data-name="타원 622" transform="translate(637.041 222.745)"/>
                    <circle id="타원_623" cx="4.302" cy="4.302" r="4.302" class="cls-6" data-name="타원 623" transform="translate(638.475 224.179)"/>
                    <circle id="타원_624" cx="2.581" cy="2.581" r="2.581" class="cls-7" data-name="타원 624" transform="translate(640.196 225.899)"/>
                    <circle id="타원_625" cx="1.291" cy="1.291" r="1.291" class="cls-8" data-name="타원 625" transform="translate(641.486 227.19)"/>
                    <path id="패스_2379" d="M636.667 218.983l1.143 3.649 1.758-1.811.827 3.6" class="cls-9" data-name="패스 2379"/>
                    <path id="패스_2380" d="M644.7 218.47l-1.817 3.364h2.524l-2 3.1" class="cls-9" data-name="패스 2380"/>
                    <path id="패스_2381" d="M656.549 251.408h-8.367s-.8-5.914-1.114-9.167-.723-4.5-1.837-4.338-.391 3.581-.391 3.581v9.924h-7.878l-1.193-14.671c-1.192-10.578-9.7-27.95-9.7-27.95a18.033 18.033 0 0 1 3.988-2.68h.02a7.187 7.187 0 0 0 2.971.634 7.464 7.464 0 0 0 6.216-3.376 18.913 18.913 0 0 1 6.06.021c.86 1.821 7.233 19.192 8.739 23.1 1.524 3.929 1.915 9.76 2.15 13.177.258 3.417.336 11.745.336 11.745z" class="cls-1" data-name="패스 2381"/>
                    <g id="그룹_2494" data-name="그룹 2494">
                        <g id="그룹_2493" class="cls-10" data-name="그룹 2493">
                            <path id="패스_2382" d="M622.067 225.151c1.669 7.919 8.661 12.553 14.183 10.744l3.607-1.074a1.253 1.253 0 0 0 .824-1.506l-1.17-4.765a1.188 1.188 0 0 0-1.475-.89l-3.335.959c-1.793.6-4.778-2.066-5.919-5.874z" class="cls-11" data-name="패스 2382"/>
                            <path id="패스_2383" d="M650.236 216.135c1.359 3.793.96 7.434-.911 8.094l-3.64 1.272a1.257 1.257 0 0 0-.7 1.655l1.917 4.583a1.257 1.257 0 0 0 1.61.688l3.939-1.352c5.746-2.053 8.166-9.968 5.388-17.671l-7.6 2.731" class="cls-11" data-name="패스 2383"/>
                        </g>
                    </g>
                    <path id="패스_2385" d="M630.205 215.643c-1.8.553-2.378 3.4-1.233 7.082 1.146 3.663 3.54 6.2 5.341 5.627l3.184-.888a1.2 1.2 0 0 1 1.481.856l1.175 4.583a1.2 1.2 0 0 1-.828 1.447l-3.457 1c-5.545 1.74-12.565-2.716-14.241-10.332-2.574-11.693 4.255-16.283 6.13-17.45z" class="cls-3" data-name="패스 2385"/>
                    <path id="패스_2386" d="M649.835 214.655a20.55 20.55 0 0 1 .282 6.152c-.345 2.306-.678 2.7-1.282 3.372-.667.74 3.539-1.816 3.5-1.979s-1.328-4.5-1.328-4.5z" class="cls-12" data-name="패스 2386"/>
                    <path id="패스_2387" d="M644.519 210.8c1.77-.645 4.267 1.776 5.573 5.4 1.294 3.613.914 7.081-.868 7.709l-3.075 1.212a1.2 1.2 0 0 0-.666 1.576l1.825 4.364a1.2 1.2 0 0 0 1.534.656l3.361-1.287c5.472-1.956 7.777-9.494 5.131-16.83-2.629-7.348-9.2-11.7-14.669-9.739z" class="cls-3" data-name="패스 2387"/>
                    <path id="패스_2388" d="M630.673 219.306c-.429-1.1-.879-2.169-1.288-3.151 0 0 0-.163.613-.532a6.432 6.432 0 0 1 .819-.47s-.184.1-.491 1.33a5.5 5.5 0 0 0 .347 2.823z" class="cls-12" data-name="패스 2388"/>
                </g>
            </g>
        </g>
    </g>
</svg>
