<svg xmlns="http://www.w3.org/2000/svg" width="50" height="50" viewBox="0 0 50 50">
    <defs>
        <style>
            .cls-1{fill:#f3ab2e}.cls-2{fill:#faddc7}.cls-3{fill:#f0ceb7}.cls-4{fill:#f6ceb3}.cls-5{fill:#111}.cls-6{fill:#e03b18}.cls-7,.cls-8,.cls-9{fill:none}.cls-7,.cls-8{stroke-linecap:round}.cls-7{stroke-miterlimit:10;stroke-width:.5px;opacity:.6;stroke:#fff}.cls-8{stroke:#343535;stroke-linejoin:round}
        </style>
    </defs>
    <g id="그룹_2502" data-name="그룹 2502" transform="translate(-678.021 -198.16)">
        <g id="그룹_2501" data-name="그룹 2501">
            <path id="패스_2389" d="M700.445 244.64a2.187 2.187 0 0 1 .022.267h-.067a.717.717 0 0 1 .045-.267z" class="cls-1" data-name="패스 2389"/>
            <path id="패스_2390" d="M708.077 244.818a.038.038 0 0 1-.012.022.658.658 0 0 0-.011-.212 1.729 1.729 0 0 1 .023.19z" class="cls-1" data-name="패스 2390"/>
            <path id="패스_2391" d="M700.467 244.907h-.067a.717.717 0 0 1 .045-.267 2.187 2.187 0 0 1 .022.267z" class="cls-1" data-name="패스 2391"/>
            <path id="패스_2392" d="M700.467 244.907h-.067a.717.717 0 0 1 .045-.267 2.187 2.187 0 0 1 .022.267z" class="cls-1" data-name="패스 2392"/>
            <g id="그룹_2500" data-name="그룹 2500">
                <path id="패스_2393" d="M716.275 221.562a4.669 4.669 0 0 1 .571-.035 4.611 4.611 0 0 1 .375 9.206c-.123.01-.249.016-.375.016z" class="cls-2" data-name="패스 2393"/>
                <path id="패스_2394" d="M690.138 229.7a4.559 4.559 0 0 1-.941.1 4.611 4.611 0 0 1-.43-9.2 4.145 4.145 0 0 1 .433-.021 4.67 4.67 0 0 1 .571.035z" class="cls-2" data-name="패스 2394"/>
                <path id="패스_2395" d="M719.257 227.306a.6.6 0 0 1-.546-.358c-.486-1.117-1.9-.73-1.96-.713a.6.6 0 1 1-.325-1.145 2.772 2.772 0 0 1 3.376 1.383.6.6 0 0 1-.308.783.587.587 0 0 1-.237.05z" class="cls-3" data-name="패스 2395"/>
                <path id="패스_2396" d="M687.161 226.611a.606.606 0 0 1-.237-.049.6.6 0 0 1-.308-.783 2.774 2.774 0 0 1 3.377-1.384.6.6 0 0 1-.323 1.146c-.153-.042-1.491-.372-1.963.712a.6.6 0 0 1-.546.358z" class="cls-3" data-name="패스 2396"/>
                <path id="패스_2397" d="M717.28 218.523v9.59a13.988 13.988 0 0 1-1.468 6.264q-.3.594-.645 1.154a14.09 14.09 0 0 1-9.284 6.4 14.845 14.845 0 0 1-2.681.251 14.065 14.065 0 0 1-14.068-14.068v-9.59a14.065 14.065 0 0 1 14.066-14.069 14.847 14.847 0 0 1 2.681.251 14.088 14.088 0 0 1 11.4 13.817z" class="cls-2" data-name="패스 2397"/>
                <path id="패스_2398" d="M704.357 241.95a12.8 12.8 0 0 1-15.223-12.562v-8.716a12.8 12.8 0 0 1 15.223-12.562 12.8 12.8 0 0 0-10.363 12.562v8.716a12.8 12.8 0 0 0 10.363 12.562z" class="cls-4" data-name="패스 2398"/>
                <path id="패스_2399" d="M717.28 218.523v2.077c-15.815-.02-21.609-6.156-22.151-6.778a.173.173 0 0 1-.05-.05c0 2.821-2.832 5.814-5.945 6.828v-2.019a16.036 16.036 0 0 1 .161-2.2c.08-.451.171-.9.281-1.355.06-.221.131-.442.191-.673a14.764 14.764 0 0 1 1.767-3.7s.02-.01.02-.02c.251-.362.512-.723.794-1.065.16-.18.311-.361.472-.542s.311-.331.471-.492a14.007 14.007 0 0 1 1.547-1.335c.341-.251.7-.492 1.064-.713a13.994 13.994 0 0 1 7.3-2.039 14.66 14.66 0 0 1 2.581.231c.03.01.07.01.1.02a14.088 14.088 0 0 1 11.4 13.817z" class="cls-5" data-name="패스 2399"/>
                <path id="패스_2400" d="M707.268 230.938a4.208 4.208 0 0 1 .122 1.626 2.651 2.651 0 0 1-1.141 1.442 7.5 7.5 0 0 1-3.762.882 5.144 5.144 0 0 1-3.046-.852c-.4-.28-1.152-1.022-1.2-1.511a3 3 0 0 1 .137-1.587.688.688 0 0 1 .972 0 4.918 4.918 0 0 0 6.947 0 .687.687 0 0 1 .971 0z" class="cls-6" data-name="패스 2400"/>
                <g id="그룹_2499" data-name="그룹 2499">
                    <path id="패스_2401" d="M708.857 241.831a1.523 1.523 0 0 1-1.457 1.569 1.41 1.41 0 0 1-1.249-.773.908.908 0 0 1-.618.245.923.923 0 0 1-.8-.464 1.477 1.477 0 0 1-1.352.992 1.514 1.514 0 0 1-1.455-1.571 1.008 1.008 0 0 1-.966 1.043.959.959 0 0 1-.914-.734 1.451 1.451 0 0 1-2.885-.309v-.09c.026-.515.168-1.936.528-4.3a28.41 28.41 0 0 1 1.365-5.344.086.086 0 0 1 .155-.013c.978 1.314 3.6 1.172 3.6 1.172a8.2 8.2 0 0 0 3.386-1.262c.052-.026.116-.013.129.039a32.359 32.359 0 0 1 1.661 4.957c.335 1.416.721 3.52.837 4.524a.776.776 0 0 1 .013.245.159.159 0 0 1 .022.074z" class="cls-1" data-name="패스 2401"/>
                    <path id="패스_2402" d="M699.617 234.284s-.328 2.093-.486 3.561" class="cls-7" data-name="패스 2402"/>
                    <path id="패스_2403" d="M702.634 234.5s-.088 2.591-.088 4.006" class="cls-7" data-name="패스 2403"/>
                    <path id="패스_2404" d="M705.843 234.017s.682 1.888.892 2.832" class="cls-7" data-name="패스 2404"/>
                    <path id="선_434" d="M.429 0L0 .736" class="cls-7" data-name="선 434" transform="translate(702.809 239.56)"/>
                    <path id="선_435" d="M.429 0L0 .736" class="cls-7" data-name="선 435" transform="translate(700.695 235.312)"/>
                    <path id="선_436" d="M0 0v1.433" class="cls-7" data-name="선 436" transform="translate(707.259 238.495)"/>
                    <path id="선_437" d="M.15 0L0 1.126" class="cls-7" data-name="선 437" transform="translate(704.868 237.474)"/>
                    <path id="선_438" d="M.115 0L0 2.382" class="cls-7" data-name="선 438" transform="translate(700.794 237.845)"/>
                    <path id="패스_2405" d="M704.269 234.4a10.486 10.486 0 0 1 .48 1.828" class="cls-7" data-name="패스 2405"/>
                    <path id="선_439" d="M0 0l.093.555" class="cls-7" data-name="선 439" transform="translate(698.816 239.373)"/>
                    <path id="선_440" d="M0 0l.093.555" class="cls-7" data-name="선 440" transform="translate(705.018 240.296)"/>
                </g>
                <path id="패스_2406" d="M694.372 225.318l5.295-.807-1.6-.923" class="cls-8" data-name="패스 2406"/>
                <path id="패스_2407" d="M711.651 225.318l-5.295-.807 1.6-.923" class="cls-8" data-name="패스 2407"/>
            </g>
        </g>
        <path id="사각형_2729" d="M0 0h50v50H0z" class="cls-9" data-name="사각형 2729" transform="translate(678.022 198.16)"/>
    </g>
</svg>
