<svg xmlns="http://www.w3.org/2000/svg" width="50" height="50" viewBox="0 0 50 50">
    <defs>
        <style>
            .cls-1,.cls-4,.cls-9{fill:none}.cls-2{clip-path:url(#clip-path)}.cls-3{fill:#e4216d}.cls-4{stroke:#fff}.cls-4,.cls-9{stroke-linecap:round}.cls-5{fill:#c92368}.cls-6{clip-path:url(#clip-path-2)}.cls-7{fill:#ec83af}.cls-8{fill:#d86ea1}.cls-9{stroke:#f5cade}
        </style>
        <clipPath id="clip-path">
            <path id="패스_1708" d="M242.14 114.507c-2.45 1.29-3.06 4.36-3.1 6.5a13.838 13.838 0 0 0 1.39 5.74l-.05-.09-.09.09a.968.968 0 0 1-.69.28 1.034 1.034 0 0 1-.48-.12 13.034 13.034 0 0 1 .96-23.35 1.14 1.14 0 0 1 .4-.08.984.984 0 0 1 .6.2 26.044 26.044 0 0 0 .47-4.92v-.29a1 1 0 0 1 1-1h1.42a1 1 0 0 1 1 1v3.16a18.058 18.058 0 0 0 .08 5.37c.51 2.12-.46 6.22-2.91 7.51z" class="cls-1" data-name="패스 1708" transform="translate(-232.34 -97.467)"/>
        </clipPath>
        <clipPath id="clip-path-2">
            <path id="패스_1723" d="M275.43 123.007a16.055 16.055 0 0 1-3.97 10.57l-3.15 3.59a9.89 9.89 0 0 1-11.42 2.56l-.67-.29a36.048 36.048 0 0 1-13.23-9.98 1 1 0 0 1-.1-1.12.251.251 0 0 1 .04-.07c-.24-.05-.48-.1-.72-.16-.03-.01-.05-.01-.08-.02l-.13-.03c-.22-.07-.46-.13-.71-.21a1.019 1.019 0 0 1-.56-.5l-.08-.16-.13-.25c-.03-.06-.06-.12-.09-.19a13.838 13.838 0 0 1-1.39-5.74c.04-2.14.65-5.21 3.1-6.5s3.42-5.39 2.91-7.51a18.058 18.058 0 0 1-.08-5.37v.38l.08-.08a6.127 6.127 0 0 1 1.94-1.61 7.8 7.8 0 0 1 3.75-1.11 4.593 4.593 0 0 1 2.14.5.948.948 0 0 1 .42.42c.25-.29.51-.58.78-.85l1.23-1.22a.978.978 0 0 1 1.41 0l1.83 1.83a1 1 0 0 1 0 1.41l-.84.85a9.47 9.47 0 0 0-2.09 3.11h1.81a4.571 4.571 0 0 1 3.63 1.81c0 .01 0 .01.01.01a4.989 4.989 0 0 1 .65 1.23.971.971 0 0 1 .61-.22h.65a9.649 9.649 0 0 1 5.54 1.74 16.016 16.016 0 0 1 6.91 13.18z" class="cls-1" data-name="패스 1723" transform="translate(-239.038 -97.757)"/>
        </clipPath>
    </defs>
    <g id="그룹_1744" data-name="그룹 1744" transform="translate(-228.887 -94.448)">
        <path id="사각형_1945" d="M0 0h50v50H0z" class="cls-1" data-name="사각형 1945" transform="translate(228.887 94.448)"/>
        <g id="그룹_1743" data-name="그룹 1743" transform="translate(232.34 97.467)">
            <g id="그룹_1740" data-name="그룹 1740">
                <g id="그룹_1739" class="cls-2" data-name="그룹 1739">
                    <path id="패스_1706" d="M242.14 114.507c-2.45 1.29-3.06 4.36-3.1 6.5a13.838 13.838 0 0 0 1.39 5.74l-.05-.09-.09.09a.968.968 0 0 1-.69.28 1.034 1.034 0 0 1-.48-.12 13.034 13.034 0 0 1 .96-23.35 1.14 1.14 0 0 1 .4-.08.984.984 0 0 1 .6.2 26.044 26.044 0 0 0 .47-4.92v-.29a1 1 0 0 1 1-1h1.42a1 1 0 0 1 1 1v3.16a18.058 18.058 0 0 0 .08 5.37c.51 2.12-.46 6.22-2.91 7.51z" class="cls-3" data-name="패스 1706" transform="translate(-232.34 -97.467)"/>
                    <path id="패스_1707" d="M240.624 103.356s-.444 4.674-1.583 6.411" class="cls-4" data-name="패스 1707" transform="translate(-232.34 -97.467)"/>
                </g>
            </g>
            <path id="패스_1709" d="M275.43 123.007a16.055 16.055 0 0 1-3.97 10.57l-3.15 3.59a9.89 9.89 0 0 1-11.42 2.56l-.67-.29a36.048 36.048 0 0 1-13.23-9.98 1 1 0 0 1-.1-1.12.251.251 0 0 1 .04-.07c-.24-.05-.48-.1-.72-.16-.03-.01-.05-.01-.08-.02l-.13-.03c-.22-.07-.46-.13-.71-.21a1.019 1.019 0 0 1-.56-.5l-.08-.16-.13-.25c-.03-.06-.06-.12-.09-.19a13.838 13.838 0 0 1-1.39-5.74c.04-2.14.65-5.21 3.1-6.5s3.42-5.39 2.91-7.51a18.058 18.058 0 0 1-.08-5.37v.38l.08-.08a6.127 6.127 0 0 1 1.94-1.61 7.8 7.8 0 0 1 3.75-1.11 4.593 4.593 0 0 1 2.14.5.948.948 0 0 1 .42.42c.25-.29.51-.58.78-.85l1.23-1.22a.978.978 0 0 1 1.41 0l1.83 1.83a1 1 0 0 1 0 1.41l-.84.85a9.47 9.47 0 0 0-2.09 3.11h1.81a4.571 4.571 0 0 1 3.63 1.81c0 .01 0 .01.01.01a4.989 4.989 0 0 1 .65 1.23.971.971 0 0 1 .61-.22h.65a9.649 9.649 0 0 1 5.54 1.74 16.016 16.016 0 0 1 6.91 13.18z" class="cls-1" data-name="패스 1709" transform="translate(-232.34 -97.467)"/>
            <path id="패스_1710" d="M245.045 107s-1.2 4.055-2.9 4.9c-1.112.55-4.157 2.608-4.727 5.527a7.417 7.417 0 0 0 0 3.437 11.022 11.022 0 0 0 2.448 4.5 11.756 11.756 0 0 1-.819-4.356c.175-1.835.3-3.344 1.02-4.379a7.579 7.579 0 0 1 2.078-2.124c1.22-.989 2.164-1.691 2.565-3.451a11.2 11.2 0 0 0 .335-4.054z" class="cls-5" data-name="패스 1710" transform="translate(-232.34 -97.467)"/>
            <g id="그룹_1742" data-name="그룹 1742" transform="translate(6.698 .29)">
                <g id="그룹_1741" class="cls-6" data-name="그룹 1741">
                    <path id="패스_1711" d="M275.43 123.007a16.055 16.055 0 0 1-3.97 10.57l-3.15 3.59a9.89 9.89 0 0 1-11.42 2.56l-.67-.29a36.048 36.048 0 0 1-13.23-9.98 1 1 0 0 1-.1-1.12.251.251 0 0 1 .04-.07c-.24-.05-.48-.1-.72-.16-.03-.01-.05-.01-.08-.02l-.13-.03c-.22-.07-.46-.13-.71-.21a1.019 1.019 0 0 1-.56-.5l-.08-.16-.13-.25c-.03-.06-.06-.12-.09-.19a13.838 13.838 0 0 1-1.39-5.74c.04-2.14.65-5.21 3.1-6.5s3.42-5.39 2.91-7.51a18.058 18.058 0 0 1-.08-5.37v.38l.08-.08a6.127 6.127 0 0 1 1.94-1.61 7.8 7.8 0 0 1 3.75-1.11 4.593 4.593 0 0 1 2.14.5.948.948 0 0 1 .42.42c.25-.29.51-.58.78-.85l1.23-1.22a.978.978 0 0 1 1.41 0l1.83 1.83a1 1 0 0 1 0 1.41l-.84.85a9.47 9.47 0 0 0-2.09 3.11h1.81a4.571 4.571 0 0 1 3.63 1.81c0 .01 0 .01.01.01a4.989 4.989 0 0 1 .65 1.23.971.971 0 0 1 .61-.22h.65a9.649 9.649 0 0 1 5.54 1.74 16.016 16.016 0 0 1 6.91 13.18z" class="cls-7" data-name="패스 1711" transform="translate(-239.038 -97.757)"/>
                    <path id="패스_1712" d="M258.25 104.743c.309.081 1.492 1.36 2 4.406a26.76 26.76 0 0 1-.25 7.031s2.788-7.907 1.444-9.094a28.788 28.788 0 0 0-3.194-2.343z" class="cls-8" data-name="패스 1712" transform="translate(-239.038 -97.757)"/>
                    <path id="패스_1713" d="M267.769 109.3s3.959 5.184 4.366 10.323c.337 4.253-.482 8.336-2.769 11.321-2.189 2.855-4.724 5.918-9.23 6.461-6.7.807-10.313-1.863-13.169-3.976l.883 1.465 5.165 2.876 2.342 1.726a14.275 14.275 0 0 0 4.072 1.06c1.535 0 4.376.067 6.175-1.16a18.5 18.5 0 0 0 5.963-5.824c2.3-3.433 3.368-3.606 3.66-7.438s.25-6.319-.52-8.21-.309-2.443-2.577-4.8a33.671 33.671 0 0 0-4.361-3.824z" class="cls-8" data-name="패스 1713" transform="translate(-239.038 -97.757)"/>
                    <path id="패스_1714" d="M242.141 120.356s.648-2.607 6.379-3.91 7.458-11.334 7.458-11.334-.929.409-3.754 5.416c-.418.74-1.344 1.857-5.254 3.692a11.188 11.188 0 0 0-4.829 6.136z" class="cls-8" data-name="패스 1714" transform="translate(-239.038 -97.757)"/>
                    <path id="패스_1715" d="M256.494 104.743s-2.243 10.4-7.974 11.7-6.379 3.91-6.379 3.91" class="cls-9" data-name="패스 1715" transform="translate(-239.038 -97.757)"/>
                    <path id="패스_1716" d="M260 116.772c1.571-1.792 1.757-9.016 1.757-9.016" class="cls-9" data-name="패스 1716" transform="translate(-239.038 -97.757)"/>
                    <path id="패스_1717" d="M252.043 114.5s.815 4.236-1.629 6.356c-2.017 1.749-1.792 6.513-1.792 6.513" class="cls-9" data-name="패스 1717" transform="translate(-239.038 -97.757)"/>
                    <path id="패스_1718" d="M253.673 125.363a8.627 8.627 0 0 0-3.259-4.5" class="cls-9" data-name="패스 1718" transform="translate(-239.038 -97.757)"/>
                    <path id="패스_1719" d="M261.443 111.9a15.677 15.677 0 0 1 1.708 10.315c-1.14 5.638-1.113 6.778-.719 8.733" class="cls-9" data-name="패스 1719" transform="translate(-239.038 -97.757)"/>
                    <path id="패스_1720" d="M263.388 120.356a3.33 3.33 0 0 0-3.011 1.938 38 38 0 0 0-1.4 3.84" class="cls-9" data-name="패스 1720" transform="translate(-239.038 -97.757)"/>
                    <path id="패스_1721" d="M263.151 122.211a7.9 7.9 0 0 0 2.769 3.923" class="cls-9" data-name="패스 1721" transform="translate(-239.038 -97.757)"/>
                    <path id="패스_1722" d="M253.4 98.895s-2.262 3.373-2.255 6.363" class="cls-9" data-name="패스 1722" transform="translate(-239.038 -97.757)"/>
                </g>
            </g>
        </g>
    </g>
</svg>
