<svg xmlns="http://www.w3.org/2000/svg" width="50" height="50" viewBox="0 0 50 50">
    <defs>
        <style>
            .cls-1{fill:#f6c3a2}.cls-2{fill:#faddc7}.cls-3{fill:#49c0de}.cls-4{fill:#78cde2}.cls-5{fill:none}
        </style>
    </defs>
    <g id="그룹_3363" data-name="그룹 3363" transform="translate(-896.749 -181.414)">
        <g id="그룹_3362" data-name="그룹 3362">
            <path id="패스_3872" d="M928.389 196.1l-.939 7.356-8.15 11.246c.166-3.784.393-8.454.393-8.454z" class="cls-1" data-name="패스 3872"/>
            <path id="패스_3873" d="M932.8 227.133c-.727.1-6.289.083-10.944.053-3.519-.023-6.516-.053-6.516-.053l.288-2.793a12.227 12.227 0 0 0 .908-.855c1.022-1.067 2.573-3 2.626-5.025.023-.87.076-2.24.137-3.753l8.15-11.246-2.263 17.792 5.971 3.042h1.6s.946.288 1.067.908.256 1.764-1.024 1.93z" class="cls-2" data-name="패스 3873"/>
            <path id="패스_3874" d="M922.342 225.771a2.284 2.284 0 0 1-.485 1.415c-3.519-.023-6.516-.053-6.516-.053l.288-2.793a12.227 12.227 0 0 0 .908-.855.182.182 0 0 1 .061-.007h3.443a2.308 2.308 0 0 1 2.301 2.293z" class="cls-1" data-name="패스 3874"/>
            <path id="패스_3875" d="M929.6 185.619h-11.26l3.041 7.15a60.8 60.8 0 0 0-5.671 8.794c-1.561 3.452-3.205 10.941-4.52 12.21s-1.47.916-2.548 1.351a2.459 2.459 0 0 0-1.068 3.616c.493.9 3.288 6.22 3.288 6.22a3.342 3.342 0 0 0 3.04 2.245h5.925a1.392 1.392 0 0 0 1.388-1.771c-.2-1.247-1.231-1.106-2.053-1.106h-1.4l-1.561-6.657 14.3-21.286a6.293 6.293 0 0 0 1.479-3.205c.006-1.48-2.38-7.561-2.38-7.561z" class="cls-2" data-name="패스 3875"/>
            <g id="그룹_3355" data-name="그룹 3355">
                <g id="그룹_3353" data-name="그룹 3353">
                    <path id="패스_3876" d="M925.713 202.549a11.829 11.829 0 0 1-3.041-.416c-3.96-1.06-6.468-3.651-5.832-6.026a1.135 1.135 0 0 1 2.193.587c-.21.786 1.368 2.481 4.226 3.246a8.372 8.372 0 0 0 3.835.2c.793-.179 1.347-.522 1.448-.9a1.135 1.135 0 0 1 2.194.586 3.81 3.81 0 0 1-3.143 2.526 8.6 8.6 0 0 1-1.88.197z" class="cls-3" data-name="패스 3876"/>
                </g>
                <g id="그룹_3354" data-name="그룹 3354">
                    <path id="패스_3877" d="M926.156 201.907a11.425 11.425 0 0 1-3.66-.651 10.548 10.548 0 0 1-4.209-2.558 3.805 3.805 0 0 1-1.2-3.848 1.135 1.135 0 1 1 2.148.735c-.125.367.144.962.7 1.551a8.392 8.392 0 0 0 3.295 1.972c2.8.957 5.055.428 5.319-.342a1.134 1.134 0 1 1 2.147.734c-.53 1.554-2.28 2.407-4.54 2.407z" class="cls-4" data-name="패스 3877"/>
                </g>
            </g>
            <g id="그룹_3358" data-name="그룹 3358">
                <g id="그룹_3356" data-name="그룹 3356">
                    <path id="패스_3878" d="M922.123 208.933a11.189 11.189 0 0 1-4.059-.836c-3.809-1.517-6-4.384-5.086-6.668a1.135 1.135 0 0 1 2.109.84c-.308.774 1.026 2.607 3.817 3.719a8.4 8.4 0 0 0 3.786.646c.808-.084 1.4-.361 1.543-.722a1.135 1.135 0 1 1 2.109.84 3.807 3.807 0 0 1-3.416 2.14 7.789 7.789 0 0 1-.803.041z" class="cls-3" data-name="패스 3878"/>
                </g>
                <g id="그룹_3357" data-name="그룹 3357">
                    <path id="패스_3879" d="M922.511 208.339a10.688 10.688 0 0 1-4.518-1.133 10.555 10.555 0 0 1-3.881-3.034 3.806 3.806 0 0 1-.744-3.962 1.135 1.135 0 0 1 2.048.981c-.168.35.029.972.515 1.623a8.4 8.4 0 0 0 3.042 2.344c2.711 1.3 4.96 1.034 5.322.284a1.135 1.135 0 1 1 2.047.98c-.605 1.264-2.032 1.917-3.831 1.917z" class="cls-4" data-name="패스 3879"/>
                </g>
            </g>
            <g id="그룹_3361" data-name="그룹 3361">
                <g id="그룹_3359" data-name="그룹 3359">
                    <path id="패스_3880" d="M919.146 215.561a11.186 11.186 0 0 1-4.058-.835c-3.809-1.518-5.995-4.384-5.086-6.668a1.135 1.135 0 1 1 2.109.84c-.308.773 1.026 2.607 3.817 3.718a8.385 8.385 0 0 0 3.786.646c.808-.084 1.4-.36 1.542-.721a1.136 1.136 0 0 1 2.11.84 3.807 3.807 0 0 1-3.416 2.14 7.8 7.8 0 0 1-.804.04z" class="cls-3" data-name="패스 3880"/>
                </g>
                <g id="그룹_3360" data-name="그룹 3360">
                    <path id="패스_3881" d="M919.534 214.968a10.691 10.691 0 0 1-4.517-1.133 10.555 10.555 0 0 1-3.881-3.034 3.806 3.806 0 0 1-.744-3.962 1.135 1.135 0 1 1 2.047.98c-.167.351.03.972.516 1.624a8.4 8.4 0 0 0 3.045 2.344c2.668 1.278 4.969 1.017 5.321.284a1.135 1.135 0 1 1 2.048.98c-.609 1.264-2.035 1.917-3.835 1.917z" class="cls-4" data-name="패스 3881"/>
                </g>
            </g>
            <path id="패스_3882" d="M915.313 192.118a1.812 1.812 0 0 0-1.438 1.43.033.033 0 0 1-.066 0 1.8 1.8 0 0 0-1.43-1.43.033.033 0 0 1 0-.065 1.813 1.813 0 0 0 1.43-1.439.033.033 0 0 1 .066 0 1.823 1.823 0 0 0 1.438 1.439.033.033 0 0 1 0 .065z" class="cls-4" data-name="패스 3882"/>
            <path id="패스_3883" d="M910.835 198.933a1.284 1.284 0 0 0-1.018 1.013.023.023 0 0 1-.046 0 1.277 1.277 0 0 0-1.012-1.013.023.023 0 0 1 0-.046 1.283 1.283 0 0 0 1.013-1.018.023.023 0 0 1 .046 0 1.29 1.29 0 0 0 1.018 1.018.023.023 0 0 1-.001.046z" class="cls-4" data-name="패스 3883"/>
            <path id="패스_3884" d="M909.777 193.6a1.285 1.285 0 0 0-1.018 1.013.023.023 0 0 1-.046 0 1.281 1.281 0 0 0-1.013-1.013.023.023 0 0 1 0-.046 1.285 1.285 0 0 0 1.013-1.018.023.023 0 0 1 .046 0 1.29 1.29 0 0 0 1.018 1.018.023.023 0 0 1 0 .046z" class="cls-4" data-name="패스 3884"/>
            <path id="패스_3885" d="M930.738 210.607a1.283 1.283 0 0 0-1.018 1.012.023.023 0 0 1-.046 0 1.278 1.278 0 0 0-1.013-1.012.023.023 0 0 1 0-.046 1.284 1.284 0 0 0 1.012-1.019.024.024 0 0 1 .047 0 1.291 1.291 0 0 0 1.018 1.019.023.023 0 0 1 0 .046z" class="cls-4" data-name="패스 3885"/>
            <path id="패스_3886" d="M936.274 205.442a1.813 1.813 0 0 0-1.438 1.431.033.033 0 0 1-.066 0 1.8 1.8 0 0 0-1.43-1.431.033.033 0 0 1 0-.065 1.814 1.814 0 0 0 1.43-1.438.033.033 0 0 1 .066 0 1.823 1.823 0 0 0 1.438 1.439.033.033 0 0 1 0 .064z" class="cls-4" data-name="패스 3886"/>
        </g>
        <path id="사각형_3067" d="M0 0h50v50H0z" class="cls-5" data-name="사각형 3067" transform="translate(896.749 181.414)"/>
    </g>
</svg>
