<svg xmlns="http://www.w3.org/2000/svg" width="50" height="50" viewBox="0 0 50 50">
    <defs>
        <style>
            .cls-1{fill:#faddc7}.cls-2{fill:#ecebeb;stroke-miterlimit:10}.cls-3{fill:#50566d}.cls-4{fill:#cee8f4}.cls-5{fill:#97b7c5}.cls-6{fill:#e84261}.cls-7{fill:#c70e2f}.cls-8{fill:#f1a25f}.cls-9{fill:#db8030}.cls-10{fill:none}.cls-11,.cls-12{stroke:none}.cls-12{fill:#fff}
        </style>
    </defs>
    <g id="그룹_2556" data-name="그룹 2556" transform="translate(-1423.467 -202.395)">
        <g id="그룹_2555" data-name="그룹 2555">
            <path id="패스_2569" d="M1465.93 225.851c0-11.81-7.551-18.152-16.515-18.152-7.291 0-11.745 5.229-14.131 11.826a1.489 1.489 0 0 1-.154.309l-3.536 5.352a3.6 3.6 0 0 0 1.016 4.966l.6.4a1.59 1.59 0 0 1 .7 1.174c.374 3.677 1.627 6.457 3.974 7.983a9.135 9.135 0 0 0 2.366 1.045 1.566 1.566 0 0 1 1.124 1.5v1.626c0 1.971.673 3.216 2.644 3.216h12.082a2.262 2.262 0 0 0 2.262-2.262v-.454a4.691 4.691 0 0 1 1.413-3.279 22.021 22.021 0 0 0 6.155-15.25z" class="cls-1" data-name="패스 2569"/>
            <g id="패스_2570" class="cls-2" data-name="패스 2570">
                <path d="M1450.345 229.123c-4.406 0-7.99-3.589-7.99-8 0-4.406 3.584-7.99 7.99-7.99 4.406 0 7.99 3.584 7.99 7.99 0 .498-.04.952-.121 1.388l-.001.005-.001.006a7.197 7.197 0 0 1-.543 1.786l-.002.005-.002.004a7.09 7.09 0 0 1-.681 1.252l-.002.003-.002.003a7.974 7.974 0 0 1-6.635 3.548z" class="cls-11"/>
                <path d="M1450.345 213.633c-4.13 0-7.49 3.36-7.49 7.49 0 4.136 3.36 7.5 7.49 7.5 2.5 0 4.824-1.244 6.22-3.326l.003-.006.004-.006c.238-.345.451-.736.633-1.163l.004-.01.004-.01c.243-.539.413-1.098.505-1.661l.002-.011.002-.011c.076-.405.113-.829.113-1.296 0-4.13-3.36-7.49-7.49-7.49m0-1a8.489 8.489 0 0 1 8.36 9.97c-.11.67-.31 1.31-.58 1.91-.2.47-.44.92-.73 1.34a8.474 8.474 0 0 1-7.05 3.77c-4.69 0-8.49-3.81-8.49-8.5 0-4.69 3.8-8.49 8.49-8.49z" class="cls-12"/>
            </g>
            <path id="패스_2571" d="M1446.433 223.021l.419-.42s0-1.466 1.975-1.466a2.658 2.658 0 0 0 2.549-1.656 1.992 1.992 0 0 0-1.115-3.728c-2.517 0-2.963 2.963-2.963 2.963-1.306.542-1.911 2.676-1.4 3.887z" class="cls-3" data-name="패스 2571"/>
            <path id="패스_2572" d="M1458.7 222.6a7.689 7.689 0 0 1-.58 1.91 7.552 7.552 0 0 1-.73 1.34h-11.5v-3.25z" class="cls-4" data-name="패스 2572"/>
            <path id="패스_2573" d="M1458.125 224.513a7.552 7.552 0 0 1-.73 1.34h-11.5v-1.34z" class="cls-5" data-name="패스 2573"/>
            <path id="패스_2574" d="M1447.362 225.851h-1.462V222.6h1.466z" class="cls-6" data-name="패스 2574"/>
            <path id="패스_2575" d="M1447.362 225.851h-1.462v-1.338h1.466z" class="cls-7" data-name="패스 2575"/>
            <path id="패스_2576" d="M1458.7 222.6a7.689 7.689 0 0 1-.58 1.91 7.552 7.552 0 0 1-.73 1.34h-3.01v-3.25z" class="cls-8" data-name="패스 2576"/>
            <path id="패스_2577" d="M1458.125 224.513a7.552 7.552 0 0 1-.73 1.34h-3.01v-1.34z" class="cls-9" data-name="패스 2577"/>
        </g>
        <path id="사각형_1945" d="M0 0h50v50H0z" class="cls-10" data-name="사각형 1945" transform="translate(1423.467 202.395)"/>
    </g>
</svg>
