<svg xmlns="http://www.w3.org/2000/svg" width="50" height="50" viewBox="0 0 50 50">
    <defs>
        <style>
            .cls-1{fill:#faddc7}.cls-2{fill:#ec545b}.cls-3,.cls-4{fill:#fff}.cls-3{opacity:.41}.cls-5{fill:#f6c9ad}.cls-6,.cls-7{fill:none}.cls-7{stroke:#030504;stroke-linecap:round;stroke-linejoin:round}
        </style>
    </defs>
    <g id="그룹_2558" data-name="그룹 2558" transform="translate(-1481.146 -202.395)">
        <g id="그룹_2557" data-name="그룹 2557">
            <path id="패스_2578" d="M1523.609 225.851c0-11.81-7.551-18.152-16.515-18.152-7.291 0-11.746 5.229-14.132 11.826a1.443 1.443 0 0 1-.154.309l-3.535 5.352a3.6 3.6 0 0 0 1.015 4.966l.6.4a1.591 1.591 0 0 1 .7 1.174c.373 3.677 1.627 6.457 3.974 7.983a9.122 9.122 0 0 0 2.366 1.045 1.566 1.566 0 0 1 1.124 1.5v1.626c0 1.971.672 3.216 2.643 3.216h12.087a2.262 2.262 0 0 0 2.262-2.262v-.454a4.7 4.7 0 0 1 1.413-3.279 22.022 22.022 0 0 0 6.152-15.25z" class="cls-1" data-name="패스 2578"/>
            <path id="패스_2579" d="M1515.08 226.77a2.234 2.234 0 0 1 .07.51 2.278 2.278 0 0 1-2.17 2.31 1.943 1.943 0 0 1-.24-.02 2.54 2.54 0 0 1-2.29 1.5 2.646 2.646 0 0 1-2.57-2.62 2.381 2.381 0 0 1-.04.46 2.625 2.625 0 0 1-2.49 2.2 2.531 2.531 0 0 1-2.32-1.46 1.942 1.942 0 0 1-.24.02 2.283 2.283 0 0 1-2.21-2.27 2.245 2.245 0 0 1 .07-.52 2.125 2.125 0 0 1-.81-1.66 2.181 2.181 0 0 1 .56-1.47 2.369 2.369 0 0 1-.58-1.56 2.166 2.166 0 0 1 1-1.85 2.119 2.119 0 0 1-.3-1.07 2.347 2.347 0 0 1 1.51-2.19 1.844 1.844 0 0 1 .45-1.77 1.878 1.878 0 0 1 1.04-.52 2.169 2.169 0 0 1 4.26.66 2.161 2.161 0 0 1 .06-.51 2.243 2.243 0 0 1 2.1-1.78 2.282 2.282 0 0 1 2.08 1.56 1.83 1.83 0 0 1 1.05.51 1.794 1.794 0 0 1 .48 1.76 2.342 2.342 0 0 1 1.54 2.17 2.242 2.242 0 0 1-.28 1.07 2.209 2.209 0 0 1 1.03 1.84 2.52 2.52 0 0 1-.55 1.57 2.167 2.167 0 0 1-.21 3.13z" class="cls-2" data-name="패스 2579"/>
            <path id="패스_2580" d="M1516.528 227.7a2.678 2.678 0 0 1 .084.612 2.733 2.733 0 0 1-2.6 2.772 2.333 2.333 0 0 1-.288-.024 3.048 3.048 0 0 1-2.748 1.8 3.175 3.175 0 0 1-3.084-3.144 2.859 2.859 0 0 1-.048.552 3.15 3.15 0 0 1-2.988 2.64 3.037 3.037 0 0 1-2.784-1.752 2.331 2.331 0 0 1-.288.024 2.739 2.739 0 0 1-2.652-2.724 2.691 2.691 0 0 1 .084-.624 2.549 2.549 0 0 1-.972-1.992 2.617 2.617 0 0 1 .672-1.764 2.843 2.843 0 0 1-.7-1.872 2.6 2.6 0 0 1 1.2-2.22 2.542 2.542 0 0 1-.36-1.284 2.817 2.817 0 0 1 1.812-2.628 2.213 2.213 0 0 1 .54-2.124 2.254 2.254 0 0 1 1.248-.624 2.6 2.6 0 0 1 5.112.792 2.59 2.59 0 0 1 .072-.612 2.692 2.692 0 0 1 2.52-2.136 2.738 2.738 0 0 1 2.5 1.872 2.2 2.2 0 0 1 1.26.612 2.153 2.153 0 0 1 .576 2.112 2.811 2.811 0 0 1 1.848 2.6 2.689 2.689 0 0 1-.336 1.284 2.651 2.651 0 0 1 1.236 2.208 3.024 3.024 0 0 1-.66 1.884 2.6 2.6 0 0 1-.252 3.756z" class="cls-3" data-name="패스 2580"/>
            <path id="패스_2581" d="M1507.84 214.94v13.97a2.625 2.625 0 0 1-2.49 2.2 2.531 2.531 0 0 1-2.32-1.46 1.942 1.942 0 0 1-.24.02 2.283 2.283 0 0 1-2.21-2.27 2.245 2.245 0 0 1 .07-.52 2.125 2.125 0 0 1-.81-1.66 2.181 2.181 0 0 1 .56-1.47 2.369 2.369 0 0 1-.58-1.56 2.166 2.166 0 0 1 1-1.85 2.119 2.119 0 0 1-.3-1.07 2.347 2.347 0 0 1 1.51-2.19 1.844 1.844 0 0 1 .45-1.77 1.878 1.878 0 0 1 1.04-.52 2.169 2.169 0 0 1 4.26.66 2.161 2.161 0 0 1 .06-.51z" class="cls-4" data-name="패스 2581"/>
            <path id="패스_2582" d="M1515.08 226.77a2.234 2.234 0 0 1 .07.51 2.278 2.278 0 0 1-2.17 2.31 1.943 1.943 0 0 1-.24-.02 2.54 2.54 0 0 1-2.29 1.5 2.646 2.646 0 0 1-2.57-2.62 2.381 2.381 0 0 1-.04.46v-13.97a2.243 2.243 0 0 1 2.1-1.78 2.282 2.282 0 0 1 2.08 1.56 1.83 1.83 0 0 1 1.05.51 1.794 1.794 0 0 1 .48 1.76 2.342 2.342 0 0 1 1.54 2.17 2.242 2.242 0 0 1-.28 1.07 2.209 2.209 0 0 1 1.03 1.84 2.52 2.52 0 0 1-.55 1.57 2.167 2.167 0 0 1-.21 3.13z" class="cls-2" data-name="패스 2582"/>
            <path id="패스_2583" d="M1509.649 216.559a.365.365 0 1 0-.364-.364.364.364 0 0 0 .364.364z" class="cls-5" data-name="패스 2583"/>
            <path id="패스_2584" d="M1506.007 216.559a.365.365 0 1 0-.364-.364.364.364 0 0 0 .364.364z" class="cls-5" data-name="패스 2584"/>
            <path id="패스_2585" d="M1499.452 225.154a2.525 2.525 0 0 0 .761 1.8 2.644 2.644 0 0 0 2.516 3.041h.034a7.058 7.058 0 0 1 7.614 1.458 2.923 2.923 0 0 0 2.517-1.458h.033a2.641 2.641 0 0 0 2.549-2.659 2.441 2.441 0 0 0-.032-.382 2.514 2.514 0 0 0 .292-3.264 2.919 2.919 0 0 0 .469-1.562 2.53 2.53 0 0 0-.923-1.957 2.461 2.461 0 0 0 .194-.957 2.714 2.714 0 0 0-1.472-2.4 2.182 2.182 0 0 0-1.658-2.382 2.622 2.622 0 0 0-2.333-1.627 2.476 2.476 0 0 1-4.37 0 2.623 2.623 0 0 0-2.333 1.627 2.183 2.183 0 0 0-1.658 2.382 2.714 2.714 0 0 0-1.472 2.4 2.461 2.461 0 0 0 .194.957 2.529 2.529 0 0 0-.922 1.957 2.906 2.906 0 0 0 .469 1.562 2.519 2.519 0 0 0-.469 1.464zm10.561-11.618a1.839 1.839 0 0 1 1.484.864 2.169 2.169 0 0 0-1.208.613.365.365 0 0 0 .515.516 1.457 1.457 0 0 1 2.487 1.03v.028a2.445 2.445 0 0 0-.363-.028 2.641 2.641 0 0 0-2.55 2.658.365.365 0 1 0 .729 0 1.824 1.824 0 1 1 3.642 0 1.792 1.792 0 0 1-.244.892.364.364 0 0 0 .122.487 1.812 1.812 0 0 1 .85 1.535 1.913 1.913 0 0 1-1.821 1.93.364.364 0 0 0 0 .729 2.458 2.458 0 0 0 1.554-.573 1.789 1.789 0 0 1 .267.937 1.813 1.813 0 0 1-.664 1.393.366.366 0 0 0-.121.365 1.786 1.786 0 0 1 .057.427 1.9 1.9 0 0 1-1.944 1.918l-.077-.01a.366.366 0 0 0-.372.209 2.19 2.19 0 0 1-1.978 1.27 2.272 2.272 0 0 1-2.185-2.294 2.188 2.188 0 0 1 2.185-2.185.364.364 0 1 0 0-.729 2.909 2.909 0 0 0-2.185.99v-6.926a.73.73 0 0 1 .729-.729.364.364 0 1 0 0-.728 1.443 1.443 0 0 0-.729.2v-2.855a1.927 1.927 0 0 1 1.82-1.934zm-8.983 7.06a.364.364 0 0 0 .122-.487 1.792 1.792 0 0 1-.244-.892 1.824 1.824 0 1 1 3.642 0 .365.365 0 1 0 .729 0 2.641 2.641 0 0 0-2.55-2.658 2.445 2.445 0 0 0-.363.028v-.028a1.457 1.457 0 0 1 2.487-1.03.364.364 0 0 0 .515-.516 2.171 2.171 0 0 0-1.208-.613 1.839 1.839 0 0 1 1.484-.864 1.927 1.927 0 0 1 1.821 1.93v2.855a1.443 1.443 0 0 0-.729-.2.364.364 0 1 0 0 .728.73.73 0 0 1 .729.729v6.926a2.907 2.907 0 0 0-2.185-.99.364.364 0 0 0 0 .729 2.187 2.187 0 0 1 2.185 2.185 2.272 2.272 0 0 1-2.185 2.294 2.191 2.191 0 0 1-1.978-1.27.365.365 0 0 0-.371-.209l-.077.01a1.9 1.9 0 0 1-1.888-2.345.366.366 0 0 0-.121-.365 1.813 1.813 0 0 1-.664-1.393 1.789 1.789 0 0 1 .267-.937 2.458 2.458 0 0 0 1.554.573.364.364 0 0 0 0-.729 1.915 1.915 0 0 1-1.821-1.93 1.812 1.812 0 0 1 .849-1.527z" class="cls-5" data-name="패스 2585"/>
            <path id="패스_2586" d="M1504.5 221.733a1.094 1.094 0 0 1-1.041.762.365.365 0 0 0 0 .729 1.824 1.824 0 0 0 1.788-1.479 2.547 2.547 0 0 0 1.368-.627.364.364 0 1 0-.486-.543 1.824 1.824 0 0 1-3.034-1.358.365.365 0 0 0-.729 0 2.553 2.553 0 0 0 2.134 2.516z" class="cls-5" data-name="패스 2586"/>
            <path id="패스_2587" d="M1502.729 226.975a.364.364 0 1 0 0 .728 1.928 1.928 0 0 1 1.821 1.931.365.365 0 0 0 .729 0 2.641 2.641 0 0 0-2.55-2.659z" class="cls-5" data-name="패스 2587"/>
            <path id="패스_2588" d="M1505.643 224.061a3.272 3.272 0 0 0-2.852 1.661.365.365 0 1 0 .634.36 2.543 2.543 0 0 1 2.218-1.292.364.364 0 0 0 0-.729z" class="cls-5" data-name="패스 2588"/>
            <path id="패스_2589" d="M1509 220.7a.365.365 0 0 0 .052.513 2.541 2.541 0 0 0 1.4.563 1.823 1.823 0 0 0 1.854 1.4.364.364 0 0 0-.033-.728 1.094 1.094 0 0 1-1.076-.714 2.554 2.554 0 0 0 2.016-2.611.364.364 0 1 0-.728.034 1.821 1.821 0 0 1-2.969 1.5.365.365 0 0 0-.516.043z" class="cls-5" data-name="패스 2589"/>
            <path id="패스_2590" d="M1512.927 226.975a2.641 2.641 0 0 0-2.55 2.659.365.365 0 0 0 .729 0 1.928 1.928 0 0 1 1.821-1.931.364.364 0 1 0 0-.728z" class="cls-5" data-name="패스 2590"/>
            <path id="패스_2591" d="M1512.231 226.082a.365.365 0 1 0 .634-.36 3.273 3.273 0 0 0-2.852-1.661.364.364 0 0 0 0 .729 2.543 2.543 0 0 1 2.218 1.292z" class="cls-5" data-name="패스 2591"/>
        </g>
        <path id="사각형_1945" d="M0 0h50v50H0z" class="cls-6" data-name="사각형 1945" transform="translate(1481.146 202.395)"/>
        <path id="패스_2592" d="M1525.662 209.92l-5.424 1.519 2.119 3.515-3.947 1.13" class="cls-7" data-name="패스 2592"/>
        <path id="패스_2593" d="M1519.1 208.917l-2.808 2 1.948 1.584-2.038 1.468" class="cls-7" data-name="패스 2593"/>
    </g>
</svg>
