<svg xmlns="http://www.w3.org/2000/svg" width="50" height="50" viewBox="0 0 50 50">
    <defs>
        <style>
            .cls-1{fill:#fbdec7}.cls-2{clip-path:url(#clip-path)}.cls-3{fill:#f6ceb3}.cls-4{fill:#f0ceb7}.cls-5{fill:#343535}.cls-6{fill:#e03b18}.cls-7,.cls-9{opacity:.7}.cls-8,.cls-9{fill:#e71818}.cls-10{fill:#111}.cls-11{fill:none}
        </style>
        <clipPath id="clip-path">
            <path id="패스_1792" d="M457.094 113.964v9.471a13.909 13.909 0 0 1-.6 4.041 13.727 13.727 0 0 1-.851 2.145c-.194.391-.406.772-.635 1.141a13.977 13.977 0 0 1-1.694 2.207 13.813 13.813 0 0 1-7.45 4.113 14.53 14.53 0 0 1-2.64.248 13.872 13.872 0 0 1-13.855-13.895v-9.471a13.872 13.872 0 0 1 13.855-13.895 14.53 14.53 0 0 1 2.64.248 13.9 13.9 0 0 1 11.225 13.647z" class="cls-1" data-name="패스 1792" transform="translate(-429.374 -100.069)"/>
        </clipPath>
    </defs>
    <g id="그룹_1784" data-name="그룹 1784" transform="translate(-418.049 -94.115)">
        <g id="그룹_1783" data-name="그룹 1783" transform="translate(424.844 100.069)">
            <path id="패스_1788" d="M456.4 116.152a4.647 4.647 0 0 1 .569-.035 4.592 4.592 0 0 1 .374 9.168 4.236 4.236 0 0 1-.374.016" class="cls-1" data-name="패스 1788" transform="translate(-425.154 -100.244)"/>
            <path id="패스_1789" d="M430.374 125.205a4.527 4.527 0 0 1-.937.1 4.592 4.592 0 0 1-.428-9.163q.213-.021.432-.021a4.619 4.619 0 0 1 .568.035" class="cls-1" data-name="패스 1789" transform="translate(-424.844 -100.244)"/>
            <g id="그룹_1778" data-name="그룹 1778" transform="translate(4.53)">
                <path id="패스_1790" d="M457.094 113.964v9.471a13.909 13.909 0 0 1-.6 4.041 13.727 13.727 0 0 1-.851 2.145c-.194.391-.406.772-.635 1.141a13.977 13.977 0 0 1-1.694 2.207 13.813 13.813 0 0 1-7.45 4.113 14.53 14.53 0 0 1-2.64.248 13.872 13.872 0 0 1-13.855-13.895v-9.471a13.872 13.872 0 0 1 13.855-13.895 14.53 14.53 0 0 1 2.64.248 13.9 13.9 0 0 1 11.225 13.647z" class="cls-1" data-name="패스 1790" transform="translate(-429.374 -100.069)"/>
                <g id="그룹_1777" class="cls-2" data-name="그룹 1777">
                    <path id="패스_1791" d="M444.366 137.129a12.605 12.605 0 0 1-14.992-12.407v-8.608a12.605 12.605 0 0 1 14.992-12.407 12.627 12.627 0 0 0-10.206 12.407v8.608a12.627 12.627 0 0 0 10.206 12.407z" class="cls-3" data-name="패스 1791" transform="translate(-429.374 -100.097)"/>
                </g>
            </g>
            <path id="패스_1793" d="M460.06 121.44a.593.593 0 0 1-.543-.357c-.484-1.112-1.893-.727-1.953-.71a.592.592 0 0 1-.323-1.14 2.761 2.761 0 0 1 3.363 1.377.593.593 0 0 1-.308.78.579.579 0 0 1-.236.05z" class="cls-4" data-name="패스 1793" transform="translate(-425.154 -100.236)"/>
            <path id="패스_1794" d="M426.716 121.44a.582.582 0 0 1-.236-.05.592.592 0 0 1-.307-.78 2.761 2.761 0 0 1 3.363-1.377.593.593 0 0 1-.322 1.141c-.153-.042-1.485-.371-1.954.709a.594.594 0 0 1-.544.357z" class="cls-4" data-name="패스 1794" transform="translate(-424.844 -100.236)"/>
            <g id="그룹_1780" data-name="그룹 1780" transform="translate(11.689 17.788)">
                <g id="그룹_1779" data-name="그룹 1779">
                    <path id="패스_1795" d="M437.283 121.862a.593.593 0 0 1-.593-.593v-2.654a.592.592 0 1 1 1.185 0v2.654a.592.592 0 0 1-.592.593z" class="cls-5" data-name="패스 1795" transform="translate(-436.69 -118.022)"/>
                    <path id="패스_1796" d="M449.494 121.862a.592.592 0 0 1-.593-.593v-2.654a.592.592 0 1 1 1.185 0v2.654a.592.592 0 0 1-.592.593z" class="cls-5" data-name="패스 1796" transform="translate(-436.69 -118.022)"/>
                </g>
            </g>
            <path id="패스_1797" d="M446.782 130.3a.588.588 0 0 1-.419-.174 4.245 4.245 0 0 0-5.995 0 .593.593 0 0 1-.838-.838 5.43 5.43 0 0 1 7.671 0 .593.593 0 0 1-.419 1.012z" class="cls-6" data-name="패스 1797" transform="translate(-425.001 -100.314)"/>
            <g id="그룹_1782" data-name="그룹 1782" transform="translate(6.601 14.016)">
                <g id="그룹_1781" class="cls-7" data-name="그룹 1781">
                    <path id="패스_1798" d="M454.111 120.44a.6.6 0 1 1 .587-.471.606.606 0 0 1-.587.471z" class="cls-8" data-name="패스 1798" transform="translate(-431.599 -114.394)"/>
                    <path id="패스_1799" d="M437.85 115.579a.593.593 0 1 1 .588-.52.6.6 0 0 1-.588.52z" class="cls-8" data-name="패스 1799" transform="translate(-431.599 -114.394)"/>
                    <path id="패스_1800" d="M432.186 124.228a.593.593 0 1 1 .584-.491.6.6 0 0 1-.584.491z" class="cls-8" data-name="패스 1800" transform="translate(-431.599 -114.394)"/>
                    <path id="패스_1801" d="M438.982 127.214a.593.593 0 1 1 .575-.448.6.6 0 0 1-.575.448z" class="cls-8" data-name="패스 1801" transform="translate(-431.599 -114.394)"/>
                    <path id="패스_1802" d="M446.191 120.727a.593.593 0 1 1 .588-.52.6.6 0 0 1-.588.52z" class="cls-8" data-name="패스 1802" transform="translate(-431.599 -114.394)"/>
                    <path id="패스_1803" d="M441.866 123.507a.592.592 0 1 1 .586-.505.6.6 0 0 1-.586.505z" class="cls-8" data-name="패스 1803" transform="translate(-431.599 -114.394)"/>
                    <path id="패스_1804" d="M434.142 118.1a.592.592 0 1 1 .58-.471.6.6 0 0 1-.58.471z" class="cls-8" data-name="패스 1804" transform="translate(-431.599 -114.394)"/>
                    <path id="패스_1805" d="M450.347 132.463a.6.6 0 1 1 .59-.484.607.607 0 0 1-.59.484z" class="cls-8" data-name="패스 1805" transform="translate(-431.599 -114.394)"/>
                    <path id="패스_1806" d="M438.364 134.423a.592.592 0 1 1 .588-.52.6.6 0 0 1-.588.52z" class="cls-8" data-name="패스 1806" transform="translate(-431.599 -114.394)"/>
                    <path id="패스_1807" d="M444.8 135.092a.592.592 0 1 1 .574-.448.6.6 0 0 1-.574.448z" class="cls-8" data-name="패스 1807" transform="translate(-431.599 -114.394)"/>
                    <path id="패스_1808" d="M434.246 130.1a.592.592 0 1 1 .577-.463.6.6 0 0 1-.577.463z" class="cls-8" data-name="패스 1808" transform="translate(-431.599 -114.394)"/>
                </g>
                <path id="패스_1809" d="M450.1 126.287a.592.592 0 1 1 .579-.47.6.6 0 0 1-.579.47z" class="cls-9" data-name="패스 1809" transform="translate(-431.599 -114.394)"/>
            </g>
            <path id="패스_1810" d="M457.094 114.079v2.07c-15.576-.02-21.282-6.13-21.816-6.75a.172.172 0 0 1-.049-.05c0 2.81-2.789 5.79-5.855 6.8v-2.01a16.074 16.074 0 0 1 .158-2.19c.079-.45.168-.9.277-1.35.059-.22.129-.44.188-.67a14.752 14.752 0 0 1 1.741-3.68s.02-.01.02-.02c.247-.36.5-.72.781-1.06.158-.18.307-.36.465-.54s.307-.33.465-.49a13.886 13.886 0 0 1 1.523-1.33c.336-.25.692-.49 1.048-.71a13.674 13.674 0 0 1 7.19-2.03 14.22 14.22 0 0 1 2.542.23c.03.01.069.01.1.02a13.773 13.773 0 0 1 7.16 3.85 14.045 14.045 0 0 1 4.062 9.91z" class="cls-10" data-name="패스 1810" transform="translate(-424.844 -100.069)"/>
        </g>
        <path id="사각형_1945" d="M0 0h49.692v49.692H0z" class="cls-11" data-name="사각형 1945" transform="rotate(-.356 15405.715 -67234.716)"/>
    </g>
</svg>
