<svg xmlns="http://www.w3.org/2000/svg" width="50" height="50" viewBox="0 0 50 50">
    <defs>
        <style>
            .cls-1{fill:#faddc7}.cls-2{fill:#f0ceb7}.cls-3{fill:#f6ceb3}.cls-4{fill:#111}.cls-5{fill:#ebf7f9}.cls-6{fill:#99cea7}.cls-7{fill:#85c48f}.cls-13,.cls-8{fill:none}.cls-8{stroke:#343535;stroke-linecap:round}.cls-12,.cls-8{stroke-linejoin:round}.cls-9{fill:#29ace6}.cls-10{fill:#2bbef3}.cls-11{fill:#080909;opacity:.14}.cls-12{fill:#244f23;stroke:#fff;stroke-width:.5px;font-size:7.779px;font-family:TmonMonsoriBlack,TmonMonsori}
        </style>
    </defs>
    <g id="그룹_2715" data-name="그룹 2715" transform="translate(-1204.758 -199.766)">
        <g id="그룹_2714" data-name="그룹 2714">
            <g id="그룹_2712" data-name="그룹 2712">
                <path id="패스_2851" d="M1242.956 223.016a4.614 4.614 0 0 1 1.368.035 4.592 4.592 0 0 1-.425 9.1 4.22 4.22 0 0 1-.374.016" class="cls-1" data-name="패스 2851"/>
                <path id="패스_2852" d="M1216.927 231.116a4.52 4.52 0 0 1-.937.1 4.592 4.592 0 0 1-.428-9.163q.213-.021.431-.021a4.646 4.646 0 0 1 .569.035" class="cls-1" data-name="패스 2852"/>
                <path id="패스_2853" d="M1245.926 228.737a.594.594 0 0 1-.544-.357c-.484-1.112-1.892-.727-1.952-.71a.593.593 0 0 1-.324-1.14 2.761 2.761 0 0 1 3.363 1.377.592.592 0 0 1-.307.78.582.582 0 0 1-.236.05z" class="cls-2" data-name="패스 2853"/>
                <path id="패스_2854" d="M1213.963 228.045a.578.578 0 0 1-.236-.05.592.592 0 0 1-.308-.779 2.761 2.761 0 0 1 3.363-1.378.593.593 0 0 1-.321 1.141c-.153-.042-1.485-.37-1.955.709a.593.593 0 0 1-.543.357z" class="cls-2" data-name="패스 2854"/>
                <path id="패스_2855" d="M1243.953 219.992v9.55a13.758 13.758 0 0 1-.29 2.82 12.666 12.666 0 0 1-.31 1.25 12.229 12.229 0 0 1-.83 2.1l-.02.04a.037.037 0 0 1-.01.03c-.19.39-.41.77-.64 1.15a14.735 14.735 0 0 1-1.71 2.22 1.57 1.57 0 0 1-.13.13 13.069 13.069 0 0 1-1.52 1.36 13.881 13.881 0 0 1-5.89 2.66 14.733 14.733 0 0 1-2.67.25 13.915 13.915 0 0 1-8.57-2.93 13.241 13.241 0 0 1-1.53-1.37l-.01-.01a13.655 13.655 0 0 1-2.77-4.19l-.03-.06a14.07 14.07 0 0 1-1.1-5.45v-9.55a14.007 14.007 0 0 1 14.01-14.01 14.734 14.734 0 0 1 2.67.25 14.029 14.029 0 0 1 11.35 13.76z" class="cls-1" data-name="패스 2855"/>
                <path id="패스_2856" d="M1231.083 243.322a12.755 12.755 0 0 1-14.78-9.41 12.221 12.221 0 0 1-.35-2.36 8.97 8.97 0 0 1-.03-.74v-8.68a12.749 12.749 0 0 1 15.16-12.51 12.741 12.741 0 0 0-10.32 12.51v8.68a12.741 12.741 0 0 0 10.32 12.51z" class="cls-3" data-name="패스 2856"/>
                <path id="패스_2857" d="M1243.957 219.99v2.07c-15.75-.02-21.52-6.13-22.06-6.75a.173.173 0 0 1-.05-.05c0 2.81-2.82 5.79-5.92 6.8v-2.01a15.906 15.906 0 0 1 .16-2.19c.08-.45.17-.9.28-1.35.06-.22.13-.44.19-.67a14.681 14.681 0 0 1 1.76-3.68s.02-.01.02-.02c.25-.36.51-.72.79-1.06.16-.18.31-.36.47-.54s.31-.33.47-.49a13.992 13.992 0 0 1 1.54-1.33c.34-.25.7-.49 1.06-.71a13.942 13.942 0 0 1 7.27-2.03 14.534 14.534 0 0 1 2.57.23c.03.01.07.01.1.02a14.029 14.029 0 0 1 11.35 13.76z" class="cls-4" data-name="패스 2857"/>
                <g id="그룹_2708" data-name="그룹 2708">
                    <path id="패스_2858" d="M1243.953 222.512v1.88l-4.79 7.67a.5.5 0 0 1-.42.24.559.559 0 0 1-.27-.08.513.513 0 0 1-.16-.69z" class="cls-5" data-name="패스 2858"/>
                </g>
                <g id="그룹_2709" data-name="그룹 2709">
                    <path id="패스_2859" d="M1243.663 232.362a12.666 12.666 0 0 1-.31 1.25 12.229 12.229 0 0 1-.83 2.1l-.02.04-2.49 3.53-.86 1.22a.507.507 0 0 1-.41.21.451.451 0 0 1-.25-.07.076.076 0 0 1-.04-.02.5.5 0 0 1-.12-.7z" class="cls-5" data-name="패스 2859"/>
                </g>
                <g id="그룹_2710" data-name="그룹 2710">
                    <path id="패스_2860" d="M1221.7 232.232a.553.553 0 0 1-.25.07.505.505 0 0 1-.43-.26l-5.1-8.97v-2.03l5.97 10.51a.505.505 0 0 1-.19.68z" class="cls-5" data-name="패스 2860"/>
                </g>
                <g id="그룹_2711" data-name="그룹 2711">
                    <path id="패스_2861" d="M1221.363 240.622l-.01.01a.566.566 0 0 1-.28.08.522.522 0 0 1-.42-.22l-.82-1.24-.01-.01-2.77-4.19-.03-.06-.72-1.08a12.221 12.221 0 0 1-.35-2.36l.15.23 5.39 8.16a.493.493 0 0 1-.13.68z" class="cls-5" data-name="패스 2861"/>
                </g>
                <path id="패스_2862" d="M1237.743 231.1l1.17.14a1.517 1.517 0 0 1 .21.03 1.4 1.4 0 0 1 1.11 1.38v6.68a2.151 2.151 0 0 1-.958 1.789l-.152.1a14.7 14.7 0 0 1-1.38.69 16.257 16.257 0 0 1-7.81 1.64 15.457 15.457 0 0 1-7.79-1.69c-.54-.24-1.01-.48-1.38-.68a2.146 2.146 0 0 1-1.11-1.89v-6.64a1.414 1.414 0 0 1 1.11-1.38 1.517 1.517 0 0 1 .21-.03l1.17-.14 6.072-.981a7.329 7.329 0 0 1 2.158-.026l7.37 1.007" class="cls-6" data-name="패스 2862"/>
                <path id="패스_2863" d="M1222.143 231.1v10.76c-.54-.24-1.01-.48-1.38-.68v-9.91a1.517 1.517 0 0 1 .21-.03z" class="cls-7" data-name="패스 2863"/>
                <path id="패스_2864" d="M1239.123 231.272v9.95a14.7 14.7 0 0 1-1.38.69V231.1l1.17.14a1.517 1.517 0 0 1 .21.032z" class="cls-7" data-name="패스 2864"/>
                <path id="패스_2865" d="M1221.3 226.881l5.3-.807-1.6-.923" class="cls-8" data-name="패스 2865"/>
                <path id="패스_2866" d="M1238.577 226.881l-5.295-.807 1.6-.923" class="cls-8" data-name="패스 2866"/>
            </g>
            <g id="그룹_2713" data-name="그룹 2713">
                <path id="패스_2867" d="M1232.33 234.929c.446.953 1.191 1.482 2.113 1.052a.2.2 0 0 0 .054-.036l-2.065-4.283s-.547 2.314-.102 3.267z" class="cls-9" data-name="패스 2867"/>
                <path id="패스_2868" d="M1232.432 231.662l2.065 4.283c.872-.431.931-1.324.5-2.26-.441-.953-2.565-2.023-2.565-2.023z" class="cls-10" data-name="패스 2868"/>
            </g>
            <path id="패스_2869" d="M1227.576 230.225c0-.933 1.057-1.689 2.362-1.689s2.361.756 2.361 1.689a2.381 2.381 0 0 1-4.723 0z" class="cls-11" data-name="패스 2869"/>
            <path id="패스_2870" d="M1227.576 229.926c0-.933 1.057-1.689 2.362-1.689s2.361.756 2.361 1.689a2.381 2.381 0 0 1-4.723 0z" class="cls-1" data-name="패스 2870"/>
            <text id="_1" class="cls-12" data-name="1" transform="translate(1227.406 239.91)">
                <tspan x="0" y="0">1</tspan>
            </text>
        </g>
        <path id="사각형_2774" d="M0 0h50v50H0z" class="cls-13" data-name="사각형 2774" transform="translate(1204.757 199.766)"/>
    </g>
</svg>
