<svg xmlns="http://www.w3.org/2000/svg" width="50" height="50" viewBox="0 0 50 50">
    <defs>
        <style>
            .cls-1{fill:#faddc7}.cls-2{fill:#f0ceb7}.cls-3{fill:#f6ceb3}.cls-4{fill:#111}.cls-5{fill:#ebf7f9}.cls-6{fill:#99cea7}.cls-7{fill:#85c48f}.cls-13,.cls-8{fill:none}.cls-8{stroke:#343535;stroke-linecap:round}.cls-12,.cls-8{stroke-linejoin:round}.cls-9{fill:#29ace6}.cls-10{fill:#2bbef3}.cls-11{fill:#080909;opacity:.14}.cls-12{fill:#244f23;stroke:#fff;stroke-width:.5px;font-size:7.779px;font-family:TmonMonsoriBlack,TmonMonsori}
        </style>
    </defs>
    <g id="그룹_2723" data-name="그룹 2723" transform="translate(-1256.391 -199.766)">
        <g id="그룹_2722" data-name="그룹 2722">
            <g id="그룹_2720" data-name="그룹 2720">
                <path id="패스_2871" d="M1294.588 223.016a4.615 4.615 0 0 1 1.368.035 4.591 4.591 0 0 1-.425 9.1 4.203 4.203 0 0 1-.374.016" class="cls-1" data-name="패스 2871"/>
                <path id="패스_2872" d="M1268.56 231.116a4.531 4.531 0 0 1-.938.1 4.592 4.592 0 0 1-.428-9.163c.142-.014.286-.021.431-.021a4.648 4.648 0 0 1 .569.035" class="cls-1" data-name="패스 2872"/>
                <path id="패스_2873" d="M1297.558 228.737a.593.593 0 0 1-.544-.357c-.483-1.112-1.892-.727-1.952-.71a.592.592 0 1 1-.323-1.14 2.76 2.76 0 0 1 3.362 1.377.592.592 0 0 1-.307.78.582.582 0 0 1-.236.05z" class="cls-2" data-name="패스 2873"/>
                <path id="패스_2874" d="M1265.595 228.045a.582.582 0 0 1-.236-.05.591.591 0 0 1-.307-.779 2.76 2.76 0 0 1 3.362-1.378.593.593 0 0 1-.321 1.141c-.153-.042-1.485-.37-1.954.709a.594.594 0 0 1-.544.357z" class="cls-2" data-name="패스 2874"/>
                <path id="패스_2875" d="M1295.585 219.992v9.55a13.767 13.767 0 0 1-.29 2.82 12.7 12.7 0 0 1-.31 1.25 12.229 12.229 0 0 1-.83 2.1l-.02.04a.037.037 0 0 1-.01.03c-.19.39-.41.77-.64 1.15a14.734 14.734 0 0 1-1.71 2.22 1.609 1.609 0 0 1-.13.13 13.06 13.06 0 0 1-1.52 1.36 13.88 13.88 0 0 1-5.89 2.66 14.733 14.733 0 0 1-2.67.25 13.915 13.915 0 0 1-8.57-2.93 13.241 13.241 0 0 1-1.53-1.37l-.01-.01a13.655 13.655 0 0 1-2.77-4.19l-.03-.06a14.064 14.064 0 0 1-1.1-5.45v-9.55a14.007 14.007 0 0 1 14.01-14.01 14.734 14.734 0 0 1 2.67.25 14.029 14.029 0 0 1 11.35 13.76z" class="cls-1" data-name="패스 2875"/>
                <path id="패스_2876" d="M1282.715 243.322a12.755 12.755 0 0 1-14.78-9.41 12.212 12.212 0 0 1-.35-2.36 8.97 8.97 0 0 1-.03-.74v-8.68a12.749 12.749 0 0 1 15.16-12.51 12.741 12.741 0 0 0-10.32 12.51v8.68a12.741 12.741 0 0 0 10.32 12.51z" class="cls-3" data-name="패스 2876"/>
                <path id="패스_2877" d="M1295.59 219.99v2.07c-15.75-.02-21.52-6.13-22.06-6.75a.173.173 0 0 1-.05-.05c0 2.81-2.82 5.79-5.92 6.8v-2.01a15.906 15.906 0 0 1 .16-2.19c.08-.45.17-.9.28-1.35.06-.22.13-.44.19-.67a14.681 14.681 0 0 1 1.76-3.68s.02-.01.02-.02c.25-.36.51-.72.79-1.06.16-.18.31-.36.47-.54s.31-.33.47-.49a14 14 0 0 1 1.54-1.33c.34-.25.7-.49 1.06-.71a13.942 13.942 0 0 1 7.27-2.03 14.535 14.535 0 0 1 2.57.23c.03.01.07.01.1.02a14.029 14.029 0 0 1 11.35 13.76z" class="cls-4" data-name="패스 2877"/>
                <g id="그룹_2716" data-name="그룹 2716">
                    <path id="패스_2878" d="M1295.585 222.512v1.88l-4.79 7.67a.5.5 0 0 1-.42.24.56.56 0 0 1-.27-.08.513.513 0 0 1-.16-.69z" class="cls-5" data-name="패스 2878"/>
                </g>
                <g id="그룹_2717" data-name="그룹 2717">
                    <path id="패스_2879" d="M1295.3 232.362a12.7 12.7 0 0 1-.31 1.25 12.229 12.229 0 0 1-.83 2.1l-.02.04-2.49 3.53-.86 1.22a.507.507 0 0 1-.41.21.451.451 0 0 1-.25-.07.076.076 0 0 1-.04-.02.5.5 0 0 1-.12-.7z" class="cls-5" data-name="패스 2879"/>
                </g>
                <g id="그룹_2718" data-name="그룹 2718">
                    <path id="패스_2880" d="M1273.335 232.232a.552.552 0 0 1-.25.07.505.505 0 0 1-.43-.26l-5.1-8.97v-2.03l5.97 10.51a.505.505 0 0 1-.19.68z" class="cls-5" data-name="패스 2880"/>
                </g>
                <g id="그룹_2719" data-name="그룹 2719">
                    <path id="패스_2881" d="M1272.995 240.622l-.01.01a.565.565 0 0 1-.28.08.522.522 0 0 1-.42-.22l-.82-1.24-.01-.01-2.77-4.19-.03-.06-.72-1.08a12.212 12.212 0 0 1-.35-2.36l.15.23 5.39 8.16a.493.493 0 0 1-.13.68z" class="cls-5" data-name="패스 2881"/>
                </g>
                <path id="패스_2882" d="M1289.375 231.1l1.17.14a1.515 1.515 0 0 1 .21.03 1.4 1.4 0 0 1 1.11 1.38v6.68a2.151 2.151 0 0 1-.958 1.789l-.152.1a14.683 14.683 0 0 1-1.38.69 16.257 16.257 0 0 1-7.81 1.64 15.456 15.456 0 0 1-7.79-1.69c-.54-.24-1.01-.48-1.38-.68a2.146 2.146 0 0 1-1.11-1.89v-6.64a1.414 1.414 0 0 1 1.11-1.38 1.515 1.515 0 0 1 .21-.03l1.17-.14 6.073-.981a7.327 7.327 0 0 1 2.158-.026l7.369 1.007" class="cls-6" data-name="패스 2882"/>
                <path id="패스_2883" d="M1273.775 231.1v10.76c-.54-.24-1.01-.48-1.38-.68v-9.91a1.515 1.515 0 0 1 .21-.03z" class="cls-7" data-name="패스 2883"/>
                <path id="패스_2884" d="M1290.755 231.272v9.95a14.683 14.683 0 0 1-1.38.69V231.1l1.17.14a1.515 1.515 0 0 1 .21.032z" class="cls-7" data-name="패스 2884"/>
                <path id="패스_2885" d="M1272.931 226.881l5.295-.807-1.6-.923" class="cls-8" data-name="패스 2885"/>
                <path id="패스_2886" d="M1290.209 226.881l-5.3-.807 1.6-.923" class="cls-8" data-name="패스 2886"/>
            </g>
            <g id="그룹_2721" data-name="그룹 2721">
                <path id="패스_2887" d="M1283.963 234.929c.445.953 1.191 1.482 2.112 1.052a.225.225 0 0 0 .055-.036l-2.066-4.283s-.547 2.314-.101 3.267z" class="cls-9" data-name="패스 2887"/>
                <path id="패스_2888" d="M1284.064 231.662l2.066 4.283c.872-.431.93-1.324.5-2.26-.442-.953-2.566-2.023-2.566-2.023z" class="cls-10" data-name="패스 2888"/>
            </g>
            <path id="패스_2889" d="M1279.208 230.225c0-.933 1.057-1.689 2.362-1.689s2.362.756 2.362 1.689a2.382 2.382 0 0 1-4.724 0z" class="cls-11" data-name="패스 2889"/>
            <path id="패스_2890" d="M1279.208 229.926c0-.933 1.057-1.689 2.362-1.689s2.362.756 2.362 1.689a2.382 2.382 0 0 1-4.724 0z" class="cls-1" data-name="패스 2890"/>
            <text id="_2" class="cls-12" data-name="2" transform="translate(1279.038 239.91)">
                <tspan x="0" y="0">2</tspan>
            </text>
        </g>
        <path id="사각형_2775" d="M0 0h50v50H0z" class="cls-13" data-name="사각형 2775" transform="translate(1256.39 199.766)"/>
    </g>
</svg>
