<svg xmlns="http://www.w3.org/2000/svg" width="50" height="50" viewBox="0 0 50 50">
    <defs>
        <style>
            .cls-1{fill:#111}.cls-2{fill:#faddc7}.cls-3{fill:#f0ceb7}.cls-4{fill:#f6ceb3}.cls-5{fill:#343535}.cls-6,.cls-9{fill:none}.cls-6{stroke:#dd8554;stroke-linecap:round;stroke-linejoin:round}.cls-7{fill:#de5319}.cls-8{fill:#e03b18}
        </style>
    </defs>
    <g id="그룹_3381" data-name="그룹 3381" transform="translate(-1072.692 -179.552)">
        <g id="그룹_3380" data-name="그룹 3380">
            <g id="그룹_3379" data-name="그룹 3379">
                <g id="그룹_3378" data-name="그룹 3378">
                    <path id="패스_3903" d="M1082.169 200.636h31.188V221.4a3.675 3.675 0 0 1-3.416 3.888h-24.355a3.676 3.676 0 0 1-3.417-3.888z" class="cls-1" data-name="패스 3903"/>
                    <path id="패스_3904" d="M1110.891 200.546a4.647 4.647 0 0 1 .569-.034 4.592 4.592 0 0 1 .374 9.168c-.124.01-.249.015-.374.015" class="cls-2" data-name="패스 3904"/>
                    <path id="패스_3905" d="M1084.862 208.646a4.527 4.527 0 0 1-.937.1 4.591 4.591 0 0 1-.428-9.162 4.111 4.111 0 0 1 .432-.021 4.65 4.65 0 0 1 .569.034" class="cls-2" data-name="패스 3905"/>
                    <path id="패스_3906" d="M1113.861 206.267a.592.592 0 0 1-.544-.357c-.484-1.112-1.893-.727-1.952-.71a.593.593 0 0 1-.324-1.14 2.763 2.763 0 0 1 3.363 1.378.592.592 0 0 1-.543.829z" class="cls-3" data-name="패스 3906"/>
                    <path id="패스_3907" d="M1081.9 205.575a.6.6 0 0 1-.236-.049.594.594 0 0 1-.307-.78 2.763 2.763 0 0 1 3.363-1.378.593.593 0 0 1-.321 1.141c-.153-.042-1.485-.37-1.955.71a.593.593 0 0 1-.544.356z" class="cls-3" data-name="패스 3907"/>
                    <path id="사각형_3074" d="M0 0h14.061v7.582H0z" class="cls-2" data-name="사각형 3074" transform="translate(1090.847 218.759)"/>
                    <path id="패스_3908" d="M1111.892 197.52v9.55a13.946 13.946 0 0 1-1.462 6.239q-.294.591-.642 1.149a14.038 14.038 0 0 1-9.246 6.372 14.733 14.733 0 0 1-2.67.25 14.007 14.007 0 0 1-14.01-14.01v-9.55a14.007 14.007 0 0 1 14.01-14.01 14.734 14.734 0 0 1 2.67.25 14.029 14.029 0 0 1 11.35 13.76z" class="cls-2" data-name="패스 3908"/>
                    <path id="패스_3909" d="M1099.022 220.85a12.749 12.749 0 0 1-15.16-12.51v-8.68a12.749 12.749 0 0 1 15.16-12.51 12.741 12.741 0 0 0-10.32 12.51v8.68a12.741 12.741 0 0 0 10.32 12.51z" class="cls-4" data-name="패스 3909"/>
                    <path id="패스_3910" d="M1113.472 197.946v3.505c-17.525-.023-23.945-7.454-24.546-8.154a.189.189 0 0 1-.056-.057c0 3.173-3.138 5.9-6.587 7.043v-2.27a10.088 10.088 0 0 1 .178-1.837c.089-.508.189-1.017.312-1.525.066-.248.144-.5.211-.756a16.7 16.7 0 0 1 1.958-4.155s.023-.011.023-.022a18.8 18.8 0 0 1 .879-1.2c.178-.2.344-.406.523-.61s.344-.372.522-.553a15.607 15.607 0 0 1 1.714-1.5c.378-.283.779-.554 1.179-.8a15.352 15.352 0 0 1 8.09-2.292 15.876 15.876 0 0 1 2.859.26c.034.011.078.011.112.022a15.482 15.482 0 0 1 8.055 4.347 14.415 14.415 0 0 1 4.574 10.554z" class="cls-1" data-name="패스 3910"/>
                    <g id="그룹_3376" data-name="그룹 3376">
                        <circle id="타원_1037" cx="1.482" cy="1.482" r="1.482" class="cls-5" data-name="타원 1037" transform="translate(1089.665 202.572)"/>
                        <circle id="타원_1038" cx="1.482" cy="1.482" r="1.482" class="cls-5" data-name="타원 1038" transform="translate(1102.383 202.572)"/>
                    </g>
                    <path id="패스_3911" d="M1097.692 202.752v4.722a2.121 2.121 0 0 0-1.507 2.048s.127 1.561 1.507 1.561" class="cls-6" data-name="패스 3911"/>
                    <path id="패스_3912" d="M1089.506 213.818a7.58 7.58 0 0 1 1.568 5.506 5.062 5.062 0 0 1-5.873-1.872 7.9 7.9 0 0 1-1.188-7.15 13.652 13.652 0 0 1 5.493 3.516z" class="cls-4" data-name="패스 3912"/>
                    <path id="패스_3913" d="M1106.017 213.818a7.586 7.586 0 0 0-1.568 5.506 5.062 5.062 0 0 0 5.873-1.872 7.9 7.9 0 0 0 1.188-7.15 13.653 13.653 0 0 0-5.493 3.516z" class="cls-2" data-name="패스 3913"/>
                    <path id="패스_3914" d="M1102.749 216.767a.325.325 0 0 1-.458-.038 2.98 2.98 0 0 1 .35-4.193.325.325 0 0 1 .42.5 2.328 2.328 0 0 0-.273 3.277.326.326 0 0 1-.039.458z" class="cls-7" data-name="패스 3914"/>
                    <path id="패스_3915" d="M1092.631 216.767a.325.325 0 0 0 .458-.038 2.98 2.98 0 0 0-.35-4.193.325.325 0 0 0-.42.5 2.328 2.328 0 0 1 .273 3.277.326.326 0 0 0 .039.458z" class="cls-7" data-name="패스 3915"/>
                    <g id="그룹_3377" data-name="그룹 3377">
                        <path id="사각형_3075" d="M0 0h8.471v.75H0z" class="cls-8" data-name="사각형 3075" transform="translate(1093.463 214.276)"/>
                    </g>
                </g>
            </g>
            <path id="패스_3916" d="M1083.194 199.164l.681 3.42s.4-2.959 1.151-3.9z" class="cls-1" data-name="패스 3916"/>
            <path id="패스_3917" d="M1112.725 201.077l-.834 2.322s-.4-2.96-1.151-3.9l1.152.476z" class="cls-1" data-name="패스 3917"/>
        </g>
        <path id="사각형_3076" d="M0 0h50v50H0z" class="cls-9" data-name="사각형 3076" transform="translate(1072.692 179.552)"/>
    </g>
</svg>
