<svg xmlns="http://www.w3.org/2000/svg" width="50" height="50" viewBox="0 0 50 50">
    <defs>
        <style>
            .cls-1{fill:#faddc7}.cls-2{fill:#f5a16b}.cls-2,.cls-3{stroke:#f6c9ad}.cls-2,.cls-3,.cls-4{stroke-linecap:round;stroke-linejoin:round}.cls-3,.cls-5{fill:none}.cls-4{fill:#dd8554;stroke:#dd8554;opacity:.3}
        </style>
    </defs>
    <g id="그룹_1776" data-name="그룹 1776" transform="translate(-481.211 -94.101)">
        <g id="그룹_1775" data-name="그룹 1775" transform="translate(488.25 99.292)">
            <path id="패스_1774" d="M523.949 115.23c0-9.954-7.2-15.938-16.034-15.938-7.243 0-12.587 4.873-14.908 11.46l-4.432 6.712a1.991 1.991 0 0 0 .562 2.749l2.5 1.656c.269 4 1.51 7.011 3.978 8.617a10.284 10.284 0 0 0 3.439 1.311v4.352a1.989 1.989 0 0 0 1.983 1.984h11.776a1.989 1.989 0 0 0 1.983-1.984v-4.384c5.062-.35 9.151-6.165 9.153-16.535z" class="cls-1" data-name="패스 1774" transform="translate(-488.25 -99.292)"/>
            <g id="그룹_1764" data-name="그룹 1764" transform="translate(7.805 4.479)">
                <g id="그룹_1763" data-name="그룹 1763">
                    <path id="패스_1775" d="M518.689 110.565a3.992 3.992 0 0 0-1.188-.978 4.644 4.644 0 0 0-5.765-4.263 4.647 4.647 0 0 0-7.523.826 3.547 3.547 0 0 0-1.561.154 3.757 3.757 0 0 0-1.9 1.473 4.66 4.66 0 0 0 .2 9.312h5.326l.06-.012a4.649 4.649 0 0 0 6.538 0c.02 0 .039.009.059.012h2.537a4.068 4.068 0 0 0 4.038-3.172 4.016 4.016 0 0 0-.821-3.352z" class="cls-2" data-name="패스 1775" transform="translate(-496.365 -103.771)"/>
                </g>
            </g>
            <g id="그룹_1766" data-name="그룹 1766" transform="translate(19.091 13.845)">
                <g id="그룹_1765" data-name="그룹 1765">
                    <path id="패스_1776" d="M507.522 113.252a1.542 1.542 0 0 0 .219.8 1.592 1.592 0 0 0 2.769-.021" class="cls-3" data-name="패스 1776" transform="translate(-507.522 -113.252)"/>
                </g>
            </g>
            <g id="그룹_1768" data-name="그룹 1768" transform="translate(15.93 11.175)">
                <g id="그룹_1767" data-name="그룹 1767">
                    <path id="패스_1777" d="M505.923 112.158a1.6 1.6 0 0 0-1.6-1.6" class="cls-3" data-name="패스 1777" transform="translate(-504.325 -110.56)"/>
                </g>
            </g>
            <g id="그룹_1770" data-name="그룹 1770" transform="translate(11.33 12.821)">
                <g id="그룹_1769" data-name="그룹 1769">
                    <path id="패스_1778" d="M499.683 112.22a1.6 1.6 0 0 0 1.6 1.6" class="cls-3" data-name="패스 1778" transform="translate(-499.683 -112.22)"/>
                </g>
            </g>
            <g id="그룹_1772" data-name="그룹 1772" transform="translate(22.06 10.196)">
                <g id="그룹_1771" data-name="그룹 1771">
                    <path id="패스_1779" d="M512.108 111.171a1.6 1.6 0 0 0-1.6-1.6" class="cls-3" data-name="패스 1779" transform="translate(-510.51 -109.573)"/>
                </g>
            </g>
            <path id="패스_1780" d="M500.292 109.783a4.356 4.356 0 0 1 .33-1.819s1.428.46 1.537 1.033" class="cls-3" data-name="패스 1780" transform="translate(-488.359 -99.364)"/>
            <path id="패스_1781" d="M505.923 107.4a3.266 3.266 0 0 0-1.71-1.248 3.588 3.588 0 0 0-.287 1.814" class="cls-3" data-name="패스 1781" transform="translate(-488.393 -99.349)"/>
            <path id="패스_1782" d="M512.639 107.126a5.059 5.059 0 0 0-.9-1.8 4.3 4.3 0 0 0-1.921 1.45" class="cls-3" data-name="패스 1782" transform="translate(-488.451 -99.342)"/>
            <path id="패스_1783" d="M517.254 111.359a9.179 9.179 0 0 0 .247-1.772 4.215 4.215 0 0 0-1.822.2" class="cls-3" data-name="패스 1783" transform="translate(-488.498 -99.377)"/>
            <path id="패스_1784" d="M519.638 113.933a4.067 4.067 0 0 1-4.04 3.17h-2.53c-.02 0-.04-.01-.06-.01a4.654 4.654 0 0 1-6.54 0c-.02 0-.04.01-.06.01h-5.33a4.663 4.663 0 0 1-4.16-2.72 4.647 4.647 0 0 0 2.91 1.08l6.211.01c.02 0 .04-.01.06-.01a5.8 5.8 0 0 0 7.42.01l.881.01h1.144a3.008 3.008 0 0 0 2.844-3.19 5.106 5.106 0 0 0-.23-2.34 3.921 3.921 0 0 1 .66.63 3.964 3.964 0 0 1 .82 3.35z" class="cls-4" data-name="패스 1784" transform="translate(-488.56 -99.4)"/>
            <path id="패스_1785" d="M513.4 115.814a1.663 1.663 0 0 1-.524 1.263" class="cls-4" data-name="패스 1785" transform="translate(-488.465 -99.427)"/>
            <path id="패스_1786" d="M505.931 115.808a1.888 1.888 0 0 0 .353 1.275" class="cls-4" data-name="패스 1786" transform="translate(-488.404 -99.427)"/>
        </g>
        <path id="사각형_1945" d="M0 0h49.692v49.692H0z" class="cls-5" data-name="사각형 1945" transform="rotate(-.356 15435.204 -77400.184)"/>
    </g>
</svg>
