<svg xmlns="http://www.w3.org/2000/svg" width="50" height="50" viewBox="0 0 50 50">
    <defs>
        <style>
            .cls-1{fill:#faddc7}.cls-2{fill:#f0ceb7}.cls-3{fill:#f6ceb3}.cls-4{fill:#111}.cls-10,.cls-11,.cls-5{fill:none}.cls-5{stroke:#dd8554}.cls-10,.cls-5{stroke-linecap:round}.cls-5,.cls-8{stroke-linejoin:round}.cls-6{fill:#e03b18}.cls-7{fill:#c7341b}.cls-8,.cls-9{font-family:TmonMonsoriBlack,TmonMonsori}.cls-8{stroke:#339ad7;fill:#fff;font-size:12.179px}.cls-9{fill:#3ea3de;font-size:5.571px}.cls-10{stroke:#111;stroke-miterlimit:10}
        </style>
    </defs>
    <g id="그룹_2550" data-name="그룹 2550" transform="translate(-1362.389 -198.889)">
        <g id="그룹_2549" data-name="그룹 2549">
            <g id="그룹_2548" data-name="그룹 2548">
                <path id="패스_2550" d="M1400.422 223.986a4.65 4.65 0 0 1 .569-.034 4.592 4.592 0 0 1 .374 9.168c-.123.01-.249.016-.374.016" class="cls-1" data-name="패스 2550"/>
                <path id="패스_2551" d="M1374.393 232.087a4.589 4.589 0 0 1-.937.1 4.592 4.592 0 0 1-.428-9.163 4.106 4.106 0 0 1 .431-.021 4.647 4.647 0 0 1 .569.034" class="cls-1" data-name="패스 2551"/>
                <path id="패스_2552" d="M1403.392 229.707a.593.593 0 0 1-.544-.356c-.484-1.113-1.892-.727-1.952-.71a.593.593 0 0 1-.324-1.141 2.763 2.763 0 0 1 3.363 1.378.592.592 0 0 1-.543.829z" class="cls-2" data-name="패스 2552"/>
                <path id="패스_2553" d="M1371.429 229.015a.593.593 0 0 1-.544-.829 2.763 2.763 0 0 1 3.363-1.378.593.593 0 0 1-.321 1.141c-.153-.041-1.485-.37-1.955.71a.592.592 0 0 1-.543.356z" class="cls-2" data-name="패스 2553"/>
                <path id="패스_2554" d="M1401.424 220.961v9.55a13.96 13.96 0 0 1-1.463 6.238q-.294.591-.642 1.15a14.039 14.039 0 0 1-9.245 6.372 14.733 14.733 0 0 1-2.67.25 14.007 14.007 0 0 1-14.01-14.01v-9.55a14.007 14.007 0 0 1 14.01-14.01 14.733 14.733 0 0 1 2.67.25 14.029 14.029 0 0 1 11.35 13.76z" class="cls-1" data-name="패스 2554"/>
                <path id="패스_2555" d="M1388.554 244.291a12.749 12.749 0 0 1-15.16-12.51V223.1a12.749 12.749 0 0 1 15.16-12.51 12.741 12.741 0 0 0-10.32 12.51v8.68a12.741 12.741 0 0 0 10.32 12.511z" class="cls-3" data-name="패스 2555"/>
                <path id="패스_2556" d="M1401.424 220.961v2.07c-15.75-.02-21.52-6.13-22.06-6.75a.173.173 0 0 1-.05-.05c0 2.81-2.82 5.79-5.92 6.8v-2.01a15.906 15.906 0 0 1 .16-2.19c.08-.45.17-.9.28-1.35.06-.22.13-.44.19-.67a14.677 14.677 0 0 1 1.76-3.68s.02-.01.02-.02c.25-.36.51-.72.79-1.06.16-.18.31-.36.47-.54s.31-.33.47-.49a14 14 0 0 1 1.54-1.33c.34-.25.7-.49 1.06-.71a13.942 13.942 0 0 1 7.27-2.03 14.535 14.535 0 0 1 2.57.23c.03.01.07.01.1.02a14.029 14.029 0 0 1 11.35 13.76z" class="cls-4" data-name="패스 2556"/>
                <path id="패스_2557" d="M1386.888 226.193v4.721a2.121 2.121 0 0 0-1.507 2.048s.127 1.561 1.507 1.561" class="cls-5" data-name="패스 2557"/>
                <path id="패스_2558" d="M1389.737 238.529c0 .49-.45.93-1.15 1.2a5.072 5.072 0 0 1-3.519-.01c-.69-.27-1.141-.7-1.141-1.19 0-.84 1.3-1.52 2.9-1.52s2.91.68 2.91 1.52z" class="cls-6" data-name="패스 2558"/>
                <path id="패스_2559" d="M1388.587 239.729a5.072 5.072 0 0 1-3.519-.01c.1-.52.849-.93 1.759-.93.931 0 1.681.411 1.76.94z" class="cls-7" data-name="패스 2559"/>
            </g>
            <text id="z" class="cls-8" transform="translate(1393.7 213.001)">
                <tspan x="0" y="0">z</tspan>
            </text>
            <text id="z-2" class="cls-9" data-name="z" transform="translate(1402.101 216.659)">
                <tspan x="0" y="0">z</tspan>
            </text>
            <text id="z-3" class="cls-9" data-name="z" transform="translate(1402.983 207.862)">
                <tspan x="0" y="0">z</tspan>
            </text>
            <text id="z-4" class="cls-9" data-name="z" transform="translate(1368.864 219.874)">
                <tspan x="0" y="0">z</tspan>
            </text>
            <path id="패스_2560" d="M1378.036 227.128a5.265 5.265 0 0 0 5.05 0" class="cls-10" data-name="패스 2560"/>
            <path id="패스_2561" d="M1390.69 227.128a5.265 5.265 0 0 0 5.05 0" class="cls-10" data-name="패스 2561"/>
        </g>
        <path id="사각형_2744" d="M0 0h50v50H0z" class="cls-11" data-name="사각형 2744" transform="translate(1362.389 198.889)"/>
    </g>
</svg>
