<svg xmlns="http://www.w3.org/2000/svg" width="50" height="50" viewBox="0 0 50 50">
    <defs>
        <style>
            .cls-1{fill:#0089cb}.cls-2{fill:#62c7e6}.cls-3{fill:#22bae3}.cls-4{fill:none}
        </style>
    </defs>
    <g id="그룹_3153" data-name="그룹 3153" transform="translate(-835.68 -244.11)">
        <g id="그룹_3152" data-name="그룹 3152">
            <g id="그룹_3148" data-name="그룹 3148">
                <path id="패스_3532" d="M873.046 286.742H866.7a4.663 4.663 0 0 1 0-9.325h6.494a1.411 1.411 0 0 1 0 2.823H866.7a1.84 1.84 0 0 0 0 3.679h6.347a5.09 5.09 0 0 0 0-10.181h-30.636a1.411 1.411 0 0 1 0-2.823h30.635a7.913 7.913 0 0 1 0 15.827z" class="cls-1" data-name="패스 3532"/>
            </g>
            <g id="그룹_3149" data-name="그룹 3149">
                <path id="패스_3533" d="M873.046 287.388H866.7a4.662 4.662 0 0 1 0-9.324h6.494a1.411 1.411 0 1 1 0 2.822H866.7a1.84 1.84 0 0 0 0 3.68h6.347a5.091 5.091 0 0 0 0-10.182h-30.636a1.411 1.411 0 1 1 0-2.822h30.635a7.913 7.913 0 0 1 0 15.826z" class="cls-2" data-name="패스 3533"/>
            </g>
            <g id="그룹_3150" data-name="그룹 3150">
                <path id="패스_3534" d="M862.527 267.268h-20.116a1.411 1.411 0 1 1 0-2.822h20.116a5.091 5.091 0 1 0 0-10.182h-6.346a1.84 1.84 0 1 0 0 3.68h6.493a1.411 1.411 0 1 1 0 2.822h-6.493a4.662 4.662 0 1 1 0-9.324h6.346a7.913 7.913 0 1 1 0 15.826z" class="cls-1" data-name="패스 3534"/>
            </g>
            <g id="그룹_3151" data-name="그룹 3151">
                <path id="패스_3535" d="M861.929 266.659h-20.116a1.411 1.411 0 0 1 0-2.823h20.116a5.09 5.09 0 0 0 0-10.181h-6.347a1.84 1.84 0 1 0 0 3.679h6.494a1.411 1.411 0 0 1 0 2.823h-6.494a4.663 4.663 0 0 1 0-9.325h6.347a7.913 7.913 0 0 1 0 15.827z" class="cls-2" data-name="패스 3535"/>
            </g>
            <path id="패스_3536" d="M880.556 263.267a3.237 3.237 0 0 0-2.3 2.293.11.11 0 0 1-.213 0 3.231 3.231 0 0 0-2.291-2.292.11.11 0 0 1 0-.213 3.225 3.225 0 0 0 2.291-2.291.11.11 0 0 1 .213 0 3.231 3.231 0 0 0 2.3 2.291.11.11 0 0 1 0 .212z" class="cls-3" data-name="패스 3536"/>
            <path id="패스_3537" d="M854.365 281.526a3.236 3.236 0 0 0-2.3 2.292.11.11 0 0 1-.213 0 3.228 3.228 0 0 0-2.29-2.292.11.11 0 0 1 0-.214 3.22 3.22 0 0 0 2.29-2.29.11.11 0 0 1 .214 0 3.225 3.225 0 0 0 2.3 2.29.11.11 0 0 1-.001.214z" class="cls-3" data-name="패스 3537"/>
        </g>
        <path id="사각형_2976" d="M0 0h50v50H0z" class="cls-4" data-name="사각형 2976" transform="translate(835.68 244.11)"/>
    </g>
</svg>
