<svg xmlns="http://www.w3.org/2000/svg" width="50" height="50" viewBox="0 0 50 50">
    <defs>
        <style>
            .cls-1,.cls-3,.cls-7{fill:none}.cls-2{fill:#faddc7}.cls-3{stroke:#eabd9e;stroke-width:.25px}.cls-3,.cls-7{stroke-linecap:round;stroke-linejoin:round}.cls-4,.cls-6{fill:#e03e18}.cls-4,.cls-5{opacity:.4}.cls-5{fill:#e12019}.cls-7{stroke:#dd8554}
        </style>
    </defs>
    <g id="그룹_3352" data-name="그룹 3352" transform="translate(-837.702 -181.414)">
        <path id="사각형_3066" d="M0 0h50v50H0z" class="cls-1" data-name="사각형 3066" transform="translate(837.702 181.414)"/>
        <g id="그룹_3351" data-name="그룹 3351">
            <g id="그룹_3350" data-name="그룹 3350">
                <g id="그룹_3349" data-name="그룹 3349">
                    <path id="패스_3863" d="M882.357 191.875v10.954a11.113 11.113 0 0 1-10.285 11.232 10.335 10.335 0 0 1-2.878-.24 9.224 9.224 0 0 1-1.766-.543 10.466 10.466 0 0 1-1.906-1 11 11 0 0 1-1.59-1.287 11.262 11.262 0 0 1-1.2-1.375.055.055 0 0 0-.063 0 10.363 10.363 0 0 1-1.2 1.375 11 11 0 0 1-1.59 1.287 11.4 11.4 0 0 1-1.906 1.01 11.368 11.368 0 0 1-4.631.77 11.115 11.115 0 0 1-10.3-11.232v-10.951a2.987 2.987 0 0 1 2.991-2.978h33.329a2.987 2.987 0 0 1 2.995 2.978z" class="cls-2" data-name="패스 3863"/>
                    <path id="패스_3864" d="M858.365 193.691c2.794 0 4.338 2.638 4.338 5.018 0 0 0-5.251 3.953-5.018" class="cls-3" data-name="패스 3864"/>
                    <path id="선_668" d="M0 0v2.97" class="cls-3" data-name="선 668" transform="translate(862.703 198.709)"/>
                </g>
                <path id="패스_3865" d="M868.273 210.338a5.524 5.524 0 0 1-.845 2.94 10.466 10.466 0 0 1-1.906-1 11 11 0 0 1-1.59-1.287 11.262 11.262 0 0 1-1.2-1.375.055.055 0 0 0-.063 0 10.363 10.363 0 0 1-1.2 1.375 11 11 0 0 1-1.59 1.287 11.4 11.4 0 0 1-1.906 1.01 5.5 5.5 0 0 1-.845-2.953 5.572 5.572 0 1 1 11.143 0z" class="cls-4" data-name="패스 3865"/>
                <path id="패스_3866" d="M866.128 210.338a3.349 3.349 0 0 1-.606 1.943 11 11 0 0 1-1.59-1.287 11.262 11.262 0 0 1-1.2-1.375.055.055 0 0 0-.063 0 10.363 10.363 0 0 1-1.2 1.375 11 11 0 0 1-1.59 1.287 3.424 3.424 0 1 1 6.247-1.943z" class="cls-5" data-name="패스 3866"/>
                <path id="패스_3867" d="M870.065 210.338a7.337 7.337 0 0 1-.871 3.483 9.224 9.224 0 0 1-1.766-.543 10.466 10.466 0 0 1-1.906-1 11 11 0 0 1-1.59-1.287 11.262 11.262 0 0 1-1.2-1.375.055.055 0 0 0-.063 0 10.363 10.363 0 0 1-1.2 1.375 11 11 0 0 1-1.59 1.287 11.4 11.4 0 0 1-1.906 1.01 10.189 10.189 0 0 1-1.766.53 7.367 7.367 0 1 1 13.856-3.483z" class="cls-4" data-name="패스 3867"/>
                <path id="패스_3868" d="M864.109 210.338a1.27 1.27 0 0 1-.177.656 11.262 11.262 0 0 1-1.2-1.375.055.055 0 0 0-.063 0 10.363 10.363 0 0 1-1.2 1.375 1.279 1.279 0 0 1-.177-.656 1.408 1.408 0 1 1 2.815 0z" class="cls-6" data-name="패스 3868"/>
            </g>
            <path id="패스_3869" d="M868.744 223.052l-1.5-2.508 2.052-.565-1.081-1.835" class="cls-7" data-name="패스 3869"/>
            <path id="패스_3870" d="M856.372 223.052l-.291-2.907 2.1.36-.2-2.12" class="cls-7" data-name="패스 3870"/>
            <path id="패스_3871" d="M862.7 223.931l-1.51-4.446 2.638.627-1.529-4.564" class="cls-7" data-name="패스 3871"/>
        </g>
    </g>
</svg>
