<svg xmlns="http://www.w3.org/2000/svg" width="50" height="50" viewBox="0 0 50 50">
    <defs>
        <style>
            .cls-1{fill:#90572c}.cls-2{fill:#60371d}.cls-3{fill:#724221}.cls-4{opacity:.4}.cls-5{fill:#f8e9df}.cls-6{fill:none}
        </style>
    </defs>
    <g id="그룹_3191" data-name="그룹 3191" transform="translate(-1011.744 -244.11)">
        <g id="그룹_3190" data-name="그룹 3190">
            <g id="그룹_3183" data-name="그룹 3183">
                <path id="패스_3555" d="M1043.914 259.126c1.49 5.077.04 9.985-3.243 10.988.087-.305.169-.625.239-.958.077-.367.141-.746.182-1.126.024-.191.046-.39.053-.584l.022-.415a.219.219 0 0 1 0-.072c0-.1 0-.192-.007-.3 0-.136-.007-.27-.014-.4a7.188 7.188 0 0 0-.05-.553 4.818 4.818 0 0 0-.129-.739 5.76 5.76 0 0 0-.125-.507 7.1 7.1 0 0 0-2.186-3.385c-2.4-2.089-2.605-6.559-2.424-9.6 3.059-.109 6.336 3.067 7.682 7.651z" class="cls-1" data-name="패스 3555"/>
                <path id="패스_3556" d="M1040.1 269.258c-.079.359-.172.7-.276 1.025-3.123.268-6.537-2.94-7.915-7.634-1.029-3.508-.657-6.931.756-9.042a12 12 0 0 0-.188 8c1.334 4.55 4.58 7.703 7.623 7.651z" class="cls-2" data-name="패스 3556"/>
                <path id="패스_3557" d="M1038.149 261.658c2.488 2.175 2.509 5.2 1.951 7.6-3.043.052-6.289-3.1-7.623-7.648a12 12 0 0 1 .188-8 .008.008 0 0 1 .005-.01 4.6 4.6 0 0 1 2.531-1.959 1.475 1.475 0 0 1 .247-.057c-.178 3.179.085 7.785 2.701 10.074z" class="cls-3" data-name="패스 3557"/>
                <g id="그룹_3181" class="cls-4" data-name="그룹 3181">
                    <path id="패스_3558" d="M1043.278 262.888a.4.4 0 0 1-.111.016.384.384 0 0 1-.381-.387 11.318 11.318 0 0 0-.082-1.423.384.384 0 1 1 .762-.092 11.913 11.913 0 0 1 .088 1.521.385.385 0 0 1-.276.365z" class="cls-5" data-name="패스 3558"/>
                </g>
                <g id="그룹_3182" class="cls-4" data-name="그룹 3182">
                    <path id="패스_3559" d="M1042.767 259.355a.383.383 0 0 1-.476-.26c-.818-2.788-2.537-5.085-4.487-5.994a.384.384 0 1 1 .324-.7c2.144 1 4.021 3.48 4.9 6.473a.385.385 0 0 1-.261.481z" class="cls-5" data-name="패스 3559"/>
                </g>
            </g>
            <g id="그룹_3186" data-name="그룹 3186">
                <path id="패스_3560" d="M1032.121 276.492c-1.292 5.132-5.03 8.626-8.369 7.825.23-.219.463-.454.693-.7.251-.277.5-.571.727-.878.118-.153.237-.313.342-.476l.23-.346a.228.228 0 0 1 .039-.062c.045-.083.1-.165.144-.257.069-.117.131-.236.192-.355.09-.168.163-.331.238-.5a4.825 4.825 0 0 0 .263-.7c.056-.16.107-.33.15-.5a7.091 7.091 0 0 0-.167-4.026c-1.006-3.017 1.082-6.974 2.78-9.5 2.691 1.443 3.904 5.843 2.738 10.475z" class="cls-1" data-name="패스 3560"/>
                <path id="패스_3561" d="M1023.694 283.289c-.25.269-.5.515-.757.744-2.827-1.354-4.143-5.85-2.949-10.594.893-3.546 2.95-6.307 5.239-7.409a12 12 0 0 0-4.222 6.8c-1.157 4.596.041 8.961 2.689 10.459z" class="cls-2" data-name="패스 3561"/>
                <path id="패스_3562" d="M1025.869 275.75c1.04 3.137-.473 5.749-2.175 7.539-2.648-1.5-3.846-5.863-2.689-10.458a12 12 0 0 1 4.222-6.8s0-.008.009-.006a4.6 4.6 0 0 1 3.175-.4 1.481 1.481 0 0 1 .242.077c-1.768 2.646-3.878 6.748-2.784 10.048z" class="cls-3" data-name="패스 3562"/>
                <g id="그룹_3184" class="cls-4" data-name="그룹 3184">
                    <path id="패스_3563" d="M1029.665 279.412a.384.384 0 0 1-.236-.57 11.1 11.1 0 0 0 .651-1.268.384.384 0 0 1 .7.308 12.067 12.067 0 0 1-.7 1.355.385.385 0 0 1-.415.175z" class="cls-5" data-name="패스 3563"/>
                </g>
                <g id="그룹_3185" class="cls-4" data-name="그룹 3185">
                    <path id="패스_3564" d="M1031.017 276.108a.384.384 0 0 1-.279-.466c.709-2.818.393-5.669-.826-7.442a.384.384 0 1 1 .632-.435c1.34 1.949 1.7 5.039.939 8.064a.384.384 0 0 1-.466.279z" class="cls-5" data-name="패스 3564"/>
                </g>
            </g>
            <g id="그룹_3189" data-name="그룹 3189">
                <path id="패스_3565" d="M1047.511 274.1c4.781 2.267 7.479 6.615 6.043 9.734a14.658 14.658 0 0 0-.557-.817 11.223 11.223 0 0 0-.719-.885 7.01 7.01 0 0 0-.4-.428l-.294-.292a.229.229 0 0 1-.053-.051c-.073-.06-.143-.127-.224-.191-.1-.091-.206-.174-.311-.258a6.942 6.942 0 0 0-.446-.331 4.835 4.835 0 0 0-.637-.395 5.298 5.298 0 0 0-.462-.245 7.084 7.084 0 0 0-3.981-.621c-3.156.4-6.629-2.421-8.777-4.579 1.95-2.361 6.501-2.693 10.818-.641z" class="cls-1" data-name="패스 3565"/>
                <path id="패스_3566" d="M1052.534 283.685c.216.3.407.593.582.888-1.879 2.509-6.546 2.922-10.966.826-3.3-1.566-5.61-4.122-6.245-6.582a12 12 0 0 0 5.847 5.467c4.282 2.03 8.796 1.706 10.782-.599z" class="cls-2" data-name="패스 3566"/>
                <path id="패스_3567" d="M1045.564 280.082c3.279-.408 5.547 1.585 6.97 3.6-1.986 2.3-6.5 2.629-10.782.6a12 12 0 0 1-5.847-5.467.009.009 0 0 1 0-.011 4.6 4.6 0 0 1 .222-3.192 1.391 1.391 0 0 1 .123-.223c2.25 2.254 5.863 5.122 9.314 4.693z" class="cls-3" data-name="패스 3567"/>
                <g id="그룹_3187" class="cls-4" data-name="그룹 3187">
                    <path id="패스_3568" d="M1049.9 277.073a.4.4 0 0 1-.063.093.383.383 0 0 1-.542.027 11.105 11.105 0 0 0-1.117-.885.384.384 0 0 1 .439-.63 11.985 11.985 0 0 1 1.193.946.385.385 0 0 1 .09.449z" class="cls-5" data-name="패스 3568"/>
                </g>
                <g id="그룹_3188" class="cls-4" data-name="그룹 3188">
                    <path id="패스_3569" d="M1046.919 275.1a.384.384 0 0 1-.512.182c-2.625-1.245-5.483-1.49-7.46-.64a.384.384 0 0 1-.3-.706c2.173-.934 5.274-.684 8.092.652a.384.384 0 0 1 .18.512z" class="cls-5" data-name="패스 3569"/>
                </g>
            </g>
        </g>
        <path id="사각형_2979" d="M0 0h50v50H0z" class="cls-6" data-name="사각형 2979" transform="translate(1011.744 244.11)"/>
    </g>
</svg>
