<svg xmlns="http://www.w3.org/2000/svg" width="50" height="50" viewBox="0 0 50 50">
    <defs>
        <style>
            .cls-1{fill:#f2b600}.cls-2{fill:#f7721b}.cls-3{fill:#de6617}.cls-4{fill:#db341a}.cls-5{fill:#ea3719}.cls-6{fill:#599130}.cls-7{fill:#5a9932}.cls-8{fill:#67ac31}.cls-9{opacity:.3}.cls-10{fill:#fddfd9}.cls-11{fill:none}
        </style>
    </defs>
    <g id="그룹_3371" data-name="그룹 3371" transform="translate(-955.796 -181.414)">
        <g id="그룹_3370" data-name="그룹 3370">
            <g id="그룹_3364" data-name="그룹 3364">
                <path id="패스_3887" d="M999.546 213.935c.22-.249 2.046-6.63 1.458-10.37a.543.543 0 0 0-.984-.3c-.9 1.277-2.577 3.275-3.939 2.616-1.959-.946-5.361-2.693-2.383-8.01 2.441-4.358 3.381-5.71 2.8-7.9a.538.538 0 0 0-1.034-.1 4.749 4.749 0 0 1-3.538 2.976c-3.547.681-4.892 1.468-6.668 4.665s-3.1 6.223-4.766 4.6c-1.388-1.35-.961-3.052-.187-5.109.193-.514-.269-1.029-.73-.818a8.349 8.349 0 0 0-4.319 4.278 56.176 56.176 0 0 0-3.2 11.168.645.645 0 0 0 .272.62l15.565 10.249a.5.5 0 0 0 .447.058c1.417-.506 8.834-3.179 9.051-3.689.238-.562 2.155-4.934 2.155-4.934z" class="cls-1" data-name="패스 3887"/>
                <path id="패스_3888" d="M989.1 199.275a5.723 5.723 0 0 1 1.534-3.268 4.827 4.827 0 0 0-1.716 1.571 10.217 10.217 0 0 0-.808 1.352s-2.231 3.765-2.71 4.846-.791 2.252-1.916 3.007c-.36.241-.843.09-1.323.074a2.212 2.212 0 0 1-.825-.178 4.207 4.207 0 0 1-2.465-2.311l-.657-1.9a.554.554 0 0 0-.96-.365 11.849 11.849 0 0 0-1.817 2.342 4.606 4.606 0 0 0-.5 1.275 3.052 3.052 0 0 0 1.426 3.292l6.214 3.566a2.632 2.632 0 0 0 1.774.315 2.65 2.65 0 0 1 2.116.547l.08.063a2.662 2.662 0 0 0 1.79.584l7.674-.38a2.839 2.839 0 0 0 2.475-1.889 11.035 11.035 0 0 0 .663-4.629c-.026-.508-.745-.564-1.007-.131l-1.379 1.366c-.989.98-4.144 1.124-4.882 1.035a2.674 2.674 0 0 1-.813-.253c-.071-.034-.14-.069-.208-.1a2.9 2.9 0 0 1-1.451-1.778 13.677 13.677 0 0 1-.462-3.654 20.423 20.423 0 0 1 .153-4.399z" class="cls-2" data-name="패스 3888"/>
            </g>
            <g id="그룹_3369" data-name="그룹 3369">
                <g id="그룹_3366" data-name="그룹 3366">
                    <path id="패스_3890" d="M1003.924 213.423a1.963 1.963 0 0 1-.678 1.78.247.247 0 0 0-.058.051 32.885 32.885 0 0 1-36.056 4.677 8.361 8.361 0 0 1-3.863-10.42 111.072 111.072 0 0 0 18.285 6.035c8.589 1.723 15.828 1.561 22.37-2.123z" class="cls-4" data-name="패스 3890"/>
                    <path id="패스_3891" d="M989.4 212.149a32.541 32.541 0 0 0 12.3-.466 1.871 1.871 0 0 1 2.224 1.74c-6.542 3.684-13.781 3.846-22.37 2.123a111.072 111.072 0 0 1-18.285-6.035 7.866 7.866 0 0 1 2.315-3.31 7.081 7.081 0 0 1 6.069-1.578 7.554 7.554 0 0 1 2.948 1.333 33.425 33.425 0 0 0 14.795 6.193" class="cls-5" data-name="패스 3891"/>
                    <g id="그룹_3365" data-name="그룹 3365">
                        <path id="패스_3892" d="M965 210.511a.964.964 0 0 1-.961.734c-4.372-.22-6.13-2.707-6.2-2.813a1.084 1.084 0 0 1 .2-1.441.913.913 0 0 1 1.333.205c.068.094 1.374 1.82 4.76 1.99a1.006 1.006 0 0 1 .912 1.078 1.108 1.108 0 0 1-.044.247z" class="cls-6" data-name="패스 3892"/>
                    </g>
                    <path id="패스_3893" d="M962.643 209.853a58.246 58.246 0 0 0 9.157 3.184l.116.276-4.833 3.722 1.275 3.779a9.046 9.046 0 0 1-5.827-10.606c.031-.119.069-.237.112-.355z" class="cls-7" data-name="패스 3893"/>
                    <path id="패스_3894" d="M972.843 204.617l-3.058 3.491 2.015 4.929a58.246 58.246 0 0 1-9.157-3.184 8.329 8.329 0 0 1 10.2-5.236z" class="cls-8" data-name="패스 3894"/>
                    <path id="패스_3895" d="M970.715 209.9l-.016-.017-.009.031.025-.014" class="cls-8" data-name="패스 3895"/>
                    <path id="패스_3897" d="M970.61 209.691l.017.014-.022.016z" class="cls-8" data-name="패스 3897"/>
                    <path id="패스_3898" d="M970.61 209.691l.017.014-.022.016z" class="cls-8" data-name="패스 3898"/>
                </g>
                <g id="그룹_3367" class="cls-9" data-name="그룹 3367">
                    <path id="패스_3899" d="M981.626 211.729a.464.464 0 0 1-.4.051 38.334 38.334 0 0 1-7.628-4.062.565.565 0 0 1-.153-.744.478.478 0 0 1 .69-.165 38.2 38.2 0 0 0 7.386 3.943.547.547 0 0 1 .33.673.531.531 0 0 1-.225.304z" class="cls-10" data-name="패스 3899"/>
                </g>
                <g id="그룹_3368" class="cls-9" data-name="그룹 3368">
                    <path id="패스_3900" d="M984.245 212.794a.472.472 0 0 1-.375.059l-1.051-.279a.542.542 0 0 1-.365-.652.5.5 0 0 1 .605-.393l1.05.279a.555.555 0 0 1 .136.986z" class="cls-10" data-name="패스 3900"/>
                </g>
            </g>
            <ellipse id="타원_1033" cx=".757" cy=".815" class="cls-3" data-name="타원 1033" rx=".757" ry=".815" transform="translate(982.575 194.047)"/>
            <ellipse id="타원_1034" cx=".757" cy=".815" class="cls-3" data-name="타원 1034" rx=".757" ry=".815" transform="translate(995.414 199.863)"/>
            <ellipse id="타원_1035" cx=".535" cy=".576" class="cls-3" data-name="타원 1035" rx=".535" ry=".576" transform="translate(997.463 198.011)"/>
            <ellipse id="타원_1036" cx=".378" cy=".407" class="cls-3" data-name="타원 1036" rx=".378" ry=".407" transform="translate(981.871 192.151)"/>
        </g>
        <path id="사각형_3068" d="M0 0h50v50H0z" class="cls-11" data-name="사각형 3068" transform="translate(955.796 181.414)"/>
    </g>
</svg>
