<svg xmlns="http://www.w3.org/2000/svg" width="50" height="50" viewBox="0 0 50 50">
    <defs>
        <style>
            .cls-1{fill:#066298}.cls-2{fill:#818180}.cls-3{fill:none}
        </style>
    </defs>
    <g id="그룹_3404" data-name="그룹 3404" transform="translate(-226.999 -783)">
        <g id="그룹_3403" data-name="그룹 3403" transform="translate(20 -4)">
            <g id="그룹_3402" data-name="그룹 3402" transform="translate(-1035.51 607.441)">
                <path id="패스_3950" d="M1264.8 209.213a6.926 6.926 0 0 1-5.034 1.873 7.148 7.148 0 0 1-4.3-1.4 6.807 6.807 0 0 1-2.528-4.391 24.8 24.8 0 0 1-.426-4.517 21.347 21.347 0 0 1 .426-4.448 6.471 6.471 0 0 1 2.711-4.425 7.59 7.59 0 0 1 4.116-1.345 7.074 7.074 0 0 1 4.849 1.678 7.521 7.521 0 0 1 2.368 4.713h-4.758a3.189 3.189 0 0 0-.816-2.046 2.115 2.115 0 0 0-1.529-.759q-1.333 0-2 1.632a14.271 14.271 0 0 0-.666 5.058 14.424 14.424 0 0 0 .644 5.194 2.139 2.139 0 0 0 2.045 1.472 2.1 2.1 0 0 0 1.425-.725 3.378 3.378 0 0 0 .9-2.08h4.758a7.045 7.045 0 0 1-2.185 4.516z" class="cls-1" data-name="패스 3950"/>
                <path id="패스_3951" d="M1268.5 210.788v-11.815q0-.713-.034-1.426a16.154 16.154 0 0 0-.126-1.379h4.391c.03.169.072.356.126.564a1.043 1.043 0 0 1 .034.494 2.841 2.841 0 0 1 1.253-.909 4.151 4.151 0 0 1 1.505-.31 5.271 5.271 0 0 1 1.77.31 3.129 3.129 0 0 1 1.518 1.253l-1.449 3.54a2.943 2.943 0 0 0-1.172-1.287 2.657 2.657 0 0 0-1.195-.345 1.622 1.622 0 0 0-1.437.942 4.463 4.463 0 0 0-.54 2.253v6.6a1.344 1.344 0 0 1-.506 1.114 1.932 1.932 0 0 1-1.241.4z" class="cls-1" data-name="패스 3951"/>
            </g>
            <g id="그룹_3400" data-name="그룹 3400" transform="translate(74.241 -4)">
                <g id="그룹_3399" data-name="그룹 3399" transform="translate(-2788.452 580.595)">
                    <path id="패스_2814" d="M2931.35 249.6v-5.2h1.35l1.05 2.988 1.044-2.988h1.356v4.776a.372.372 0 0 1-.144.3.517.517 0 0 1-.336.117h-.738v-2.448c0-.02 0-.067.006-.141s.006-.123.006-.147c0 .016-.011.058-.021.126a.729.729 0 0 1-.027.132l-.582 1.692a.423.423 0 0 1-.425.312h-.583l-.684-2.04a1.109 1.109 0 0 1-.026-.144.7.7 0 0 0-.034-.144c0 .036.006.094.006.174v2.208a.373.373 0 0 1-.144.3.517.517 0 0 1-.336.117z" class="cls-2" data-name="패스 2814"/>
                    <path id="패스_2815" d="M2936.948 244.4h1.218v4.776a.371.371 0 0 1-.145.3.515.515 0 0 1-.336.117h-.737z" class="cls-2" data-name="패스 2815"/>
                    <path id="패스_2816" d="M2941.772 249.6l-1.524-2.706q-.012-.03-.042-.141a.7.7 0 0 0-.048-.141c0 .028.01.083.019.165s.011.135.011.159v2.244a.373.373 0 0 1-.144.3.517.517 0 0 1-.336.117h-.737v-5.2h1.1l1.494 2.646a.54.54 0 0 1 .054.141 1.092 1.092 0 0 0 .054.153q0-.048-.012-.156t-.012-.15V244.4h1.224v4.776a.373.373 0 0 1-.144.3.517.517 0 0 1-.336.117z" class="cls-2" data-name="패스 2816"/>
                    <path id="패스_2817" d="M2944.886 245.341v1.164h1.86v.618a.32.32 0 0 1-.088.252.379.379 0 0 1-.261.078h-1.511v1.212h2.177v.522a.415.415 0 0 1-.107.309.432.432 0 0 1-.313.1h-2.555a.431.431 0 0 1-.313-.1.416.416 0 0 1-.107-.309V244.4h3.4v.606a.324.324 0 0 1-.087.252.376.376 0 0 1-.26.078z" class="cls-2" data-name="패스 2817"/>
                    <path id="패스_2818" d="M2947.664 249.6v-5.2h1.991a1.632 1.632 0 0 1 1.231.459 1.576 1.576 0 0 1 .444 1.137 1.417 1.417 0 0 1-.336.948 1.048 1.048 0 0 1-.643.426 1.4 1.4 0 0 1 .307.291 1.3 1.3 0 0 1 .168.339c.1.276.2.574.309.894a1.851 1.851 0 0 0 .386.7h-1.321a1.331 1.331 0 0 1-.337-.705 7.674 7.674 0 0 0-.227-.861 1.3 1.3 0 0 0-.166-.339c-.07-.1-.132-.153-.188-.153h-.4v1.638a.371.371 0 0 1-.145.3.517.517 0 0 1-.336.117zm2.447-3.6a.716.716 0 0 0-.152-.486.471.471 0 0 0-.363-.174h-.714v1.32h.714a.468.468 0 0 0 .363-.174.716.716 0 0 0 .152-.486z" class="cls-2" data-name="패스 2818"/>
                    <path id="패스_2819" d="M2954.66 249.6l-.282-.936H2953l-.288.936h-1.254l1.721-5.2h1.009l1.728 5.2zm-.942-3.36l-.034.132c-.015.06-.024.106-.032.138l-.378 1.272h.858l-.36-1.272q-.012-.048-.027-.138a1.743 1.743 0 0 0-.027-.131z" class="cls-2" data-name="패스 2819"/>
                    <path id="패스_2820" d="M2959.448 249.5a.431.431 0 0 1-.312.1h-2.514a.432.432 0 0 1-.313-.1.415.415 0 0 1-.107-.309V244.4h1.218v4.26h2.135v.522a.415.415 0 0 1-.107.318z" class="cls-2" data-name="패스 2820"/>
                </g>
            </g>
        </g>
        <path id="사각형_3079" d="M0 0h50v50H0z" class="cls-3" data-name="사각형 3079" transform="translate(226.999 783)"/>
    </g>
</svg>
