<svg xmlns="http://www.w3.org/2000/svg" width="50" height="50" viewBox="0 0 50 50">
    <defs>
        <style>
            .cls-1{fill:#faddc7}.cls-2{fill:#f0ceb7}.cls-3{fill:#f6ceb3}.cls-4{fill:#e03b18}.cls-5{fill:#111}.cls-6,.cls-7,.cls-9{fill:none}.cls-6{stroke:#343535}.cls-6,.cls-8{stroke-linecap:round;stroke-linejoin:round}.cls-7,.cls-8{stroke:#dd8554}.cls-7{stroke-miterlimit:10}.cls-8{fill:#dd8554}
        </style>
    </defs>
    <g id="그룹_1760" data-name="그룹 1760" transform="translate(-670.473 -94.317)">
        <g id="그룹_1759" data-name="그룹 1759" transform="translate(676.357 99.279)">
            <path id="패스_1761" d="M708.826 119.131a4.651 4.651 0 0 1 .569-.034 4.592 4.592 0 0 1 .373 9.168c-.123.01-.248.015-.373.015" class="cls-1" data-name="패스 1761" transform="translate(-676.667 -99.476)"/>
            <path id="패스_1762" d="M682.8 127.231a4.529 4.529 0 0 1-.938.1 4.591 4.591 0 0 1-.428-9.162 4.106 4.106 0 0 1 .431-.021 4.636 4.636 0 0 1 .569.034" class="cls-1" data-name="패스 1762" transform="translate(-676.357 -99.466)"/>
            <path id="패스_1763" d="M711.8 124.852a.593.593 0 0 1-.544-.356c-.484-1.113-1.893-.728-1.952-.711a.593.593 0 1 1-.324-1.14 2.763 2.763 0 0 1 3.363 1.378.594.594 0 0 1-.307.78.6.6 0 0 1-.236.049z" class="cls-2" data-name="패스 1763" transform="translate(-676.667 -99.468)"/>
            <path id="패스_1764" d="M679.832 124.16a.592.592 0 0 1-.543-.829 2.763 2.763 0 0 1 3.363-1.378.593.593 0 0 1-.322 1.141c-.152-.042-1.485-.37-1.954.71a.593.593 0 0 1-.544.356z" class="cls-2" data-name="패스 1764" transform="translate(-676.357 -99.463)"/>
            <path id="패스_1765" d="M709.517 115.99v9.471a13.865 13.865 0 0 1-1.446 6.188c-.195.391-.406.772-.635 1.14a13.891 13.891 0 0 1-9.144 6.319 14.53 14.53 0 0 1-2.641.248 13.872 13.872 0 0 1-13.851-13.895v-9.471a13.872 13.872 0 0 1 13.852-13.89 14.53 14.53 0 0 1 2.641.248 13.9 13.9 0 0 1 11.225 13.647z" class="cls-1" data-name="패스 1765" transform="translate(-676.357 -99.279)"/>
            <path id="패스_1766" d="M696.957 139.431a12.749 12.749 0 0 1-15.16-12.509v-8.679a12.749 12.749 0 0 1 15.16-12.509 12.74 12.74 0 0 0-10.32 12.509v8.679a12.74 12.74 0 0 0 10.32 12.509z" class="cls-3" data-name="패스 1766" transform="translate(-676.357 -99.585)"/>
            <path id="패스_1767" d="M699.205 132.329a.588.588 0 0 1-.419-.174 4.244 4.244 0 0 0-5.995 0 .593.593 0 0 1-.838-.838 5.43 5.43 0 0 1 7.671 0 .593.593 0 0 1-.419 1.012z" class="cls-4" data-name="패스 1767" transform="translate(-676.519 -99.529)"/>
            <path id="패스_1768" d="M709.517 116.105v2.071c-15.576-.021-21.282-6.131-21.816-6.75a.181.181 0 0 1-.049-.051c0 2.81-2.789 5.79-5.855 6.8v-2.011a16.091 16.091 0 0 1 .158-2.19c.079-.45.168-.9.277-1.35.059-.22.129-.44.188-.67a14.751 14.751 0 0 1 1.741-3.68s.02-.01.02-.02c.247-.36.5-.72.781-1.06.158-.18.307-.36.465-.54s.307-.33.465-.49a13.889 13.889 0 0 1 1.523-1.33c.336-.25.692-.49 1.048-.71a13.674 13.674 0 0 1 7.19-2.03 14.314 14.314 0 0 1 2.542.23c.03.01.069.01.1.02a13.773 13.773 0 0 1 7.16 3.85 14.045 14.045 0 0 1 4.062 9.911z" class="cls-5" data-name="패스 1768" transform="translate(-676.357 -99.279)"/>
            <path id="패스_1769" d="M688.484 121.7l3.848 2.334-3.848 2.179" class="cls-6" data-name="패스 1769" transform="translate(-676.468 -99.473)"/>
            <path id="패스_1770" d="M701.721 121.834l-3.848 2.334 3.848 2.179" class="cls-6" data-name="패스 1770" transform="translate(-676.555 -99.474)"/>
            <path id="패스_1771" d="M676.357 101.509l4.51 1.263-1.762 2.923 3.282.939" class="cls-7" data-name="패스 1771" transform="translate(-676.357 -99.279)"/>
            <path id="패스_1772" d="M682.169 99.872l2.335 1.661-1.62 1.318 1.695 1.221" class="cls-7" data-name="패스 1772" transform="translate(-676.408 -99.279)"/>
            <path id="패스_1773" d="M701.454 106.072l-.865 1.776a1.272 1.272 0 0 0 1.144 1.828h1.657l-1.512 4.013a1.258 1.258 0 0 0 1.968 1.425l3.114-2.507.869-.7 4.075-3.282a1.292 1.292 0 0 0-.81-2.3h-1.754l2.7-4.764a1.529 1.529 0 0 0-1.331-2.284h-4.992a1.54 1.54 0 0 0-1.376.86l-2.434 5z" class="cls-8" data-name="패스 1773" transform="translate(-676.667 -99.279)"/>
        </g>
        <path id="사각형_1945" d="M0 0h49.692v49.692H0z" class="cls-9" data-name="사각형 1945" transform="rotate(-.356 15564.598 -107860.25)"/>
    </g>
</svg>
