<svg xmlns="http://www.w3.org/2000/svg" width="50" height="50" viewBox="0 0 50 50">
    <defs>
        <style>
            .cls-1{fill:#faddc7}.cls-2{fill:#f0ceb7}.cls-3{fill:#f6ceb3}.cls-4{fill:#e03b18}.cls-5{fill:#111}.cls-12,.cls-13,.cls-6,.cls-7{fill:none}.cls-6{stroke:#343535;stroke-linejoin:round}.cls-12,.cls-6{stroke-linecap:round}.cls-7{stroke:#dd8554}.cls-12,.cls-7{stroke-miterlimit:10}.cls-8{fill:#cfcfcf}.cls-9{fill:#fff}.cls-10{fill:#d9371f}.cls-11{fill:#eb3e1b}.cls-12{stroke:#352a25;stroke-width:.5px}
        </style>
    </defs>
    <g id="그룹_2707" data-name="그룹 2707" transform="translate(-889.191 -197.535)">
        <g id="그룹_2706" data-name="그룹 2706">
            <path id="패스_2835" d="M927.389 222.194a4.709 4.709 0 0 1 1.368.035 4.591 4.591 0 0 1-.425 9.1 4.203 4.203 0 0 1-.374.016" class="cls-1" data-name="패스 2835"/>
            <path id="패스_2836" d="M901.361 230.294a4.53 4.53 0 0 1-.938.1 4.592 4.592 0 0 1-.428-9.163c.142-.014.286-.021.431-.021a4.649 4.649 0 0 1 .569.035" class="cls-1" data-name="패스 2836"/>
            <path id="패스_2837" d="M930.359 227.915a.594.594 0 0 1-.544-.357c-.483-1.112-1.892-.727-1.952-.71a.592.592 0 1 1-.323-1.14 2.76 2.76 0 0 1 3.362 1.377.592.592 0 0 1-.307.78.582.582 0 0 1-.236.05z" class="cls-2" data-name="패스 2837"/>
            <path id="패스_2838" d="M898.4 227.223a.592.592 0 0 1-.543-.829 2.76 2.76 0 0 1 3.362-1.378.593.593 0 0 1-.321 1.141c-.153-.042-1.485-.37-1.954.709a.592.592 0 0 1-.544.357z" class="cls-2" data-name="패스 2838"/>
            <path id="패스_2839" d="M928.391 219.168v9.55a13.923 13.923 0 0 1-1.463 6.238q-.294.593-.641 1.15a14.049 14.049 0 0 1-9.246 6.372 14.733 14.733 0 0 1-2.67.25 14.007 14.007 0 0 1-14.01-14.01v-9.55a14.007 14.007 0 0 1 14.01-14.01 14.733 14.733 0 0 1 2.67.25 14.029 14.029 0 0 1 11.35 13.76z" class="cls-1" data-name="패스 2839"/>
            <path id="패스_2840" d="M915.521 242.5a12.749 12.749 0 0 1-15.16-12.51v-8.68a12.749 12.749 0 0 1 15.16-12.51 12.741 12.741 0 0 0-10.32 12.51v8.68a12.741 12.741 0 0 0 10.32 12.51z" class="cls-3" data-name="패스 2840"/>
            <path id="패스_2841" d="M917.768 235.391a.6.6 0 0 1-.419-.173 4.244 4.244 0 0 0-5.995 0 .593.593 0 0 1-.838-.839 5.43 5.43 0 0 1 7.671 0 .593.593 0 0 1-.419 1.012z" class="cls-4" data-name="패스 2841"/>
            <path id="패스_2842" d="M928.391 219.168v2.07c-15.75-.02-21.52-6.13-22.06-6.75a.173.173 0 0 1-.05-.05c0 2.81-2.82 5.79-5.92 6.8v-2.01a15.906 15.906 0 0 1 .16-2.19c.08-.45.17-.9.28-1.35.06-.22.13-.44.19-.67a14.679 14.679 0 0 1 1.76-3.68s.02-.01.02-.02c.25-.36.51-.72.79-1.06.16-.18.31-.36.47-.54s.31-.33.47-.49a14 14 0 0 1 1.54-1.33c.34-.25.7-.49 1.06-.71a13.942 13.942 0 0 1 7.27-2.03 14.536 14.536 0 0 1 2.57.23c.03.01.07.01.1.02a14.029 14.029 0 0 1 11.35 13.76z" class="cls-5" data-name="패스 2842"/>
            <path id="패스_2843" d="M907.048 224.759l3.848 2.334-3.848 2.179" class="cls-6" data-name="패스 2843"/>
            <path id="패스_2844" d="M920.285 224.9l-3.848 2.334 3.848 2.179" class="cls-6" data-name="패스 2844"/>
            <path id="패스_2845" d="M894.921 204.572l4.51 1.263-1.762 2.923 3.282.939" class="cls-7" data-name="패스 2845"/>
            <path id="패스_2846" d="M900.733 202.934l2.335 1.661-1.62 1.318 1.695 1.221" class="cls-7" data-name="패스 2846"/>
            <path id="패스_2847" d="M930.6 220.387a5.107 5.107 0 1 1-8.525-3.793 1.478 1.478 0 0 0 .45-1.1v-7.943a2.966 2.966 0 0 1 5.072-2.1 2.938 2.938 0 0 1 .878 2.1v8a1.4 1.4 0 0 0 .438 1.044 5.1 5.1 0 0 1 1.687 3.792z" class="cls-8" data-name="패스 2847"/>
            <path id="패스_2848" d="M927.4 207.934v3.566h-3.8v-3.569a1.887 1.887 0 0 1 3.234-1.341 1.833 1.833 0 0 1 .566 1.344z" class="cls-9" data-name="패스 2848"/>
            <path id="패스_2849" d="M929.378 220.329a3.883 3.883 0 0 1-3.882 3.882 3.572 3.572 0 0 1-.866-.1 3.878 3.878 0 0 0 1.4-6.92.816.816 0 0 1-.37-.67V211.5h1.74v5.014a.819.819 0 0 0 .37.67 3.88 3.88 0 0 1 1.608 3.145z" class="cls-10" data-name="패스 2849"/>
            <path id="패스_2850" d="M927.633 220.329a3.042 3.042 0 1 1-4.4-3.153.82.82 0 0 0 .37-.67v-5h2.056v5.014a.816.816 0 0 0 .37.67 3.879 3.879 0 0 1 1.604 3.139z" class="cls-11" data-name="패스 2850"/>
            <path id="선_449" d="M0 0h1.774" class="cls-12" data-name="선 449" transform="translate(929.525 208.765)"/>
            <path id="선_450" d="M0 0h1.078" class="cls-12" data-name="선 450" transform="translate(929.525 210.283)"/>
            <path id="선_451" d="M0 0h1.774" class="cls-12" data-name="선 451" transform="translate(929.525 211.8)"/>
            <path id="선_452" d="M0 0h.887" class="cls-12" data-name="선 452" transform="translate(929.525 213.317)"/>
            <path id="선_453" d="M0 0h1.774" class="cls-12" data-name="선 453" transform="translate(929.525 214.834)"/>
        </g>
        <path id="사각형_1945" d="M0 0h50v50H0z" class="cls-13" data-name="사각형 1945" transform="translate(889.191 197.535)"/>
    </g>
</svg>
