<svg xmlns="http://www.w3.org/2000/svg" width="50" height="50" viewBox="0 0 50 50">
    <defs>
        <style>
            .cls-1{fill:#faddc7}.cls-2{fill:#f6ceb3}.cls-3{fill:#ffd2b4}.cls-4{fill:#f6d2b9}.cls-5{fill:#f0c1a4}.cls-6{fill:#e9b594}.cls-7{fill:#e4aa87}.cls-8{fill:#dc9e79}.cls-9{fill:#da906e}.cls-10{fill:#d28062}.cls-11{fill:#cc7456}.cls-12{fill:none}
        </style>
    </defs>
    <g id="그룹_3212" data-name="그룹 3212" transform="translate(-1305.183 -244.11)">
        <g id="그룹_3211" data-name="그룹 3211">
            <path id="패스_3620" d="M1341.564 256.114a2.146 2.146 0 0 0-1.9-.429 2.759 2.759 0 0 0-1.2-3.015 2.444 2.444 0 0 0-2.358.178 2.992 2.992 0 0 0-1.784-2.892 2.684 2.684 0 0 0-2.464.484 3.087 3.087 0 0 0-2.131-2.977 2.885 2.885 0 0 0-2.841 1.243c-.847-1.969-2.438-3.239-4.11-3.057-2.247.245-3.788 3.015-3.443 6.188a7.745 7.745 0 0 0 .721 2.548 2.691 2.691 0 0 1-.1 2.527 7.189 7.189 0 0 0-.93 4.49v.006a7.18 7.18 0 0 0 .325 1.45 23.849 23.849 0 0 1 .907 3.413 43.1 43.1 0 0 1 .314 12.85 35.847 35.847 0 0 1-.854 4.3 7.348 7.348 0 0 0-.194 1.148v.008c-.019.215-.03.432-.03.652a7.359 7.359 0 0 0 14.719 0 7.172 7.172 0 0 0-.041-.766c-.05-.477-.1-.955-.109-1.434-.094-3.579.346-10.819 4.762-16.365 0 0 2.057-2.6 2.057-4.381a4.244 4.244 0 0 0-.03-.507 2.712 2.712 0 0 1 .67-2.174l.07-.078a2.425 2.425 0 0 0-.032-3.414z" class="cls-1" data-name="패스 3620"/>
            <g id="그룹_3209" data-name="그룹 3209">
                <path id="패스_3621" d="M1324.028 257.14a3.037 3.037 0 0 1-1.141-.108c1.766-.553 3.183-2.715 3.364-5.37.2-3.1-1.37-5.741-3.532-6.006a.108.108 0 0 1 .06-.012c2.246-.24 4.348 2.139 4.7 5.31s-1.204 5.946-3.451 6.186z" class="cls-2" data-name="패스 3621"/>
                <path id="패스_3622" d="M1326.251 251.662c-.181 2.655-1.6 4.817-3.364 5.37-1.778-.505-3.267-2.559-3.543-5.189-.349-3.159 1.165-5.9 3.375-6.187 2.162.265 3.736 2.907 3.532 6.006z" class="cls-1" data-name="패스 3622"/>
                <path id="패스_3623" d="M1331.752 251.939c-.468 2.114-2.15 3.531-3.736 3.183a1.371 1.371 0 0 1-.312-.108 4.214 4.214 0 0 0 2.619-2.775c.7-2.054 0-4.144-1.538-4.661a1.4 1.4 0 0 0-.24-.06 2.35 2.35 0 0 1 1.189-.06c1.586.361 2.498 2.367 2.018 4.481z" class="cls-2" data-name="패스 3623"/>
                <path id="패스_3624" d="M1330.323 252.239a4.214 4.214 0 0 1-2.619 2.775c-1.405-.529-2.15-2.4-1.706-4.373a4.072 4.072 0 0 1 2.547-3.123 1.4 1.4 0 0 1 .24.06c1.538.522 2.234 2.607 1.538 4.661z" class="cls-1" data-name="패스 3624"/>
                <path id="패스_3625" d="M1335.836 254.629c-.709 2.042-2.534 3.28-4.072 2.739a.8.8 0 0 1-.228-.108 4.206 4.206 0 0 0 2.955-2.318c1.009-1.91.66-4.084-.781-4.841a1.862 1.862 0 0 0-.613-.216 2.364 2.364 0 0 1 1.226.072c1.549.528 2.222 2.63 1.513 4.672z" class="cls-2" data-name="패스 3625"/>
                <path id="패스_3626" d="M1334.491 254.942a4.206 4.206 0 0 1-2.955 2.318c-1.382-.637-1.958-2.619-1.286-4.565a4.17 4.17 0 0 1 2.823-2.81h.024a1.862 1.862 0 0 1 .613.216c1.441.757 1.79 2.931.781 4.841z" class="cls-1" data-name="패스 3626"/>
                <path id="패스_3627" d="M1339.223 257.008c-.888 1.729-2.654 2.594-3.963 1.922a1.474 1.474 0 0 1-.325-.217 3.751 3.751 0 0 0 2.775-1.994c.925-1.609.733-3.483-.409-4.264a2.056 2.056 0 0 1 1.166.216c1.309.673 1.645 2.607.756 4.337z" class="cls-2" data-name="패스 3627"/>
                <path id="패스_3628" d="M1337.71 256.719a3.751 3.751 0 0 1-2.775 1.994c-1.021-.8-1.237-2.546-.432-4.12a3.739 3.739 0 0 1 2.8-2.138c1.14.781 1.332 2.655.407 4.264z" class="cls-1" data-name="패스 3628"/>
                <path id="패스_3629" d="M1341.6 259.53a2.444 2.444 0 0 1-3.388.481 2.624 2.624 0 0 0 2.451-.937 2.416 2.416 0 0 0-.036-3.412 2.024 2.024 0 0 1 .937.457 2.436 2.436 0 0 1 .036 3.411z" class="cls-2" data-name="패스 3629"/>
                <path id="패스_3630" d="M1340.665 259.074a2.624 2.624 0 0 1-2.451.937l-.014-.011a2.424 2.424 0 0 1-.024-3.4 2.617 2.617 0 0 1 2.451-.937 2.416 2.416 0 0 1 .038 3.411z" class="cls-1" data-name="패스 3630"/>
            </g>
            <path id="패스_3631" d="M1338.827 266.665c-4.42 5.55-4.853 12.793-4.757 16.373.012.48.06.948.108 1.429.024.252.036.5.036.769a7.341 7.341 0 0 1-6.462 7.291 7.34 7.34 0 0 0 4.06-6.571 5.5 5.5 0 0 0-.048-.768c-.048-.469-.1-.949-.108-1.43-.1-3.579.348-10.822 4.769-16.36 0 0 2.054-2.607 2.054-4.384 0-5.814-11.628-8.973-14.679-8.973a6.473 6.473 0 0 0-.841.048 7.163 7.163 0 0 1 3.243-.769c3.052 0 14.679 3.147 14.679 8.973 0 1.778-2.054 4.372-2.054 4.372z" class="cls-3" data-name="패스 3631"/>
            <path id="패스_3632" d="M1336.425 267.4c-4.421 5.538-4.865 12.781-4.769 16.36.012.481.06.961.108 1.43a5.5 5.5 0 0 1 .048.768 7.34 7.34 0 0 1-4.06 6.571 5.442 5.442 0 0 1-.889.06 7.353 7.353 0 0 1-7.363-7.351c0-.229.012-.445.024-.661a7.228 7.228 0 0 1 .2-1.153 40.059 40.059 0 0 0 .853-4.3 43.689 43.689 0 0 0-.312-12.853 25.659 25.659 0 0 0-.913-3.411 7.3 7.3 0 0 1-.325-1.454 6.639 6.639 0 0 1-.048-.853 7.228 7.228 0 0 1 3.976-6.462 6.473 6.473 0 0 1 .841-.048c3.051 0 14.679 3.159 14.679 8.973.004 1.775-2.05 4.384-2.05 4.384z" class="cls-1" data-name="패스 3632"/>
            <g id="그룹_3210" data-name="그룹 3210">
                <circle id="타원_853" cx="7.447" cy="7.447" r="7.447" class="cls-1" data-name="타원 853" transform="translate(1318.085 256.136)"/>
                <circle id="타원_854" cx="6.213" cy="6.213" r="6.213" class="cls-4" data-name="타원 854" transform="translate(1319.32 257.37)"/>
                <circle id="타원_855" cx="4.97" cy="4.97" r="4.97" class="cls-5" data-name="타원 855" transform="translate(1320.563 258.613)"/>
                <circle id="타원_856" cx="3.976" cy="3.976" r="3.976" class="cls-6" data-name="타원 856" transform="translate(1321.557 259.607)"/>
                <circle id="타원_857" cx="3.181" cy="3.181" r="3.181" class="cls-7" data-name="타원 857" transform="translate(1322.352 260.402)"/>
                <circle id="타원_858" cx="2.545" cy="2.545" r="2.545" class="cls-8" data-name="타원 858" transform="translate(1322.988 261.038)"/>
                <circle id="타원_859" cx="2.036" cy="2.036" r="2.036" class="cls-9" data-name="타원 859" transform="translate(1323.497 261.547)"/>
                <circle id="타원_860" cx="1.629" cy="1.629" r="1.629" class="cls-10" data-name="타원 860" transform="translate(1323.904 261.954)"/>
                <circle id="타원_861" cx="1.303" cy="1.303" r="1.303" class="cls-11" data-name="타원 861" transform="translate(1324.23 262.28)"/>
            </g>
        </g>
        <path id="사각형_2986" d="M0 0h50v50H0z" class="cls-12" data-name="사각형 2986" transform="translate(1305.183 244.11)"/>
    </g>
</svg>
