<svg xmlns="http://www.w3.org/2000/svg" width="50" height="50" viewBox="0 0 50 50">
    <defs>
        <style>
            .cls-1{fill:#faddc7}.cls-2{fill:#f0ceb7}.cls-3{fill:#f6ceb3}.cls-4{fill:#111}.cls-5{fill:#e03b18}.cls-6{fill:#343535}.cls-7,.cls-9{fill:none}.cls-7{stroke:#dd8554;stroke-linecap:round;stroke-linejoin:round}.cls-8{fill:#c4a694}
        </style>
    </defs>
    <g id="그룹_2869" data-name="그룹 2869" transform="translate(-3533.602 -207.378)">
        <g id="그룹_2868" data-name="그룹 2868">
            <g id="그룹_2867" data-name="그룹 2867">
                <path id="패스_3011" d="M3571.8 230.677a4.65 4.65 0 0 1 .569-.034 4.592 4.592 0 0 1 .374 9.168c-.123.01-.249.016-.374.016" class="cls-1" data-name="패스 3011"/>
                <path id="패스_3012" d="M3545.772 238.777a4.526 4.526 0 0 1-.937.1 4.591 4.591 0 0 1-.428-9.162 4.12 4.12 0 0 1 .432-.021 4.65 4.65 0 0 1 .569.034" class="cls-1" data-name="패스 3012"/>
                <path id="패스_3013" d="M3574.771 236.4a.593.593 0 0 1-.544-.356c-.484-1.113-1.892-.728-1.952-.711a.593.593 0 0 1-.324-1.14 2.763 2.763 0 0 1 3.363 1.378.592.592 0 0 1-.543.829z" class="cls-2" data-name="패스 3013"/>
                <path id="패스_3014" d="M3542.807 235.706a.6.6 0 0 1-.236-.049.594.594 0 0 1-.307-.78 2.763 2.763 0 0 1 3.363-1.378.593.593 0 0 1-.321 1.141c-.153-.041-1.485-.37-1.955.71a.593.593 0 0 1-.544.356z" class="cls-2" data-name="패스 3014"/>
                <path id="패스_3015" d="M3572.8 227.652v9.55a13.951 13.951 0 0 1-1.462 6.238c-.2.394-.411.778-.642 1.15a14.037 14.037 0 0 1-9.246 6.372 14.823 14.823 0 0 1-2.67.25 14.007 14.007 0 0 1-14.01-14.01v-9.55a14.007 14.007 0 0 1 14.01-14.01 14.643 14.643 0 0 1 2.67.25 14.027 14.027 0 0 1 11.35 13.76z" class="cls-1" data-name="패스 3015"/>
                <path id="패스_3016" d="M3559.932 250.981a12.744 12.744 0 0 1-15.16-12.51v-8.68a12.744 12.744 0 0 1 15.16-12.509 12.74 12.74 0 0 0-10.32 12.509v8.68a12.741 12.741 0 0 0 10.32 12.51z" class="cls-3" data-name="패스 3016"/>
                <path id="패스_3017" d="M3572.8 227.652v2.07c-15.75-.02-21.52-6.13-22.06-6.75a.167.167 0 0 1-.05-.051c0 2.81-2.82 5.791-5.92 6.8v-2.01a15.913 15.913 0 0 1 .16-2.19c.08-.45.17-.9.28-1.351.06-.219.13-.44.19-.669a14.66 14.66 0 0 1 1.76-3.68s.02-.01.02-.021c.25-.359.51-.719.79-1.06.16-.179.31-.359.47-.539s.31-.331.47-.49a13.8 13.8 0 0 1 1.54-1.33c.34-.25.7-.49 1.06-.711a13.951 13.951 0 0 1 7.27-2.029 14.631 14.631 0 0 1 2.57.229c.03.011.07.011.1.021a14.027 14.027 0 0 1 11.35 13.76z" class="cls-4" data-name="패스 3017"/>
                <path id="패스_3018" d="M3562.265 243.564a.591.591 0 0 1 0 .838 5.43 5.43 0 0 1-7.671 0 .593.593 0 0 1 .838-.838 4.244 4.244 0 0 0 6 0 .594.594 0 0 1 .838 0z" class="cls-5" data-name="패스 3018"/>
                <g id="그룹_2866" data-name="그룹 2866">
                    <circle id="타원_680" cx="1.482" cy="1.482" r="1.482" class="cls-6" data-name="타원 680" transform="translate(3550.575 232.703)"/>
                    <circle id="타원_681" cx="1.482" cy="1.482" r="1.482" class="cls-6" data-name="타원 681" transform="translate(3563.293 232.703)"/>
                </g>
                <path id="패스_3019" d="M3558.6 232.884v4.716a2.12 2.12 0 0 0-1.506 2.048s.126 1.561 1.506 1.561" class="cls-7" data-name="패스 3019"/>
                <circle id="타원_682" cx=".592" cy=".592" r=".592" class="cls-8" data-name="타원 682" transform="translate(3563.888 238.758)"/>
                <circle id="타원_683" cx=".592" cy=".592" r=".592" class="cls-8" data-name="타원 683" transform="translate(3561.255 237.097)"/>
                <circle id="타원_684" cx=".592" cy=".592" r=".592" class="cls-8" data-name="타원 684" transform="translate(3551.168 238.758)"/>
                <circle id="타원_685" cx=".592" cy=".592" r=".592" class="cls-8" data-name="타원 685" transform="translate(3547.965 238.845)"/>
                <circle id="타원_686" cx=".592" cy=".592" r=".592" class="cls-8" data-name="타원 686" transform="translate(3567.79 238.873)"/>
                <circle id="타원_687" cx=".592" cy=".592" r=".592" class="cls-8" data-name="타원 687" transform="translate(3553.907 237.342)"/>
                <circle id="타원_688" cx=".592" cy=".592" r=".592" class="cls-8" data-name="타원 688" transform="translate(3553.314 240.029)"/>
                <circle id="타원_689" cx=".592" cy=".592" r=".592" class="cls-8" data-name="타원 689" transform="translate(3561.847 240.029)"/>
                <circle id="타원_690" cx=".592" cy=".592" r=".592" class="cls-8" data-name="타원 690" transform="translate(3550.334 240.622)"/>
                <circle id="타원_691" cx=".592" cy=".592" r=".592" class="cls-8" data-name="타원 691" transform="translate(3565.072 240.803)"/>
                <circle id="타원_692" cx=".592" cy=".592" r=".592" class="cls-8" data-name="타원 692" transform="translate(3549.149 236.982)"/>
                <circle id="타원_693" cx=".592" cy=".592" r=".592" class="cls-8" data-name="타원 693" transform="translate(3566.042 236.982)"/>
            </g>
        </g>
        <path id="사각형_2797" d="M0 0h50v50H0z" class="cls-9" data-name="사각형 2797" transform="translate(3533.602 207.378)"/>
    </g>
</svg>
