<svg xmlns="http://www.w3.org/2000/svg" width="50" height="50" viewBox="0 0 50 50">
    <defs>
        <style>
            .cls-1{fill:#6f6f6f}.cls-2{fill:#fdcda6}.cls-3{fill:#ea7312}.cls-4{fill:#ea5517}.cls-5,.cls-6{fill:#fff}.cls-5{opacity:.4}.cls-6{opacity:.9}.cls-7{fill:#898989}.cls-8{fill:none}
        </style>
    </defs>
    <g id="그룹_2879" data-name="그룹 2879" transform="translate(-3651.221 -207.378)">
        <g id="그룹_2878" data-name="그룹 2878">
            <path id="패스_3045" d="M3677.049 220.828v-2.651a.825.825 0 0 0-1.65 0v2.651h-2.475l.979-6.743a1.093 1.093 0 0 1 1.089-.957h2.453a1.1 1.1 0 0 1 1.1.957l.979 6.743z" class="cls-1" data-name="패스 3045"/>
            <path id="패스_3046" d="M3682.964 224.931h-13.486l.143-1.9a2.2 2.2 0 0 1 2.2-2.2h8.8a2.2 2.2 0 0 1 2.2 2.2z" class="cls-2" data-name="패스 3046"/>
            <path id="패스_3047" d="M3668.609 251.628a1.111 1.111 0 0 1-1.1-1.188l.275-3.509h16.874l.275 3.509a1.111 1.111 0 0 1-1.1 1.188z" class="cls-2" data-name="패스 3047"/>
            <path id="패스_3048" d="M3684.655 246.931h-8.426v-22h6.732z" class="cls-3" data-name="패스 3048"/>
            <path id="패스_3049" d="M3676.229 224.931v22h-8.448l1.694-22z" class="cls-4" data-name="패스 3049"/>
            <g id="그룹_2877" data-name="그룹 2877">
                <path id="패스_3050" d="M3670.671 249v2.629h-1.65V249a.825.825 0 1 1 1.65 0z" class="cls-5" data-name="패스 3050"/>
                <path id="패스_3051" d="M3673.861 249v2.629h-1.661V249a.831.831 0 0 1 1.661 0z" class="cls-5" data-name="패스 3051"/>
                <path id="패스_3052" d="M3677.04 249v2.629h-1.65V249a.825.825 0 0 1 1.65 0z" class="cls-5" data-name="패스 3052"/>
                <path id="패스_3053" d="M3680.23 249v2.629h-1.661V249a.83.83 0 0 1 1.661 0z" class="cls-5" data-name="패스 3053"/>
                <path id="패스_3054" d="M3683.42 249v2.629h-1.661V249a.83.83 0 0 1 1.661 0z" class="cls-5" data-name="패스 3054"/>
            </g>
            <path id="패스_3055" d="M3680.343 235.393a1.543 1.543 0 0 1-1.536 1.535h-1.051v1.051a1.536 1.536 0 0 1-3.071 0v-1.051h-1.05a1.535 1.535 0 1 1 0-3.071h1.05v-1.05a1.536 1.536 0 0 1 3.071 0v1.05h1.051a1.544 1.544 0 0 1 1.536 1.536z" class="cls-6" data-name="패스 3055"/>
            <path id="패스_3056" d="M3677.049 218.177v2.651h-1.65v-2.651a.825.825 0 0 1 1.65 0z" class="cls-7" data-name="패스 3056"/>
        </g>
        <path id="사각형_2800" d="M0 0h50v50H0z" class="cls-8" data-name="사각형 2800" transform="translate(3651.221 207.378)"/>
    </g>
</svg>
