<svg xmlns="http://www.w3.org/2000/svg" width="50" height="50" viewBox="0 0 50 50">
    <defs>
        <style>
            .cls-1{fill:#c88559}.cls-2{fill:#dba886}.cls-3{fill:#c06046}.cls-4{fill:#030504}.cls-5{fill:#e13918}.cls-6{fill:none}
        </style>
    </defs>
    <g id="그룹_3168" data-name="그룹 3168" transform="translate(-894.368 -244.11)">
        <g id="그룹_3167" data-name="그룹 3167">
            <g id="그룹_3154" data-name="그룹 3154">
                <path id="패스_3538" d="M933.934 275.505a1.279 1.279 0 0 1-1.06-.561l-2.641-3.893a1.278 1.278 0 0 1-.042-1.371l2.061-3.475a1.28 1.28 0 1 1 2.2 1.306l-1.647 2.776 2.185 3.219a1.28 1.28 0 0 1-1.058 2z" class="cls-1" data-name="패스 3538"/>
            </g>
            <g id="그룹_3155" data-name="그룹 3155">
                <path id="패스_3539" d="M909.359 276.519a14.84 14.84 0 0 1-3.021-1c-4.141-1.9-6.938-5.536-6.938-9.716a10.361 10.361 0 0 1 4.653-8.384 20.264 20.264 0 0 0-.518 4.551 21.748 21.748 0 0 0 5.824 14.549z" class="cls-1" data-name="패스 3539"/>
            </g>
            <g id="그룹_3156" data-name="그룹 3156">
                <path id="패스_3540" d="M936.341 267.348a5.645 5.645 0 0 1-2.681.672s-4.256.026-5.671.967c-.013.006-.025.019-.045.032-.448.3-1.235.889-2.176 1.58a15.941 15.941 0 0 0-2.169 1.978c-.173.179-.346.358-.531.531a14.338 14.338 0 0 1-7.6 3.6 16.19 16.19 0 0 1-6.1-.186 21.748 21.748 0 0 1-5.824-14.553 20.264 20.264 0 0 1 .518-4.551 12.859 12.859 0 0 1 1.728-1.056 15.661 15.661 0 0 1 7.117-1.67c.493 0 .986.019 1.466.064.179.019.358.032.531.058.39 0 .806.006 1.254.032a56.982 56.982 0 0 1 6.541.838c1.184.192 2.24.358 3.117.41.313.019.672.044 1.049.076 2.388.192 5.754.557 6.24.532.007 0 .007 0 .013.006h.013a2.963 2.963 0 0 1 .346-.032 5.64 5.64 0 0 1 2.124.333 5.484 5.484 0 0 1 3.431 3.437 5.7 5.7 0 0 1-2.691 6.902z" class="cls-2" data-name="패스 3540"/>
            </g>
            <g id="그룹_3157" data-name="그룹 3157">
                <path id="패스_3541" d="M905.352 276.155a.64.64 0 0 1-.6-.411 29.975 29.975 0 0 1-1.86-10.61 30.608 30.608 0 0 1 1.289-8.962.639.639 0 1 1 1.223.374 29.36 29.36 0 0 0-1.232 8.588 28.7 28.7 0 0 0 1.775 10.152.641.641 0 0 1-.6.869z" class="cls-3" data-name="패스 3541"/>
            </g>
            <g id="그룹_3158" data-name="그룹 3158">
                <path id="패스_3542" d="M914.479 277.345a.64.64 0 0 1-.574-.356 28.455 28.455 0 0 1-2.722-12.578 30.3 30.3 0 0 1 1.591-9.869.64.64 0 0 1 1.208.422 29.01 29.01 0 0 0-1.519 9.447 27.556 27.556 0 0 0 2.589 12.01.639.639 0 0 1-.289.857.627.627 0 0 1-.284.067z" class="cls-3" data-name="패스 3542"/>
            </g>
            <g id="그룹_3159" data-name="그룹 3159">
                <path id="패스_3543" d="M922.19 275.05a.641.641 0 0 1-.608-.44 34.112 34.112 0 0 1-.415-19.1.64.64 0 0 1 1.233.342 32.845 32.845 0 0 0 .4 18.357.642.642 0 0 1-.607.841z" class="cls-3" data-name="패스 3543"/>
            </g>
            <g id="그룹_3160" data-name="그룹 3160">
                <path id="패스_3544" d="M919.216 285a1.279 1.279 0 0 1-1.06-.561l-2.641-3.893a1.278 1.278 0 0 1-.042-1.371l1.778-3-1.166-4.02a1.28 1.28 0 0 1 2.459-.713l1.321 4.558a1.282 1.282 0 0 1-.129 1.01l-1.646 2.776 2.184 3.214a1.28 1.28 0 0 1-1.058 2z" class="cls-1" data-name="패스 3544"/>
            </g>
            <g id="그룹_3161" data-name="그룹 3161">
                <path id="패스_3545" d="M927.458 280.487a1.277 1.277 0 0 1-1.06-.562l-2.642-3.892a1.282 1.282 0 0 1-.042-1.372l1.779-3-1.166-4.02a1.28 1.28 0 0 1 2.458-.713l1.321 4.553a1.283 1.283 0 0 1-.128 1.009l-1.647 2.776 2.185 3.22a1.281 1.281 0 0 1-1.058 2z" class="cls-1" data-name="패스 3545"/>
            </g>
            <g id="그룹_3162" data-name="그룹 3162">
                <path id="패스_3546" d="M931.154 259.5a.639.639 0 0 1-.632-.546c-.32-2.159-2.4-4.661-2.426-4.686a.64.64 0 1 1 .98-.823c.1.113 2.339 2.808 2.712 5.322a.641.641 0 0 1-.54.727.742.742 0 0 1-.094.006z" class="cls-3" data-name="패스 3546"/>
            </g>
            <g id="그룹_3163" data-name="그룹 3163">
                <path id="패스_3547" d="M935.1 259.5a.769.769 0 0 1-.095-.006.641.641 0 0 1-.539-.727c.372-2.514 2.617-5.209 2.712-5.322a.64.64 0 1 1 .98.823c-.021.025-2.107 2.534-2.426 4.686a.639.639 0 0 1-.632.546z" class="cls-3" data-name="패스 3547"/>
            </g>
            <g id="그룹_3164" data-name="그룹 3164">
                <circle id="타원_836" cx=".908" cy=".908" r=".908" class="cls-4" data-name="타원 836" transform="translate(929.87 261.406)"/>
            </g>
            <g id="그룹_3165" data-name="그룹 3165">
                <circle id="타원_837" cx=".908" cy=".908" r=".908" class="cls-4" data-name="타원 837" transform="translate(935.099 261.406)"/>
            </g>
            <g id="그룹_3166" data-name="그룹 3166">
                <path id="패스_3548" d="M933.434 265.365a1.8 1.8 0 0 1-1.427-.681.32.32 0 0 1 .52-.373 1.16 1.16 0 0 0 .907.414c.83 0 1.076-.374 1.086-.39a.326.326 0 0 1 .437-.108.317.317 0 0 1 .118.428 1.769 1.769 0 0 1-1.641.71z" class="cls-5" data-name="패스 3548"/>
            </g>
        </g>
        <path id="사각형_2977" d="M0 0h50v50H0z" class="cls-6" data-name="사각형 2977" transform="translate(894.368 244.11)"/>
    </g>
</svg>
