<svg xmlns="http://www.w3.org/2000/svg" width="50" height="50" viewBox="0 0 50 50">
    <defs>
        <style>
            .cls-1{fill:#6f6f6f}.cls-2{fill:#fad0d0}.cls-3{fill:#e24017}.cls-4{fill:#d21f20}.cls-5,.cls-6{fill:#fff}.cls-5{opacity:.4}.cls-6{opacity:.9}.cls-7{fill:#898989}.cls-8{fill:none}
        </style>
    </defs>
    <g id="그룹_2876" data-name="그룹 2876" transform="translate(-3592.412 -207.378)">
        <g id="그룹_2875" data-name="그룹 2875">
            <path id="패스_3033" d="M3618.24 220.828v-2.651a.825.825 0 1 0-1.65 0v2.651h-2.475l.979-6.743a1.094 1.094 0 0 1 1.089-.957h2.453a1.1 1.1 0 0 1 1.1.957l.979 6.743z" class="cls-1" data-name="패스 3033"/>
            <path id="패스_3034" d="M3624.155 224.931h-13.486l.143-1.9a2.2 2.2 0 0 1 2.2-2.2h8.8a2.2 2.2 0 0 1 2.2 2.2z" class="cls-2" data-name="패스 3034"/>
            <path id="패스_3035" d="M3609.8 251.628a1.11 1.11 0 0 1-1.1-1.188l.275-3.509h16.874l.275 3.509a1.111 1.111 0 0 1-1.1 1.188z" class="cls-2" data-name="패스 3035"/>
            <path id="패스_3036" d="M3625.85 246.931h-8.45v-22h6.754z" class="cls-3" data-name="패스 3036"/>
            <path id="패스_3037" d="M3617.4 224.931v22h-8.426l1.694-22z" class="cls-4" data-name="패스 3037"/>
            <g id="그룹_2874" data-name="그룹 2874">
                <path id="패스_3038" d="M3611.862 249v2.629h-1.65V249a.825.825 0 0 1 1.65 0z" class="cls-5" data-name="패스 3038"/>
                <path id="패스_3039" d="M3615.052 249v2.629h-1.661V249a.83.83 0 0 1 1.661 0z" class="cls-5" data-name="패스 3039"/>
                <path id="패스_3040" d="M3618.231 249v2.629h-1.65V249a.825.825 0 1 1 1.65 0z" class="cls-5" data-name="패스 3040"/>
                <path id="패스_3041" d="M3621.421 249v2.629h-1.661V249a.83.83 0 0 1 1.661 0z" class="cls-5" data-name="패스 3041"/>
                <path id="패스_3042" d="M3624.611 249v2.629h-1.661V249a.831.831 0 0 1 1.661 0z" class="cls-5" data-name="패스 3042"/>
            </g>
            <path id="패스_3043" d="M3621.533 235.393a1.542 1.542 0 0 1-1.535 1.535h-1.051v1.051a1.536 1.536 0 0 1-3.071 0v-1.051h-1.05a1.535 1.535 0 1 1 0-3.071h1.05v-1.05a1.536 1.536 0 0 1 3.071 0v1.05H3620a1.543 1.543 0 0 1 1.533 1.536z" class="cls-6" data-name="패스 3043"/>
            <path id="패스_3044" d="M3618.24 218.177v2.651h-1.65v-2.651a.825.825 0 1 1 1.65 0z" class="cls-7" data-name="패스 3044"/>
        </g>
        <path id="사각형_2799" d="M0 0h50v50H0z" class="cls-8" data-name="사각형 2799" transform="translate(3592.412 207.378)"/>
    </g>
</svg>
