<svg xmlns="http://www.w3.org/2000/svg" width="50" height="50" viewBox="0 0 50 50">
    <defs>
        <style>
            .cls-1{fill:#111}.cls-2{fill:#faddc7}.cls-3{fill:#f0ceb7}.cls-4{fill:#f6ceb3}.cls-5{fill:#e03b18}.cls-6{fill:#343535}.cls-11,.cls-7{fill:none}.cls-7{stroke:#dd8554;stroke-linecap:round;stroke-linejoin:round}.cls-8{fill:#f69177}.cls-10,.cls-8,.cls-9{opacity:.6}.cls-9{fill:#e15a42}.cls-10{fill:#dd3d29}
        </style>
    </defs>
    <g id="그룹_2873" data-name="그룹 2873" transform="translate(-3404.053 -207.378)">
        <path id="패스_3020" d="M3417.422 224.929c-.332-.954-1.849-.4-2.039.593-.649 3.383-1.047 5.21-1.283 6.553-.278 1.588-1.515 11.667-1.849 13.3a1.034 1.034 0 0 0 .414 1.231 18.673 18.673 0 0 0 6.343.923c3.637-.003.566-16.42-1.586-22.6z" class="cls-1" data-name="패스 3020"/>
        <path id="패스_3021" d="M3441 224.929c.332-.954 1.849-.4 2.039.593.649 3.383 1.047 5.21 1.282 6.553.279 1.588 1.516 11.667 1.849 13.3a1.031 1.031 0 0 1-.414 1.231 18.663 18.663 0 0 1-6.342.923c-3.637-.003-.566-16.42 1.586-22.6z" class="cls-1" data-name="패스 3021"/>
        <g id="그룹_2872" data-name="그룹 2872">
            <g id="그룹_2871" data-name="그룹 2871">
                <path id="패스_3022" d="M3442.252 230.677a4.623 4.623 0 0 1 .568-.034 4.592 4.592 0 0 1 .374 9.168c-.123.01-.248.016-.373.016" class="cls-2" data-name="패스 3022"/>
                <path id="패스_3023" d="M3416.223 238.777a4.528 4.528 0 0 1-.938.1 4.591 4.591 0 0 1-.428-9.162 4.1 4.1 0 0 1 .431-.021 4.65 4.65 0 0 1 .569.034" class="cls-2" data-name="패스 3023"/>
                <path id="패스_3024" d="M3445.221 236.4a.593.593 0 0 1-.544-.356c-.483-1.113-1.892-.728-1.952-.711a.592.592 0 1 1-.323-1.14 2.762 2.762 0 0 1 3.362 1.378.592.592 0 0 1-.543.829z" class="cls-3" data-name="패스 3024"/>
                <path id="패스_3025" d="M3413.258 235.706a.592.592 0 0 1-.543-.829 2.763 2.763 0 0 1 3.363-1.378.593.593 0 0 1-.322 1.141c-.153-.041-1.485-.37-1.954.71a.593.593 0 0 1-.544.356z" class="cls-3" data-name="패스 3025"/>
                <path id="패스_3026" d="M3443.253 227.652v9.55a13.951 13.951 0 0 1-1.462 6.238q-.3.591-.642 1.15a14.149 14.149 0 0 1-1.714 2.225 13.986 13.986 0 0 1-7.532 4.147 14.825 14.825 0 0 1-2.67.25 14.007 14.007 0 0 1-14.01-14.01v-9.55a14.007 14.007 0 0 1 14.01-14.01 14.646 14.646 0 0 1 2.67.25 14.027 14.027 0 0 1 11.35 13.76z" class="cls-2" data-name="패스 3026"/>
                <path id="패스_3027" d="M3430.383 250.981a12.745 12.745 0 0 1-15.16-12.51v-8.68a12.745 12.745 0 0 1 15.16-12.509 12.74 12.74 0 0 0-10.32 12.509v8.68a12.741 12.741 0 0 0 10.32 12.51z" class="cls-4" data-name="패스 3027"/>
                <path id="패스_3028" d="M3443.253 227.652v2.07c-15.75-.02-21.52-6.13-22.06-6.75a.167.167 0 0 1-.05-.051c0 2.81-2.82 5.791-5.92 6.8v-2.01a15.875 15.875 0 0 1 .16-2.19c.08-.45.17-.9.28-1.351.06-.219.13-.44.19-.669a14.66 14.66 0 0 1 1.76-3.68s.02-.01.02-.021c.25-.359.51-.719.79-1.06.16-.179.31-.359.47-.539s.31-.331.47-.49a13.78 13.78 0 0 1 1.54-1.33c.34-.25.7-.49 1.06-.711a13.951 13.951 0 0 1 7.27-2.029 14.631 14.631 0 0 1 2.57.229c.03.011.07.011.1.021a14.027 14.027 0 0 1 11.35 13.76z" class="cls-1" data-name="패스 3028"/>
                <path id="패스_3029" d="M3432.716 243.564a.593.593 0 0 1 0 .838 5.43 5.43 0 0 1-7.671 0 .593.593 0 0 1 .838-.838 4.243 4.243 0 0 0 5.995 0 .594.594 0 0 1 .838 0z" class="cls-5" data-name="패스 3029"/>
                <g id="그룹_2870" data-name="그룹 2870">
                    <circle id="타원_694" cx="1.482" cy="1.482" r="1.482" class="cls-6" data-name="타원 694" transform="translate(3421.025 232.703)"/>
                    <circle id="타원_695" cx="1.482" cy="1.482" r="1.482" class="cls-6" data-name="타원 695" transform="translate(3433.743 232.703)"/>
                </g>
                <path id="패스_3030" d="M3429.053 232.884v4.716a2.12 2.12 0 0 0-1.507 2.048s.127 1.561 1.507 1.561" class="cls-7" data-name="패스 3030"/>
                <circle id="타원_696" cx="1.481" cy="1.481" r="1.481" class="cls-8" data-name="타원 696" transform="translate(3422.509 237.204)"/>
                <circle id="타원_697" cx=".888" cy=".888" r=".888" class="cls-9" data-name="타원 697" transform="translate(3423.101 237.796)"/>
                <circle id="타원_698" cx=".37" cy=".37" r=".37" class="cls-10" data-name="타원 698" transform="translate(3423.619 238.314)"/>
                <circle id="타원_699" cx="1.481" cy="1.481" r="1.481" class="cls-8" data-name="타원 699" transform="translate(3419.211 240.247)"/>
                <circle id="타원_700" cx=".888" cy=".888" r=".888" class="cls-9" data-name="타원 700" transform="translate(3419.803 240.839)"/>
                <circle id="타원_701" cx=".37" cy=".37" r=".37" class="cls-10" data-name="타원 701" transform="translate(3420.321 241.357)"/>
                <circle id="타원_702" cx="1.481" cy="1.481" r="1.481" class="cls-8" data-name="타원 702" transform="translate(3417.227 236.316)"/>
                <circle id="타원_703" cx=".888" cy=".888" r=".888" class="cls-9" data-name="타원 703" transform="translate(3417.819 236.908)"/>
                <circle id="타원_704" cx=".37" cy=".37" r=".37" class="cls-10" data-name="타원 704" transform="translate(3418.337 237.426)"/>
                <circle id="타원_705" cx="1.481" cy="1.481" r="1.481" class="cls-8" data-name="타원 705" transform="translate(3432.143 237.574)"/>
                <circle id="타원_706" cx=".888" cy=".888" r=".888" class="cls-9" data-name="타원 706" transform="translate(3432.735 238.166)"/>
                <circle id="타원_707" cx=".37" cy=".37" r=".37" class="cls-10" data-name="타원 707" transform="translate(3433.253 238.684)"/>
                <circle id="타원_708" cx="1.481" cy="1.481" r="1.481" class="cls-8" data-name="타원 708" transform="translate(3435.104 240.905)"/>
                <circle id="타원_709" cx=".888" cy=".888" r=".888" class="cls-9" data-name="타원 709" transform="translate(3435.696 241.497)"/>
                <circle id="타원_710" cx=".37" cy=".37" r=".37" class="cls-10" data-name="타원 710" transform="translate(3436.215 242.016)"/>
                <circle id="타원_711" cx="1.481" cy="1.481" r="1.481" class="cls-8" data-name="타원 711" transform="translate(3437.177 236.686)"/>
                <circle id="타원_712" cx=".888" cy=".888" r=".888" class="cls-9" data-name="타원 712" transform="translate(3437.769 237.278)"/>
                <circle id="타원_713" cx=".37" cy=".37" r=".37" class="cls-10" data-name="타원 713" transform="translate(3438.287 237.796)"/>
            </g>
        </g>
        <path id="사각형_2798" d="M0 0h50v50H0z" class="cls-11" data-name="사각형 2798" transform="translate(3404.053 207.378)"/>
        <path id="패스_3031" d="M3414.555 229.722l.68 3.42s.4-2.96 1.151-3.9z" class="cls-1" data-name="패스 3031"/>
        <path id="패스_3032" d="M3444.085 230.82l-.834 2.322s-.4-2.96-1.151-3.9l1.153.477z" class="cls-1" data-name="패스 3032"/>
    </g>
</svg>
