<svg xmlns="http://www.w3.org/2000/svg" width="50" height="50" viewBox="0 0 50 50">
    <defs>
        <style>
            .cls-1{fill:#faddc7}.cls-2{fill:#e47056;opacity:.3}.cls-3{fill:#f0ac7f}.cls-15,.cls-4,.cls-5{fill:none}.cls-4,.cls-5{stroke:#f6c7a7;stroke-miterlimit:10}.cls-4{stroke-linecap:round}.cls-6{fill:#ffa717}.cls-7{fill:#f4958d}.cls-8{fill:#ef6a5d}.cls-9{fill:#fab05e}.cls-14,.cls-9{opacity:.4}.cls-10{fill:#e35644}.cls-11{fill:#dc4639}.cls-12{fill:#fcd3a9}.cls-13{fill:#fed4c0}.cls-14{fill:#fff}
        </style>
    </defs>
    <g id="그룹_2442" data-name="그룹 2442" transform="translate(-333.772 -198.005)">
        <g id="그룹_2441" data-name="그룹 2441">
            <path id="패스_2165" d="M352.289 207.464h-10.962v29.356h34.864v-29.356h-23.9z" class="cls-1" data-name="패스 2165"/>
            <circle id="타원_586" cx="1.106" cy="1.106" r="1.106" class="cls-2" data-name="타원 586" transform="translate(356.183 228.392)"/>
            <path id="사각형_2701" d="M0 0h34.858v4.832H0z" class="cls-3" data-name="사각형 2701" transform="translate(341.343 236.883)"/>
            <path id="선_407" d="M13.71 0H0" class="cls-4" data-name="선 407" transform="translate(341.602 207.939)"/>
            <path id="선_408" d="M13.71 0H0" class="cls-4" data-name="선 408" transform="translate(362.384 207.939)"/>
            <path id="선_409" d="M0 0h34.858" class="cls-5" data-name="선 409" transform="translate(341.343 236.883)"/>
            <g id="그룹_2438" data-name="그룹 2438">
                <circle id="타원_587" cx="1.106" cy="1.106" r="1.106" class="cls-2" data-name="타원 587" transform="translate(347.153 220.86)"/>
                <circle id="타원_588" cx="1.106" cy="1.106" r="1.106" class="cls-2" data-name="타원 588" transform="translate(342.721 222.904)"/>
                <circle id="타원_589" cx="1.106" cy="1.106" r="1.106" class="cls-2" data-name="타원 589" transform="translate(348.258 232.464)"/>
                <circle id="타원_590" cx="1.106" cy="1.106" r="1.106" class="cls-2" data-name="타원 590" transform="translate(347.351 211.729)"/>
                <circle id="타원_591" cx="1.106" cy="1.106" r="1.106" class="cls-2" data-name="타원 591" transform="translate(343.826 216.379)"/>
                <circle id="타원_592" cx="1.106" cy="1.106" r="1.106" class="cls-2" data-name="타원 592" transform="translate(342.721 209.597)"/>
                <circle id="타원_593" cx="1.106" cy="1.106" r="1.106" class="cls-2" data-name="타원 593" transform="translate(354.206 233.352)"/>
                <circle id="타원_594" cx="1.106" cy="1.106" r="1.106" class="cls-2" data-name="타원 594" transform="translate(349.828 225.826)"/>
                <circle id="타원_595" cx="1.106" cy="1.106" r="1.106" class="cls-2" data-name="타원 595" transform="translate(342.005 232.464)"/>
                <circle id="타원_596" cx="1.106" cy="1.106" r="1.106" class="cls-2" data-name="타원 596" transform="translate(345.35 228.392)"/>
            </g>
            <g id="그룹_2439" data-name="그룹 2439">
                <circle id="타원_597" cx="1.106" cy="1.106" r="1.106" class="cls-2" data-name="타원 597" transform="translate(369.983 216.636)"/>
                <circle id="타원_598" cx="1.106" cy="1.106" r="1.106" class="cls-2" data-name="타원 598" transform="translate(367.773 222.904)"/>
                <circle id="타원_599" cx="1.106" cy="1.106" r="1.106" class="cls-2" data-name="타원 599" transform="translate(366.667 232.464)"/>
                <circle id="타원_600" cx="1.106" cy="1.106" r="1.106" class="cls-2" data-name="타원 600" transform="translate(367.327 211.028)"/>
                <circle id="타원_601" cx="1.106" cy="1.106" r="1.106" class="cls-2" data-name="타원 601" transform="translate(372.205 221.966)"/>
                <circle id="타원_602" cx="1.106" cy="1.106" r="1.106" class="cls-2" data-name="타원 602" transform="translate(372.205 209.597)"/>
                <circle id="타원_603" cx="1.106" cy="1.106" r="1.106" class="cls-2" data-name="타원 603" transform="translate(360.72 233.352)"/>
                <circle id="타원_604" cx="1.106" cy="1.106" r="1.106" class="cls-2" data-name="타원 604" transform="translate(363.49 228.392)"/>
                <circle id="타원_605" cx="1.106" cy="1.106" r="1.106" class="cls-2" data-name="타원 605" transform="translate(372.92 232.464)"/>
                <circle id="타원_606" cx="1.106" cy="1.106" r="1.106" class="cls-2" data-name="타원 606" transform="translate(369.983 228.274)"/>
            </g>
            <g id="그룹_2440" data-name="그룹 2440">
                <path id="패스_2167" d="M364.166 209.739s.2-1.892 1.046-1.892l5.877-.3a14.344 14.344 0 0 0-6.844-4.079c-.384 1.5-2.659 2.666-5.46 2.666-2.852 0-5.163-1.2-5.482-2.747-5.023 1.324-6.848 4.16-6.848 4.16l6.2.3a2.225 2.225 0 0 1 .724 1.892 2.123 2.123 0 0 1-.5 1.368c-1.456 2.5-2.354 4.327-2.354 7.1 0 5.636 3.7 8.048 8.251 8.048s7.916-2.289 7.916-7.924a14.852 14.852 0 0 0-2.019-7.228 2.732 2.732 0 0 1-.507-1.364z" class="cls-7" data-name="패스 2167"/>
                <path id="패스_2168" d="M362.425 207.746v3.864a.5.5 0 0 0 .161.363 7.808 7.808 0 0 1 2.757 6.138 6.344 6.344 0 0 1-6.581 6.722 6.465 6.465 0 0 1-6.722-6.722 7.954 7.954 0 0 1 2.476-5.917 1.168 1.168 0 0 0 .422-.886v-3.079a1.227 1.227 0 0 0-.845-1.147c-1.912-.664-3.16-1.69-3.16-2.556a.89.89 0 0 1 .061-.362 15.5 15.5 0 0 1 2.314-.785 20.668 20.668 0 0 1 1.832-.382l.362-.061v.081c0 1.328 1.469 2.415 3.28 2.415s3.281-1.087 3.281-2.415a.02.02 0 0 0-.021-.02 19.561 19.561 0 0 1 2.194.463 18.9 18.9 0 0 1 2.294.8.962.962 0 0 1 .081.261c0 .986-1.53 2.113-3.844 2.757a.478.478 0 0 0-.342.468z" class="cls-8" data-name="패스 2168"/>
                <path id="패스_2169" d="M364.219 217.99a.824.824 0 0 1-.02.221.556.556 0 0 1 0 .182 5.424 5.424 0 0 1-5.454 5.293 5.35 5.35 0 0 1-5.414-5.414 6.308 6.308 0 0 1 .241-1.731 5.378 5.378 0 0 1 10.647 1.449z" class="cls-9" data-name="패스 2169"/>
                <path id="패스_2170" d="M361.56 202.911c-.407-.056-.869-.061-1.3-.092a1.512 1.512 0 0 1-2.968-.015c-.3.018-.614.022-.912.05-.252.024-.507.044-.756.073-.039.005-.075.013-.114.018 0 .026-.01.051-.01.077a2.992 2.992 0 0 0 3.1 2.733c1.81 0 3.456-1.4 3.456-2.733a.155.155 0 0 0 0-.03c-.092-.015-.166-.043-.259-.057-.084-.009-.161-.015-.237-.024z" class="cls-10" data-name="패스 2170"/>
                <path id="패스_2171" d="M357.288 202.8a1.512 1.512 0 0 0 2.968.015c-.258-.019-.507-.046-.775-.055-.227-.007-.448-.041-.677-.041h-.011c-.516.003-1.004.056-1.505.081z" class="cls-11" data-name="패스 2171"/>
                <path id="패스_2172" d="M364.2 218.211a.556.556 0 0 1 0 .182 7.712 7.712 0 0 1-3.945.322 4.533 4.533 0 0 1-1.892-.785 5.384 5.384 0 0 1 2.858-.785 6.656 6.656 0 0 1 2.979 1.066z" class="cls-12" data-name="패스 2172"/>
                <path id="패스_2173" d="M364.2 218.393a5.424 5.424 0 0 1-5.454 5.293 5.35 5.35 0 0 1-5.414-5.414 6.308 6.308 0 0 1 .241-1.731 5.762 5.762 0 0 1 1.047-.141 4.885 4.885 0 0 1 1.208.02c1.388.222 1.771.906 2.535 1.51a4.533 4.533 0 0 0 1.892.785 7.558 7.558 0 0 0 2.858-.041 8.674 8.674 0 0 0 1.087-.281z" class="cls-13" data-name="패스 2173"/>
                <path id="패스_2174" d="M363.139 218.676a4.4 4.4 0 0 1-8.734-.785v-.5c.04-.2.141-.644.241-.986a4.885 4.885 0 0 1 1.208.02c1.389.221 1.771.906 2.536 1.509a4.521 4.521 0 0 0 1.891.785 7.557 7.557 0 0 0 2.858-.043z" class="cls-14" data-name="패스 2174"/>
            </g>
        </g>
        <path id="사각형_1945" d="M0 0h49.692v49.692H0z" class="cls-15" data-name="사각형 1945" transform="rotate(-.356 32084.073 -53619.004)"/>
    </g>
</svg>
