<svg xmlns="http://www.w3.org/2000/svg" width="50" height="50" viewBox="0 0 50 50">
    <defs>
        <style>
            .cls-1{fill:#faddc7}.cls-2{fill:#f0ceb7}.cls-3,.cls-7,.cls-9{fill:none}.cls-3{stroke:#fff;stroke-miterlimit:10;opacity:.71}.cls-4{fill:#f6ceb3}.cls-5{fill:#e03b18}.cls-6{fill:#343535}.cls-7{stroke:#dd8554;stroke-linecap:round;stroke-linejoin:round}.cls-8{fill:#111}.cls-10{fill:#fb991b}
        </style>
    </defs>
    <g id="그룹_2865" data-name="그룹 2865" transform="translate(-3474.793 -207.378)">
        <g id="그룹_2864" data-name="그룹 2864">
            <g id="그룹_2863" data-name="그룹 2863">
                <path id="패스_2996" d="M3512.992 229.724a4.65 4.65 0 0 1 .569-.034 4.592 4.592 0 0 1 .373 9.168c-.123.01-.248.015-.373.015" class="cls-1" data-name="패스 2996"/>
                <path id="패스_2997" d="M3486.963 238.777a4.528 4.528 0 0 1-.938.1 4.591 4.591 0 0 1-.428-9.162 4.1 4.1 0 0 1 .431-.021 4.639 4.639 0 0 1 .569.034" class="cls-1" data-name="패스 2997"/>
                <path id="패스_2998" d="M3515.962 235.706a.593.593 0 0 1-.544-.356c-.484-1.113-1.893-.727-1.952-.71a.593.593 0 0 1-.324-1.141 2.763 2.763 0 0 1 3.363 1.378.593.593 0 0 1-.307.78.6.6 0 0 1-.236.049z" class="cls-2" data-name="패스 2998"/>
                <path id="패스_2999" d="M3484 235.706a.592.592 0 0 1-.543-.829 2.763 2.763 0 0 1 3.363-1.378.593.593 0 0 1-.322 1.141c-.152-.041-1.485-.37-1.954.71a.593.593 0 0 1-.544.356z" class="cls-2" data-name="패스 2999"/>
                <path id="패스_3000" d="M3513.991 227.652v9.55a14.082 14.082 0 0 1-.6 4.08 14.967 14.967 0 0 1-.86 2.16c-.2.39-.41.78-.64 1.15a13.716 13.716 0 0 1-1.72 2.22 13.9 13.9 0 0 1-7.53 4.15 14.736 14.736 0 0 1-2.67.25 5.616 5.616 0 0 1-.58-.02 14 14 0 0 1-13.43-13.99v-7.19c2.38-.36 4.92-2.22 6.57-5.09 1.98-3.42 2.09-7.22.49-9.43a13.892 13.892 0 0 1 6.66-1.84 2.815 2.815 0 0 1 .29-.01 14.734 14.734 0 0 1 2.67.25 14.029 14.029 0 0 1 11.35 13.76z" class="cls-1" data-name="패스 3000"/>
                <path id="패스_3001" d="M3495.311 216.2a13.949 13.949 0 0 1 4.37-.789 2.811 2.811 0 0 1 .29-.01 14.736 14.736 0 0 1 2.67.25 13.788 13.788 0 0 1 1.843.488" class="cls-3" data-name="패스 3001"/>
                <path id="패스_3002" d="M3496.962 218.52a8.936 8.936 0 0 1 2.8-.505c.064-.006.122-.006.186-.006a9.364 9.364 0 0 1 1.708.16 8.752 8.752 0 0 1 1.18.312" class="cls-3" data-name="패스 3002"/>
                <path id="패스_3003" d="M3501.121 250.982a12.21 12.21 0 0 1-1.73.21c-.23.01-.46.02-.69.02a12.748 12.748 0 0 1-12.74-12.74v-10.82c0-.26.01-.51.02-.76.01-.16.02-.31.04-.46s.02-.31.04-.46a10.164 10.164 0 0 1 .24-1.36 5.316 5.316 0 0 1 .16-.66.355.355 0 0 1 .02-.1q.12-.42.27-.84c.01-.04.03-.08.04-.12.09-.25.19-.49.29-.73a8.1 8.1 0 0 1 .45-.94 5.358 5.358 0 0 1 .34-.62 14.048 14.048 0 0 1 .86-1.31c.11-.15.22-.29.34-.43.14-.18.29-.36.45-.53.17-.2.36-.4.55-.59.28-.28.57-.54.87-.8.18-.15.37-.31.57-.45.23-.18.46-.34.7-.5.02-.01.04-.03.07-.05.24-.15.49-.31.74-.45a5.541 5.541 0 0 1 .89 1.97 12.639 12.639 0 0 0-3.11 8.33v12.68a12.741 12.741 0 0 0 10.32 12.51z" class="cls-4" data-name="패스 3003"/>
                <path id="패스_3004" d="M3503.456 243.564a.592.592 0 0 1 0 .838 5.43 5.43 0 0 1-7.671 0 .593.593 0 0 1 .838-.838 4.243 4.243 0 0 0 5.995 0 .594.594 0 0 1 .838 0z" class="cls-5" data-name="패스 3004"/>
                <g id="그룹_2862" data-name="그룹 2862">
                    <circle id="타원_678" cx="1.482" cy="1.482" r="1.482" class="cls-6" data-name="타원 678" transform="translate(3491.766 232.703)"/>
                    <circle id="타원_679" cx="1.482" cy="1.482" r="1.482" class="cls-6" data-name="타원 679" transform="translate(3504.483 232.703)"/>
                </g>
                <path id="패스_3005" d="M3499.793 232.884v4.716a2.121 2.121 0 0 0-1.507 2.048s.127 1.561 1.507 1.561" class="cls-7" data-name="패스 3005"/>
                <path id="패스_3006" d="M3492.531 224.922a12.238 12.238 0 0 1-1.73 2.34 8.753 8.753 0 0 1-4.84 2.75v-2.36c0-.26.01-.51.02-.76.01-.16.02-.31.04-.46s.02-.31.04-.46a10.164 10.164 0 0 1 .24-1.36 5.316 5.316 0 0 1 .16-.66.355.355 0 0 1 .02-.1q.12-.42.27-.84c.01-.04.03-.08.04-.12.09-.25.19-.49.29-.73a8.1 8.1 0 0 1 .45-.94 5.358 5.358 0 0 1 .34-.62 14.048 14.048 0 0 1 .86-1.31c.11-.15.22-.29.34-.43.14-.18.29-.36.45-.53.17-.2.36-.4.55-.59.28-.28.57-.54.87-.8.18-.15.37-.31.57-.45.23-.18.46-.34.7-.5.02-.01.04-.03.07-.05.24-.15.49-.31.74-.45a5.541 5.541 0 0 1 .89 1.97 10.424 10.424 0 0 1-1.38 7.46z" class="cls-8" data-name="패스 3006"/>
                <path id="패스_3007" d="M3507.562 224.922c1.65 2.87 4.19 4.73 6.57 5.09v-2.36a13.981 13.981 0 0 0-7.06-12.16c-1.6 2.208-1.49 6.008.49 9.43z" class="cls-8" data-name="패스 3007"/>
            </g>
        </g>
        <path id="사각형_2796" d="M0 0h50v50H0z" class="cls-9" data-name="사각형 2796" transform="translate(3474.793 207.378)"/>
        <path id="패스_3008" d="M3512.51 218.163a2.736 2.736 0 0 0-1.691 1.686.158.158 0 0 1-.3 0 2.72 2.72 0 0 0-1.686-1.685.159.159 0 0 1 0-.3 2.738 2.738 0 0 0 1.687-1.7.158.158 0 0 1 .3 0 2.756 2.756 0 0 0 1.691 1.7.159.159 0 0 1-.001.299z" class="cls-10" data-name="패스 3008"/>
        <path id="패스_3009" d="M3509.488 213.893a1.128 1.128 0 0 0-.694.693.065.065 0 0 1-.121 0 1.121 1.121 0 0 0-.692-.692.065.065 0 0 1 0-.121 1.127 1.127 0 0 0 .692-.7.064.064 0 0 1 .121 0 1.134 1.134 0 0 0 .7.7.065.065 0 0 1-.006.12z" class="cls-10" data-name="패스 3009"/>
        <path id="패스_3010" d="M3490.532 218.743a1.78 1.78 0 0 0-1.1 1.1.1.1 0 0 1-.192 0 1.769 1.769 0 0 0-1.1-1.1.1.1 0 0 1 0-.193 1.781 1.781 0 0 0 1.1-1.1.1.1 0 0 1 .193 0 1.791 1.791 0 0 0 1.1 1.1.1.1 0 0 1-.001.193z" class="cls-10" data-name="패스 3010"/>
    </g>
</svg>
