<svg xmlns="http://www.w3.org/2000/svg" width="50" height="50" viewBox="0 0 50 50">
    <defs>
        <style>
            .cls-1{fill:#ea3524}.cls-2{fill:#f46e0f;stroke:#fff;stroke-linecap:round;stroke-linejoin:round}.cls-3{fill:none}.cls-4{fill:#818180}
        </style>
    </defs>
    <g id="그룹_2583" data-name="그룹 2583" transform="translate(-1729.467 -206.894)">
        <g id="그룹_2581" data-name="그룹 2581">
            <g id="그룹_2578" data-name="그룹 2578">
                <g id="그룹_2577" data-name="그룹 2577">
                    <path id="패스_2639" d="M1764.848 231.219a8.011 8.011 0 0 0-1.993-1.979 7.745 7.745 0 0 0 1.729-1.658 6.426 6.426 0 0 0 1.171-3.875 7.945 7.945 0 0 0-3.05-6.438c-2.015-1.628-4.851-2.456-8.437-2.456h-14.231v26.236a3.016 3.016 0 0 0 1.107 2.474 4.581 4.581 0 0 0 2.958.889h10.616a13.121 13.121 0 0 0 8.308-2.445 8.015 8.015 0 0 0 3.144-6.6 7.219 7.219 0 0 0-1.322-4.148zm-10.08-5.854a1.269 1.269 0 0 1-.95.387h-4.708V222.1h4.708a1.312 1.312 0 0 1 .971.369 1.871 1.871 0 0 1 .465 1.419 1.978 1.978 0 0 1-.486 1.477zm.364 11.326a1.256 1.256 0 0 1-.979.436h-5.043v-4.09h5.043a1.255 1.255 0 0 1 .986.423 2.717 2.717 0 0 1-.007 3.231z" class="cls-1" data-name="패스 2639"/>
                </g>
            </g>
            <g id="그룹_2580" data-name="그룹 2580">
                <g id="그룹_2579" data-name="그룹 2579">
                    <path id="패스_2640" d="M1764.379 239.239a9.07 9.07 0 0 1-.365.025 1.952 1.952 0 0 1-.316-.009 4.078 4.078 0 0 1-2.715-1.369 4.486 4.486 0 0 1-1.022-3.058 4.757 4.757 0 0 1 1.229-3.452 4.825 4.825 0 0 1 6.527 0 4.5 4.5 0 0 1 1.179 3.321 8.814 8.814 0 0 1-.224 1.943 11 11 0 0 1-.839 2.123q-.664 1.395-1.511 3.026t-1.461 2.648h-3.421q.764-1.1 1.561-2.476a26.4 26.4 0 0 0 1.378-2.722zm-1.179-4.444a3.275 3.275 0 0 0 .365 1.648.943.943 0 0 0 1.777.008 3.252 3.252 0 0 0 .366-1.656 3.517 3.517 0 0 0-.341-1.664 1.027 1.027 0 0 0-.922-.631 1.017 1.017 0 0 0-.9.631 3.506 3.506 0 0 0-.345 1.664z" class="cls-2" data-name="패스 2640"/>
                </g>
            </g>
        </g>
        <path id="사각형_2749" d="M0 0h50v50H0z" class="cls-3" data-name="사각형 2749" transform="translate(1729.467 206.894)"/>
        <g id="그룹_2582" data-name="그룹 2582">
            <path id="패스_2641" d="M1745.137 250.694a1.233 1.233 0 0 0 .025-.159 1.006 1.006 0 0 1 .023-.16l.481-1.71h1.253l-1.164 3.535a.455.455 0 0 1-.141.215.357.357 0 0 1-.242.084h-.733l-1.278-3.834h1.248l.492 1.717a.925.925 0 0 1 .022.158c.005.079.01.129.014.154z" class="cls-4" data-name="패스 2641"/>
            <path id="패스_2642" d="M1748.294 247.922a.3.3 0 0 1-.091.234.419.419 0 0 1-.276.078h-.864v-1.1h1.231zm-1.219 4.577v-3.785h1.212v3.366a.372.372 0 0 1-.144.3.521.521 0 0 1-.336.116z" class="cls-4" data-name="패스 2642"/>
            <path id="패스_2643" d="M1748.977 248.815v-1.121h1.206v1.121h.612v.432a.324.324 0 0 1-.086.252.379.379 0 0 1-.261.079h-.265v1.775a.431.431 0 0 0 .055.238.171.171 0 0 0 .149.081h.408v.5a.33.33 0 0 1-.086.252.389.389 0 0 1-.261.078h-.3a1.162 1.162 0 0 1-.866-.306 1.08 1.08 0 0 1-.3-.792v-1.83h-.023a.374.374 0 0 1-.261-.079.317.317 0 0 1-.088-.252v-.432z" class="cls-4" data-name="패스 2643"/>
            <path id="패스_2644" d="M1753.034 252.488c-.012-.045-.023-.069-.031-.073H1753v-.015l-.2.06a1.668 1.668 0 0 1-.479.059 1.342 1.342 0 0 1-1.015-.341 1.2 1.2 0 0 1-.323-.858 1.14 1.14 0 0 1 .33-.819 1.37 1.37 0 0 1 1.02-.351l.635-.012v-.1a.746.746 0 0 0-.1-.422.314.314 0 0 0-.268-.153.41.41 0 0 0-.249.087.481.481 0 0 0-.158.315h-1.152a1.1 1.1 0 0 1 .479-.9 1.894 1.894 0 0 1 2.233.063 1.252 1.252 0 0 1 .425.953v1.819a4.18 4.18 0 0 0 .061.684zm-.067-1.638h-.5a.275.275 0 0 0-.207.123.5.5 0 0 0-.1.322.445.445 0 0 0 .1.312.3.3 0 0 0 .216.108.456.456 0 0 0 .361-.153.758.758 0 0 0 .131-.495z" class="cls-4" data-name="패스 2644"/>
            <path id="패스_2645" d="M1756.758 252.5v-2.3a.988.988 0 0 0-.1-.49.322.322 0 0 0-.582 0 .987.987 0 0 0-.106.487v1.903a.352.352 0 0 1-.131.291.5.5 0 0 1-.325.1h-.756v-3.011c0-.153 0-.288-.011-.408s-.02-.252-.036-.4h1.175l.034.144a.572.572 0 0 1 .021.126.746.746 0 0 1 .342-.234 1.115 1.115 0 0 1 .384-.078 1.225 1.225 0 0 1 .576.131.938.938 0 0 1 .378.343 1.275 1.275 0 0 1 .381-.33 1.094 1.094 0 0 1 .573-.144 1.348 1.348 0 0 1 1.022.4 1.412 1.412 0 0 1 .382 1.025v2.04a.348.348 0 0 1-.133.291.5.5 0 0 1-.323.1h-.763v-2.3a.991.991 0 0 0-.1-.5.322.322 0 0 0-.288-.169.337.337 0 0 0-.291.169.881.881 0 0 0-.112.486v1.928a.352.352 0 0 1-.131.291.507.507 0 0 1-.325.1z" class="cls-4" data-name="패스 2645"/>
            <path id="패스_2646" d="M1761.763 247.922a.291.291 0 0 1-.091.234.414.414 0 0 1-.275.078h-.864v-1.1h1.23zm-1.219 4.577v-3.785h1.212v3.366a.372.372 0 0 1-.143.3.522.522 0 0 1-.336.116z" class="cls-4" data-name="패스 2646"/>
            <path id="패스_2647" d="M1762.363 252.5v-3q0-.234-.006-.417a3.865 3.865 0 0 0-.036-.4h1.188a.8.8 0 0 1 .036.137.745.745 0 0 1 .012.1.783.783 0 0 1 .291-.2 1 1 0 0 1 .4-.084 1.234 1.234 0 0 1 .98.393 1.5 1.5 0 0 1 .345 1.029v2.042a.35.35 0 0 1-.132.291.5.5 0 0 1-.324.1h-.75v-2.31a1.013 1.013 0 0 0-.1-.491.319.319 0 0 0-.3-.18.323.323 0 0 0-.291.186.982.982 0 0 0-.105.485v1.919a.35.35 0 0 1-.132.291.5.5 0 0 1-.324.1z" class="cls-4" data-name="패스 2647"/>
        </g>
    </g>
</svg>
