<svg xmlns="http://www.w3.org/2000/svg" width="50" height="50" viewBox="0 0 50 50">
    <defs>
        <style>
            .cls-1{fill:none}.cls-2{fill:#ea3524}.cls-3{fill:#f46e0f;stroke:#fff;stroke-linecap:round;stroke-linejoin:round}.cls-4{fill:#818180}
        </style>
    </defs>
    <g id="그룹_2569" data-name="그룹 2569" transform="translate(-1670.84 -208.772)">
        <path id="사각형_2747" d="M0 0h50v50H0z" class="cls-1" data-name="사각형 2747" transform="translate(1670.84 208.772)"/>
        <g id="그룹_2568" data-name="그룹 2568">
            <g id="그룹_2566" data-name="그룹 2566">
                <g id="그룹_2563" data-name="그룹 2563">
                    <g id="그룹_2562" data-name="그룹 2562">
                        <path id="패스_2621" d="M1702.909 231.435a8 8 0 0 0-1.993-1.979 7.72 7.72 0 0 0 1.729-1.657 6.422 6.422 0 0 0 1.172-3.875 7.949 7.949 0 0 0-3.051-6.439c-2.015-1.627-4.851-2.456-8.437-2.456H1678.1v26.236a3.018 3.018 0 0 0 1.107 2.474 4.576 4.576 0 0 0 2.958.889h10.616a13.13 13.13 0 0 0 8.309-2.444 8.016 8.016 0 0 0 3.143-6.606 7.219 7.219 0 0 0-1.324-4.143zm-10.08-5.854a1.269 1.269 0 0 1-.95.387h-4.708v-3.648h4.708a1.313 1.313 0 0 1 .972.37 1.874 1.874 0 0 1 .464 1.418 1.973 1.973 0 0 1-.486 1.473zm.364 11.327a1.257 1.257 0 0 1-.978.435h-5.044v-4.09h5.044a1.255 1.255 0 0 1 .986.424 2.236 2.236 0 0 1 .528 1.621 2.26 2.26 0 0 1-.536 1.61z" class="cls-2" data-name="패스 2621"/>
                    </g>
                </g>
                <g id="그룹_2565" data-name="그룹 2565">
                    <g id="그룹_2564" data-name="그룹 2564">
                        <path id="패스_2622" d="M1701.593 244.637v-10.1a9.852 9.852 0 0 1-1.229.762 5.039 5.039 0 0 1-1.428.533v-2.787a6.216 6.216 0 0 0 1.569-.976 3.446 3.446 0 0 0 1.188-1.664h3.138v13.085a1.014 1.014 0 0 1-.4.828 1.444 1.444 0 0 1-.93.32z" class="cls-3" data-name="패스 2622"/>
                        <path id="패스_2623" d="M1713.342 244.416a1.039 1.039 0 0 1-.723.221h-7.871a6.142 6.142 0 0 1 .382-2.517 11.074 11.074 0 0 1 1.495-2.222l3.072-3.788a2.9 2.9 0 0 0 .615-1.673 1.868 1.868 0 0 0-.341-1.205 1.011 1.011 0 0 0-.8-.418.985.985 0 0 0-.847.509 3.083 3.083 0 0 0-.332 1.639h-3.239a4.952 4.952 0 0 1 1.129-3.386 4.121 4.121 0 0 1 3.272-1.287 4.417 4.417 0 0 1 3.2 1.14 4.014 4.014 0 0 1 1.179 3.025 3.469 3.469 0 0 1-.432 1.755 11.135 11.135 0 0 1-1.063 1.524l-3.637 4.46h5.182v1.526a.908.908 0 0 1-.241.697z" class="cls-3" data-name="패스 2623"/>
                    </g>
                </g>
            </g>
            <g id="그룹_2567" data-name="그룹 2567">
                <path id="패스_2624" d="M1686.511 250.685a1.117 1.117 0 0 0 .024-.159 1.12 1.12 0 0 1 .024-.16l.48-1.71h1.254l-1.164 3.535a.456.456 0 0 1-.142.215.354.354 0 0 1-.242.084h-.732l-1.278-3.834h1.248l.492 1.717a.945.945 0 0 1 .021.158c.004.079.011.129.015.154z" class="cls-4" data-name="패스 2624"/>
                <path id="패스_2625" d="M1689.667 247.913a.292.292 0 0 1-.091.234.414.414 0 0 1-.275.078h-.864v-1.1h1.23zm-1.219 4.577v-3.785h1.212v3.365a.376.376 0 0 1-.143.3.521.521 0 0 1-.336.116z" class="cls-4" data-name="패스 2625"/>
                <path id="패스_2626" d="M1690.351 248.806v-1.121h1.206v1.121h.612v.432a.32.32 0 0 1-.087.252.376.376 0 0 1-.261.079h-.264v1.775a.432.432 0 0 0 .054.238.173.173 0 0 0 .15.081h.408v.5a.326.326 0 0 1-.087.252.386.386 0 0 1-.261.078h-.3a1.166 1.166 0 0 1-.867-.306 1.081 1.081 0 0 1-.3-.792v-1.83h-.024a.371.371 0 0 1-.26-.079.317.317 0 0 1-.088-.252v-.432z" class="cls-4" data-name="패스 2626"/>
                <path id="패스_2627" d="M1694.407 252.479c-.011-.045-.022-.069-.03-.073h-.006v-.006l-.2.06a1.67 1.67 0 0 1-.48.059 1.342 1.342 0 0 1-1.014-.341 1.2 1.2 0 0 1-.323-.858 1.14 1.14 0 0 1 .33-.819 1.366 1.366 0 0 1 1.019-.351l.636-.013v-.1a.737.737 0 0 0-.1-.422.313.313 0 0 0-.267-.153.41.41 0 0 0-.249.087.481.481 0 0 0-.158.315h-1.153a1.1 1.1 0 0 1 .48-.9 1.892 1.892 0 0 1 2.232.063 1.252 1.252 0 0 1 .426.953v1.825a4.318 4.318 0 0 0 .061.684zm-.066-1.639l-.5.006a.274.274 0 0 0-.207.123.5.5 0 0 0-.1.322.445.445 0 0 0 .1.312.3.3 0 0 0 .216.108.454.454 0 0 0 .36-.153.752.752 0 0 0 .132-.495z" class="cls-4" data-name="패스 2627"/>
                <path id="패스_2628" d="M1698.132 252.49v-2.3a.973.973 0 0 0-.1-.49.322.322 0 0 0-.582 0 .986.986 0 0 0-.1.487v1.907a.35.35 0 0 1-.132.291.5.5 0 0 1-.324.105h-.756v-3.011c0-.153 0-.288-.012-.409s-.019-.251-.036-.4h1.176l.033.145a.535.535 0 0 1 .022.125.746.746 0 0 1 .341-.233 1.128 1.128 0 0 1 .384-.079 1.223 1.223 0 0 1 .576.132.931.931 0 0 1 .378.343 1.274 1.274 0 0 1 .381-.33 1.1 1.1 0 0 1 .573-.145 1.354 1.354 0 0 1 1.023.4 1.416 1.416 0 0 1 .382 1.026v2.04a.348.348 0 0 1-.133.291.5.5 0 0 1-.323.105h-.763v-2.3a.978.978 0 0 0-.1-.5.319.319 0 0 0-.288-.169.336.336 0 0 0-.291.169.883.883 0 0 0-.111.486v1.925a.35.35 0 0 1-.132.291.5.5 0 0 1-.324.105z" class="cls-4" data-name="패스 2628"/>
                <path id="패스_2629" d="M1703.137 247.913a.291.291 0 0 1-.091.234.416.416 0 0 1-.275.078h-.865v-1.1h1.231zm-1.219 4.577v-3.785h1.212v3.365a.374.374 0 0 1-.144.3.519.519 0 0 1-.335.116z" class="cls-4" data-name="패스 2629"/>
                <path id="패스_2630" d="M1703.736 252.49v-3.005c0-.156 0-.295-.005-.417a3.546 3.546 0 0 0-.037-.4h1.189a.851.851 0 0 1 .036.137.731.731 0 0 1 .012.1.775.775 0 0 1 .291-.2.982.982 0 0 1 .4-.084 1.233 1.233 0 0 1 .981.393 1.5 1.5 0 0 1 .344 1.029v2.045a.352.352 0 0 1-.131.291.506.506 0 0 1-.325.105h-.75v-2.31a1.025 1.025 0 0 0-.1-.491.327.327 0 0 0-.588.005.989.989 0 0 0-.106.486v1.914a.352.352 0 0 1-.131.291.505.505 0 0 1-.325.105z" class="cls-4" data-name="패스 2630"/>
            </g>
        </g>
    </g>
</svg>
