<svg xmlns="http://www.w3.org/2000/svg" width="50" height="50" viewBox="0 0 50 50">
    <defs>
        <style>
            .cls-1{fill:#f4d2cb}.cls-2{fill:#b82e33}.cls-3{fill:#ef737e}.cls-4{clip-path:url(#clip-path)}.cls-5{opacity:.15}.cls-6,.cls-7{fill:none}.cls-6{stroke:#da5730;stroke-miterlimit:10;stroke-width:.5px;opacity:.36}.cls-8{fill:#ca2c2c}.cls-9{fill:#e71821}.cls-10{fill:#e42f36}.cls-11{fill:#e12f38}.cls-12{fill:#920d19}.cls-13{fill:#c41c25}.cls-14{fill:#fffefe;opacity:.68}
        </style>
        <clipPath id="clip-path">
            <path id="패스_2427" d="M866.685 235.658h-.01a.253.253 0 0 1-.09.011h-27.32a4.762 4.762 0 0 1-.83-.071.341.341 0 0 1 .07-.521.865.865 0 0 0 .15-.083c-2.58-1.362-4.83-4.37-5.88-8.7a22.924 22.924 0 0 1-.63-5.318 2.693 2.693 0 0 1-.01-.284c0-.427.01-.853.03-1.267.31-6.964 3.21-9.238 8.04-8.906.35.023.71 0 1.06 0h23.51c-1.88 2.037-3.27 2.9-3.81 6.7a1.533 1.533 0 0 0-.02.213 6.97 6.97 0 0 0-.08.639 23.011 23.011 0 0 0-.14 2.653c0 .261 0 .521.02.77a.194.194 0 0 0 0 .107 23.316 23.316 0 0 0 .56 4.453 19.184 19.184 0 0 0 1.14 3.553 14.847 14.847 0 0 0 1.47 2.641 8.783 8.783 0 0 0 3.14 2.83c.23.13-.09.497-.37.58z" class="cls-1" data-name="패스 2427"/>
        </clipPath>
    </defs>
    <g id="그룹_2507" data-name="그룹 2507" transform="translate(-826.986 -197.689)">
        <g id="그룹_2506" data-name="그룹 2506">
            <path id="패스_2408" d="M838.43 235.137a.182.182 0 0 1 .07-.059 1.022 1.022 0 0 0 .15-.083c.01 0 .01.012.02.012-.01.023 0 .012-.01.035a.34.34 0 0 0-.23.095z" class="cls-2" data-name="패스 2408"/>
            <path id="패스_2409" d="M834.456 230.666c-.09.094-.2.2-.31.308a1.873 1.873 0 0 0-.43.6c-.06-.143-.11-.273-.17-.415a2.179 2.179 0 0 1 .19-1.99 16.224 16.224 0 0 0 .72 1.497z" class="cls-3" data-name="패스 2409"/>
            <path id="패스_2410" d="M838.43 235.137a.182.182 0 0 1 .07-.059 1.022 1.022 0 0 0 .15-.083c.01 0 .01.012.02.012-.01.023 0 .012-.01.035a.34.34 0 0 0-.23.095z" class="cls-2" data-name="패스 2410"/>
            <g id="그룹_2505" data-name="그룹 2505">
                <path id="패스_2411" d="M866.685 235.658h-.01a.253.253 0 0 1-.09.011h-27.32a4.762 4.762 0 0 1-.83-.071.341.341 0 0 1 .07-.521.865.865 0 0 0 .15-.083c-2.58-1.362-4.83-4.37-5.88-8.7a22.924 22.924 0 0 1-.63-5.318 2.693 2.693 0 0 1-.01-.284c0-.427.01-.853.03-1.267.31-6.964 3.21-9.238 8.04-8.906.35.023.71 0 1.06 0h23.51c-1.88 2.037-3.27 2.9-3.81 6.7a1.533 1.533 0 0 0-.02.213 6.97 6.97 0 0 0-.08.639 23.011 23.011 0 0 0-.14 2.653c0 .261 0 .521.02.77a.194.194 0 0 0 0 .107 23.316 23.316 0 0 0 .56 4.453 19.184 19.184 0 0 0 1.14 3.553 14.847 14.847 0 0 0 1.47 2.641 8.783 8.783 0 0 0 3.14 2.83c.23.13-.09.497-.37.58z" class="cls-1" data-name="패스 2411"/>
                <g id="그룹_2504" class="cls-4" data-name="그룹 2504">
                    <g id="그룹_2503" class="cls-5" data-name="그룹 2503">
                        <path id="패스_2412" d="M869.2 237.225h-.012a.277.277 0 0 1-.106.014h-32.139a5.648 5.648 0 0 1-.976-.083.4.4 0 0 1 .083-.613 1.156 1.156 0 0 0 .176-.1c-3.035-1.6-5.681-5.14-6.916-10.239a26.9 26.9 0 0 1-.741-6.255 3.107 3.107 0 0 1-.012-.334c0-.5.012-1 .035-1.49.365-8.192 3.776-11.284 9.457-10.894.412.028.835 0 1.247 0h27.654c-2.211 2.4-3.846 3.831-4.482 8.3a1.943 1.943 0 0 0-.023.251c-.047.251-.071.5-.094.752a26.964 26.964 0 0 0-.165 3.121c0 .306 0 .613.024.9a.225.225 0 0 0 0 .126 27.388 27.388 0 0 0 .658 5.238 22.613 22.613 0 0 0 1.341 4.179 17.432 17.432 0 0 0 1.729 3.106 10.338 10.338 0 0 0 3.694 3.33c.268.166-.106.594-.432.691z" class="cls-6" data-name="패스 2412"/>
                        <path id="패스_2413" d="M871.317 237.225h-.017a.277.277 0 0 1-.106.014h-32.13a5.652 5.652 0 0 1-.977-.083.4.4 0 0 1 .083-.613 1.108 1.108 0 0 0 .176-.1c-3.035-1.6-5.681-5.14-6.916-10.239a26.9 26.9 0 0 1-.741-6.255 3.092 3.092 0 0 1-.012-.334c0-.5.012-1 .035-1.49.365-8.192 3.776-11.284 9.457-10.894.412.028.836 0 1.247 0h27.654c-2.211 2.4-3.846 3.831-4.481 8.3a1.8 1.8 0 0 0-.024.251c-.047.251-.071.5-.094.752a26.978 26.978 0 0 0-.165 3.121c0 .306 0 .613.024.9a.225.225 0 0 0 0 .126 27.382 27.382 0 0 0 .659 5.238 22.608 22.608 0 0 0 1.34 4.179 17.492 17.492 0 0 0 1.73 3.106 10.336 10.336 0 0 0 3.693 3.33c.271.166-.106.594-.435.691z" class="cls-6" data-name="패스 2413"/>
                        <path id="패스_2414" d="M873.437 237.225h-.012a.275.275 0 0 1-.106.014h-32.135a5.64 5.64 0 0 1-.976-.083.4.4 0 0 1 .082-.613 1.065 1.065 0 0 0 .176-.1c-3.034-1.6-5.681-5.14-6.916-10.239a26.949 26.949 0 0 1-.741-6.255 3.092 3.092 0 0 1-.012-.334c0-.5.012-1 .035-1.49.365-8.192 3.776-11.284 9.458-10.894.411.028.835 0 1.246 0h27.654c-2.211 2.4-3.846 3.831-4.481 8.3a1.8 1.8 0 0 0-.024.251c-.047.251-.07.5-.094.752a27.2 27.2 0 0 0-.165 3.121c0 .306 0 .613.024.9a.225.225 0 0 0 0 .126 27.382 27.382 0 0 0 .659 5.238 22.53 22.53 0 0 0 1.341 4.179 17.425 17.425 0 0 0 1.729 3.106 10.336 10.336 0 0 0 3.693 3.33c.271.166-.106.594-.435.691z" class="cls-6" data-name="패스 2414"/>
                        <path id="패스_2415" d="M875.557 237.225h-.012a.272.272 0 0 1-.1.014H843.3a5.64 5.64 0 0 1-.976-.083.4.4 0 0 1 .082-.613 1.113 1.113 0 0 0 .177-.1c-3.035-1.6-5.682-5.14-6.917-10.239a26.949 26.949 0 0 1-.741-6.255 3.092 3.092 0 0 1-.012-.334c0-.5.012-1 .036-1.49.364-8.192 3.775-11.284 9.457-10.894.411.028.835 0 1.247 0h27.654c-2.212 2.4-3.847 3.831-4.482 8.3a1.8 1.8 0 0 0-.024.251c-.047.251-.07.5-.094.752a27.2 27.2 0 0 0-.164 3.121c0 .306 0 .613.023.9a.225.225 0 0 0 0 .126 27.47 27.47 0 0 0 .659 5.238 22.535 22.535 0 0 0 1.341 4.179 17.428 17.428 0 0 0 1.729 3.106 10.336 10.336 0 0 0 3.693 3.33c.275.166-.101.594-.431.691z" class="cls-6" data-name="패스 2415"/>
                        <path id="패스_2416" d="M877.677 237.225h-.011a.28.28 0 0 1-.106.014h-32.136a5.648 5.648 0 0 1-.976-.083.4.4 0 0 1 .082-.613 1.116 1.116 0 0 0 .177-.1c-3.035-1.6-5.682-5.14-6.917-10.239a27 27 0 0 1-.741-6.255 3.092 3.092 0 0 1-.012-.334c0-.5.012-1 .036-1.49.364-8.192 3.776-11.284 9.457-10.894.412.028.835 0 1.247 0h27.654c-2.212 2.4-3.847 3.831-4.482 8.3a1.793 1.793 0 0 0-.023.251c-.047.251-.071.5-.094.752a26.978 26.978 0 0 0-.165 3.121c0 .306 0 .613.023.9a.245.245 0 0 0 0 .126 27.47 27.47 0 0 0 .659 5.238 22.535 22.535 0 0 0 1.341 4.179 17.428 17.428 0 0 0 1.729 3.106 10.33 10.33 0 0 0 3.694 3.33c.27.166-.106.594-.436.691z" class="cls-6" data-name="패스 2416"/>
                        <path id="패스_2417" d="M879.8 237.225h-.012a.28.28 0 0 1-.106.014h-32.138a5.648 5.648 0 0 1-.976-.083.4.4 0 0 1 .082-.613 1.119 1.119 0 0 0 .177-.1c-3.035-1.6-5.681-5.14-6.917-10.239a27.009 27.009 0 0 1-.741-6.255c-.011-.111-.011-.222-.011-.334 0-.5.011-1 .035-1.49.365-8.192 3.776-11.284 9.457-10.894.412.028.835 0 1.247 0h27.654c-2.211 2.4-3.847 3.831-4.482 8.3a1.954 1.954 0 0 0-.023.251c-.047.251-.071.5-.094.752a26.964 26.964 0 0 0-.165 3.121c0 .306 0 .613.024.9a.226.226 0 0 0 0 .126 27.393 27.393 0 0 0 .658 5.238 22.613 22.613 0 0 0 1.341 4.179 17.432 17.432 0 0 0 1.729 3.106 10.338 10.338 0 0 0 3.694 3.33c.267.166-.106.594-.433.691z" class="cls-6" data-name="패스 2417"/>
                        <path id="패스_2418" d="M881.918 237.225h-.012a.277.277 0 0 1-.106.014h-32.135a5.651 5.651 0 0 1-.977-.083.4.4 0 0 1 .083-.613 1.108 1.108 0 0 0 .176-.1c-3.035-1.6-5.681-5.14-6.916-10.239a26.9 26.9 0 0 1-.741-6.255 3.107 3.107 0 0 1-.012-.334c0-.5.012-1 .035-1.49.365-8.192 3.776-11.284 9.457-10.894.412.028.835 0 1.247 0h27.654c-2.211 2.4-3.846 3.831-4.481 8.3a1.787 1.787 0 0 0-.024.251c-.047.251-.071.5-.094.752a26.964 26.964 0 0 0-.165 3.121c0 .306 0 .613.024.9a.225.225 0 0 0 0 .126 27.466 27.466 0 0 0 .658 5.238 22.686 22.686 0 0 0 1.341 4.179 17.435 17.435 0 0 0 1.73 3.106 10.327 10.327 0 0 0 3.693 3.33c.271.166-.106.594-.435.691z" class="cls-6" data-name="패스 2418"/>
                        <path id="패스_2419" d="M884.038 237.225h-.012a.275.275 0 0 1-.106.014h-32.135a5.651 5.651 0 0 1-.977-.083.4.4 0 0 1 .083-.613 1.108 1.108 0 0 0 .176-.1c-3.034-1.6-5.681-5.14-6.916-10.239a26.952 26.952 0 0 1-.741-6.255 3.107 3.107 0 0 1-.012-.334c0-.5.012-1 .035-1.49.365-8.192 3.776-11.284 9.457-10.894.412.028.836 0 1.247 0l27.654-2.369c-1.151 1.248-4.907 13.665-4.481 10.671a1.787 1.787 0 0 0-.024.251c-.047.251-.07.5-.094.752a26.964 26.964 0 0 0-.165 3.121c0 .306 0 .613.024.9a.225.225 0 0 0 0 .126 27.382 27.382 0 0 0 .659 5.238 22.53 22.53 0 0 0 1.341 4.179 17.425 17.425 0 0 0 1.729 3.106 10.335 10.335 0 0 0 3.693 3.33c.271.164-.106.592-.435.689z" class="cls-6" data-name="패스 2419"/>
                        <path id="패스_2420" d="M886.158 237.225h-.012a.275.275 0 0 1-.106.014h-32.135a5.639 5.639 0 0 1-.976-.083.4.4 0 0 1 .082-.613 1.065 1.065 0 0 0 .176-.1c-3.034-1.6-5.681-5.14-6.916-10.239a26.949 26.949 0 0 1-.741-6.255 3.092 3.092 0 0 1-.012-.334c0-.5.012-1 .036-1.49.364-8.192 3.775-11.284 9.457-10.894.411.028.835 0 1.247 0l27.653-2.369c-2.211 2.4-3.846 6.2-4.481 10.671a1.8 1.8 0 0 0-.024.251c-.047.251-.07.5-.094.752a27.2 27.2 0 0 0-.164 3.121c0 .306 0 .613.023.9a.225.225 0 0 0 0 .126 27.382 27.382 0 0 0 .659 5.238 22.53 22.53 0 0 0 1.341 4.179 17.425 17.425 0 0 0 1.729 3.106 10.335 10.335 0 0 0 3.693 3.33c.271.164-.106.592-.435.689z" class="cls-6" data-name="패스 2420"/>
                        <path id="패스_2421" d="M888.278 237.225h-.011a.28.28 0 0 1-.106.014h-32.136a5.64 5.64 0 0 1-.976-.083.4.4 0 0 1 .082-.613 1.113 1.113 0 0 0 .177-.1c-3.035-1.6-5.682-5.14-6.917-10.239a26.949 26.949 0 0 1-.741-6.255 3.092 3.092 0 0 1-.012-.334c0-.5.012-1 .036-1.49.364-8.192 3.775-11.284 9.457-10.894.412.028.835 0 1.247 0l27.654-2.369c-2.212 2.4-3.847 6.2-4.482 10.671a1.793 1.793 0 0 0-.023.251c-.047.251-.071.5-.095.752a27.2 27.2 0 0 0-.164 3.121c0 .306 0 .613.023.9a.245.245 0 0 0 0 .126 27.46 27.46 0 0 0 .659 5.238 22.53 22.53 0 0 0 1.341 4.179 17.425 17.425 0 0 0 1.729 3.106 10.33 10.33 0 0 0 3.694 3.33c.27.164-.106.592-.436.689z" class="cls-6" data-name="패스 2421"/>
                        <path id="패스_2422" d="M890.4 237.225h-.011a.28.28 0 0 1-.106.014h-32.138a5.648 5.648 0 0 1-.976-.083.4.4 0 0 1 .082-.613 1.113 1.113 0 0 0 .177-.1c-3.035-1.6-5.682-5.14-6.917-10.239a27 27 0 0 1-.741-6.255c-.011-.111-.011-.222-.011-.334 0-.5.011-1 .035-1.49.365-8.192 3.776-11.284 9.457-10.894.412.028.835 0 1.247 0l27.654-2.369c-2.212 2.4-3.847 6.2-4.482 10.671a1.793 1.793 0 0 0-.023.251c-.047.251-.071.5-.094.752a26.978 26.978 0 0 0-.165 3.121c0 .306 0 .613.024.9a.226.226 0 0 0 0 .126 27.383 27.383 0 0 0 .658 5.238 22.608 22.608 0 0 0 1.341 4.179 17.428 17.428 0 0 0 1.729 3.106 10.338 10.338 0 0 0 3.694 3.33c.266.164-.106.592-.434.689z" class="cls-6" data-name="패스 2422"/>
                        <path id="패스_2423" d="M892.519 237.225h-.012a.277.277 0 0 1-.106.014h-32.135a5.651 5.651 0 0 1-.977-.083.4.4 0 0 1 .083-.613 1.152 1.152 0 0 0 .176-.1c-3.035-1.6-5.681-5.14-6.916-10.239a26.893 26.893 0 0 1-.741-6.255 3.107 3.107 0 0 1-.012-.334c0-.5.012-1 .035-1.49.365-8.192 3.776-11.284 9.457-10.894.412.028.835 0 1.247 0l27.654-2.369c-2.211 2.4-3.846 6.2-4.482 10.671a1.954 1.954 0 0 0-.023.251c-.047.251-.071.5-.094.752a26.978 26.978 0 0 0-.165 3.121c0 .306 0 .613.024.9a.226.226 0 0 0 0 .126 27.471 27.471 0 0 0 .658 5.238 22.613 22.613 0 0 0 1.341 4.179 17.493 17.493 0 0 0 1.729 3.106 10.338 10.338 0 0 0 3.694 3.33c.27.164-.106.592-.435.689z" class="cls-6" data-name="패스 2423"/>
                        <path id="패스_2424" d="M894.639 237.225h-.012a.275.275 0 0 1-.106.014h-32.135a5.651 5.651 0 0 1-.977-.083.4.4 0 0 1 .083-.613 1.108 1.108 0 0 0 .176-.1c-3.035-1.6-5.681-5.14-6.916-10.239a26.952 26.952 0 0 1-.741-6.255 3.107 3.107 0 0 1-.012-.334c0-.5.012-1 .035-1.49.365-8.192 3.776-11.284 9.457-10.894.412.028.836 0 1.247 0l27.654-2.369c-2.211 2.4-3.846 6.2-4.481 10.671a1.787 1.787 0 0 0-.024.251c-.047.251-.07.5-.094.752a26.964 26.964 0 0 0-.165 3.121c0 .306 0 .613.024.9a.226.226 0 0 0 0 .126 27.392 27.392 0 0 0 .659 5.238 22.612 22.612 0 0 0 1.34 4.179 17.5 17.5 0 0 0 1.73 3.106 10.336 10.336 0 0 0 3.693 3.33c.271.164-.106.592-.435.689z" class="cls-6" data-name="패스 2424"/>
                        <path id="패스_2425" d="M896.759 237.225h-.012a.275.275 0 0 1-.106.014h-32.135a5.639 5.639 0 0 1-.976-.083.4.4 0 0 1 .082-.613 1.067 1.067 0 0 0 .176-.1c-3.034-1.6-5.681-5.14-6.916-10.239a26.952 26.952 0 0 1-.741-6.255 3.107 3.107 0 0 1-.012-.334c0-.5.012-1 .035-1.49.365-8.192 3.776-11.284 9.458-10.894.411.028.835 0 1.246 0l27.654-2.369c-2.211 2.4-3.846 6.2-4.481 10.671a1.787 1.787 0 0 0-.024.251c-.047.251-.07.5-.094.752a27.2 27.2 0 0 0-.164 3.121c0 .306 0 .613.023.9a.226.226 0 0 0 0 .126 27.387 27.387 0 0 0 .659 5.238 22.535 22.535 0 0 0 1.341 4.179 17.432 17.432 0 0 0 1.729 3.106 10.336 10.336 0 0 0 3.693 3.33c.271.164-.106.592-.435.689z" class="cls-6" data-name="패스 2425"/>
                        <path id="패스_2426" d="M899.738 237.423h-.012a.277.277 0 0 1-.106.014h-32.135a5.753 5.753 0 0 1-.977-.083.4.4 0 0 1 .083-.613 1.108 1.108 0 0 0 .176-.1c-3.035-1.6-5.681-5.14-6.916-10.239a26.9 26.9 0 0 1-.741-6.255 3.117 3.117 0 0 1-.012-.334c0-.5.012-1 .035-1.491.365-8.191 3.776-11.283 9.457-10.893.412.028.835 0 1.247 0l27.654-2.369c-2.211 2.4-3.846 6.2-4.481 10.671a1.773 1.773 0 0 0-.024.251c-.047.251-.071.5-.094.752a26.965 26.965 0 0 0-.165 3.121c0 .306 0 .613.024.9a.226.226 0 0 0 0 .126 27.461 27.461 0 0 0 .658 5.237 22.673 22.673 0 0 0 1.341 4.18 17.434 17.434 0 0 0 1.73 3.106 10.328 10.328 0 0 0 3.693 3.33c.271.16-.106.592-.435.689z" class="cls-6" data-name="패스 2426"/>
                    </g>
                </g>
            </g>
            <path id="패스_2428" d="M866.685 235.658h-.01a.253.253 0 0 1-.09.011h-27.32a4.762 4.762 0 0 1-.83-.071.341.341 0 0 1 .07-.521.865.865 0 0 0 .15-.083c-3.58-1.883-6.52-6.928-6.52-14.306 0-7.663 2.95-10.529 8.07-10.173.35.023.71 0 1.06 0h23.51c-1.88 2.037-3.27 2.9-3.81 6.7a24.91 24.91 0 0 0-.24 3.505 22.539 22.539 0 0 0 1.72 8.883 10.634 10.634 0 0 0 4.61 5.471c.23.134-.09.501-.37.584z" class="cls-7" data-name="패스 2428"/>
            <path id="패스_2429" d="M850.422 234.775c-.46-1.67-1.29-3-2.38-3.387-1.01-.367-2.71 1.48-4.83.509a11.911 11.911 0 0 1-2.3-1.705 6.961 6.961 0 0 0-5.96-1.694 6.074 6.074 0 0 0-1.72.521 30.558 30.558 0 0 1-1.33-2.984c-.12-.569-.24-1.161-.34-1.8a11.3 11.3 0 0 1 1.2-.817 6.333 6.333 0 0 1 2.19-.77 6.973 6.973 0 0 1 5.86 1.61 13.176 13.176 0 0 0 2.4 1.789c2.12.983 3.82-.865 4.83-.51a3.9 3.9 0 0 1 1.98 2.239 11.027 11.027 0 0 1 .4 6.999z" class="cls-8" data-name="패스 2429"/>
            <path id="패스_2430" d="M873.03 228.64c-.46-1.669-1.218-2.972-2.308-3.363-1.01-.367-2.71 1.48-4.83.509-2.06-.947-3.47-4.1-8.26-3.4-3.33.474-5.49 3.873-7.61 5.389a2.71 2.71 0 0 1-2.87.521c-3.03-1.374-4.82.379-6.24 1.9a6.606 6.606 0 0 1-1.9 1.646 4.756 4.756 0 0 1-5.09-1.551c-.24-.415-.48-.841-.69-1.268a30.558 30.558 0 0 1-1.33-2.984c-.12-.569-.24-1.161-.34-1.8-.31-1.919.1-3.53 0-6.183a12.965 12.965 0 0 0 1.2 5.366 6.584 6.584 0 0 0 .63 1.054c1.59 2.1 4.02 2.51 5.62 1.527a10.3 10.3 0 0 0 1.8-1.741c1.43-1.539 3.27-3.2 6.34-1.812 3.34 1.516 5.69-5.211 10.48-5.909s6.2 2.451 8.26 3.4c2.12.983 3.82-.865 4.83-.51 2.26.813 3.358 5.68 2.308 9.209z" class="cls-9" data-name="패스 2430"/>
            <path id="패스_2431" d="M862.862 230.429a5.312 5.312 0 0 1-.39 1.03 3.985 3.985 0 0 1-2.02 1.694c-1.15.083-1.89.094-1.89.094l-13.6 1.493-6.29.012s-3.22.6-5.51-4.844a2.9 2.9 0 0 1 .44-.178.46.46 0 0 1 .12-.047 4.39 4.39 0 0 1 3.21.331c3.34 1.5 5.69-5.223 10.48-5.909a6.794 6.794 0 0 1 5.15 1.089c.06.036.11.071.16.107a23.574 23.574 0 0 0 2.95 2.2c2.12.972 3.82-.876 4.83-.509 1.09.393 1.898 1.767 2.36 3.437z" class="cls-10" data-name="패스 2431"/>
            <path id="패스_2432" d="M873.082 228.451c-.02.071-.03.13-.05.189a5.434 5.434 0 0 1-.34.841c-1.27 2.653-8.69 3.447-12.24 3.672-1.15.083-1.89.094-1.89.094l-13.6 1.493-6.29.012s-3.22.6-5.51-4.844a20.323 20.323 0 0 1-1.12-3.53c-.05-.2-.1-.4-.14-.6a31.139 31.139 0 0 0 1.82 3.909c.07.118.13.225.2.343a4.758 4.758 0 0 0 5.09 1.552c1.91-.782 3.66-5.579 8.14-3.542 1.91.865 3.5-.983 5.41-2.842 1.42-1.386 3.03-2.771 5.07-3.067 4.79-.7 6.2 2.451 8.26 3.4 2.12.971 3.82-.877 4.83-.51 1.09.386 1.9 1.772 2.36 3.43z" class="cls-11" data-name="패스 2432"/>
            <path id="패스_2433" d="M830.542 221.945c0-5.79 3.054-11.779 7.508-12.5a9.233 9.233 0 0 1 1.193-.118h24.808c1.068 0 1.521 1.61.666 2.368l-23.494-.107c-.26 0-1.293.006-1.556 0-3.52-.089-6.966 4.563-7.239 10.316a15.035 15.035 0 0 0 3 10.186 3.634 3.634 0 0 0 6.326-.084 14.777 14.777 0 0 0 1.314-2.439.326.326 0 0 1 .28-.2l19.039.237 2.01.024 8.3.106a.388.388 0 0 1 .269.569 10.217 10.217 0 0 1-4.119 4.69 5.842 5.842 0 0 1-1.56.568 5.927 5.927 0 0 1-.66.1h-.01c-.13.012-.25.012-.38.012l-26.5.366a11.594 11.594 0 0 1-1.607-.037c-4.456-.702-7.588-6.264-7.588-14.057z" class="cls-12" data-name="패스 2433"/>
            <ellipse id="타원_626" cx=".419" cy=".818" class="cls-13" data-name="타원 626" rx=".419" ry=".818" transform="rotate(-46.86 683.904 -884.634)"/>
            <ellipse id="타원_627" cx="2.851" cy="1.158" class="cls-14" data-name="타원 627" rx="2.851" ry="1.158" transform="translate(856.079 217.329)"/>
            <path id="패스_2434" d="M848.453 217.27a10.933 10.933 0 0 1 .345 1.959c.012.1-.079.173-.153.12a8.076 8.076 0 0 1-1.393-1.132 1 1 0 0 1 .123-1.324c.518-.408.91.076 1.078.377z" class="cls-13" data-name="패스 2434"/>
            <ellipse id="타원_628" cx=".419" cy=".818" class="cls-14" data-name="타원 628" rx=".419" ry=".818" transform="rotate(-46.86 683.904 -884.634)"/>
            <ellipse id="타원_629" cx=".419" cy=".818" class="cls-14" data-name="타원 629" rx=".419" ry=".818" transform="rotate(-46.86 688.896 -892.883)"/>
            <ellipse id="타원_630" cx=".574" cy=".415" class="cls-14" data-name="타원 630" rx=".574" ry=".415" transform="rotate(-50.43 659.029 -783.868)"/>
            <path id="패스_2435" d="M851.457 216.681a8.915 8.915 0 0 1-1.183 1.428c-.065.068-.165.018-.17-.084a11.139 11.139 0 0 1 .021-2c.117-.333.423-.9 1-.614s.449.937.332 1.27z" class="cls-13" data-name="패스 2435"/>
            <path id="패스_2436" d="M867.671 217.485a7.419 7.419 0 0 1-.981 1.183c-.053.056-.136.015-.14-.07a9.121 9.121 0 0 1 .018-1.656c.1-.276.349-.744.825-.509s.375.777.278 1.052z" class="cls-13" data-name="패스 2436"/>
        </g>
        <path id="사각형_2730" d="M0 0h50v50H0z" class="cls-7" data-name="사각형 2730" transform="translate(826.986 197.69)"/>
    </g>
</svg>
