<svg xmlns="http://www.w3.org/2000/svg" width="50" height="50" viewBox="0 0 50 50">
    <defs>
        <style>
            .cls-1{fill:#faddc7}.cls-2{fill:#f8d4ba}.cls-3{fill:#f8ebe2}.cls-4{fill:#e63726}.cls-5{fill:#ed5138}.cls-6{fill:none}
        </style>
    </defs>
    <g id="그룹_2559" data-name="그룹 2559" transform="translate(-1543.773 -205)">
        <path id="패스_2594" d="M1585.124 218.59a15.883 15.883 0 0 1-12.79 15.6 6.985 6.985 0 0 1-1.89-3.83c-.4-3.73-3.66-3.92-3.6-1.16.03 1.35.07 3.37.2 5.29h-23.27v-21.07h36.19a4.944 4.944 0 0 1 .87.07 5.179 5.179 0 0 1 4.29 5.1z" class="cls-1" data-name="패스 2594"/>
        <path id="패스_2595" d="M1568.506 220.176c-.343.026-.687.038-1.031.038-6.248 0-11.3-3.041-11.3-6.8h2.075c-.001 3.542 4.504 6.457 10.256 6.762z" class="cls-2" data-name="패스 2595"/>
        <path id="패스_2596" d="M1578.764 213.495c-.077 3.512-4.544 6.376-10.258 6.681-5.752-.3-10.257-3.22-10.257-6.758h19.637a4.9 4.9 0 0 1 .878.077z" class="cls-3" data-name="패스 2596"/>
        <path id="패스_2597" d="M1567.768 229.2c.038 1.349.076 3.373.2 5.295h-.929c-.128-1.922-.166-3.946-.2-5.295-.025-1.641.954-2.685 1.934-2.214a2.32 2.32 0 0 0-1.005 2.214z" class="cls-4" data-name="패스 2597"/>
        <path id="패스_2598" d="M1572.337 234.188a15.769 15.769 0 0 1-3.118.306h-1.247c-.128-1.922-.166-3.946-.2-5.295a2.32 2.32 0 0 1 1.005-2.214c.662.331 1.324 1.362 1.668 3.373a7.93 7.93 0 0 0 1.892 3.83z" class="cls-5" data-name="패스 2598"/>
        <path id="패스_2599" d="M1571.524 245.44c-.494 2.657-2.008 4.45-4.577 3.974a.59.59 0 0 1-.158-.053l2.381-11.979s2.848 5.402 2.354 8.058z" class="cls-4" data-name="패스 2599"/>
        <path id="패스_2600" d="M1569.17 237.382l-2.381 11.979c-2.445-.511-3.165-2.693-2.706-5.3.494-2.653 5.087-6.679 5.087-6.679z" class="cls-5" data-name="패스 2600"/>
        <path id="패스_2601" d="M1571.921 239.319c.184.988.747 1.656 1.7 1.478a.2.2 0 0 0 .059-.019l-.887-4.458s-1.056 2.01-.872 2.999z" class="cls-4" data-name="패스 2601"/>
        <path id="패스_2602" d="M1572.8 236.32l.887 4.458c.91-.191 1.178-1 1.007-1.971-.188-.989-1.894-2.487-1.894-2.487z" class="cls-5" data-name="패스 2602"/>
        <path id="사각형_2746" d="M0 0h50v50H0z" class="cls-6" data-name="사각형 2746" transform="translate(1543.774 205)"/>
    </g>
</svg>
