<svg xmlns="http://www.w3.org/2000/svg" width="50" height="50" viewBox="0 0 50 50">
    <defs>
        <style>
            .cls-1,.cls-2{fill:none}.cls-2{stroke:#6f3c8f;stroke-linecap:round;stroke-miterlimit:10;stroke-width:2px}.cls-3{fill:#6f3c8f}.cls-4{fill:#0691d3}.cls-5{fill:#dfdfde}.cls-6{fill:#e8809f}.cls-7{fill:#d77293}.cls-8{fill:#fadee8}.cls-9{fill:#d6d5d5}.cls-10{fill:#f1f1f2}.cls-11{fill:#f2a0b7}.cls-12{fill:#fdeff4}.cls-13{fill:#e27d9b}.cls-14{fill:#ead7e0}.cls-15{fill:#ebdae1}.cls-16{fill:#e43278}
        </style>
    </defs>
    <g id="그룹_2888" data-name="그룹 2888" transform="translate(-3098.477 -207.378)">
        <path id="사각형_2802" d="M0 0h50v50H0z" class="cls-1" data-name="사각형 2802" transform="translate(3098.477 207.378)"/>
        <path id="사각형_2803" d="M6 0h24a6 6 0 0 1 6 6v22a4 4 0 0 1-4 4H4a4 4 0 0 1-4-4V6a6 6 0 0 1 6-6z" class="cls-2" data-name="사각형 2803" transform="translate(3105.477 217.804)"/>
        <path id="패스_3069" d="M3105.477 223.8a6 6 0 0 1 6-6h24a6 6 0 0 1 6 6z" class="cls-3" data-name="패스 3069"/>
        <g id="그룹_2884" data-name="그룹 2884">
            <rect id="사각형_2804" width="4" height="5" class="cls-4" data-name="사각형 2804" rx="2" transform="translate(3113.477 214.953)"/>
            <rect id="사각형_2805" width="4" height="5" class="cls-4" data-name="사각형 2805" rx="2" transform="translate(3129.477 214.953)"/>
        </g>
        <rect id="사각형_2806" width="6.027" height="6.027" class="cls-5" data-name="사각형 2806" rx="1.312" transform="translate(3110.834 228.876)"/>
        <rect id="사각형_2807" width="6.027" height="6.027" class="cls-5" data-name="사각형 2807" rx="1.312" transform="translate(3120.463 228.876)"/>
        <rect id="사각형_2808" width="6.027" height="6.027" class="cls-5" data-name="사각형 2808" rx="1.312" transform="translate(3130.092 228.876)"/>
        <rect id="사각형_2809" width="6.027" height="6.027" class="cls-5" data-name="사각형 2809" rx="1.312" transform="translate(3110.834 237.59)"/>
        <rect id="사각형_2810" width="6.027" height="6.027" class="cls-5" data-name="사각형 2810" rx="1.312" transform="translate(3120.463 237.59)"/>
        <rect id="사각형_2811" width="6.027" height="6.027" class="cls-5" data-name="사각형 2811" rx="1.312" transform="translate(3130.092 237.59)"/>
        <g id="그룹_2887" data-name="그룹 2887">
            <path id="패스_3070" d="M3142.569 235.051a3.239 3.239 0 0 0-.14.92l-.03 3.56a2.334 2.334 0 0 1-.339 1.21l-.1.17-.689-.41.1-.17a2.435 2.435 0 0 0 .351-1.2l.03-3.57a3.235 3.235 0 0 1 .129-.92z" class="cls-6" data-name="패스 3070"/>
            <path id="패스_3071" d="M3135.49 251.441l-1.081 1.75a2.931 2.931 0 0 1-4.02.96l-.6-.37a2.919 2.919 0 0 0 3.94-1l1.069-1.75z" class="cls-7" data-name="패스 3071"/>
            <path id="패스_3072" d="M3141.959 240.911l-6.47 10.53-.69-.41 6.47-10.53z" class="cls-8" data-name="패스 3072"/>
            <path id="패스_3073" d="M3145.679 229.721l-2.74 4.46a3.2 3.2 0 0 0-.37.87l-.69-.41a3.116 3.116 0 0 1 .381-.86l2.74-4.47a2.688 2.688 0 0 0-.581-3.46 1.929 1.929 0 0 1 .38.19 2.676 2.676 0 0 1 .88 3.68z" class="cls-9" data-name="패스 3073"/>
            <path id="패스_3074" d="M3145 229.311l-2.74 4.47a3.116 3.116 0 0 0-.381.86l-4.859-2.86a3.447 3.447 0 0 0 .679-.8l2.74-4.47a2.68 2.68 0 0 1 2.291-1.27 2.59 2.59 0 0 1 1.389.39 2.241 2.241 0 0 1 .3.22 2.688 2.688 0 0 1 .581 3.46z" class="cls-10" data-name="패스 3074"/>
            <path id="패스_3075" d="M3141.879 234.641a3.235 3.235 0 0 0-.129.92l-.03 3.57a2.435 2.435 0 0 1-.351 1.2l-.1.17-9.21-5.43.2-.33a2.347 2.347 0 0 1 .909-.86l3.17-1.64a3.538 3.538 0 0 0 .681-.46z" class="cls-11" data-name="패스 3075"/>
            <path id="패스_3076" d="M3141.27 240.5l-6.47 10.53-9.17-5.5 6.43-10.46z" class="cls-12" data-name="패스 3076"/>
            <path id="패스_3077" d="M3134.8 251.031l-1.069 1.75a2.919 2.919 0 0 1-3.94 1 .32.32 0 0 1-.081-.04l-3.449-2.12-.681-.41a2.935 2.935 0 0 1-.97-4.02l1.02-1.66z" class="cls-13" data-name="패스 3077"/>
            <g id="그룹_2886" data-name="그룹 2886">
                <path id="패스_3078" d="M3131.127 247.005a.853.853 0 0 1-.129-.071c-1.443-.911-1.509-3.387-.156-5.53s3.617-3.147 5.059-2.236a.829.829 0 0 1 .121.085c-1.441-.774-3.61.233-4.923 2.313s-1.291 4.471.028 5.439z" class="cls-14" data-name="패스 3078"/>
                <g id="그룹_2885" data-name="그룹 2885">
                    <path id="패스_3079" d="M3136.057 244.7c-.1.159-.2.307-.315.451a6.583 6.583 0 0 1-.783.873c-1.235 1.141-2.744 1.565-3.832.984-.992-.733-1.251-2.273-.752-3.878a6.606 6.606 0 0 1 .451-1.083 6.266 6.266 0 0 1 .587-.929 6.589 6.589 0 0 1 .784-.873c1.234-1.141 2.736-1.569 3.825-.989.992.733 1.257 2.278.758 3.883a6.522 6.522 0 0 1-.451 1.083 7.655 7.655 0 0 1-.272.478z" class="cls-15" data-name="패스 3079"/>
                    <path id="패스_3080" d="M3136.329 244.219l-4.916-3.1a6.589 6.589 0 0 1 .784-.873l4.583 2.894a6.522 6.522 0 0 1-.451 1.079z" class="cls-16" data-name="패스 3080"/>
                    <path id="패스_3081" d="M3135.742 245.148a6.583 6.583 0 0 1-.783.873l-4.584-2.894a6.606 6.606 0 0 1 .451-1.083z" class="cls-16" data-name="패스 3081"/>
                    <path id="패스_3082" d="M3130.877 246.848a.956.956 0 0 0 .121.086c1.442.91 3.706-.1 5.059-2.237s1.287-4.619-.156-5.529a.76.76 0 0 0-.129-.072c1.319.968 1.342 3.359.028 5.439s-3.482 3.087-4.923 2.313z" class="cls-14" data-name="패스 3082"/>
                </g>
            </g>
        </g>
    </g>
</svg>
