<svg xmlns="http://www.w3.org/2000/svg" width="50" height="50" viewBox="0 0 50 50">
    <defs>
        <style>
            .cls-1{fill:#fff}.cls-2{fill:#faddc7}.cls-3,.cls-4,.cls-9{fill:none;stroke-linecap:round}.cls-3{stroke:#f4c1b4;stroke-linejoin:bevel}.cls-4{stroke:#343535;stroke-miterlimit:10}.cls-5{fill:#111}.cls-6{fill:#f6ceb3}.cls-7{fill:#f0ceb7}.cls-8{fill:#343535}.cls-9{stroke:#71cce7;stroke-linejoin:round;stroke-dasharray:1 2}
        </style>
    </defs>
    <g id="그룹_2515" data-name="그룹 2515" transform="translate(-1007.74 -195.455)">
        <g id="그룹_2512" data-name="그룹 2512">
            <path id="사각형_2733" d="M0 0h50v50H0z" class="cls-1" data-name="사각형 2733" transform="translate(1007.74 195.455)"/>
        </g>
        <g id="그룹_2514" data-name="그룹 2514">
            <g id="그룹_2513" data-name="그룹 2513">
                <path id="패스_2460" d="M1050.183 224.952c-.76 3.82-2.32 6.12-4.25 7.56-3.31 2.46-7.74 2.35-11.17 2.92-1.29.22-6.03.65-8.77-1.73a8.278 8.278 0 0 1-1.042-1.073.416.416 0 0 1 .184-.652 12.824 12.824 0 0 0 3.948-2.335.984.984 0 0 0-.57-1.75c-.732-.055-3.188-.042-4.78-.017a.409.409 0 0 1-.415-.417l.125-11.059a.214.214 0 0 1 0-.025 22.274 22.274 0 0 1 1.909-6.972 11.113 11.113 0 0 1 1.41-2.24 2.252 2.252 0 0 1 .21-.24 2.1 2.1 0 0 1 .25-.27c.11-.12.22-.23.33-.34.15-.14.31-.27.48-.41 4.01-3.12 10.91-2.4 10.91-2.4h.07a10.524 10.524 0 0 1 3.79.82c.04.01.08.03.12.04a13.04 13.04 0 0 1 6.04 5.22c3.421 5.4 1.221 15.37 1.221 15.37z" class="cls-2" data-name="패스 2460"/>
                <path id="사각형_2734" d="M0 0h13.81v9.215H0z" class="cls-2" data-name="사각형 2734" transform="translate(1032.046 230.321)"/>
                <circle id="타원_631" cx="2.152" cy="2.152" r="2.152" class="cls-2" data-name="타원 631" transform="translate(1021.702 221.879)"/>
                <path id="패스_2462" d="M1025.4 217.314a3.151 3.151 0 0 0 3.317-1.547" class="cls-4" data-name="패스 2462"/>
                <path id="패스_2463" d="M1042.79 201.966a13.483 13.483 0 0 1 8.089 5.828c5.011 7.458 1.323 17.277 1.323 17.277-1.723 4.4-4.335 6-6.264 7.441a.862.862 0 0 1-.084-.3c0-4.306-4.425-7.659-4.425-7.659a70.618 70.618 0 0 1-11.084-9.094 34.219 34.219 0 0 1-4.762-6.394c-.17-1.31.952-3.06 1.888-4.064a11.4 11.4 0 0 1 7.327-3.476 23.677 23.677 0 0 1 7.992.441z" class="cls-5" data-name="패스 2463"/>
                <path id="패스_2464" d="M1035.952 226.4a6.28 6.28 0 0 0 2.3.415 3.455 3.455 0 0 0 3.38-3.458 3.743 3.743 0 0 0-4.2-3.687z" class="cls-6" data-name="패스 2464"/>
                <path id="패스_2465" d="M1034.335 225.719a10.118 10.118 0 0 0 3.479.85 3.569 3.569 0 0 0 3.565-3.653 3.165 3.165 0 0 0-2.83-3.221 3.075 3.075 0 0 0-1.465.028 4.479 4.479 0 0 0-2.385 1.409z" class="cls-2" data-name="패스 2465"/>
                <path id="패스_2466" d="M1039.846 223.356a.544.544 0 0 1-.547-.264c-.6-.992-1.831-.426-1.882-.4a.543.543 0 0 1-.727-.286.575.575 0 0 1 .264-.755 2.5 2.5 0 0 1 3.265.84.582.582 0 0 1-.165.786.519.519 0 0 1-.208.079z" class="cls-7" data-name="패스 2466"/>
                <path id="패스_2467" d="M1036.607 223.94a.546.546 0 0 1 .4-.458c1.117-.321.827-.82.817-.877a.543.543 0 0 1 .468-.625.576.576 0 0 1 .659.454c.142.806.044 1.621-1.6 2.094a.581.581 0 0 1-.715-.366.531.531 0 0 1-.029-.222z" class="cls-7" data-name="패스 2467"/>
                <path id="패스_2468" d="M1032.046 235.613a32.775 32.775 0 0 0 7.8-2.4s-6.036 3.164-7.8 6.328z" class="cls-6" data-name="패스 2468"/>
                <rect id="사각형_2735" width="4.288" height="1" class="cls-8" data-name="사각형 2735" rx=".5" transform="rotate(-13.77 1422.564 -4136.122)"/>
                <rect id="사각형_2736" width="4.288" height="1" class="cls-8" data-name="사각형 2736" rx=".5" transform="rotate(12.4 -497.369 4829.678)"/>
                <path id="선_446" d="M6.465.643L0 0" class="cls-9" data-name="선 446" transform="translate(1016.512 228.266)"/>
                <path id="선_447" d="M5.461 0L0 3.519" class="cls-9" data-name="선 447" transform="translate(1018.037 232.583)"/>
                <path id="선_448" d="M0 1.046L4.887 0" class="cls-9" data-name="선 448" transform="translate(1017.533 230.844)"/>
            </g>
        </g>
    </g>
</svg>
