<svg xmlns="http://www.w3.org/2000/svg" width="50" height="50" viewBox="0 0 50 50">
    <defs>
        <style>
            .cls-1{fill:#bf1933}.cls-2{fill:#e72137}.cls-3{fill:#f1f1f2}.cls-4{fill:#fff}.cls-5{fill:#7b231a}.cls-6{fill:#ed5b60}.cls-7{fill:#e7535e}.cls-8{fill:#f18a95}.cls-9{opacity:.2}.cls-10{fill:#e14f5a}.cls-11{fill:#2c2c2c}.cls-12{fill:#444}.cls-13{fill:none}
        </style>
    </defs>
    <g id="그룹_3243" data-name="그룹 3243" transform="translate(-1187.807 -244.11)">
        <g id="그룹_3242" data-name="그룹 3242">
            <path id="패스_3673" d="M1229.425 271.09c0 9.18-5.6 17.82-16.614 17.82a17.425 17.425 0 0 1-1.836-.09c9.8-.9 14.778-9.072 14.778-17.73q0-.473-.026-.945h.008c0-10.422-4.41-19.062-10.161-20.592a7.053 7.053 0 0 1 1.836-.243c6.624 0 12 9.324 12 20.835h-.009q.024.472.024.945z" class="cls-1" data-name="패스 3673"/>
            <path id="패스_3674" d="M1225.753 271.09c0 8.658-4.976 16.83-14.778 17.73-9.8-.9-14.787-9.072-14.787-17.73 0-.315.01-.63.027-.945h-.009c0-10.422 4.41-19.062 10.171-20.592h.008a7.005 7.005 0 0 1 4.59.324 8.221 8.221 0 0 1 1.836 1.026 8.608 8.608 0 0 1 2.754-1.35h.009c5.751 1.53 10.161 10.17 10.161 20.592h-.008q.026.472.026.945z" class="cls-2" data-name="패스 3674"/>
            <path id="패스_3675" d="M1224.538 266.482c-1.6.108-3.06-.144-3.915-1.116-2.79-3.141-4.014-4.176-6.552-4.248h-2.538c-2.538.072-3.762 1.107-6.552 4.248-.854.972-2.312 1.224-3.915 1.116a23.191 23.191 0 0 1 .432-2.34 4.339 4.339 0 0 0 3.483-1.134c2.79-3.141 4.014-4.176 6.552-4.248h2.538c2.538.072 3.762 1.107 6.552 4.248a4.34 4.34 0 0 0 3.483 1.134 22.657 22.657 0 0 1 .432 2.34z" class="cls-3" data-name="패스 3675"/>
            <path id="패스_3676" d="M1224.106 264.142a4.34 4.34 0 0 1-3.483-1.134c-2.79-3.141-4.014-4.176-6.552-4.248h-2.538c-2.538.072-3.762 1.107-6.552 4.248a4.339 4.339 0 0 1-3.483 1.134c1.3-5.454 4.383-9.288 8-9.288a5.37 5.37 0 0 0 6.624 0c3.61 0 6.697 3.834 7.984 9.288z" class="cls-4" data-name="패스 3676"/>
            <path id="패스_3677" d="M1224.656 267.553a4.711 4.711 0 0 1-3.9-1.116c-2.835-3.141-4.077-4.176-6.66-4.248h-2.583c-2.583.072-3.834 1.107-6.669 4.248a4.7 4.7 0 0 1-3.9 1.116c.028-.36.072-.72.117-1.071 1.6.108 3.061-.144 3.915-1.116 2.79-3.141 4.014-4.176 6.552-4.248h2.538c2.538.072 3.762 1.107 6.552 4.248.855.972 2.313 1.224 3.915 1.116.059.351.095.711.123 1.071z" class="cls-5" data-name="패스 3677"/>
            <path id="패스_3678" d="M1224.77 270.53a14.968 14.968 0 0 1-.66 4.49c-.04.13-.08.26-.12.38a11.184 11.184 0 0 1-1.17 1.86 13.22 13.22 0 0 1-20.08-.1 12.262 12.262 0 0 1-1.15-1.86c-.06-.16-.11-.33-.16-.5a15.557 15.557 0 0 1-.59-4.27c0-.22.01-.45.02-.67h-.01c0-.79.04-1.56.1-2.31a4.722 4.722 0 0 0 3.9-1.11c2.83-3.14 4.08-4.18 6.67-4.25h2.58c2.58.07 3.82 1.11 6.66 4.25a4.712 4.712 0 0 0 3.9 1.11c.07.75.1 1.52.1 2.31h-.01c.01.22.02.45.02.67z" class="cls-6" data-name="패스 3678"/>
            <path id="패스_3679" d="M1223.981 275.4a11.828 11.828 0 0 1-22.393-.1c1.9 3.789 5.652 6.525 11.223 6.525 5.526.002 9.27-2.689 11.17-6.425z" class="cls-7" data-name="패스 3679"/>
            <path id="패스_3680" d="M1222.82 277.26a13.22 13.22 0 0 1-20.08-.1 8.594 8.594 0 0 1 1.41-.89.6.6 0 0 1 .16-.08 8.554 8.554 0 0 1 3.79-.89 8.7 8.7 0 0 1 4.52 1.28c.03.02.07.04.1.06a.469.469 0 0 1 .1-.05 8.555 8.555 0 0 1 8.55-.28c.04.13.08.26.11.39a.421.421 0 0 1 .12.03 4.18 4.18 0 0 0-.08-.34 8.663 8.663 0 0 1 1.3.87z" class="cls-8" data-name="패스 3680"/>
            <g id="그룹_3240" class="cls-9" data-name="그룹 3240">
                <path id="패스_3681" d="M1212.6 276.643v3.686a.113.113 0 0 0 .225 0v-3.686a.113.113 0 0 0-.225 0z" class="cls-4" data-name="패스 3681"/>
            </g>
            <circle id="타원_920" cx=".506" cy=".506" r=".506" class="cls-10" data-name="타원 920" transform="translate(1207.843 276.137)"/>
            <circle id="타원_921" cx=".506" cy=".506" r=".506" class="cls-10" data-name="타원 921" transform="translate(1216.95 276.137)"/>
            <circle id="타원_922" cx=".506" cy=".506" r=".506" class="cls-10" data-name="타원 922" transform="translate(1209.712 276.643)"/>
            <circle id="타원_923" cx=".506" cy=".506" r=".506" class="cls-10" data-name="타원 923" transform="translate(1214.772 276.643)"/>
            <circle id="타원_924" cx=".506" cy=".506" r=".506" class="cls-10" data-name="타원 924" transform="translate(1210.505 278.324)"/>
            <circle id="타원_925" cx=".506" cy=".506" r=".506" class="cls-10" data-name="타원 925" transform="translate(1213.76 278.396)"/>
            <circle id="타원_926" cx=".506" cy=".506" r=".506" class="cls-10" data-name="타원 926" transform="translate(1207.843 278.045)"/>
            <circle id="타원_927" cx=".506" cy=".506" r=".506" class="cls-10" data-name="타원 927" transform="translate(1216.199 278.137)"/>
            <circle id="타원_928" cx=".506" cy=".506" r=".506" class="cls-10" data-name="타원 928" transform="translate(1205.525 276.643)"/>
            <circle id="타원_929" cx=".506" cy=".506" r=".506" class="cls-10" data-name="타원 929" transform="translate(1218.785 277.149)"/>
            <path id="패스_3682" d="M1221.6 276.73a.421.421 0 0 0-.12-.03c-.03-.13-.07-.26-.11-.39a1.089 1.089 0 0 1 .15.08c.03.11.06.23.08.34z" class="cls-8" data-name="패스 3682"/>
            <g id="그룹_3241" data-name="그룹 3241">
                <path id="패스_3683" d="M1221.52 276.39a1.089 1.089 0 0 0-.15-.08c-.5-1.8-1.2-6.287-1.7-7.327-1.17-2.34-2.36-2.73-4.02-2.65a2.018 2.018 0 0 0-1.9 2.06v2.38a.94.94 0 1 1-1.86 0v-2.38a2.016 2.016 0 0 0-1.89-2.06c-1.67-.08-2.86.31-4.02 2.65-.49 1.02-1.17 5.467-1.67 7.207a.6.6 0 0 0-.16.08c.51-2.2 1.36-7.127 1.95-8.367 1.14-2.34 2.31-2.72 3.95-2.65a2.009 2.009 0 0 1 1.86 2.06v2.38a.928.928 0 1 0 1.83 0v-2.38a2.009 2.009 0 0 1 1.86-2.06c1.64-.07 2.8.31 3.94 2.65.62 1.27 1.48 6.237 1.98 8.487z" class="cls-11" data-name="패스 3683"/>
                <path id="패스_3684" d="M1221.37 276.31a8.555 8.555 0 0 0-8.55.28.469.469 0 0 0-.1.05c-.03-.02-.07-.04-.1-.06a8.7 8.7 0 0 0-4.52-1.28 8.554 8.554 0 0 0-3.79.89c.5-1.74 1.18-6.187 1.67-7.207 1.16-2.34 2.35-2.73 4.02-2.65a2.016 2.016 0 0 1 1.89 2.06v2.38a.94.94 0 1 0 1.86 0v-2.38a2.018 2.018 0 0 1 1.9-2.06c1.66-.08 2.85.31 4.02 2.65.5 1.04 1.2 5.527 1.7 7.327z" class="cls-12" data-name="패스 3684"/>
            </g>
        </g>
        <path id="사각형_2993" d="M0 0h50v50H0z" class="cls-13" data-name="사각형 2993" transform="translate(1187.807 244.11)"/>
        <path id="패스_3685" d="M1210.948 271.086c0-.974.58-2.371 1.829-2.371s1.835 1.4 1.835 2.371-.6 2.371-1.846 2.371-1.818-1.398-1.818-2.371z" class="cls-11" data-name="패스 3685"/>
        <path id="패스_3686" d="M1210.948 270.733c0-.974.58-2.371 1.829-2.371s1.835 1.4 1.835 2.371-.6 2.371-1.846 2.371-1.818-1.397-1.818-2.371z" class="cls-6" data-name="패스 3686"/>
    </g>
</svg>
