<svg xmlns="http://www.w3.org/2000/svg" width="50" height="50" viewBox="0 0 50 50">
    <defs>
        <style>
            .cls-1{fill:#efefef}.cls-2{fill:#e3e2e2}.cls-3{fill:#f2c8ae}.cls-4{fill:#f1c1aa}.cls-5{fill:#edbc9c}.cls-6{fill:#29ace6}.cls-7{fill:#2bbef3}.cls-8{fill:none}
        </style>
    </defs>
    <g id="그룹_2554" data-name="그룹 2554" transform="translate(-1134.076 -198.01)">
        <g id="그룹_2553" data-name="그룹 2553">
            <g id="그룹_2552" data-name="그룹 2552">
                <g id="그룹_2551" data-name="그룹 2551">
                    <path id="패스_2562" d="M1177.52 223a18.845 18.845 0 0 1-1.656 7.755c-.119.269-.248.538-.377.8a18.719 18.719 0 0 1-3.463 4.786c-.248.248-.506.484-.764.721-.193.172-.387.344-.581.506-.215.193-.43.355-.645.527a18.764 18.764 0 0 1-4.238 2.42 15.515 15.515 0 0 1-1.549.559.819.819 0 0 1-.15.054q-.969.289-1.969.484a19.26 19.26 0 0 1-3.538.333c-.345 0-.678-.021-1.011-.021A18.913 18.913 0 0 1 1146.6 208.4a18.657 18.657 0 0 1 3.753-2.42c.173-.086.345-.161.517-.237.2-.1.408-.183.613-.269a18.275 18.275 0 0 1 3-.935c.215-.054.441-.1.667-.14v-.011l.72-.129a19.576 19.576 0 0 1 1.969-.161 2.023 2.023 0 0 1 .258-.011c.161-.011.333-.011.495-.011A18.922 18.922 0 0 1 1177.52 223z" class="cls-1" data-name="패스 2562"/>
                    <path id="패스_2563" d="M1176.234 229.153c-.118.269-.247.538-.376.8l-4.141 3.969-1.183-.3v-.011l-5.733-1.473-2.775-.721-2.109-.549-9.669-2.506h-.011l7.368-8.551 14.886-3.366 1.979 6.744.237.774z" class="cls-2" data-name="패스 2563"/>
                    <path id="패스_2564" d="M1177.52 223a18.845 18.845 0 0 1-1.656 7.755c-.119.269-.248.538-.377.8a18.719 18.719 0 0 1-3.463 4.786l-2.388-6.088a5.205 5.205 0 0 0-.484-1.011 5.672 5.672 0 0 0-.065-2.043 6.244 6.244 0 0 0-.139-.473c-.033-.108-.076-.216-.108-.312a1.685 1.685 0 0 0-.107-.248c-.043-.107-.108-.215-.162-.322a1.353 1.353 0 0 0-.064-.14 5.618 5.618 0 0 0-.431-.656c-.021-.033-.053-.076-.075-.108-.064-.086-.15-.161-.226-.247a2.367 2.367 0 0 0-.322-.334 2.209 2.209 0 0 0-.3-.258 2.687 2.687 0 0 0-.279-.215 5.287 5.287 0 0 0-1.452-.742 1.575 1.575 0 0 0-.248-.086.371.371 0 0 0-.107-.022 2.563 2.563 0 0 0-.409-.1c-.011 0-.032-.01-.043 0a3.5 3.5 0 0 0-.463-.064 4.684 4.684 0 0 0-1.677.1 1.035 1.035 0 0 0-.291.1c-.161.043-.312.1-.473.151a.411.411 0 0 0-.1.043 4.589 4.589 0 0 0-.656.312 2.923 2.923 0 0 0-.355.237 2.761 2.761 0 0 0-.323.226 1.158 1.158 0 0 0-.3.268 2.277 2.277 0 0 0-.29.269 4.535 4.535 0 0 0-.495.624c-.075.108-.14.226-.215.334a2.262 2.262 0 0 0-.194.355 4.531 4.531 0 0 0-.29.7.147.147 0 0 1-.022.064 1.9 1.9 0 0 0-.1.355 3.991 3.991 0 0 0-.087.387c-.193.033-.333.065-.548.1-1.022.151-2.291.463-3.614.7-.387.054-.807.108-1.183.129a10.328 10.328 0 0 1-2.7.043h-.011a2.913 2.913 0 0 1-.645-.129 6.962 6.962 0 0 1-2.614-1.269c-2.42-1.839-4.41-5.227-2.9-8.174l6.8-13.037c.2-.1.408-.183.613-.269a18.275 18.275 0 0 1 3-.935c.215-.054.441-.1.667-.14v-.011l.72-.129a19.576 19.576 0 0 1 1.969-.161 2.023 2.023 0 0 1 .258-.011c.161-.011.333-.011.495-.011A18.922 18.922 0 0 1 1177.52 223z" class="cls-3" data-name="패스 2564"/>
                    <path id="패스_2565" d="M1172.4 226.092c.934-.684 6.014-4.352 2.381-8.726a6.805 6.805 0 0 1 .273 4.311 9.636 9.636 0 0 1-2.654 4.415z" class="cls-4" data-name="패스 2565"/>
                    <path id="패스_2566" d="M1169.1 227.2a5.419 5.419 0 0 1 .077 2.046 3.912 3.912 0 0 0-.807-.97 3.859 3.859 0 0 0-1.258-.775 6.031 6.031 0 0 0-1.184-.364 20.78 20.78 0 0 0-7.529.234l-.122.028a5.513 5.513 0 0 1 10.823-.2z" class="cls-5" data-name="패스 2566"/>
                </g>
                <path id="패스_2567" d="M1165.025 235.285c-.388 2.087-1.578 3.5-3.6 3.122a.431.431 0 0 1-.124-.042l1.871-9.412s2.241 4.247 1.853 6.332z" class="cls-6" data-name="패스 2567"/>
                <path id="패스_2568" d="M1163.176 228.953l-1.871 9.412c-1.921-.4-2.487-2.116-2.127-4.161.389-2.088 3.998-5.251 3.998-5.251z" class="cls-7" data-name="패스 2568"/>
            </g>
        </g>
        <path id="사각형_2745" d="M0 0h50v50H0z" class="cls-8" data-name="사각형 2745" transform="translate(1134.076 198.01)"/>
    </g>
</svg>
