<svg xmlns="http://www.w3.org/2000/svg" width="50" height="50" viewBox="0 0 50 50">
    <defs>
        <style>
            .cls-1,.cls-4{fill:none}.cls-2{fill:#ec9d6a;stroke:#ec9d6a}.cls-2,.cls-3,.cls-4{stroke-linecap:round;stroke-linejoin:round}.cls-3{fill:#d38153;stroke:#d38153;opacity:.3}.cls-4{stroke:#cb4a1a}.cls-5{fill:#e07c45}.cls-6{fill:#c76934}.cls-7{clip-path:url(#clip-path)}
        </style>
        <clipPath id="clip-path">
            <path id="패스_1831" d="M390.145 122.211v-.011c-3.93-.57-4.993-1.779-6.459-3.92-1.357-1.981-1.357-5.4-1.357-5.4V99.446a2.221 2.221 0 1 0-4.442 0v13.434s0 3.421-1.358 5.4c-1.466 2.141-2.542 3.371-6.472 3.942a1.822 1.822 0 0 0 .357 3.609 1.876 1.876 0 0 0 .227-.023v.008a10.566 10.566 0 0 0 7.7-3.585c.029-.031.058-.06.089-.089a2.529 2.529 0 0 1 3.582.089 11.2 11.2 0 0 0 7.679 3.58h.017a1.624 1.624 0 0 0 .21.022 1.818 1.818 0 0 0 .225-3.622z" class="cls-1" data-name="패스 1831" transform="translate(-368.592 -97.225)"/>
        </clipPath>
    </defs>
    <g id="그룹_1789" data-name="그룹 1789" transform="translate(-354.943 -94.059)">
        <g id="그룹_1788" data-name="그룹 1788" transform="translate(358.746 97.225)">
            <g id="그룹_1787" data-name="그룹 1787">
                <g id="그룹_1249" data-name="그룹 1249" transform="translate(0 14.439)">
                    <path id="패스_1811" d="M360.626 138.1a2.459 2.459 0 0 0 .28.02h10.14a6.132 6.132 0 0 0 6.05-6.21c0-.16-.01-.33-.02-.49l-.26-4.1-.17-2.75-.06-.78-.4-5.03-.07-.86-.12-1.48c-.21-2.58-3.93-4.45-6.33-4.45a4.716 4.716 0 0 0-2.61.8c-2.84 1.93-4.6 5.19-5.77 8.93-1.38 4.39-1.94 9.46-2.52 13.91a2.2 2.2 0 0 0 1.86 2.49z" class="cls-2" data-name="패스 1811" transform="translate(-358.746 -111.974)"/>
                </g>
                <g id="그룹_1249-2" data-name="그룹 1249" transform="translate(2.54 14.907)">
                    <path id="패스_1812" d="M361.286 122.045c3.72 1.97 10.73 5.36 15.53 5.62l-.17-2.75-.06-.78-.4-5.03-.07-.86-.12-1.48c-.21-2.58-3.93-4.45-6.33-4.45a4.716 4.716 0 0 0-2.61.8c-2.84 1.93-4.6 5.19-5.77 8.93z" class="cls-2" data-name="패스 1812" transform="translate(-361.286 -112.315)"/>
                </g>
                <path id="패스_1813" d="M360.626 138.1a2.459 2.459 0 0 0 .28.02h10.14a6.132 6.132 0 0 0 6.05-6.21c0-.16-.01-.33-.02-.49l-.26-4.1c-4.8-.26-11.81-3.65-15.53-5.62-1.38 4.39-1.94 9.46-2.52 13.91a2.2 2.2 0 0 0 1.86 2.49z" class="cls-3" data-name="패스 1813" transform="translate(-358.746 -97.535)"/>
                <g id="그룹_1249-3" data-name="그룹 1249" transform="translate(24.044 13.971)">
                    <path id="패스_1814" d="M399.57 137.636a2.459 2.459 0 0 1-.28.02h-10.14a6.132 6.132 0 0 1-6.05-6.21c0-.16.01-.33.02-.49l.26-4.1.17-2.75.06-.78.4-5.03.07-.86.12-1.48c.21-2.58 3.93-4.45 6.33-4.45a4.716 4.716 0 0 1 2.61.8c2.84 1.93 4.6 5.19 5.77 8.93 1.38 4.39 1.94 9.46 2.52 13.91a2.2 2.2 0 0 1-1.86 2.49z" class="cls-2" data-name="패스 1814" transform="translate(-383.1 -111.506)"/>
                </g>
                <g id="그룹_1249-4" data-name="그룹 1249" transform="translate(24.324 14.445)">
                    <path id="패스_1815" d="M398.91 121.577c-3.72 1.97-10.73 5.36-15.53 5.62l.17-2.75.06-.78.4-5.03.07-.86.12-1.48c.21-2.58 3.93-4.45 6.33-4.45a4.716 4.716 0 0 1 2.61.8c2.84 1.93 4.6 5.19 5.77 8.93z" class="cls-2" data-name="패스 1815" transform="translate(-383.38 -111.847)"/>
                </g>
                <path id="패스_1816" d="M386.955 125.6s-.323 2.19 1.143 3.126" class="cls-4" data-name="패스 1816" transform="translate(-358.956 -97.458)"/>
                <path id="패스_1817" d="M392.677 133.311l.856 2.064a5.065 5.065 0 0 0 1.955 2.246" class="cls-4" data-name="패스 1817" transform="translate(-359.056 -97.535)"/>
                <path id="패스_1818" d="M398.188 132.6s-.76-.275-.923-.789" class="cls-4" data-name="패스 1818" transform="translate(-359.056 -97.535)"/>
                <path id="패스_1819" d="M392.677 127.985s.76-.276.923-.789" class="cls-4" data-name="패스 1819" transform="translate(-358.998 -97.456)"/>
                <path id="패스_1820" d="M386.5 133.311s-.244.743-2.642 1.482" class="cls-4" data-name="패스 1820" transform="translate(-358.94 -97.535)"/>
                <path id="패스_1821" d="M372.786 125.6s.323 2.19-1.143 3.126" class="cls-4" data-name="패스 1821" transform="translate(-358.842 -97.458)"/>
                <path id="패스_1822" d="M361.086 123.061a3.837 3.837 0 0 0 2.769 1.52" class="cls-4" data-name="패스 1822" transform="translate(-358.746 -97.428)"/>
                <path id="패스_1823" d="M368 132.764l-.856 2.063a5.066 5.066 0 0 1-1.954 2.246" class="cls-4" data-name="패스 1823" transform="translate(-358.796 -97.535)"/>
                <path id="패스_1824" d="M362.009 132.73s.76-.276.923-.79" class="cls-4" data-name="패스 1824" transform="translate(-358.746 -97.535)"/>
                <path id="패스_1825" d="M366.6 128.88s-.76-.275-.923-.789" class="cls-4" data-name="패스 1825" transform="translate(-358.746 -97.463)"/>
                <path id="패스_1826" d="M373.693 133.437s.244.742 2.642 1.482" class="cls-4" data-name="패스 1826" transform="translate(-358.862 -97.535)"/>
                <path id="패스_1827" d="M387.754 121.446c1.7-.006 2.049-2.194 2.049-2.194" class="cls-4" data-name="패스 1827" transform="translate(-358.967 -97.401)"/>
                <path id="패스_1828" d="M370.415 119.252s.351 2.188 2.049 2.194" class="cls-4" data-name="패스 1828" transform="translate(-358.835 -97.401)"/>
                <path id="패스_1829" d="M389.857 122.211v-.011c-3.877-.57-4.926-1.779-6.373-3.92-1.339-1.981-1.339-5.4-1.339-5.4V99.446a2.191 2.191 0 1 0-4.383 0v13.434s0 3.421-1.34 5.4c-1.446 2.141-2.508 3.371-6.385 3.942a1.816 1.816 0 1 0 .576 3.586v.008a10.352 10.352 0 0 0 7.6-3.585c.029-.031.057-.06.088-.089a2.474 2.474 0 0 1 3.534.089 10.992 10.992 0 0 0 7.576 3.58h.017a1.581 1.581 0 0 0 .207.022 1.819 1.819 0 0 0 .222-3.622z" class="cls-5" data-name="패스 1829" transform="translate(-358.746 -97.225)"/>
                <path id="패스_1830" d="M384.28 123.817a1.358 1.358 0 0 1-.03.29 10.127 10.127 0 0 1-2.24-1.87 2.414 2.414 0 0 0-.82-.58 2.513 2.513 0 0 0-2.76.49l-.09.09a13.018 13.018 0 0 1-2.36 1.96 1.209 1.209 0 0 1-.06-.38c0-1.29 1.94-3.18 4.25-3.18s4.11 1.89 4.11 3.18z" class="cls-6" data-name="패스 1830" transform="translate(-358.901 -97.419)"/>
                <g id="그룹_1786" data-name="그룹 1786" transform="translate(9.69)">
                    <g id="그룹_1785" class="cls-7" data-name="그룹 1785">
                        <path id="선_349" d="M0 0h2.211" class="cls-4" data-name="선 349" transform="translate(9.296 3.136)"/>
                        <path id="선_350" d="M0 0h2.211" class="cls-4" data-name="선 350" transform="translate(9.296 5.165)"/>
                        <path id="선_351" d="M0 0h2.211" class="cls-4" data-name="선 351" transform="translate(9.296 7.195)"/>
                        <path id="선_352" d="M0 0h2.211" class="cls-4" data-name="선 352" transform="translate(9.296 9.225)"/>
                        <path id="선_353" d="M0 0h2.211" class="cls-4" data-name="선 353" transform="translate(9.296 11.255)"/>
                        <path id="선_354" d="M0 0h2.211" class="cls-4" data-name="선 354" transform="translate(9.296 13.285)"/>
                        <path id="선_355" d="M0 0h2.211" class="cls-4" data-name="선 355" transform="translate(9.296 15.314)"/>
                        <path id="선_356" d="M0 0h2.211" class="cls-4" data-name="선 356" transform="translate(9.296 17.344)"/>
                        <path id="선_357" d="M0 0h2.211" class="cls-4" data-name="선 357" transform="translate(8.478 19.629)"/>
                    </g>
                </g>
                <path id="패스_1832" d="M399.57 137.636a2.459 2.459 0 0 1-.28.02h-10.14a6.132 6.132 0 0 1-6.05-6.21c0-.16.01-.33.02-.49l.26-4.1c4.8-.26 11.81-3.65 15.53-5.62 1.38 4.39 1.94 9.46 2.52 13.91a2.2 2.2 0 0 1-1.86 2.49z" class="cls-3" data-name="패스 1832" transform="translate(-359.056 -97.535)"/>
            </g>
        </g>
        <path id="사각형_1945" d="M0 0h49.692v49.692H0z" class="cls-1" data-name="사각형 1945" transform="rotate(-.356 15365.311 -57078.456)"/>
    </g>
</svg>
