<svg xmlns="http://www.w3.org/2000/svg" width="50" height="50" viewBox="0 0 50 50">
    <defs>
        <style>
            .cls-1{fill:#fff}.cls-2{fill:#faddc7}.cls-3,.cls-4{fill:none;stroke-linecap:round}.cls-3{stroke:#f4c1b4;stroke-linejoin:bevel}.cls-4{stroke:#343535;stroke-miterlimit:10}.cls-5{fill:#111}.cls-6{fill:#f6ceb3}.cls-7{fill:#f0ceb7}.cls-8{fill:#343535}.cls-9{fill:#e0e171}.cls-10{fill:#d1cf46}.cls-11{fill:#bbb42f}
        </style>
    </defs>
    <g id="그룹_2520" data-name="그룹 2520" transform="translate(-1062.68 -195.455)">
        <g id="그룹_2516" data-name="그룹 2516">
            <path id="사각형_2737" d="M0 0h50v50H0z" class="cls-1" data-name="사각형 2737" transform="translate(1062.68 195.455)"/>
        </g>
        <g id="그룹_2519" data-name="그룹 2519">
            <g id="그룹_2518" data-name="그룹 2518">
                <path id="패스_2469" d="M1105.123 224.952c-.76 3.82-2.32 6.12-4.25 7.56-3.31 2.46-7.74 2.35-11.17 2.92-1.29.22-6.03.65-8.77-1.73a8.214 8.214 0 0 1-1.042-1.073.416.416 0 0 1 .184-.652 12.837 12.837 0 0 0 3.948-2.335.984.984 0 0 0-.57-1.75c-.732-.055-3.188-.042-4.781-.017a.409.409 0 0 1-.415-.417l.125-11.059v-.025a22.285 22.285 0 0 1 1.91-6.972 11.108 11.108 0 0 1 1.41-2.24 2.25 2.25 0 0 1 .21-.24 2.114 2.114 0 0 1 .25-.27c.11-.12.22-.23.33-.34.15-.14.31-.27.48-.41 4.01-3.12 10.91-2.4 10.91-2.4h.07a10.525 10.525 0 0 1 3.79.82c.04.01.08.03.12.04a13.041 13.041 0 0 1 6.04 5.22c3.421 5.4 1.221 15.37 1.221 15.37z" class="cls-2" data-name="패스 2469"/>
                <path id="사각형_2738" d="M0 0h13.81v9.215H0z" class="cls-2" data-name="사각형 2738" transform="translate(1086.985 230.321)"/>
                <circle id="타원_632" cx="2.152" cy="2.152" r="2.152" class="cls-2" data-name="타원 632" transform="translate(1076.641 221.879)"/>
                <path id="패스_2471" d="M1080.335 217.314a3.151 3.151 0 0 0 3.317-1.547" class="cls-4" data-name="패스 2471"/>
                <path id="패스_2472" d="M1097.73 201.966a13.483 13.483 0 0 1 8.089 5.828c5.01 7.458 1.322 17.277 1.322 17.277-1.723 4.4-4.334 6-6.263 7.441a.859.859 0 0 1-.084-.3c0-4.306-4.425-7.659-4.425-7.659a70.651 70.651 0 0 1-11.085-9.094 34.2 34.2 0 0 1-4.761-6.394c-.17-1.31.951-3.06 1.888-4.064a11.393 11.393 0 0 1 7.326-3.476 23.681 23.681 0 0 1 7.993.441z" class="cls-5" data-name="패스 2472"/>
                <path id="패스_2473" d="M1090.891 226.4a6.3 6.3 0 0 0 2.305.415 3.455 3.455 0 0 0 3.38-3.458 3.744 3.744 0 0 0-4.2-3.687z" class="cls-6" data-name="패스 2473"/>
                <path id="패스_2474" d="M1089.275 225.719a10.116 10.116 0 0 0 3.478.85 3.569 3.569 0 0 0 3.565-3.653 3.164 3.164 0 0 0-2.83-3.221 3.074 3.074 0 0 0-1.465.028 4.472 4.472 0 0 0-2.384 1.409z" class="cls-2" data-name="패스 2474"/>
                <path id="패스_2475" d="M1094.786 223.356a.546.546 0 0 1-.548-.264c-.6-.992-1.83-.426-1.882-.4a.543.543 0 0 1-.727-.286.577.577 0 0 1 .264-.755 2.5 2.5 0 0 1 3.265.84.581.581 0 0 1-.164.786.525.525 0 0 1-.208.079z" class="cls-7" data-name="패스 2475"/>
                <path id="패스_2476" d="M1091.547 223.94a.546.546 0 0 1 .4-.458c1.117-.321.827-.82.817-.877a.543.543 0 0 1 .468-.625.575.575 0 0 1 .658.454c.143.806.044 1.621-1.6 2.094a.582.582 0 0 1-.716-.366.532.532 0 0 1-.027-.222z" class="cls-7" data-name="패스 2476"/>
                <path id="패스_2477" d="M1086.985 235.613a32.761 32.761 0 0 0 7.8-2.4s-6.036 3.164-7.8 6.328z" class="cls-6" data-name="패스 2477"/>
                <rect id="사각형_2739" width="4.288" height="1" class="cls-8" data-name="사각형 2739" rx=".5" transform="rotate(-13.77 1450.041 -4363.64)"/>
                <rect id="사각형_2740" width="4.288" height="1" class="cls-8" data-name="사각형 2740" rx=".5" transform="rotate(12.4 -469.9 5082.539)"/>
                <g id="그룹_2517" data-name="그룹 2517">
                    <path id="패스_2478" d="M1074.9 235.766a3.641 3.641 0 1 1-3.182-6.5 4.716 4.716 0 0 1 2.707-.351c2.172.111 5.537.467 5.537.467s-1.815 2.862-3.3 4.792a4.787 4.787 0 0 1-1.762 1.592z" class="cls-9" data-name="패스 2478"/>
                    <circle id="타원_633" cx=".415" cy=".415" r=".415" class="cls-10" data-name="타원 633" transform="translate(1072.187 232.012)"/>
                    <circle id="타원_634" cx=".415" cy=".415" r=".415" class="cls-10" data-name="타원 634" transform="translate(1071.756 233.961)"/>
                    <circle id="타원_635" cx=".415" cy=".415" r=".415" class="cls-10" data-name="타원 635" transform="translate(1074.893 229.57)"/>
                    <circle id="타원_636" cx=".415" cy=".415" r=".415" class="cls-10" data-name="타원 636" transform="translate(1078.065 229.57)"/>
                    <circle id="타원_637" cx=".415" cy=".415" r=".415" class="cls-10" data-name="타원 637" transform="translate(1074.772 232.427)"/>
                    <circle id="타원_638" cx=".415" cy=".415" r=".415" class="cls-10" data-name="타원 638" transform="translate(1072.187 230.237)"/>
                    <circle id="타원_639" cx=".271" cy=".271" r=".271" class="cls-11" data-name="타원 639" transform="translate(1073.702 233.9)"/>
                    <circle id="타원_640" cx=".271" cy=".271" r=".271" class="cls-11" data-name="타원 640" transform="translate(1076.599 231.013)"/>
                    <circle id="타원_641" cx=".271" cy=".271" r=".271" class="cls-11" data-name="타원 641" transform="translate(1073.821 230.985)"/>
                    <circle id="타원_642" cx=".271" cy=".271" r=".271" class="cls-11" data-name="타원 642" transform="translate(1070.572 231.971)"/>
                </g>
                <path id="패스_2481" d="M1075.142 228.11a.83.83 0 1 1 .6-1.525c.473.187 1.165 1.344 1.165 1.344a4.391 4.391 0 0 1-1.765.181z" class="cls-9" data-name="패스 2481"/>
                <path id="패스_2482" d="M1079.288 235.309a.83.83 0 1 1-1.594-.388c.12-.494 1.17-1.339 1.17-1.339a4.383 4.383 0 0 1 .424 1.727z" class="cls-9" data-name="패스 2482"/>
            </g>
        </g>
    </g>
</svg>
