<svg xmlns="http://www.w3.org/2000/svg" width="50" height="50" viewBox="0 0 50 50">
    <defs>
        <style>
            .cls-1{fill:#faddc7}.cls-2{fill:#e48559}.cls-3{fill:#e69161}.cls-4{fill:#ce613a}.cls-5{fill:#c0583c}.cls-6{fill:#d56e43}.cls-7{fill:#c95a37}.cls-8{fill:none}
        </style>
    </defs>
    <g id="그룹_3197" data-name="그룹 3197" transform="translate(-1070.431 -244.11)">
        <g id="그룹_3196" data-name="그룹 3196">
            <circle id="타원_838" cx="19.547" cy="19.547" r="19.547" class="cls-1" data-name="타원 838" transform="translate(1075.884 249.563)"/>
            <g id="그룹_3195" data-name="그룹 3195">
                <g id="그룹_3192" data-name="그룹 3192">
                    <path id="패스_3570" d="M1096.9 261.818a13.846 13.846 0 0 1-1.95.62q-.18-.555-.39-1.05c-.01-.01-.01-.03-.02-.04-.04-.11-.09-.23-.14-.34-.06-.15-.13-.3-.19-.44q-.135-.3-.27-.57a3.971 3.971 0 0 0-.17-.36l-.24-.45c-.11-.21-.22-.4-.33-.58s-.22-.37-.33-.54c-.08-.14-.17-.27-.25-.39-.21-.31-.41-.59-.59-.83-.06-.08-.12-.15-.17-.22-.18-.23-.34-.41-.47-.55a1.766 1.766 0 0 0-.13-.14 2.494 2.494 0 0 0-.21-.22 2.181 2.181 0 0 0-.64-.41 1.973 1.973 0 0 1 2.68.04 15.783 15.783 0 0 1 3.06 4.61c.11.24.22.48.32.74a2.194 2.194 0 0 1 .11.27c.04.09.07.18.11.28.077.18.137.38.21.57z" class="cls-2" data-name="패스 3570"/>
                    <path id="패스_3571" d="M1095.467 282.638a2 2 0 0 1-1.59.78 1.925 1.925 0 0 1-.7-.13 2.223 2.223 0 0 0 .26-.27c.14-.19 3.47-4.66 2.82-14.02-.02-.27-.04-.55-.07-.81s-.05-.53-.09-.79a5.768 5.768 0 0 0-.09-.6c-.02-.18-.05-.36-.08-.53-.05-.28-.1-.56-.16-.84a20.531 20.531 0 0 0-.56-2.19 13.838 13.838 0 0 0 1.94-.66 24.684 24.684 0 0 1 1.14 6.04c.66 9.36-2.68 13.83-2.82 14.02z" class="cls-2" data-name="패스 3571"/>
                </g>
                <path id="패스_3572" d="M1092.147 260.868a11.191 11.191 0 0 0-1.82-2.63 1.992 1.992 0 0 1-.05-2.82.634.634 0 0 1 .13-.11 2.181 2.181 0 0 1 .64.41 2.494 2.494 0 0 1 .21.22 1.766 1.766 0 0 1 .13.14c.13.14.29.32.47.55.05.07.11.14.17.22.18.24.38.52.59.83.08.12.17.25.25.39q.165.255.33.54c.11.18.22.38.33.58l.24.45a3.971 3.971 0 0 1 .17.36q.135.27.27.57c.06.14.13.29.19.44.05.11.1.23.14.34.01.01.01.03.02.04q.21.495.39 1.05l-.37.09c-.52.11-1.05.2-1.57.26-.15-.4-.3-.76-.46-1.1-.13-.288-.27-.57-.4-.82z" class="cls-3" data-name="패스 3572"/>
                <path id="패스_3573" d="M1093.437 283.018a2.223 2.223 0 0 1-.26.27 1.825 1.825 0 0 1-.51-.28 2 2 0 0 1-.38-2.8c.02-.02 2.55-3.6 2.01-11.31a21.758 21.758 0 0 0-1-5.28c.43-.05.85-.13 1.28-.22.21-.05.42-.1.63-.16a20.531 20.531 0 0 1 .56 2.19c.06.28.11.56.16.84.03.17.06.35.08.53a5.768 5.768 0 0 1 .09.6c.03.25.07.52.09.79s.05.54.07.81c.65 9.36-2.68 13.83-2.82 14.02z" class="cls-3" data-name="패스 3573"/>
                <path id="패스_3574" d="M1097.147 262.578a13.838 13.838 0 0 1-1.94.66c-.21.06-.42.11-.63.16-.43.09-.85.17-1.28.22-.09-.29-.19-.57-.29-.83.52-.06 1.05-.15 1.57-.26l.37-.09a13.846 13.846 0 0 0 1.95-.62c.09.25.18.5.25.76z" class="cls-4" data-name="패스 3574"/>
                <path id="패스_3575" d="M1091.3 262.888a14.007 14.007 0 0 0 1.71-.1c.1.26.2.54.29.83a13.548 13.548 0 0 1-2 .14 13.264 13.264 0 0 1-2.69-.26.987.987 0 0 1-.78-1.17.853.853 0 0 1 .09-.24.94.94 0 0 0 .69.54 13.264 13.264 0 0 0 2.69.26z" class="cls-5" data-name="패스 3575"/>
                <path id="패스_3576" d="M1100.677 260.448a13.341 13.341 0 0 1-3.53 2.13c-.07-.26-.16-.51-.25-.76a13.742 13.742 0 0 0 3.78-2.24.961.961 0 0 0 .25-.32 1 1 0 0 1-.25 1.19z" class="cls-5" data-name="패스 3576"/>
                <path id="패스_3577" d="M1100.927 259.258a.961.961 0 0 1-.25.32 13.742 13.742 0 0 1-3.78 2.24c-.07-.19-.13-.39-.21-.57-.04-.1-.07-.19-.11-.28a2.194 2.194 0 0 0-.11-.27 11.469 11.469 0 0 0 2.92-1.78 1 1 0 0 1 1.41.12.709.709 0 0 1 .13.22z" class="cls-6" data-name="패스 3577"/>
                <path id="패스_3578" d="M1096.9 261.818a13.846 13.846 0 0 1-1.95.62l-.37.09c-.52.11-1.05.2-1.57.26-.15-.4-.3-.76-.46-1.1a11.04 11.04 0 0 0 1.6-.24c.13-.03.26-.06.39-.1a11.524 11.524 0 0 0 1.93-.65 2.194 2.194 0 0 1 .11.27c.04.09.07.18.11.28.077.18.137.38.21.57z" class="cls-6" data-name="패스 3578"/>
                <path id="패스_3579" d="M1100.927 259.258a.961.961 0 0 1-.25.32 13.742 13.742 0 0 1-3.78 2.24c-.07-.19-.13-.39-.21-.57-.04-.1-.07-.19-.11-.28a2.194 2.194 0 0 0-.11-.27 11.469 11.469 0 0 0 2.92-1.78 1 1 0 0 1 1.41.12.709.709 0 0 1 .13.22z" class="cls-5" data-name="패스 3579"/>
                <path id="패스_3580" d="M1093.007 262.788a14.007 14.007 0 0 1-1.71.1 13.264 13.264 0 0 1-2.69-.26.94.94 0 0 1-.69-.54.987.987 0 0 1 1.08-.55 11.657 11.657 0 0 0 3.55.15c.16.34.31.7.46 1.1z" class="cls-5" data-name="패스 3580"/>
                <path id="패스_3581" d="M1096.9 261.818a13.846 13.846 0 0 1-1.95.62l-.37.09c-.52.11-1.05.2-1.57.26-.15-.4-.3-.76-.46-1.1a11.04 11.04 0 0 0 1.6-.24c.13-.03.26-.06.39-.1a11.524 11.524 0 0 0 1.93-.65 2.194 2.194 0 0 1 .11.27c.04.09.07.18.11.28.077.18.137.38.21.57z" class="cls-7" data-name="패스 3581"/>
                <g id="그룹_3193" data-name="그룹 3193">
                    <path id="패스_3582" d="M1098.424 270.9a13.848 13.848 0 0 1-2.049.026 15.25 15.25 0 0 1-.649-.044c-.437-.048-.861-.1-1.285-.188 0-.3 0-.6-.018-.879.513.1 1.045.183 1.573.24.123.009.256.021.38.029a13.858 13.858 0 0 0 2.046.016c.008.271.016.536.002.8z" class="cls-4" data-name="패스 3582"/>
                    <path id="패스_3583" d="M1092.766 269.384a13.919 13.919 0 0 0 1.657.436c.014.278.022.575.018.879a13.564 13.564 0 0 1-1.945-.488 13.245 13.245 0 0 1-2.476-1.082.987.987 0 0 1-.379-1.354.834.834 0 0 1 .161-.2.937.937 0 0 0 .488.727 13.245 13.245 0 0 0 2.476 1.082z" class="cls-5" data-name="패스 3583"/>
                    <path id="패스_3584" d="M1102.44 269.976a13.328 13.328 0 0 1-4.016.929c.014-.269.006-.534 0-.8a13.737 13.737 0 0 0 4.288-.956.952.952 0 0 0 .337-.226 1 1 0 0 1-.609 1.053z" class="cls-5" data-name="패스 3584"/>
                    <path id="패스_3585" d="M1103.047 268.923a.952.952 0 0 1-.337.226 13.737 13.737 0 0 1-4.288.956c-.008-.2 0-.411-.023-.607-.007-.107-.007-.2-.018-.3a2.112 2.112 0 0 0-.02-.291 11.461 11.461 0 0 0 3.328-.786 1 1 0 0 1 1.3.552.7.7 0 0 1 .058.25z" class="cls-5" data-name="패스 3585"/>
                    <path id="패스_3586" d="M1094.423 269.82a13.919 13.919 0 0 1-1.657-.436 13.245 13.245 0 0 1-2.476-1.082.937.937 0 0 1-.488-.727.985.985 0 0 1 1.2-.188 11.664 11.664 0 0 0 3.328 1.244c.044.369.07.762.093 1.189z" class="cls-5" data-name="패스 3586"/>
                    <path id="패스_3587" d="M1098.422 270.105a13.858 13.858 0 0 1-2.046-.016c-.124-.008-.257-.02-.38-.029a17.33 17.33 0 0 1-1.573-.24 13.026 13.026 0 0 0-.1-1.189 11.041 11.041 0 0 0 1.595.269c.133.012.266.024.4.026a11.538 11.538 0 0 0 2.037-.019 2.112 2.112 0 0 1 .02.291c.011.1.011.193.018.3.026.196.021.402.029.607z" class="cls-7" data-name="패스 3587"/>
                </g>
                <g id="그룹_3194" data-name="그룹 3194">
                    <path id="패스_3588" d="M1097.361 278.527a13.862 13.862 0 0 1-2-.429c-.211-.056-.417-.121-.623-.185a14.796 14.796 0 0 1-1.211-.468c.071-.3.129-.587.177-.861.477.215.978.409 1.481.582.118.035.245.076.363.112a13.747 13.747 0 0 0 1.992.468c-.055.261-.106.522-.179.781z" class="cls-4" data-name="패스 3588"/>
                    <path id="패스_3589" d="M1092.18 275.792a14.031 14.031 0 0 0 1.52.792 14.07 14.07 0 0 1-.177.861 13.512 13.512 0 0 1-1.789-.906 13.273 13.273 0 0 1-2.176-1.6.986.986 0 0 1-.069-1.4.838.838 0 0 1 .2-.16.943.943 0 0 0 .315.817 13.311 13.311 0 0 0 2.176 1.596z" class="cls-5" data-name="패스 3589"/>
                    <path id="패스_3590" d="M1101.484 278.509a13.371 13.371 0 0 1-4.123.018c.073-.259.124-.52.175-.781a13.729 13.729 0 0 0 4.394.016.963.963 0 0 0 .379-.146 1 1 0 0 1-.825.893z" class="cls-5" data-name="패스 3590"/>
                    <path id="패스_3591" d="M1102.309 277.616a.963.963 0 0 1-.379.146 13.729 13.729 0 0 1-4.394-.016c.038-.2.089-.4.112-.6.017-.106.038-.2.05-.3a2.272 2.272 0 0 0 .044-.288 11.472 11.472 0 0 0 3.419-.03 1 1 0 0 1 1.149.826.709.709 0 0 1-.001.262z" class="cls-5" data-name="패스 3591"/>
                    <path id="패스_3592" d="M1093.7 276.584a14.031 14.031 0 0 1-1.52-.792 13.311 13.311 0 0 1-2.176-1.6.943.943 0 0 1-.315-.817.986.986 0 0 1 1.209.082 11.647 11.647 0 0 0 2.971 1.949c-.037.371-.093.757-.169 1.178z" class="cls-5" data-name="패스 3592"/>
                    <path id="패스_3593" d="M1097.536 277.746a13.747 13.747 0 0 1-1.992-.468c-.118-.036-.245-.077-.363-.112-.5-.173-1-.367-1.481-.582.076-.421.132-.807.169-1.181a11 11 0 0 0 1.5.615c.127.041.254.082.387.114a11.429 11.429 0 0 0 1.99.432 2.272 2.272 0 0 1-.044.288c-.012.1-.033.191-.05.3-.027.193-.078.395-.116.594z" class="cls-7" data-name="패스 3593"/>
                </g>
            </g>
        </g>
        <path id="사각형_2980" d="M0 0h50v50H0z" class="cls-8" data-name="사각형 2980" transform="translate(1070.431 244.11)"/>
    </g>
</svg>
