<svg xmlns="http://www.w3.org/2000/svg" width="50" height="50" viewBox="0 0 50 50">
  <g id="그룹_2267" data-name="그룹 2267" transform="translate(-166.6 -883.988)">
    <g id="그룹_2266" data-name="그룹 2266" transform="translate(172.365 890.753)">
      <g id="패스_2047" data-name="패스 2047" transform="translate(-172.365 -890.753)" fill="#fff" stroke-miterlimit="10">
        <path d="M 177.9014434814453 926.2230834960938 C 176.2170867919922 926.2230834960938 174.7319793701172 925.3460083007812 173.9287567138672 923.8768310546875 C 173.1164093017578 922.3909301757812 173.1837158203125 920.6425170898438 174.1088104248047 919.1997680664062 L 174.1343383789062 919.159912109375 L 174.156005859375 919.1178588867188 L 187.1632843017578 893.864990234375 C 188.0295867919922 892.5416870117188 189.4819641113281 891.753173828125 191.0576324462891 891.753173828125 C 192.6126708984375 891.753173828125 194.0358276367188 892.5281372070312 194.8692779541016 893.827392578125 L 209.0966644287109 918.8541870117188 L 209.1086120605469 918.875244140625 L 209.12158203125 918.8956909179688 C 210.0215148925781 920.3142700195312 210.0725250244141 922.051513671875 209.2579956054688 923.5427856445312 C 208.4314880371094 925.0560302734375 206.9138641357422 925.9652709960938 205.1983337402344 925.9749755859375 L 177.9249114990234 926.2230834960938 L 177.9014434814453 926.2230834960938 Z" stroke="none"/>
        <path d="M 177.9014434814453 925.2230834960938 L 177.9206237792969 925.2230834960938 L 205.1858062744141 924.9750366210938 L 205.1892547607422 924.9750366210938 L 205.1926727294922 924.9750366210938 C 206.5391235351562 924.9674072265625 207.7307739257812 924.2528076171875 208.3803863525391 923.0634765625 C 209.0179748535156 921.8961181640625 208.9793853759766 920.538330078125 208.2771606445312 919.4313354492188 L 208.2512359619141 919.3905029296875 L 208.2273101806641 919.348388671875 L 194.0137786865234 894.345947265625 C 193.3546752929688 893.3330688476562 192.2797241210938 892.753173828125 191.0576324462891 892.753173828125 C 189.8188934326172 892.753173828125 188.7191619873047 893.341796875 188.0272064208984 894.37158203125 L 175.0449981689453 919.5758056640625 L 175.0016784667969 919.6598510742188 L 174.9506225585938 919.739501953125 C 174.2259521484375 920.8696899414062 174.1719512939453 922.2369995117188 174.8061828613281 923.3970947265625 C 175.4312896728516 924.54052734375 176.5883941650391 925.2230834960938 177.9014434814453 925.2230834960938 M 177.9014434814453 927.2230834960938 C 173.5068511962891 927.2230834960938 170.8798370361328 922.3829345703125 173.2669982910156 918.6599731445312 L 186.2969970703125 893.3629760742188 C 187.411865234375 891.6245727539062 189.2394561767578 890.753173828125 191.0576324462891 890.753173828125 C 192.8550415039062 890.753173828125 194.6432495117188 891.6043090820312 195.7259979248047 893.3109741210938 L 209.9660034179688 918.3599853515625 C 212.3170013427734 922.0659790039062 209.6170043945312 926.9500122070312 205.2039947509766 926.9749755859375 L 177.9340057373047 927.2230224609375 C 177.9232330322266 927.2230834960938 177.9121856689453 927.2230834960938 177.9014434814453 927.2230834960938 Z" stroke="none" fill="#ec441c"/>
      </g>
      <line id="선_376" data-name="선 376" y1="20.098" x2="25.75" transform="translate(2.838 13.102)" fill="#fff" stroke="#ec441c" stroke-miterlimit="10" stroke-width="4" opacity="0.2"/>
      <g id="그룹_2263" data-name="그룹 2263" transform="translate(15.597 11.673)">
        <path id="패스_2048" data-name="패스 2048" d="M190.661,906.123a6.315,6.315,0,0,0,.5-.57,2.644,2.644,0,0,0,.275-.439,1.2,1.2,0,0,0,.112-.356,2.47,2.47,0,0,0,.02-.316v-.082a.741.741,0,0,0-.239-.534,1.122,1.122,0,0,0-.809-.239,2.013,2.013,0,0,0-.4.041,1.283,1.283,0,0,0-.392.152,1.678,1.678,0,0,0-.382.316,2.943,2.943,0,0,0-.372.519l-.978-.641a5.266,5.266,0,0,1,.331-.509,2.429,2.429,0,0,1,.5-.505,2.675,2.675,0,0,1,1.686-.534,3.361,3.361,0,0,1,1.07.152,2.122,2.122,0,0,1,.738.413,1.6,1.6,0,0,1,.428.6,1.9,1.9,0,0,1,.138.718v.1a2.551,2.551,0,0,1-.271,1.146,4.087,4.087,0,0,1-.789,1.064l-2.159,2.18h3.493v1.079h-5.194V908.9Z" transform="translate(-187.962 -902.426)" fill="#1a1818"/>
      </g>
      <g id="그룹_2265" data-name="그룹 2265" transform="translate(11.74 20.89)">
        <g id="그룹_2264" data-name="그룹 2264">
          <path id="패스_2049" data-name="패스 2049" d="M187.373,914.231a4.487,4.487,0,0,1-.1.994,2.326,2.326,0,0,1-.381.823,4.479,4.479,0,0,1-.807.827q-.522.429-1.371,1.015l-.611-.816c.493-.328.885-.609,1.18-.845a3.437,3.437,0,0,0,.67-.673,1.782,1.782,0,0,0,.3-.671,4.123,4.123,0,0,0,.072-.823v-.731h-2.012v-.925h3.056Zm1.842.1h.756v-2.69h1.017v7.893h-1.017v-4.278h-.756v3.9H188.2V911.8h1.019Z" transform="translate(-184.105 -911.643)" fill="#535453"/>
          <path id="패스_2050" data-name="패스 2050" d="M191.956,914.511c.65,0,1.224,0,1.719-.008s.939-.015,1.333-.025.745-.028,1.056-.047.606-.044.883-.073l.076.815q-.406.051-.929.085t-1.227.051v1.027h-1.06v-1.01c-.278.006-.57.009-.874.009h-.977Zm2.5-.238a3.737,3.737,0,0,1-.776-.076,2.161,2.161,0,0,1-.628-.229,1.24,1.24,0,0,1-.421-.378.889.889,0,0,1-.153-.513v-.187a.886.886,0,0,1,.153-.513,1.239,1.239,0,0,1,.421-.378,2.075,2.075,0,0,1,.628-.229,3.947,3.947,0,0,1,1.552,0,2.075,2.075,0,0,1,.628.229,1.239,1.239,0,0,1,.421.378.886.886,0,0,1,.153.513v.187a.889.889,0,0,1-.153.513,1.24,1.24,0,0,1-.421.378,2.161,2.161,0,0,1-.628.229A3.737,3.737,0,0,1,194.46,914.273Zm4.032,2.3v1.9h-4.159v.356h4.388v.8H193.3V917.72h4.159v-.349h-4.2v-.8Zm-4.032-4.065a1.794,1.794,0,0,0-.73.115.351.351,0,0,0-.246.318v.084a.352.352,0,0,0,.246.319,2.375,2.375,0,0,0,1.46,0,.355.355,0,0,0,.247-.319v-.084a.353.353,0,0,0-.247-.318A1.794,1.794,0,0,0,194.46,912.508Zm1.4,2.954h1.562v-3.819h1.07v4.693h-1.07v-.119H195.86Z" transform="translate(-184.105 -911.643)" fill="#535453"/>
        </g>
      </g>
    </g>
    <rect id="사각형_2670" data-name="사각형 2670" width="50" height="50" transform="translate(166.6 883.988)" fill="none"/>
  </g>
</svg>
