<svg xmlns="http://www.w3.org/2000/svg" width="50" height="50" viewBox="0 0 50 50">
  <g id="그룹_2292" data-name="그룹 2292" transform="translate(-460.496 -883.988)">
    <g id="그룹_2291" data-name="그룹 2291" transform="translate(466.26 890.753)">
      <g id="패스_2067" data-name="패스 2067" transform="translate(-466.26 -890.753)" fill="#fff" stroke-miterlimit="10">
        <path d="M 471.7964477539062 926.2230834960938 C 470.1127319335938 926.2230834960938 468.6279907226562 925.3461303710938 467.82470703125 923.877197265625 C 467.0120849609375 922.3911743164062 467.0790710449219 920.6425170898438 468.00390625 919.1995849609375 L 468.0293579101562 919.1598510742188 L 468.0509643554688 919.117919921875 L 481.0593566894531 893.8648681640625 C 481.9252014160156 892.5416870117188 483.3772888183594 891.753173828125 484.952880859375 891.753173828125 C 486.5079956054688 891.753173828125 487.9314270019531 892.5281372070312 488.7653198242188 893.8274536132812 L 502.9926452636719 918.8541870117188 L 503.0046081542969 918.875244140625 L 503.017578125 918.8956909179688 C 503.91748046875 920.314208984375 503.968505859375 922.0513305664062 503.154052734375 923.5425415039062 C 502.3274230957031 925.0559692382812 500.8094177246094 925.9652709960938 499.0933227539062 925.9749755859375 L 471.8199157714844 926.2230834960938 L 471.7964477539062 926.2230834960938 Z" stroke="none"/>
        <path d="M 471.7964477539062 925.2230834960938 L 471.8156127929688 925.2230834960938 L 499.080810546875 924.9750366210938 L 499.0842590332031 924.9750366210938 L 499.0876770019531 924.9750366210938 C 500.4346618652344 924.9674072265625 501.6267395019531 924.252685546875 502.2764282226562 923.0631713867188 C 502.9139709472656 921.8959350585938 502.8753356933594 920.5382690429688 502.1731567382812 919.4313354492188 L 502.147216796875 919.3905029296875 L 502.123291015625 919.348388671875 L 487.9098510742188 894.3460693359375 C 487.2502746582031 893.3331298828125 486.1749877929688 892.753173828125 484.952880859375 892.753173828125 C 483.7142333984375 892.753173828125 482.6148376464844 893.3417358398438 481.9233093261719 894.3713989257812 L 468.93994140625 919.5758666992188 L 468.896728515625 919.6597290039062 L 468.8458251953125 919.7391967773438 C 468.121337890625 920.8695678710938 468.0675964355469 922.2371215820312 468.7021179199219 923.3973999023438 C 469.3272399902344 924.5405883789062 470.4840087890625 925.2230834960938 471.7964477539062 925.2230834960938 M 471.7964477539062 927.2230834960938 C 467.40283203125 927.2230834960938 464.7758178710938 922.3829345703125 467.1619873046875 918.6599731445312 L 480.1929931640625 893.3629760742188 C 481.3073425292969 891.6245727539062 483.1347045898438 890.753173828125 484.952880859375 890.753173828125 C 486.7503051757812 890.753173828125 488.5387573242188 891.6043090820312 489.6220092773438 893.3109741210938 L 503.8619995117188 918.3599853515625 C 506.2130126953125 922.0659790039062 503.5130004882812 926.9500122070312 499.0989990234375 926.9749755859375 L 471.8290100097656 927.2230224609375 C 471.8182373046875 927.2230834960938 471.8071899414062 927.2230834960938 471.7964477539062 927.2230834960938 Z" stroke="none" fill="#ec441c"/>
      </g>
      <line id="선_381" data-name="선 381" y1="20.098" x2="25.75" transform="translate(2.838 13.102)" fill="#fff" stroke="#ec441c" stroke-miterlimit="10" stroke-width="4" opacity="0.2"/>
      <g id="그룹_2288" data-name="그룹 2288" transform="translate(15.608 11.785)">
        <path id="패스_2068" data-name="패스 2068" d="M484.3,909.881h-1.375l2.822-6.243h-3.881v-1.1h5.246v1Z" transform="translate(-481.868 -902.538)" fill="#1a1818"/>
      </g>
      <g id="그룹_2290" data-name="그룹 2290" transform="translate(11.741 20.89)">
        <g id="그룹_2289" data-name="그룹 2289">
          <path id="패스_2069" data-name="패스 2069" d="M481.269,914.231a4.548,4.548,0,0,1-.1.994,2.329,2.329,0,0,1-.382.823,4.447,4.447,0,0,1-.807.827q-.52.429-1.371,1.015l-.61-.816q.738-.492,1.18-.845a3.465,3.465,0,0,0,.67-.673,1.78,1.78,0,0,0,.3-.671,4.116,4.116,0,0,0,.073-.823v-.731h-2.012v-.925h3.056Zm1.841.1h.756v-2.69h1.018v7.893h-1.018v-4.278h-.756v3.9h-1.018V911.8h1.018Z" transform="translate(-478.001 -911.643)" fill="#535453"/>
          <path id="패스_2070" data-name="패스 2070" d="M485.852,914.511q.975,0,1.718-.008t1.333-.025q.589-.018,1.057-.047t.883-.073l.076.815c-.272.034-.581.062-.93.085s-.757.04-1.226.051v1.027H487.7v-1.01c-.277.006-.569.009-.874.009h-.976Zm2.5-.238a3.737,3.737,0,0,1-.776-.076,2.183,2.183,0,0,1-.628-.229,1.249,1.249,0,0,1-.421-.378.9.9,0,0,1-.152-.513v-.187a.893.893,0,0,1,.152-.513,1.248,1.248,0,0,1,.421-.378,2.1,2.1,0,0,1,.628-.229,3.952,3.952,0,0,1,1.553,0,2.1,2.1,0,0,1,.628.229,1.258,1.258,0,0,1,.421.378.893.893,0,0,1,.152.513v.187a.9.9,0,0,1-.152.513,1.259,1.259,0,0,1-.421.378,2.183,2.183,0,0,1-.628.229A3.74,3.74,0,0,1,488.355,914.273Zm4.033,2.3v1.9h-4.159v.356h4.387v.8h-5.424V917.72h4.16v-.349h-4.2v-.8Zm-4.033-4.065a1.785,1.785,0,0,0-.729.115.351.351,0,0,0-.246.318v.084a.352.352,0,0,0,.246.319,2.375,2.375,0,0,0,1.46,0,.353.353,0,0,0,.246-.319v-.084a.352.352,0,0,0-.246-.318A1.8,1.8,0,0,0,488.355,912.508Zm1.4,2.954h1.561v-3.819h1.071v4.693h-1.071v-.119h-1.561Z" transform="translate(-478.001 -911.643)" fill="#535453"/>
        </g>
      </g>
    </g>
    <rect id="사각형_2675" data-name="사각형 2675" width="50" height="50" transform="translate(460.495 883.988)" fill="none"/>
  </g>
</svg>
