<svg xmlns="http://www.w3.org/2000/svg" width="50" height="50" viewBox="0 0 50 50">
  <g id="그룹_2432" data-name="그룹 2432" transform="translate(-702.656 -883.988)">
    <g id="그룹_2431" data-name="그룹 2431" transform="translate(708.592 891.094)">
      <g id="패스_2155" data-name="패스 2155" transform="translate(-708.592 -891.094)" fill="#fff" stroke-miterlimit="10">
        <path d="M 740.8124389648438 925.8162231445312 L 740.7715454101562 925.8161010742188 L 713.98974609375 925.6845703125 C 712.338134765625 925.6707763671875 710.8895874023438 924.7969360351562 710.1183471679688 923.3471069335938 C 709.3395385742188 921.8831176757812 709.4276123046875 920.173583984375 710.3538208007812 918.774169921875 L 710.3799438476562 918.7346801757812 L 710.4022216796875 918.6929321289062 L 723.5200805664062 894.10302734375 C 724.3711547851562 892.843994140625 725.7781982421875 892.09375 727.2930908203125 892.09375 C 728.840576171875 892.09375 730.24560546875 892.8700561523438 731.05615234375 894.1715698242188 L 744.6810302734375 918.9144897460938 L 744.6927490234375 918.9357299804688 L 744.7054443359375 918.9564208984375 C 745.5608520507812 920.345703125 745.591064453125 922.03515625 744.7863159179688 923.4756469726562 C 743.967529296875 924.9412231445312 742.4819946289062 925.8162231445312 740.8124389648438 925.8162231445312 Z" stroke="none"/>
        <path d="M 740.8124389648438 924.8162231445312 C 742.1145629882812 924.8162231445312 743.2737426757812 924.1327514648438 743.913330078125 922.9879150390625 C 744.538818359375 921.8682250976562 744.5166625976562 920.5570678710938 743.8539428710938 919.480712890625 L 743.8284912109375 919.4393310546875 L 743.8050537109375 919.3968505859375 L 730.19384765625 894.6787109375 C 729.5567626953125 893.6708374023438 728.501953125 893.09375 727.2930908203125 893.09375 C 726.110107421875 893.09375 725.0518798828125 893.649658203125 724.3765258789062 894.6221313476562 L 711.2844848632812 919.16357421875 L 711.2399291992188 919.2471313476562 L 711.1876831054688 919.3260498046875 C 710.4671020507812 920.414794921875 710.3973999023438 921.742431640625 711.001220703125 922.87744140625 C 711.5968627929688 923.9971923828125 712.716796875 924.6724853515625 713.99755859375 924.6846313476562 L 740.7730102539062 924.8160400390625 L 740.7764892578125 924.8161010742188 L 740.7799682617188 924.8161010742188 L 740.8124389648438 924.8162231445312 M 740.8124389648438 926.8162231445312 C 740.7958374023438 926.8162231445312 740.7798461914062 926.816162109375 740.76318359375 926.8160400390625 L 713.9848022460938 926.6845703125 C 709.6505126953125 926.6483154296875 707.1190795898438 921.8496704101562 709.5198974609375 918.2222290039062 L 722.6611938476562 893.5884399414062 C 723.7633056640625 891.923583984375 725.533447265625 891.09375 727.2930908203125 891.09375 C 729.0843505859375 891.09375 730.8648071289062 891.9533081054688 731.9198608398438 893.6668701171875 L 745.5570068359375 918.43212890625 C 747.8058471679688 922.084716796875 745.1166381835938 926.8162231445312 740.8124389648438 926.8162231445312 Z" stroke="none" fill="#ec441c"/>
      </g>
      <line id="선_405" data-name="선 405" y1="19.736" x2="26.029" transform="translate(2.807 12.545)" fill="#fff" stroke="#ec441c" stroke-miterlimit="10" stroke-width="4" opacity="0.2"/>
      <g id="그룹_2428" data-name="그룹 2428" transform="translate(13.139 11.461)">
        <path id="패스_2156" data-name="패스 2156" d="M724.277,910.177l.082-5.876-1.683.933-.617-1.067,2.474-1.33,1.15.016-.1,7.342Z" transform="translate(-722.059 -902.837)" fill="#1a1818"/>
        <path id="패스_2157" data-name="패스 2157" d="M730.591,910.266l.082-5.877-1.683.934-.617-1.068,2.474-1.33,1.151.016-.1,7.343Z" transform="translate(-722.059 -902.837)" fill="#1a1818"/>
      </g>
      <g id="그룹_2430" data-name="그룹 2430" transform="translate(11.46 20.361)">
        <g id="그룹_2429" data-name="그룹 2429">
          <path id="패스_2158" data-name="패스 2158" d="M723.7,914.52a4.534,4.534,0,0,1-.111.992,2.322,2.322,0,0,1-.394.817,4.458,4.458,0,0,1-.818.816q-.528.422-1.385.995l-.6-.824c.5-.321.894-.6,1.193-.828a3.467,3.467,0,0,0,.679-.664,1.79,1.79,0,0,0,.311-.667,4.169,4.169,0,0,0,.084-.822l.01-.731-2.012-.027.013-.926,3.055.043Zm1.841.126.756.011.037-2.69,1.016.014-.11,7.893-1.016-.014.059-4.277-.756-.011-.053,3.9-1.019-.015.1-7.349,1.018.013Z" transform="translate(-720.396 -911.967)" fill="#535453"/>
          <path id="패스_2159" data-name="패스 2159" d="M728.282,914.863q.977.014,1.719.016t1.334-.007c.393-.006.745-.016,1.057-.032s.606-.034.883-.059l.066.816c-.273.03-.582.053-.932.071s-.757.029-1.226.034l-.015,1.027-1.061-.015.014-1.01c-.277,0-.569,0-.874,0l-.976-.013Zm2.508-.2a3.7,3.7,0,0,1-.775-.088,2.129,2.129,0,0,1-.625-.237,1.236,1.236,0,0,1-.416-.384.893.893,0,0,1-.145-.515l0-.187a.906.906,0,0,1,.16-.512,1.262,1.262,0,0,1,.426-.372,2.16,2.16,0,0,1,.631-.22,3.852,3.852,0,0,1,.778-.066,3.691,3.691,0,0,1,.775.088,2.171,2.171,0,0,1,.625.238,1.266,1.266,0,0,1,.416.384.891.891,0,0,1,.144.515l0,.187a.886.886,0,0,1-.16.511,1.242,1.242,0,0,1-.426.372,2.131,2.131,0,0,1-.631.221A3.708,3.708,0,0,1,730.79,914.661Zm4,2.356-.027,1.9-4.159-.058-.005.357,4.387.061-.01.8L729.552,920l.026-1.91,4.159.058.005-.348-4.2-.059.012-.8Zm-3.976-4.121a1.792,1.792,0,0,0-.731.1.351.351,0,0,0-.25.314l0,.085a.355.355,0,0,0,.242.323,1.805,1.805,0,0,0,.728.124,1.782,1.782,0,0,0,.732-.1.349.349,0,0,0,.25-.314l0-.085a.352.352,0,0,0-.242-.321A1.774,1.774,0,0,0,730.814,912.9Zm1.36,2.973,1.561.022.053-3.82,1.07.015-.065,4.693-1.07-.014,0-.119-1.562-.022Z" transform="translate(-720.396 -911.967)" fill="#535453"/>
        </g>
      </g>
    </g>
    <rect id="사각형_2699" data-name="사각형 2699" width="49.315" height="49.315" transform="translate(703.346 883.988) rotate(0.802)" fill="none"/>
  </g>
</svg>
