<svg xmlns="http://www.w3.org/2000/svg" width="50" height="50" viewBox="0 0 50 50">
  <g id="그룹_2282" data-name="그룹 2282" transform="translate(-342.711 -883.988)">
    <g id="그룹_2281" data-name="그룹 2281" transform="translate(348.476 890.753)">
      <g id="패스_2059" data-name="패스 2059" transform="translate(-348.476 -890.753)" fill="#fff" stroke-miterlimit="10">
        <path d="M 354.012451171875 926.2230834960938 C 352.3283081054688 926.2230834960938 350.8432922363281 925.3458862304688 350.0399780273438 923.8765258789062 C 349.2276000976562 922.390625 349.2948303222656 920.6422729492188 350.2197875976562 919.1997680664062 L 350.2453308105469 919.159912109375 L 350.2669982910156 919.1178588867188 L 363.2742919921875 893.864990234375 C 364.1405639648438 892.5416870117188 365.5929870605469 891.753173828125 367.1687622070312 891.753173828125 C 368.7239685058594 891.753173828125 370.1473999023438 892.528076171875 370.9812927246094 893.827392578125 L 385.2076416015625 918.8541870117188 L 385.2196655273438 918.8753051757812 L 385.232666015625 918.8958129882812 C 386.1329040527344 920.3142700195312 386.1842041015625 922.0513305664062 385.3699645996094 923.5424194335938 C 384.5434875488281 925.055908203125 383.0255126953125 925.9652709960938 381.309326171875 925.9749755859375 L 354.0359191894531 926.2230834960938 L 354.012451171875 926.2230834960938 Z" stroke="none"/>
        <path d="M 354.012451171875 925.2230834960938 L 354.0316162109375 925.2230834960938 L 381.2968139648438 924.9750366210938 L 381.3002624511719 924.9750366210938 L 381.3036804199219 924.9750366210938 C 382.6507263183594 924.9674072265625 383.8427429199219 924.252685546875 384.4922790527344 923.0631713867188 C 385.129638671875 921.89599609375 385.0907592773438 920.5384521484375 384.3883666992188 919.4317016601562 L 384.3623046875 919.390625 L 384.3382873535156 919.3483276367188 L 370.1258544921875 894.3460693359375 C 369.46630859375 893.3330688476562 368.3910217285156 892.753173828125 367.1687622070312 892.753173828125 C 365.929931640625 892.753173828125 364.8301696777344 893.341796875 364.13818359375 894.37158203125 L 351.1559753417969 919.5758056640625 L 351.1126708984375 919.6598510742188 L 351.0616149902344 919.739501953125 C 350.3370666503906 920.8695068359375 350.2831726074219 922.2366943359375 350.9174194335938 923.3968505859375 C 351.5426025390625 924.5404052734375 352.6996154785156 925.2230834960938 354.012451171875 925.2230834960938 M 354.012451171875 927.2230834960938 C 349.6188354492188 927.2230834960938 346.9908447265625 922.3829345703125 349.3779907226562 918.6599731445312 L 362.4079895019531 893.3629760742188 C 363.5228576660156 891.6245727539062 365.3504638671875 890.753173828125 367.1687622070312 890.753173828125 C 368.96630859375 890.753173828125 370.7547607421875 891.6043090820312 371.8380126953125 893.3109741210938 L 386.0769958496094 918.3599853515625 C 388.4289855957031 922.0659790039062 385.72900390625 926.9500122070312 381.3150024414062 926.9749755859375 L 354.0450134277344 927.2230224609375 C 354.0342407226562 927.2230834960938 354.023193359375 927.2230834960938 354.012451171875 927.2230834960938 Z" stroke="none" fill="#ec441c"/>
      </g>
      <line id="선_379" data-name="선 379" y1="20.098" x2="25.75" transform="translate(2.839 13.102)" fill="#fff" stroke="#ec441c" stroke-miterlimit="10" stroke-width="4" opacity="0.2"/>
      <g id="그룹_2278" data-name="그룹 2278" transform="translate(15.679 11.785)">
        <path id="패스_2060" data-name="패스 2060" d="M368.066,907.427a1.168,1.168,0,0,0-.341-.906,1.346,1.346,0,0,0-.952-.317,1.763,1.763,0,0,0-.81.174,2.449,2.449,0,0,0-.586.407H364.5l.235-4.247H368.9v1.079h-2.995l-.081,1.915a3.079,3.079,0,0,1,.58-.264,2.391,2.391,0,0,1,.784-.113,2.264,2.264,0,0,1,.937.184,2.038,2.038,0,0,1,.688.494,2.114,2.114,0,0,1,.423.718,2.537,2.537,0,0,1,.142.845v.153a2.739,2.739,0,0,1-.147.876,2.156,2.156,0,0,1-.469.784,2.434,2.434,0,0,1-.815.565,2.915,2.915,0,0,1-1.187.219,5.248,5.248,0,0,1-1.426-.178,3.209,3.209,0,0,1-1.181-.636l.632-1.03a3.373,3.373,0,0,0,.5.337,2.47,2.47,0,0,0,.483.2,2.548,2.548,0,0,0,.484.1,4.566,4.566,0,0,0,.5.026,1.263,1.263,0,0,0,.994-.362,1.326,1.326,0,0,0,.32-.911Z" transform="translate(-364.155 -902.538)" fill="#1a1818"/>
      </g>
      <g id="그룹_2280" data-name="그룹 2280" transform="translate(11.741 20.89)">
        <g id="그룹_2279" data-name="그룹 2279">
          <path id="패스_2061" data-name="패스 2061" d="M363.484,914.231a4.553,4.553,0,0,1-.1.994,2.347,2.347,0,0,1-.382.823,4.479,4.479,0,0,1-.807.827q-.52.429-1.371,1.015l-.61-.816q.738-.492,1.179-.845a3.436,3.436,0,0,0,.67-.673,1.767,1.767,0,0,0,.3-.671,4.124,4.124,0,0,0,.072-.823v-.731h-2.011v-.925h3.055Zm1.842.1h.756v-2.69H367.1v7.893h-1.018v-4.278h-.756v3.9h-1.018V911.8h1.018Z" transform="translate(-360.217 -911.643)" fill="#535453"/>
          <path id="패스_2062" data-name="패스 2062" d="M368.067,914.511q.977,0,1.719-.008t1.333-.025q.59-.018,1.057-.047c.31-.02.605-.044.883-.073l.076.815c-.272.034-.581.062-.93.085s-.757.04-1.226.051v1.027h-1.061v-1.01c-.277.006-.569.009-.874.009h-.977Zm2.5-.238a3.737,3.737,0,0,1-.776-.076,2.183,2.183,0,0,1-.628-.229,1.249,1.249,0,0,1-.421-.378.9.9,0,0,1-.152-.513v-.187a.893.893,0,0,1,.152-.513,1.248,1.248,0,0,1,.421-.378,2.1,2.1,0,0,1,.628-.229,3.952,3.952,0,0,1,1.553,0,2.1,2.1,0,0,1,.628.229,1.245,1.245,0,0,1,.42.378.886.886,0,0,1,.153.513v.187a.889.889,0,0,1-.153.513,1.245,1.245,0,0,1-.42.378,2.183,2.183,0,0,1-.628.229A3.747,3.747,0,0,1,370.571,914.273Zm4.033,2.3v1.9h-4.16v.356h4.388v.8h-5.424V917.72h4.159v-.349h-4.2v-.8Zm-4.033-4.065a1.785,1.785,0,0,0-.729.115.351.351,0,0,0-.246.318v.084a.352.352,0,0,0,.246.319,2.375,2.375,0,0,0,1.46,0,.353.353,0,0,0,.246-.319v-.084a.352.352,0,0,0-.246-.318A1.8,1.8,0,0,0,370.571,912.508Zm1.4,2.954h1.561v-3.819H374.6v4.693h-1.071v-.119h-1.561Z" transform="translate(-360.217 -911.643)" fill="#535453"/>
        </g>
      </g>
    </g>
    <rect id="사각형_2673" data-name="사각형 2673" width="50" height="50" transform="translate(342.711 883.988)" fill="none"/>
  </g>
</svg>
