<svg xmlns="http://www.w3.org/2000/svg" width="50" height="50" viewBox="0 0 50 50">
  <g id="그룹_2272" data-name="그룹 2272" transform="translate(-225.967 -883.988)">
    <g id="그룹_2271" data-name="그룹 2271" transform="translate(231.732 890.753)">
      <g id="패스_2051" data-name="패스 2051" transform="translate(-231.732 -890.753)" fill="#fff" stroke-miterlimit="10">
        <path d="M 237.2684326171875 926.2230834960938 C 235.5847320556641 926.2230834960938 234.0999908447266 925.3461303710938 233.2967376708984 923.877197265625 C 232.4841003417969 922.3911743164062 232.5511016845703 920.6425170898438 233.4759216308594 919.1995849609375 L 233.5013885498047 919.1598510742188 L 233.5229949951172 919.117919921875 L 246.5313110351562 893.8649291992188 C 247.3971405029297 892.541748046875 248.8492584228516 891.753173828125 250.4248504638672 891.753173828125 C 251.9799957275391 891.753173828125 253.4033966064453 892.5281372070312 254.2372894287109 893.8274536132812 L 268.4646606445312 918.8541870117188 L 268.4765930175781 918.875244140625 L 268.4895629882812 918.8956909179688 C 269.3894653320312 920.314208984375 269.4404602050781 922.0513916015625 268.6260070800781 923.5425415039062 C 267.7993774414062 925.0559692382812 266.2813720703125 925.9652709960938 264.5653381347656 925.9749755859375 L 237.2919006347656 926.2230834960938 L 237.2684326171875 926.2230834960938 Z" stroke="none"/>
        <path d="M 237.2684326171875 925.2230834960938 L 237.2876129150391 925.2230834960938 L 264.5527954101562 924.9750366210938 L 264.5562438964844 924.9750366210938 L 264.5596618652344 924.9750366210938 C 265.9066467285156 924.9674072265625 267.0986633300781 924.252685546875 267.7483825683594 923.0631713867188 C 268.3859252929688 921.8959350585938 268.3473205566406 920.5382690429688 267.6451416015625 919.4313354492188 L 267.6192016601562 919.3905029296875 L 267.5953063964844 919.348388671875 L 253.3818206787109 894.3460693359375 C 252.7222290039062 893.3331298828125 251.64697265625 892.753173828125 250.4248504638672 892.753173828125 C 249.1862030029297 892.753173828125 248.0868072509766 893.3416748046875 247.3952941894531 894.3713989257812 L 234.4119720458984 919.5758666992188 L 234.3687591552734 919.6597290039062 L 234.3178405761719 919.7391967773438 C 233.5933532714844 920.8695678710938 233.5396270751953 922.2371215820312 234.1741333007812 923.3974609375 C 234.7992553710938 924.5406494140625 235.9560089111328 925.2230834960938 237.2684326171875 925.2230834960938 M 237.2684326171875 927.2230834960938 C 232.8748474121094 927.2230834960938 230.2478485107422 922.3829345703125 232.6340026855469 918.6599731445312 L 245.6649780273438 893.3629760742188 C 246.7793426513672 891.6245727539062 248.606689453125 890.753173828125 250.4248504638672 890.753173828125 C 252.2222747802734 890.753173828125 254.0107269287109 891.6043090820312 255.0939788818359 893.3109741210938 L 269.333984375 918.3599853515625 C 271.6849670410156 922.0659790039062 268.9849548339844 926.9500122070312 264.5709838867188 926.9749755859375 L 237.3009948730469 927.2230224609375 C 237.2902221679688 927.2230834960938 237.2791900634766 927.2230834960938 237.2684326171875 927.2230834960938 Z" stroke="none" fill="#ec441c"/>
      </g>
      <line id="선_377" data-name="선 377" y1="20.098" x2="25.75" transform="translate(2.838 13.102)" fill="#fff" stroke="#ec441c" stroke-miterlimit="10" stroke-width="4" opacity="0.2"/>
      <g id="그룹_2268" data-name="그룹 2268" transform="translate(15.547 11.673)">
        <path id="패스_2052" data-name="패스 2052" d="M247.482,903.484a2.954,2.954,0,0,1,.876-.768,2.609,2.609,0,0,1,1.3-.29,3.108,3.108,0,0,1,.938.132,2.173,2.173,0,0,1,.713.372,1.662,1.662,0,0,1,.458.581,1.718,1.718,0,0,1,.163.748v.1a2.536,2.536,0,0,1-.046.464,1.648,1.648,0,0,1-.168.479,1.666,1.666,0,0,1-.326.423,1.57,1.57,0,0,1-.52.315,1.678,1.678,0,0,1,1.08.581,1.711,1.711,0,0,1,.347,1.079v.153a2.064,2.064,0,0,1-.163.8,1.919,1.919,0,0,1-.494.683,2.5,2.5,0,0,1-.835.473,3.527,3.527,0,0,1-1.177.178,3.893,3.893,0,0,1-1.237-.2,3.59,3.59,0,0,1-1.116-.616l.642-1.019c.177.129.338.237.483.326a2.535,2.535,0,0,0,.423.208,2.022,2.022,0,0,0,.4.108,2.714,2.714,0,0,0,.417.03,1.566,1.566,0,0,0,1.018-.274.946.946,0,0,0,.326-.765v-.132a.948.948,0,0,0-.315-.79,1.655,1.655,0,0,0-1.019-.249h-.988V905.5h.876a1.715,1.715,0,0,0,.565-.077.79.79,0,0,0,.341-.214.748.748,0,0,0,.169-.336,1.9,1.9,0,0,0,.045-.433v-.082a.688.688,0,0,0-.269-.6,1.25,1.25,0,0,0-.729-.189,1.476,1.476,0,0,0-.759.173,2.418,2.418,0,0,0-.534.439Z" transform="translate(-247.279 -902.426)" fill="#1a1818"/>
      </g>
      <g id="그룹_2270" data-name="그룹 2270" transform="translate(11.741 20.89)">
        <g id="그룹_2269" data-name="그룹 2269">
          <path id="패스_2053" data-name="패스 2053" d="M246.741,914.231a4.488,4.488,0,0,1-.1.994,2.312,2.312,0,0,1-.382.823,4.47,4.47,0,0,1-.806.827q-.522.429-1.372,1.015l-.61-.816q.738-.492,1.18-.845a3.464,3.464,0,0,0,.67-.673,1.782,1.782,0,0,0,.3-.671,4.2,4.2,0,0,0,.072-.823v-.731h-2.012v-.925h3.056Zm1.842.1h.755v-2.69h1.018v7.893h-1.018v-4.278h-.755v3.9h-1.019V911.8h1.019Z" transform="translate(-243.473 -911.643)" fill="#535453"/>
          <path id="패스_2054" data-name="패스 2054" d="M251.324,914.511q.975,0,1.718-.008t1.333-.025c.393-.012.746-.028,1.057-.047s.606-.044.883-.073l.076.815q-.406.051-.93.085t-1.226.051v1.027h-1.061v-1.01c-.277.006-.569.009-.874.009h-.976Zm2.5-.238a3.747,3.747,0,0,1-.777-.076,2.183,2.183,0,0,1-.628-.229,1.258,1.258,0,0,1-.421-.378.9.9,0,0,1-.152-.513v-.187a.893.893,0,0,1,.152-.513,1.258,1.258,0,0,1,.421-.378,2.1,2.1,0,0,1,.628-.229,3.952,3.952,0,0,1,1.553,0,2.1,2.1,0,0,1,.628.229,1.248,1.248,0,0,1,.421.378.893.893,0,0,1,.152.513v.187a.9.9,0,0,1-.152.513,1.249,1.249,0,0,1-.421.378,2.183,2.183,0,0,1-.628.229A3.737,3.737,0,0,1,253.828,914.273Zm4.032,2.3v1.9H253.7v.356h4.387v.8h-5.423V917.72h4.159v-.349h-4.2v-.8Zm-4.032-4.065a1.787,1.787,0,0,0-.73.115.351.351,0,0,0-.246.318v.084a.352.352,0,0,0,.246.319,2.375,2.375,0,0,0,1.46,0,.353.353,0,0,0,.246-.319v-.084a.352.352,0,0,0-.246-.318A1.794,1.794,0,0,0,253.828,912.508Zm1.4,2.954h1.562v-3.819h1.07v4.693h-1.07v-.119h-1.562Z" transform="translate(-243.473 -911.643)" fill="#535453"/>
        </g>
      </g>
    </g>
    <rect id="사각형_2671" data-name="사각형 2671" width="50" height="50" transform="translate(225.967 883.988)" fill="none"/>
  </g>
</svg>
