<svg xmlns="http://www.w3.org/2000/svg" width="50" height="50" viewBox="0 0 50 50">
  <g id="그룹_2437" data-name="그룹 2437" transform="translate(-762.162 -883.988)">
    <g id="그룹_2436" data-name="그룹 2436" transform="translate(768.097 891.094)">
      <g id="패스_2160" data-name="패스 2160" transform="translate(-768.097 -891.094)" fill="#fff" stroke-miterlimit="10">
        <path d="M 800.3164672851562 925.8162231445312 L 800.2755737304688 925.8161010742188 L 773.4937133789062 925.6845703125 C 771.8427124023438 925.6707763671875 770.39453125 924.7970581054688 769.6234130859375 923.3473510742188 C 768.8445434570312 921.8832397460938 768.9325561523438 920.1736450195312 769.8588256835938 918.774169921875 L 769.8849487304688 918.7346801757812 L 769.9072265625 918.6929321289062 L 783.025146484375 894.1028442382812 C 783.8757934570312 892.8438720703125 785.2825317382812 892.09375 786.7973022460938 892.09375 C 788.3449096679688 892.09375 789.7501831054688 892.8701171875 790.561279296875 894.1716918945312 L 804.18505859375 918.9144287109375 L 804.19677734375 918.935791015625 L 804.2095947265625 918.95654296875 C 805.0650634765625 920.3455200195312 805.0955200195312 922.0346069335938 804.291015625 923.4749755859375 C 803.4722290039062 924.9409790039062 801.9863891601562 925.8162231445312 800.3164672851562 925.8162231445312 Z" stroke="none"/>
        <path d="M 800.3164672851562 924.8162231445312 C 801.618896484375 924.8162231445312 802.7783203125 924.132568359375 803.41796875 922.9873657226562 C 804.0432739257812 921.8677978515625 804.0208740234375 920.5570068359375 803.358154296875 919.4810180664062 L 803.3325805664062 919.4395141601562 L 803.30908203125 919.3967895507812 L 789.6989135742188 894.6788330078125 C 789.0613403320312 893.6708374023438 788.0062866210938 893.09375 786.7973022460938 893.09375 C 785.6144409179688 893.09375 784.5564575195312 893.6495971679688 783.881591796875 894.6220092773438 L 770.7894897460938 919.16357421875 L 770.7449340820312 919.2471313476562 L 770.6926879882812 919.3260498046875 C 769.9721069335938 920.4148559570312 769.9024047851562 921.7425537109375 770.5062255859375 922.8777465820312 C 771.101806640625 923.9972534179688 772.2213134765625 924.6724853515625 773.5015869140625 924.6846313476562 L 800.2770385742188 924.8160400390625 L 800.280517578125 924.8161010742188 L 800.2839965820312 924.8161010742188 L 800.3164672851562 924.8162231445312 M 800.3164672851562 926.8162231445312 C 800.2998657226562 926.8162231445312 800.2838745117188 926.816162109375 800.2672119140625 926.8160400390625 L 773.4888305664062 926.6845703125 C 769.155517578125 926.6483154296875 766.6240844726562 921.8496704101562 769.02490234375 918.2222290039062 L 782.1661376953125 893.5884399414062 C 783.267822265625 891.923583984375 785.0376586914062 891.09375 786.7973022460938 891.09375 C 788.5885620117188 891.09375 790.3692626953125 891.9533081054688 791.4248657226562 893.6668701171875 L 805.06103515625 918.43212890625 C 807.310791015625 922.084716796875 804.62060546875 926.8162231445312 800.3164672851562 926.8162231445312 Z" stroke="none" fill="#ec441c"/>
      </g>
      <line id="선_406" data-name="선 406" y1="19.736" x2="26.029" transform="translate(2.807 12.545)" fill="#fff" stroke="#ec441c" stroke-miterlimit="10" stroke-width="4" opacity="0.2"/>
      <g id="그룹_2433" data-name="그룹 2433" transform="translate(13.127 11.429)">
        <path id="패스_2161" data-name="패스 2161" d="M783.781,910.177l.082-5.876-1.682.933-.618-1.067,2.474-1.33,1.15.016-.1,7.342Z" transform="translate(-781.563 -902.805)" fill="#1a1818"/>
        <path id="패스_2162" data-name="패스 2162" d="M789.925,906.505a6.329,6.329,0,0,0,.507-.564,2.646,2.646,0,0,0,.28-.434,1.175,1.175,0,0,0,.117-.355,2.311,2.311,0,0,0,.025-.315v-.082a.745.745,0,0,0-.231-.538,1.125,1.125,0,0,0-.807-.25,2.022,2.022,0,0,0-.4.035,1.275,1.275,0,0,0-.394.146,1.712,1.712,0,0,0-.386.311,2.955,2.955,0,0,0-.38.515l-.969-.656a5.731,5.731,0,0,1,.339-.505,2.438,2.438,0,0,1,.506-.5,2.761,2.761,0,0,1,.718-.372,2.811,2.811,0,0,1,.975-.139,3.341,3.341,0,0,1,1.068.168,2.126,2.126,0,0,1,.733.423,1.615,1.615,0,0,1,.419.607,1.9,1.9,0,0,1,.128.72l0,.1a2.571,2.571,0,0,1-.286,1.143,4.1,4.1,0,0,1-.8,1.053l-2.19,2.149,3.493.049-.015,1.079-5.194-.072.014-.978Z" transform="translate(-781.563 -902.805)" fill="#1a1818"/>
      </g>
      <g id="그룹_2435" data-name="그룹 2435" transform="translate(11.46 20.361)">
        <g id="그룹_2434" data-name="그룹 2434">
          <path id="패스_2163" data-name="패스 2163" d="M783.208,914.52a4.414,4.414,0,0,1-.111.992,2.319,2.319,0,0,1-.393.817,4.467,4.467,0,0,1-.819.816q-.527.422-1.385.995l-.6-.824c.5-.321.893-.6,1.192-.828a3.438,3.438,0,0,0,.679-.664,1.775,1.775,0,0,0,.311-.667,4.1,4.1,0,0,0,.084-.822l.01-.731-2.011-.027.012-.926,3.056.043Zm1.841.126.756.011.037-2.69,1.017.014-.11,7.893-1.017-.014.06-4.277-.756-.011-.054,3.9-1.019-.015.1-7.349,1.018.013Z" transform="translate(-779.901 -911.967)" fill="#535453"/>
          <path id="패스_2164" data-name="패스 2164" d="M787.787,914.863q.975.014,1.718.016c.495,0,.941,0,1.334-.007s.745-.016,1.057-.032.606-.034.884-.059l.065.816c-.272.03-.582.053-.931.071s-.757.029-1.227.034l-.015,1.027-1.06-.015.013-1.01c-.277,0-.569,0-.874,0l-.976-.013Zm2.507-.2a3.7,3.7,0,0,1-.775-.088,2.152,2.152,0,0,1-.625-.237,1.246,1.246,0,0,1-.416-.384.9.9,0,0,1-.145-.515l0-.187a.9.9,0,0,1,.161-.512,1.258,1.258,0,0,1,.425-.372,2.16,2.16,0,0,1,.631-.22,3.855,3.855,0,0,1,.779-.066,3.681,3.681,0,0,1,.774.088,2.17,2.17,0,0,1,.625.238,1.256,1.256,0,0,1,.416.384.891.891,0,0,1,.145.515l0,.187a.886.886,0,0,1-.161.511,1.247,1.247,0,0,1-.425.372,2.152,2.152,0,0,1-.631.221A3.712,3.712,0,0,1,790.294,914.661Zm4,2.356-.027,1.9-4.159-.058,0,.357,4.388.061-.011.8L789.056,920l.027-1.91,4.159.058.005-.348-4.2-.059.012-.8Zm-3.975-4.121a1.8,1.8,0,0,0-.732.1.351.351,0,0,0-.25.314l0,.085a.356.356,0,0,0,.243.323,2.384,2.384,0,0,0,1.46.019.349.349,0,0,0,.25-.314l0-.085a.353.353,0,0,0-.243-.321A1.772,1.772,0,0,0,790.319,912.9Zm1.359,2.973,1.562.022.052-3.82,1.071.015-.066,4.693-1.07-.014,0-.119-1.562-.022Z" transform="translate(-779.901 -911.967)" fill="#535453"/>
        </g>
      </g>
    </g>
    <rect id="사각형_2700" data-name="사각형 2700" width="49.315" height="49.315" transform="translate(762.851 883.988) rotate(0.802)" fill="none"/>
  </g>
</svg>
