<svg xmlns="http://www.w3.org/2000/svg" width="50" height="50" viewBox="0 0 50 50">
  <g id="그룹_2297" data-name="그룹 2297" transform="translate(-519.705 -883.988)">
    <g id="그룹_2296" data-name="그룹 2296" transform="translate(525.47 890.753)">
      <g id="패스_2071" data-name="패스 2071" transform="translate(-525.47 -890.753)" fill="#fff" stroke-miterlimit="10">
        <path d="M 531.0064086914062 926.2230834960938 C 529.3220825195312 926.2230834960938 527.8369750976562 925.3460083007812 527.0337524414062 923.8768310546875 C 526.221435546875 922.3909301757812 526.2886962890625 920.6425170898438 527.2138061523438 919.1997680664062 L 527.2393798828125 919.159912109375 L 527.260986328125 919.1178588867188 L 540.268310546875 893.8648681640625 C 541.1341552734375 892.5416870117188 542.58642578125 891.753173828125 544.1622314453125 891.753173828125 C 545.717529296875 891.753173828125 547.1408081054688 892.528076171875 547.9742431640625 893.8272705078125 L 562.20166015625 918.8541870117188 L 562.213623046875 918.875244140625 L 562.2265625 918.8956909179688 C 563.1265258789062 920.3142700195312 563.177490234375 922.051513671875 562.3629760742188 923.5427856445312 C 561.5364990234375 925.0560302734375 560.0188598632812 925.9652709960938 558.3033447265625 925.9749755859375 L 531.0299072265625 926.2230834960938 L 531.0064086914062 926.2230834960938 Z" stroke="none"/>
        <path d="M 531.0064086914062 925.2230834960938 L 531.025634765625 925.2230834960938 L 558.2908325195312 924.9750366210938 L 558.2942504882812 924.9750366210938 L 558.2977294921875 924.9750366210938 C 559.6441040039062 924.9674072265625 560.8357543945312 924.2528076171875 561.4853515625 923.0634765625 C 562.1229858398438 921.8961181640625 562.0843505859375 920.538330078125 561.3821411132812 919.4313354492188 L 561.356201171875 919.3905029296875 L 561.332275390625 919.348388671875 L 547.1187133789062 894.3458862304688 C 546.4595947265625 893.3330688476562 545.384521484375 892.753173828125 544.1622314453125 892.753173828125 C 542.92333984375 892.753173828125 541.8238525390625 893.3416748046875 541.13232421875 894.371337890625 L 528.1500244140625 919.5758056640625 L 528.106689453125 919.6598510742188 L 528.0556030273438 919.739501953125 C 527.3309326171875 920.8696899414062 527.2769775390625 922.2369995117188 527.9111938476562 923.3971557617188 C 528.5363159179688 924.54052734375 529.6934204101562 925.2230834960938 531.0064086914062 925.2230834960938 M 531.0064086914062 927.2230834960938 C 526.61181640625 927.2230834960938 523.98486328125 922.3829345703125 526.3720092773438 918.6599731445312 L 539.4019775390625 893.3629760742188 C 540.516357421875 891.6245727539062 542.3439331054688 890.753173828125 544.1622314453125 890.753173828125 C 545.9597778320312 890.753173828125 547.7482299804688 891.6043090820312 548.8309936523438 893.3109741210938 L 563.0709838867188 918.3599853515625 C 565.4219970703125 922.0659790039062 562.7219848632812 926.9500122070312 558.3090209960938 926.9749755859375 L 531.0390014648438 927.2230224609375 C 531.0281982421875 927.2230834960938 531.0172119140625 927.2230834960938 531.0064086914062 927.2230834960938 Z" stroke="none" fill="#ec441c"/>
      </g>
      <line id="선_382" data-name="선 382" y1="20.098" x2="25.75" transform="translate(2.838 13.102)" fill="#fff" stroke="#ec441c" stroke-miterlimit="10" stroke-width="4" opacity="0.2"/>
      <g id="그룹_2293" data-name="그룹 2293" transform="translate(16.689 11.673)">
        <path id="패스_2072" data-name="패스 2072" d="M542.159,907.763a1.628,1.628,0,0,1,.1-.575,1.956,1.956,0,0,1,.27-.49,1.847,1.847,0,0,1,.383-.372,1.526,1.526,0,0,1,.448-.223,1.719,1.719,0,0,1-.454-.322,2.025,2.025,0,0,1-.311-.4,1.844,1.844,0,0,1-.182-.423,1.448,1.448,0,0,1-.062-.4v-.122a2.109,2.109,0,0,1,.138-.758,1.751,1.751,0,0,1,.427-.642,2.122,2.122,0,0,1,.734-.448,3.294,3.294,0,0,1,2.077,0,2.174,2.174,0,0,1,.739.448,1.833,1.833,0,0,1,.443.642,2,2,0,0,1,.148.758v.122a1.432,1.432,0,0,1-.057.387,1.606,1.606,0,0,1-.177.408,2.224,2.224,0,0,1-.311.4,2.054,2.054,0,0,1-.454.347,1.541,1.541,0,0,1,.454.229,1.842,1.842,0,0,1,.382.371,1.864,1.864,0,0,1,.26.485,1.7,1.7,0,0,1,.1.575v.173a2.024,2.024,0,0,1-.163.815,1.769,1.769,0,0,1-.484.651,2.338,2.338,0,0,1-.789.433,3.386,3.386,0,0,1-1.079.158,3.606,3.606,0,0,1-1.116-.158,2.378,2.378,0,0,1-.81-.433,1.747,1.747,0,0,1-.488-.651,2.007,2.007,0,0,1-.163-.815Zm1.344.091a.878.878,0,0,0,.336.739,1.412,1.412,0,0,0,.886.26,1.326,1.326,0,0,0,.866-.26.9.9,0,0,0,.316-.739v-.1a1.032,1.032,0,0,0-.1-.469.98.98,0,0,0-.627-.519,1.645,1.645,0,0,0-.458-.062,1.7,1.7,0,0,0-.463.062,1.143,1.143,0,0,0-.387.188.917.917,0,0,0-.27.326,1.024,1.024,0,0,0-.1.474Zm.183-3.239a.916.916,0,0,0,.092.423.882.882,0,0,0,.239.3,1,1,0,0,0,.331.173,1.263,1.263,0,0,0,.367.056,1.235,1.235,0,0,0,.371-.056.948.948,0,0,0,.322-.173.882.882,0,0,0,.229-.3.957.957,0,0,0,.086-.423v-.1a.889.889,0,0,0-.28-.718,1.236,1.236,0,0,0-1.461,0,.867.867,0,0,0-.3.718Z" transform="translate(-542.159 -902.426)" fill="#1a1818"/>
      </g>
      <g id="그룹_2295" data-name="그룹 2295" transform="translate(11.74 20.89)">
        <g id="그룹_2294" data-name="그룹 2294">
          <path id="패스_2073" data-name="패스 2073" d="M540.478,914.231a4.487,4.487,0,0,1-.1.994,2.327,2.327,0,0,1-.381.823,4.48,4.48,0,0,1-.807.827q-.522.429-1.371,1.015l-.611-.816c.493-.328.885-.609,1.18-.845a3.435,3.435,0,0,0,.67-.673,1.781,1.781,0,0,0,.3-.671,4.124,4.124,0,0,0,.072-.823v-.731h-2.012v-.925h3.056Zm1.842.1h.756v-2.69h1.017v7.893h-1.017v-4.278h-.756v3.9H541.3V911.8h1.019Z" transform="translate(-537.21 -911.643)" fill="#535453"/>
          <path id="패스_2074" data-name="패스 2074" d="M545.061,914.511q.975,0,1.719-.008t1.333-.025c.392-.012.745-.028,1.056-.047s.606-.044.883-.073l.076.815q-.406.051-.929.085t-1.227.051v1.027h-1.06v-1.01c-.278.006-.57.009-.874.009h-.977Zm2.5-.238a3.737,3.737,0,0,1-.776-.076,2.161,2.161,0,0,1-.628-.229,1.239,1.239,0,0,1-.421-.378.889.889,0,0,1-.153-.513v-.187a.886.886,0,0,1,.153-.513,1.239,1.239,0,0,1,.421-.378,2.075,2.075,0,0,1,.628-.229,3.947,3.947,0,0,1,1.552,0,2.075,2.075,0,0,1,.628.229,1.239,1.239,0,0,1,.421.378.886.886,0,0,1,.152.513v.187a.888.888,0,0,1-.152.513,1.239,1.239,0,0,1-.421.378,2.161,2.161,0,0,1-.628.229A3.737,3.737,0,0,1,547.565,914.273Zm4.032,2.3v1.9h-4.159v.356h4.388v.8H546.4V917.72h4.159v-.349h-4.2v-.8Zm-4.032-4.065a1.793,1.793,0,0,0-.73.115.351.351,0,0,0-.246.318v.084a.352.352,0,0,0,.246.319,2.375,2.375,0,0,0,1.46,0,.355.355,0,0,0,.247-.319v-.084a.353.353,0,0,0-.247-.318A1.793,1.793,0,0,0,547.565,912.508Zm1.4,2.954h1.562v-3.819h1.07v4.693h-1.07v-.119h-1.562Z" transform="translate(-537.21 -911.643)" fill="#535453"/>
        </g>
      </g>
    </g>
    <rect id="사각형_2676" data-name="사각형 2676" width="50" height="50" transform="translate(519.705 883.988)" fill="none"/>
  </g>
</svg>
