<svg xmlns="http://www.w3.org/2000/svg" width="50" height="50" viewBox="0 0 50 50">
  <g id="그룹_2287" data-name="그룹 2287" transform="translate(-400.08 -883.988)">
    <g id="그룹_2286" data-name="그룹 2286" transform="translate(405.846 890.753)">
      <g id="패스_2063" data-name="패스 2063" transform="translate(-405.846 -890.753)" fill="#fff" stroke-miterlimit="10">
        <path d="M 411.3824462890625 926.2230834960938 C 409.6980895996094 926.2230834960938 408.2129821777344 925.3460083007812 407.4097900390625 923.8768310546875 C 406.597412109375 922.3909301757812 406.6647033691406 920.6425170898438 407.5898132324219 919.1997680664062 L 407.6153259277344 919.159912109375 L 407.6369934082031 919.1178588867188 L 420.6443176269531 893.8649291992188 C 421.5106201171875 892.5416870117188 422.9629516601562 891.753173828125 424.5386352539062 891.753173828125 C 426.0936584472656 891.753173828125 427.516845703125 892.5281372070312 428.3502807617188 893.827392578125 L 442.5776672363281 918.8541870117188 L 442.5896606445312 918.8753051757812 L 442.6026916503906 918.8958129882812 C 443.5027770996094 920.3140869140625 443.5540161132812 922.0509643554688 442.7397766113281 923.5421142578125 C 441.9132080078125 925.0557861328125 440.3952941894531 925.9652709960938 438.6793212890625 925.9749755859375 L 411.4059143066406 926.2230834960938 L 411.3824462890625 926.2230834960938 Z" stroke="none"/>
        <path d="M 411.3824462890625 925.2230834960938 L 411.401611328125 925.2230834960938 L 438.6668090820312 924.9750366210938 L 438.6702575683594 924.9750366210938 L 438.6736755371094 924.9750366210938 C 440.0205078125 924.9674072265625 441.2124328613281 924.2525634765625 441.8620910644531 923.0628662109375 C 442.4994201660156 921.8956909179688 442.4606628417969 920.5382690429688 441.7583618164062 919.4317016601562 L 441.7323303222656 919.390625 L 441.7083129882812 919.348388671875 L 427.4947814941406 894.345947265625 C 426.8356628417969 893.3330688476562 425.7607116699219 892.753173828125 424.5386352539062 892.753173828125 C 423.2998962402344 892.753173828125 422.2002258300781 893.3417358398438 421.5082702636719 894.3715209960938 L 408.5260009765625 919.5758056640625 L 408.482666015625 919.6598510742188 L 408.4316101074219 919.739501953125 C 407.7069396972656 920.8696899414062 407.6529541015625 922.2369995117188 408.2872009277344 923.3971557617188 C 408.9122924804688 924.54052734375 410.0693969726562 925.2230834960938 411.3824462890625 925.2230834960938 M 411.3824462890625 927.2230834960938 C 406.9878540039062 927.2230834960938 404.3608703613281 922.3829345703125 406.7479858398438 918.6599731445312 L 419.7780151367188 893.3629760742188 C 420.8928527832031 891.6245727539062 422.720458984375 890.753173828125 424.5386352539062 890.753173828125 C 426.3360290527344 890.753173828125 428.1242370605469 891.6043090820312 429.2070007324219 893.3109741210938 L 443.4469909667969 918.3599853515625 C 445.7990112304688 922.0659790039062 443.0979919433594 926.9500122070312 438.6849975585938 926.9749755859375 L 411.4150085449219 927.2230224609375 C 411.4042358398438 927.2230834960938 411.3931884765625 927.2230834960938 411.3824462890625 927.2230834960938 Z" stroke="none" fill="#ec441c"/>
      </g>
      <line id="선_380" data-name="선 380" y1="20.098" x2="25.75" transform="translate(2.838 13.102)" fill="#fff" stroke="#ec441c" stroke-miterlimit="10" stroke-width="4" opacity="0.2"/>
      <g id="그룹_2283" data-name="그룹 2283" transform="translate(15.669 11.673)">
        <path id="패스_2064" data-name="패스 2064" d="M425.9,904.015a2.908,2.908,0,0,0-.722-.306,3.253,3.253,0,0,0-.836-.1,1.5,1.5,0,0,0-.545.1,1.21,1.21,0,0,0-.468.341,1.969,1.969,0,0,0-.352.632,3.386,3.386,0,0,0-.172.982,1.628,1.628,0,0,1,.717-.478,2.728,2.728,0,0,1,.932-.164,2.619,2.619,0,0,1,.958.168,2.009,2.009,0,0,1,.723.48,2.114,2.114,0,0,1,.453.748,2.845,2.845,0,0,1,.158.968v.2a2.527,2.527,0,0,1-.179.952,2.159,2.159,0,0,1-.513.764,2.409,2.409,0,0,1-.821.5,3.05,3.05,0,0,1-1.094.183,2.986,2.986,0,0,1-1.2-.219,2.036,2.036,0,0,1-.814-.627,2.654,2.654,0,0,1-.464-.982,5.121,5.121,0,0,1-.147-1.278v-.469a7.2,7.2,0,0,1,.229-1.991,3.111,3.111,0,0,1,.626-1.222,2.071,2.071,0,0,1,.927-.611,3.689,3.689,0,0,1,1.131-.168,4.625,4.625,0,0,1,1.018.117,2.823,2.823,0,0,1,.937.392Zm-3.076,3.534a1.149,1.149,0,0,0,1.284,1.263,1.4,1.4,0,0,0,1.013-.332,1.247,1.247,0,0,0,.342-.941v-.112a1.281,1.281,0,0,0-.317-.952,1.36,1.36,0,0,0-.987-.311,1.666,1.666,0,0,0-.606.1,1.126,1.126,0,0,0-.412.264,1.032,1.032,0,0,0-.24.392,1.475,1.475,0,0,0-.077.479Z" transform="translate(-421.515 -902.426)" fill="#1a1818"/>
      </g>
      <g id="그룹_2285" data-name="그룹 2285" transform="translate(11.74 20.89)">
        <g id="그룹_2284" data-name="그룹 2284">
          <path id="패스_2065" data-name="패스 2065" d="M420.854,914.231a4.487,4.487,0,0,1-.1.994,2.327,2.327,0,0,1-.381.823,4.479,4.479,0,0,1-.807.827q-.522.429-1.371,1.015l-.611-.816c.493-.328.885-.609,1.18-.845a3.436,3.436,0,0,0,.67-.673,1.782,1.782,0,0,0,.3-.671,4.122,4.122,0,0,0,.072-.823v-.731H417.8v-.925h3.056Zm1.842.1h.756v-2.69h1.017v7.893h-1.017v-4.278H422.7v3.9h-1.019V911.8H422.7Z" transform="translate(-417.586 -911.643)" fill="#535453"/>
          <path id="패스_2066" data-name="패스 2066" d="M425.437,914.511c.65,0,1.224,0,1.719-.008s.939-.015,1.333-.025.745-.028,1.056-.047.606-.044.883-.073l.076.815q-.406.051-.929.085t-1.227.051v1.027h-1.06v-1.01c-.278.006-.57.009-.874.009h-.977Zm2.5-.238a3.737,3.737,0,0,1-.776-.076,2.161,2.161,0,0,1-.628-.229,1.24,1.24,0,0,1-.421-.378.889.889,0,0,1-.153-.513v-.187a.886.886,0,0,1,.153-.513,1.239,1.239,0,0,1,.421-.378,2.075,2.075,0,0,1,.628-.229,3.947,3.947,0,0,1,1.552,0,2.1,2.1,0,0,1,.628.229,1.239,1.239,0,0,1,.421.378.885.885,0,0,1,.152.513v.187a.888.888,0,0,1-.152.513,1.24,1.24,0,0,1-.421.378,2.183,2.183,0,0,1-.628.229A3.737,3.737,0,0,1,427.941,914.273Zm4.032,2.3v1.9h-4.159v.356H432.2v.8h-5.424V917.72h4.159v-.349h-4.2v-.8Zm-4.032-4.065a1.79,1.79,0,0,0-.73.115.351.351,0,0,0-.246.318v.084a.352.352,0,0,0,.246.319,2.375,2.375,0,0,0,1.46,0,.353.353,0,0,0,.246-.319v-.084a.352.352,0,0,0-.246-.318A1.793,1.793,0,0,0,427.941,912.508Zm1.4,2.954H430.9v-3.819h1.07v4.693H430.9v-.119h-1.562Z" transform="translate(-417.586 -911.643)" fill="#535453"/>
        </g>
      </g>
    </g>
    <rect id="사각형_2674" data-name="사각형 2674" width="50" height="50" transform="translate(400.081 883.988)" fill="none"/>
  </g>
</svg>
