<svg xmlns="http://www.w3.org/2000/svg" width="50" height="50" viewBox="0 0 50 50">
  <g id="그룹_2307" data-name="그룹 2307" transform="translate(-641.105 -883.988)">
    <g id="그룹_2306" data-name="그룹 2306" transform="translate(646.871 890.753)">
      <g id="패스_2079" data-name="패스 2079" transform="translate(-646.871 -890.753)" fill="#fff" stroke-miterlimit="10">
        <path d="M 652.4074096679688 926.2230834960938 C 650.7237548828125 926.2230834960938 649.2389526367188 925.3461303710938 648.4357299804688 923.877197265625 C 647.6231079101562 922.3911743164062 647.6900634765625 920.6425170898438 648.6149291992188 919.1995849609375 L 648.640380859375 919.1598510742188 L 648.6619873046875 919.1178588867188 L 661.6693115234375 893.8649291992188 C 662.53564453125 892.5416259765625 663.9879760742188 891.753173828125 665.5637817382812 891.753173828125 C 667.1188354492188 891.753173828125 668.5422973632812 892.5281372070312 669.376220703125 893.8272705078125 L 683.6026000976562 918.8541870117188 L 683.6146240234375 918.8753051757812 L 683.627685546875 918.8958129882812 C 684.5278930664062 920.3142700195312 684.5792236328125 922.0513305664062 683.7649536132812 923.5424194335938 C 682.9384765625 925.055908203125 681.4205322265625 925.9652709960938 679.704345703125 925.9749755859375 L 652.430908203125 926.2230834960938 L 652.4074096679688 926.2230834960938 Z" stroke="none"/>
        <path d="M 652.4074096679688 925.2230834960938 L 652.4266357421875 925.2230834960938 L 679.6918334960938 924.9750366210938 L 679.6952514648438 924.9750366210938 L 679.69873046875 924.9750366210938 C 681.0457153320312 924.9674072265625 682.2377319335938 924.252685546875 682.8872680664062 923.0631713867188 C 683.5245971679688 921.8960571289062 683.4857788085938 920.5384521484375 682.7833251953125 919.4317016601562 L 682.75732421875 919.390625 L 682.7332763671875 919.348388671875 L 668.5208129882812 894.3460693359375 C 667.8612670898438 893.3330688476562 666.7860107421875 892.753173828125 665.5637817382812 892.753173828125 C 664.324951171875 892.753173828125 663.2251586914062 893.341796875 662.533203125 894.37158203125 L 649.551025390625 919.5758056640625 L 649.5077514648438 919.6597290039062 L 649.4568481445312 919.7391967773438 C 648.7323608398438 920.8695678710938 648.6785888671875 922.2371215820312 649.3131103515625 923.3973999023438 C 649.938232421875 924.5405883789062 651.094970703125 925.2230834960938 652.4074096679688 925.2230834960938 M 652.407470703125 927.2230834960938 C 648.0137939453125 927.2230834960938 645.3868408203125 922.3829345703125 647.7730102539062 918.6599731445312 L 660.802978515625 893.3629760742188 C 661.9178466796875 891.6245727539062 663.7454833984375 890.753173828125 665.5637817382812 890.753173828125 C 667.361328125 890.753173828125 669.1497192382812 891.6043090820312 670.2329711914062 893.3109741210938 L 684.4719848632812 918.3599853515625 C 686.823974609375 922.0659790039062 684.1240234375 926.9500122070312 679.7100219726562 926.9749755859375 L 652.4400024414062 927.2230224609375 C 652.4292602539062 927.2230834960938 652.418212890625 927.2230834960938 652.407470703125 927.2230834960938 Z" stroke="none" fill="#ec441c"/>
      </g>
      <line id="선_384" data-name="선 384" y1="20.098" x2="25.75" transform="translate(2.838 13.102)" fill="#fff" stroke="#ec441c" stroke-miterlimit="10" stroke-width="4" opacity="0.2"/>
      <g id="그룹_2303" data-name="그룹 2303" transform="translate(13.219 11.673)">
        <path id="패스_2080" data-name="패스 2080" d="M662.392,909.881V904l-1.67.958-.632-1.06,2.455-1.364h1.15v7.343Z" transform="translate(-660.09 -902.426)" fill="#1a1818"/>
        <path id="패스_2081" data-name="패스 2081" d="M671.12,906.774a3.754,3.754,0,0,1-.662,2.394,2.4,2.4,0,0,1-2,.825,2.518,2.518,0,0,1-2.027-.835,3.568,3.568,0,0,1-.713-2.384v-1.14a3.565,3.565,0,0,1,.708-2.378,2.484,2.484,0,0,1,2-.83,2.451,2.451,0,0,1,2,.83,3.617,3.617,0,0,1,.692,2.378Zm-1.313-1.15a3.582,3.582,0,0,0-.118-1.019,1.555,1.555,0,0,0-.305-.595.927.927,0,0,0-.439-.281,1.88,1.88,0,0,0-.513-.071,1.855,1.855,0,0,0-.505.071.975.975,0,0,0-.448.286,1.555,1.555,0,0,0-.321.6,3.458,3.458,0,0,0-.122,1.009v1.161a3.342,3.342,0,0,0,.127,1.019,1.561,1.561,0,0,0,.331.6.99.99,0,0,0,.458.285,1.87,1.87,0,0,0,.51.072,1.785,1.785,0,0,0,.509-.072.886.886,0,0,0,.428-.28,1.541,1.541,0,0,0,.295-.6,3.788,3.788,0,0,0,.113-1.028Z" transform="translate(-660.09 -902.426)" fill="#1a1818"/>
      </g>
      <g id="그룹_2305" data-name="그룹 2305" transform="translate(11.741 20.89)">
        <g id="그룹_2304" data-name="그룹 2304">
          <path id="패스_2082" data-name="패스 2082" d="M661.879,914.231a4.551,4.551,0,0,1-.1.994,2.347,2.347,0,0,1-.382.823,4.48,4.48,0,0,1-.807.827q-.521.429-1.371,1.015l-.61-.816q.738-.492,1.18-.845a3.455,3.455,0,0,0,.669-.673,1.766,1.766,0,0,0,.3-.671,4.124,4.124,0,0,0,.072-.823v-.731h-2.011v-.925h3.055Zm1.842.1h.756v-2.69h1.018v7.893h-1.018v-4.278h-.756v3.9H662.7V911.8h1.018Z" transform="translate(-658.612 -911.643)" fill="#535453"/>
          <path id="패스_2083" data-name="패스 2083" d="M666.462,914.511q.977,0,1.719-.008t1.333-.025q.59-.018,1.057-.047c.31-.02.605-.044.883-.073l.076.815c-.272.034-.581.062-.93.085s-.757.04-1.226.051v1.027h-1.061v-1.01c-.277.006-.569.009-.874.009h-.977Zm2.5-.238a3.737,3.737,0,0,1-.776-.076,2.182,2.182,0,0,1-.628-.229,1.249,1.249,0,0,1-.421-.378.9.9,0,0,1-.152-.513v-.187a.893.893,0,0,1,.152-.513,1.249,1.249,0,0,1,.421-.378,2.094,2.094,0,0,1,.628-.229,3.952,3.952,0,0,1,1.553,0,2.094,2.094,0,0,1,.628.229,1.257,1.257,0,0,1,.421.378.893.893,0,0,1,.152.513v.187a.9.9,0,0,1-.152.513,1.258,1.258,0,0,1-.421.378,2.182,2.182,0,0,1-.628.229A3.746,3.746,0,0,1,668.966,914.273Zm4.033,2.3v1.9h-4.16v.356h4.388v.8H667.8V917.72h4.159v-.349h-4.2v-.8Zm-4.033-4.065a1.785,1.785,0,0,0-.729.115.351.351,0,0,0-.246.318v.084a.352.352,0,0,0,.246.319,2.375,2.375,0,0,0,1.46,0,.353.353,0,0,0,.246-.319v-.084a.352.352,0,0,0-.246-.318A1.8,1.8,0,0,0,668.966,912.508Zm1.4,2.954h1.561v-3.819H673v4.693h-1.071v-.119h-1.561Z" transform="translate(-658.612 -911.643)" fill="#535453"/>
        </g>
      </g>
    </g>
    <rect id="사각형_2678" data-name="사각형 2678" width="50" height="50" transform="translate(641.106 883.988)" fill="none"/>
  </g>
</svg>
