<svg xmlns="http://www.w3.org/2000/svg" width="50" height="50" viewBox="0 0 50 50">
  <g id="그룹_2302" data-name="그룹 2302" transform="translate(-580.906 -883.988)">
    <g id="그룹_2301" data-name="그룹 2301" transform="translate(586.671 890.753)">
      <g id="패스_2075" data-name="패스 2075" transform="translate(-586.671 -890.753)" fill="#fff" stroke-miterlimit="10">
        <path d="M 592.2073974609375 926.2230834960938 C 590.5230712890625 926.2230834960938 589.0379638671875 925.3460083007812 588.2347412109375 923.8768310546875 C 587.4224243164062 922.3909301757812 587.4896850585938 920.6425170898438 588.414794921875 919.1997680664062 L 588.4403686523438 919.159912109375 L 588.4619750976562 919.1178588867188 L 601.4693603515625 893.8649291992188 C 602.3356323242188 892.5416870117188 603.7879638671875 891.753173828125 605.3636474609375 891.753173828125 C 606.9186401367188 891.753173828125 608.341796875 892.528076171875 609.1752319335938 893.8272705078125 L 623.4026489257812 918.8541870117188 L 623.4146118164062 918.875244140625 L 623.4275512695312 918.8956909179688 C 624.3275146484375 920.3142700195312 624.3784790039062 922.051513671875 623.56396484375 923.5427856445312 C 622.7374877929688 925.0560302734375 621.2198486328125 925.9652709960938 619.5043334960938 925.9749755859375 L 592.2308959960938 926.2230834960938 L 592.2073974609375 926.2230834960938 Z" stroke="none"/>
        <path d="M 592.2073974609375 925.2230834960938 L 592.2266235351562 925.2230834960938 L 619.4918212890625 924.9750366210938 L 619.4952392578125 924.9750366210938 L 619.4987182617188 924.9750366210938 C 620.8450927734375 924.9674072265625 622.0367431640625 924.2528076171875 622.6863403320312 923.0634765625 C 623.323974609375 921.8961181640625 623.2853393554688 920.538330078125 622.5831298828125 919.4313354492188 L 622.5571899414062 919.3905029296875 L 622.5332641601562 919.348388671875 L 608.3197021484375 894.3458862304688 C 607.6605834960938 893.3330688476562 606.5856323242188 892.753173828125 605.3636474609375 892.753173828125 C 604.1249389648438 892.753173828125 603.0252075195312 893.3417358398438 602.333251953125 894.3715209960938 L 589.3510131835938 919.5758056640625 L 589.3076782226562 919.6598510742188 L 589.256591796875 919.739501953125 C 588.5319213867188 920.8696899414062 588.4779663085938 922.2369995117188 589.1121826171875 923.3971557617188 C 589.7373046875 924.54052734375 590.8944091796875 925.2230834960938 592.2073974609375 925.2230834960938 M 592.2073974609375 927.2230834960938 C 587.8128051757812 927.2230834960938 585.1858520507812 922.3829345703125 587.572998046875 918.6599731445312 L 600.60302734375 893.3629760742188 C 601.7178955078125 891.6245727539062 603.5454711914062 890.753173828125 605.3636474609375 890.753173828125 C 607.1610717773438 890.753173828125 608.94921875 891.6043090820312 610.031982421875 893.3109741210938 L 624.27197265625 918.3599853515625 C 626.6229858398438 922.0659790039062 623.9229736328125 926.9500122070312 619.510009765625 926.9749755859375 L 592.239990234375 927.2230224609375 C 592.2291870117188 927.2230834960938 592.2182006835938 927.2230834960938 592.2073974609375 927.2230834960938 Z" stroke="none" fill="#ec441c"/>
      </g>
      <line id="선_383" data-name="선 383" y1="20.098" x2="25.75" transform="translate(2.838 13.102)" fill="#fff" stroke="#ec441c" stroke-miterlimit="10" stroke-width="4" opacity="0.2"/>
      <g id="그룹_2298" data-name="그룹 2298" transform="translate(16.567 11.673)">
        <path id="패스_2076" data-name="패스 2076" d="M604.083,908.4a2.894,2.894,0,0,0,.723.306,3.189,3.189,0,0,0,.835.1,1.818,1.818,0,0,0,.632-.1,1.073,1.073,0,0,0,.468-.341,1.724,1.724,0,0,0,.3-.632,4.74,4.74,0,0,0,.137-.983,1.628,1.628,0,0,1-.718.479,2.726,2.726,0,0,1-.932.163,2.583,2.583,0,0,1-.962-.168,2.022,2.022,0,0,1-.719-.474,2.061,2.061,0,0,1-.453-.738,2.828,2.828,0,0,1-.157-.973v-.2a2.509,2.509,0,0,1,.178-.953,2.216,2.216,0,0,1,.514-.769,2.36,2.36,0,0,1,.82-.509,3.056,3.056,0,0,1,1.095-.183,2.976,2.976,0,0,1,1.2.219,2.056,2.056,0,0,1,.816.626,2.681,2.681,0,0,1,.463.983,5.162,5.162,0,0,1,.148,1.278V906a7.88,7.88,0,0,1-.209,1.991,3.051,3.051,0,0,1-.591,1.222,1.968,1.968,0,0,1-.922.611,3.959,3.959,0,0,1-1.191.168,4.611,4.611,0,0,1-1.018-.117,2.813,2.813,0,0,1-.938-.392Zm3.076-3.534a1.275,1.275,0,0,0-.326-.932,1.29,1.29,0,0,0-.958-.331,1.4,1.4,0,0,0-1.013.331,1.251,1.251,0,0,0-.341.942v.112a1.284,1.284,0,0,0,.315.952,1.365,1.365,0,0,0,.989.311,1.678,1.678,0,0,0,.6-.1,1.126,1.126,0,0,0,.418-.264,1.044,1.044,0,0,0,.24-.392,1.5,1.5,0,0,0,.076-.48Z" transform="translate(-603.238 -902.426)" fill="#1a1818"/>
      </g>
      <g id="그룹_2300" data-name="그룹 2300" transform="translate(11.74 20.89)">
        <g id="그룹_2299" data-name="그룹 2299">
          <path id="패스_2077" data-name="패스 2077" d="M601.679,914.231a4.487,4.487,0,0,1-.1.994,2.312,2.312,0,0,1-.382.823,4.469,4.469,0,0,1-.806.827q-.522.429-1.372,1.015l-.61-.816q.738-.492,1.18-.845a3.465,3.465,0,0,0,.67-.673,1.764,1.764,0,0,0,.3-.671,4.118,4.118,0,0,0,.073-.823v-.731h-2.012v-.925h3.056Zm1.842.1h.755v-2.69h1.018v7.893h-1.018v-4.278h-.755v3.9H602.5V911.8h1.019Z" transform="translate(-598.411 -911.643)" fill="#535453"/>
          <path id="패스_2078" data-name="패스 2078" d="M606.262,914.511q.975,0,1.718-.008t1.333-.025c.393-.012.746-.028,1.057-.047s.606-.044.883-.073l.076.815q-.406.051-.93.085t-1.226.051v1.027h-1.061v-1.01c-.277.006-.569.009-.874.009h-.976Zm2.5-.238a3.739,3.739,0,0,1-.777-.076,2.182,2.182,0,0,1-.628-.229,1.258,1.258,0,0,1-.421-.378.9.9,0,0,1-.152-.513v-.187a.893.893,0,0,1,.152-.513,1.258,1.258,0,0,1,.421-.378,2.094,2.094,0,0,1,.628-.229,3.952,3.952,0,0,1,1.553,0,2.094,2.094,0,0,1,.628.229,1.249,1.249,0,0,1,.421.378.893.893,0,0,1,.152.513v.187a.9.9,0,0,1-.152.513,1.249,1.249,0,0,1-.421.378,2.182,2.182,0,0,1-.628.229A3.737,3.737,0,0,1,608.766,914.273Zm4.032,2.3v1.9h-4.159v.356h4.387v.8H607.6V917.72h4.159v-.349h-4.2v-.8Zm-4.032-4.065a1.787,1.787,0,0,0-.73.115.351.351,0,0,0-.246.318v.084a.352.352,0,0,0,.246.319,2.375,2.375,0,0,0,1.46,0,.354.354,0,0,0,.246-.319v-.084a.352.352,0,0,0-.246-.318A1.793,1.793,0,0,0,608.766,912.508Zm1.4,2.954h1.562v-3.819h1.07v4.693h-1.07v-.119h-1.562Z" transform="translate(-598.411 -911.643)" fill="#535453"/>
        </g>
      </g>
    </g>
    <rect id="사각형_2677" data-name="사각형 2677" width="50" height="50" transform="translate(580.906 883.988)" fill="none"/>
  </g>
</svg>
