<svg xmlns="http://www.w3.org/2000/svg" width="50" height="50" viewBox="0 0 50 50">
  <g id="그룹_2262" data-name="그룹 2262" transform="translate(-106.082 -883.988)">
    <g id="그룹_2261" data-name="그룹 2261" transform="translate(111.847 890.753)">
      <g id="패스_2043" data-name="패스 2043" transform="translate(-111.847 -890.753)" fill="#fff" stroke-miterlimit="10">
        <path d="M 117.383430480957 926.2230834960938 C 115.6990966796875 926.2230834960938 114.213981628418 925.3460083007812 113.410774230957 923.8768310546875 C 112.5984115600586 922.3909301757812 112.6657257080078 920.6425170898438 113.5908126831055 919.1997680664062 L 113.616340637207 919.159912109375 L 113.6380004882812 919.1178588867188 L 126.6452941894531 893.864990234375 C 127.5115814208984 892.5416870117188 128.9639587402344 891.753173828125 130.5396270751953 891.753173828125 C 132.0946655273438 891.753173828125 133.5177764892578 892.528076171875 134.3512115478516 893.8272705078125 L 148.5786590576172 918.8541870117188 L 148.5906677246094 918.8753051757812 L 148.6036834716797 918.8958129882812 C 149.5037689208984 920.3140869140625 149.5550079345703 922.051025390625 148.7407684326172 923.5421142578125 C 147.9141998291016 925.0557861328125 146.3962860107422 925.9652709960938 144.6803436279297 925.9749755859375 L 117.4069061279297 926.2230834960938 L 117.383430480957 926.2230834960938 Z" stroke="none"/>
        <path d="M 117.383430480957 925.2230834960938 L 117.4026184082031 925.2230834960938 L 144.6678161621094 924.9750366210938 L 144.6712493896484 924.9750366210938 L 144.6746826171875 924.9750366210938 C 146.0214996337891 924.9674072265625 147.2134399414062 924.2525634765625 147.8630828857422 923.0628662109375 C 148.5004272460938 921.8956909179688 148.4616546630859 920.5382690429688 147.7593688964844 919.4317016601562 L 147.7333374023438 919.390625 L 147.7093200683594 919.348388671875 L 133.4957733154297 894.345947265625 C 132.836669921875 893.3330688476562 131.76171875 892.753173828125 130.5396270751953 892.753173828125 C 129.3009033203125 892.753173828125 128.201171875 893.341796875 127.5092086791992 894.37158203125 L 114.5270004272461 919.5758056640625 L 114.4836807250977 919.6598510742188 L 114.4326248168945 919.739501953125 C 113.7079544067383 920.8696899414062 113.6539611816406 922.2369995117188 114.288200378418 923.3971557617188 C 114.9132919311523 924.54052734375 116.0703964233398 925.2230834960938 117.383430480957 925.2230834960938 M 117.383430480957 927.2230834960938 C 112.9888381958008 927.2230834960938 110.3618469238281 922.3829345703125 112.7490005493164 918.6599731445312 L 125.7789993286133 893.3629760742188 C 126.8938598632812 891.6245727539062 128.7214508056641 890.753173828125 130.5396270751953 890.753173828125 C 132.3370513916016 890.753173828125 134.125244140625 891.6043090820312 135.2079925537109 893.3109741210938 L 149.447998046875 918.3599853515625 C 151.8000030517578 922.0659790039062 149.0989990234375 926.9500122070312 144.6860046386719 926.9749755859375 L 117.4160003662109 927.2230224609375 C 117.4052276611328 927.2230834960938 117.3941879272461 927.2230834960938 117.383430480957 927.2230834960938 Z" stroke="none" fill="#ec441c"/>
      </g>
      <line id="선_375" data-name="선 375" y1="20.098" x2="25.75" transform="translate(2.839 13.102)" fill="#fff" stroke="#ec441c" stroke-miterlimit="10" stroke-width="4" opacity="0.2"/>
      <g id="그룹_2258" data-name="그룹 2258" transform="translate(16.218 11.785)">
        <path id="패스_2044" data-name="패스 2044" d="M130.367,909.881V904l-1.67.958-.632-1.06,2.456-1.364h1.15v7.343Z" transform="translate(-128.065 -902.538)" fill="#1a1818"/>
      </g>
      <g id="그룹_2260" data-name="그룹 2260" transform="translate(11.741 20.89)">
        <g id="그룹_2259" data-name="그룹 2259">
          <path id="패스_2045" data-name="패스 2045" d="M126.855,914.231a4.553,4.553,0,0,1-.1.994,2.347,2.347,0,0,1-.382.823,4.447,4.447,0,0,1-.807.827q-.521.429-1.371,1.015l-.61-.816q.738-.492,1.18-.845a3.465,3.465,0,0,0,.67-.673,1.779,1.779,0,0,0,.3-.671,4.116,4.116,0,0,0,.073-.823v-.731H123.8v-.925h3.055Zm1.842.1h.756v-2.69h1.018v7.893h-1.018v-4.278H128.7v3.9h-1.018V911.8H128.7Z" transform="translate(-123.588 -911.643)" fill="#535453"/>
          <path id="패스_2046" data-name="패스 2046" d="M131.438,914.511q.977,0,1.719-.008t1.333-.025q.589-.018,1.057-.047c.31-.02.6-.044.883-.073l.076.815c-.272.034-.581.062-.93.085s-.757.04-1.226.051v1.027h-1.061v-1.01c-.277.006-.569.009-.874.009h-.977Zm2.5-.238a3.737,3.737,0,0,1-.776-.076,2.183,2.183,0,0,1-.628-.229,1.249,1.249,0,0,1-.421-.378.9.9,0,0,1-.152-.513v-.187a.893.893,0,0,1,.152-.513,1.248,1.248,0,0,1,.421-.378,2.1,2.1,0,0,1,.628-.229,3.952,3.952,0,0,1,1.553,0,2.1,2.1,0,0,1,.628.229,1.258,1.258,0,0,1,.421.378.893.893,0,0,1,.152.513v.187a.9.9,0,0,1-.152.513,1.259,1.259,0,0,1-.421.378,2.183,2.183,0,0,1-.628.229A3.74,3.74,0,0,1,133.942,914.273Zm4.033,2.3v1.9h-4.16v.356H138.2v.8h-5.424V917.72h4.159v-.349h-4.2v-.8Zm-4.033-4.065a1.785,1.785,0,0,0-.729.115.351.351,0,0,0-.246.318v.084a.352.352,0,0,0,.246.319,2.375,2.375,0,0,0,1.46,0,.353.353,0,0,0,.246-.319v-.084a.352.352,0,0,0-.246-.318A1.8,1.8,0,0,0,133.942,912.508Zm1.4,2.954H136.9v-3.819h1.071v4.693H136.9v-.119h-1.561Z" transform="translate(-123.588 -911.643)" fill="#535453"/>
        </g>
      </g>
    </g>
    <rect id="사각형_2669" data-name="사각형 2669" width="50" height="50" transform="translate(106.082 883.988)" fill="none"/>
  </g>
</svg>
