<svg xmlns="http://www.w3.org/2000/svg" width="50" height="50" viewBox="0 0 50 50">
  <g id="그룹_2277" data-name="그룹 2277" transform="translate(-285.463 -883.988)">
    <g id="그룹_2276" data-name="그룹 2276" transform="translate(291.229 890.753)">
      <g id="패스_2055" data-name="패스 2055" transform="translate(-291.229 -890.753)" fill="#fff" stroke-miterlimit="10">
        <path d="M 296.7654418945312 926.2230834960938 C 295.0810852050781 926.2230834960938 293.5959777832031 925.3460083007812 292.7927856445312 923.8768310546875 C 291.9804382324219 922.3909301757812 292.0477294921875 920.6425170898438 292.9728088378906 919.1997680664062 L 292.9983520507812 919.159912109375 L 293.02001953125 919.1178588867188 L 306.02734375 893.8648681640625 C 306.8931884765625 892.5416870117188 308.3454284667969 891.753173828125 309.9212646484375 891.753173828125 C 311.4765319824219 891.753173828125 312.8998413085938 892.5281372070312 313.7332763671875 893.827392578125 L 327.9606323242188 918.8541870117188 L 327.9725952148438 918.875244140625 L 327.9855651855469 918.8956909179688 C 328.885498046875 920.3142700195312 328.9365234375 922.051513671875 328.1220092773438 923.5427856445312 C 327.2954711914062 925.0560302734375 325.7778625488281 925.9652709960938 324.0623474121094 925.9749755859375 L 296.7889099121094 926.2230834960938 L 296.7654418945312 926.2230834960938 Z" stroke="none"/>
        <path d="M 296.7654418945312 925.2230834960938 L 296.7846069335938 925.2230834960938 L 324.0498046875 924.9750366210938 L 324.0532531738281 924.9750366210938 L 324.0566711425781 924.9750366210938 C 325.4031066894531 924.9674072265625 326.5947875976562 924.2528076171875 327.244384765625 923.0634765625 C 327.8819580078125 921.8961181640625 327.8433837890625 920.538330078125 327.1411437988281 919.4313354492188 L 327.1152038574219 919.3905029296875 L 327.0912780761719 919.348388671875 L 312.8777465820312 894.3458862304688 C 312.2186279296875 893.3330078125 311.1435852050781 892.753173828125 309.9212646484375 892.753173828125 C 308.682373046875 892.753173828125 307.5828552246094 893.3416748046875 306.8913269042969 894.371337890625 L 293.9090270996094 919.5758056640625 L 293.8656921386719 919.6598510742188 L 293.8146362304688 919.739501953125 C 293.0899658203125 920.8696899414062 293.0359497070312 922.2369995117188 293.6701965332031 923.3971557617188 C 294.2952880859375 924.54052734375 295.452392578125 925.2230834960938 296.7654418945312 925.2230834960938 M 296.7654418945312 927.2230834960938 C 292.370849609375 927.2230834960938 289.7438354492188 922.3829345703125 292.1310119628906 918.6599731445312 L 305.1610107421875 893.3629760742188 C 306.2753601074219 891.6245727539062 308.1029663085938 890.753173828125 309.9212341308594 890.753173828125 C 311.7187805175781 890.753173828125 313.5072326660156 891.6043090820312 314.5899963378906 893.3109741210938 L 328.8299865722656 918.3599853515625 C 331.1809997558594 922.0659790039062 328.4809875488281 926.9500122070312 324.0679931640625 926.9749755859375 L 296.7980041503906 927.2230224609375 C 296.7872314453125 927.2230834960938 296.7761840820312 927.2230834960938 296.7654418945312 927.2230834960938 Z" stroke="none" fill="#ec441c"/>
      </g>
      <line id="선_378" data-name="선 378" y1="20.098" x2="25.75" transform="translate(2.838 13.102)" fill="#fff" stroke="#ec441c" stroke-miterlimit="10" stroke-width="4" opacity="0.2"/>
      <g id="그룹_2273" data-name="그룹 2273" transform="translate(15.23 11.785)">
        <path id="패스_2056" data-name="패스 2056" d="M311.4,905.1v2.2h1v1.049h-1v1.527h-1.283v-1.527h-3.657v-.846l3.341-4.97h1.406L308,907.3h2.119v-2.2Z" transform="translate(-306.459 -902.538)" fill="#1a1818"/>
      </g>
      <g id="그룹_2275" data-name="그룹 2275" transform="translate(11.74 20.89)">
        <g id="그룹_2274" data-name="그룹 2274">
          <path id="패스_2057" data-name="패스 2057" d="M306.237,914.231a4.487,4.487,0,0,1-.1.994,2.312,2.312,0,0,1-.382.823,4.469,4.469,0,0,1-.806.827q-.522.429-1.371,1.015l-.611-.816q.738-.492,1.18-.845a3.436,3.436,0,0,0,.67-.673,1.782,1.782,0,0,0,.3-.671,4.2,4.2,0,0,0,.072-.823v-.731h-2.012v-.925h3.056Zm1.842.1h.755v-2.69h1.018v7.893h-1.018v-4.278h-.755v3.9H307.06V911.8h1.019Z" transform="translate(-302.969 -911.643)" fill="#535453"/>
          <path id="패스_2058" data-name="패스 2058" d="M310.82,914.511q.975,0,1.719-.008t1.333-.025c.392-.012.745-.028,1.056-.047s.606-.044.883-.073l.076.815q-.406.051-.929.085t-1.227.051v1.027H312.67v-1.01c-.277.006-.569.009-.874.009h-.976Zm2.5-.238a3.747,3.747,0,0,1-.777-.076,2.182,2.182,0,0,1-.628-.229,1.245,1.245,0,0,1-.42-.378.889.889,0,0,1-.153-.513v-.187a.886.886,0,0,1,.153-.513,1.245,1.245,0,0,1,.42-.378,2.094,2.094,0,0,1,.628-.229,3.952,3.952,0,0,1,1.553,0,2.1,2.1,0,0,1,.628.229,1.248,1.248,0,0,1,.421.378.893.893,0,0,1,.152.513v.187a.9.9,0,0,1-.152.513,1.249,1.249,0,0,1-.421.378,2.183,2.183,0,0,1-.628.229A3.737,3.737,0,0,1,313.324,914.273Zm4.032,2.3v1.9H313.2v.356h4.387v.8h-5.423V917.72h4.159v-.349h-4.2v-.8Zm-4.032-4.065a1.787,1.787,0,0,0-.73.115.351.351,0,0,0-.246.318v.084a.352.352,0,0,0,.246.319,2.375,2.375,0,0,0,1.46,0,.353.353,0,0,0,.246-.319v-.084a.352.352,0,0,0-.246-.318A1.793,1.793,0,0,0,313.324,912.508Zm1.4,2.954h1.562v-3.819h1.07v4.693h-1.07v-.119h-1.562Z" transform="translate(-302.969 -911.643)" fill="#535453"/>
        </g>
      </g>
    </g>
    <rect id="사각형_2672" data-name="사각형 2672" width="50" height="50" transform="translate(285.464 883.988)" fill="none"/>
  </g>
</svg>
