<svg xmlns="http://www.w3.org/2000/svg" width="50" height="50" viewBox="0 0 50 50">
    <defs>
        <style>
            .cls-1,.cls-5{fill:none}.cls-1,.cls-2{stroke-miterlimit:10}.cls-2{fill:#fff;stroke:#ec441c;stroke-width:4px;opacity:.2}.cls-3{fill:#1a1818}.cls-4{fill:#535453}.cls-6,.cls-7{stroke:none}.cls-7{fill:#ec441c}
        </style>
    </defs>
    <g id="Layer_2" data-name="Layer 2" transform="translate(-1297.446 -179.552)">
        <g id="그룹_3398" data-name="그룹 3398">
            <g id="그룹_3397" data-name="그룹 3397">
                <g id="패스_3944" class="cls-1" data-name="패스 3944">
                    <path d="M1304.113 214.225l13.03-25.3a5.593 5.593 0 0 1 9.429-.052l14.24 25.05a5.637 5.637 0 0 1-4.762 8.614l-27.27.248a5.534 5.534 0 0 1-4.667-8.56z" class="cls-6"/>
                    <path d="M1308.746 220.787h.02l27.266-.248h.007a3.613 3.613 0 0 0 3.187-1.91c.638-1.168.6-2.526-.103-3.632l-.026-.041-.024-.043-14.213-25.003c-.66-1.013-1.734-1.593-2.956-1.593a3.593 3.593 0 0 0-3.03 1.619l-12.983 25.205-.043.084-.051.08c-.725 1.13-.78 2.497-.145 3.657a3.475 3.475 0 0 0 3.094 1.825m0 2c-4.394 0-7.02-4.84-4.633-8.562l13.03-25.298a5.62 5.62 0 0 1 4.76-2.61c1.798 0 3.586.851 4.669 2.558l14.24 25.05c2.351 3.705-.349 8.59-4.762 8.614l-27.27.248h-.034z" class="cls-7"/>
                </g>
                <path id="선_670" d="M0 20.098L25.75 0" class="cls-2" data-name="선 670" transform="translate(1305.851 199.419)"/>
                <g id="그룹_3394" data-name="그룹 3394">
                    <path id="패스_3945" d="M1315.668 200.632a2.916 2.916 0 0 1 .876-.768 2.607 2.607 0 0 1 1.3-.291 3.1 3.1 0 0 1 .937.133 2.145 2.145 0 0 1 .713.372 1.648 1.648 0 0 1 .458.58 1.727 1.727 0 0 1 .163.749v.1a2.536 2.536 0 0 1-.046.464 1.619 1.619 0 0 1-.168.479 1.645 1.645 0 0 1-.326.423 1.581 1.581 0 0 1-.519.315 1.676 1.676 0 0 1 1.08.581 1.715 1.715 0 0 1 .346 1.079V205a2.046 2.046 0 0 1-.163.805 1.891 1.891 0 0 1-.494.682 2.484 2.484 0 0 1-.835.474 3.524 3.524 0 0 1-1.177.178 3.876 3.876 0 0 1-1.237-.2 3.577 3.577 0 0 1-1.115-.616l.641-1.018c.177.129.338.237.484.326a2.5 2.5 0 0 0 .423.208 1.926 1.926 0 0 0 .4.107 2.6 2.6 0 0 0 .417.031 1.563 1.563 0 0 0 1.019-.275.947.947 0 0 0 .326-.764v-.132a.948.948 0 0 0-.316-.79 1.649 1.649 0 0 0-1.018-.249h-.988v-1.121h.876a1.749 1.749 0 0 0 .565-.076.789.789 0 0 0 .341-.214.753.753 0 0 0 .169-.336 1.956 1.956 0 0 0 .045-.433v-.082a.688.688 0 0 0-.27-.606 1.257 1.257 0 0 0-.728-.188 1.471 1.471 0 0 0-.759.173 2.413 2.413 0 0 0-.534.438z" class="cls-3" data-name="패스 3945"/>
                    <path id="패스_3946" d="M1327.167 203.922a3.753 3.753 0 0 1-.662 2.394 2.407 2.407 0 0 1-2 .825 2.525 2.525 0 0 1-2.028-.835 3.575 3.575 0 0 1-.712-2.384v-1.14a3.567 3.567 0 0 1 .708-2.379 2.487 2.487 0 0 1 2-.83 2.454 2.454 0 0 1 2 .83 3.62 3.62 0 0 1 .692 2.379zm-1.313-1.151a3.615 3.615 0 0 0-.118-1.018 1.56 1.56 0 0 0-.3-.6.933.933 0 0 0-.439-.28 1.879 1.879 0 0 0-.513-.071 1.855 1.855 0 0 0-.505.071.988.988 0 0 0-.449.285 1.582 1.582 0 0 0-.32.6 3.447 3.447 0 0 0-.122 1.008v1.162a3.337 3.337 0 0 0 .127 1.018 1.569 1.569 0 0 0 .331.6 1 1 0 0 0 .458.285 1.869 1.869 0 0 0 .51.072 1.789 1.789 0 0 0 .509-.072.9.9 0 0 0 .428-.28 1.549 1.549 0 0 0 .295-.6 3.836 3.836 0 0 0 .113-1.028z" class="cls-3" data-name="패스 3946"/>
                </g>
                <g id="그룹_3396" data-name="그룹 3396">
                    <g id="그룹_3395" data-name="그룹 3395">
                        <path id="패스_3947" d="M1317.085 211.869a4.476 4.476 0 0 1-.1.993 2.309 2.309 0 0 1-.382.824 4.438 4.438 0 0 1-.806.827q-.522.429-1.371 1.014l-.611-.815c.493-.328.885-.609 1.18-.844a3.464 3.464 0 0 0 .67-.675 1.768 1.768 0 0 0 .3-.671 4.1 4.1 0 0 0 .072-.823v-.73h-2.012v-.925h3.056zm1.842.1h.756v-2.689h1.017v7.894h-1.017V212.9h-.756v3.9h-1.019v-7.351h1.019z" class="cls-4" data-name="패스 3947"/>
                        <path id="패스_3948" d="M1321.668 212.149c.65 0 1.224 0 1.719-.008s.939-.015 1.333-.026.745-.027 1.056-.047.606-.043.883-.071l.076.814c-.271.034-.581.063-.929.085s-.757.04-1.227.051v1.027h-1.06v-1.01c-.278.006-.57.009-.874.009h-.977zm2.5-.237a3.733 3.733 0 0 1-.776-.077 2.132 2.132 0 0 1-.628-.229 1.239 1.239 0 0 1-.421-.378.89.89 0 0 1-.153-.513v-.187a.888.888 0 0 1 .153-.513 1.239 1.239 0 0 1 .421-.378 2.1 2.1 0 0 1 .628-.229 3.948 3.948 0 0 1 1.552 0 2.125 2.125 0 0 1 .628.229 1.239 1.239 0 0 1 .421.378.887.887 0 0 1 .152.513v.187a.89.89 0 0 1-.152.513 1.239 1.239 0 0 1-.421.378 2.154 2.154 0 0 1-.628.229 3.733 3.733 0 0 1-.772.077zm4.032 2.3v1.9h-4.159v.356h4.388v.8h-5.424v-1.91h4.159v-.348h-4.2v-.8zm-4.032-4.065a1.789 1.789 0 0 0-.73.115.351.351 0 0 0-.246.318v.085a.352.352 0 0 0 .246.318 2.374 2.374 0 0 0 1.46 0 .353.353 0 0 0 .246-.318v-.085a.352.352 0 0 0-.246-.318 1.793 1.793 0 0 0-.726-.116zm1.4 2.954h1.562v-3.82h1.07v4.694h-1.07v-.119h-1.562z" class="cls-4" data-name="패스 3948"/>
                    </g>
                </g>
            </g>
            <path id="사각형_3081" d="M0 0h50v50H0z" class="cls-5" data-name="사각형 3081" transform="translate(1297.446 179.552)"/>
        </g>
    </g>
</svg>
