<svg xmlns="http://www.w3.org/2000/svg" width="50" height="50" viewBox="0 0 50 50">
  <g id="그룹_2349" data-name="그룹 2349" transform="translate(-460.496 -934.995)">
    <g id="그룹_2348" data-name="그룹 2348" transform="translate(466.26 941.76)">
      <g id="패스_2102" data-name="패스 2102" transform="translate(-466.26 -941.76)" fill="#fff" stroke-miterlimit="10">
        <path d="M 471.7950439453125 977.2301025390625 C 470.1119384765625 977.2301025390625 468.627685546875 976.3533325195312 467.8246765136719 974.8848876953125 C 467.0121154785156 973.3989868164062 467.0791320800781 971.6504516601562 468.00390625 970.2076416015625 L 468.0293579101562 970.1679077148438 L 468.0509643554688 970.1259765625 L 481.0592956542969 944.8719482421875 C 481.9251403808594 943.5487670898438 483.3772888183594 942.7601928710938 484.952880859375 942.7601928710938 C 486.5079956054688 942.7601928710938 487.9314270019531 943.53515625 488.7653198242188 944.83447265625 L 502.9926452636719 969.8621826171875 L 503.004638671875 969.8832397460938 L 503.0176391601562 969.9037475585938 C 503.9175720214844 971.3219604492188 503.9685363769531 973.0590209960938 503.1539306640625 974.5502319335938 C 502.3272399902344 976.0635986328125 500.8093566894531 976.9727172851562 499.0935668945312 976.9819946289062 L 471.8199157714844 977.2300415039062 L 471.7950439453125 977.2301025390625 Z" stroke="none"/>
        <path d="M 471.7950439453125 976.2301025390625 L 471.8152770996094 976.2300415039062 L 499.080810546875 975.9820556640625 L 499.08447265625 975.9820556640625 L 499.088134765625 975.9820556640625 C 500.4347534179688 975.9747314453125 501.6266174316406 975.26025390625 502.2763366699219 974.0708618164062 C 502.9139709472656 972.903564453125 502.8754272460938 971.5460815429688 502.1732788085938 970.4395751953125 L 502.1472778320312 970.3985595703125 L 502.123291015625 970.3563842773438 L 487.9099426269531 945.353271484375 C 487.2503967285156 944.3401489257812 486.1751403808594 943.7601928710938 484.952880859375 943.7601928710938 C 483.7142944335938 943.7601928710938 482.6148681640625 944.3488159179688 481.92333984375 945.3783569335938 L 468.9399719238281 970.5838623046875 L 468.8967590332031 970.6677856445312 L 468.8457946777344 970.7472534179688 C 468.1213684082031 971.8775024414062 468.0676574707031 973.2449340820312 468.7020568847656 974.4050903320312 C 469.3269348144531 975.5478515625 470.4832153320312 976.2301025390625 471.7950439453125 976.2301025390625 M 471.7950439453125 978.2301025390625 C 467.4023742675781 978.2301025390625 464.776123046875 973.3904418945312 467.1619873046875 969.6680297851562 L 480.1929931640625 944.3699951171875 C 481.3073425292969 942.631591796875 483.1347045898438 941.7601928710938 484.952880859375 941.7601928710938 C 486.7503051757812 941.7601928710938 488.5387573242188 942.611328125 489.6220092773438 944.3179931640625 L 503.8619995117188 969.3679809570312 C 506.2130126953125 973.072998046875 503.5130004882812 977.9580078125 499.0989990234375 977.9819946289062 L 471.8290100097656 978.22998046875 C 471.8176879882812 978.2300415039062 471.8063354492188 978.2301025390625 471.7950439453125 978.2301025390625 Z" stroke="none" fill="#ec441c"/>
      </g>
      <line id="선_391" data-name="선 391" y1="20.098" x2="25.75" transform="translate(2.913 13.102)" fill="#fff" stroke="#ec441c" stroke-miterlimit="10" stroke-width="4" opacity="0.2"/>
      <g id="그룹_2347" data-name="그룹 2347" transform="translate(11.502 17.892)">
        <g id="그룹_2344" data-name="그룹 2344" transform="translate(0 0.07)">
          <path id="패스_2103" data-name="패스 2103" d="M480.2,967.065h-1.375l2.822-6.244h-3.881v-1.1h5.246v1Z" transform="translate(-477.762 -959.722)" fill="#1a1818"/>
        </g>
        <g id="그룹_2346" data-name="그룹 2346" transform="translate(6.244)">
          <g id="그룹_2345" data-name="그룹 2345">
            <path id="패스_2104" data-name="패스 2104" d="M485.636,960.279H486.7v1.9a2.967,2.967,0,0,0,.029.436,1.715,1.715,0,0,0,.094.357,2.165,2.165,0,0,0,.156.322,2.39,2.39,0,0,0,.23.318c.158.2.332.4.522.608s.383.408.581.607l-.7.652q-.561-.576-.942-1.017a3.023,3.023,0,0,1-.442-.6h-.009a1.274,1.274,0,0,1-.157.268q-.123.174-.284.36c-.057.068-.124.147-.2.234l-.259.284q-.141.153-.289.31c-.1.105-.2.2-.293.293l-.722-.7c.182-.181.371-.379.57-.595s.379-.424.543-.627a2.8,2.8,0,0,0,.25-.357,2.021,2.021,0,0,0,.157-.34,1.765,1.765,0,0,0,.085-.369,3.794,3.794,0,0,0,.025-.453Zm2.861,2.75h-1.061V962.1H488.5v-2.283h1.018v7.351H488.5Zm2.623,4.516H490.1v-7.893h1.019Z" transform="translate(-484.006 -959.652)" fill="#535453"/>
          </g>
        </g>
      </g>
    </g>
    <rect id="사각형_2685" data-name="사각형 2685" width="50" height="50" transform="translate(460.495 934.995)" fill="none"/>
  </g>
</svg>
