<svg xmlns="http://www.w3.org/2000/svg" width="50" height="50" viewBox="0 0 50 50">
  <g id="그룹_2427" data-name="그룹 2427" transform="translate(-1238.545 -934.995)">
    <g id="그룹_2426" data-name="그룹 2426" transform="translate(1244.309 941.76)">
      <g id="패스_2151" data-name="패스 2151" transform="translate(-1244.309 -941.76)" fill="#fff" stroke-miterlimit="10">
        <path d="M 1249.844116210938 977.2301025390625 C 1248.160522460938 977.2301025390625 1246.676025390625 976.3530883789062 1245.872924804688 974.8842163085938 C 1245.060668945312 973.3984375 1245.1279296875 971.6502685546875 1246.052856445312 970.2078247070312 L 1246.078369140625 970.16796875 L 1246.10009765625 970.1259155273438 L 1259.107299804688 944.8719482421875 C 1259.9736328125 943.5486450195312 1261.426025390625 942.7601928710938 1263.001708984375 942.7601928710938 C 1264.556884765625 942.7601928710938 1265.980224609375 943.5350952148438 1266.814208984375 944.8342895507812 L 1281.040649414062 969.8621215820312 L 1281.052734375 969.8833618164062 L 1281.065795898438 969.9039306640625 C 1281.965942382812 971.322021484375 1282.017211914062 973.0589599609375 1281.202758789062 974.5501708984375 C 1280.376220703125 976.0635986328125 1278.8583984375 976.9727172851562 1277.142578125 976.9819946289062 L 1249.869018554688 977.2300415039062 L 1249.844116210938 977.2301025390625 Z" stroke="none"/>
        <path d="M 1249.844116210938 976.2301025390625 L 1249.864379882812 976.2300415039062 L 1277.129760742188 975.9820556640625 L 1277.133422851562 975.9820556640625 L 1277.137084960938 975.9820556640625 C 1278.483764648438 975.9747314453125 1279.675659179688 975.26025390625 1280.3251953125 974.0708618164062 C 1280.962646484375 972.9036865234375 1280.923828125 971.5462646484375 1280.221557617188 970.4398193359375 L 1280.195434570312 970.398681640625 L 1280.171264648438 970.3563232421875 L 1265.958984375 945.3532104492188 C 1265.29931640625 944.3402099609375 1264.223999023438 943.7601928710938 1263.001708984375 943.7601928710938 C 1261.762939453125 943.7601928710938 1260.663208007812 944.3487548828125 1259.97119140625 945.3785400390625 L 1246.989135742188 970.5838012695312 L 1246.945678710938 970.6679077148438 L 1246.894653320312 970.7476196289062 C 1246.170166015625 971.87744140625 1246.1162109375 973.2445068359375 1246.750366210938 974.4044799804688 C 1247.375366210938 975.547607421875 1248.531860351562 976.2301025390625 1249.844116210938 976.2301025390625 M 1249.844116210938 978.2301025390625 C 1245.451416015625 978.2301025390625 1242.824096679688 973.3904418945312 1245.211059570312 969.6680297851562 L 1258.240966796875 944.3699951171875 C 1259.355834960938 942.631591796875 1261.183471679688 941.7601928710938 1263.001708984375 941.7601928710938 C 1264.79931640625 941.7601928710938 1266.587768554688 942.611328125 1267.671020507812 944.3179931640625 L 1281.910034179688 969.3679809570312 C 1284.261962890625 973.072998046875 1281.56201171875 977.9580078125 1277.14794921875 977.9819946289062 L 1249.878051757812 978.22998046875 C 1249.86669921875 978.2300415039062 1249.855346679688 978.2301025390625 1249.844116210938 978.2301025390625 Z" stroke="none" fill="#ec441c"/>
      </g>
      <line id="선_404" data-name="선 404" y1="20.098" x2="25.75" transform="translate(2.913 13.102)" fill="#fff" stroke="#ec441c" stroke-miterlimit="10" stroke-width="4" opacity="0.2"/>
      <g id="그룹_2425" data-name="그룹 2425" transform="translate(9.506 17.85)">
        <g id="그룹_2422" data-name="그룹 2422">
          <path id="패스_2152" data-name="패스 2152" d="M1256.59,963.308a6.267,6.267,0,0,0,.513-.571,2.618,2.618,0,0,0,.283-.438,1.217,1.217,0,0,0,.115-.357,2.439,2.439,0,0,0,.02-.315v-.082a.73.73,0,0,0-.246-.534,1.17,1.17,0,0,0-.832-.24,2.132,2.132,0,0,0-.414.041,1.351,1.351,0,0,0-.4.153,1.693,1.693,0,0,0-.393.315,2.945,2.945,0,0,0-.382.52l-1.005-.642a5.48,5.48,0,0,1,.34-.51,2.478,2.478,0,0,1,.513-.5,2.8,2.8,0,0,1,.733-.382,2.949,2.949,0,0,1,1-.153,3.5,3.5,0,0,1,1.1.153,2.182,2.182,0,0,1,.759.412,1.613,1.613,0,0,1,.439.6,1.847,1.847,0,0,1,.142.718v.1a2.5,2.5,0,0,1-.277,1.146,4.1,4.1,0,0,1-.812,1.065l-2.22,2.179h3.592v1.079h-5.34v-.977Z" transform="translate(-1253.815 -959.61)" fill="#1a1818"/>
          <path id="패스_2153" data-name="패스 2153" d="M1264.746,963.959a3.676,3.676,0,0,1-.681,2.394,2.509,2.509,0,0,1-2.052.825,2.624,2.624,0,0,1-2.083-.835,3.5,3.5,0,0,1-.734-2.384v-1.141a3.492,3.492,0,0,1,.729-2.378,2.588,2.588,0,0,1,2.056-.83,2.554,2.554,0,0,1,2.052.83,3.547,3.547,0,0,1,.713,2.378Zm-1.35-1.15a3.525,3.525,0,0,0-.122-1.019,1.544,1.544,0,0,0-.313-.6.963.963,0,0,0-.45-.279,1.959,1.959,0,0,0-.53-.071,1.9,1.9,0,0,0-.517.071,1,1,0,0,0-.461.285,1.547,1.547,0,0,0-.33.6,3.334,3.334,0,0,0-.126,1.009v1.161a3.252,3.252,0,0,0,.131,1.017,1.567,1.567,0,0,0,.341.6,1.039,1.039,0,0,0,.47.285,1.974,1.974,0,0,0,.524.071,1.888,1.888,0,0,0,.523-.071.935.935,0,0,0,.441-.28,1.546,1.546,0,0,0,.3-.6,3.747,3.747,0,0,0,.116-1.028Z" transform="translate(-1253.815 -959.61)" fill="#1a1818"/>
        </g>
        <g id="그룹_2424" data-name="그룹 2424" transform="translate(11.219 0.093)">
          <g id="그룹_2423" data-name="그룹 2423">
            <path id="패스_2154" data-name="패스 2154" d="M1266.768,960.23l1.061.025-.043,1.9a2.806,2.806,0,0,0,.02.438,1.592,1.592,0,0,0,.086.357,2.026,2.026,0,0,0,.148.326,2.35,2.35,0,0,0,.223.325c.153.2.323.408.508.619s.375.416.568.619l-.719.637q-.547-.59-.92-1.039a3.1,3.1,0,0,1-.428-.6h-.008a1.32,1.32,0,0,1-.163.264c-.085.114-.183.232-.292.353-.059.068-.128.144-.209.23s-.17.177-.265.278l-.3.3c-.1.1-.2.2-.3.286l-.706-.712c.186-.177.38-.37.583-.581s.387-.415.556-.616a2.638,2.638,0,0,0,.258-.35,2.012,2.012,0,0,0,.165-.337,1.746,1.746,0,0,0,.093-.366,3.655,3.655,0,0,0,.036-.454Zm2.8,2.815-1.06-.024.021-.933,1.061.023.052-2.283,1.017.024-.166,7.348-1.017-.022Zm2.521,4.573-1.019-.022.178-7.893,1.019.024Z" transform="translate(-1265.034 -959.703)" fill="#535453"/>
          </g>
        </g>
      </g>
    </g>
    <rect id="사각형_2698" data-name="사각형 2698" width="50" height="50" transform="translate(1238.544 934.995)" fill="none"/>
  </g>
</svg>
