<svg xmlns="http://www.w3.org/2000/svg" width="50" height="50" viewBox="0 0 50 50">
  <g id="그룹_2379" data-name="그룹 2379" transform="translate(-762.508 -934.995)">
    <g id="그룹_2378" data-name="그룹 2378" transform="translate(768.273 941.76)">
      <g id="패스_2119" data-name="패스 2119" transform="translate(-768.273 -941.76)" fill="#fff" stroke-miterlimit="10">
        <path d="M 773.8079833984375 977.2301025390625 C 772.12451171875 977.2301025390625 770.6400146484375 976.3530883789062 769.8369140625 974.8842163085938 C 769.024658203125 973.3984375 769.0918579101562 971.6502075195312 770.0167846679688 970.2078247070312 L 770.0423583984375 970.16796875 L 770.0640258789062 970.1259155273438 L 783.0713500976562 944.8719482421875 C 783.9376220703125 943.5487060546875 785.3900146484375 942.7601928710938 786.9657592773438 942.7601928710938 C 788.5208740234375 942.7601928710938 789.9443359375 943.53515625 790.7782592773438 944.8343505859375 L 805.004638671875 969.8621215820312 L 805.0167236328125 969.8833618164062 L 805.02978515625 969.9039306640625 C 805.9299926757812 971.322021484375 805.9812622070312 973.0588989257812 805.1668701171875 974.5501098632812 C 804.34033203125 976.0635375976562 802.8224487304688 976.9727172851562 801.1065673828125 976.9819946289062 L 773.8328857421875 977.2300415039062 L 773.8079833984375 977.2301025390625 Z" stroke="none"/>
        <path d="M 773.8079833984375 976.2301025390625 L 773.8282470703125 976.2300415039062 L 801.0938110351562 975.9820556640625 L 801.0974731445312 975.9820556640625 L 801.1011352539062 975.9820556640625 C 802.4478149414062 975.9747314453125 803.6396484375 975.26025390625 804.2892456054688 974.07080078125 C 804.9266357421875 972.9036254882812 804.8878784179688 971.5462646484375 804.185546875 970.4398803710938 L 804.1593627929688 970.398681640625 L 804.1353149414062 970.3563232421875 L 789.9229125976562 945.3532104492188 C 789.2633666992188 944.3402099609375 788.1880493164062 943.7601928710938 786.9657592773438 943.7601928710938 C 785.7269287109375 943.7601928710938 784.627197265625 944.3488159179688 783.9352416992188 945.3785400390625 L 770.9530029296875 970.5838012695312 L 770.90966796875 970.6679077148438 L 770.8585815429688 970.74755859375 C 770.1340942382812 971.87744140625 770.0802001953125 973.2445068359375 770.71435546875 974.4044799804688 C 771.3392944335938 975.547607421875 772.4957885742188 976.2301025390625 773.8079833984375 976.2301025390625 M 773.8079833984375 978.2301025390625 C 769.4154052734375 978.2301025390625 766.7880859375 973.3904418945312 769.1749877929688 969.6680297851562 L 782.2050170898438 944.3699951171875 C 783.3198852539062 942.631591796875 785.1474609375 941.7601928710938 786.9657592773438 941.7601928710938 C 788.7633056640625 941.7601928710938 790.5517578125 942.611328125 791.635009765625 944.3179931640625 L 805.8740234375 969.3679809570312 C 808.2260131835938 973.072998046875 805.5260009765625 977.9580078125 801.1119995117188 977.9819946289062 L 773.8419799804688 978.22998046875 C 773.8306884765625 978.2300415039062 773.8192749023438 978.2301025390625 773.8079833984375 978.2301025390625 Z" stroke="none" fill="#ec441c"/>
      </g>
      <line id="선_396" data-name="선 396" y1="20.098" x2="25.75" transform="translate(2.913 13.102)" fill="#fff" stroke="#ec441c" stroke-miterlimit="10" stroke-width="4" opacity="0.2"/>
      <g id="그룹_2377" data-name="그룹 2377" transform="translate(10.113 17.849)">
        <g id="그룹_2374" data-name="그룹 2374">
          <path id="패스_2120" data-name="패스 2120" d="M780.687,967.065v-5.877l-1.669.958-.632-1.059,2.455-1.365h1.15v7.343Z" transform="translate(-778.386 -959.609)" fill="#1a1818"/>
          <path id="패스_2121" data-name="패스 2121" d="M785.76,963.307a6.184,6.184,0,0,0,.5-.571,2.561,2.561,0,0,0,.274-.437,1.179,1.179,0,0,0,.113-.357,2.643,2.643,0,0,0,.02-.316v-.081a.743.743,0,0,0-.239-.535,1.123,1.123,0,0,0-.81-.239,1.93,1.93,0,0,0-.4.041,1.314,1.314,0,0,0-.393.152,1.7,1.7,0,0,0-.382.316,2.951,2.951,0,0,0-.372.52l-.977-.642a5.664,5.664,0,0,1,.331-.51,2.422,2.422,0,0,1,.5-.5,2.667,2.667,0,0,1,.713-.382,2.769,2.769,0,0,1,.972-.154,3.3,3.3,0,0,1,1.071.154,2.1,2.1,0,0,1,.738.412,1.619,1.619,0,0,1,.428.6,1.9,1.9,0,0,1,.137.718v.1a2.543,2.543,0,0,1-.27,1.145,4.082,4.082,0,0,1-.789,1.065l-2.159,2.179h3.493v1.08h-5.194v-.977Z" transform="translate(-778.386 -959.609)" fill="#1a1818"/>
        </g>
        <g id="그룹_2376" data-name="그룹 2376" transform="translate(10.613 0.094)">
          <g id="그룹_2375" data-name="그룹 2375">
            <path id="패스_2122" data-name="패스 2122" d="M790.732,960.23l1.061.025-.043,1.9a2.947,2.947,0,0,0,.02.438,1.647,1.647,0,0,0,.086.357,2.115,2.115,0,0,0,.148.326,2.356,2.356,0,0,0,.223.325c.153.2.323.408.509.619s.374.416.567.619l-.719.637c-.365-.393-.67-.739-.919-1.039a3.055,3.055,0,0,1-.428-.6h-.009a1.274,1.274,0,0,1-.163.264c-.085.114-.183.232-.292.353-.059.068-.128.144-.209.23s-.17.177-.265.278-.2.2-.3.3-.2.2-.3.286l-.706-.712c.185-.177.379-.37.583-.581s.386-.415.555-.616a2.475,2.475,0,0,0,.258-.35,2.013,2.013,0,0,0,.165-.337,1.812,1.812,0,0,0,.094-.366,3.882,3.882,0,0,0,.035-.454Zm2.8,2.815-1.061-.024.022-.933,1.06.023.052-2.283,1.018.024-.166,7.348-1.018-.022Zm2.52,4.573-1.018-.022.177-7.893,1.019.024Z" transform="translate(-788.999 -959.703)" fill="#535453"/>
          </g>
        </g>
      </g>
    </g>
    <rect id="사각형_2690" data-name="사각형 2690" width="50" height="50" transform="translate(762.508 934.995)" fill="none"/>
  </g>
</svg>
