<svg xmlns="http://www.w3.org/2000/svg" width="50" height="50" viewBox="0 0 50 50">
  <g id="그룹_2325" data-name="그룹 2325" transform="translate(-225.959 -934.995)">
    <g id="그룹_2324" data-name="그룹 2324" transform="translate(231.724 941.76)">
      <g id="패스_2090" data-name="패스 2090" transform="translate(-231.724 -941.76)" fill="#fff" stroke-miterlimit="10">
        <path d="M 237.259033203125 977.2301025390625 C 235.5755157470703 977.2301025390625 234.0910034179688 976.3530883789062 233.2879333496094 974.8842163085938 C 232.4756469726562 973.3984375 232.5428924560547 971.6502685546875 233.4678039550781 970.2078247070312 L 233.4933319091797 970.16796875 L 233.5149993896484 970.1259155273438 L 246.5223083496094 944.8720092773438 C 247.3885803222656 943.5487060546875 248.8410034179688 942.7601928710938 250.416748046875 942.7601928710938 C 251.9718627929688 942.7601928710938 253.3953247070312 943.53515625 254.2292327880859 944.8343505859375 L 268.4556579589844 969.8621215820312 L 268.4676818847656 969.8833618164062 L 268.4807739257812 969.9039306640625 C 269.3809814453125 971.322021484375 269.4322509765625 973.0588989257812 268.6178588867188 974.5501098632812 C 267.7913208007812 976.0635375976562 266.2734375 976.9727172851562 264.5575561523438 976.9819946289062 L 237.2839050292969 977.2300415039062 L 237.259033203125 977.2301025390625 Z" stroke="none"/>
        <path d="M 237.259033203125 976.2301025390625 L 237.2792816162109 976.2300415039062 L 264.5447998046875 975.9820556640625 L 264.5484619140625 975.9820556640625 L 264.5521240234375 975.9820556640625 C 265.8988037109375 975.9747314453125 267.0906372070312 975.26025390625 267.7402038574219 974.07080078125 C 268.3776245117188 972.9036254882812 268.3388671875 971.5462646484375 267.6365051269531 970.4398803710938 L 267.6103820800781 970.398681640625 L 267.5862731933594 970.3563232421875 L 253.3739166259766 945.3532104492188 C 252.71435546875 944.3402099609375 251.6390228271484 943.7601928710938 250.416748046875 943.7601928710938 C 249.1779479980469 943.7601928710938 248.0782165527344 944.3487548828125 247.3862609863281 945.3784790039062 L 234.4040222167969 970.5838012695312 L 234.3606872558594 970.6679077148438 L 234.3096008300781 970.74755859375 C 233.5851135253906 971.87744140625 233.5311889648438 973.2445068359375 234.1653594970703 974.4044799804688 C 234.7903137207031 975.547607421875 235.9468231201172 976.2301025390625 237.259033203125 976.2301025390625 M 237.259033203125 978.2301025390625 C 232.8663787841797 978.2301025390625 230.2391204833984 973.3904418945312 232.6259918212891 969.6680297851562 L 245.656005859375 944.3699951171875 C 246.7708587646484 942.631591796875 248.5984497070312 941.7601928710938 250.416748046875 941.7601928710938 C 252.2142944335938 941.7601928710938 254.0027465820312 942.611328125 255.0859985351562 944.3179931640625 L 269.3250122070312 969.3679809570312 C 271.677001953125 973.072998046875 268.9769897460938 977.9580078125 264.56298828125 977.9819946289062 L 237.2929992675781 978.22998046875 C 237.2816772460938 978.2300415039062 237.2703094482422 978.2301025390625 237.259033203125 978.2301025390625 Z" stroke="none" fill="#ec441c"/>
      </g>
      <line id="선_387" data-name="선 387" y1="20.098" x2="25.75" transform="translate(2.913 13.102)" fill="#fff" stroke="#ec441c" stroke-miterlimit="10" stroke-width="4" opacity="0.2"/>
      <g id="그룹_2323" data-name="그룹 2323" transform="translate(11.441 17.849)">
        <g id="그룹_2320" data-name="그룹 2320">
          <path id="패스_2091" data-name="패스 2091" d="M243.368,960.669a2.932,2.932,0,0,1,.876-.769,2.608,2.608,0,0,1,1.3-.291,3.1,3.1,0,0,1,.937.133,2.134,2.134,0,0,1,.713.372,1.635,1.635,0,0,1,.458.58,1.715,1.715,0,0,1,.163.749v.1a2.46,2.46,0,0,1-.046.464,1.586,1.586,0,0,1-.168.478,1.643,1.643,0,0,1-.326.423,1.556,1.556,0,0,1-.519.316,1.671,1.671,0,0,1,1.08.58,1.718,1.718,0,0,1,.347,1.08v.152a2.047,2.047,0,0,1-.164.8,1.876,1.876,0,0,1-.494.682,2.458,2.458,0,0,1-.835.474,3.521,3.521,0,0,1-1.176.179,3.9,3.9,0,0,1-1.238-.2,3.559,3.559,0,0,1-1.115-.617l.642-1.018c.176.129.338.238.483.326a2.624,2.624,0,0,0,.423.209,1.938,1.938,0,0,0,.4.106,2.6,2.6,0,0,0,.417.032,1.557,1.557,0,0,0,1.019-.276.941.941,0,0,0,.326-.763v-.133a.945.945,0,0,0-.315-.789,1.654,1.654,0,0,0-1.019-.25h-.988v-1.12h.876a1.747,1.747,0,0,0,.565-.077.788.788,0,0,0,.341-.213.759.759,0,0,0,.169-.336,1.974,1.974,0,0,0,.045-.434v-.081a.69.69,0,0,0-.27-.607,1.252,1.252,0,0,0-.728-.188,1.47,1.47,0,0,0-.759.174,2.408,2.408,0,0,0-.534.437Z" transform="translate(-243.165 -959.609)" fill="#1a1818"/>
        </g>
        <g id="그룹_2322" data-name="그룹 2322" transform="translate(6.305 0.043)">
          <g id="그룹_2321" data-name="그룹 2321">
            <path id="패스_2092" data-name="패스 2092" d="M251.1,960.279h1.061v1.9a2.965,2.965,0,0,0,.029.436,1.714,1.714,0,0,0,.094.357,2.167,2.167,0,0,0,.156.322,2.388,2.388,0,0,0,.23.318c.158.2.332.4.522.608s.383.408.581.607l-.7.652q-.561-.576-.942-1.017a2.959,2.959,0,0,1-.441-.6h-.009a1.32,1.32,0,0,1-.157.268,4.542,4.542,0,0,1-.285.36c-.056.068-.124.147-.2.234l-.259.284c-.093.1-.19.205-.289.31s-.2.2-.293.293l-.721-.7q.271-.271.569-.595c.2-.215.379-.424.543-.627a2.609,2.609,0,0,0,.25-.357,2.021,2.021,0,0,0,.157-.34,1.7,1.7,0,0,0,.085-.369,3.586,3.586,0,0,0,.026-.453Zm2.86,2.75H252.9V962.1h1.061v-2.283h1.019v7.351H253.96Zm2.623,4.516h-1.019v-7.893h1.019Z" transform="translate(-249.47 -959.652)" fill="#535453"/>
          </g>
        </g>
      </g>
    </g>
    <rect id="사각형_2681" data-name="사각형 2681" width="50" height="50" transform="translate(225.959 934.995)" fill="none"/>
  </g>
</svg>
