<svg xmlns="http://www.w3.org/2000/svg" width="50" height="50" viewBox="0 0 50 50">
  <g id="그룹_2337" data-name="그룹 2337" transform="translate(-342.834 -934.995)">
    <g id="그룹_2336" data-name="그룹 2336" transform="translate(348.598 941.76)">
      <g id="패스_2096" data-name="패스 2096" transform="translate(-348.598 -941.76)" fill="#fff" stroke-miterlimit="10">
        <path d="M 354.1330261230469 977.2301025390625 C 352.4495239257812 977.2301025390625 350.9649963378906 976.3530883789062 350.1619262695312 974.8842163085938 C 349.3496704101562 973.3984375 349.4169006347656 971.6502685546875 350.341796875 970.2078247070312 L 350.3673400878906 970.16796875 L 350.3890075683594 970.1259155273438 L 363.3963012695312 944.8720092773438 C 364.2625732421875 943.5487060546875 365.7149963378906 942.7601928710938 367.2907409667969 942.7601928710938 C 368.8458557128906 942.7601928710938 370.2693176269531 943.53515625 371.1032104492188 944.8343505859375 L 385.3296508789062 969.8621215820312 L 385.3416748046875 969.8833618164062 L 385.3547668457031 969.9039306640625 C 386.2549743652344 971.322021484375 386.3062438964844 973.0589599609375 385.4918518066406 974.5501708984375 C 384.6653137207031 976.0635986328125 383.1474609375 976.9727172851562 381.4315795898438 976.9819946289062 L 354.1578979492188 977.2300415039062 L 354.1330261230469 977.2301025390625 Z" stroke="none"/>
        <path d="M 354.1330261230469 976.2301025390625 L 354.1532897949219 976.2300415039062 L 381.4188232421875 975.9820556640625 L 381.4224853515625 975.9820556640625 L 381.4261474609375 975.9820556640625 C 382.7728271484375 975.9747314453125 383.9646301269531 975.26025390625 384.6141967773438 974.0708618164062 C 385.2516479492188 972.9036865234375 385.2128601074219 971.5462646484375 384.510498046875 970.4398803710938 L 384.484375 970.398681640625 L 384.4602661132812 970.3563232421875 L 370.2478637695312 945.3531494140625 C 369.5883178710938 944.3401489257812 368.5130310058594 943.7601928710938 367.2907409667969 943.7601928710938 C 366.0519409179688 943.7601928710938 364.9522094726562 944.3488159179688 364.2602233886719 945.3785400390625 L 351.2780151367188 970.5838012695312 L 351.2346801757812 970.6679077148438 L 351.1836242675781 970.74755859375 C 350.4591369628906 971.87744140625 350.4052124023438 973.2445068359375 351.0393676757812 974.4044799804688 C 351.664306640625 975.547607421875 352.8208312988281 976.2301025390625 354.1330261230469 976.2301025390625 M 354.1330261230469 978.2301025390625 C 349.7403869628906 978.2301025390625 347.1131286621094 973.3904418945312 349.5 969.6680297851562 L 362.5299987792969 944.3699951171875 C 363.6448669433594 942.631591796875 365.4724731445312 941.7601928710938 367.2907409667969 941.7601928710938 C 369.0882873535156 941.7601928710938 370.8767395019531 942.611328125 371.9599914550781 944.3179931640625 L 386.1990051269531 969.3679809570312 C 388.5509948730469 973.072998046875 385.8510131835938 977.9580078125 381.43701171875 977.9819946289062 L 354.1669921875 978.22998046875 C 354.1556701660156 978.2300415039062 354.1443176269531 978.2301025390625 354.1330261230469 978.2301025390625 Z" stroke="none" fill="#ec441c"/>
      </g>
      <line id="선_389" data-name="선 389" y1="20.098" x2="25.75" transform="translate(2.913 13.102)" fill="#fff" stroke="#ec441c" stroke-miterlimit="10" stroke-width="4" opacity="0.2"/>
      <g id="그룹_2335" data-name="그룹 2335" transform="translate(11.573 17.892)">
        <g id="그룹_2332" data-name="그룹 2332" transform="translate(0 0.07)">
          <path id="패스_2097" data-name="패스 2097" d="M364.082,964.61a1.173,1.173,0,0,0-.341-.906,1.35,1.35,0,0,0-.952-.315,1.765,1.765,0,0,0-.81.173,2.422,2.422,0,0,0-.585.407h-.876l.234-4.247h4.166v1.08h-2.995l-.081,1.914a3.079,3.079,0,0,1,.58-.265,2.448,2.448,0,0,1,.784-.112,2.27,2.27,0,0,1,.938.183,2.05,2.05,0,0,1,.687.5,2.1,2.1,0,0,1,.423.717,2.551,2.551,0,0,1,.142.846v.152a2.729,2.729,0,0,1-.147.876,2.172,2.172,0,0,1-.469.786,2.431,2.431,0,0,1-.815.564,2.915,2.915,0,0,1-1.187.22,5.237,5.237,0,0,1-1.425-.179,3.193,3.193,0,0,1-1.182-.637l.632-1.028a3.362,3.362,0,0,0,.5.336,2.6,2.6,0,0,0,.483.2,2.8,2.8,0,0,0,.485.1c.163.016.329.025.5.025a1.265,1.265,0,0,0,.993-.361,1.322,1.322,0,0,0,.32-.912Z" transform="translate(-360.171 -959.722)" fill="#1a1818"/>
        </g>
        <g id="그룹_2334" data-name="그룹 2334" transform="translate(6.173)">
          <g id="그룹_2333" data-name="그룹 2333">
            <path id="패스_2098" data-name="패스 2098" d="M367.974,960.279h1.061v1.9a2.967,2.967,0,0,0,.029.436,1.715,1.715,0,0,0,.094.357,2.168,2.168,0,0,0,.156.322,2.39,2.39,0,0,0,.23.318c.158.2.332.4.522.608s.383.408.581.607l-.7.652q-.561-.576-.942-1.017a2.96,2.96,0,0,1-.441-.6h-.009a1.319,1.319,0,0,1-.157.268,4.542,4.542,0,0,1-.285.36c-.056.068-.124.147-.2.234l-.259.284c-.093.1-.19.205-.289.31s-.2.2-.293.293l-.721-.7q.271-.271.569-.595c.2-.215.379-.424.543-.627a2.608,2.608,0,0,0,.25-.357,2.021,2.021,0,0,0,.157-.34,1.7,1.7,0,0,0,.085-.369,3.586,3.586,0,0,0,.026-.453Zm2.86,2.75h-1.061V962.1h1.061v-2.283h1.019v7.351h-1.019Zm2.623,4.516h-1.019v-7.893h1.019Z" transform="translate(-366.344 -959.652)" fill="#535453"/>
          </g>
        </g>
      </g>
    </g>
    <rect id="사각형_2683" data-name="사각형 2683" width="50" height="50" transform="translate(342.833 934.995)" fill="none"/>
  </g>
</svg>
