<svg xmlns="http://www.w3.org/2000/svg" width="50" height="50" viewBox="0 0 50 50">
  <g id="그룹_2415" data-name="그룹 2415" transform="translate(-1119.535 -934.995)">
    <g id="그룹_2414" data-name="그룹 2414" transform="translate(1125.3 941.76)">
      <g id="패스_2143" data-name="패스 2143" transform="translate(-1125.3 -941.76)" fill="#fff" stroke-miterlimit="10">
        <path d="M 1130.835083007812 977.2301025390625 C 1129.151489257812 977.2301025390625 1127.6669921875 976.3530883789062 1126.863891601562 974.8841552734375 C 1126.051635742188 973.3983764648438 1126.118896484375 971.6502075195312 1127.043823242188 970.2078247070312 L 1127.0693359375 970.16796875 L 1127.091064453125 970.1259155273438 L 1140.098388671875 944.8719482421875 C 1140.964599609375 943.5487060546875 1142.4169921875 942.7601928710938 1143.992797851562 942.7601928710938 C 1145.5478515625 942.7601928710938 1146.971313476562 943.5350952148438 1147.80517578125 944.834228515625 L 1162.031616210938 969.8621215820312 L 1162.043701171875 969.8833618164062 L 1162.056762695312 969.9039306640625 C 1162.95703125 971.322021484375 1163.00830078125 973.0588989257812 1162.19384765625 974.5501098632812 C 1161.367309570312 976.0635375976562 1159.849487304688 976.9727172851562 1158.133544921875 976.9819946289062 L 1130.859985351562 977.2300415039062 L 1130.835083007812 977.2301025390625 Z" stroke="none"/>
        <path d="M 1130.835083007812 976.2301025390625 L 1130.855346679688 976.2300415039062 L 1158.120849609375 975.9820556640625 L 1158.12451171875 975.9820556640625 L 1158.128173828125 975.9820556640625 C 1159.474853515625 975.9747314453125 1160.666625976562 975.26025390625 1161.316284179688 974.07080078125 C 1161.95361328125 972.9036254882812 1161.914916992188 971.5462646484375 1161.212524414062 970.4398803710938 L 1161.186401367188 970.398681640625 L 1161.162231445312 970.3563232421875 L 1146.949829101562 945.3532104492188 C 1146.290405273438 944.3402099609375 1145.215087890625 943.7601928710938 1143.992797851562 943.7601928710938 C 1142.75390625 943.7601928710938 1141.654174804688 944.3488159179688 1140.962280273438 945.3786010742188 L 1127.97998046875 970.5838012695312 L 1127.936645507812 970.66796875 L 1127.885620117188 970.7476196289062 C 1127.1611328125 971.87744140625 1127.107177734375 973.2445068359375 1127.741333007812 974.4044799804688 C 1128.366333007812 975.547607421875 1129.522827148438 976.2301025390625 1130.835083007812 976.2301025390625 M 1130.835083007812 978.2301025390625 C 1126.442504882812 978.2301025390625 1123.815063476562 973.3904418945312 1126.202026367188 969.6680297851562 L 1139.232055664062 944.3699951171875 C 1140.346923828125 942.631591796875 1142.174438476562 941.7601928710938 1143.992797851562 941.7601928710938 C 1145.790283203125 941.7601928710938 1147.578735351562 942.611328125 1148.661987304688 944.3179931640625 L 1162.901000976562 969.3679809570312 C 1165.253051757812 973.072998046875 1162.552978515625 977.9580078125 1158.139038085938 977.9819946289062 L 1130.869018554688 978.22998046875 C 1130.857666015625 978.2300415039062 1130.846313476562 978.2301025390625 1130.835083007812 978.2301025390625 Z" stroke="none" fill="#ec441c"/>
      </g>
      <line id="선_402" data-name="선 402" y1="20.098" x2="25.75" transform="translate(2.913 13.102)" fill="#fff" stroke="#ec441c" stroke-miterlimit="10" stroke-width="4" opacity="0.2"/>
      <g id="그룹_2413" data-name="그룹 2413" transform="translate(10.144 17.85)">
        <g id="그룹_2410" data-name="그룹 2410">
          <path id="패스_2144" data-name="패스 2144" d="M1137.811,967.065v-5.877l-1.717.958-.65-1.059,2.524-1.365h1.183v7.343Z" transform="translate(-1135.444 -959.61)" fill="#1a1818"/>
          <path id="패스_2145" data-name="패스 2145" d="M1140.345,964.947a1.6,1.6,0,0,1,.1-.576,1.879,1.879,0,0,1,.279-.488,1.769,1.769,0,0,1,.392-.372,1.593,1.593,0,0,1,.46-.224,1.773,1.773,0,0,1-.466-.321,1.954,1.954,0,0,1-.319-.4,1.773,1.773,0,0,1-.189-.422,1.405,1.405,0,0,1-.062-.4v-.122a2.045,2.045,0,0,1,.142-.759,1.72,1.72,0,0,1,.439-.641,2.174,2.174,0,0,1,.754-.449,3.478,3.478,0,0,1,2.136,0,2.231,2.231,0,0,1,.758.449,1.815,1.815,0,0,1,.456.641,1.942,1.942,0,0,1,.152.759v.122a1.444,1.444,0,0,1-.058.387,1.6,1.6,0,0,1-.183.407,2.059,2.059,0,0,1-.32.4,2.116,2.116,0,0,1-.466.347,1.565,1.565,0,0,1,.466.229,1.781,1.781,0,0,1,.393.372,1.745,1.745,0,0,1,.267.483,1.641,1.641,0,0,1,.1.576v.173a2,2,0,0,1-.168.815,1.775,1.775,0,0,1-.5.652,2.439,2.439,0,0,1-.811.433,3.579,3.579,0,0,1-1.11.158,3.793,3.793,0,0,1-1.146-.158,2.476,2.476,0,0,1-.833-.433,1.758,1.758,0,0,1-.5-.652,1.964,1.964,0,0,1-.168-.815Zm1.382.092a.869.869,0,0,0,.345.738,1.48,1.48,0,0,0,.911.26,1.387,1.387,0,0,0,.89-.26.889.889,0,0,0,.325-.738v-.1a.966.966,0,0,0-.361-.794,1.028,1.028,0,0,0-.383-.194,1.743,1.743,0,0,0-.471-.061,1.8,1.8,0,0,0-.476.061,1.172,1.172,0,0,0-.4.189.94.94,0,0,0-.277.325,1,1,0,0,0-.1.474Zm.188-3.239a.87.87,0,0,0,.341.718,1.04,1.04,0,0,0,.34.173,1.3,1.3,0,0,0,.377.056,1.283,1.283,0,0,0,.382-.056,1,1,0,0,0,.33-.173.88.88,0,0,0,.235-.295.943.943,0,0,0,.09-.423v-.1a.888.888,0,0,0-.288-.719,1.3,1.3,0,0,0-1.5,0,.864.864,0,0,0-.3.719Z" transform="translate(-1135.444 -959.61)" fill="#1a1818"/>
        </g>
        <g id="그룹_2412" data-name="그룹 2412" transform="translate(10.581 0.093)">
          <g id="그룹_2411" data-name="그룹 2411">
            <path id="패스_2146" data-name="패스 2146" d="M1147.759,960.23l1.061.025-.043,1.9a2.821,2.821,0,0,0,.02.438,1.592,1.592,0,0,0,.086.357,2.114,2.114,0,0,0,.148.326,2.362,2.362,0,0,0,.223.325c.153.2.323.408.509.619s.374.416.567.619l-.719.637q-.547-.59-.92-1.039a3.073,3.073,0,0,1-.427-.6h-.009a1.324,1.324,0,0,1-.163.264c-.085.114-.183.232-.292.353-.059.068-.128.144-.209.23s-.17.177-.265.278l-.3.3c-.1.1-.2.2-.3.286l-.706-.712c.186-.177.38-.37.583-.581s.387-.415.556-.616a2.544,2.544,0,0,0,.258-.35,2.013,2.013,0,0,0,.165-.337,1.816,1.816,0,0,0,.094-.366,3.871,3.871,0,0,0,.035-.454Zm2.8,2.815-1.061-.024.022-.933,1.06.023.052-2.283,1.017.024-.166,7.348-1.017-.022Zm2.52,4.573-1.018-.022.177-7.893,1.019.024Z" transform="translate(-1146.025 -959.703)" fill="#535453"/>
          </g>
        </g>
      </g>
    </g>
    <rect id="사각형_2696" data-name="사각형 2696" width="50" height="50" transform="translate(1119.535 934.995)" fill="none"/>
  </g>
</svg>
