<svg xmlns="http://www.w3.org/2000/svg" width="50" height="50" viewBox="0 0 50 50">
  <g id="그룹_2367" data-name="그룹 2367" transform="translate(-641.105 -934.995)">
    <g id="그룹_2366" data-name="그룹 2366" transform="translate(646.871 941.76)">
      <g id="패스_2111" data-name="패스 2111" transform="translate(-646.871 -941.76)" fill="#fff" stroke-miterlimit="10">
        <path d="M 652.4060668945312 977.2301025390625 C 650.722900390625 977.2301025390625 649.2387084960938 976.3533325195312 648.4356689453125 974.8848876953125 C 647.6231079101562 973.3989868164062 647.6901245117188 971.6504516601562 648.6149291992188 970.2076416015625 L 648.640380859375 970.1679077148438 L 648.6620483398438 970.1259155273438 L 661.6693115234375 944.8719482421875 C 662.53564453125 943.5486450195312 663.9879760742188 942.7601928710938 665.563720703125 942.7601928710938 C 667.1188354492188 942.7601928710938 668.542236328125 943.5350952148438 669.3761596679688 944.834228515625 L 683.6026000976562 969.8621215820312 L 683.6146850585938 969.8833618164062 L 683.6277465820312 969.9039306640625 C 684.5279541015625 971.322021484375 684.5792236328125 973.0589599609375 683.7648315429688 974.5501708984375 C 682.9382934570312 976.0635986328125 681.4204711914062 976.9727172851562 679.70458984375 976.9819946289062 L 652.430908203125 977.2300415039062 L 652.4060668945312 977.2301025390625 Z" stroke="none"/>
        <path d="M 652.4060668945312 976.2301025390625 L 652.42626953125 976.2300415039062 L 679.6918334960938 975.9820556640625 L 679.6954956054688 975.9820556640625 L 679.6991577148438 975.9820556640625 C 681.0458374023438 975.9747314453125 682.2376098632812 975.26025390625 682.88720703125 974.0708618164062 C 683.524658203125 972.9036865234375 683.48583984375 971.5463256835938 682.7835083007812 970.4398803710938 L 682.75732421875 970.398681640625 L 682.7332763671875 970.3563232421875 L 668.5208740234375 945.3532104492188 C 667.861328125 944.3402099609375 666.7860107421875 943.7601928710938 665.563720703125 943.7601928710938 C 664.324951171875 943.7601928710938 663.2252197265625 944.3487548828125 662.533203125 945.3785400390625 L 649.551025390625 970.5838012695312 L 649.5077514648438 970.6677856445312 L 649.4568481445312 970.7472534179688 C 648.7323608398438 971.8775024414062 648.6786499023438 973.2449340820312 649.3130493164062 974.4050903320312 C 649.9379272460938 975.5478515625 651.0941772460938 976.2301025390625 652.4060668945312 976.2301025390625 M 652.4060668945312 978.2301025390625 C 648.0133666992188 978.2301025390625 645.3870849609375 973.3904418945312 647.7730102539062 969.6680297851562 L 660.802978515625 944.3699951171875 C 661.9178466796875 942.631591796875 663.7454833984375 941.7601928710938 665.5637817382812 941.7601928710938 C 667.361328125 941.7601928710938 669.1497192382812 942.611328125 670.2329711914062 944.3179931640625 L 684.4719848632812 969.3679809570312 C 686.823974609375 973.072998046875 684.1240234375 977.9580078125 679.7100219726562 977.9819946289062 L 652.4400024414062 978.22998046875 C 652.4287109375 978.2300415039062 652.4172973632812 978.2301025390625 652.4060668945312 978.2301025390625 Z" stroke="none" fill="#ec441c"/>
      </g>
      <line id="선_394" data-name="선 394" y1="20.098" x2="25.75" transform="translate(2.913 13.102)" fill="#fff" stroke="#ec441c" stroke-miterlimit="10" stroke-width="4" opacity="0.2"/>
      <g id="그룹_2365" data-name="그룹 2365" transform="translate(9.113 17.849)">
        <g id="그룹_2362" data-name="그룹 2362">
          <path id="패스_2112" data-name="패스 2112" d="M658.286,967.065v-5.877l-1.67.958-.632-1.059,2.455-1.365h1.15v7.343Z" transform="translate(-655.984 -959.609)" fill="#1a1818"/>
          <path id="패스_2113" data-name="패스 2113" d="M667.014,963.959a3.754,3.754,0,0,1-.662,2.394,2.407,2.407,0,0,1-2,.825,2.522,2.522,0,0,1-2.027-.836,3.569,3.569,0,0,1-.713-2.383v-1.141a3.567,3.567,0,0,1,.708-2.379,2.49,2.49,0,0,1,2-.83,2.457,2.457,0,0,1,2,.83,3.62,3.62,0,0,1,.692,2.379Zm-1.313-1.151a3.587,3.587,0,0,0-.118-1.019,1.568,1.568,0,0,0-.3-.6.941.941,0,0,0-.439-.28,1.88,1.88,0,0,0-.513-.071,1.855,1.855,0,0,0-.505.071.981.981,0,0,0-.448.285,1.573,1.573,0,0,0-.321.6,3.445,3.445,0,0,0-.122,1.008v1.161a3.335,3.335,0,0,0,.127,1.018,1.573,1.573,0,0,0,.331.6,1.015,1.015,0,0,0,.458.285,1.907,1.907,0,0,0,.51.071,1.819,1.819,0,0,0,.509-.071.915.915,0,0,0,.428-.28,1.551,1.551,0,0,0,.295-.6,3.807,3.807,0,0,0,.113-1.029Z" transform="translate(-655.984 -959.609)" fill="#1a1818"/>
        </g>
        <g id="그룹_2364" data-name="그룹 2364" transform="translate(11.633 0.043)">
          <g id="그룹_2363" data-name="그룹 2363">
            <path id="패스_2114" data-name="패스 2114" d="M669.247,960.279h1.062v1.9a2.83,2.83,0,0,0,.029.436,1.651,1.651,0,0,0,.094.357,2.07,2.07,0,0,0,.156.322,2.376,2.376,0,0,0,.229.318c.159.2.332.4.523.608s.383.408.581.607l-.7.652q-.561-.576-.943-1.017a3,3,0,0,1-.441-.6h-.009a1.271,1.271,0,0,1-.157.268c-.082.116-.177.236-.284.36-.057.068-.124.147-.2.234l-.259.284c-.094.1-.191.205-.289.31s-.2.2-.293.293l-.722-.7c.182-.181.371-.379.57-.595s.378-.424.542-.627a2.613,2.613,0,0,0,.25-.357,1.953,1.953,0,0,0,.158-.34,1.765,1.765,0,0,0,.085-.369,3.8,3.8,0,0,0,.025-.453Zm2.86,2.75h-1.06V962.1h1.06v-2.283h1.019v7.351h-1.019Zm2.623,4.516h-1.018v-7.893h1.018Z" transform="translate(-667.617 -959.652)" fill="#535453"/>
          </g>
        </g>
      </g>
    </g>
    <rect id="사각형_2688" data-name="사각형 2688" width="50" height="50" transform="translate(641.106 934.995)" fill="none"/>
  </g>
</svg>
