<svg xmlns="http://www.w3.org/2000/svg" width="50" height="50" viewBox="0 0 50 50">
  <g id="그룹_2373" data-name="그룹 2373" transform="translate(-703.004 -934.995)">
    <g id="그룹_2372" data-name="그룹 2372" transform="translate(708.769 941.76)">
      <g id="패스_2115" data-name="패스 2115" transform="translate(-708.769 -941.76)" fill="#fff" stroke-miterlimit="10">
        <path d="M 714.3040161132812 977.2301025390625 C 712.6203002929688 977.2301025390625 711.1356811523438 976.3532104492188 710.3327026367188 974.8844604492188 C 709.5204467773438 973.3987426757812 709.5877685546875 971.6504516601562 710.5128173828125 970.2078247070312 L 710.5383911132812 970.16796875 L 710.56005859375 970.1259155273438 L 723.5673217773438 944.8718872070312 C 724.4331665039062 943.5487060546875 725.8854370117188 942.7601928710938 727.4612426757812 942.7601928710938 C 729.0165405273438 942.7601928710938 730.4398193359375 943.5350952148438 731.2732543945312 944.8342895507812 L 745.5006713867188 969.8621826171875 L 745.5126342773438 969.8832397460938 L 745.525634765625 969.9037475585938 C 746.4255981445312 971.3220825195312 746.4765625 973.0591430664062 745.661865234375 974.550537109375 C 744.8353271484375 976.063720703125 743.3178100585938 976.9727172851562 741.6025390625 976.9819946289062 L 714.3289184570312 977.2300415039062 L 714.3040161132812 977.2301025390625 Z" stroke="none"/>
        <path d="M 714.3040161132812 976.2301025390625 L 714.3242797851562 976.2300415039062 L 741.5897827148438 975.9820556640625 L 741.5934448242188 975.9820556640625 L 741.5971069335938 975.9820556640625 C 742.9431762695312 975.9747314453125 744.1346435546875 975.2603759765625 744.7843017578125 974.0711059570312 C 745.4219970703125 972.9037475585938 745.3834838867188 971.546142578125 744.6812744140625 970.4395751953125 L 744.6552734375 970.3985595703125 L 744.6312866210938 970.3563842773438 L 730.4177856445312 945.3529663085938 C 729.7586669921875 944.3400268554688 728.68359375 943.7601928710938 727.4612426757812 943.7601928710938 C 726.2224731445312 943.7601928710938 725.1228637695312 944.3487548828125 724.4313354492188 945.3783569335938 L 711.4490356445312 970.5838012695312 L 711.4057006835938 970.6679077148438 L 711.3546142578125 970.74755859375 C 710.6300048828125 971.877685546875 710.5759887695312 973.2448120117188 711.2101440429688 974.40478515625 C 711.8350219726562 975.5477294921875 712.9915771484375 976.2301025390625 714.3040161132812 976.2301025390625 M 714.3040161132812 978.2301025390625 C 709.910400390625 978.2301025390625 707.2841186523438 973.3904418945312 709.6710205078125 969.6680297851562 L 722.7009887695312 944.3699951171875 C 723.8153686523438 942.631591796875 725.6429443359375 941.7601928710938 727.4612426757812 941.7601928710938 C 729.2587890625 941.7601928710938 731.0472412109375 942.611328125 732.1300048828125 944.3179931640625 L 746.3699951171875 969.3679809570312 C 748.7210083007812 973.072998046875 746.02099609375 977.9580078125 741.6079711914062 977.9819946289062 L 714.3380126953125 978.22998046875 C 714.3267211914062 978.2300415039062 714.3153076171875 978.2301025390625 714.3040161132812 978.2301025390625 Z" stroke="none" fill="#ec441c"/>
      </g>
      <line id="선_395" data-name="선 395" y1="20.098" x2="25.75" transform="translate(2.913 13.102)" fill="#fff" stroke="#ec441c" stroke-miterlimit="10" stroke-width="4" opacity="0.2"/>
      <g id="그룹_2371" data-name="그룹 2371" transform="translate(10.112 17.943)">
        <g id="그룹_2368" data-name="그룹 2368" transform="translate(0 0.019)">
          <path id="패스_2116" data-name="패스 2116" d="M721.183,967.065v-5.877l-1.67.958-.632-1.059,2.455-1.365h1.151v7.343Z" transform="translate(-718.881 -959.722)" fill="#1a1818"/>
          <path id="패스_2117" data-name="패스 2117" d="M726.479,967.065v-5.877l-1.67.958-.632-1.059,2.455-1.365h1.151v7.343Z" transform="translate(-718.881 -959.722)" fill="#1a1818"/>
        </g>
        <g id="그룹_2370" data-name="그룹 2370" transform="translate(10.613)">
          <g id="그룹_2369" data-name="그룹 2369">
            <path id="패스_2118" data-name="패스 2118" d="M731.227,960.23l1.062.025-.043,1.9a2.966,2.966,0,0,0,.019.438,1.647,1.647,0,0,0,.086.357,2.031,2.031,0,0,0,.149.326,2.263,2.263,0,0,0,.222.325c.153.2.323.408.509.619s.374.416.567.619l-.718.637c-.366-.393-.671-.739-.92-1.039a3.055,3.055,0,0,1-.428-.6h-.009a1.274,1.274,0,0,1-.163.264c-.085.114-.183.232-.292.353-.059.068-.128.144-.209.23s-.17.177-.265.278-.2.2-.295.3-.2.2-.3.286l-.706-.712c.185-.177.38-.37.583-.581s.386-.415.555-.616a2.475,2.475,0,0,0,.258-.35,2.013,2.013,0,0,0,.165-.337,1.812,1.812,0,0,0,.094-.366,3.869,3.869,0,0,0,.035-.454Zm2.8,2.815-1.061-.024.022-.933,1.06.023.052-2.283,1.018.024-.166,7.348-1.018-.022Zm2.52,4.573-1.018-.022.178-7.893,1.018.024Z" transform="translate(-729.494 -959.703)" fill="#535453"/>
          </g>
        </g>
      </g>
    </g>
    <rect id="사각형_2689" data-name="사각형 2689" width="50" height="50" transform="translate(703.004 934.995)" fill="none"/>
  </g>
</svg>
