<svg xmlns="http://www.w3.org/2000/svg" width="50" height="50" viewBox="0 0 50 50">
  <g id="그룹_2403" data-name="그룹 2403" transform="translate(-1000.525 -934.995)">
    <g id="그룹_2402" data-name="그룹 2402" transform="translate(1006.291 941.76)">
      <g id="패스_2135" data-name="패스 2135" transform="translate(-1006.291 -941.76)" fill="#fff" stroke-miterlimit="10">
        <path d="M 1011.825988769531 977.2301025390625 C 1010.142517089844 977.2301025390625 1008.658020019531 976.3530883789062 1007.854919433594 974.8842163085938 C 1007.042663574219 973.3984375 1007.10986328125 971.6502075195312 1008.034790039062 970.2078247070312 L 1008.060302734375 970.16796875 L 1008.08203125 970.1259155273438 L 1021.08935546875 944.8719482421875 C 1021.955627441406 943.5487060546875 1023.408020019531 942.7601928710938 1024.983764648438 942.7601928710938 C 1026.538818359375 942.7601928710938 1027.962280273438 943.5350952148438 1028.796142578125 944.834228515625 L 1043.022583007812 969.8621215820312 L 1043.03466796875 969.8833618164062 L 1043.047729492188 969.9039306640625 C 1043.947998046875 971.322021484375 1043.999267578125 973.0588989257812 1043.184814453125 974.5501098632812 C 1042.358276367188 976.0635375976562 1040.840454101562 976.9727172851562 1039.12451171875 976.9819946289062 L 1011.850891113281 977.2300415039062 L 1011.825988769531 977.2301025390625 Z" stroke="none"/>
        <path d="M 1011.825988769531 976.2301025390625 L 1011.846252441406 976.2300415039062 L 1039.11181640625 975.9820556640625 L 1039.115478515625 975.9820556640625 L 1039.119140625 975.9820556640625 C 1040.4658203125 975.9747314453125 1041.657592773438 975.26025390625 1042.307250976562 974.07080078125 C 1042.944580078125 972.9036254882812 1042.905883789062 971.5462646484375 1042.203491210938 970.4398803710938 L 1042.177368164062 970.398681640625 L 1042.153198242188 970.3563232421875 L 1027.940795898438 945.3532104492188 C 1027.281372070312 944.3402099609375 1026.2060546875 943.7601928710938 1024.983764648438 943.7601928710938 C 1023.744934082031 943.7601928710938 1022.645202636719 944.3488159179688 1021.953247070312 945.3785400390625 L 1008.971008300781 970.5838012695312 L 1008.927673339844 970.6679077148438 L 1008.876586914062 970.74755859375 C 1008.152099609375 971.87744140625 1008.098205566406 973.2445068359375 1008.732360839844 974.4044799804688 C 1009.357299804688 975.547607421875 1010.513793945312 976.2301025390625 1011.825988769531 976.2301025390625 M 1011.825988769531 978.2301025390625 C 1007.433410644531 978.2301025390625 1004.80615234375 973.3904418945312 1007.192993164062 969.6680297851562 L 1020.223022460938 944.3699951171875 C 1021.337890625 942.631591796875 1023.165466308594 941.7601928710938 1024.983764648438 941.7601928710938 C 1026.78125 941.7601928710938 1028.569702148438 942.611328125 1029.652954101562 944.3179931640625 L 1043.891967773438 969.3679809570312 C 1046.244018554688 973.072998046875 1043.5439453125 977.9580078125 1039.130004882812 977.9819946289062 L 1011.859985351562 978.22998046875 C 1011.848693847656 978.2300415039062 1011.837280273438 978.2301025390625 1011.825988769531 978.2301025390625 Z" stroke="none" fill="#ec441c"/>
      </g>
      <line id="선_400" data-name="선 400" y1="20.098" x2="25.75" transform="translate(2.913 13.102)" fill="#fff" stroke="#ec441c" stroke-miterlimit="10" stroke-width="4" opacity="0.2"/>
      <g id="그룹_2401" data-name="그룹 2401" transform="translate(10.145 17.85)">
        <g id="그룹_2398" data-name="그룹 2398">
          <path id="패스_2136" data-name="패스 2136" d="M1018.8,967.065v-5.877l-1.717.958-.649-1.059,2.523-1.365h1.184v7.343Z" transform="translate(-1016.436 -959.61)" fill="#1a1818"/>
          <path id="패스_2137" data-name="패스 2137" d="M1025.828,961.2a3.016,3.016,0,0,0-.744-.3,3.32,3.32,0,0,0-.858-.1,1.533,1.533,0,0,0-.56.1,1.226,1.226,0,0,0-.482.34,1.988,1.988,0,0,0-.361.632,3.343,3.343,0,0,0-.178.983,1.685,1.685,0,0,1,.738-.479,2.9,2.9,0,0,1,.958-.163,2.759,2.759,0,0,1,.984.168,2.027,2.027,0,0,1,.743.479,2.1,2.1,0,0,1,.466.749,2.747,2.747,0,0,1,.162.967v.2a2.479,2.479,0,0,1-.182.954,2.155,2.155,0,0,1-.53.763,2.467,2.467,0,0,1-.842.5,3.236,3.236,0,0,1-1.125.184,3.158,3.158,0,0,1-1.236-.219,2.1,2.1,0,0,1-.838-.627,2.631,2.631,0,0,1-.476-.982,5.026,5.026,0,0,1-.152-1.279V963.6a7.03,7.03,0,0,1,.236-1.992,3.124,3.124,0,0,1,.643-1.222,2.146,2.146,0,0,1,.953-.611,3.926,3.926,0,0,1,1.163-.168,4.873,4.873,0,0,1,1.046.117,2.949,2.949,0,0,1,.963.392Zm-3.162,3.534a1.249,1.249,0,0,0,.335.932,1.343,1.343,0,0,0,.984.331,1.462,1.462,0,0,0,1.041-.331,1.229,1.229,0,0,0,.352-.942v-.112a1.264,1.264,0,0,0-.325-.953,1.426,1.426,0,0,0-1.016-.31,1.786,1.786,0,0,0-.623.1,1.2,1.2,0,0,0-.424.266,1.035,1.035,0,0,0-.246.392,1.443,1.443,0,0,0-.078.478Z" transform="translate(-1016.436 -959.61)" fill="#1a1818"/>
        </g>
        <g id="그룹_2400" data-name="그룹 2400" transform="translate(10.581 0.093)">
          <g id="그룹_2399" data-name="그룹 2399">
            <path id="패스_2138" data-name="패스 2138" d="M1028.75,960.23l1.062.025-.043,1.9a2.832,2.832,0,0,0,.019.438,1.654,1.654,0,0,0,.086.357,2.114,2.114,0,0,0,.148.326,2.362,2.362,0,0,0,.223.325c.153.2.323.408.509.619s.374.416.567.619l-.718.637c-.366-.393-.671-.739-.92-1.039a3.049,3.049,0,0,1-.428-.6h-.009a1.273,1.273,0,0,1-.163.264c-.085.114-.183.232-.292.353-.059.068-.128.144-.209.23s-.17.177-.265.278-.2.2-.3.3-.2.2-.3.286l-.706-.712c.185-.177.379-.37.583-.581s.386-.415.555-.616a2.464,2.464,0,0,0,.258-.35,2.013,2.013,0,0,0,.165-.337,1.816,1.816,0,0,0,.094-.366,3.869,3.869,0,0,0,.035-.454Zm2.8,2.815-1.061-.024.022-.933,1.06.023.052-2.283,1.018.024-.166,7.348-1.018-.022Zm2.52,4.573-1.018-.022.178-7.893,1.018.024Z" transform="translate(-1027.017 -959.703)" fill="#535453"/>
          </g>
        </g>
      </g>
    </g>
    <rect id="사각형_2694" data-name="사각형 2694" width="50" height="50" transform="translate(1000.526 934.995)" fill="none"/>
  </g>
</svg>
