<svg xmlns="http://www.w3.org/2000/svg" width="50" height="50" viewBox="0 0 50 50">
  <g id="그룹_2319" data-name="그룹 2319" transform="translate(-166.455 -934.995)">
    <g id="그룹_2318" data-name="그룹 2318" transform="translate(172.22 941.76)">
      <g id="패스_2087" data-name="패스 2087" transform="translate(-172.22 -941.76)" fill="#fff" stroke-miterlimit="10">
        <path d="M 177.7550201416016 977.2301025390625 C 176.0712890625 977.2301025390625 174.5866851806641 976.3532104492188 173.7837219238281 974.8844604492188 C 172.9714508056641 973.3987426757812 173.0387725830078 971.6504516601562 173.9638061523438 970.2078247070312 L 173.9893341064453 970.16796875 L 174.0110015869141 970.1259155273438 L 187.0183258056641 944.8718872070312 C 187.8841705322266 943.5487670898438 189.33642578125 942.7601928710938 190.9122467041016 942.7601928710938 C 192.467529296875 942.7601928710938 193.8907775878906 943.5350952148438 194.7242279052734 944.8343505859375 L 208.9516448974609 969.8621826171875 L 208.9636383056641 969.8832397460938 L 208.9766387939453 969.9037475585938 C 209.8766174316406 971.3220825195312 209.9275512695312 973.0592041015625 209.1128845214844 974.550537109375 C 208.2863006591797 976.063720703125 206.768798828125 976.9727172851562 205.0535736083984 976.9819946289062 L 177.7799072265625 977.2300415039062 L 177.7550201416016 977.2301025390625 Z" stroke="none"/>
        <path d="M 177.7550201416016 976.2301025390625 L 177.7752838134766 976.2300415039062 L 205.0408172607422 975.9820556640625 L 205.0444793701172 975.9820556640625 L 205.0481414794922 975.9820556640625 C 206.3942108154297 975.9747314453125 207.5856781005859 975.2603759765625 208.2352752685547 974.0711669921875 C 208.8729858398438 972.9037475585938 208.83447265625 971.546142578125 208.1322937011719 970.4395141601562 L 208.1062774658203 970.3985595703125 L 208.0823059082031 970.3563842773438 L 193.8688201904297 945.35302734375 C 193.2097015380859 944.3401489257812 192.1345825195312 943.7601928710938 190.9122467041016 943.7601928710938 C 189.6734466552734 943.7601928710938 188.5738677978516 944.3487548828125 187.8823394775391 945.3783569335938 L 174.9000091552734 970.5838012695312 L 174.8566741943359 970.6679077148438 L 174.8056030273438 970.74755859375 C 174.0809936523438 971.8776245117188 174.0269927978516 973.2448120117188 174.6611480712891 974.40478515625 C 175.2860107421875 975.5477294921875 176.4425964355469 976.2301025390625 177.7550201416016 976.2301025390625 M 177.7550201416016 978.2301025390625 C 173.3614044189453 978.2301025390625 170.7351379394531 973.3904418945312 173.1219940185547 969.6680297851562 L 186.1519927978516 944.3699951171875 C 187.266357421875 942.631591796875 189.0939483642578 941.7601928710938 190.9122467041016 941.7601928710938 C 192.7097930908203 941.7601928710938 194.4982452392578 942.611328125 195.5809936523438 944.3179931640625 L 209.8209991455078 969.3679809570312 C 212.1719970703125 973.072998046875 209.4720001220703 977.9580078125 205.0590057373047 977.9819946289062 L 177.7890014648438 978.22998046875 C 177.7776794433594 978.2300415039062 177.7663116455078 978.2301025390625 177.7550201416016 978.2301025390625 Z" stroke="none" fill="#ec441c"/>
      </g>
      <line id="선_386" data-name="선 386" y1="20.098" x2="25.75" transform="translate(2.912 13.102)" fill="#fff" stroke="#ec441c" stroke-miterlimit="10" stroke-width="4" opacity="0.2"/>
      <g id="그룹_2317" data-name="그룹 2317" transform="translate(11.491 17.849)">
        <g id="그룹_2314" data-name="그룹 2314">
          <path id="패스_2088" data-name="패스 2088" d="M186.411,963.307a6.187,6.187,0,0,0,.5-.571,2.562,2.562,0,0,0,.274-.437,1.147,1.147,0,0,0,.112-.357,2.456,2.456,0,0,0,.021-.316v-.081a.743.743,0,0,0-.239-.535,1.125,1.125,0,0,0-.81-.239,1.93,1.93,0,0,0-.4.041,1.315,1.315,0,0,0-.393.152,1.706,1.706,0,0,0-.382.316,2.95,2.95,0,0,0-.372.52l-.977-.642a5.664,5.664,0,0,1,.331-.51,2.422,2.422,0,0,1,.5-.5,2.667,2.667,0,0,1,.713-.382,2.769,2.769,0,0,1,.972-.154,3.309,3.309,0,0,1,1.071.154,2.114,2.114,0,0,1,.738.412,1.619,1.619,0,0,1,.428.6,1.918,1.918,0,0,1,.137.718v.1a2.543,2.543,0,0,1-.27,1.145,4.105,4.105,0,0,1-.789,1.065l-2.159,2.179h3.493v1.08h-5.2v-.977Z" transform="translate(-183.711 -959.609)" fill="#1a1818"/>
        </g>
        <g id="그룹_2316" data-name="그룹 2316" transform="translate(6.254 0.043)">
          <g id="그룹_2315" data-name="그룹 2315">
            <path id="패스_2089" data-name="패스 2089" d="M191.6,960.279h1.062v1.9a2.965,2.965,0,0,0,.029.436,1.713,1.713,0,0,0,.094.357,2.167,2.167,0,0,0,.156.322,2.387,2.387,0,0,0,.23.318c.158.2.332.4.522.608s.383.408.581.607l-.7.652q-.561-.576-.942-1.017a3.022,3.022,0,0,1-.442-.6h-.009a1.274,1.274,0,0,1-.157.268q-.123.174-.284.36c-.057.068-.124.147-.2.234l-.259.284q-.141.153-.289.31c-.1.105-.2.2-.293.293l-.722-.7c.182-.181.371-.379.57-.595s.379-.424.543-.627a2.8,2.8,0,0,0,.25-.357,2.021,2.021,0,0,0,.157-.34,1.767,1.767,0,0,0,.085-.369,3.8,3.8,0,0,0,.025-.453Zm2.861,2.75H193.4V962.1h1.061v-2.283h1.018v7.351h-1.018Zm2.623,4.516H196.06v-7.893h1.019Z" transform="translate(-189.965 -959.652)" fill="#535453"/>
          </g>
        </g>
      </g>
    </g>
    <rect id="사각형_2680" data-name="사각형 2680" width="50" height="50" transform="translate(166.455 934.995)" fill="none"/>
  </g>
</svg>
