<svg xmlns="http://www.w3.org/2000/svg" width="50" height="50" viewBox="0 0 50 50">
  <g id="그룹_2355" data-name="그룹 2355" transform="translate(-519.705 -934.995)">
    <g id="그룹_2354" data-name="그룹 2354" transform="translate(525.47 941.76)">
      <g id="패스_2105" data-name="패스 2105" transform="translate(-525.47 -941.76)" fill="#fff" stroke-miterlimit="10">
        <path d="M 531.0050048828125 977.2301025390625 C 529.3212890625 977.2301025390625 527.836669921875 976.3532104492188 527.03369140625 974.8844604492188 C 526.221435546875 973.3987426757812 526.2887573242188 971.6504516601562 527.2138061523438 970.2078247070312 L 527.2393798828125 970.16796875 L 527.2610473632812 970.1259155273438 L 540.268310546875 944.8718872070312 C 541.1341552734375 943.5487060546875 542.58642578125 942.7601928710938 544.1622314453125 942.7601928710938 C 545.717529296875 942.7601928710938 547.1408081054688 943.5350952148438 547.9742431640625 944.8342895507812 L 562.20166015625 969.8621826171875 L 562.213623046875 969.8832397460938 L 562.2266235351562 969.9037475585938 C 563.1265869140625 971.3220825195312 563.1775512695312 973.0591430664062 562.3628540039062 974.550537109375 C 561.5363159179688 976.063720703125 560.018798828125 976.9727172851562 558.3035888671875 976.9819946289062 L 531.0299072265625 977.2300415039062 L 531.0050048828125 977.2301025390625 Z" stroke="none"/>
        <path d="M 531.0050048828125 976.2301025390625 L 531.0252685546875 976.2300415039062 L 558.2908325195312 975.9820556640625 L 558.2944946289062 975.9820556640625 L 558.2981567382812 975.9820556640625 C 559.6442260742188 975.9747314453125 560.8356323242188 975.2603759765625 561.4852905273438 974.0711669921875 C 562.1229858398438 972.9037475585938 562.08447265625 971.546142578125 561.3822631835938 970.4395751953125 L 561.3562622070312 970.3985595703125 L 561.332275390625 970.3563842773438 L 547.1187744140625 945.3529663085938 C 546.4596557617188 944.3400268554688 545.3845825195312 943.7601928710938 544.1622314453125 943.7601928710938 C 542.9234619140625 943.7601928710938 541.8238525390625 944.3487548828125 541.13232421875 945.3783569335938 L 528.1500244140625 970.5838012695312 L 528.106689453125 970.6679077148438 L 528.0556030273438 970.74755859375 C 527.3309936523438 971.877685546875 527.2769775390625 973.2448120117188 527.9111328125 974.40478515625 C 528.5360107421875 975.5477294921875 529.6925659179688 976.2301025390625 531.0050048828125 976.2301025390625 M 531.0050048828125 978.2301025390625 C 526.6113891601562 978.2301025390625 523.985107421875 973.3904418945312 526.3720092773438 969.6680297851562 L 539.4019775390625 944.3699951171875 C 540.516357421875 942.631591796875 542.3439331054688 941.7601928710938 544.1622314453125 941.7601928710938 C 545.9597778320312 941.7601928710938 547.7482299804688 942.611328125 548.8309936523438 944.3179931640625 L 563.0709838867188 969.3679809570312 C 565.4219970703125 973.072998046875 562.7219848632812 977.9580078125 558.3090209960938 977.9819946289062 L 531.0390014648438 978.22998046875 C 531.0277099609375 978.2300415039062 531.0162963867188 978.2301025390625 531.0050048828125 978.2301025390625 Z" stroke="none" fill="#ec441c"/>
      </g>
      <line id="선_392" data-name="선 392" y1="20.098" x2="25.75" transform="translate(2.913 13.102)" fill="#fff" stroke="#ec441c" stroke-miterlimit="10" stroke-width="4" opacity="0.2"/>
      <g id="그룹_2353" data-name="그룹 2353" transform="translate(11.583 17.849)">
        <g id="그룹_2350" data-name="그룹 2350">
          <path id="패스_2106" data-name="패스 2106" d="M537.053,964.947a1.619,1.619,0,0,1,.1-.576,1.906,1.906,0,0,1,.269-.488,1.8,1.8,0,0,1,.383-.372,1.546,1.546,0,0,1,.448-.225,1.728,1.728,0,0,1-.454-.32,2,2,0,0,1-.31-.4,1.8,1.8,0,0,1-.183-.422,1.446,1.446,0,0,1-.061-.4v-.123a2.11,2.11,0,0,1,.137-.759,1.768,1.768,0,0,1,.428-.641,2.135,2.135,0,0,1,.733-.449,2.962,2.962,0,0,1,1.044-.168,2.931,2.931,0,0,1,1.034.168,2.2,2.2,0,0,1,.739.449,1.846,1.846,0,0,1,.442.641,1.979,1.979,0,0,1,.149.759v.123a1.481,1.481,0,0,1-.057.387,1.654,1.654,0,0,1-.178.407,2.185,2.185,0,0,1-.31.4,2.076,2.076,0,0,1-.454.346,1.556,1.556,0,0,1,.454.23,1.845,1.845,0,0,1,.382.372,1.8,1.8,0,0,1,.259.483,1.687,1.687,0,0,1,.1.576v.173a2.041,2.041,0,0,1-.163.815,1.783,1.783,0,0,1-.484.652,2.368,2.368,0,0,1-.79.433,3.378,3.378,0,0,1-1.079.158,3.606,3.606,0,0,1-1.116-.158,2.407,2.407,0,0,1-.809-.433,1.764,1.764,0,0,1-.489-.652,2.024,2.024,0,0,1-.163-.815Zm1.345.091a.877.877,0,0,0,.336.739,1.41,1.41,0,0,0,.886.26,1.325,1.325,0,0,0,.866-.26.9.9,0,0,0,.315-.739v-.1a1.046,1.046,0,0,0-.1-.469.993.993,0,0,0-.627-.52,1.691,1.691,0,0,0-.458-.06,1.739,1.739,0,0,0-.463.06,1.141,1.141,0,0,0-.388.189.933.933,0,0,0-.269.326,1.014,1.014,0,0,0-.1.474Zm.183-3.238a.929.929,0,0,0,.091.423.914.914,0,0,0,.24.295.986.986,0,0,0,.331.172,1.2,1.2,0,0,0,.367.057,1.175,1.175,0,0,0,.371-.057.94.94,0,0,0,.321-.172.9.9,0,0,0,.23-.295.97.97,0,0,0,.086-.423v-.1a.892.892,0,0,0-.281-.718,1.1,1.1,0,0,0-.738-.239,1.115,1.115,0,0,0-.723.239.872.872,0,0,0-.295.718Z" transform="translate(-537.053 -959.609)" fill="#1a1818"/>
        </g>
        <g id="그룹_2352" data-name="그룹 2352" transform="translate(6.162 0.043)">
          <g id="그룹_2351" data-name="그룹 2351">
            <path id="패스_2107" data-name="패스 2107" d="M544.845,960.279h1.062v1.9a2.967,2.967,0,0,0,.029.436,1.713,1.713,0,0,0,.094.357,2.168,2.168,0,0,0,.156.322,2.393,2.393,0,0,0,.23.318c.158.2.332.4.522.608s.383.408.581.607l-.7.652q-.561-.576-.942-1.017a3.022,3.022,0,0,1-.442-.6h-.009a1.274,1.274,0,0,1-.157.268q-.123.174-.284.36c-.057.068-.124.147-.2.234l-.259.284q-.141.153-.289.31c-.1.105-.2.2-.293.293l-.722-.7c.182-.181.371-.379.57-.595s.379-.424.543-.627a2.8,2.8,0,0,0,.25-.357,2.02,2.02,0,0,0,.157-.34,1.765,1.765,0,0,0,.085-.369,3.8,3.8,0,0,0,.025-.453Zm2.861,2.75h-1.061V962.1h1.061v-2.283h1.018v7.351h-1.018Zm2.623,4.516H549.31v-7.893h1.019Z" transform="translate(-543.215 -959.652)" fill="#535453"/>
          </g>
        </g>
      </g>
    </g>
    <rect id="사각형_2686" data-name="사각형 2686" width="50" height="50" transform="translate(519.705 934.995)" fill="none"/>
  </g>
</svg>
