<svg xmlns="http://www.w3.org/2000/svg" width="50" height="50" viewBox="0 0 50 50">
  <g id="그룹_2397" data-name="그룹 2397" transform="translate(-941.021 -934.995)">
    <g id="그룹_2396" data-name="그룹 2396" transform="translate(946.787 941.76)">
      <g id="패스_2131" data-name="패스 2131" transform="translate(-946.787 -941.76)" fill="#fff" stroke-miterlimit="10">
        <path d="M 952.322021484375 977.2301025390625 C 950.6383056640625 977.2301025390625 949.1536865234375 976.3532104492188 948.3507080078125 974.8844604492188 C 947.5384521484375 973.3987426757812 947.6057739257812 971.6504516601562 948.5308227539062 970.2078247070312 L 948.556396484375 970.16796875 L 948.5780639648438 970.1259155273438 L 961.5853271484375 944.8719482421875 C 962.4515991210938 943.5487060546875 963.9039306640625 942.7601928710938 965.4796142578125 942.7601928710938 C 967.03466796875 942.7601928710938 968.457763671875 943.5350341796875 969.2911987304688 944.8342895507812 L 983.5186767578125 969.8621826171875 L 983.5306396484375 969.8832397460938 L 983.5436401367188 969.9037475585938 C 984.443603515625 971.3220825195312 984.4945678710938 973.0591430664062 983.6798706054688 974.550537109375 C 982.8533325195312 976.063720703125 981.3358154296875 976.9727172851562 979.6205444335938 976.9819946289062 L 952.346923828125 977.2300415039062 L 952.322021484375 977.2301025390625 Z" stroke="none"/>
        <path d="M 952.322021484375 976.2301025390625 L 952.34228515625 976.2300415039062 L 979.6077880859375 975.9820556640625 L 979.6114501953125 975.9820556640625 L 979.6151123046875 975.9820556640625 C 980.961181640625 975.9747314453125 982.1526489257812 975.2603759765625 982.8023071289062 974.0711059570312 C 983.4400024414062 972.9037475585938 983.4014892578125 971.546142578125 982.6992797851562 970.4395751953125 L 982.6732788085938 970.3985595703125 L 982.6492919921875 970.3563842773438 L 968.435791015625 945.35302734375 C 967.7766723632812 944.340087890625 966.7017211914062 943.7601928710938 965.4796142578125 943.7601928710938 C 964.2409057617188 943.7601928710938 963.1412353515625 944.3487548828125 962.4492797851562 945.3784790039062 L 949.467041015625 970.5838012695312 L 949.4237060546875 970.6679077148438 L 949.3726196289062 970.74755859375 C 948.6480102539062 971.877685546875 948.593994140625 973.2448120117188 949.2281494140625 974.40478515625 C 949.85302734375 975.5477294921875 951.0095825195312 976.2301025390625 952.322021484375 976.2301025390625 M 952.322021484375 978.2301025390625 C 947.9284057617188 978.2301025390625 945.3021240234375 973.3904418945312 947.6890258789062 969.6680297851562 L 960.718994140625 944.3699951171875 C 961.8338623046875 942.631591796875 963.6614379882812 941.7601928710938 965.4796142578125 941.7601928710938 C 967.2770385742188 941.7601928710938 969.0652465820312 942.611328125 970.1480102539062 944.3179931640625 L 984.3880004882812 969.3679809570312 C 986.739013671875 973.072998046875 984.0390014648438 977.9580078125 979.6259765625 977.9819946289062 L 952.3560180664062 978.22998046875 C 952.3447265625 978.2300415039062 952.3333129882812 978.2301025390625 952.322021484375 978.2301025390625 Z" stroke="none" fill="#ec441c"/>
      </g>
      <line id="선_399" data-name="선 399" y1="20.098" x2="25.75" transform="translate(2.913 13.102)" fill="#fff" stroke="#ec441c" stroke-miterlimit="10" stroke-width="4" opacity="0.2"/>
      <g id="그룹_2395" data-name="그룹 2395" transform="translate(10.144 17.943)">
        <g id="그룹_2392" data-name="그룹 2392" transform="translate(0 0.019)">
          <path id="패스_2132" data-name="패스 2132" d="M959.3,967.065v-5.877l-1.716.958-.65-1.059,2.524-1.365h1.183v7.343Z" transform="translate(-956.931 -959.722)" fill="#1a1818"/>
          <path id="패스_2133" data-name="패스 2133" d="M965.841,964.611a1.155,1.155,0,0,0-.351-.907,1.409,1.409,0,0,0-.978-.315,1.854,1.854,0,0,0-.833.173,2.493,2.493,0,0,0-.6.408h-.9l.241-4.248H966.7v1.08h-3.077l-.084,1.915a3.106,3.106,0,0,1,.6-.266,2.575,2.575,0,0,1,.8-.111,2.386,2.386,0,0,1,.964.182,2.113,2.113,0,0,1,.706.5,2.083,2.083,0,0,1,.435.718,2.47,2.47,0,0,1,.146.845v.153a2.664,2.664,0,0,1-.151.876,2.17,2.17,0,0,1-.481.785,2.522,2.522,0,0,1-.838.565,3.089,3.089,0,0,1-1.22.219,5.54,5.54,0,0,1-1.466-.179,3.3,3.3,0,0,1-1.214-.636l.649-1.029a3.459,3.459,0,0,0,.513.336,2.625,2.625,0,0,0,.5.2,2.8,2.8,0,0,0,.5.1c.168.016.338.025.512.025a1.319,1.319,0,0,0,1.022-.361,1.3,1.3,0,0,0,.329-.912Z" transform="translate(-956.931 -959.722)" fill="#1a1818"/>
        </g>
        <g id="그룹_2394" data-name="그룹 2394" transform="translate(10.581)">
          <g id="그룹_2393" data-name="그룹 2393">
            <path id="패스_2134" data-name="패스 2134" d="M969.245,960.23l1.062.025-.043,1.9a2.966,2.966,0,0,0,.019.438,1.647,1.647,0,0,0,.086.357,2.031,2.031,0,0,0,.149.326,2.263,2.263,0,0,0,.222.325c.154.2.323.408.509.619s.374.416.567.619l-.718.637c-.366-.393-.671-.739-.92-1.039a3.1,3.1,0,0,1-.428-.6h-.009a1.274,1.274,0,0,1-.163.264c-.085.114-.182.232-.292.353-.058.068-.128.144-.209.23s-.17.177-.265.278-.2.2-.295.3-.2.2-.3.286l-.706-.712c.185-.177.38-.37.583-.581s.386-.415.555-.616a2.475,2.475,0,0,0,.258-.35,1.94,1.94,0,0,0,.165-.337,1.812,1.812,0,0,0,.094-.366,3.669,3.669,0,0,0,.035-.454Zm2.8,2.815-1.061-.024.022-.933,1.06.023.052-2.283,1.018.024-.166,7.348-1.018-.022Zm2.52,4.573-1.018-.022.178-7.893,1.018.024Z" transform="translate(-967.512 -959.703)" fill="#535453"/>
          </g>
        </g>
      </g>
    </g>
    <rect id="사각형_2693" data-name="사각형 2693" width="50" height="50" transform="translate(941.022 934.995)" fill="none"/>
  </g>
</svg>
