<svg xmlns="http://www.w3.org/2000/svg" width="50" height="50" viewBox="0 0 50 50">
  <g id="그룹_2343" data-name="그룹 2343" transform="translate(-400.08 -934.995)">
    <g id="그룹_2342" data-name="그룹 2342" transform="translate(405.846 941.76)">
      <g id="패스_2099" data-name="패스 2099" transform="translate(-405.846 -941.76)" fill="#fff" stroke-miterlimit="10">
        <path d="M 411.3810119628906 977.2301025390625 C 409.6972961425781 977.2301025390625 408.2127075195312 976.3532104492188 407.4097290039062 974.884521484375 C 406.5974426269531 973.3987426757812 406.6647644042969 971.6504516601562 407.5897827148438 970.2078247070312 L 407.6153259277344 970.16796875 L 407.6369934082031 970.1259155273438 L 420.6443481445312 944.8719482421875 C 421.5106201171875 943.5487060546875 422.9629516601562 942.7601928710938 424.5386047363281 942.7601928710938 C 426.0936584472656 942.7601928710938 427.5167846679688 943.5350952148438 428.3502197265625 944.8343505859375 L 442.57763671875 969.8621826171875 L 442.5896911621094 969.8833618164062 L 442.6027526855469 969.9039306640625 C 443.5028686523438 971.3218383789062 443.5540466308594 973.05859375 442.7396545410156 974.5498657226562 C 441.9130249023438 976.0634765625 440.3952331542969 976.9727172851562 438.6795654296875 976.9819946289062 L 411.4059143066406 977.2300415039062 L 411.3810119628906 977.2301025390625 Z" stroke="none"/>
        <path d="M 411.3810119628906 976.2301025390625 L 411.4012756347656 976.2300415039062 L 438.6668090820312 975.9820556640625 L 438.6704711914062 975.9820556640625 L 438.6741333007812 975.9820556640625 C 440.0205993652344 975.9747314453125 441.2123413085938 975.2601318359375 441.8619995117188 974.070556640625 C 442.4994506835938 972.9033203125 442.4607238769531 971.5460815429688 441.7584838867188 970.4398803710938 L 441.7323913574219 970.3987426757812 L 441.7082824707031 970.3563842773438 L 427.4948120117188 945.35302734375 C 426.8357238769531 944.3401489257812 425.7607116699219 943.7601928710938 424.5386047363281 943.7601928710938 C 423.2998962402344 943.7601928710938 422.2001953125 944.3488159179688 421.5082397460938 945.3785400390625 L 408.5260009765625 970.5838012695312 L 408.482666015625 970.6679077148438 L 408.4316101074219 970.74755859375 C 407.7070007324219 971.8776245117188 407.6529846191406 973.2448120117188 408.2871704101562 974.40478515625 C 408.9120178222656 975.5477294921875 410.068603515625 976.2301025390625 411.3810119628906 976.2301025390625 M 411.3810424804688 978.2301025390625 C 406.9873962402344 978.2301025390625 404.3611450195312 973.3904418945312 406.7479858398438 969.6680297851562 L 419.7780151367188 944.3699951171875 C 420.8928527832031 942.631591796875 422.720458984375 941.7601928710938 424.5386047363281 941.7601928710938 C 426.3360290527344 941.7601928710938 428.1242370605469 942.611328125 429.2070007324219 944.3179931640625 L 443.4469909667969 969.3679809570312 C 445.7990112304688 973.072998046875 443.0979919433594 977.9580078125 438.6849975585938 977.9819946289062 L 411.4150085449219 978.22998046875 C 411.4036865234375 978.2300415039062 411.392333984375 978.2301025390625 411.3810424804688 978.2301025390625 Z" stroke="none" fill="#ec441c"/>
      </g>
      <line id="선_390" data-name="선 390" y1="20.098" x2="25.75" transform="translate(2.913 13.102)" fill="#fff" stroke="#ec441c" stroke-miterlimit="10" stroke-width="4" opacity="0.2"/>
      <g id="그룹_2341" data-name="그룹 2341" transform="translate(11.563 17.849)">
        <g id="그룹_2338" data-name="그룹 2338">
          <path id="패스_2100" data-name="패스 2100" d="M421.8,961.2a2.942,2.942,0,0,0-.722-.3,3.208,3.208,0,0,0-.836-.1,1.482,1.482,0,0,0-.545.1,1.211,1.211,0,0,0-.468.341,1.968,1.968,0,0,0-.352.632,3.386,3.386,0,0,0-.172.983,1.63,1.63,0,0,1,.717-.479,2.751,2.751,0,0,1,.932-.163,2.6,2.6,0,0,1,.958.168,1.981,1.981,0,0,1,.723.479,2.117,2.117,0,0,1,.453.749,2.838,2.838,0,0,1,.158.967v.2a2.525,2.525,0,0,1-.179.953,2.158,2.158,0,0,1-.513.764,2.408,2.408,0,0,1-.821.5,3.072,3.072,0,0,1-1.094.184,2.985,2.985,0,0,1-1.2-.22,2.034,2.034,0,0,1-.814-.626,2.669,2.669,0,0,1-.464-.982,5.177,5.177,0,0,1-.147-1.279V963.6a7.2,7.2,0,0,1,.229-1.992,3.152,3.152,0,0,1,.626-1.222,2.09,2.09,0,0,1,.927-.612,3.751,3.751,0,0,1,1.131-.168,4.569,4.569,0,0,1,1.018.118,2.815,2.815,0,0,1,.937.392Zm-3.076,3.534A1.148,1.148,0,0,0,420.006,966a1.4,1.4,0,0,0,1.013-.331,1.251,1.251,0,0,0,.342-.942v-.113a1.282,1.282,0,0,0-.317-.952,1.36,1.36,0,0,0-.987-.31,1.691,1.691,0,0,0-.606.1,1.154,1.154,0,0,0-.412.265,1.021,1.021,0,0,0-.24.393,1.464,1.464,0,0,0-.077.478Z" transform="translate(-417.409 -959.609)" fill="#1a1818"/>
        </g>
        <g id="그룹_2340" data-name="그룹 2340" transform="translate(6.183 0.043)">
          <g id="그룹_2339" data-name="그룹 2339">
            <path id="패스_2101" data-name="패스 2101" d="M425.222,960.279h1.061v1.9a2.825,2.825,0,0,0,.03.436,1.654,1.654,0,0,0,.093.357,2.079,2.079,0,0,0,.157.322,2.292,2.292,0,0,0,.229.318c.158.2.332.4.522.608s.383.408.582.607l-.7.652q-.561-.576-.942-1.017a3,3,0,0,1-.441-.6H425.8a1.321,1.321,0,0,1-.157.268,4.542,4.542,0,0,1-.285.36c-.056.068-.124.147-.2.234s-.166.182-.258.284-.191.205-.29.31-.2.2-.293.293l-.721-.7q.271-.271.569-.595c.2-.215.379-.424.543-.627a2.61,2.61,0,0,0,.25-.357,1.946,1.946,0,0,0,.157-.34,1.706,1.706,0,0,0,.085-.369,3.586,3.586,0,0,0,.026-.453Zm2.86,2.75h-1.061V962.1h1.061v-2.283H429.1v7.351h-1.019Zm2.623,4.516h-1.018v-7.893H430.7Z" transform="translate(-423.592 -959.652)" fill="#535453"/>
          </g>
        </g>
      </g>
    </g>
    <rect id="사각형_2684" data-name="사각형 2684" width="50" height="50" transform="translate(400.081 934.995)" fill="none"/>
  </g>
</svg>
