<svg xmlns="http://www.w3.org/2000/svg" width="50" height="50" viewBox="0 0 50 50">
  <g id="그룹_2331" data-name="그룹 2331" transform="translate(-285.586 -934.995)">
    <g id="그룹_2330" data-name="그룹 2330" transform="translate(291.35 941.76)">
      <g id="패스_2093" data-name="패스 2093" transform="translate(-291.35 -941.76)" fill="#fff" stroke-miterlimit="10">
        <path d="M 296.8850402832031 977.2301025390625 C 295.2019348144531 977.2301025390625 293.7176818847656 976.3533325195312 292.9146728515625 974.8848876953125 C 292.1021423339844 973.39892578125 292.1691589355469 971.6504516601562 293.0939331054688 970.2076416015625 L 293.119384765625 970.1679077148438 L 293.1409912109375 970.1259765625 L 306.1492919921875 944.8719482421875 C 307.01513671875 943.5487670898438 308.46728515625 942.7601928710938 310.0428466796875 942.7601928710938 C 311.5979919433594 942.7601928710938 313.0214233398438 943.53515625 313.8553161621094 944.83447265625 L 328.0826416015625 969.8621826171875 L 328.0946350097656 969.8832397460938 L 328.1076354980469 969.9037475585938 C 329.007568359375 971.3219604492188 329.0585327148438 973.0590209960938 328.2439270019531 974.5502319335938 C 327.417236328125 976.0635986328125 325.8993530273438 976.9727172851562 324.1835632324219 976.9819946289062 L 296.909912109375 977.2300415039062 L 296.8850402832031 977.2301025390625 Z" stroke="none"/>
        <path d="M 296.8850402832031 976.2301025390625 L 296.9053039550781 976.2300415039062 L 324.1708068847656 975.9820556640625 L 324.1744689941406 975.9820556640625 L 324.1781311035156 975.9820556640625 C 325.5247497558594 975.9747314453125 326.7166137695312 975.26025390625 327.3663330078125 974.0708618164062 C 328.0039367675781 972.903564453125 327.9654235839844 971.5460815429688 327.2632751464844 970.4395751953125 L 327.2372741699219 970.3985595703125 L 327.2132873535156 970.3563842773438 L 312.9999389648438 945.353271484375 C 312.3403930664062 944.3401489257812 311.26513671875 943.7601928710938 310.0428466796875 943.7601928710938 C 308.8042907714844 943.7601928710938 307.7048645019531 944.3488159179688 307.0133361816406 945.3783569335938 L 294.0299987792969 970.5838623046875 L 293.9867858886719 970.6677856445312 L 293.9358215332031 970.7472534179688 C 293.2113952636719 971.8775024414062 293.1576538085938 973.2449340820312 293.7920532226562 974.4050903320312 C 294.4169616699219 975.5478515625 295.5732116699219 976.2301025390625 296.8850402832031 976.2301025390625 M 296.8850402832031 978.2301025390625 C 292.4924011230469 978.2301025390625 289.8661193847656 973.3904418945312 292.2520141601562 969.6680297851562 L 305.2829895019531 944.3699951171875 C 306.3973388671875 942.631591796875 308.2247009277344 941.7601928710938 310.0428771972656 941.7601928710938 C 311.8403015136719 941.7601928710938 313.6287536621094 942.611328125 314.7120056152344 944.3179931640625 L 328.9519958496094 969.3679809570312 C 331.3030090332031 973.072998046875 328.6029968261719 977.9580078125 324.1889953613281 977.9819946289062 L 296.9190063476562 978.22998046875 C 296.9076843261719 978.2300415039062 296.8963317871094 978.2301025390625 296.8850402832031 978.2301025390625 Z" stroke="none" fill="#ec441c"/>
      </g>
      <line id="선_388" data-name="선 388" y1="20.098" x2="25.75" transform="translate(2.913 13.102)" fill="#fff" stroke="#ec441c" stroke-miterlimit="10" stroke-width="4" opacity="0.2"/>
      <g id="그룹_2329" data-name="그룹 2329" transform="translate(11.125 17.892)">
        <g id="그룹_2326" data-name="그룹 2326" transform="translate(0 0.07)">
          <path id="패스_2094" data-name="패스 2094" d="M307.416,962.288v2.2h1v1.049h-1v1.528h-1.284v-1.528h-3.657v-.845l3.341-4.97h1.406l-3.209,4.766h2.119v-2.2Z" transform="translate(-302.475 -959.722)" fill="#1a1818"/>
        </g>
        <g id="그룹_2328" data-name="그룹 2328" transform="translate(6.621)">
          <g id="그룹_2327" data-name="그룹 2327">
            <path id="패스_2095" data-name="패스 2095" d="M310.726,960.279h1.062v1.9a2.834,2.834,0,0,0,.029.436,1.654,1.654,0,0,0,.094.357,2.073,2.073,0,0,0,.156.322,2.379,2.379,0,0,0,.229.318c.159.2.332.4.523.608s.383.408.581.607l-.7.652q-.561-.576-.943-1.017a3,3,0,0,1-.441-.6H311.3a1.274,1.274,0,0,1-.157.268q-.123.174-.284.36c-.057.068-.124.147-.2.234l-.259.284c-.094.1-.191.205-.289.31s-.2.2-.293.293l-.722-.7c.182-.181.371-.379.57-.595s.378-.424.542-.627a2.61,2.61,0,0,0,.25-.357,1.953,1.953,0,0,0,.158-.34,1.765,1.765,0,0,0,.085-.369,3.794,3.794,0,0,0,.025-.453Zm2.86,2.75h-1.06V962.1h1.06v-2.283h1.019v7.351h-1.019Zm2.623,4.516h-1.018v-7.893h1.018Z" transform="translate(-309.096 -959.652)" fill="#535453"/>
          </g>
        </g>
      </g>
    </g>
    <rect id="사각형_2682" data-name="사각형 2682" width="50" height="50" transform="translate(285.585 934.995)" fill="none"/>
  </g>
</svg>
