<svg xmlns="http://www.w3.org/2000/svg" width="50" height="50" viewBox="0 0 50 50">
  <g id="그룹_2409" data-name="그룹 2409" transform="translate(-1060.031 -934.995)">
    <g id="그룹_2408" data-name="그룹 2408" transform="translate(1065.796 941.76)">
      <g id="패스_2139" data-name="패스 2139" transform="translate(-1065.796 -941.76)" fill="#fff" stroke-miterlimit="10">
        <path d="M 1071.3310546875 977.2301025390625 C 1069.647338867188 977.2301025390625 1068.162719726562 976.3532104492188 1067.359741210938 974.884521484375 C 1066.547485351562 973.3987426757812 1066.61474609375 971.6504516601562 1067.539794921875 970.2078247070312 L 1067.565307617188 970.16796875 L 1067.587036132812 970.1259155273438 L 1080.594360351562 944.8719482421875 C 1081.460571289062 943.5487060546875 1082.912963867188 942.7601928710938 1084.488647460938 942.7601928710938 C 1086.043701171875 942.7601928710938 1087.466796875 943.5350952148438 1088.300170898438 944.8342895507812 L 1102.527587890625 969.8621826171875 L 1102.539672851562 969.88330078125 L 1102.552612304688 969.9037475585938 C 1103.45263671875 971.322021484375 1103.503540039062 973.0591430664062 1102.68896484375 974.5504760742188 C 1101.8623046875 976.063720703125 1100.344848632812 976.9727172851562 1098.629516601562 976.9819946289062 L 1071.35595703125 977.2300415039062 L 1071.3310546875 977.2301025390625 Z" stroke="none"/>
        <path d="M 1071.3310546875 976.2301025390625 L 1071.351318359375 976.2300415039062 L 1098.616821289062 975.9820556640625 L 1098.620483398438 975.9820556640625 L 1098.624145507812 975.9820556640625 C 1099.97021484375 975.9747314453125 1101.161743164062 975.2603759765625 1101.811279296875 974.0711059570312 C 1102.448974609375 972.9037475585938 1102.410522460938 971.546142578125 1101.708251953125 970.4395751953125 L 1101.682250976562 970.3985595703125 L 1101.658325195312 970.3563842773438 L 1087.444702148438 945.3529663085938 C 1086.78564453125 944.3400268554688 1085.710693359375 943.7601928710938 1084.488647460938 943.7601928710938 C 1083.249877929688 943.7601928710938 1082.150146484375 944.3488159179688 1081.458251953125 945.3786010742188 L 1068.475952148438 970.5838012695312 L 1068.432739257812 970.6679077148438 L 1068.381591796875 970.74755859375 C 1067.656982421875 971.8776245117188 1067.60302734375 973.2448120117188 1068.237182617188 974.40478515625 C 1068.862060546875 975.5477294921875 1070.018676757812 976.2301025390625 1071.3310546875 976.2301025390625 M 1071.3310546875 978.2301025390625 C 1066.9375 978.2301025390625 1064.311157226562 973.3904418945312 1066.697998046875 969.6680297851562 L 1079.72802734375 944.3699951171875 C 1080.842895507812 942.631591796875 1082.67041015625 941.7601928710938 1084.488647460938 941.7601928710938 C 1086.286010742188 941.7601928710938 1088.07421875 942.611328125 1089.156982421875 944.3179931640625 L 1103.39697265625 969.3679809570312 C 1105.748046875 973.072998046875 1103.047973632812 977.9580078125 1098.635009765625 977.9819946289062 L 1071.364990234375 978.22998046875 C 1071.353637695312 978.2300415039062 1071.34228515625 978.2301025390625 1071.3310546875 978.2301025390625 Z" stroke="none" fill="#ec441c"/>
      </g>
      <line id="선_401" data-name="선 401" y1="20.098" x2="25.75" transform="translate(2.913 13.102)" fill="#fff" stroke="#ec441c" stroke-miterlimit="10" stroke-width="4" opacity="0.2"/>
      <g id="그룹_2407" data-name="그룹 2407" transform="translate(10.144 17.943)">
        <g id="그룹_2404" data-name="그룹 2404" transform="translate(0 0.019)">
          <path id="패스_2140" data-name="패스 2140" d="M1078.307,967.065v-5.877l-1.717.958-.65-1.059,2.524-1.365h1.182v7.343Z" transform="translate(-1075.94 -959.722)" fill="#1a1818"/>
          <path id="패스_2141" data-name="패스 2141" d="M1083.259,967.065h-1.414l2.9-6.243h-3.989v-1.1h5.392v1Z" transform="translate(-1075.94 -959.722)" fill="#1a1818"/>
        </g>
        <g id="그룹_2406" data-name="그룹 2406" transform="translate(10.581)">
          <g id="그룹_2405" data-name="그룹 2405">
            <path id="패스_2142" data-name="패스 2142" d="M1088.254,960.23l1.061.025-.043,1.9a2.964,2.964,0,0,0,.02.438,1.647,1.647,0,0,0,.086.357,2.114,2.114,0,0,0,.148.326,2.362,2.362,0,0,0,.223.325c.153.2.323.408.509.619s.374.416.567.619l-.719.637c-.365-.393-.67-.739-.919-1.039a3.049,3.049,0,0,1-.428-.6h-.009a1.273,1.273,0,0,1-.163.264c-.085.114-.183.232-.292.353-.059.068-.128.144-.209.23s-.17.177-.265.278-.2.2-.3.3-.2.2-.3.286l-.706-.712c.185-.177.379-.37.583-.581s.386-.415.555-.616a2.474,2.474,0,0,0,.258-.35,2.013,2.013,0,0,0,.165-.337,1.816,1.816,0,0,0,.094-.366,3.9,3.9,0,0,0,.035-.454Zm2.8,2.815-1.061-.024.022-.933,1.06.023.052-2.283,1.018.024-.166,7.348-1.018-.022Zm2.52,4.573-1.018-.022.177-7.893,1.019.024Z" transform="translate(-1086.521 -959.703)" fill="#535453"/>
          </g>
        </g>
      </g>
    </g>
    <rect id="사각형_2695" data-name="사각형 2695" width="50" height="50" transform="translate(1060.031 934.995)" fill="none"/>
  </g>
</svg>
