<svg xmlns="http://www.w3.org/2000/svg" width="50" height="50" viewBox="0 0 50 50">
  <g id="그룹_2313" data-name="그룹 2313" transform="translate(-106.082 -934.995)">
    <g id="그룹_2312" data-name="그룹 2312" transform="translate(111.847 941.76)">
      <g id="패스_2084" data-name="패스 2084" transform="translate(-111.847 -941.76)" fill="#fff" stroke-miterlimit="10">
        <path d="M 117.3820266723633 977.2301025390625 C 115.6982955932617 977.2301025390625 114.2136917114258 976.3532104492188 113.4107208251953 974.8844604492188 C 112.5984497070312 973.3987426757812 112.665771484375 971.6504516601562 113.5908126831055 970.2078247070312 L 113.616340637207 970.16796875 L 113.6380157470703 970.1259155273438 L 126.6452941894531 944.8720092773438 C 127.511589050293 943.5487060546875 128.9639587402344 942.7601928710938 130.5396270751953 942.7601928710938 C 132.0946655273438 942.7601928710938 133.5177917480469 943.5350952148438 134.3512268066406 944.8343505859375 L 148.5786590576172 969.8621826171875 L 148.5906982421875 969.8833618164062 L 148.603759765625 969.9039306640625 C 149.5038604736328 971.3218383789062 149.5550384521484 973.0586547851562 148.7406463623047 974.5498657226562 C 147.9140014648438 976.0634765625 146.3962249755859 976.9727172851562 144.6805572509766 976.9819946289062 L 117.4069137573242 977.2300415039062 L 117.3820266723633 977.2301025390625 Z" stroke="none"/>
        <path d="M 117.3820266723633 976.2301025390625 L 117.4022827148438 976.2300415039062 L 144.6678161621094 975.9820556640625 L 144.6714782714844 975.9820556640625 L 144.6751403808594 975.9820556640625 C 146.0215911865234 975.9747314453125 147.2133178710938 975.2601318359375 147.8629913330078 974.070556640625 C 148.5004272460938 972.9033203125 148.4617462158203 971.5460815429688 147.7594909667969 970.4398803710938 L 147.7333831787109 970.3987426757812 L 147.7093048095703 970.3563842773438 L 133.4958190917969 945.35302734375 C 132.8367156982422 944.3401489257812 131.76171875 943.7601928710938 130.5396270751953 943.7601928710938 C 129.3009033203125 943.7601928710938 128.2012023925781 944.3488159179688 127.5092391967773 945.3785400390625 L 114.5270233154297 970.5838012695312 L 114.4836959838867 970.6679077148438 L 114.4326248168945 970.74755859375 C 113.7080001831055 971.8776245117188 113.6539993286133 973.2448120117188 114.2881546020508 974.40478515625 C 114.9130020141602 975.5477294921875 116.0695953369141 976.2301025390625 117.3820266723633 976.2301025390625 M 117.3820266723633 978.2301025390625 C 112.9884033203125 978.2301025390625 110.3621368408203 973.3904418945312 112.7490005493164 969.6680297851562 L 125.7789993286133 944.3699951171875 C 126.8938598632812 942.631591796875 128.7214508056641 941.7601928710938 130.5396270751953 941.7601928710938 C 132.3370361328125 941.7601928710938 134.125244140625 942.611328125 135.2079925537109 944.3179931640625 L 149.447998046875 969.3679809570312 C 151.8000030517578 973.072998046875 149.0989990234375 977.9580078125 144.6860046386719 977.9819946289062 L 117.4160003662109 978.22998046875 C 117.4046859741211 978.2300415039062 117.3933181762695 978.2301025390625 117.3820266723633 978.2301025390625 Z" stroke="none" fill="#ec441c"/>
      </g>
      <line id="선_385" data-name="선 385" y1="20.098" x2="25.75" transform="translate(2.913 13.102)" fill="#fff" stroke="#ec441c" stroke-miterlimit="10" stroke-width="4" opacity="0.2"/>
      <g id="그룹_2311" data-name="그룹 2311" transform="translate(12.113 17.892)">
        <g id="그룹_2308" data-name="그룹 2308" transform="translate(0 0.07)">
          <path id="패스_2085" data-name="패스 2085" d="M126.262,967.065v-5.877l-1.67.958-.632-1.059,2.455-1.365h1.15v7.343Z" transform="translate(-123.96 -959.722)" fill="#1a1818"/>
        </g>
        <g id="그룹_2310" data-name="그룹 2310" transform="translate(5.633)">
          <g id="그룹_2309" data-name="그룹 2309">
            <path id="패스_2086" data-name="패스 2086" d="M131.223,960.279h1.061v1.9a2.965,2.965,0,0,0,.029.436,1.713,1.713,0,0,0,.094.357,2.167,2.167,0,0,0,.156.322,2.388,2.388,0,0,0,.23.318c.158.2.332.4.522.608s.383.408.581.607l-.7.652q-.561-.576-.942-1.017a3,3,0,0,1-.441-.6H131.8a1.321,1.321,0,0,1-.157.268,4.542,4.542,0,0,1-.285.36c-.056.068-.124.147-.2.234l-.259.284c-.093.1-.19.205-.289.31s-.2.2-.293.293l-.721-.7q.271-.271.569-.595c.2-.215.379-.424.543-.627a2.609,2.609,0,0,0,.25-.357,1.945,1.945,0,0,0,.157-.34,1.706,1.706,0,0,0,.085-.369,3.586,3.586,0,0,0,.026-.453Zm2.86,2.75h-1.061V962.1h1.061v-2.283H135.1v7.351h-1.019Zm2.623,4.516h-1.018v-7.893h1.018Z" transform="translate(-129.593 -959.652)" fill="#535453"/>
          </g>
        </g>
      </g>
    </g>
    <rect id="사각형_2679" data-name="사각형 2679" width="50" height="50" transform="translate(106.082 934.995)" fill="none"/>
  </g>
</svg>
