<svg xmlns="http://www.w3.org/2000/svg" width="50" height="50" viewBox="0 0 50 50">
  <g id="그룹_2385" data-name="그룹 2385" transform="translate(-822.012 -934.995)">
    <g id="그룹_2384" data-name="그룹 2384" transform="translate(827.778 941.76)">
      <g id="패스_2123" data-name="패스 2123" transform="translate(-827.778 -941.76)" fill="#fff" stroke-miterlimit="10">
        <path d="M 833.31298828125 977.2301025390625 C 831.6292724609375 977.2301025390625 830.1446533203125 976.3532104492188 829.3416748046875 974.8844604492188 C 828.5294189453125 973.3987426757812 828.5967407226562 971.6504516601562 829.5217895507812 970.2078247070312 L 829.54736328125 970.16796875 L 829.5690307617188 970.1259155273438 L 842.5763549804688 944.8719482421875 C 843.442626953125 943.5487060546875 844.8949584960938 942.7601928710938 846.4706420898438 942.7601928710938 C 848.025634765625 942.7601928710938 849.44873046875 943.5350341796875 850.2821655273438 944.834228515625 L 864.5097045898438 969.8621826171875 L 864.5216674804688 969.8832397460938 L 864.53466796875 969.9037475585938 C 865.4346313476562 971.3220825195312 865.4855346679688 973.0592041015625 864.6708984375 974.550537109375 C 863.8442993164062 976.063720703125 862.3267822265625 976.9727172851562 860.611572265625 976.9819946289062 L 833.337890625 977.2300415039062 L 833.31298828125 977.2301025390625 Z" stroke="none"/>
        <path d="M 833.31298828125 976.2301025390625 L 833.333251953125 976.2300415039062 L 860.5988159179688 975.9820556640625 L 860.6024780273438 975.9820556640625 L 860.6061401367188 975.9820556640625 C 861.9522094726562 975.9747314453125 863.1436767578125 975.2603759765625 863.7932739257812 974.0711669921875 C 864.4309692382812 972.9037475585938 864.3925170898438 971.546142578125 863.6903076171875 970.4395141601562 L 863.664306640625 970.3985595703125 L 863.6403198242188 970.3563842773438 L 849.4267578125 945.3529663085938 C 848.7676391601562 944.3400268554688 847.6926879882812 943.7601928710938 846.4706420898438 943.7601928710938 C 845.2318725585938 943.7601928710938 844.1322021484375 944.3488159179688 843.4402465820312 945.3785400390625 L 830.4580078125 970.5838012695312 L 830.4146728515625 970.6679077148438 L 830.3635864257812 970.74755859375 C 829.6389770507812 971.877685546875 829.5849609375 973.2448120117188 830.2191162109375 974.40478515625 C 830.843994140625 975.5477294921875 832.0005493164062 976.2301025390625 833.31298828125 976.2301025390625 M 833.31298828125 978.2301025390625 C 828.9193725585938 978.2301025390625 826.2930908203125 973.3904418945312 828.6799926757812 969.6680297851562 L 841.7100219726562 944.3699951171875 C 842.8248901367188 942.631591796875 844.6524658203125 941.7601928710938 846.4706420898438 941.7601928710938 C 848.2680053710938 941.7601928710938 850.0562133789062 942.611328125 851.1389770507812 944.3179931640625 L 865.3790283203125 969.3679809570312 C 867.72998046875 973.072998046875 865.030029296875 977.9580078125 860.6170043945312 977.9819946289062 L 833.3469848632812 978.22998046875 C 833.335693359375 978.2300415039062 833.3242797851562 978.2301025390625 833.31298828125 978.2301025390625 Z" stroke="none" fill="#ec441c"/>
      </g>
      <line id="선_397" data-name="선 397" y1="20.098" x2="25.75" transform="translate(2.913 13.102)" fill="#fff" stroke="#ec441c" stroke-miterlimit="10" stroke-width="4" opacity="0.2"/>
      <g id="그룹_2383" data-name="그룹 2383" transform="translate(10.113 17.849)">
        <g id="그룹_2380" data-name="그룹 2380">
          <path id="패스_2124" data-name="패스 2124" d="M840.192,967.065v-5.877l-1.67.958-.631-1.059,2.455-1.365h1.15v7.343Z" transform="translate(-837.891 -959.609)" fill="#1a1818"/>
          <path id="패스_2125" data-name="패스 2125" d="M842.718,960.669a2.932,2.932,0,0,1,.876-.769,2.6,2.6,0,0,1,1.3-.291,3.1,3.1,0,0,1,.938.133,2.144,2.144,0,0,1,.713.372,1.658,1.658,0,0,1,.458.58,1.729,1.729,0,0,1,.163.749v.1a2.544,2.544,0,0,1-.046.464,1.613,1.613,0,0,1-.168.478,1.643,1.643,0,0,1-.326.423,1.572,1.572,0,0,1-.52.316,1.666,1.666,0,0,1,1.08.58,1.712,1.712,0,0,1,.347,1.08v.152a2.064,2.064,0,0,1-.163.8,1.877,1.877,0,0,1-.494.682,2.468,2.468,0,0,1-.835.474,3.528,3.528,0,0,1-1.177.179,3.894,3.894,0,0,1-1.237-.2,3.537,3.537,0,0,1-1.115-.617l.641-1.018q.266.194.484.326a2.616,2.616,0,0,0,.422.209,1.946,1.946,0,0,0,.4.106,2.6,2.6,0,0,0,.417.032,1.557,1.557,0,0,0,1.019-.276.944.944,0,0,0,.326-.763v-.133a.945.945,0,0,0-.316-.789,1.652,1.652,0,0,0-1.018-.25H843.9v-1.12h.876a1.754,1.754,0,0,0,.566-.077.794.794,0,0,0,.341-.213.77.77,0,0,0,.169-.336,1.976,1.976,0,0,0,.045-.434v-.081a.69.69,0,0,0-.27-.607,1.258,1.258,0,0,0-.729-.188,1.469,1.469,0,0,0-.758.174,2.413,2.413,0,0,0-.535.437Z" transform="translate(-837.891 -959.609)" fill="#1a1818"/>
        </g>
        <g id="그룹_2382" data-name="그룹 2382" transform="translate(10.612 0.094)">
          <g id="그룹_2381" data-name="그룹 2381">
            <path id="패스_2126" data-name="패스 2126" d="M850.236,960.23l1.062.025-.043,1.9a2.958,2.958,0,0,0,.019.438,1.65,1.65,0,0,0,.086.357,2.036,2.036,0,0,0,.149.326,2.346,2.346,0,0,0,.222.325c.154.2.324.408.509.619s.374.416.568.619l-.719.637q-.547-.59-.92-1.039a3.1,3.1,0,0,1-.428-.6h-.009a1.274,1.274,0,0,1-.163.264c-.085.114-.182.232-.292.353-.058.068-.128.144-.209.23s-.17.177-.264.278l-.3.3c-.1.1-.2.2-.3.286l-.706-.712c.185-.177.38-.37.583-.581s.387-.415.556-.616a2.54,2.54,0,0,0,.257-.35,1.94,1.94,0,0,0,.165-.337,1.753,1.753,0,0,0,.094-.366,3.67,3.67,0,0,0,.035-.454Zm2.8,2.815-1.06-.024.021-.933,1.061.023.051-2.283,1.018.024-.166,7.348-1.018-.022Zm2.521,4.573-1.019-.022.178-7.893,1.018.024Z" transform="translate(-848.503 -959.703)" fill="#535453"/>
          </g>
        </g>
      </g>
    </g>
    <rect id="사각형_2691" data-name="사각형 2691" width="50" height="50" transform="translate(822.013 934.995)" fill="none"/>
  </g>
</svg>
