<svg xmlns="http://www.w3.org/2000/svg" width="50" height="50" viewBox="0 0 50 50">
  <g id="그룹_2421" data-name="그룹 2421" transform="translate(-1179.039 -934.995)">
    <g id="그룹_2420" data-name="그룹 2420" transform="translate(1184.805 941.76)">
      <g id="패스_2147" data-name="패스 2147" transform="translate(-1184.805 -941.76)" fill="#fff" stroke-miterlimit="10">
        <path d="M 1190.340087890625 977.2301025390625 C 1188.65625 977.2301025390625 1187.171630859375 976.3532104492188 1186.36865234375 974.8844604492188 C 1185.556396484375 973.3987426757812 1185.623779296875 971.6504516601562 1186.548828125 970.2078247070312 L 1186.574340820312 970.16796875 L 1186.596069335938 970.1259155273438 L 1199.603393554688 944.8719482421875 C 1200.469604492188 943.5487060546875 1201.921997070312 942.7601928710938 1203.497680664062 942.7601928710938 C 1205.052734375 942.7601928710938 1206.475830078125 943.5350952148438 1207.309204101562 944.8342895507812 L 1221.53662109375 969.8621826171875 L 1221.548706054688 969.8832397460938 L 1221.561645507812 969.9037475585938 C 1222.461669921875 971.3220825195312 1222.512573242188 973.0592041015625 1221.697875976562 974.5505981445312 C 1220.871215820312 976.063720703125 1219.353759765625 976.9727172851562 1217.638549804688 976.9819946289062 L 1190.364990234375 977.2300415039062 L 1190.340087890625 977.2301025390625 Z" stroke="none"/>
        <path d="M 1190.340087890625 976.2301025390625 L 1190.3603515625 976.2300415039062 L 1217.625854492188 975.9820556640625 L 1217.629516601562 975.9820556640625 L 1217.633178710938 975.9820556640625 C 1218.979248046875 975.9747314453125 1220.170654296875 975.2603759765625 1220.820190429688 974.0711669921875 C 1221.4580078125 972.9037475585938 1221.41943359375 971.546142578125 1220.71728515625 970.4395141601562 L 1220.691284179688 970.3985595703125 L 1220.667358398438 970.3563842773438 L 1206.453857421875 945.3529663085938 C 1205.794677734375 944.3400268554688 1204.7197265625 943.7601928710938 1203.497680664062 943.7601928710938 C 1202.258911132812 943.7601928710938 1201.1591796875 944.3488159179688 1200.46728515625 945.3786010742188 L 1187.484985351562 970.5838012695312 L 1187.441650390625 970.6679077148438 L 1187.390625 970.7476196289062 C 1186.666015625 971.877685546875 1186.611938476562 973.2448120117188 1187.24609375 974.40478515625 C 1187.870971679688 975.5477294921875 1189.027587890625 976.2301025390625 1190.340087890625 976.2301025390625 M 1190.340087890625 978.2301025390625 C 1185.946411132812 978.2301025390625 1183.320068359375 973.3904418945312 1185.70703125 969.6680297851562 L 1198.737060546875 944.3699951171875 C 1199.851928710938 942.631591796875 1201.679443359375 941.7601928710938 1203.497680664062 941.7601928710938 C 1205.295043945312 941.7601928710938 1207.083251953125 942.611328125 1208.166015625 944.3179931640625 L 1222.406005859375 969.3679809570312 C 1224.756958007812 973.072998046875 1222.057006835938 977.9580078125 1217.64404296875 977.9819946289062 L 1190.3740234375 978.22998046875 C 1190.362670898438 978.2300415039062 1190.351318359375 978.2301025390625 1190.340087890625 978.2301025390625 Z" stroke="none" fill="#ec441c"/>
      </g>
      <line id="선_403" data-name="선 403" y1="20.098" x2="25.75" transform="translate(2.913 13.102)" fill="#fff" stroke="#ec441c" stroke-miterlimit="10" stroke-width="4" opacity="0.2"/>
      <g id="그룹_2419" data-name="그룹 2419" transform="translate(10.144 17.85)">
        <g id="그룹_2416" data-name="그룹 2416">
          <path id="패스_2148" data-name="패스 2148" d="M1197.315,967.065v-5.877l-1.716.958-.65-1.059,2.524-1.365h1.182v7.343Z" transform="translate(-1194.949 -959.61)" fill="#1a1818"/>
          <path id="패스_2149" data-name="패스 2149" d="M1200.592,965.589a3.081,3.081,0,0,0,.744.306,3.413,3.413,0,0,0,.858.1,1.936,1.936,0,0,0,.649-.1,1.117,1.117,0,0,0,.482-.342,1.691,1.691,0,0,0,.309-.631,4.655,4.655,0,0,0,.141-.984,1.668,1.668,0,0,1-.738.479,2.87,2.87,0,0,1-.958.163,2.724,2.724,0,0,1-.989-.168,2.06,2.06,0,0,1-.738-.474,2.02,2.02,0,0,1-.466-.738,2.73,2.73,0,0,1-.162-.972v-.205a2.476,2.476,0,0,1,.182-.952,2.19,2.19,0,0,1,.53-.768,2.408,2.408,0,0,1,.842-.51,3.238,3.238,0,0,1,1.125-.183,3.141,3.141,0,0,1,1.236.219,2.125,2.125,0,0,1,.838.626,2.658,2.658,0,0,1,.476.983,5.028,5.028,0,0,1,.151,1.279v.468a7.679,7.679,0,0,1-.214,1.991,3.022,3.022,0,0,1-.607,1.222,2.047,2.047,0,0,1-.948.612,4.214,4.214,0,0,1-1.225.168,4.89,4.89,0,0,1-1.047-.117,2.934,2.934,0,0,1-.962-.393Zm3.162-3.534a1.251,1.251,0,0,0-.335-.933,1.348,1.348,0,0,0-.984-.331,1.466,1.466,0,0,0-1.041.331,1.23,1.23,0,0,0-.352.942v.113a1.261,1.261,0,0,0,.325.952,1.427,1.427,0,0,0,1.016.31,1.789,1.789,0,0,0,.617-.1,1.184,1.184,0,0,0,.43-.265,1.051,1.051,0,0,0,.246-.392,1.449,1.449,0,0,0,.078-.479Z" transform="translate(-1194.949 -959.61)" fill="#1a1818"/>
        </g>
        <g id="그룹_2418" data-name="그룹 2418" transform="translate(10.581 0.093)">
          <g id="그룹_2417" data-name="그룹 2417">
            <path id="패스_2150" data-name="패스 2150" d="M1207.264,960.23l1.061.025-.043,1.9a2.821,2.821,0,0,0,.02.438,1.6,1.6,0,0,0,.086.357,2.127,2.127,0,0,0,.148.326,2.362,2.362,0,0,0,.223.325c.153.2.323.408.509.619s.374.416.567.619l-.719.637q-.547-.59-.92-1.039a3.073,3.073,0,0,1-.427-.6h-.009a1.324,1.324,0,0,1-.163.264c-.085.114-.183.232-.292.353-.059.068-.128.144-.209.23s-.17.177-.265.278l-.3.3c-.1.1-.2.2-.3.286l-.706-.712c.186-.177.38-.37.583-.581s.387-.415.556-.616a2.638,2.638,0,0,0,.258-.35,2.013,2.013,0,0,0,.165-.337,1.816,1.816,0,0,0,.094-.366,3.871,3.871,0,0,0,.035-.454Zm2.8,2.815-1.061-.024.021-.933,1.061.023.052-2.283,1.017.024-.166,7.348-1.017-.022Zm2.52,4.573-1.019-.022.178-7.893,1.019.024Z" transform="translate(-1205.53 -959.703)" fill="#535453"/>
          </g>
        </g>
      </g>
    </g>
    <rect id="사각형_2697" data-name="사각형 2697" width="50" height="50" transform="translate(1179.04 934.995)" fill="none"/>
  </g>
</svg>
