<svg xmlns="http://www.w3.org/2000/svg" width="50" height="50" viewBox="0 0 50 50">
  <g id="그룹_2361" data-name="그룹 2361" transform="translate(-580.906 -934.995)">
    <g id="그룹_2360" data-name="그룹 2360" transform="translate(586.671 941.76)">
      <g id="패스_2108" data-name="패스 2108" transform="translate(-586.671 -941.76)" fill="#fff" stroke-miterlimit="10">
        <path d="M 592.2059936523438 977.2301025390625 C 590.5222778320312 977.2301025390625 589.0376586914062 976.3532104492188 588.2346801757812 974.8844604492188 C 587.4224243164062 973.3987426757812 587.48974609375 971.6504516601562 588.414794921875 970.2078247070312 L 588.4403686523438 970.16796875 L 588.4620361328125 970.1259155273438 L 601.4693603515625 944.8719482421875 C 602.3356323242188 943.5487060546875 603.7879638671875 942.7601928710938 605.3636474609375 942.7601928710938 C 606.9186401367188 942.7601928710938 608.341796875 943.5350952148438 609.1752319335938 944.8342895507812 L 623.4026489257812 969.8621826171875 L 623.4146118164062 969.8832397460938 L 623.4276123046875 969.9037475585938 C 624.3275756835938 971.3220825195312 624.3785400390625 973.0591430664062 623.5638427734375 974.550537109375 C 622.7373046875 976.063720703125 621.2197875976562 976.9727172851562 619.5045776367188 976.9819946289062 L 592.2308959960938 977.2300415039062 L 592.2059936523438 977.2301025390625 Z" stroke="none"/>
        <path d="M 592.2059936523438 976.2301025390625 L 592.2262573242188 976.2300415039062 L 619.4918212890625 975.9820556640625 L 619.4954833984375 975.9820556640625 L 619.4991455078125 975.9820556640625 C 620.84521484375 975.9747314453125 622.03662109375 975.2603759765625 622.686279296875 974.0711669921875 C 623.323974609375 972.9037475585938 623.2854614257812 971.546142578125 622.583251953125 970.4395751953125 L 622.5572509765625 970.3985595703125 L 622.5332641601562 970.3563842773438 L 608.3197631835938 945.3529663085938 C 607.66064453125 944.3400268554688 606.585693359375 943.7601928710938 605.3636474609375 943.7601928710938 C 604.1248779296875 943.7601928710938 603.0252075195312 944.3488159179688 602.333251953125 945.3785400390625 L 589.3510131835938 970.5838012695312 L 589.3076782226562 970.6679077148438 L 589.256591796875 970.74755859375 C 588.531982421875 971.877685546875 588.4779663085938 973.2448120117188 589.1121215820312 974.40478515625 C 589.7369995117188 975.5477294921875 590.8935546875 976.2301025390625 592.2059936523438 976.2301025390625 M 592.2059936523438 978.2301025390625 C 587.8123779296875 978.2301025390625 585.1860961914062 973.3904418945312 587.572998046875 969.6680297851562 L 600.60302734375 944.3699951171875 C 601.7178955078125 942.631591796875 603.5454711914062 941.7601928710938 605.3636474609375 941.7601928710938 C 607.1610107421875 941.7601928710938 608.94921875 942.611328125 610.031982421875 944.3179931640625 L 624.27197265625 969.3679809570312 C 626.6229858398438 973.072998046875 623.9229736328125 977.9580078125 619.510009765625 977.9819946289062 L 592.239990234375 978.22998046875 C 592.2286987304688 978.2300415039062 592.21728515625 978.2301025390625 592.2059936523438 978.2301025390625 Z" stroke="none" fill="#ec441c"/>
      </g>
      <line id="선_393" data-name="선 393" y1="20.098" x2="25.75" transform="translate(2.913 13.102)" fill="#fff" stroke="#ec441c" stroke-miterlimit="10" stroke-width="4" opacity="0.2"/>
      <g id="그룹_2359" data-name="그룹 2359" transform="translate(11.461 17.849)">
        <g id="그룹_2356" data-name="그룹 2356">
          <path id="패스_2109" data-name="패스 2109" d="M598.977,965.589a2.927,2.927,0,0,0,.723.3,3.189,3.189,0,0,0,.835.1,1.818,1.818,0,0,0,.632-.1,1.073,1.073,0,0,0,.468-.341,1.715,1.715,0,0,0,.3-.632,4.738,4.738,0,0,0,.137-.983,1.628,1.628,0,0,1-.718.479,2.749,2.749,0,0,1-.932.163,2.583,2.583,0,0,1-.962-.168,2.01,2.01,0,0,1-.719-.474,2.094,2.094,0,0,1-.453-.738,2.832,2.832,0,0,1-.157-.972v-.205a2.508,2.508,0,0,1,.178-.952,2.2,2.2,0,0,1,.514-.768,2.346,2.346,0,0,1,.82-.51,3.077,3.077,0,0,1,1.1-.184,2.975,2.975,0,0,1,1.2.22,2.065,2.065,0,0,1,.816.626,2.688,2.688,0,0,1,.463.983,5.16,5.16,0,0,1,.148,1.278v.469a7.889,7.889,0,0,1-.209,1.991,3.059,3.059,0,0,1-.591,1.222,1.988,1.988,0,0,1-.921.612,4.036,4.036,0,0,1-1.192.168,4.611,4.611,0,0,1-1.018-.117,2.814,2.814,0,0,1-.938-.393Zm3.076-3.535a1.148,1.148,0,0,0-1.283-1.263,1.4,1.4,0,0,0-1.014.331,1.251,1.251,0,0,0-.341.942v.113a1.29,1.29,0,0,0,.315.952,1.367,1.367,0,0,0,.989.31,1.7,1.7,0,0,0,.6-.1,1.153,1.153,0,0,0,.418-.265,1.036,1.036,0,0,0,.24-.392,1.5,1.5,0,0,0,.076-.479Z" transform="translate(-598.132 -959.609)" fill="#1a1818"/>
        </g>
        <g id="그룹_2358" data-name="그룹 2358" transform="translate(6.285 0.043)">
          <g id="그룹_2357" data-name="그룹 2357">
            <path id="패스_2110" data-name="패스 2110" d="M606.046,960.279h1.062v1.9a2.958,2.958,0,0,0,.029.436,1.709,1.709,0,0,0,.094.357,2.162,2.162,0,0,0,.156.322,2.387,2.387,0,0,0,.23.318c.158.2.332.4.522.608s.383.408.581.607l-.7.652q-.561-.576-.942-1.017a3.022,3.022,0,0,1-.442-.6h-.008a1.339,1.339,0,0,1-.158.268,4.533,4.533,0,0,1-.284.36c-.057.068-.124.147-.2.234l-.259.284c-.094.1-.19.205-.289.31s-.2.2-.293.293l-.721-.7q.272-.271.569-.595c.2-.215.379-.424.543-.627a2.8,2.8,0,0,0,.25-.357,2.02,2.02,0,0,0,.157-.34,1.761,1.761,0,0,0,.085-.369,3.594,3.594,0,0,0,.025-.453Zm2.861,2.75h-1.061V962.1h1.061v-2.283h1.018v7.351h-1.018Zm2.623,4.516h-1.019v-7.893h1.019Z" transform="translate(-604.417 -959.652)" fill="#535453"/>
          </g>
        </g>
      </g>
    </g>
    <rect id="사각형_2687" data-name="사각형 2687" width="50" height="50" transform="translate(580.906 934.995)" fill="none"/>
  </g>
</svg>
