<svg xmlns="http://www.w3.org/2000/svg" width="50" height="50" viewBox="0 0 50 50">
  <g id="그룹_2391" data-name="그룹 2391" transform="translate(-881.518 -934.995)">
    <g id="그룹_2390" data-name="그룹 2390" transform="translate(887.282 941.76)">
      <g id="패스_2127" data-name="패스 2127" transform="translate(-887.282 -941.76)" fill="#fff" stroke-miterlimit="10">
        <path d="M 892.8170166015625 977.2301025390625 C 891.133544921875 977.2301025390625 889.6490478515625 976.3530883789062 888.845947265625 974.8842163085938 C 888.03369140625 973.3984375 888.1008911132812 971.6502685546875 889.0258178710938 970.2078247070312 L 889.0513916015625 970.16796875 L 889.0730590820312 970.1259155273438 L 902.080322265625 944.8719482421875 C 902.9466552734375 943.5486450195312 904.3989868164062 942.7601928710938 905.9747314453125 942.7601928710938 C 907.5299072265625 942.7601928710938 908.9533081054688 943.5350952148438 909.7871704101562 944.834228515625 L 924.0136108398438 969.8621215820312 L 924.0256958007812 969.8833618164062 L 924.0387573242188 969.9039306640625 C 924.93896484375 971.322021484375 924.990234375 973.0588989257812 924.1758422851562 974.5501098632812 C 923.3493041992188 976.0635375976562 921.8314208984375 976.9727172851562 920.1155395507812 976.9819946289062 L 892.8419189453125 977.2300415039062 L 892.8170166015625 977.2301025390625 Z" stroke="none"/>
        <path d="M 892.8170166015625 976.2301025390625 L 892.8372802734375 976.2300415039062 L 920.102783203125 975.9820556640625 L 920.1064453125 975.9820556640625 L 920.110107421875 975.9820556640625 C 921.456787109375 975.9747314453125 922.6486206054688 975.26025390625 923.2982177734375 974.07080078125 C 923.9356079101562 972.9036254882812 923.8968505859375 971.5462646484375 923.1945190429688 970.4398803710938 L 923.1683349609375 970.398681640625 L 923.144287109375 970.3563232421875 L 908.931884765625 945.3532104492188 C 908.2723388671875 944.3402099609375 907.197021484375 943.7601928710938 905.9747314453125 943.7601928710938 C 904.7359619140625 943.7601928710938 903.63623046875 944.3487548828125 902.9442138671875 945.3785400390625 L 889.9620361328125 970.5838012695312 L 889.918701171875 970.6679077148438 L 889.8676147460938 970.74755859375 C 889.1431274414062 971.87744140625 889.0892333984375 973.2445068359375 889.723388671875 974.404541015625 C 890.3483276367188 975.547607421875 891.5048217773438 976.2301025390625 892.8170166015625 976.2301025390625 M 892.8170166015625 978.2301025390625 C 888.4243774414062 978.2301025390625 885.7971801757812 973.3904418945312 888.1840209960938 969.6680297851562 L 901.2139892578125 944.3699951171875 C 902.328857421875 942.631591796875 904.156494140625 941.7601928710938 905.9747924804688 941.7601928710938 C 907.7723388671875 941.7601928710938 909.5607299804688 942.611328125 910.6439819335938 944.3179931640625 L 924.8829956054688 969.3679809570312 C 927.2349853515625 973.072998046875 924.5349731445312 977.9580078125 920.1209716796875 977.9819946289062 L 892.8510131835938 978.22998046875 C 892.8397216796875 978.2300415039062 892.8283081054688 978.2301025390625 892.8170166015625 978.2301025390625 Z" stroke="none" fill="#ec441c"/>
      </g>
      <line id="선_398" data-name="선 398" y1="20.098" x2="25.75" transform="translate(2.913 13.102)" fill="#fff" stroke="#ec441c" stroke-miterlimit="10" stroke-width="4" opacity="0.2"/>
      <g id="그룹_2389" data-name="그룹 2389" transform="translate(10.113 17.943)">
        <g id="그룹_2386" data-name="그룹 2386" transform="translate(0 0.019)">
          <path id="패스_2128" data-name="패스 2128" d="M899.7,967.065v-5.877l-1.67.958-.632-1.059,2.455-1.365H901v7.343Z" transform="translate(-897.395 -959.722)" fill="#1a1818"/>
          <path id="패스_2129" data-name="패스 2129" d="M906.643,962.288v2.2h1v1.049h-1v1.528H905.36v-1.528H901.7v-.845l3.34-4.97h1.407l-3.209,4.766h2.119v-2.2Z" transform="translate(-897.395 -959.722)" fill="#1a1818"/>
        </g>
        <g id="그룹_2388" data-name="그룹 2388" transform="translate(10.612)">
          <g id="그룹_2387" data-name="그룹 2387">
            <path id="패스_2130" data-name="패스 2130" d="M909.741,960.23l1.061.025-.043,1.9a2.829,2.829,0,0,0,.02.438,1.592,1.592,0,0,0,.086.357,2.12,2.12,0,0,0,.148.326,2.351,2.351,0,0,0,.223.325c.153.2.323.408.509.619s.374.416.567.619l-.719.637q-.547-.59-.92-1.039a3.082,3.082,0,0,1-.427-.6h-.009a1.319,1.319,0,0,1-.163.264c-.085.114-.183.232-.292.353-.059.068-.128.144-.209.23s-.17.177-.265.278l-.3.3c-.1.1-.2.2-.3.286l-.706-.712c.186-.177.38-.37.583-.581s.387-.415.556-.616a2.638,2.638,0,0,0,.258-.35,2.013,2.013,0,0,0,.165-.337,1.812,1.812,0,0,0,.094-.366,3.883,3.883,0,0,0,.035-.454Zm2.8,2.815-1.061-.024.022-.933,1.06.023.052-2.283,1.017.024-.166,7.348-1.017-.022Zm2.52,4.573-1.018-.022.177-7.893,1.019.024Z" transform="translate(-908.007 -959.703)" fill="#535453"/>
          </g>
        </g>
      </g>
    </g>
    <rect id="사각형_2692" data-name="사각형 2692" width="50" height="50" transform="translate(881.517 934.995)" fill="none"/>
  </g>
</svg>
