<svg xmlns="http://www.w3.org/2000/svg" width="50" height="50" viewBox="0 0 50 50">
  <g id="그룹_2250" data-name="그룹 2250" transform="translate(-399.658 -819.45)">
    <g id="그룹_2249" data-name="그룹 2249" transform="translate(399.659 819.45)">
      <rect id="사각형_2659" data-name="사각형 2659" width="50" height="50" fill="none"/>
      <g id="그룹_2248" data-name="그룹 2248" transform="translate(6.991 7.572)">
        <path id="사각형_2660" data-name="사각형 2660" d="M6,0H30a6,6,0,0,1,6,6V28a4,4,0,0,1-4,4H4a4,4,0,0,1-4-4V6A6,6,0,0,1,6,0Z" transform="translate(0.008 2.857)" fill="none" stroke="#db2819" stroke-miterlimit="10" stroke-width="2"/>
        <path id="패스_2037" data-name="패스 2037" d="M406.65,835.893a6,6,0,0,1,6-6.005l24-.018a6,6,0,0,1,6,5.995Z" transform="translate(-406.65 -827.022)" fill="#db2819"/>
        <g id="그룹_2244" data-name="그룹 2244" transform="translate(7.996)">
          <rect id="사각형_2661" data-name="사각형 2661" width="4" height="5" rx="2" transform="translate(0 0.012)" fill="#fba911"/>
          <rect id="사각형_2662" data-name="사각형 2662" width="4" height="5" rx="2" transform="translate(16)" fill="#fba911"/>
        </g>
        <line id="선_373" data-name="선 373" y1="21.574" x2="31.409" transform="translate(2.418 10.866)" fill="none" stroke="#db2819" stroke-linecap="round" stroke-miterlimit="10" stroke-width="5" opacity="0.2"/>
        <g id="그룹_2245" data-name="그룹 2245" transform="translate(9.909 16.982)">
          <path id="패스_2038" data-name="패스 2038" d="M421.73,845.876a3.451,3.451,0,0,0-.852-.36,3.765,3.765,0,0,0-.983-.12,1.744,1.744,0,0,0-.643.12,1.411,1.411,0,0,0-.552.4,2.325,2.325,0,0,0-.414.744,4.035,4.035,0,0,0-.2,1.158,1.923,1.923,0,0,1,.847-.564,3.213,3.213,0,0,1,1.1-.193,3.062,3.062,0,0,1,1.128.2,2.335,2.335,0,0,1,.852.564,2.484,2.484,0,0,1,.534.882,3.341,3.341,0,0,1,.187,1.14v.24a3,3,0,0,1-.21,1.122,2.549,2.549,0,0,1-.607.9,2.819,2.819,0,0,1-.966.595,3.615,3.615,0,0,1-1.29.216,3.515,3.515,0,0,1-1.416-.258,2.436,2.436,0,0,1-.96-.738,3.154,3.154,0,0,1-.546-1.158,6.066,6.066,0,0,1-.173-1.506v-.552a8.5,8.5,0,0,1,.269-2.346,3.7,3.7,0,0,1,.738-1.44,2.444,2.444,0,0,1,1.092-.72,4.384,4.384,0,0,1,1.332-.2,5.443,5.443,0,0,1,1.2.138,3.3,3.3,0,0,1,1.1.462Zm-3.624,4.164a1.5,1.5,0,0,0,.384,1.1,1.519,1.519,0,0,0,1.128.389,1.659,1.659,0,0,0,1.195-.389,1.48,1.48,0,0,0,.4-1.111V849.9a1.52,1.52,0,0,0-.371-1.123,1.612,1.612,0,0,0-1.164-.365,2,2,0,0,0-.715.113,1.352,1.352,0,0,0-.485.313,1.224,1.224,0,0,0-.283.462,1.761,1.761,0,0,0-.09.563Z" transform="translate(-416.559 -844.004)" fill="#030504"/>
        </g>
        <g id="그룹_2247" data-name="그룹 2247" transform="translate(16.545 16.518)">
          <g id="그룹_2246" data-name="그룹 2246">
            <path id="패스_2039" data-name="패스 2039" d="M423.2,843.92h4.35v1.04h-3.109v1.83q.529,0,1-.006c.313,0,.618-.01.915-.019s.594-.027.894-.05.61-.052.931-.085l.109,1.019c-.3.04-.615.073-.944.1s-.7.041-1.1.055-.849.021-1.345.024-1.065.006-1.7.006Zm7,4.64v2.66h-4.59v.71h4.871v1h-6.09v-2.66h4.59v-.71h-4.641v-1Zm0-3.321h1.22v1.1H430.2v1.8h-1.259v-4.6H430.2Z" transform="translate(-423.195 -843.54)" fill="#030504"/>
          </g>
        </g>
      </g>
    </g>
    <rect id="사각형_2663" data-name="사각형 2663" width="50" height="50" transform="translate(399.659 819.45)" fill="none"/>
  </g>
</svg>
