<svg xmlns="http://www.w3.org/2000/svg" width="50" height="50" viewBox="0 0 50 50">
  <g id="그룹_2215" data-name="그룹 2215" transform="translate(-106.959 -819.45)">
    <g id="그룹_2214" data-name="그룹 2214" transform="translate(106.958 819.45)">
      <rect id="사각형_2634" data-name="사각형 2634" width="50" height="50" fill="none"/>
      <g id="그룹_2213" data-name="그룹 2213" transform="translate(6.992 7.572)">
        <path id="사각형_2635" data-name="사각형 2635" d="M6,0H30a6,6,0,0,1,6,6V28a4,4,0,0,1-4,4H4a4,4,0,0,1-4-4V6A6,6,0,0,1,6,0Z" transform="translate(0.008 2.857)" fill="none" stroke="#db2819" stroke-miterlimit="10" stroke-width="2"/>
        <path id="패스_2022" data-name="패스 2022" d="M113.95,835.893a6,6,0,0,1,6-6.005l24-.018a6,6,0,0,1,6,5.995Z" transform="translate(-113.95 -827.022)" fill="#db2819"/>
        <g id="그룹_2209" data-name="그룹 2209" transform="translate(7.995)">
          <rect id="사각형_2636" data-name="사각형 2636" width="4" height="5" rx="2" transform="translate(0 0.012)" fill="#fba911"/>
          <rect id="사각형_2637" data-name="사각형 2637" width="4" height="5" rx="2" transform="translate(16)" fill="#fba911"/>
        </g>
        <line id="선_368" data-name="선 368" y1="21.574" x2="31.409" transform="translate(2.417 10.866)" fill="none" stroke="#db2819" stroke-linecap="round" stroke-miterlimit="10" stroke-width="5" opacity="0.2"/>
        <g id="그룹_2210" data-name="그룹 2210" transform="translate(10.556 17.114)">
          <path id="패스_2023" data-name="패스 2023" d="M127.218,852.788v-6.924l-1.968,1.128-.744-1.248,2.892-1.608h1.356v8.652Z" transform="translate(-124.506 -844.136)" fill="#030504"/>
        </g>
        <g id="그룹_2212" data-name="그룹 2212" transform="translate(16.545 16.518)">
          <g id="그룹_2211" data-name="그룹 2211">
            <path id="패스_2024" data-name="패스 2024" d="M130.495,843.92h4.35v1.04h-3.11v1.83q.531,0,1-.006c.314,0,.619-.01.915-.019s.6-.027.9-.05.61-.052.931-.085l.109,1.019c-.3.04-.615.073-.944.1s-.7.041-1.1.055-.849.021-1.345.024-1.065.006-1.705.006Zm7,4.64v2.66H132.9v.71h4.87v1h-6.089v-2.66h4.589v-.71h-4.64v-1Zm0-3.321h1.22v1.1h-1.22v1.8h-1.26v-4.6h1.26Z" transform="translate(-130.495 -843.54)" fill="#030504"/>
          </g>
        </g>
      </g>
    </g>
    <rect id="사각형_2638" data-name="사각형 2638" width="50" height="50" transform="translate(106.958 819.45)" fill="none"/>
  </g>
</svg>
