<svg xmlns="http://www.w3.org/2000/svg" width="50" height="50" viewBox="0 0 50 50">
  <g id="그룹_2229" data-name="그룹 2229" transform="translate(-225.967 -819.45)">
    <g id="그룹_2228" data-name="그룹 2228" transform="translate(225.967 819.45)">
      <rect id="사각형_2644" data-name="사각형 2644" width="50" height="50" fill="none"/>
      <g id="그룹_2227" data-name="그룹 2227" transform="translate(6.992 7.572)">
        <path id="사각형_2645" data-name="사각형 2645" d="M6,0H30a6,6,0,0,1,6,6V28a4,4,0,0,1-4,4H4a4,4,0,0,1-4-4V6A6,6,0,0,1,6,0Z" transform="translate(0.008 2.857)" fill="none" stroke="#db2819" stroke-miterlimit="10" stroke-width="2"/>
        <path id="패스_2028" data-name="패스 2028" d="M232.959,835.893a6,6,0,0,1,5.995-6.005l24-.018a6,6,0,0,1,6.005,5.995Z" transform="translate(-232.959 -827.022)" fill="#db2819"/>
        <g id="그룹_2223" data-name="그룹 2223" transform="translate(7.995)">
          <rect id="사각형_2646" data-name="사각형 2646" width="4" height="5" rx="2" transform="translate(0 0.012)" fill="#fba911"/>
          <rect id="사각형_2647" data-name="사각형 2647" width="4" height="5" rx="2" transform="translate(16)" fill="#fba911"/>
        </g>
        <line id="선_370" data-name="선 370" y1="21.574" x2="31.409" transform="translate(2.417 10.866)" fill="none" stroke="#db2819" stroke-linecap="round" stroke-miterlimit="10" stroke-width="5" opacity="0.2"/>
        <g id="그룹_2224" data-name="그룹 2224" transform="translate(9.764 16.982)">
          <path id="패스_2029" data-name="패스 2029" d="M242.963,845.252a3.43,3.43,0,0,1,1.032-.906,3.075,3.075,0,0,1,1.536-.342,3.65,3.65,0,0,1,1.1.156,2.535,2.535,0,0,1,.84.438,1.954,1.954,0,0,1,.54.684,2.02,2.02,0,0,1,.192.882v.12a3.129,3.129,0,0,1-.054.546,1.935,1.935,0,0,1-.2.564,1.981,1.981,0,0,1-.384.5,1.84,1.84,0,0,1-.612.372,1.971,1.971,0,0,1,1.271.684,2.013,2.013,0,0,1,.409,1.272v.179a2.421,2.421,0,0,1-.192.949,2.23,2.23,0,0,1-.582.8,2.933,2.933,0,0,1-.984.559,4.162,4.162,0,0,1-1.386.21,4.58,4.58,0,0,1-1.458-.234,4.215,4.215,0,0,1-1.314-.726l.756-1.2q.312.228.57.384a3.014,3.014,0,0,0,.5.246,2.4,2.4,0,0,0,.468.126,3.161,3.161,0,0,0,.492.036,1.844,1.844,0,0,0,1.2-.324,1.114,1.114,0,0,0,.384-.9v-.156a1.113,1.113,0,0,0-.372-.93,1.944,1.944,0,0,0-1.2-.294h-1.165v-1.32h1.033a2.059,2.059,0,0,0,.666-.09.938.938,0,0,0,.4-.252.883.883,0,0,0,.2-.4,2.34,2.34,0,0,0,.054-.51v-.1a.809.809,0,0,0-.318-.714,1.474,1.474,0,0,0-.858-.222,1.73,1.73,0,0,0-.894.2,2.851,2.851,0,0,0-.63.515Z" transform="translate(-242.723 -844.004)" fill="#030504"/>
        </g>
        <g id="그룹_2226" data-name="그룹 2226" transform="translate(16.545 16.518)">
          <g id="그룹_2225" data-name="그룹 2225">
            <path id="패스_2030" data-name="패스 2030" d="M249.5,843.92h4.35v1.04h-3.11v1.83q.531,0,1-.006c.314,0,.618-.01.915-.019s.6-.027.9-.05.61-.052.93-.085l.11,1.019c-.3.04-.615.073-.945.1s-.7.041-1.1.055-.849.021-1.345.024-1.065.006-1.705.006Zm7,4.64v2.66h-4.59v.71h4.87v1h-6.09v-2.66h4.59v-.71h-4.64v-1Zm0-3.321h1.22v1.1H256.5v1.8h-1.26v-4.6h1.26Z" transform="translate(-249.504 -843.54)" fill="#030504"/>
          </g>
        </g>
      </g>
    </g>
    <rect id="사각형_2648" data-name="사각형 2648" width="50" height="50" transform="translate(225.967 819.45)" fill="none"/>
  </g>
</svg>
