<svg xmlns="http://www.w3.org/2000/svg" width="50" height="50" viewBox="0 0 50 50">
  <g id="그룹_2222" data-name="그룹 2222" transform="translate(-166.463 -819.45)">
    <g id="그룹_2221" data-name="그룹 2221" transform="translate(166.463 819.45)">
      <rect id="사각형_2639" data-name="사각형 2639" width="50" height="50" fill="none"/>
      <g id="그룹_2220" data-name="그룹 2220" transform="translate(6.992 7.572)">
        <path id="사각형_2640" data-name="사각형 2640" d="M6,0H30a6,6,0,0,1,6,6V28a4,4,0,0,1-4,4H4a4,4,0,0,1-4-4V6A6,6,0,0,1,6,0Z" transform="translate(0.007 2.857)" fill="none" stroke="#db2819" stroke-miterlimit="10" stroke-width="2"/>
        <path id="패스_2025" data-name="패스 2025" d="M173.455,835.893a6,6,0,0,1,5.995-6.005l24-.018a6,6,0,0,1,6.005,5.995Z" transform="translate(-173.455 -827.022)" fill="#db2819"/>
        <g id="그룹_2216" data-name="그룹 2216" transform="translate(7.995)">
          <rect id="사각형_2641" data-name="사각형 2641" width="4" height="5" rx="2" transform="translate(0 0.012)" fill="#fba911"/>
          <rect id="사각형_2642" data-name="사각형 2642" width="4" height="5" rx="2" transform="translate(16)" fill="#fba911"/>
        </g>
        <line id="선_369" data-name="선 369" y1="21.574" x2="31.409" transform="translate(2.417 10.866)" fill="none" stroke="#db2819" stroke-linecap="round" stroke-miterlimit="10" stroke-width="5" opacity="0.2"/>
        <g id="그룹_2217" data-name="그룹 2217" transform="translate(9.824 16.982)">
          <path id="패스_2026" data-name="패스 2026" d="M186.458,848.359a6.884,6.884,0,0,0,.588-.671,3.115,3.115,0,0,0,.325-.516,1.368,1.368,0,0,0,.131-.42,3,3,0,0,0,.025-.372v-.1a.876.876,0,0,0-.282-.63,1.322,1.322,0,0,0-.954-.282,2.339,2.339,0,0,0-.474.048,1.529,1.529,0,0,0-.462.18,1.943,1.943,0,0,0-.45.372,3.462,3.462,0,0,0-.439.612l-1.151-.756a5.993,5.993,0,0,1,.39-.6,2.818,2.818,0,0,1,.587-.594,3.234,3.234,0,0,1,.84-.45,3.28,3.28,0,0,1,1.147-.18,3.9,3.9,0,0,1,1.26.18,2.511,2.511,0,0,1,.87.486,1.914,1.914,0,0,1,.5.708,2.261,2.261,0,0,1,.162.846v.12a3,3,0,0,1-.319,1.349,4.8,4.8,0,0,1-.929,1.255l-2.544,2.568H189.4v1.272h-6.12v-1.152Z" transform="translate(-183.279 -844.004)" fill="#030504"/>
        </g>
        <g id="그룹_2219" data-name="그룹 2219" transform="translate(16.545 16.518)">
          <g id="그룹_2218" data-name="그룹 2218">
            <path id="패스_2027" data-name="패스 2027" d="M190,843.92h4.349v1.04H191.24v1.83q.529,0,1-.006c.313,0,.618-.01.915-.019s.6-.027.894-.05.611-.052.931-.085l.109,1.019c-.3.04-.615.073-.944.1s-.7.041-1.1.055-.848.021-1.344.024-1.066.006-1.705.006Zm7,4.64v2.66h-4.59v.71h4.87v1h-6.09v-2.66h4.59v-.71h-4.641v-1Zm0-3.321h1.219v1.1H197v1.8h-1.26v-4.6H197Z" transform="translate(-190 -843.54)" fill="#030504"/>
          </g>
        </g>
      </g>
    </g>
    <rect id="사각형_2643" data-name="사각형 2643" width="50" height="50" transform="translate(166.463 819.45)" fill="none"/>
  </g>
</svg>
