<svg xmlns="http://www.w3.org/2000/svg" width="50" height="50" viewBox="0 0 50 50">
    <defs>
        <style>
            .prefix__cls-1{fill:#1a1818}.prefix__cls-2{fill:none}.prefix__cls-5{fill:#fba911}
        </style>
    </defs>
    <g id="prefix__그룹_3582" data-name="그룹 3582" transform="translate(-109.52 -743.012)">
        <g id="prefix__그룹_3577" data-name="그룹 3577">
            <path id="prefix__패스_4268" d="M126.85 775.783v-5.877l-1.67.957-.632-1.058 2.452-1.366h1.15v7.344z" class="prefix__cls-1" data-name="패스 4268"/>
            <path id="prefix__패스_4269" d="M135.579 772.677a3.749 3.749 0 0 1-.662 2.393 2.408 2.408 0 0 1-2 .826 2.525 2.525 0 0 1-2.028-.836 3.574 3.574 0 0 1-.713-2.383v-1.141a3.573 3.573 0 0 1 .708-2.379 2.493 2.493 0 0 1 2-.83 2.457 2.457 0 0 1 2 .83 3.621 3.621 0 0 1 .693 2.379zm-1.314-1.152a3.624 3.624 0 0 0-.117-1.018 1.568 1.568 0 0 0-.306-.6.93.93 0 0 0-.438-.28 1.882 1.882 0 0 0-.514-.071 1.855 1.855 0 0 0-.505.071.978.978 0 0 0-.448.285 1.572 1.572 0 0 0-.32.6 3.433 3.433 0 0 0-.122 1.007v1.162a3.34 3.34 0 0 0 .127 1.018 1.572 1.572 0 0 0 .331.6 1.015 1.015 0 0 0 .458.285 1.907 1.907 0 0 0 .51.071 1.818 1.818 0 0 0 .508-.071.917.917 0 0 0 .429-.28 1.564 1.564 0 0 0 .295-.6 3.853 3.853 0 0 0 .112-1.029z" class="prefix__cls-1" data-name="패스 4269"/>
            <path id="prefix__패스_4270" d="M139.063 772.065a2.811 2.811 0 0 1-1.018-.172 2.458 2.458 0 0 1-.765-.459 1.946 1.946 0 0 1-.479-.652 1.848 1.848 0 0 1-.163-.754v-.328a1.844 1.844 0 0 1 .163-.753 1.936 1.936 0 0 1 .479-.652 2.419 2.419 0 0 1 .765-.458 3.068 3.068 0 0 1 2.037 0 2.42 2.42 0 0 1 .763.458 1.936 1.936 0 0 1 .479.652 1.844 1.844 0 0 1 .163.753v.326a1.848 1.848 0 0 1-.163.754 1.946 1.946 0 0 1-.479.652 2.46 2.46 0 0 1-.763.459 2.824 2.824 0 0 1-1.019.174zm0-3.32a1.406 1.406 0 0 0-.51.087 1.27 1.27 0 0 0-.381.224.94.94 0 0 0-.24.31.834.834 0 0 0-.081.357v.285a.83.83 0 0 0 .081.356.934.934 0 0 0 .24.311 1.249 1.249 0 0 0 .381.224 1.552 1.552 0 0 0 1.019 0 1.266 1.266 0 0 0 .382-.224.931.931 0 0 0 .239-.311.817.817 0 0 0 .082-.356v-.285a.821.821 0 0 0-.082-.357.936.936 0 0 0-.239-.31 1.288 1.288 0 0 0-.382-.224 1.4 1.4 0 0 0-.509-.087zm5.144 3.9v2.7h-4.7v.714h4.981v1.018h-6.224v-2.7h4.7v-.713h-4.747v-1.018zm0-.429h-1.284v-4.705h1.284z" class="prefix__cls-1" data-name="패스 4270"/>
        </g>
        <g id="prefix__그룹_3581" data-name="그룹 3581">
            <g id="prefix__그룹_3580" data-name="그룹 3580">
                <path id="prefix__사각형_3177" d="M0 0H50V50H0z" class="prefix__cls-2" data-name="사각형 3177" transform="translate(109.52 743.012)"/>
                <g id="prefix__그룹_3579" data-name="그룹 3579">
                    <path id="prefix__사각형_3178" d="M6 0h24a6 6 0 0 1 6 6v22a4 4 0 0 1-4 4H4a4 4 0 0 1-4-4V6a6 6 0 0 1 6-6z" data-name="사각형 3178" transform="translate(116.519 753.44)" style="stroke-width:2px;stroke:#db2819;stroke-miterlimit:10;fill:none"/>
                    <path id="prefix__패스_4271" d="M116.512 759.454a6 6 0 0 1 6-6l24-.019a6 6 0 0 1 6 6z" data-name="패스 4271" style="fill:#db2819"/>
                    <g id="prefix__그룹_3578" data-name="그룹 3578">
                        <rect id="prefix__사각형_3179" width="4" height="5" class="prefix__cls-5" data-name="사각형 3179" rx="2" transform="translate(124.507 750.596)"/>
                        <rect id="prefix__사각형_3180" width="4" height="5" class="prefix__cls-5" data-name="사각형 3180" rx="2" transform="translate(140.507 750.583)"/>
                    </g>
                    <path id="prefix__선_801" d="M0 21.574L31.409 0" data-name="선 801" transform="translate(118.929 761.45)" style="stroke-linecap:round;stroke-width:5px;opacity:.2;stroke:#db2819;stroke-miterlimit:10;fill:none"/>
                </g>
            </g>
            <path id="prefix__사각형_3181" d="M0 0H50V50H0z" class="prefix__cls-2" data-name="사각형 3181" transform="translate(109.52 743.012)"/>
        </g>
    </g>
</svg>
