<svg xmlns="http://www.w3.org/2000/svg" width="50" height="50" viewBox="0 0 50 50">
  <g id="그룹_2166" data-name="그룹 2166" transform="translate(-285.473 -722.269)">
    <g id="그룹_2165" data-name="그룹 2165" transform="translate(285.472 722.269)">
      <rect id="사각형_2599" data-name="사각형 2599" width="50" height="50" fill="none"/>
      <g id="그룹_2164" data-name="그룹 2164" transform="translate(6.992 7.572)">
        <path id="사각형_2600" data-name="사각형 2600" d="M6,0H30a6,6,0,0,1,6,6V28a4,4,0,0,1-4,4H4a4,4,0,0,1-4-4V6A6,6,0,0,1,6,0Z" transform="translate(0.007 2.857)" fill="none" stroke="#db2819" stroke-miterlimit="10" stroke-width="2"/>
        <path id="패스_2001" data-name="패스 2001" d="M292.464,738.711a6,6,0,0,1,6-6l24-.019a6,6,0,0,1,6,6Z" transform="translate(-292.464 -729.84)" fill="#db2819"/>
        <g id="그룹_2160" data-name="그룹 2160" transform="translate(7.995)">
          <rect id="사각형_2601" data-name="사각형 2601" width="4" height="5" rx="2" transform="translate(0 0.012)" fill="#fba911"/>
          <rect id="사각형_2602" data-name="사각형 2602" width="4" height="5" rx="2" transform="translate(16)" fill="#fba911"/>
        </g>
        <line id="선_361" data-name="선 361" y1="21.574" x2="31.409" transform="translate(2.417 10.866)" fill="none" stroke="#db2819" stroke-linecap="round" stroke-miterlimit="10" stroke-width="5" opacity="0.2"/>
        <g id="그룹_2161" data-name="그룹 2161" transform="translate(9.391 17.115)">
          <path id="패스_2002" data-name="패스 2002" d="M307.675,749.979v2.591h1.176v1.237h-1.176v1.8h-1.511v-1.8h-4.309v-1l3.937-5.856h1.656l-3.781,5.615h2.5v-2.591Z" transform="translate(-301.855 -746.955)" fill="#030504"/>
        </g>
        <g id="그룹_2163" data-name="그룹 2163" transform="translate(16.464 16.518)">
          <g id="그룹_2162" data-name="그룹 2162">
            <path id="패스_2003" data-name="패스 2003" d="M311.308,750.828a2.77,2.77,0,0,1-1-.17,2.386,2.386,0,0,1-.75-.45,1.911,1.911,0,0,1-.47-.64,1.816,1.816,0,0,1-.16-.74v-.32a1.816,1.816,0,0,1,.16-.74,1.9,1.9,0,0,1,.47-.64,2.386,2.386,0,0,1,.75-.45,3.026,3.026,0,0,1,2,0,2.364,2.364,0,0,1,.75.45,1.9,1.9,0,0,1,.471.64,1.815,1.815,0,0,1,.159.74v.32a1.815,1.815,0,0,1-.159.74,1.914,1.914,0,0,1-.471.64,2.364,2.364,0,0,1-.75.45A2.763,2.763,0,0,1,311.308,750.828Zm0-3.26a1.4,1.4,0,0,0-.5.085,1.275,1.275,0,0,0-.375.22.9.9,0,0,0-.234.3.8.8,0,0,0-.08.35v.28a.8.8,0,0,0,.08.35.914.914,0,0,0,.234.3,1.275,1.275,0,0,0,.375.22,1.513,1.513,0,0,0,1,0,1.251,1.251,0,0,0,.375-.22.918.918,0,0,0,.235-.3.818.818,0,0,0,.081-.35v-.28a.818.818,0,0,0-.081-.35.909.909,0,0,0-.235-.3,1.251,1.251,0,0,0-.375-.22A1.389,1.389,0,0,0,311.308,747.568Zm5.05,3.83v2.65h-4.609v.7h4.889v1h-6.109V753.1h4.609v-.7h-4.66v-1Zm0-.42H315.1v-4.62h1.26Z" transform="translate(-308.928 -746.358)" fill="#030504"/>
          </g>
        </g>
      </g>
    </g>
    <rect id="사각형_2603" data-name="사각형 2603" width="50" height="50" transform="translate(285.472 722.269)" fill="none"/>
  </g>
</svg>
