<svg xmlns="http://www.w3.org/2000/svg" width="50" height="50" viewBox="0 0 50 50">
  <g id="그룹_2159" data-name="그룹 2159" transform="translate(-225.967 -722.269)">
    <g id="그룹_2158" data-name="그룹 2158" transform="translate(225.967 722.269)">
      <rect id="사각형_2594" data-name="사각형 2594" width="50" height="50" fill="none"/>
      <g id="그룹_2157" data-name="그룹 2157" transform="translate(6.992 7.572)">
        <path id="사각형_2595" data-name="사각형 2595" d="M6,0H30a6,6,0,0,1,6,6V28a4,4,0,0,1-4,4H4a4,4,0,0,1-4-4V6A6,6,0,0,1,6,0Z" transform="translate(0.008 2.857)" fill="none" stroke="#db2819" stroke-miterlimit="10" stroke-width="2"/>
        <path id="패스_1998" data-name="패스 1998" d="M232.959,738.711a6,6,0,0,1,5.995-6l24-.019a6,6,0,0,1,6.005,6Z" transform="translate(-232.959 -729.84)" fill="#db2819"/>
        <g id="그룹_2153" data-name="그룹 2153" transform="translate(7.995)">
          <rect id="사각형_2596" data-name="사각형 2596" width="4" height="5" rx="2" transform="translate(0 0.012)" fill="#fba911"/>
          <rect id="사각형_2597" data-name="사각형 2597" width="4" height="5" rx="2" transform="translate(16)" fill="#fba911"/>
        </g>
        <line id="선_360" data-name="선 360" y1="21.574" x2="31.409" transform="translate(2.417 10.866)" fill="none" stroke="#db2819" stroke-linecap="round" stroke-miterlimit="10" stroke-width="5" opacity="0.2"/>
        <g id="그룹_2154" data-name="그룹 2154" transform="translate(9.764 16.982)">
          <path id="패스_1999" data-name="패스 1999" d="M242.963,748.07a3.427,3.427,0,0,1,1.032-.905,3.075,3.075,0,0,1,1.536-.343,3.648,3.648,0,0,1,1.1.157,2.536,2.536,0,0,1,.84.438,1.945,1.945,0,0,1,.54.684,2.019,2.019,0,0,1,.192.881v.121a3.109,3.109,0,0,1-.054.545,1.942,1.942,0,0,1-.2.565,1.98,1.98,0,0,1-.384.5,1.874,1.874,0,0,1-.612.372,1.97,1.97,0,0,1,1.271.684,2.013,2.013,0,0,1,.409,1.272v.18a2.423,2.423,0,0,1-.192.948,2.25,2.25,0,0,1-.582.8,2.913,2.913,0,0,1-.984.557,4.135,4.135,0,0,1-1.386.21,4.579,4.579,0,0,1-1.458-.233,4.219,4.219,0,0,1-1.314-.727l.756-1.2q.312.227.57.384a3.181,3.181,0,0,0,.5.246,2.4,2.4,0,0,0,.468.126,3.293,3.293,0,0,0,.492.036,1.838,1.838,0,0,0,1.2-.324,1.116,1.116,0,0,0,.384-.9v-.156a1.111,1.111,0,0,0-.372-.929,1.938,1.938,0,0,0-1.2-.294h-1.165v-1.321h1.033a2.033,2.033,0,0,0,.666-.09.92.92,0,0,0,.4-.252.879.879,0,0,0,.2-.4,2.329,2.329,0,0,0,.054-.511V749.1a.808.808,0,0,0-.318-.714,1.475,1.475,0,0,0-.858-.222,1.721,1.721,0,0,0-.894.2,2.831,2.831,0,0,0-.63.516Z" transform="translate(-242.723 -746.822)" fill="#030504"/>
        </g>
        <g id="그룹_2156" data-name="그룹 2156" transform="translate(16.465 16.518)">
          <g id="그룹_2155" data-name="그룹 2155">
            <path id="패스_2000" data-name="패스 2000" d="M251.8,750.828a2.77,2.77,0,0,1-1-.17,2.386,2.386,0,0,1-.75-.45,1.9,1.9,0,0,1-.47-.64,1.816,1.816,0,0,1-.16-.74v-.32a1.816,1.816,0,0,1,.16-.74,1.888,1.888,0,0,1,.47-.64,2.386,2.386,0,0,1,.75-.45,3.026,3.026,0,0,1,2,0,2.364,2.364,0,0,1,.75.45,1.888,1.888,0,0,1,.47.64,1.8,1.8,0,0,1,.16.74v.32a1.8,1.8,0,0,1-.16.74,1.9,1.9,0,0,1-.47.64,2.364,2.364,0,0,1-.75.45A2.763,2.763,0,0,1,251.8,750.828Zm0-3.26a1.389,1.389,0,0,0-.5.085,1.251,1.251,0,0,0-.375.22.908.908,0,0,0-.235.3.818.818,0,0,0-.08.35v.28a.818.818,0,0,0,.08.35.918.918,0,0,0,.235.3,1.251,1.251,0,0,0,.375.22,1.513,1.513,0,0,0,1,0,1.276,1.276,0,0,0,.375-.22.945.945,0,0,0,.235-.3.818.818,0,0,0,.08-.35v-.28a.818.818,0,0,0-.08-.35.935.935,0,0,0-.235-.3,1.276,1.276,0,0,0-.375-.22A1.4,1.4,0,0,0,251.8,747.568Zm5.05,3.83v2.65h-4.61v.7h4.89v1h-6.11V753.1h4.61v-.7h-4.66v-1Zm0-.42h-1.26v-4.62h1.26Z" transform="translate(-249.424 -746.358)" fill="#030504"/>
          </g>
        </g>
      </g>
    </g>
    <rect id="사각형_2598" data-name="사각형 2598" width="50" height="50" transform="translate(225.967 722.269)" fill="none"/>
  </g>
</svg>
