<svg xmlns="http://www.w3.org/2000/svg" width="50" height="50" viewBox="0 0 50 50">
  <g id="그룹_2257" data-name="그룹 2257" transform="translate(-460.504 -722.269)">
    <g id="그룹_2256" data-name="그룹 2256" transform="translate(460.504 722.269)">
      <rect id="사각형_2664" data-name="사각형 2664" width="50" height="50" fill="none"/>
      <g id="그룹_2255" data-name="그룹 2255" transform="translate(6.991 7.572)">
        <path id="사각형_2665" data-name="사각형 2665" d="M6,0H30a6,6,0,0,1,6,6V28a4,4,0,0,1-4,4H4a4,4,0,0,1-4-4V6A6,6,0,0,1,6,0Z" transform="translate(0.008 2.857)" fill="none" stroke="#db2819" stroke-miterlimit="10" stroke-width="2"/>
        <path id="패스_2040" data-name="패스 2040" d="M467.495,738.711a6,6,0,0,1,6-6l24-.019a6,6,0,0,1,6,6Z" transform="translate(-467.495 -729.84)" fill="#db2819"/>
        <g id="그룹_2251" data-name="그룹 2251" transform="translate(7.996)">
          <rect id="사각형_2666" data-name="사각형 2666" width="4" height="5" rx="2" transform="translate(0 0.012)" fill="#fba911"/>
          <rect id="사각형_2667" data-name="사각형 2667" width="4" height="5" rx="2" transform="translate(16)" fill="#fba911"/>
        </g>
        <line id="선_374" data-name="선 374" y1="21.574" x2="31.409" transform="translate(2.418 10.866)" fill="none" stroke="#db2819" stroke-linecap="round" stroke-miterlimit="10" stroke-width="5" opacity="0.2"/>
        <g id="그룹_2252" data-name="그룹 2252" transform="translate(9.836 17.115)">
          <path id="패스_2041" data-name="패스 2041" d="M480.2,755.606h-1.62l3.324-7.355h-4.572v-1.3h6.18v1.176Z" transform="translate(-477.331 -746.955)" fill="#030504"/>
        </g>
        <g id="그룹_2254" data-name="그룹 2254" transform="translate(16.465 16.518)">
          <g id="그룹_2253" data-name="그룹 2253">
            <path id="패스_2042" data-name="패스 2042" d="M486.34,750.828a2.77,2.77,0,0,1-1-.17,2.386,2.386,0,0,1-.75-.45,1.911,1.911,0,0,1-.47-.64,1.816,1.816,0,0,1-.16-.74v-.32a1.816,1.816,0,0,1,.16-.74,1.9,1.9,0,0,1,.47-.64,2.386,2.386,0,0,1,.75-.45,3.026,3.026,0,0,1,2,0,2.364,2.364,0,0,1,.75.45,1.9,1.9,0,0,1,.471.64,1.815,1.815,0,0,1,.159.74v.32a1.815,1.815,0,0,1-.159.74,1.914,1.914,0,0,1-.471.64,2.364,2.364,0,0,1-.75.45A2.763,2.763,0,0,1,486.34,750.828Zm0-3.26a1.389,1.389,0,0,0-.5.085,1.251,1.251,0,0,0-.375.22.908.908,0,0,0-.235.3.817.817,0,0,0-.08.35v.28a.817.817,0,0,0,.08.35.918.918,0,0,0,.235.3,1.251,1.251,0,0,0,.375.22,1.513,1.513,0,0,0,1,0,1.276,1.276,0,0,0,.375-.22.945.945,0,0,0,.235-.3.818.818,0,0,0,.08-.35v-.28a.818.818,0,0,0-.08-.35.935.935,0,0,0-.235-.3,1.276,1.276,0,0,0-.375-.22A1.4,1.4,0,0,0,486.34,747.568Zm5.05,3.83v2.65h-4.61v.7h4.89v1h-6.109V753.1h4.609v-.7h-4.66v-1Zm0-.42h-1.26v-4.62h1.26Z" transform="translate(-483.96 -746.358)" fill="#030504"/>
          </g>
        </g>
      </g>
    </g>
    <rect id="사각형_2668" data-name="사각형 2668" width="50" height="50" transform="translate(460.504 722.269)" fill="none"/>
  </g>
</svg>
