<svg xmlns="http://www.w3.org/2000/svg" width="50" height="50" viewBox="0 0 50 50">
  <g id="그룹_2208" data-name="그룹 2208" transform="translate(-399.658 -722.269)">
    <g id="그룹_2207" data-name="그룹 2207" transform="translate(399.659 722.269)">
      <rect id="사각형_2629" data-name="사각형 2629" width="50" height="50" fill="none"/>
      <g id="그룹_2206" data-name="그룹 2206" transform="translate(6.991 7.572)">
        <path id="사각형_2630" data-name="사각형 2630" d="M6,0H30a6,6,0,0,1,6,6V28a4,4,0,0,1-4,4H4a4,4,0,0,1-4-4V6A6,6,0,0,1,6,0Z" transform="translate(0.008 2.857)" fill="none" stroke="#db2819" stroke-miterlimit="10" stroke-width="2"/>
        <path id="패스_2019" data-name="패스 2019" d="M406.65,738.711a6,6,0,0,1,6-6l24-.019a6,6,0,0,1,6,6Z" transform="translate(-406.65 -729.84)" fill="#db2819"/>
        <g id="그룹_2202" data-name="그룹 2202" transform="translate(7.996)">
          <rect id="사각형_2631" data-name="사각형 2631" width="4" height="5" rx="2" transform="translate(0 0.012)" fill="#fba911"/>
          <rect id="사각형_2632" data-name="사각형 2632" width="4" height="5" rx="2" transform="translate(16)" fill="#fba911"/>
        </g>
        <line id="선_367" data-name="선 367" y1="21.574" x2="31.409" transform="translate(2.418 10.866)" fill="none" stroke="#db2819" stroke-linecap="round" stroke-miterlimit="10" stroke-width="5" opacity="0.2"/>
        <g id="그룹_2203" data-name="그룹 2203" transform="translate(9.909 16.982)">
          <path id="패스_2020" data-name="패스 2020" d="M421.73,748.694a3.483,3.483,0,0,0-.852-.359,3.765,3.765,0,0,0-.983-.12,1.744,1.744,0,0,0-.643.12,1.428,1.428,0,0,0-.552.4,2.358,2.358,0,0,0-.414.744,4.056,4.056,0,0,0-.2,1.159,1.933,1.933,0,0,1,.847-.565,3.236,3.236,0,0,1,1.1-.191,3.042,3.042,0,0,1,1.128.2,2.323,2.323,0,0,1,.852.564,2.488,2.488,0,0,1,.534.881,3.351,3.351,0,0,1,.187,1.141v.239a2.99,2.99,0,0,1-.21,1.122,2.548,2.548,0,0,1-.607.9,2.814,2.814,0,0,1-.966.593,3.594,3.594,0,0,1-1.29.216,3.515,3.515,0,0,1-1.416-.258,2.416,2.416,0,0,1-.96-.737,3.154,3.154,0,0,1-.546-1.158,6.061,6.061,0,0,1-.173-1.506v-.553a8.5,8.5,0,0,1,.269-2.345,3.708,3.708,0,0,1,.738-1.441,2.442,2.442,0,0,1,1.092-.719,4.384,4.384,0,0,1,1.332-.2,5.449,5.449,0,0,1,1.2.139,3.3,3.3,0,0,1,1.1.462Zm-3.624,4.164a1.5,1.5,0,0,0,.384,1.1,1.515,1.515,0,0,0,1.128.39,1.655,1.655,0,0,0,1.195-.39,1.479,1.479,0,0,0,.4-1.11v-.132a1.516,1.516,0,0,0-.371-1.122,1.607,1.607,0,0,0-1.164-.366,1.982,1.982,0,0,0-.715.114,1.347,1.347,0,0,0-.485.311,1.231,1.231,0,0,0-.283.462,1.774,1.774,0,0,0-.09.565Z" transform="translate(-416.559 -746.822)" fill="#030504"/>
        </g>
        <g id="그룹_2205" data-name="그룹 2205" transform="translate(16.465 16.518)">
          <g id="그룹_2204" data-name="그룹 2204">
            <path id="패스_2021" data-name="패스 2021" d="M425.495,750.828a2.77,2.77,0,0,1-1-.17,2.386,2.386,0,0,1-.75-.45,1.911,1.911,0,0,1-.47-.64,1.816,1.816,0,0,1-.16-.74v-.32a1.816,1.816,0,0,1,.16-.74,1.9,1.9,0,0,1,.47-.64,2.386,2.386,0,0,1,.75-.45,3.026,3.026,0,0,1,2,0,2.364,2.364,0,0,1,.75.45,1.9,1.9,0,0,1,.471.64,1.815,1.815,0,0,1,.159.74v.32a1.815,1.815,0,0,1-.159.74,1.914,1.914,0,0,1-.471.64,2.364,2.364,0,0,1-.75.45A2.763,2.763,0,0,1,425.495,750.828Zm0-3.26a1.4,1.4,0,0,0-.5.085,1.276,1.276,0,0,0-.375.22.905.905,0,0,0-.234.3.8.8,0,0,0-.08.35v.28a.8.8,0,0,0,.08.35.915.915,0,0,0,.234.3,1.276,1.276,0,0,0,.375.22,1.513,1.513,0,0,0,1,0,1.251,1.251,0,0,0,.375-.22.918.918,0,0,0,.235-.3.819.819,0,0,0,.081-.35v-.28a.819.819,0,0,0-.081-.35.908.908,0,0,0-.235-.3,1.251,1.251,0,0,0-.375-.22A1.389,1.389,0,0,0,425.495,747.568Zm5.05,3.83v2.65h-4.609v.7h4.889v1h-6.109V753.1h4.609v-.7h-4.66v-1Zm0-.42h-1.26v-4.62h1.26Z" transform="translate(-423.115 -746.358)" fill="#030504"/>
          </g>
        </g>
      </g>
    </g>
    <rect id="사각형_2633" data-name="사각형 2633" width="50" height="50" transform="translate(399.659 722.269)" fill="none"/>
  </g>
</svg>
