<svg xmlns="http://www.w3.org/2000/svg" width="50" height="50" viewBox="0 0 50 50">
  <g id="그룹_2201" data-name="그룹 2201" transform="translate(-342.719 -722.269)">
    <g id="그룹_2200" data-name="그룹 2200" transform="translate(342.72 722.269)">
      <rect id="사각형_2624" data-name="사각형 2624" width="50" height="50" fill="none"/>
      <g id="그룹_2199" data-name="그룹 2199" transform="translate(6.991 7.572)">
        <path id="사각형_2625" data-name="사각형 2625" d="M6,0H30a6,6,0,0,1,6,6V28a4,4,0,0,1-4,4H4a4,4,0,0,1-4-4V6A6,6,0,0,1,6,0Z" transform="translate(0.008 2.857)" fill="none" stroke="#db2819" stroke-miterlimit="10" stroke-width="2"/>
        <path id="패스_2016" data-name="패스 2016" d="M349.711,738.711a6,6,0,0,1,6-6l24-.019a6,6,0,0,1,6,6Z" transform="translate(-349.711 -729.84)" fill="#db2819"/>
        <g id="그룹_2195" data-name="그룹 2195" transform="translate(7.995)">
          <rect id="사각형_2626" data-name="사각형 2626" width="4" height="5" rx="2" transform="translate(0 0.012)" fill="#fba911"/>
          <rect id="사각형_2627" data-name="사각형 2627" width="4" height="5" rx="2" transform="translate(16)" fill="#fba911"/>
        </g>
        <line id="선_366" data-name="선 366" y1="21.574" x2="31.409" transform="translate(2.418 10.866)" fill="none" stroke="#db2819" stroke-linecap="round" stroke-miterlimit="10" stroke-width="5" opacity="0.2"/>
        <g id="그룹_2196" data-name="그룹 2196" transform="translate(9.92 17.115)">
          <path id="패스_2017" data-name="패스 2017" d="M364.24,752.715a1.387,1.387,0,0,0-.4-1.069,1.588,1.588,0,0,0-1.122-.372,2.085,2.085,0,0,0-.954.205,2.823,2.823,0,0,0-.689.48H360.04l.275-5h4.908v1.272H361.7l-.1,2.255a3.582,3.582,0,0,1,.685-.311,2.852,2.852,0,0,1,.924-.132,2.641,2.641,0,0,1,1.1.216,2.4,2.4,0,0,1,.811.582,2.5,2.5,0,0,1,.5.846,3.019,3.019,0,0,1,.168,1v.179a3.242,3.242,0,0,1-.174,1.033,2.541,2.541,0,0,1-.553.923,2.838,2.838,0,0,1-.96.666,3.43,3.43,0,0,1-1.4.258,6.156,6.156,0,0,1-1.681-.21,3.732,3.732,0,0,1-1.392-.75l.744-1.212a4.058,4.058,0,0,0,.588.4,3.138,3.138,0,0,0,.571.24,3.034,3.034,0,0,0,.569.113,5.421,5.421,0,0,0,.588.031,1.489,1.489,0,0,0,1.171-.426,1.56,1.56,0,0,0,.378-1.074Z" transform="translate(-359.631 -746.955)" fill="#030504"/>
        </g>
        <g id="그룹_2198" data-name="그룹 2198" transform="translate(16.465 16.518)">
          <g id="그룹_2197" data-name="그룹 2197">
            <path id="패스_2018" data-name="패스 2018" d="M368.556,750.828a2.77,2.77,0,0,1-1-.17,2.386,2.386,0,0,1-.75-.45,1.911,1.911,0,0,1-.47-.64,1.816,1.816,0,0,1-.16-.74v-.32a1.816,1.816,0,0,1,.16-.74,1.9,1.9,0,0,1,.47-.64,2.386,2.386,0,0,1,.75-.45,3.026,3.026,0,0,1,2,0,2.364,2.364,0,0,1,.75.45,1.9,1.9,0,0,1,.471.64,1.815,1.815,0,0,1,.159.74v.32a1.815,1.815,0,0,1-.159.74,1.914,1.914,0,0,1-.471.64,2.364,2.364,0,0,1-.75.45A2.763,2.763,0,0,1,368.556,750.828Zm0-3.26a1.4,1.4,0,0,0-.5.085,1.276,1.276,0,0,0-.375.22.918.918,0,0,0-.234.3.8.8,0,0,0-.08.35v.28a.8.8,0,0,0,.08.35.928.928,0,0,0,.234.3,1.276,1.276,0,0,0,.375.22,1.513,1.513,0,0,0,1,0,1.251,1.251,0,0,0,.375-.22.934.934,0,0,0,.236-.3.832.832,0,0,0,.08-.35v-.28a.832.832,0,0,0-.08-.35.924.924,0,0,0-.236-.3,1.251,1.251,0,0,0-.375-.22A1.389,1.389,0,0,0,368.556,747.568Zm5.05,3.83v2.65H369v.7h4.889v1h-6.109V753.1h4.609v-.7h-4.66v-1Zm0-.42h-1.26v-4.62h1.26Z" transform="translate(-366.176 -746.358)" fill="#030504"/>
          </g>
        </g>
      </g>
    </g>
    <rect id="사각형_2628" data-name="사각형 2628" width="50" height="50" transform="translate(342.72 722.269)" fill="none"/>
  </g>
</svg>
