<svg xmlns="http://www.w3.org/2000/svg" width="50" height="50" viewBox="0 0 50 50">
  <g id="그룹_2152" data-name="그룹 2152" transform="translate(-166.463 -722.269)">
    <g id="그룹_2151" data-name="그룹 2151" transform="translate(166.463 722.269)">
      <rect id="사각형_2589" data-name="사각형 2589" width="50" height="50" fill="none"/>
      <g id="그룹_2150" data-name="그룹 2150" transform="translate(6.992 7.572)">
        <path id="사각형_2590" data-name="사각형 2590" d="M6,0H30a6,6,0,0,1,6,6V28a4,4,0,0,1-4,4H4a4,4,0,0,1-4-4V6A6,6,0,0,1,6,0Z" transform="translate(0.007 2.857)" fill="none" stroke="#db2819" stroke-miterlimit="10" stroke-width="2"/>
        <path id="패스_1995" data-name="패스 1995" d="M173.455,738.711a6,6,0,0,1,5.995-6l24-.019a6,6,0,0,1,6.005,6Z" transform="translate(-173.455 -729.84)" fill="#db2819"/>
        <g id="그룹_2146" data-name="그룹 2146" transform="translate(7.995)">
          <rect id="사각형_2591" data-name="사각형 2591" width="4" height="5" rx="2" transform="translate(0 0.012)" fill="#fba911"/>
          <rect id="사각형_2592" data-name="사각형 2592" width="4" height="5" rx="2" transform="translate(16)" fill="#fba911"/>
        </g>
        <line id="선_359" data-name="선 359" y1="21.574" x2="31.409" transform="translate(2.417 10.866)" fill="none" stroke="#db2819" stroke-linecap="round" stroke-miterlimit="10" stroke-width="5" opacity="0.2"/>
        <g id="그룹_2147" data-name="그룹 2147" transform="translate(9.824 16.982)">
          <path id="패스_1996" data-name="패스 1996" d="M186.458,751.179a7.132,7.132,0,0,0,.588-.672,3.116,3.116,0,0,0,.325-.517,1.352,1.352,0,0,0,.131-.42,3,3,0,0,0,.025-.372V749.1a.876.876,0,0,0-.282-.63,1.321,1.321,0,0,0-.954-.283,2.411,2.411,0,0,0-.474.048,1.557,1.557,0,0,0-.462.181,1.942,1.942,0,0,0-.45.372,3.487,3.487,0,0,0-.439.611l-1.151-.756a6.235,6.235,0,0,1,.39-.6,2.84,2.84,0,0,1,.587-.594,3.2,3.2,0,0,1,.84-.45,3.3,3.3,0,0,1,1.147-.181,3.927,3.927,0,0,1,1.26.181,2.526,2.526,0,0,1,.87.485,1.923,1.923,0,0,1,.5.708,2.271,2.271,0,0,1,.162.847v.12a3,3,0,0,1-.319,1.35,4.847,4.847,0,0,1-.929,1.254l-2.544,2.568H189.4v1.271h-6.12v-1.151Z" transform="translate(-183.279 -746.822)" fill="#030504"/>
        </g>
        <g id="그룹_2149" data-name="그룹 2149" transform="translate(16.464 16.518)">
          <g id="그룹_2148" data-name="그룹 2148">
            <path id="패스_1997" data-name="패스 1997" d="M192.3,750.828a2.77,2.77,0,0,1-1-.17,2.386,2.386,0,0,1-.75-.45,1.9,1.9,0,0,1-.469-.64,1.8,1.8,0,0,1-.161-.74v-.32a1.8,1.8,0,0,1,.161-.74,1.885,1.885,0,0,1,.469-.64,2.386,2.386,0,0,1,.75-.45,3.026,3.026,0,0,1,2,0,2.364,2.364,0,0,1,.75.45,1.891,1.891,0,0,1,.471.64,1.815,1.815,0,0,1,.159.74v.32a1.815,1.815,0,0,1-.159.74,1.9,1.9,0,0,1-.471.64,2.364,2.364,0,0,1-.75.45A2.763,2.763,0,0,1,192.3,750.828Zm0-3.26a1.4,1.4,0,0,0-.5.085,1.276,1.276,0,0,0-.375.22.918.918,0,0,0-.234.3.8.8,0,0,0-.08.35v.28a.8.8,0,0,0,.08.35.928.928,0,0,0,.234.3,1.276,1.276,0,0,0,.375.22,1.513,1.513,0,0,0,1,0,1.251,1.251,0,0,0,.375-.22.935.935,0,0,0,.236-.3.832.832,0,0,0,.08-.35v-.28a.832.832,0,0,0-.08-.35.925.925,0,0,0-.236-.3,1.251,1.251,0,0,0-.375-.22A1.389,1.389,0,0,0,192.3,747.568Zm5.05,3.83v2.65H192.74v.7h4.889v1H191.52V753.1h4.609v-.7h-4.66v-1Zm0-.42h-1.26v-4.62h1.26Z" transform="translate(-189.919 -746.358)" fill="#030504"/>
          </g>
        </g>
      </g>
    </g>
    <rect id="사각형_2593" data-name="사각형 2593" width="50" height="50" transform="translate(166.463 722.269)" fill="none"/>
  </g>
</svg>
