<svg xmlns="http://www.w3.org/2000/svg" width="50" height="50" viewBox="0 0 50 50">
  <g id="그룹_2145" data-name="그룹 2145" transform="translate(-106.959 -722.269)">
    <g id="그룹_2144" data-name="그룹 2144" transform="translate(106.958 722.269)">
      <rect id="사각형_2584" data-name="사각형 2584" width="50" height="50" fill="none"/>
      <g id="그룹_2143" data-name="그룹 2143" transform="translate(6.992 7.572)">
        <path id="사각형_2585" data-name="사각형 2585" d="M6,0H30a6,6,0,0,1,6,6V28a4,4,0,0,1-4,4H4a4,4,0,0,1-4-4V6A6,6,0,0,1,6,0Z" transform="translate(0.008 2.857)" fill="none" stroke="#db2819" stroke-miterlimit="10" stroke-width="2"/>
        <path id="패스_1992" data-name="패스 1992" d="M113.95,738.711a6,6,0,0,1,6-6l24-.019a6,6,0,0,1,6,6Z" transform="translate(-113.95 -729.84)" fill="#db2819"/>
        <g id="그룹_2139" data-name="그룹 2139" transform="translate(7.995)">
          <rect id="사각형_2586" data-name="사각형 2586" width="4" height="5" rx="2" transform="translate(0 0.012)" fill="#fba911"/>
          <rect id="사각형_2587" data-name="사각형 2587" width="4" height="5" rx="2" transform="translate(16)" fill="#fba911"/>
        </g>
        <line id="선_358" data-name="선 358" y1="21.574" x2="31.409" transform="translate(2.417 10.866)" fill="none" stroke="#db2819" stroke-linecap="round" stroke-miterlimit="10" stroke-width="5" opacity="0.2"/>
        <g id="그룹_2140" data-name="그룹 2140" transform="translate(10.556 17.115)">
          <path id="패스_1993" data-name="패스 1993" d="M127.218,755.606v-6.923l-1.968,1.128-.744-1.248,2.892-1.608h1.356v8.651Z" transform="translate(-124.506 -746.955)" fill="#030504"/>
        </g>
        <g id="그룹_2142" data-name="그룹 2142" transform="translate(16.465 16.518)">
          <g id="그룹_2141" data-name="그룹 2141">
            <path id="패스_1994" data-name="패스 1994" d="M132.795,750.828a2.77,2.77,0,0,1-1-.17,2.386,2.386,0,0,1-.75-.45,1.911,1.911,0,0,1-.47-.64,1.816,1.816,0,0,1-.16-.74v-.32a1.816,1.816,0,0,1,.16-.74,1.9,1.9,0,0,1,.47-.64,2.386,2.386,0,0,1,.75-.45,3.026,3.026,0,0,1,2,0,2.364,2.364,0,0,1,.75.45,1.9,1.9,0,0,1,.471.64,1.815,1.815,0,0,1,.159.74v.32a1.815,1.815,0,0,1-.159.74,1.914,1.914,0,0,1-.471.64,2.364,2.364,0,0,1-.75.45A2.763,2.763,0,0,1,132.795,750.828Zm0-3.26a1.389,1.389,0,0,0-.5.085,1.251,1.251,0,0,0-.375.22.892.892,0,0,0-.234.3.8.8,0,0,0-.081.35v.28a.8.8,0,0,0,.081.35.9.9,0,0,0,.234.3,1.251,1.251,0,0,0,.375.22,1.513,1.513,0,0,0,1,0,1.276,1.276,0,0,0,.375-.22.931.931,0,0,0,.235-.3.818.818,0,0,0,.08-.35v-.28a.818.818,0,0,0-.08-.35.921.921,0,0,0-.235-.3,1.276,1.276,0,0,0-.375-.22A1.4,1.4,0,0,0,132.795,747.568Zm5.05,3.83v2.65h-4.61v.7h4.89v1h-6.109V753.1h4.609v-.7h-4.66v-1Zm0-.42h-1.26v-4.62h1.26Z" transform="translate(-130.415 -746.358)" fill="#030504"/>
          </g>
        </g>
      </g>
    </g>
    <rect id="사각형_2588" data-name="사각형 2588" width="50" height="50" transform="translate(106.958 722.269)" fill="none"/>
  </g>
</svg>
