<svg xmlns="http://www.w3.org/2000/svg" width="50" height="50" viewBox="0 0 50 50">
  <g id="그룹_2194" data-name="그룹 2194" transform="translate(-285.473 -770.86)">
    <g id="그룹_2193" data-name="그룹 2193" transform="translate(285.472 770.859)">
      <rect id="사각형_2619" data-name="사각형 2619" width="50" height="50" fill="none"/>
      <g id="그룹_2192" data-name="그룹 2192" transform="translate(6.992 7.572)">
        <path id="사각형_2620" data-name="사각형 2620" d="M6,0H30a6,6,0,0,1,6,6V28a4,4,0,0,1-4,4H4a4,4,0,0,1-4-4V6A6,6,0,0,1,6,0Z" transform="translate(0.007 2.857)" fill="none" stroke="#db2819" stroke-miterlimit="10" stroke-width="2"/>
        <path id="패스_2013" data-name="패스 2013" d="M292.464,787.3a6,6,0,0,1,6-6.005l24-.018a6,6,0,0,1,6,5.995Z" transform="translate(-292.464 -778.431)" fill="#db2819"/>
        <g id="그룹_2188" data-name="그룹 2188" transform="translate(7.995)">
          <rect id="사각형_2621" data-name="사각형 2621" width="4" height="5" rx="2" transform="translate(0 0.012)" fill="#fba911"/>
          <rect id="사각형_2622" data-name="사각형 2622" width="4" height="5" rx="2" transform="translate(16)" fill="#fba911"/>
        </g>
        <line id="선_365" data-name="선 365" y1="21.574" x2="31.409" transform="translate(2.417 10.866)" fill="none" stroke="#db2819" stroke-linecap="round" stroke-miterlimit="10" stroke-width="5" opacity="0.2"/>
        <g id="그룹_2189" data-name="그룹 2189" transform="translate(9.391 17.114)">
          <path id="패스_2014" data-name="패스 2014" d="M307.675,798.569v2.592h1.176V802.4h-1.176v1.8h-1.511v-1.8h-4.309v-1l3.937-5.856h1.656l-3.781,5.616h2.5v-2.592Z" transform="translate(-301.855 -795.545)" fill="#030504"/>
        </g>
        <g id="그룹_2191" data-name="그룹 2191" transform="translate(16.164 17.028)">
          <g id="그룹_2190" data-name="그룹 2190">
            <path id="패스_2015" data-name="패스 2015" d="M317.148,800.159v1.07h-3.619v3.02h-1.271v-3.02h-3.63v-1.07Zm-7.47-4.7h6.42v1.07h-2.559v.079a1.023,1.023,0,0,0,.179.606,1.577,1.577,0,0,0,.611.465q.489.24,1.08.49t1.16.47l-.49.99c-.368-.147-.727-.3-1.08-.45s-.691-.3-1.01-.45a5.856,5.856,0,0,1-.716-.375,1.077,1.077,0,0,1-.355-.315h-.009a1.148,1.148,0,0,1-.38.325,6.963,6.963,0,0,1-.74.385q-.482.22-1.01.45t-1.08.449l-.491-1.009q.57-.22,1.161-.47c.392-.167.753-.33,1.08-.49a1.576,1.576,0,0,0,.609-.465,1.024,1.024,0,0,0,.181-.606v-.079h-2.561Z" transform="translate(-308.628 -795.459)" fill="#030504"/>
          </g>
        </g>
      </g>
    </g>
    <rect id="사각형_2623" data-name="사각형 2623" width="50" height="50" transform="translate(285.472 770.859)" fill="none"/>
  </g>
</svg>
