<svg xmlns="http://www.w3.org/2000/svg" width="50" height="50" viewBox="0 0 50 50">
  <g id="그룹_2187" data-name="그룹 2187" transform="translate(-225.967 -770.86)">
    <g id="그룹_2186" data-name="그룹 2186" transform="translate(225.967 770.859)">
      <rect id="사각형_2614" data-name="사각형 2614" width="50" height="50" fill="none"/>
      <g id="그룹_2185" data-name="그룹 2185" transform="translate(6.992 7.572)">
        <path id="사각형_2615" data-name="사각형 2615" d="M6,0H30a6,6,0,0,1,6,6V28a4,4,0,0,1-4,4H4a4,4,0,0,1-4-4V6A6,6,0,0,1,6,0Z" transform="translate(0.008 2.857)" fill="none" stroke="#db2819" stroke-miterlimit="10" stroke-width="2"/>
        <path id="패스_2010" data-name="패스 2010" d="M232.959,787.3a6,6,0,0,1,5.995-6.005l24-.018a6,6,0,0,1,6.005,5.995Z" transform="translate(-232.959 -778.431)" fill="#db2819"/>
        <g id="그룹_2181" data-name="그룹 2181" transform="translate(7.995)">
          <rect id="사각형_2616" data-name="사각형 2616" width="4" height="5" rx="2" transform="translate(0 0.012)" fill="#fba911"/>
          <rect id="사각형_2617" data-name="사각형 2617" width="4" height="5" rx="2" transform="translate(16)" fill="#fba911"/>
        </g>
        <line id="선_364" data-name="선 364" y1="21.574" x2="31.409" transform="translate(2.417 10.866)" fill="none" stroke="#db2819" stroke-linecap="round" stroke-miterlimit="10" stroke-width="5" opacity="0.2"/>
        <g id="그룹_2182" data-name="그룹 2182" transform="translate(9.764 16.982)">
          <path id="패스_2011" data-name="패스 2011" d="M242.963,796.661a3.413,3.413,0,0,1,1.032-.905,3.064,3.064,0,0,1,1.536-.343,3.65,3.65,0,0,1,1.1.156,2.538,2.538,0,0,1,.84.439,1.951,1.951,0,0,1,.54.683,2.023,2.023,0,0,1,.192.882v.12a3.128,3.128,0,0,1-.054.546,1.925,1.925,0,0,1-.2.564,1.981,1.981,0,0,1-.384.5,1.859,1.859,0,0,1-.612.373,1.969,1.969,0,0,1,1.271.683,2.013,2.013,0,0,1,.409,1.272v.18a2.428,2.428,0,0,1-.192.949,2.238,2.238,0,0,1-.582.8,2.93,2.93,0,0,1-.984.558,4.135,4.135,0,0,1-1.386.21,4.579,4.579,0,0,1-1.458-.233,4.239,4.239,0,0,1-1.314-.727l.756-1.2q.312.227.57.383a3.014,3.014,0,0,0,.5.246,2.481,2.481,0,0,0,.468.127,3.3,3.3,0,0,0,.492.035,1.833,1.833,0,0,0,1.2-.324,1.113,1.113,0,0,0,.384-.9v-.156a1.115,1.115,0,0,0-.372-.93,1.944,1.944,0,0,0-1.2-.294h-1.165v-1.32h1.033a2.033,2.033,0,0,0,.666-.09.938.938,0,0,0,.4-.252.878.878,0,0,0,.2-.4,2.326,2.326,0,0,0,.054-.51v-.1a.809.809,0,0,0-.318-.714,1.482,1.482,0,0,0-.858-.221,1.73,1.73,0,0,0-.894.2,2.887,2.887,0,0,0-.63.516Z" transform="translate(-242.723 -795.413)" fill="#030504"/>
        </g>
        <g id="그룹_2184" data-name="그룹 2184" transform="translate(16.165 17.028)">
          <g id="그룹_2183" data-name="그룹 2183">
            <path id="패스_2012" data-name="패스 2012" d="M257.644,800.159v1.07h-3.62v3.02h-1.27v-3.02h-3.63v-1.07Zm-7.47-4.7h6.42v1.07h-2.56v.079a1.024,1.024,0,0,0,.18.606,1.572,1.572,0,0,0,.61.465c.326.16.687.323,1.08.49s.78.323,1.16.47l-.49.99c-.367-.147-.726-.3-1.08-.45s-.69-.3-1.01-.45a5.762,5.762,0,0,1-.715-.375,1.077,1.077,0,0,1-.355-.315h-.01a1.127,1.127,0,0,1-.38.325,6.965,6.965,0,0,1-.74.385q-.48.22-1.01.45t-1.08.449l-.49-1.009q.57-.22,1.16-.47t1.08-.49a1.58,1.58,0,0,0,.61-.465,1.024,1.024,0,0,0,.18-.606v-.079h-2.56Z" transform="translate(-249.124 -795.459)" fill="#030504"/>
          </g>
        </g>
      </g>
    </g>
    <rect id="사각형_2618" data-name="사각형 2618" width="50" height="50" transform="translate(225.967 770.859)" fill="none"/>
  </g>
</svg>
