<svg xmlns="http://www.w3.org/2000/svg" width="50" height="50" viewBox="0 0 50 50">
  <g id="그룹_2180" data-name="그룹 2180" transform="translate(-166.463 -770.86)">
    <g id="그룹_2179" data-name="그룹 2179" transform="translate(166.463 770.859)">
      <rect id="사각형_2609" data-name="사각형 2609" width="50" height="50" fill="none"/>
      <g id="그룹_2178" data-name="그룹 2178" transform="translate(6.992 7.572)">
        <path id="사각형_2610" data-name="사각형 2610" d="M6,0H30a6,6,0,0,1,6,6V28a4,4,0,0,1-4,4H4a4,4,0,0,1-4-4V6A6,6,0,0,1,6,0Z" transform="translate(0.007 2.857)" fill="none" stroke="#db2819" stroke-miterlimit="10" stroke-width="2"/>
        <path id="패스_2007" data-name="패스 2007" d="M173.455,787.3a6,6,0,0,1,5.995-6.005l24-.018a6,6,0,0,1,6.005,5.995Z" transform="translate(-173.455 -778.431)" fill="#db2819"/>
        <g id="그룹_2174" data-name="그룹 2174" transform="translate(7.995)">
          <rect id="사각형_2611" data-name="사각형 2611" width="4" height="5" rx="2" transform="translate(0 0.012)" fill="#fba911"/>
          <rect id="사각형_2612" data-name="사각형 2612" width="4" height="5" rx="2" transform="translate(16)" fill="#fba911"/>
        </g>
        <line id="선_363" data-name="선 363" y1="21.574" x2="31.409" transform="translate(2.417 10.866)" fill="none" stroke="#db2819" stroke-linecap="round" stroke-miterlimit="10" stroke-width="5" opacity="0.2"/>
        <g id="그룹_2175" data-name="그룹 2175" transform="translate(9.824 16.982)">
          <path id="패스_2008" data-name="패스 2008" d="M186.458,799.77a7.132,7.132,0,0,0,.588-.672,3.159,3.159,0,0,0,.325-.517,1.36,1.36,0,0,0,.131-.42,3,3,0,0,0,.025-.372v-.1a.878.878,0,0,0-.282-.63,1.322,1.322,0,0,0-.954-.282,2.339,2.339,0,0,0-.474.048,1.531,1.531,0,0,0-.462.181,1.937,1.937,0,0,0-.45.371,3.5,3.5,0,0,0-.439.612l-1.151-.756a6.232,6.232,0,0,1,.39-.6,2.864,2.864,0,0,1,.587-.594,3.2,3.2,0,0,1,.84-.449,3.281,3.281,0,0,1,1.147-.181,3.9,3.9,0,0,1,1.26.181,2.494,2.494,0,0,1,.87.485,1.923,1.923,0,0,1,.5.708,2.265,2.265,0,0,1,.162.846v.121a3,3,0,0,1-.319,1.35,4.826,4.826,0,0,1-.929,1.253l-2.544,2.569H189.4V804.2h-6.12v-1.152Z" transform="translate(-183.279 -795.413)" fill="#030504"/>
        </g>
        <g id="그룹_2177" data-name="그룹 2177" transform="translate(16.165 17.028)">
          <g id="그룹_2176" data-name="그룹 2176">
            <path id="패스_2009" data-name="패스 2009" d="M198.139,800.159v1.07H194.52v3.02h-1.27v-3.02h-3.63v-1.07Zm-7.47-4.7h6.42v1.07H194.53v.079a1.023,1.023,0,0,0,.179.606,1.584,1.584,0,0,0,.611.465q.489.24,1.08.49t1.16.47l-.49.99q-.551-.221-1.08-.45c-.354-.154-.691-.3-1.01-.45a5.857,5.857,0,0,1-.716-.375,1.071,1.071,0,0,1-.354-.315h-.01a1.148,1.148,0,0,1-.38.325,6.965,6.965,0,0,1-.74.385q-.481.22-1.01.45c-.353.154-.714.3-1.08.449l-.49-1.009q.57-.22,1.16-.47c.392-.167.753-.33,1.08-.49a1.576,1.576,0,0,0,.609-.465,1.024,1.024,0,0,0,.181-.606v-.079h-2.561Z" transform="translate(-189.62 -795.459)" fill="#030504"/>
          </g>
        </g>
      </g>
    </g>
    <rect id="사각형_2613" data-name="사각형 2613" width="50" height="50" transform="translate(166.463 770.859)" fill="none"/>
  </g>
</svg>
