<svg xmlns="http://www.w3.org/2000/svg" width="90" height="90" viewBox="0 0 90 90">
    <defs>
        <style>
            .cls-1{fill:#909090}.cls-2{fill:#898989}.cls-3{opacity:.4}.cls-4{fill:#cbcbcb}.cls-5{fill:#d9d9d9}.cls-6{fill:#bebebe}.cls-7{fill:#eae9e5}.cls-8{fill:#e8e8e8}.cls-9{fill:#a7a7a7}.cls-10{fill:#3f6db5}.cls-11{fill:#a2a2a2}.cls-12{clip-path:url(#clip-path)}.cls-13{fill:#f0f0f0}.cls-14{fill:#fafafa}.cls-15{fill:#9d9d9d}.cls-16{clip-path:url(#clip-path-2)}.cls-17{fill:none}
        </style>
        <clipPath id="clip-path">
            <path id="사각형_3008" d="M0 0h16.548v15.381H0z" class="cls-1" data-name="사각형 3008"/>
        </clipPath>
        <clipPath id="clip-path-2">
            <path id="사각형_3011" d="M0 0h7.022v14.341H0z" class="cls-2" data-name="사각형 3011"/>
        </clipPath>
    </defs>
    <g id="그룹_3375" data-name="그룹 3375" transform="translate(-32 -125)">
        <g id="그룹_3310" class="cls-3" data-name="그룹 3310" transform="translate(.137 1.12)">
            <g id="그룹_1729" data-name="그룹 1729" transform="translate(52.316 156.396)">
                <g id="그룹_1727" data-name="그룹 1727" transform="translate(9.494 .187)">
                    <path id="패스_1678" d="M804.989 548.273c-13.9 0-25.174 9.959-25.174 25.4h50.347c0-15.441-11.27-25.4-25.173-25.4z" class="cls-4" data-name="패스 1678" transform="translate(-779.769 -548.273)"/>
                    <path id="패스_1679" d="M804.989 585.4c13.9 0 25.172-9.959 25.172-25.406h-50.346c0 15.45 11.272 25.406 25.174 25.406z" class="cls-5" data-name="패스 1679" transform="translate(-779.769 -534.593)"/>
                    <path id="패스_1680" d="M830.162 560h-3.3c0 13.441-9.805 22.1-21.9 22.1s-21.9-8.663-21.9-22.1h-3.272c0 15.447 11.27 25.406 25.172 25.406s25.172-9.959 25.172-25.406" class="cls-6" data-name="패스 1680" transform="translate(-779.794 -534.593)"/>
                    <path id="패스_1681" d="M779.81 573.677h3.3c0-13.439 9.805-22.1 21.9-22.1s21.9 8.663 21.9 22.1h3.272c0-15.445-11.27-25.4-25.172-25.4s-25.172 9.959-25.172 25.4" class="cls-7" data-name="패스 1681" transform="translate(-779.775 -548.273)"/>
                    <path id="패스_1682" d="M783.1 562.561h43.753l3.272-2.561h-50.3z" class="cls-8" data-name="패스 1682" transform="translate(-779.756 -534.592)"/>
                    <path id="패스_1683" d="M826.852 558.814H783.1l-3.273 2.564h50.3z" class="cls-9" data-name="패스 1683" transform="translate(-779.756 -535.973)"/>
                </g>
            </g>
            <g id="그룹_3309" data-name="그룹 3309" transform="translate(40.863 130.88)">
                <g id="그룹_3303" data-name="그룹 3303">
                    <path id="패스_3791" d="M42.133 31.95v41.03a3.133 3.133 0 0 1-3.14 3.14H3.14A3.133 3.133 0 0 1 0 72.98V31.95a13.167 13.167 0 0 1 7.171-11.732V15.4H7a2.485 2.485 0 0 1-2.481-2.48V2.482A2.485 2.485 0 0 1 7 0h28.154a2.481 2.481 0 0 1 2.461 2.482V12.92a2.481 2.481 0 0 1-2.461 2.48h-.191v4.816a13.167 13.167 0 0 1 7.17 11.734z" class="cls-10" data-name="패스 3791"/>
                </g>
                <path id="패스_3792" d="M32.765 15.381H4.612A2.472 2.472 0 0 1 2.13 12.9V2.482A2.472 2.472 0 0 1 4.612 0h28.153a2.472 2.472 0 0 1 2.482 2.482V12.92a2.481 2.481 0 0 1-2.482 2.461z" class="cls-11" data-name="패스 3792" transform="translate(2.389)"/>
                <path id="패스_3793" d="M34.963 12.087V7.25H7.171v4.837A13.167 13.167 0 0 0 0 23.819v41.03a3.133 3.133 0 0 0 3.14 3.14h35.853a3.133 3.133 0 0 0 3.14-3.14v-41.03a13.167 13.167 0 0 0-7.17-11.732z" class="cls-5" data-name="패스 3793" transform="translate(0 8.131)"/>
                <path id="패스_3794" d="M9.93 7.25h13.9v4.837A13.167 13.167 0 0 1 31 23.819v41.03a3.133 3.133 0 0 1-3.14 3.14H9.93z" class="cls-6" data-name="패스 3794" transform="translate(11.137 8.131)"/>
                <g id="그룹_3305" data-name="그룹 3305" transform="translate(21.067)">
                    <g id="그룹_3304" class="cls-12" data-name="그룹 3304">
                        <path id="패스_3795" d="M32.765 15.381H4.612A2.472 2.472 0 0 1 2.13 12.9V2.482A2.472 2.472 0 0 1 4.612 0h28.153a2.472 2.472 0 0 1 2.482 2.482V12.92a2.481 2.481 0 0 1-2.482 2.461z" class="cls-1" data-name="패스 3795" transform="translate(-18.678)"/>
                    </g>
                </g>
                <g id="그룹_3306" data-name="그룹 3306" transform="translate(0 37.466)">
                    <path id="사각형_3009" d="M0 0h42.133v24.058H0z" class="cls-13" data-name="사각형 3009"/>
                </g>
                <path id="사각형_3010" d="M0 0h20.939v24.058H0z" class="cls-14" data-name="사각형 3010" transform="translate(21.194 37.466)"/>
                <path id="패스_3796" d="M20.831 24.723h-4.794V19.95h-4.774v4.773H6.49V29.5h4.773v4.795h4.773V29.5h4.795z" class="cls-15" data-name="패스 3796" transform="translate(7.279 22.374)"/>
                <g id="그룹_3308" data-name="그룹 3308" transform="translate(21.067 42.324)">
                    <g id="그룹_3307" class="cls-16" data-name="그룹 3307">
                        <path id="패스_3797" d="M20.831 24.723h-4.794V19.95h-4.774v4.773H6.49V29.5h4.773v4.795h4.773V29.5h4.795z" class="cls-2" data-name="패스 3797" transform="translate(-13.788 -19.95)"/>
                    </g>
                </g>
            </g>
        </g>
        <path id="사각형_3073" d="M0 0h90v90H0z" class="cls-17" data-name="사각형 3073" transform="translate(32 125)"/>
    </g>
</svg>
