<svg xmlns="http://www.w3.org/2000/svg" width="50" height="50" viewBox="0 0 50 50">
  <g id="그룹_2066" data-name="그룹 2066" transform="translate(-285.473 -663.678)">
    <g id="그룹_2065" data-name="그룹 2065" transform="translate(292.472 670.678)">
      <g id="그룹_2058" data-name="그룹 2058" transform="translate(17)">
        <rect id="사각형_2503" data-name="사각형 2503" width="2" height="3" rx="1" fill="#99d7e2"/>
        <rect id="사각형_2504" data-name="사각형 2504" width="2" height="3" rx="1" transform="translate(0 33)" fill="#99d7e2"/>
      </g>
      <g id="그룹_2059" data-name="그룹 2059" transform="translate(4.565 4.565)">
        <rect id="사각형_2505" data-name="사각형 2505" width="2" height="3" rx="1" transform="translate(0 1.414) rotate(-45)" fill="#99d7e2"/>
        <rect id="사각형_2506" data-name="사각형 2506" width="2" height="3" rx="1" transform="translate(23.335 24.749) rotate(-45)" fill="#99d7e2"/>
      </g>
      <g id="그룹_2060" data-name="그룹 2060" transform="translate(0 17)">
        <rect id="사각형_2507" data-name="사각형 2507" width="2" height="3" rx="1" transform="translate(0 2) rotate(-90)" fill="#99d7e2"/>
        <rect id="사각형_2508" data-name="사각형 2508" width="2" height="3" rx="1" transform="translate(33 2) rotate(-90)" fill="#99d7e2"/>
      </g>
      <g id="그룹_2061" data-name="그룹 2061" transform="translate(4.565 4.565)">
        <rect id="사각형_2509" data-name="사각형 2509" width="2" height="3" rx="1" transform="translate(1.414 26.87) rotate(-135)" fill="#99d7e2"/>
        <rect id="사각형_2510" data-name="사각형 2510" width="2" height="3" rx="1" transform="translate(24.749 3.536) rotate(-135)" fill="#99d7e2"/>
      </g>
      <circle id="타원_577" data-name="타원 577" cx="18" cy="18" r="18" fill="none" stroke="#40b6b2" stroke-linecap="round" stroke-miterlimit="10" stroke-width="2"/>
      <g id="그룹_2062" data-name="그룹 2062" transform="translate(7.033 13.715)">
        <path id="패스_1962" data-name="패스 1962" d="M304.84,687.164v2.376h1.078v1.134H304.84v1.649h-1.386v-1.649h-3.949v-.913l3.608-5.368h1.518l-3.465,5.147h2.288v-2.376Z" transform="translate(-299.505 -684.393)" fill="#1a1818"/>
      </g>
      <g id="그룹_2064" data-name="그룹 2064" transform="translate(14.227 13.423)">
        <g id="그룹_2063" data-name="그룹 2063">
          <path id="패스_1963" data-name="패스 1963" d="M310.55,687.15a5.235,5.235,0,0,1-.115,1.17,2.712,2.712,0,0,1-.451.971,5.25,5.25,0,0,1-.949.975q-.615.506-1.615,1.2l-.721-.96q.87-.58,1.391-.995a4.138,4.138,0,0,0,.79-.795,2.087,2.087,0,0,0,.354-.79,4.82,4.82,0,0,0,.085-.97v-.86h-2.37V685h3.6Zm2.17.121h.889V684.1h1.2v9.3h-1.2v-5.04h-.889v4.591h-1.2v-8.66h1.2Z" transform="translate(-306.699 -684.101)" fill="#535453"/>
        </g>
      </g>
      <path id="패스_1964" data-name="패스 1964" d="M316.586,688.472l2.053,2.053a.533.533,0,0,0,.755,0l2.053-2.053a.533.533,0,0,0-.377-.911h-4.107A.534.534,0,0,0,316.586,688.472Z" transform="translate(-292.472 -670.678)" fill="#d6001b"/>
    </g>
    <rect id="사각형_2511" data-name="사각형 2511" width="50" height="50" transform="translate(285.472 663.678)" fill="none"/>
  </g>
</svg>
