<svg xmlns="http://www.w3.org/2000/svg" width="50" height="50" viewBox="0 0 50 50">
  <g id="그룹_2111" data-name="그룹 2111" transform="translate(-580.906 -663.678)">
    <g id="그룹_2110" data-name="그룹 2110" transform="translate(587.906 670.678)">
      <g id="그룹_2103" data-name="그룹 2103" transform="translate(17)">
        <rect id="사각형_2548" data-name="사각형 2548" width="2" height="3" rx="1" fill="#99d7e2"/>
        <rect id="사각형_2549" data-name="사각형 2549" width="2" height="3" rx="1" transform="translate(0 33)" fill="#99d7e2"/>
      </g>
      <g id="그룹_2104" data-name="그룹 2104" transform="translate(4.565 4.565)">
        <rect id="사각형_2550" data-name="사각형 2550" width="2" height="3" rx="1" transform="translate(0 1.414) rotate(-45)" fill="#99d7e2"/>
        <rect id="사각형_2551" data-name="사각형 2551" width="2" height="3" rx="1" transform="translate(23.335 24.749) rotate(-45)" fill="#99d7e2"/>
      </g>
      <g id="그룹_2105" data-name="그룹 2105" transform="translate(0 17)">
        <rect id="사각형_2552" data-name="사각형 2552" width="2" height="3" rx="1" transform="translate(0 2) rotate(-90)" fill="#99d7e2"/>
        <rect id="사각형_2553" data-name="사각형 2553" width="2" height="3" rx="1" transform="translate(33 2) rotate(-90)" fill="#99d7e2"/>
      </g>
      <g id="그룹_2106" data-name="그룹 2106" transform="translate(4.565 4.565)">
        <rect id="사각형_2554" data-name="사각형 2554" width="2" height="3" rx="1" transform="translate(1.414 26.87) rotate(-135)" fill="#99d7e2"/>
        <rect id="사각형_2555" data-name="사각형 2555" width="2" height="3" rx="1" transform="translate(24.749 3.536) rotate(-135)" fill="#99d7e2"/>
      </g>
      <circle id="타원_582" data-name="타원 582" cx="18" cy="18" r="18" fill="none" stroke="#40b6b2" stroke-linecap="round" stroke-miterlimit="10" stroke-width="2"/>
      <g id="그룹_2107" data-name="그룹 2107" transform="translate(7.396 13.593)">
        <path id="패스_1977" data-name="패스 1977" d="M596.215,690.729a3.208,3.208,0,0,0,.78.33,3.474,3.474,0,0,0,.9.109,1.96,1.96,0,0,0,.682-.109,1.164,1.164,0,0,0,.506-.37,1.824,1.824,0,0,0,.325-.681,5.182,5.182,0,0,0,.149-1.062,1.767,1.767,0,0,1-.776.517,2.939,2.939,0,0,1-1.007.177,2.8,2.8,0,0,1-1.039-.182,2.182,2.182,0,0,1-.775-.512,2.213,2.213,0,0,1-.49-.8,3.033,3.033,0,0,1-.17-1.049v-.221a2.716,2.716,0,0,1,.192-1.028,2.369,2.369,0,0,1,.556-.83,2.539,2.539,0,0,1,.885-.55,3.3,3.3,0,0,1,1.182-.2,3.229,3.229,0,0,1,1.3.237,2.237,2.237,0,0,1,.881.677,2.907,2.907,0,0,1,.5,1.061,5.567,5.567,0,0,1,.159,1.38v.507a8.474,8.474,0,0,1-.226,2.15,3.307,3.307,0,0,1-.637,1.32,2.131,2.131,0,0,1-.995.66,4.324,4.324,0,0,1-1.287.181,4.96,4.96,0,0,1-1.1-.127,3.031,3.031,0,0,1-1.012-.422Zm3.321-3.818a1.376,1.376,0,0,0-.351-1.006,1.394,1.394,0,0,0-1.035-.358,1.514,1.514,0,0,0-1.094.358,1.355,1.355,0,0,0-.369,1.017v.121a1.388,1.388,0,0,0,.341,1.029,1.472,1.472,0,0,0,1.068.335,1.809,1.809,0,0,0,.648-.1,1.218,1.218,0,0,0,.451-.286,1.126,1.126,0,0,0,.259-.423,1.593,1.593,0,0,0,.082-.518Z" transform="translate(-595.302 -684.271)" fill="#1a1818"/>
      </g>
      <g id="그룹_2109" data-name="그룹 2109" transform="translate(14.227 13.423)">
        <g id="그룹_2108" data-name="그룹 2108">
          <path id="패스_1978" data-name="패스 1978" d="M605.983,687.15a5.233,5.233,0,0,1-.115,1.17,2.692,2.692,0,0,1-.45.971,5.283,5.283,0,0,1-.949.975q-.615.506-1.615,1.2l-.721-.96q.87-.58,1.39-.995a4.109,4.109,0,0,0,.79-.795,2.106,2.106,0,0,0,.355-.79,4.823,4.823,0,0,0,.085-.97v-.86h-2.37V685h3.6Zm2.17.121h.89V684.1h1.2v9.3h-1.2v-5.04h-.89v4.591h-1.2v-8.66h1.2Z" transform="translate(-602.133 -684.101)" fill="#535453"/>
        </g>
      </g>
      <path id="패스_1979" data-name="패스 1979" d="M612.019,688.472l2.054,2.053a.533.533,0,0,0,.755,0l2.053-2.053a.534.534,0,0,0-.377-.911H612.4A.534.534,0,0,0,612.019,688.472Z" transform="translate(-587.906 -670.678)" fill="#d6001b"/>
    </g>
    <rect id="사각형_2556" data-name="사각형 2556" width="50" height="50" transform="translate(580.905 663.678)" fill="none"/>
  </g>
</svg>
