<svg xmlns="http://www.w3.org/2000/svg" width="50" height="50" viewBox="0 0 50 50">
  <g id="그룹_2084" data-name="그룹 2084" transform="translate(-399.658 -663.678)">
    <g id="그룹_2083" data-name="그룹 2083" transform="translate(406.659 670.678)">
      <g id="그룹_2076" data-name="그룹 2076" transform="translate(17)">
        <rect id="사각형_2521" data-name="사각형 2521" width="2" height="3" rx="1" fill="#99d7e2"/>
        <rect id="사각형_2522" data-name="사각형 2522" width="2" height="3" rx="1" transform="translate(0 33)" fill="#99d7e2"/>
      </g>
      <g id="그룹_2077" data-name="그룹 2077" transform="translate(4.565 4.565)">
        <rect id="사각형_2523" data-name="사각형 2523" width="2" height="3" rx="1" transform="translate(0 1.414) rotate(-45)" fill="#99d7e2"/>
        <rect id="사각형_2524" data-name="사각형 2524" width="2" height="3" rx="1" transform="translate(23.335 24.749) rotate(-45)" fill="#99d7e2"/>
      </g>
      <g id="그룹_2078" data-name="그룹 2078" transform="translate(0 17)">
        <rect id="사각형_2525" data-name="사각형 2525" width="2" height="3" rx="1" transform="translate(0 2) rotate(-90)" fill="#99d7e2"/>
        <rect id="사각형_2526" data-name="사각형 2526" width="2" height="3" rx="1" transform="translate(33 2) rotate(-90)" fill="#99d7e2"/>
      </g>
      <g id="그룹_2079" data-name="그룹 2079" transform="translate(4.565 4.565)">
        <rect id="사각형_2527" data-name="사각형 2527" width="2" height="3" rx="1" transform="translate(1.414 26.87) rotate(-135)" fill="#99d7e2"/>
        <rect id="사각형_2528" data-name="사각형 2528" width="2" height="3" rx="1" transform="translate(24.749 3.536) rotate(-135)" fill="#99d7e2"/>
      </g>
      <circle id="타원_579" data-name="타원 579" cx="18" cy="18" r="18" fill="none" stroke="#40b6b2" stroke-linecap="round" stroke-miterlimit="10" stroke-width="2"/>
      <g id="그룹_2080" data-name="그룹 2080" transform="translate(7.506 13.593)">
        <path id="패스_1968" data-name="패스 1968" d="M418.906,685.987a3.175,3.175,0,0,0-.781-.33,3.472,3.472,0,0,0-.9-.11,1.608,1.608,0,0,0-.589.11,1.324,1.324,0,0,0-.506.368,2.152,2.152,0,0,0-.379.683,3.657,3.657,0,0,0-.187,1.062,1.762,1.762,0,0,1,.775-.518,2.97,2.97,0,0,1,1.007-.176,2.8,2.8,0,0,1,1.033.182,2.146,2.146,0,0,1,.782.516,2.287,2.287,0,0,1,.489.809,3.055,3.055,0,0,1,.171,1.045v.221a2.737,2.737,0,0,1-.193,1.028,2.321,2.321,0,0,1-.555.825,2.591,2.591,0,0,1-.886.544,3.316,3.316,0,0,1-1.183.2,3.228,3.228,0,0,1-1.3-.236,2.21,2.21,0,0,1-.88-.677,2.843,2.843,0,0,1-.5-1.061,5.517,5.517,0,0,1-.16-1.381v-.506a7.783,7.783,0,0,1,.248-2.15,3.4,3.4,0,0,1,.675-1.32,2.245,2.245,0,0,1,1-.66,4.01,4.01,0,0,1,1.221-.182,5.014,5.014,0,0,1,1.1.126,3.046,3.046,0,0,1,1.012.424Zm-3.323,3.818a1.373,1.373,0,0,0,.353,1.006,1.388,1.388,0,0,0,1.034.357,1.512,1.512,0,0,0,1.094-.357,1.354,1.354,0,0,0,.369-1.018v-.121a1.385,1.385,0,0,0-.341-1.028,1.47,1.47,0,0,0-1.067-.335,1.8,1.8,0,0,0-.654.1,1.216,1.216,0,0,0-.446.286,1.1,1.1,0,0,0-.258.423,1.6,1.6,0,0,0-.084.518Z" transform="translate(-414.165 -684.271)" fill="#1a1818"/>
      </g>
      <g id="그룹_2082" data-name="그룹 2082" transform="translate(14.227 13.423)">
        <g id="그룹_2081" data-name="그룹 2081">
          <path id="패스_1969" data-name="패스 1969" d="M424.736,687.15a5.235,5.235,0,0,1-.115,1.17,2.692,2.692,0,0,1-.45.971,5.28,5.28,0,0,1-.949.975q-.615.506-1.616,1.2l-.72-.96q.87-.58,1.39-.995a4.11,4.11,0,0,0,.79-.795,2.1,2.1,0,0,0,.355-.79,4.818,4.818,0,0,0,.085-.97v-.86h-2.37V685h3.6Zm2.17.121h.89V684.1H429v9.3h-1.2v-5.04h-.89v4.591h-1.2v-8.66h1.2Z" transform="translate(-420.886 -684.101)" fill="#535453"/>
        </g>
      </g>
      <path id="패스_1970" data-name="패스 1970" d="M430.773,688.472l2.053,2.053a.533.533,0,0,0,.755,0l2.053-2.053a.533.533,0,0,0-.377-.911H431.15A.533.533,0,0,0,430.773,688.472Z" transform="translate(-406.659 -670.678)" fill="#d6001b"/>
    </g>
    <rect id="사각형_2529" data-name="사각형 2529" width="50" height="50" transform="translate(399.659 663.678)" fill="none"/>
  </g>
</svg>
