<svg xmlns="http://www.w3.org/2000/svg" width="50" height="50" viewBox="0 0 50 50">
  <g id="그룹_2102" data-name="그룹 2102" transform="translate(-520.705 -663.678)">
    <g id="그룹_2101" data-name="그룹 2101" transform="translate(527.705 670.678)">
      <g id="그룹_2094" data-name="그룹 2094" transform="translate(17)">
        <rect id="사각형_2539" data-name="사각형 2539" width="2" height="3" rx="1" fill="#99d7e2"/>
        <rect id="사각형_2540" data-name="사각형 2540" width="2" height="3" rx="1" transform="translate(0 33)" fill="#99d7e2"/>
      </g>
      <g id="그룹_2095" data-name="그룹 2095" transform="translate(4.565 4.565)">
        <rect id="사각형_2541" data-name="사각형 2541" width="2" height="3" rx="1" transform="translate(0 1.414) rotate(-45)" fill="#99d7e2"/>
        <rect id="사각형_2542" data-name="사각형 2542" width="2" height="3" rx="1" transform="translate(23.335 24.749) rotate(-45)" fill="#99d7e2"/>
      </g>
      <g id="그룹_2096" data-name="그룹 2096" transform="translate(0 17)">
        <rect id="사각형_2543" data-name="사각형 2543" width="2" height="3" rx="1" transform="translate(0 2) rotate(-90)" fill="#99d7e2"/>
        <rect id="사각형_2544" data-name="사각형 2544" width="2" height="3" rx="1" transform="translate(33 2) rotate(-90)" fill="#99d7e2"/>
      </g>
      <g id="그룹_2097" data-name="그룹 2097" transform="translate(4.565 4.565)">
        <rect id="사각형_2545" data-name="사각형 2545" width="2" height="3" rx="1" transform="translate(1.414 26.87) rotate(-135)" fill="#99d7e2"/>
        <rect id="사각형_2546" data-name="사각형 2546" width="2" height="3" rx="1" transform="translate(24.749 3.536) rotate(-135)" fill="#99d7e2"/>
      </g>
      <circle id="타원_581" data-name="타원 581" cx="18" cy="18" r="18" fill="none" stroke="#40b6b2" stroke-linecap="round" stroke-miterlimit="10" stroke-width="2"/>
      <g id="그룹_2098" data-name="그룹 2098" transform="translate(7.528 13.593)">
        <path id="패스_1974" data-name="패스 1974" d="M535.233,690.035a1.748,1.748,0,0,1,.109-.621,2.085,2.085,0,0,1,.292-.528,2.008,2.008,0,0,1,.412-.4,1.694,1.694,0,0,1,.485-.242,1.852,1.852,0,0,1-.489-.346,2.1,2.1,0,0,1-.336-.429,2.012,2.012,0,0,1-.2-.456,1.576,1.576,0,0,1-.065-.43v-.132a2.307,2.307,0,0,1,.148-.819,1.892,1.892,0,0,1,.462-.693,2.29,2.29,0,0,1,.792-.484,3.18,3.18,0,0,1,1.128-.182,3.138,3.138,0,0,1,1.116.182,2.346,2.346,0,0,1,.8.484,1.987,1.987,0,0,1,.478.693,2.154,2.154,0,0,1,.16.819v.132a1.59,1.59,0,0,1-.061.418,1.739,1.739,0,0,1-.192.44,2.323,2.323,0,0,1-.336.429,2.208,2.208,0,0,1-.489.374,1.66,1.66,0,0,1,.489.248,1.914,1.914,0,0,1,.693.924,1.815,1.815,0,0,1,.1.621v.188a2.2,2.2,0,0,1-.176.88,1.952,1.952,0,0,1-.522.7,2.558,2.558,0,0,1-.853.466,3.615,3.615,0,0,1-1.166.171,3.848,3.848,0,0,1-1.205-.171,2.569,2.569,0,0,1-.874-.466,1.9,1.9,0,0,1-.528-.7,2.2,2.2,0,0,1-.176-.88Zm1.452.1a.951.951,0,0,0,.362.8,1.526,1.526,0,0,0,.957.28,1.432,1.432,0,0,0,.936-.28.975.975,0,0,0,.341-.8v-.111a1.113,1.113,0,0,0-.1-.505,1.058,1.058,0,0,0-.676-.562,1.8,1.8,0,0,0-.5-.065,1.859,1.859,0,0,0-.5.065,1.234,1.234,0,0,0-.418.2,1.027,1.027,0,0,0-.292.352,1.11,1.11,0,0,0-.109.511Zm.2-3.5a.984.984,0,0,0,.1.456.943.943,0,0,0,.259.319,1.051,1.051,0,0,0,.357.187,1.326,1.326,0,0,0,.4.06,1.307,1.307,0,0,0,.4-.06,1.024,1.024,0,0,0,.347-.187.937.937,0,0,0,.247-.319,1.036,1.036,0,0,0,.094-.456v-.111a.963.963,0,0,0-.3-.775,1.185,1.185,0,0,0-.8-.259,1.2,1.2,0,0,0-.781.259.938.938,0,0,0-.32.775Z" transform="translate(-535.233 -684.271)" fill="#1a1818"/>
      </g>
      <g id="그룹_2100" data-name="그룹 2100" transform="translate(14.227 13.423)">
        <g id="그룹_2099" data-name="그룹 2099">
          <path id="패스_1975" data-name="패스 1975" d="M545.782,687.15a5.233,5.233,0,0,1-.115,1.17,2.709,2.709,0,0,1-.45.971,5.28,5.28,0,0,1-.949.975q-.617.506-1.616,1.2l-.72-.96q.87-.58,1.39-.995a4.109,4.109,0,0,0,.79-.795,2.105,2.105,0,0,0,.355-.79,4.89,4.89,0,0,0,.085-.97v-.86h-2.37V685h3.6Zm2.17.121h.89V684.1h1.2v9.3h-1.2v-5.04h-.89v4.591h-1.2v-8.66h1.2Z" transform="translate(-541.932 -684.101)" fill="#535453"/>
        </g>
      </g>
      <path id="패스_1976" data-name="패스 1976" d="M551.819,688.472l2.053,2.053a.533.533,0,0,0,.755,0l2.053-2.053a.534.534,0,0,0-.377-.911H552.2A.533.533,0,0,0,551.819,688.472Z" transform="translate(-527.705 -670.678)" fill="#d6001b"/>
    </g>
    <rect id="사각형_2547" data-name="사각형 2547" width="50" height="50" transform="translate(520.705 663.678)" fill="none"/>
  </g>
</svg>
