<svg xmlns="http://www.w3.org/2000/svg" width="50" height="50" viewBox="0 0 50 50">
  <g id="그룹_2048" data-name="그룹 2048" transform="translate(-166.463 -663.678)">
    <g id="그룹_2047" data-name="그룹 2047" transform="translate(173.463 670.678)">
      <g id="그룹_2040" data-name="그룹 2040" transform="translate(17)">
        <rect id="사각형_2485" data-name="사각형 2485" width="2" height="3" rx="1" fill="#99d7e2"/>
        <rect id="사각형_2486" data-name="사각형 2486" width="2" height="3" rx="1" transform="translate(0 33)" fill="#99d7e2"/>
      </g>
      <g id="그룹_2041" data-name="그룹 2041" transform="translate(4.565 4.565)">
        <rect id="사각형_2487" data-name="사각형 2487" width="2" height="3" rx="1" transform="translate(0 1.414) rotate(-45)" fill="#99d7e2"/>
        <rect id="사각형_2488" data-name="사각형 2488" width="2" height="3" rx="1" transform="translate(23.335 24.749) rotate(-45)" fill="#99d7e2"/>
      </g>
      <g id="그룹_2042" data-name="그룹 2042" transform="translate(0 17)">
        <rect id="사각형_2489" data-name="사각형 2489" width="2" height="3" rx="1" transform="translate(0 2) rotate(-90)" fill="#99d7e2"/>
        <rect id="사각형_2490" data-name="사각형 2490" width="2" height="3" rx="1" transform="translate(33 2) rotate(-90)" fill="#99d7e2"/>
      </g>
      <g id="그룹_2043" data-name="그룹 2043" transform="translate(4.565 4.565)">
        <rect id="사각형_2491" data-name="사각형 2491" width="2" height="3" rx="1" transform="translate(1.414 26.87) rotate(-135)" fill="#99d7e2"/>
        <rect id="사각형_2492" data-name="사각형 2492" width="2" height="3" rx="1" transform="translate(24.749 3.536) rotate(-135)" fill="#99d7e2"/>
      </g>
      <circle id="타원_575" data-name="타원 575" cx="18" cy="18" r="18" fill="none" stroke="#40b6b2" stroke-linecap="round" stroke-miterlimit="10" stroke-width="2"/>
      <g id="그룹_2044" data-name="그룹 2044" transform="translate(7.429 13.593)">
        <path id="패스_1956" data-name="패스 1956" d="M183.807,688.265a6.922,6.922,0,0,0,.539-.617,2.785,2.785,0,0,0,.3-.472,1.3,1.3,0,0,0,.121-.386,2.868,2.868,0,0,0,.022-.341v-.088a.8.8,0,0,0-.259-.577,1.206,1.206,0,0,0-.874-.259,2.167,2.167,0,0,0-.434.044,1.418,1.418,0,0,0-.424.165,1.816,1.816,0,0,0-.412.341,3.152,3.152,0,0,0-.4.562l-1.056-.694a6.264,6.264,0,0,1,.357-.549,2.62,2.62,0,0,1,.539-.545,2.938,2.938,0,0,1,.771-.412,2.993,2.993,0,0,1,1.05-.166,3.562,3.562,0,0,1,1.155.166,2.268,2.268,0,0,1,.8.445,1.731,1.731,0,0,1,.462.649,2.072,2.072,0,0,1,.148.776v.109a2.755,2.755,0,0,1-.292,1.238,4.432,4.432,0,0,1-.851,1.15l-2.333,2.353H186.5v1.166h-5.61v-1.055Z" transform="translate(-180.892 -684.271)" fill="#1a1818"/>
      </g>
      <g id="그룹_2046" data-name="그룹 2046" transform="translate(14.227 13.423)">
        <g id="그룹_2045" data-name="그룹 2045">
          <path id="패스_1957" data-name="패스 1957" d="M191.541,687.15a5.234,5.234,0,0,1-.115,1.17,2.709,2.709,0,0,1-.45.971,5.258,5.258,0,0,1-.95.975q-.615.506-1.615,1.2l-.721-.96q.871-.58,1.391-.995a4.138,4.138,0,0,0,.79-.795,2.105,2.105,0,0,0,.355-.79,4.893,4.893,0,0,0,.085-.97v-.86H187.94V685h3.6Zm2.17.121h.89V684.1h1.2v9.3h-1.2v-5.04h-.89v4.591h-1.2v-8.66h1.2Z" transform="translate(-187.69 -684.101)" fill="#535453"/>
        </g>
      </g>
      <path id="패스_1958" data-name="패스 1958" d="M197.577,688.472l2.053,2.053a.533.533,0,0,0,.755,0l2.053-2.053a.533.533,0,0,0-.377-.911h-4.107A.534.534,0,0,0,197.577,688.472Z" transform="translate(-173.463 -670.678)" fill="#d6001b"/>
    </g>
    <rect id="사각형_2493" data-name="사각형 2493" width="50" height="50" transform="translate(166.463 663.678)" fill="none"/>
  </g>
</svg>
