<svg xmlns="http://www.w3.org/2000/svg" width="50" height="50" viewBox="0 0 50 50">
  <g id="그룹_2057" data-name="그룹 2057" transform="translate(-225.967 -663.678)">
    <g id="그룹_2056" data-name="그룹 2056" transform="translate(232.968 670.678)">
      <g id="그룹_2049" data-name="그룹 2049" transform="translate(17)">
        <rect id="사각형_2494" data-name="사각형 2494" width="2" height="3" rx="1" fill="#99d7e2"/>
        <rect id="사각형_2495" data-name="사각형 2495" width="2" height="3" rx="1" transform="translate(0 33)" fill="#99d7e2"/>
      </g>
      <g id="그룹_2050" data-name="그룹 2050" transform="translate(4.565 4.565)">
        <rect id="사각형_2496" data-name="사각형 2496" width="2" height="3" rx="1" transform="translate(0 1.414) rotate(-45)" fill="#99d7e2"/>
        <rect id="사각형_2497" data-name="사각형 2497" width="2" height="3" rx="1" transform="translate(23.335 24.749) rotate(-45)" fill="#99d7e2"/>
      </g>
      <g id="그룹_2051" data-name="그룹 2051" transform="translate(0 17)">
        <rect id="사각형_2498" data-name="사각형 2498" width="2" height="3" rx="1" transform="translate(0 2) rotate(-90)" fill="#99d7e2"/>
        <rect id="사각형_2499" data-name="사각형 2499" width="2" height="3" rx="1" transform="translate(33 2) rotate(-90)" fill="#99d7e2"/>
      </g>
      <g id="그룹_2052" data-name="그룹 2052" transform="translate(4.565 4.565)">
        <rect id="사각형_2500" data-name="사각형 2500" width="2" height="3" rx="1" transform="translate(1.414 26.87) rotate(-135)" fill="#99d7e2"/>
        <rect id="사각형_2501" data-name="사각형 2501" width="2" height="3" rx="1" transform="translate(24.749 3.536) rotate(-135)" fill="#99d7e2"/>
      </g>
      <ellipse id="타원_576" data-name="타원 576" cx="18" cy="18" rx="18" ry="18" transform="translate(0)" fill="none" stroke="#40b6b2" stroke-linecap="round" stroke-miterlimit="10" stroke-width="2"/>
      <g id="그룹_2053" data-name="그룹 2053" transform="translate(7.373 13.593)">
        <path id="패스_1959" data-name="패스 1959" d="M240.561,685.415a3.158,3.158,0,0,1,.946-.83,2.823,2.823,0,0,1,1.409-.314,3.345,3.345,0,0,1,1.011.143,2.366,2.366,0,0,1,.771.4,1.819,1.819,0,0,1,.495.627,1.86,1.86,0,0,1,.176.809v.11a2.776,2.776,0,0,1-.05.5,1.772,1.772,0,0,1-.182.517,1.8,1.8,0,0,1-.351.456,1.707,1.707,0,0,1-.562.342,1.8,1.8,0,0,1,1.166.627,1.844,1.844,0,0,1,.374,1.166v.165a2.2,2.2,0,0,1-.176.868,2.042,2.042,0,0,1-.533.737,2.68,2.68,0,0,1-.9.512,3.818,3.818,0,0,1-1.271.192,4.169,4.169,0,0,1-1.336-.215,3.84,3.84,0,0,1-1.205-.665l.694-1.1q.285.21.522.352a2.711,2.711,0,0,0,.456.226,2.132,2.132,0,0,0,.43.115,2.765,2.765,0,0,0,.45.033,1.69,1.69,0,0,0,1.1-.3,1.026,1.026,0,0,0,.351-.826v-.142a1.02,1.02,0,0,0-.341-.853,1.783,1.783,0,0,0-1.1-.269h-1.068v-1.21h.947a1.913,1.913,0,0,0,.61-.083.862.862,0,0,0,.368-.231.81.81,0,0,0,.182-.363,2.086,2.086,0,0,0,.05-.468v-.088a.743.743,0,0,0-.292-.654,1.349,1.349,0,0,0-.786-.2,1.583,1.583,0,0,0-.82.187,2.647,2.647,0,0,0-.578.473Z" transform="translate(-240.341 -684.271)" fill="#1a1818"/>
      </g>
      <g id="그룹_2055" data-name="그룹 2055" transform="translate(14.227 13.423)">
        <g id="그룹_2054" data-name="그룹 2054">
          <path id="패스_1960" data-name="패스 1960" d="M251.045,687.15a5.234,5.234,0,0,1-.115,1.17,2.692,2.692,0,0,1-.45.971,5.281,5.281,0,0,1-.949.975q-.615.506-1.615,1.2l-.721-.96q.87-.58,1.39-.995a4.109,4.109,0,0,0,.79-.795,2.105,2.105,0,0,0,.355-.79,4.818,4.818,0,0,0,.085-.97v-.86h-2.37V685h3.6Zm2.17.121h.89V684.1h1.2v9.3h-1.2v-5.04h-.89v4.591h-1.2v-8.66h1.2Z" transform="translate(-247.195 -684.101)" fill="#535453"/>
        </g>
      </g>
      <path id="패스_1961" data-name="패스 1961" d="M257.081,688.472l2.054,2.053a.533.533,0,0,0,.755,0l2.053-2.053a.534.534,0,0,0-.377-.911h-4.107A.534.534,0,0,0,257.081,688.472Z" transform="translate(-232.968 -670.678)" fill="#d6001b"/>
    </g>
    <rect id="사각형_2502" data-name="사각형 2502" width="50" height="50" transform="translate(225.967 663.678)" fill="none"/>
  </g>
</svg>
