<svg xmlns="http://www.w3.org/2000/svg" width="50" height="50" viewBox="0 0 50 50">
  <g id="그룹_2021" data-name="그룹 2021" transform="translate(-580.906 -615.087)">
    <g id="그룹_2020" data-name="그룹 2020" transform="translate(587.905 622.087)">
      <g id="그룹_2013" data-name="그룹 2013" transform="translate(17)">
        <rect id="사각형_2458" data-name="사각형 2458" width="2" height="3" rx="1" fill="#99d7e2"/>
        <rect id="사각형_2459" data-name="사각형 2459" width="2" height="3" rx="1" transform="translate(0 33)" fill="#99d7e2"/>
      </g>
      <g id="그룹_2014" data-name="그룹 2014" transform="translate(4.565 4.565)">
        <rect id="사각형_2460" data-name="사각형 2460" width="2" height="3" rx="1" transform="translate(0 1.414) rotate(-45)" fill="#99d7e2"/>
        <rect id="사각형_2461" data-name="사각형 2461" width="2" height="3" rx="1" transform="translate(23.335 24.749) rotate(-45)" fill="#99d7e2"/>
      </g>
      <g id="그룹_2015" data-name="그룹 2015" transform="translate(0 17)">
        <rect id="사각형_2462" data-name="사각형 2462" width="2" height="3" rx="1" transform="translate(0 2) rotate(-90)" fill="#99d7e2"/>
        <rect id="사각형_2463" data-name="사각형 2463" width="2" height="3" rx="1" transform="translate(33 2) rotate(-90)" fill="#99d7e2"/>
      </g>
      <g id="그룹_2016" data-name="그룹 2016" transform="translate(4.565 4.565)">
        <rect id="사각형_2464" data-name="사각형 2464" width="2" height="3" rx="1" transform="translate(1.414 26.87) rotate(-135)" fill="#99d7e2"/>
        <rect id="사각형_2465" data-name="사각형 2465" width="2" height="3" rx="1" transform="translate(24.749 3.536) rotate(-135)" fill="#99d7e2"/>
      </g>
      <circle id="타원_572" data-name="타원 572" cx="18" cy="18" r="18" fill="none" stroke="#40b6b2" stroke-linecap="round" stroke-miterlimit="10" stroke-width="2"/>
      <g id="그룹_2017" data-name="그룹 2017" transform="translate(6.303 13.594)">
        <path id="패스_1946" data-name="패스 1946" d="M595.113,642.138a3.128,3.128,0,0,0,.774.33,3.4,3.4,0,0,0,.893.109,1.929,1.929,0,0,0,.676-.109,1.152,1.152,0,0,0,.5-.369,1.866,1.866,0,0,0,.322-.682,5.212,5.212,0,0,0,.147-1.062,1.746,1.746,0,0,1-.768.517,2.913,2.913,0,0,1-1,.176,2.763,2.763,0,0,1-1.03-.181,2.166,2.166,0,0,1-.769-.512,2.242,2.242,0,0,1-.485-.8,3.094,3.094,0,0,1-.169-1.051v-.22a2.755,2.755,0,0,1,.191-1.028,2.362,2.362,0,0,1,.551-.83,2.506,2.506,0,0,1,.877-.551,3.256,3.256,0,0,1,1.171-.2,3.156,3.156,0,0,1,1.286.236,2.189,2.189,0,0,1,.872.677,2.893,2.893,0,0,1,.5,1.061,5.611,5.611,0,0,1,.158,1.38v.506a8.567,8.567,0,0,1-.224,2.15,3.322,3.322,0,0,1-.632,1.321,2.106,2.106,0,0,1-.986.66,4.236,4.236,0,0,1-1.275.182,4.912,4.912,0,0,1-1.089-.127,3,3,0,0,1-1-.423Zm3.291-3.818a1.382,1.382,0,0,0-.349-1.007,1.368,1.368,0,0,0-1.024-.357,1.49,1.49,0,0,0-1.084.357,1.361,1.361,0,0,0-.365,1.018v.121a1.392,1.392,0,0,0,.337,1.028,1.451,1.451,0,0,0,1.058.336,1.807,1.807,0,0,0,.642-.1,1.2,1.2,0,0,0,.447-.286,1.115,1.115,0,0,0,.256-.424,1.616,1.616,0,0,0,.082-.517Z" transform="translate(-594.208 -635.681)" fill="#1a1818"/>
      </g>
      <g id="그룹_2019" data-name="그룹 2019" transform="translate(14.286 13.403)">
        <g id="그룹_2018" data-name="그룹 2018">
          <path id="패스_1947" data-name="패스 1947" d="M602.191,642.12h1.235c.384,0,.745,0,1.085-.01v-.69a2.52,2.52,0,0,1-.745-.231,2.025,2.025,0,0,1-.525-.369,1.354,1.354,0,0,1-.41-.97v-.36a1.358,1.358,0,0,1,.14-.591,1.521,1.521,0,0,1,.425-.519,2.238,2.238,0,0,1,.715-.37,3.767,3.767,0,0,1,2.035,0,2.236,2.236,0,0,1,.72.37,1.532,1.532,0,0,1,.425.519,1.359,1.359,0,0,1,.14.591v.36a1.378,1.378,0,0,1-.1.51,1.364,1.364,0,0,1-.31.46,2.026,2.026,0,0,1-.525.369,2.508,2.508,0,0,1-.735.231v.67c.5-.014.941-.031,1.325-.055s.731-.052,1.045-.085l.09,1.06q-.429.05-.995.085c-.376.023-.81.042-1.3.054s-1.043.024-1.66.031-1.309.009-2.075.009Zm2.32-5.61v-1.02h1.25v1.02h2.01v1.06h-5.39v-1.06Zm.62,2.35a1.766,1.766,0,0,0-.505.065,1.007,1.007,0,0,0-.35.175.715.715,0,0,0-.2.245.6.6,0,0,0-.065.265v.119a.591.591,0,0,0,.065.271.729.729,0,0,0,.2.24,1.006,1.006,0,0,0,.35.175,1.766,1.766,0,0,0,.505.064,1.257,1.257,0,0,0,.849-.239.684.684,0,0,0,.271-.511v-.119a.684.684,0,0,0-.271-.51A1.246,1.246,0,0,0,605.131,638.86Zm4.73,5.95h-1.25v-9.3h1.25Z" transform="translate(-602.191 -635.49)" fill="#535453"/>
        </g>
      </g>
      <path id="패스_1948" data-name="패스 1948" d="M611.867,639.881l2.054,2.053a.532.532,0,0,0,.754,0l2.054-2.053a.534.534,0,0,0-.377-.911h-4.107A.534.534,0,0,0,611.867,639.881Z" transform="translate(-587.905 -622.087)" fill="#d6001b"/>
    </g>
    <rect id="사각형_2466" data-name="사각형 2466" width="50" height="50" transform="translate(580.905 615.087)" fill="none"/>
  </g>
</svg>
