<svg xmlns="http://www.w3.org/2000/svg" width="50" height="50" viewBox="0 0 50 50">
  <g id="그룹_1967" data-name="그룹 1967" transform="translate(-225.967 -615.087)">
    <g id="그룹_1966" data-name="그룹 1966" transform="translate(232.967 622.087)">
      <g id="그룹_1959" data-name="그룹 1959" transform="translate(17)">
        <rect id="사각형_2404" data-name="사각형 2404" width="2" height="3" rx="1" fill="#99d7e2"/>
        <rect id="사각형_2405" data-name="사각형 2405" width="2" height="3" rx="1" transform="translate(0 33)" fill="#99d7e2"/>
      </g>
      <g id="그룹_1960" data-name="그룹 1960" transform="translate(4.565 4.565)">
        <rect id="사각형_2406" data-name="사각형 2406" width="2" height="3" rx="1" transform="translate(0 1.414) rotate(-45)" fill="#99d7e2"/>
        <rect id="사각형_2407" data-name="사각형 2407" width="2" height="3" rx="1" transform="translate(23.335 24.749) rotate(-45)" fill="#99d7e2"/>
      </g>
      <g id="그룹_1961" data-name="그룹 1961" transform="translate(0 17)">
        <rect id="사각형_2408" data-name="사각형 2408" width="2" height="3" rx="1" transform="translate(0 2) rotate(-90)" fill="#99d7e2"/>
        <rect id="사각형_2409" data-name="사각형 2409" width="2" height="3" rx="1" transform="translate(33 2) rotate(-90)" fill="#99d7e2"/>
      </g>
      <g id="그룹_1962" data-name="그룹 1962" transform="translate(4.565 4.565)">
        <rect id="사각형_2410" data-name="사각형 2410" width="2" height="3" rx="1" transform="translate(1.414 26.87) rotate(-135)" fill="#99d7e2"/>
        <rect id="사각형_2411" data-name="사각형 2411" width="2" height="3" rx="1" transform="translate(24.749 3.536) rotate(-135)" fill="#99d7e2"/>
      </g>
      <ellipse id="타원_566" data-name="타원 566" cx="18" cy="18" rx="18" ry="18" fill="none" stroke="#40b6b2" stroke-linecap="round" stroke-miterlimit="10" stroke-width="2"/>
      <g id="그룹_1963" data-name="그룹 1963" transform="translate(6.222 13.593)">
        <path id="패스_1928" data-name="패스 1928" d="M239.409,636.824a3.151,3.151,0,0,1,.946-.831,2.82,2.82,0,0,1,1.408-.313,3.353,3.353,0,0,1,1.012.143,2.316,2.316,0,0,1,.77.4,1.8,1.8,0,0,1,.5.627,1.856,1.856,0,0,1,.175.808v.111a2.786,2.786,0,0,1-.049.5,1.779,1.779,0,0,1-.534.973,1.684,1.684,0,0,1-.561.341,1.816,1.816,0,0,1,1.166.627,1.848,1.848,0,0,1,.374,1.166v.165a2.22,2.22,0,0,1-.176.869,2.042,2.042,0,0,1-.533.737,2.657,2.657,0,0,1-.9.511,3.788,3.788,0,0,1-1.27.194,4.223,4.223,0,0,1-1.336-.215,3.892,3.892,0,0,1-1.205-.666l.693-1.1q.286.21.523.352a2.666,2.666,0,0,0,.456.225,2.12,2.12,0,0,0,.43.116,2.869,2.869,0,0,0,.45.033,1.685,1.685,0,0,0,1.1-.3,1.02,1.02,0,0,0,.352-.825v-.143a1.02,1.02,0,0,0-.341-.853,1.786,1.786,0,0,0-1.1-.269h-1.067V639h.946a1.9,1.9,0,0,0,.611-.082.872.872,0,0,0,.368-.232.81.81,0,0,0,.182-.363,2.073,2.073,0,0,0,.049-.467v-.087a.743.743,0,0,0-.292-.656,1.347,1.347,0,0,0-.786-.2,1.589,1.589,0,0,0-.819.187,2.624,2.624,0,0,0-.578.473Z" transform="translate(-239.189 -635.68)" fill="#1a1818"/>
      </g>
      <g id="그룹_1965" data-name="그룹 1965" transform="translate(14.286 13.403)">
        <g id="그룹_1964" data-name="그룹 1964">
          <path id="패스_1929" data-name="패스 1929" d="M247.253,642.12h1.235c.384,0,.745,0,1.085-.01v-.69a2.52,2.52,0,0,1-.745-.231,2.025,2.025,0,0,1-.525-.369,1.354,1.354,0,0,1-.41-.97v-.36a1.358,1.358,0,0,1,.14-.591,1.521,1.521,0,0,1,.425-.519,2.239,2.239,0,0,1,.715-.37,3.767,3.767,0,0,1,2.035,0,2.235,2.235,0,0,1,.72.37,1.532,1.532,0,0,1,.425.519,1.358,1.358,0,0,1,.14.591v.36a1.354,1.354,0,0,1-.41.97,2.025,2.025,0,0,1-.525.369,2.509,2.509,0,0,1-.735.231v.67c.5-.014.941-.031,1.325-.055s.731-.052,1.045-.085l.09,1.06q-.429.05-1,.085c-.376.023-.81.042-1.3.054s-1.043.024-1.66.031-1.309.009-2.075.009Zm2.32-5.61v-1.02h1.25v1.02h2.01v1.06h-5.39v-1.06Zm.62,2.35a1.77,1.77,0,0,0-.5.065,1.007,1.007,0,0,0-.35.175.715.715,0,0,0-.2.245.6.6,0,0,0-.065.265v.119a.591.591,0,0,0,.065.271.729.729,0,0,0,.2.24,1.006,1.006,0,0,0,.35.175,1.77,1.77,0,0,0,.5.064,1.257,1.257,0,0,0,.849-.239.684.684,0,0,0,.271-.511v-.119a.684.684,0,0,0-.271-.51A1.246,1.246,0,0,0,250.193,638.86Zm4.73,5.95h-1.25v-9.3h1.25Z" transform="translate(-247.253 -635.49)" fill="#535453"/>
        </g>
      </g>
      <path id="패스_1930" data-name="패스 1930" d="M256.929,639.881l2.054,2.053a.532.532,0,0,0,.754,0l2.054-2.053a.534.534,0,0,0-.377-.911h-4.107A.534.534,0,0,0,256.929,639.881Z" transform="translate(-232.967 -622.087)" fill="#d6001b"/>
    </g>
    <rect id="사각형_2412" data-name="사각형 2412" width="50" height="50" transform="translate(225.967 615.087)" fill="none"/>
  </g>
</svg>
