<svg xmlns="http://www.w3.org/2000/svg" width="50" height="50" viewBox="0 0 50 50">
  <g id="그룹_1958" data-name="그룹 1958" transform="translate(-166.463 -615.087)">
    <g id="그룹_1957" data-name="그룹 1957" transform="translate(173.463 622.087)">
      <g id="그룹_1950" data-name="그룹 1950" transform="translate(17)">
        <rect id="사각형_2395" data-name="사각형 2395" width="2" height="3" rx="1" fill="#99d7e2"/>
        <rect id="사각형_2396" data-name="사각형 2396" width="2" height="3" rx="1" transform="translate(0 33)" fill="#99d7e2"/>
      </g>
      <g id="그룹_1951" data-name="그룹 1951" transform="translate(4.565 4.565)">
        <rect id="사각형_2397" data-name="사각형 2397" width="2" height="3" rx="1" transform="translate(0 1.414) rotate(-45)" fill="#99d7e2"/>
        <rect id="사각형_2398" data-name="사각형 2398" width="2" height="3" rx="1" transform="translate(23.335 24.749) rotate(-45)" fill="#99d7e2"/>
      </g>
      <g id="그룹_1952" data-name="그룹 1952" transform="translate(0 17)">
        <rect id="사각형_2399" data-name="사각형 2399" width="2" height="3" rx="1" transform="translate(0 2) rotate(-90)" fill="#99d7e2"/>
        <rect id="사각형_2400" data-name="사각형 2400" width="2" height="3" rx="1" transform="translate(33 2) rotate(-90)" fill="#99d7e2"/>
      </g>
      <g id="그룹_1953" data-name="그룹 1953" transform="translate(4.565 4.565)">
        <rect id="사각형_2401" data-name="사각형 2401" width="2" height="3" rx="1" transform="translate(1.414 26.87) rotate(-135)" fill="#99d7e2"/>
        <rect id="사각형_2402" data-name="사각형 2402" width="2" height="3" rx="1" transform="translate(24.749 3.536) rotate(-135)" fill="#99d7e2"/>
      </g>
      <circle id="타원_565" data-name="타원 565" cx="18" cy="18" r="18" fill="none" stroke="#40b6b2" stroke-linecap="round" stroke-miterlimit="10" stroke-width="2"/>
      <g id="그룹_1954" data-name="그룹 1954" transform="translate(6.276 13.593)">
        <path id="패스_1925" data-name="패스 1925" d="M182.654,639.673a6.484,6.484,0,0,0,.539-.616,2.69,2.69,0,0,0,.3-.473,1.237,1.237,0,0,0,.121-.385,2.685,2.685,0,0,0,.023-.341v-.087a.8.8,0,0,0-.259-.579,1.215,1.215,0,0,0-.874-.258,2.111,2.111,0,0,0-.435.045,1.408,1.408,0,0,0-.423.164,1.82,1.82,0,0,0-.413.341,3.194,3.194,0,0,0-.4.561l-1.057-.693a6.22,6.22,0,0,1,.358-.55,2.615,2.615,0,0,1,.539-.544,2.98,2.98,0,0,1,.77-.413,3.022,3.022,0,0,1,1.05-.165,3.6,3.6,0,0,1,1.156.165,2.281,2.281,0,0,1,.8.446,1.724,1.724,0,0,1,.462.648,2.06,2.06,0,0,1,.149.776v.11a2.761,2.761,0,0,1-.292,1.238,4.455,4.455,0,0,1-.852,1.149l-2.332,2.354h3.773v1.166h-5.611v-1.056Z" transform="translate(-179.739 -635.68)" fill="#1a1818"/>
      </g>
      <g id="그룹_1956" data-name="그룹 1956" transform="translate(14.286 13.403)">
        <g id="그룹_1955" data-name="그룹 1955">
          <path id="패스_1926" data-name="패스 1926" d="M187.749,642.12h1.234c.384,0,.746,0,1.085-.01v-.69a2.52,2.52,0,0,1-.745-.231,2,2,0,0,1-.524-.369,1.343,1.343,0,0,1-.41-.97v-.36a1.371,1.371,0,0,1,.139-.591,1.544,1.544,0,0,1,.425-.519,2.255,2.255,0,0,1,.716-.37,3.763,3.763,0,0,1,2.034,0,2.252,2.252,0,0,1,.721.37,1.544,1.544,0,0,1,.425.519,1.371,1.371,0,0,1,.139.591v.36a1.343,1.343,0,0,1-.41.97,2.019,2.019,0,0,1-.524.369,2.506,2.506,0,0,1-.736.231v.67c.5-.014.942-.031,1.326-.055s.731-.052,1.044-.085l.09,1.06q-.429.05-.995.085c-.376.023-.809.042-1.3.054s-1.043.024-1.66.031-1.308.009-2.074.009Zm2.319-5.61v-1.02h1.25v1.02h2.01v1.06h-5.39v-1.06Zm.62,2.35a1.758,1.758,0,0,0-.5.065,1.007,1.007,0,0,0-.35.175.7.7,0,0,0-.2.245.6.6,0,0,0-.066.265v.119a.592.592,0,0,0,.066.271.717.717,0,0,0,.2.24,1.006,1.006,0,0,0,.35.175,1.758,1.758,0,0,0,.5.064,1.262,1.262,0,0,0,.85-.239.684.684,0,0,0,.271-.511v-.119a.684.684,0,0,0-.271-.51A1.251,1.251,0,0,0,190.688,638.86Zm4.731,5.95h-1.25v-9.3h1.25Z" transform="translate(-187.749 -635.49)" fill="#535453"/>
        </g>
      </g>
      <path id="패스_1927" data-name="패스 1927" d="M197.425,639.881l2.053,2.053a.533.533,0,0,0,.755,0l2.053-2.053a.533.533,0,0,0-.377-.911H197.8A.534.534,0,0,0,197.425,639.881Z" transform="translate(-173.463 -622.087)" fill="#d6001b"/>
    </g>
    <rect id="사각형_2403" data-name="사각형 2403" width="50" height="50" transform="translate(166.463 615.087)" fill="none"/>
  </g>
</svg>
