<svg xmlns="http://www.w3.org/2000/svg" width="50" height="50" viewBox="0 0 50 50">
  <g id="그룹_2012" data-name="그룹 2012" transform="translate(-520.705 -615.087)">
    <g id="그룹_2011" data-name="그룹 2011" transform="translate(527.705 622.087)">
      <g id="그룹_2004" data-name="그룹 2004" transform="translate(17)">
        <rect id="사각형_2449" data-name="사각형 2449" width="2" height="3" rx="1" fill="#99d7e2"/>
        <rect id="사각형_2450" data-name="사각형 2450" width="2" height="3" rx="1" transform="translate(0 33)" fill="#99d7e2"/>
      </g>
      <g id="그룹_2005" data-name="그룹 2005" transform="translate(4.565 4.565)">
        <rect id="사각형_2451" data-name="사각형 2451" width="2" height="3" rx="1" transform="translate(0 1.414) rotate(-45)" fill="#99d7e2"/>
        <rect id="사각형_2452" data-name="사각형 2452" width="2" height="3" rx="1" transform="translate(23.334 24.749) rotate(-45)" fill="#99d7e2"/>
      </g>
      <g id="그룹_2006" data-name="그룹 2006" transform="translate(0 17)">
        <rect id="사각형_2453" data-name="사각형 2453" width="2" height="3" rx="1" transform="translate(0 2) rotate(-90)" fill="#99d7e2"/>
        <rect id="사각형_2454" data-name="사각형 2454" width="2" height="3" rx="1" transform="translate(33 2) rotate(-90)" fill="#99d7e2"/>
      </g>
      <g id="그룹_2007" data-name="그룹 2007" transform="translate(4.565 4.565)">
        <rect id="사각형_2455" data-name="사각형 2455" width="2" height="3" rx="1" transform="translate(1.414 26.87) rotate(-135)" fill="#99d7e2"/>
        <rect id="사각형_2456" data-name="사각형 2456" width="2" height="3" rx="1" transform="translate(24.749 3.536) rotate(-135)" fill="#99d7e2"/>
      </g>
      <circle id="타원_571" data-name="타원 571" cx="18" cy="18" r="18" fill="none" stroke="#40b6b2" stroke-linecap="round" stroke-miterlimit="10" stroke-width="2"/>
      <g id="그룹_2008" data-name="그룹 2008" transform="translate(6.434 13.594)">
        <path id="패스_1943" data-name="패스 1943" d="M534.139,641.444a1.756,1.756,0,0,1,.109-.621,2.03,2.03,0,0,1,.289-.528,1.868,1.868,0,0,1,.408-.4,1.643,1.643,0,0,1,.479-.243,1.859,1.859,0,0,1-.485-.346,2.149,2.149,0,0,1-.332-.429,2.013,2.013,0,0,1-.2-.457,1.6,1.6,0,0,1-.065-.429v-.132a2.3,2.3,0,0,1,.147-.819,1.886,1.886,0,0,1,.458-.693,2.279,2.279,0,0,1,.784-.485,3.141,3.141,0,0,1,1.117-.18,3.109,3.109,0,0,1,1.106.18,2.346,2.346,0,0,1,.79.485,1.98,1.98,0,0,1,.474.693,2.166,2.166,0,0,1,.158.819v.132a1.587,1.587,0,0,1-.06.418,1.755,1.755,0,0,1-.191.441,2.323,2.323,0,0,1-.332.428,2.188,2.188,0,0,1-.485.374,1.673,1.673,0,0,1,.485.247,2,2,0,0,1,.409.4,1.92,1.92,0,0,1,.277.523,1.823,1.823,0,0,1,.1.621v.187a2.224,2.224,0,0,1-.174.881,1.93,1.93,0,0,1-.518.7,2.506,2.506,0,0,1-.844.468,3.576,3.576,0,0,1-1.155.171,3.8,3.8,0,0,1-1.194-.171,2.55,2.55,0,0,1-.866-.468,1.9,1.9,0,0,1-.523-.7,2.224,2.224,0,0,1-.174-.881Zm1.438.1a.954.954,0,0,0,.36.8,1.5,1.5,0,0,0,.948.28,1.414,1.414,0,0,0,.926-.28.981.981,0,0,0,.338-.8v-.109a1.124,1.124,0,0,0-.1-.506,1.1,1.1,0,0,0-.272-.353,1.067,1.067,0,0,0-.4-.209,1.758,1.758,0,0,0-.49-.066,1.818,1.818,0,0,0-.5.066,1.24,1.24,0,0,0-.414.2,1.014,1.014,0,0,0-.289.353,1.109,1.109,0,0,0-.109.512Zm.2-3.5a1,1,0,0,0,.1.457.969.969,0,0,0,.256.318,1.049,1.049,0,0,0,.354.188,1.34,1.34,0,0,0,.393.06,1.308,1.308,0,0,0,.4-.06,1,1,0,0,0,.344-.188.941.941,0,0,0,.245-.318,1.052,1.052,0,0,0,.093-.457v-.109a.968.968,0,0,0-.3-.776,1.164,1.164,0,0,0-.79-.259,1.181,1.181,0,0,0-.774.259.942.942,0,0,0-.316.776Z" transform="translate(-534.139 -635.681)" fill="#1a1818"/>
      </g>
      <g id="그룹_2010" data-name="그룹 2010" transform="translate(14.286 13.403)">
        <g id="그룹_2009" data-name="그룹 2009">
          <path id="패스_1944" data-name="패스 1944" d="M541.991,642.12h1.234c.384,0,.745,0,1.085-.01v-.69a2.52,2.52,0,0,1-.745-.231,2,2,0,0,1-.524-.369,1.354,1.354,0,0,1-.311-.46,1.378,1.378,0,0,1-.1-.51v-.36a1.358,1.358,0,0,1,.14-.591,1.532,1.532,0,0,1,.425-.519,2.245,2.245,0,0,1,.716-.37,3.763,3.763,0,0,1,2.034,0,2.252,2.252,0,0,1,.721.37,1.529,1.529,0,0,1,.424.519,1.359,1.359,0,0,1,.14.591v.36a1.354,1.354,0,0,1-.41.97,2.026,2.026,0,0,1-.525.369,2.508,2.508,0,0,1-.735.231v.67c.5-.014.941-.031,1.325-.055s.732-.052,1.045-.085l.09,1.06q-.429.05-.995.085c-.376.023-.81.042-1.3.054s-1.043.024-1.66.031-1.309.009-2.074.009Zm2.319-5.61v-1.02h1.25v1.02h2.01v1.06h-5.39v-1.06Zm.62,2.35a1.77,1.77,0,0,0-.505.065,1.011,1.011,0,0,0-.349.175.707.707,0,0,0-.2.245.611.611,0,0,0-.065.265v.119a.6.6,0,0,0,.065.271.721.721,0,0,0,.2.24,1.01,1.01,0,0,0,.349.175,1.77,1.77,0,0,0,.505.064,1.262,1.262,0,0,0,.85-.239.686.686,0,0,0,.27-.511v-.119a.686.686,0,0,0-.27-.51A1.251,1.251,0,0,0,544.93,638.86Zm4.731,5.95h-1.25v-9.3h1.25Z" transform="translate(-541.991 -635.49)" fill="#535453"/>
        </g>
      </g>
      <path id="패스_1945" data-name="패스 1945" d="M551.666,639.881l2.054,2.053a.533.533,0,0,0,.755,0l2.053-2.053a.534.534,0,0,0-.377-.911h-4.107A.534.534,0,0,0,551.666,639.881Z" transform="translate(-527.705 -622.087)" fill="#d6001b"/>
    </g>
    <rect id="사각형_2457" data-name="사각형 2457" width="50" height="50" transform="translate(520.705 615.087)" fill="none"/>
  </g>
</svg>
