<svg xmlns="http://www.w3.org/2000/svg" width="50" height="50" viewBox="0 0 50 50">
  <g id="그룹_2003" data-name="그룹 2003" transform="translate(-460.504 -615.087)">
    <g id="그룹_2002" data-name="그룹 2002" transform="translate(467.504 622.087)">
      <g id="그룹_1995" data-name="그룹 1995" transform="translate(17)">
        <rect id="사각형_2440" data-name="사각형 2440" width="2" height="3" rx="1" fill="#99d7e2"/>
        <rect id="사각형_2441" data-name="사각형 2441" width="2" height="3" rx="1" transform="translate(0 33)" fill="#99d7e2"/>
      </g>
      <g id="그룹_1996" data-name="그룹 1996" transform="translate(4.565 4.565)">
        <rect id="사각형_2442" data-name="사각형 2442" width="2" height="3" rx="1" transform="translate(0 1.414) rotate(-45)" fill="#99d7e2"/>
        <rect id="사각형_2443" data-name="사각형 2443" width="2" height="3" rx="1" transform="translate(23.335 24.749) rotate(-45)" fill="#99d7e2"/>
      </g>
      <g id="그룹_1997" data-name="그룹 1997" transform="translate(0 17)">
        <rect id="사각형_2444" data-name="사각형 2444" width="2" height="3" rx="1" transform="translate(0 2) rotate(-90)" fill="#99d7e2"/>
        <rect id="사각형_2445" data-name="사각형 2445" width="2" height="3" rx="1" transform="translate(33 2) rotate(-90)" fill="#99d7e2"/>
      </g>
      <g id="그룹_1998" data-name="그룹 1998" transform="translate(4.565 4.565)">
        <rect id="사각형_2446" data-name="사각형 2446" width="2" height="3" rx="1" transform="translate(1.414 26.87) rotate(-135)" fill="#99d7e2"/>
        <rect id="사각형_2447" data-name="사각형 2447" width="2" height="3" rx="1" transform="translate(24.749 3.536) rotate(-135)" fill="#99d7e2"/>
      </g>
      <circle id="타원_570" data-name="타원 570" cx="18" cy="18" r="18" fill="none" stroke="#40b6b2" stroke-linecap="round" stroke-miterlimit="10" stroke-width="2"/>
      <g id="그룹_1999" data-name="그룹 1999" transform="translate(6.346 13.715)">
        <path id="패스_1940" data-name="패스 1940" d="M476.455,643.732h-1.472L478,636.989H473.85V635.8h5.612v1.077Z" transform="translate(-473.85 -635.802)" fill="#1a1818"/>
      </g>
      <g id="그룹_2001" data-name="그룹 2001" transform="translate(14.286 13.403)">
        <g id="그룹_2000" data-name="그룹 2000">
          <path id="패스_1941" data-name="패스 1941" d="M481.79,642.12h1.234c.384,0,.746,0,1.085-.01v-.69a2.52,2.52,0,0,1-.745-.231,2,2,0,0,1-.524-.369,1.343,1.343,0,0,1-.41-.97v-.36a1.371,1.371,0,0,1,.139-.591,1.544,1.544,0,0,1,.425-.519,2.255,2.255,0,0,1,.716-.37,3.763,3.763,0,0,1,2.034,0,2.252,2.252,0,0,1,.721.37,1.544,1.544,0,0,1,.425.519,1.371,1.371,0,0,1,.139.591v.36a1.343,1.343,0,0,1-.41.97,2.019,2.019,0,0,1-.524.369,2.506,2.506,0,0,1-.736.231v.67c.5-.014.942-.031,1.326-.055s.731-.052,1.044-.085l.09,1.06q-.429.05-.995.085c-.376.023-.809.042-1.3.054s-1.043.024-1.66.031-1.308.009-2.074.009Zm2.319-5.61v-1.02h1.25v1.02h2.01v1.06h-5.39v-1.06Zm.62,2.35a1.758,1.758,0,0,0-.5.065,1.007,1.007,0,0,0-.35.175.7.7,0,0,0-.2.245.6.6,0,0,0-.066.265v.119a.592.592,0,0,0,.066.271.717.717,0,0,0,.2.24,1.006,1.006,0,0,0,.35.175,1.758,1.758,0,0,0,.5.064,1.262,1.262,0,0,0,.85-.239.684.684,0,0,0,.271-.511v-.119a.684.684,0,0,0-.271-.51A1.251,1.251,0,0,0,484.729,638.86Zm4.731,5.95h-1.25v-9.3h1.25Z" transform="translate(-481.79 -635.49)" fill="#535453"/>
        </g>
      </g>
      <path id="패스_1942" data-name="패스 1942" d="M491.466,639.881l2.053,2.053a.533.533,0,0,0,.755,0l2.053-2.053a.534.534,0,0,0-.377-.911h-4.107A.533.533,0,0,0,491.466,639.881Z" transform="translate(-467.504 -622.087)" fill="#d6001b"/>
    </g>
    <rect id="사각형_2448" data-name="사각형 2448" width="50" height="50" transform="translate(460.504 615.087)" fill="none"/>
  </g>
</svg>
