<svg xmlns="http://www.w3.org/2000/svg" width="50" height="50" viewBox="0 0 50 50">
  <g id="그룹_2030" data-name="그룹 2030" transform="translate(-641.105 -615.087)">
    <g id="그룹_2029" data-name="그룹 2029" transform="translate(648.106 622.087)">
      <g id="그룹_2022" data-name="그룹 2022" transform="translate(17)">
        <rect id="사각형_2467" data-name="사각형 2467" width="2" height="3" rx="1" fill="#99d7e2"/>
        <rect id="사각형_2468" data-name="사각형 2468" width="2" height="3" rx="1" transform="translate(0 33)" fill="#99d7e2"/>
      </g>
      <g id="그룹_2023" data-name="그룹 2023" transform="translate(4.565 4.565)">
        <rect id="사각형_2469" data-name="사각형 2469" width="2" height="3" rx="1" transform="translate(0 1.414) rotate(-45)" fill="#99d7e2"/>
        <rect id="사각형_2470" data-name="사각형 2470" width="2" height="3" rx="1" transform="translate(23.335 24.749) rotate(-45)" fill="#99d7e2"/>
      </g>
      <g id="그룹_2024" data-name="그룹 2024" transform="translate(0 17)">
        <rect id="사각형_2471" data-name="사각형 2471" width="2" height="3" rx="1" transform="translate(0 2) rotate(-90)" fill="#99d7e2"/>
        <rect id="사각형_2472" data-name="사각형 2472" width="2" height="3" rx="1" transform="translate(33 2) rotate(-90)" fill="#99d7e2"/>
      </g>
      <g id="그룹_2025" data-name="그룹 2025" transform="translate(4.565 4.565)">
        <rect id="사각형_2473" data-name="사각형 2473" width="2" height="3" rx="1" transform="translate(1.414 26.87) rotate(-135)" fill="#99d7e2"/>
        <rect id="사각형_2474" data-name="사각형 2474" width="2" height="3" rx="1" transform="translate(24.749 3.536) rotate(-135)" fill="#99d7e2"/>
      </g>
      <circle id="타원_573" data-name="타원 573" cx="18" cy="18" r="18" fill="none" stroke="#40b6b2" stroke-linecap="round" stroke-miterlimit="10" stroke-width="2"/>
      <g id="그룹_2026" data-name="그룹 2026" transform="translate(4 13.594)">
        <path id="패스_1949" data-name="패스 1949" d="M654.569,643.732v-6.346l-1.787,1.033-.676-1.144,2.627-1.473h1.231v7.93Z" transform="translate(-652.106 -635.681)" fill="#1a1818"/>
        <path id="패스_1950" data-name="패스 1950" d="M663.908,640.377a4.078,4.078,0,0,1-.708,2.585,2.563,2.563,0,0,1-2.136.892,2.682,2.682,0,0,1-2.169-.9,3.88,3.88,0,0,1-.763-2.574v-1.231a3.873,3.873,0,0,1,.758-2.569,2.646,2.646,0,0,1,2.141-.9,2.612,2.612,0,0,1,2.136.9,3.933,3.933,0,0,1,.741,2.569Zm-1.406-1.242a3.969,3.969,0,0,0-.125-1.1,1.7,1.7,0,0,0-.327-.643.992.992,0,0,0-.468-.3,2,2,0,0,0-.551-.076,1.938,1.938,0,0,0-.539.076,1.043,1.043,0,0,0-.48.308,1.706,1.706,0,0,0-.343.649,3.751,3.751,0,0,0-.131,1.09v1.254a3.628,3.628,0,0,0,.136,1.1,1.719,1.719,0,0,0,.354.65,1.069,1.069,0,0,0,.491.307,1.966,1.966,0,0,0,.545.077,1.892,1.892,0,0,0,.544-.077.946.946,0,0,0,.458-.3,1.682,1.682,0,0,0,.316-.644,4.148,4.148,0,0,0,.12-1.11Z" transform="translate(-652.106 -635.681)" fill="#1a1818"/>
      </g>
      <g id="그룹_2028" data-name="그룹 2028" transform="translate(17.286 13.403)">
        <g id="그룹_2027" data-name="그룹 2027">
          <path id="패스_1951" data-name="패스 1951" d="M665.392,642.12h1.234c.384,0,.746,0,1.085-.01v-.69a2.52,2.52,0,0,1-.745-.231,2.018,2.018,0,0,1-.524-.369,1.343,1.343,0,0,1-.41-.97v-.36a1.371,1.371,0,0,1,.139-.591,1.544,1.544,0,0,1,.425-.519,2.255,2.255,0,0,1,.716-.37,3.763,3.763,0,0,1,2.034,0,2.252,2.252,0,0,1,.721.37,1.544,1.544,0,0,1,.425.519,1.371,1.371,0,0,1,.139.591v.36a1.344,1.344,0,0,1-.41.97,2,2,0,0,1-.524.369,2.506,2.506,0,0,1-.736.231v.67c.5-.014.942-.031,1.326-.055s.731-.052,1.045-.085l.089,1.06q-.429.05-.995.085c-.376.023-.809.042-1.3.054s-1.043.024-1.66.031-1.308.009-2.074.009Zm2.319-5.61v-1.02h1.25v1.02h2.01v1.06h-5.389v-1.06Zm.621,2.35a1.76,1.76,0,0,0-.5.065,1.007,1.007,0,0,0-.35.175.7.7,0,0,0-.2.245.6.6,0,0,0-.066.265v.119a.592.592,0,0,0,.066.271.717.717,0,0,0,.2.24,1.006,1.006,0,0,0,.35.175,1.76,1.76,0,0,0,.5.064,1.261,1.261,0,0,0,.849-.239.685.685,0,0,0,.271-.511v-.119a.684.684,0,0,0-.271-.51A1.25,1.25,0,0,0,668.332,638.86Zm4.73,5.95h-1.25v-9.3h1.25Z" transform="translate(-665.392 -635.49)" fill="#535453"/>
        </g>
      </g>
      <path id="패스_1952" data-name="패스 1952" d="M675.068,639.881l2.053,2.053a.533.533,0,0,0,.755,0l2.053-2.053a.534.534,0,0,0-.377-.911h-4.107A.534.534,0,0,0,675.068,639.881Z" transform="translate(-648.106 -622.087)" fill="#d6001b"/>
    </g>
    <rect id="사각형_2475" data-name="사각형 2475" width="50" height="50" transform="translate(641.106 615.087)" fill="none"/>
  </g>
</svg>
