<svg xmlns="http://www.w3.org/2000/svg" width="50" height="50" viewBox="0 0 50 50">
  <g id="그룹_1994" data-name="그룹 1994" transform="translate(-399.658 -615.087)">
    <g id="그룹_1993" data-name="그룹 1993" transform="translate(406.659 622.087)">
      <g id="그룹_1986" data-name="그룹 1986" transform="translate(17)">
        <rect id="사각형_2431" data-name="사각형 2431" width="2" height="3" rx="1" fill="#99d7e2"/>
        <rect id="사각형_2432" data-name="사각형 2432" width="2" height="3" rx="1" transform="translate(0 33)" fill="#99d7e2"/>
      </g>
      <g id="그룹_1987" data-name="그룹 1987" transform="translate(4.565 4.565)">
        <rect id="사각형_2433" data-name="사각형 2433" width="2" height="3" rx="1" transform="translate(0 1.414) rotate(-45)" fill="#99d7e2"/>
        <rect id="사각형_2434" data-name="사각형 2434" width="2" height="3" rx="1" transform="translate(23.335 24.749) rotate(-45)" fill="#99d7e2"/>
      </g>
      <g id="그룹_1988" data-name="그룹 1988" transform="translate(0 17)">
        <rect id="사각형_2435" data-name="사각형 2435" width="2" height="3" rx="1" transform="translate(0 2) rotate(-90)" fill="#99d7e2"/>
        <rect id="사각형_2436" data-name="사각형 2436" width="2" height="3" rx="1" transform="translate(33 2) rotate(-90)" fill="#99d7e2"/>
      </g>
      <g id="그룹_1989" data-name="그룹 1989" transform="translate(4.565 4.565)">
        <rect id="사각형_2437" data-name="사각형 2437" width="2" height="3" rx="1" transform="translate(1.414 26.87) rotate(-135)" fill="#99d7e2"/>
        <rect id="사각형_2438" data-name="사각형 2438" width="2" height="3" rx="1" transform="translate(24.749 3.536) rotate(-135)" fill="#99d7e2"/>
      </g>
      <circle id="타원_569" data-name="타원 569" cx="18" cy="18" r="18" fill="none" stroke="#40b6b2" stroke-linecap="round" stroke-miterlimit="10" stroke-width="2"/>
      <g id="그룹_1990" data-name="그룹 1990" transform="translate(6.412 13.594)">
        <path id="패스_1937" data-name="패스 1937" d="M417.768,637.4a3.168,3.168,0,0,0-.774-.33,3.41,3.41,0,0,0-.894-.11,1.572,1.572,0,0,0-.582.11,1.3,1.3,0,0,0-.5.369,2.152,2.152,0,0,0-.376.682,3.731,3.731,0,0,0-.185,1.062,1.742,1.742,0,0,1,.768-.518,2.9,2.9,0,0,1,1-.176,2.764,2.764,0,0,1,1.025.182,2.108,2.108,0,0,1,.773.517,2.262,2.262,0,0,1,.485.808,3.083,3.083,0,0,1,.169,1.045v.22a2.756,2.756,0,0,1-.191,1.029,2.317,2.317,0,0,1-.55.824,2.557,2.557,0,0,1-.877.545,3.267,3.267,0,0,1-1.172.2,3.171,3.171,0,0,1-1.285-.237,2.208,2.208,0,0,1-.872-.677,2.885,2.885,0,0,1-.5-1.061,5.622,5.622,0,0,1-.158-1.381v-.506a7.869,7.869,0,0,1,.245-2.15,3.4,3.4,0,0,1,.67-1.321,2.23,2.23,0,0,1,.992-.66,3.97,3.97,0,0,1,1.21-.18,4.917,4.917,0,0,1,1.089.126,3.015,3.015,0,0,1,1,.423Zm-3.291,3.817a1.384,1.384,0,0,0,.348,1.007,1.371,1.371,0,0,0,1.025.357,1.492,1.492,0,0,0,1.084-.357,1.362,1.362,0,0,0,.365-1.018v-.121a1.393,1.393,0,0,0-.338-1.028,1.447,1.447,0,0,0-1.057-.335,1.775,1.775,0,0,0-.648.1,1.228,1.228,0,0,0-.442.285,1.128,1.128,0,0,0-.255.424,1.592,1.592,0,0,0-.082.517Z" transform="translate(-413.071 -635.681)" fill="#1a1818"/>
      </g>
      <g id="그룹_1992" data-name="그룹 1992" transform="translate(14.286 13.403)">
        <g id="그룹_1991" data-name="그룹 1991">
          <path id="패스_1938" data-name="패스 1938" d="M420.945,642.12h1.234c.384,0,.745,0,1.085-.01v-.69a2.52,2.52,0,0,1-.745-.231,2,2,0,0,1-.524-.369,1.354,1.354,0,0,1-.311-.46,1.378,1.378,0,0,1-.1-.51v-.36a1.358,1.358,0,0,1,.14-.591,1.532,1.532,0,0,1,.425-.519,2.245,2.245,0,0,1,.716-.37,3.763,3.763,0,0,1,2.034,0,2.252,2.252,0,0,1,.721.37,1.529,1.529,0,0,1,.424.519,1.358,1.358,0,0,1,.14.591v.36a1.354,1.354,0,0,1-.41.97,2.036,2.036,0,0,1-.524.369,2.516,2.516,0,0,1-.736.231v.67c.5-.014.942-.031,1.325-.055s.732-.052,1.045-.085l.09,1.06q-.429.05-.995.085c-.376.023-.81.042-1.3.054s-1.043.024-1.66.031-1.309.009-2.074.009Zm2.319-5.61v-1.02h1.25v1.02h2.01v1.06h-5.39v-1.06Zm.62,2.35a1.77,1.77,0,0,0-.505.065,1.01,1.01,0,0,0-.349.175.7.7,0,0,0-.2.245.6.6,0,0,0-.066.265v.119a.592.592,0,0,0,.066.271.717.717,0,0,0,.2.24,1.009,1.009,0,0,0,.349.175,1.77,1.77,0,0,0,.505.064,1.262,1.262,0,0,0,.85-.239.683.683,0,0,0,.27-.511v-.119a.683.683,0,0,0-.27-.51A1.251,1.251,0,0,0,423.884,638.86Zm4.731,5.95h-1.25v-9.3h1.25Z" transform="translate(-420.945 -635.49)" fill="#535453"/>
        </g>
      </g>
      <path id="패스_1939" data-name="패스 1939" d="M430.621,639.881l2.053,2.053a.533.533,0,0,0,.755,0l2.053-2.053a.534.534,0,0,0-.377-.911H431A.533.533,0,0,0,430.621,639.881Z" transform="translate(-406.659 -622.087)" fill="#d6001b"/>
    </g>
    <rect id="사각형_2439" data-name="사각형 2439" width="50" height="50" transform="translate(399.659 615.087)" fill="none"/>
  </g>
</svg>
