<svg xmlns="http://www.w3.org/2000/svg" width="50" height="50" viewBox="0 0 50 50">
  <g id="그룹_1985" data-name="그룹 1985" transform="translate(-342.719 -615.087)">
    <g id="그룹_1984" data-name="그룹 1984" transform="translate(349.72 622.087)">
      <g id="그룹_1977" data-name="그룹 1977" transform="translate(17)">
        <rect id="사각형_2422" data-name="사각형 2422" width="2" height="3" rx="1" fill="#99d7e2"/>
        <rect id="사각형_2423" data-name="사각형 2423" width="2" height="3" rx="1" transform="translate(0 33)" fill="#99d7e2"/>
      </g>
      <g id="그룹_1978" data-name="그룹 1978" transform="translate(4.565 4.565)">
        <rect id="사각형_2424" data-name="사각형 2424" width="2" height="3" rx="1" transform="translate(0 1.414) rotate(-45)" fill="#99d7e2"/>
        <rect id="사각형_2425" data-name="사각형 2425" width="2" height="3" rx="1" transform="translate(23.335 24.749) rotate(-45)" fill="#99d7e2"/>
      </g>
      <g id="그룹_1979" data-name="그룹 1979" transform="translate(0 17)">
        <rect id="사각형_2426" data-name="사각형 2426" width="2" height="3" rx="1" transform="translate(0 2) rotate(-90)" fill="#99d7e2"/>
        <rect id="사각형_2427" data-name="사각형 2427" width="2" height="3" rx="1" transform="translate(33 2) rotate(-90)" fill="#99d7e2"/>
      </g>
      <g id="그룹_1980" data-name="그룹 1980" transform="translate(4.565 4.565)">
        <rect id="사각형_2428" data-name="사각형 2428" width="2" height="3" rx="1" transform="translate(1.414 26.87) rotate(-135)" fill="#99d7e2"/>
        <rect id="사각형_2429" data-name="사각형 2429" width="2" height="3" rx="1" transform="translate(24.749 3.536) rotate(-135)" fill="#99d7e2"/>
      </g>
      <circle id="타원_568" data-name="타원 568" cx="18" cy="18" r="18" fill="none" stroke="#40b6b2" stroke-linecap="round" stroke-miterlimit="10" stroke-width="2"/>
      <g id="그룹_1981" data-name="그룹 1981" transform="translate(6.423 13.715)">
        <path id="패스_1934" data-name="패스 1934" d="M360.327,641.081a1.273,1.273,0,0,0-.365-.978,1.433,1.433,0,0,0-1.019-.341,1.872,1.872,0,0,0-.866.186,2.6,2.6,0,0,0-.627.441h-.937l.251-4.587h4.456v1.166h-3.2l-.087,2.067a3.244,3.244,0,0,1,.621-.286,2.586,2.586,0,0,1,.839-.121,2.4,2.4,0,0,1,1,.2,2.189,2.189,0,0,1,.736.533,2.277,2.277,0,0,1,.452.777,2.753,2.753,0,0,1,.152.912v.165a2.979,2.979,0,0,1-.157.946,2.335,2.335,0,0,1-.5.847,2.61,2.61,0,0,1-.871.611,3.109,3.109,0,0,1-1.27.237,5.586,5.586,0,0,1-1.526-.193,3.41,3.41,0,0,1-1.263-.687l.675-1.112a3.7,3.7,0,0,0,.534.364,2.684,2.684,0,0,0,.518.219,2.8,2.8,0,0,0,.517.1,5.2,5.2,0,0,0,.534.027,1.342,1.342,0,0,0,1.062-.39,1.435,1.435,0,0,0,.344-.985Z" transform="translate(-356.143 -635.802)" fill="#1a1818"/>
      </g>
      <g id="그룹_1983" data-name="그룹 1983" transform="translate(14.286 13.403)">
        <g id="그룹_1982" data-name="그룹 1982">
          <path id="패스_1935" data-name="패스 1935" d="M364.006,642.12h1.234c.384,0,.745,0,1.085-.01v-.69a2.52,2.52,0,0,1-.745-.231,2,2,0,0,1-.524-.369,1.343,1.343,0,0,1-.41-.97v-.36a1.357,1.357,0,0,1,.139-.591,1.544,1.544,0,0,1,.425-.519,2.245,2.245,0,0,1,.716-.37,3.763,3.763,0,0,1,2.034,0,2.252,2.252,0,0,1,.721.37,1.529,1.529,0,0,1,.424.519,1.358,1.358,0,0,1,.14.591v.36a1.343,1.343,0,0,1-.41.97,2.019,2.019,0,0,1-.524.369,2.516,2.516,0,0,1-.736.231v.67c.5-.014.942-.031,1.325-.055s.732-.052,1.045-.085l.09,1.06q-.429.05-.995.085c-.376.023-.81.042-1.3.054s-1.043.024-1.66.031-1.309.009-2.074.009Zm2.319-5.61v-1.02h1.25v1.02h2.01v1.06H364.2v-1.06Zm.62,2.35a1.77,1.77,0,0,0-.505.065,1.01,1.01,0,0,0-.349.175.7.7,0,0,0-.2.245.6.6,0,0,0-.066.265v.119a.592.592,0,0,0,.066.271.717.717,0,0,0,.2.24,1.009,1.009,0,0,0,.349.175,1.77,1.77,0,0,0,.505.064,1.262,1.262,0,0,0,.85-.239.683.683,0,0,0,.27-.511v-.119a.683.683,0,0,0-.27-.51A1.251,1.251,0,0,0,366.945,638.86Zm4.731,5.95h-1.25v-9.3h1.25Z" transform="translate(-364.006 -635.49)" fill="#535453"/>
        </g>
      </g>
      <path id="패스_1936" data-name="패스 1936" d="M373.681,639.881l2.054,2.053a.533.533,0,0,0,.755,0l2.053-2.053a.534.534,0,0,0-.377-.911h-4.107A.534.534,0,0,0,373.681,639.881Z" transform="translate(-349.72 -622.087)" fill="#d6001b"/>
    </g>
    <rect id="사각형_2430" data-name="사각형 2430" width="50" height="50" transform="translate(342.72 615.087)" fill="none"/>
  </g>
</svg>
