<svg xmlns="http://www.w3.org/2000/svg" width="50" height="50" viewBox="0 0 50 50">
  <g id="그룹_1730" data-name="그룹 1730" transform="translate(-761.225 -530.977)">
    <g id="그룹_1729" data-name="그룹 1729" transform="translate(769.396 538.761)">
      <g id="그룹_1726" data-name="그룹 1726" transform="translate(12.402)">
        <rect id="사각형_2247" data-name="사각형 2247" width="10.413" height="20.827" rx="4.959" transform="translate(5.007 0) rotate(13.91)" fill="#68c3df"/>
        <g id="그룹_1725" data-name="그룹 1725" transform="translate(4.637 2.28)">
          <path id="패스_1677" data-name="패스 1677" d="M786.764,545.06a.434.434,0,0,1-.316-.526,4.6,4.6,0,0,1,5.57-3.358.434.434,0,1,1-.209.842,3.736,3.736,0,0,0-4.519,2.725A.435.435,0,0,1,786.764,545.06Z" transform="translate(-786.435 -541.04)" fill="#fff"/>
        </g>
        <circle id="타원_537" data-name="타원 537" cx="0.555" cy="0.555" r="0.555" transform="translate(4.096 7.02)" fill="#fff"/>
      </g>
      <g id="그룹_1727" data-name="그룹 1727" transform="translate(10.398 9.512)">
        <path id="패스_1678" data-name="패스 1678" d="M791.433,548.273A11.276,11.276,0,0,0,779.815,560H803.05A11.275,11.275,0,0,0,791.433,548.273Z" transform="translate(-779.794 -548.273)" fill="#fada49"/>
        <path id="패스_1679" data-name="패스 1679" d="M791.433,571.722A11.275,11.275,0,0,0,803.05,560H779.815A11.276,11.276,0,0,0,791.433,571.722Z" transform="translate(-779.794 -548.273)" fill="#f6d83a"/>
        <path id="패스_1680" data-name="패스 1680" d="M803.039,560h-1.521a10.107,10.107,0,1,1-20.214,0h-1.51a11.618,11.618,0,1,0,23.234,0" transform="translate(-779.794 -548.273)" fill="#e8c62a"/>
        <path id="패스_1681" data-name="패스 1681" d="M779.81,560h1.521a10.107,10.107,0,1,1,20.214,0h1.51a11.617,11.617,0,1,0-23.234,0" transform="translate(-779.794 -548.273)" fill="#ffde60"/>
        <path id="패스_1682" data-name="패스 1682" d="M781.337,561.181h20.192l1.51-1.183H779.826Z" transform="translate(-779.794 -548.273)" fill="#ffe06b"/>
        <path id="패스_1683" data-name="패스 1683" d="M801.529,558.814H781.337L779.826,560h23.213Z" transform="translate(-779.794 -548.273)" fill="#e8c62a"/>
      </g>
      <g id="패스_1684" data-name="패스 1684" transform="translate(-769.396 -538.761)" fill="#fff" stroke-miterlimit="10">
        <path d="M 773.0222778320312 571.1480712890625 C 772.0472412109375 571.1480712890625 771.1876220703125 570.6404418945312 770.722900390625 569.7901000976562 C 770.2523803710938 568.9291381835938 770.2918701171875 567.9156494140625 770.8286743164062 567.0789794921875 L 770.8624877929688 567.0262451171875 L 770.8894653320312 566.9697265625 L 779.3953857421875 549.1485595703125 C 779.900634765625 548.3956298828125 780.7355346679688 547.9479370117188 781.6403198242188 547.9479370117188 C 782.5464477539062 547.9479370117188 783.3440551757812 548.3773193359375 783.8344116210938 549.12744140625 L 793.14208984375 566.8078002929688 L 793.160888671875 566.843505859375 L 793.1824951171875 566.8776245117188 C 793.703857421875 567.6995239257812 793.73291015625 568.7066040039062 793.2603149414062 569.5716552734375 C 792.7798461914062 570.4511108398438 791.8980102539062 570.9794921875 790.9014282226562 570.9849853515625 L 773.0348510742188 571.1480712890625 L 773.0222778320312 571.1480712890625 Z" stroke="none"/>
        <path d="M 773.0222778320312 570.1480712890625 L 773.0304565429688 570.1480712890625 L 790.8887329101562 569.9850463867188 L 790.892333984375 569.9850463867188 L 790.8959350585938 569.9849853515625 C 791.8004150390625 569.9800415039062 792.2369995117188 569.3590087890625 792.3827514648438 569.0922241210938 C 792.5247192382812 568.8323974609375 792.8045043945312 568.1486206054688 792.3380737304688 567.4132080078125 L 792.2948608398438 567.3450317382812 L 792.2572631835938 567.273681640625 L 782.9740600585938 549.6397705078125 C 782.5452880859375 549.0166625976562 781.9022216796875 548.9479370117188 781.6403198242188 548.9479370117188 C 781.3726196289062 548.9479370117188 780.7192993164062 549.0184936523438 780.2634887695312 549.6513671875 L 771.7919311523438 567.4005126953125 L 771.7379760742188 567.5135498046875 L 771.6703491210938 567.6190185546875 C 771.1856689453125 568.3744506835938 771.4599609375 569.0535888671875 771.6004028320312 569.310546875 C 771.738037109375 569.5623779296875 772.152099609375 570.1480712890625 773.0222778320312 570.1480712890625 M 773.0222778320312 572.1480712890625 C 770.1443481445312 572.1480712890625 768.4229125976562 568.9768676757812 769.9869995117188 566.5390014648438 L 778.52197265625 548.656982421875 C 779.2521362304688 547.5184936523438 780.44921875 546.9479370117188 781.6403198242188 546.9479370117188 C 782.81787109375 546.9479370117188 783.9895629882812 547.5054321289062 784.698974609375 548.6229858398438 L 794.0269775390625 566.3419799804688 C 795.5670166015625 568.77001953125 793.7979736328125 571.968994140625 790.906982421875 571.9849853515625 L 773.0440063476562 572.1480102539062 C 773.0367431640625 572.1480712890625 773.029541015625 572.1480712890625 773.0222778320312 572.1480712890625 Z" stroke="none" fill="#ec441c"/>
      </g>
      <g id="그룹_1728" data-name="그룹 1728" transform="translate(10.113 16.349)">
        <path id="패스_1685" data-name="패스 1685" d="M783.578,557.084l-.029.306-.647,5.257a1.356,1.356,0,0,1-2.711,0l-.653-5.257-.029-.306a2.035,2.035,0,0,1,4.069,0Z" transform="translate(-779.509 -555.11)" fill="#ec441c"/>
        <ellipse id="타원_538" data-name="타원 538" cx="1.294" cy="1.256" rx="1.294" ry="1.256" transform="translate(0.74 9.629)" fill="#ec441c"/>
      </g>
    </g>
    <rect id="사각형_2249" data-name="사각형 2249" width="50" height="50" transform="translate(761.225 530.977)" fill="none"/>
  </g>
</svg>
