<svg xmlns="http://www.w3.org/2000/svg" xmlns:xlink="http://www.w3.org/1999/xlink" width="50" height="50" viewBox="0 0 50 50">
  <defs>
    <clipPath id="clip-path">
      <rect id="사각형_2195" data-name="사각형 2195" width="2.456" height="19.405" fill="none"/>
    </clipPath>
    <clipPath id="clip-path-3">
      <path id="패스_1643" data-name="패스 1643" d="M686.457,555.52a18.809,18.809,0,1,1-18.808-18.664A18.735,18.735,0,0,1,686.457,555.52Z" transform="translate(-648.84 -536.856)" fill="none"/>
    </clipPath>
  </defs>
  <g id="그룹_1667" data-name="그룹 1667" transform="translate(-642.686 -529.984)">
    <rect id="사각형_2192" data-name="사각형 2192" width="50" height="50" transform="translate(642.686 529.984)" fill="#fff"/>
    <g id="그룹_1666" data-name="그룹 1666" transform="translate(648.84 535.784)">
      <g id="패스_1632" data-name="패스 1632" transform="translate(-648.84 -535.784)" fill="#f9f3ec" stroke-miterlimit="10">
        <path d="M 667.6859741210938 573.6840209960938 C 662.7748413085938 573.6840209960938 658.1624755859375 571.7705078125 654.6983642578125 568.2960205078125 C 653.0172729492188 566.60986328125 651.6975708007812 564.6471557617188 650.77587890625 562.4623413085938 C 649.8231201171875 560.2039794921875 649.3400268554688 557.8070068359375 649.3400268554688 555.3380126953125 C 649.3400268554688 552.8612060546875 649.8250122070312 550.4586791992188 650.7815551757812 548.1972045898438 C 651.7056274414062 546.0126342773438 653.0285034179688 544.0505981445312 654.7135620117188 542.3655395507812 C 656.3986206054688 540.6804809570312 658.3606567382812 539.3576049804688 660.5452270507812 538.4335327148438 C 662.806640625 537.4769897460938 665.2091674804688 536.9920043945312 667.6859741210938 536.9920043945312 C 672.5916137695312 536.9920043945312 677.2012329101562 538.9025268554688 680.6657104492188 542.3717041015625 C 682.348876953125 544.05712890625 683.6702270507812 546.0194702148438 684.5931396484375 548.2041625976562 C 685.5479125976562 550.4642944335938 686.031982421875 552.8644409179688 686.031982421875 555.3380126953125 C 686.031982421875 557.8018798828125 685.5501098632812 560.1953125 684.599853515625 562.45166015625 C 683.6796264648438 564.6365966796875 682.3619384765625 566.5997314453125 680.6834716796875 568.2865600585938 C 677.2200317382812 571.7671508789062 672.6041259765625 573.6840209960938 667.6859741210938 573.6840209960938 Z" stroke="none"/>
        <path d="M 667.6859741210938 537.4920043945312 C 662.9193115234375 537.4920043945312 658.4378662109375 539.3483276367188 655.067138671875 542.7191162109375 C 651.6963500976562 546.08984375 649.8400268554688 550.5713500976562 649.8400268554688 555.3380126953125 C 649.8400268554688 557.7398681640625 650.3098754882812 560.0714721679688 651.236572265625 562.2680053710938 C 652.1331176757812 564.3932495117188 653.4169921875 566.3026123046875 655.0524291992188 567.9429931640625 C 658.4220581054688 571.3226928710938 662.90869140625 573.1840209960938 667.6859741210938 573.1840209960938 C 672.4700927734375 573.1840209960938 676.9601440429688 571.3195190429688 680.3290405273438 567.9338989257812 C 681.9619750976562 566.2928466796875 683.2438354492188 564.383056640625 684.1390380859375 562.257568359375 C 685.0633544921875 560.06298828125 685.531982421875 557.73486328125 685.531982421875 555.3380126953125 C 685.531982421875 552.931640625 685.0611572265625 550.596923828125 684.132568359375 548.3987426757812 C 683.2348022460938 546.2736206054688 681.9494018554688 544.3646850585938 680.3118896484375 542.7250366210938 C 676.9419555664062 539.3504638671875 672.4579467773438 537.4920043945312 667.6859741210938 537.4920043945312 M 667.6859741210938 536.4920043945312 C 678.114013671875 536.4920043945312 686.531982421875 544.947021484375 686.531982421875 555.3380126953125 C 686.531982421875 565.6799926757812 678.1630249023438 574.1840209960938 667.6859741210938 574.1840209960938 C 657.2360229492188 574.1840209960938 648.8400268554688 565.7059936523438 648.8400268554688 555.3380126953125 C 648.8400268554688 544.9299926757812 657.2780151367188 536.4920043945312 667.6859741210938 536.4920043945312 Z" stroke="none" fill="#ec441c"/>
      </g>
      <path id="패스_1633" data-name="패스 1633" d="M683.453,555.338a15.767,15.767,0,1,1-15.767-15.767A15.765,15.765,0,0,1,683.453,555.338Z" transform="translate(-648.84 -535.784)" fill="#ebe1d6"/>
      <path id="패스_1634" data-name="패스 1634" d="M681.58,555.338a13.894,13.894,0,1,1-13.894-13.894A13.893,13.893,0,0,1,681.58,555.338Z" transform="translate(-648.84 -535.784)" fill="#f6eee6"/>
      <path id="패스_1635" data-name="패스 1635" d="M664.026,573.1a1.672,1.672,0,0,1-.408.3,1.273,1.273,0,0,1-.6.152h0a1.422,1.422,0,0,1-1.006-.456,3.447,3.447,0,0,1-.821-2.621l.637-9.49q.184-2.754.184-5.519v-8.411h2.015v8.417q0,2.757.184,5.509l.635,9.494A3.456,3.456,0,0,1,664.026,573.1Z" transform="translate(-648.84 -535.784)" fill="#cecece"/>
      <path id="패스_1636" data-name="패스 1636" d="M664.026,573.1a1.672,1.672,0,0,1-.408.3,1.724,1.724,0,0,1-.406-.3,3.447,3.447,0,0,1-.821-2.621l.636-9.49q.185-2.754.185-5.519v-8.411h.814v8.417q0,2.757.184,5.509l.635,9.494A3.456,3.456,0,0,1,664.026,573.1Z" transform="translate(-648.84 -535.784)" fill="#e0e0df"/>
      <path id="패스_1637" data-name="패스 1637" d="M667.229,543.032c0,2.641-1.27,4.871-3.011,5.585a3.146,3.146,0,0,1-1.2.24c-2.326,0-4.212-2.607-4.212-5.825s1.65-7.242,3.976-7.242a2.4,2.4,0,0,1,1.22.361C665.8,537.208,667.229,540.393,667.229,543.032Z" transform="translate(-648.84 -535.784)" fill="#b4d6eb"/>
      <path id="패스_1638" data-name="패스 1638" d="M667.229,543.032c0,2.641-1.27,4.871-3.011,5.585-1.741-.714-3.011-2.944-3.011-5.585s1.111-5.824,2.8-6.881C665.8,537.208,667.229,540.393,667.229,543.032Z" transform="translate(-648.84 -535.784)" fill="#c9e3f6"/>
      <path id="패스_1639" data-name="패스 1639" d="M673.447,573.075a1.667,1.667,0,0,1-.407.3,1.279,1.279,0,0,1-.6.152h0a1.419,1.419,0,0,1-1.006-.456,3.443,3.443,0,0,1-.822-2.621l.637-9.49q.184-2.754.185-5.519v-8.411h2.014v8.417q0,2.757.184,5.509l.636,9.494A3.46,3.46,0,0,1,673.447,573.075Z" transform="translate(-648.84 -535.784)" fill="#cecece"/>
      <path id="패스_1640" data-name="패스 1640" d="M673.447,573.075a1.667,1.667,0,0,1-.407.3,1.708,1.708,0,0,1-.407-.3,3.447,3.447,0,0,1-.821-2.621l.636-9.49q.184-2.754.185-5.519v-8.411h.814v8.417q0,2.757.184,5.509l.636,9.494A3.46,3.46,0,0,1,673.447,573.075Z" transform="translate(-648.84 -535.784)" fill="#e0e0df"/>
      <path id="패스_1641" data-name="패스 1641" d="M676.566,536.528v8.731a3.323,3.323,0,0,1-3.327,3.327h-1.6a3.326,3.326,0,0,1-3.327-3.327v-8.731a.744.744,0,0,1,.743-.744h.169a.744.744,0,0,1,.744.744v4.17a.87.87,0,0,0,.87.87.888.888,0,0,0,.089-.005.868.868,0,0,0,.781-.865v-4.17a.745.745,0,0,1,1.489,0v4.17a.87.87,0,0,0,.87.87h0a.871.871,0,0,0,.87-.87v-4.17a.744.744,0,0,1,.743-.744h.141A.745.745,0,0,1,676.566,536.528Z" transform="translate(-648.84 -535.784)" fill="#b4d6eb"/>
      <path id="패스_1642" data-name="패스 1642" d="M676.566,536.528v8.731a3.325,3.325,0,0,1-.266,1.307,3.421,3.421,0,0,1-5.373-2.813v-2.19a.868.868,0,0,0,.781-.865v-4.17a.745.745,0,0,1,.745-.744.746.746,0,0,1,.744.744v4.17a.87.87,0,0,0,.87.87h0a.871.871,0,0,0,.87-.87v-4.17a.744.744,0,0,1,.743-.744h.141A.745.745,0,0,1,676.566,536.528Z" transform="translate(-648.84 -535.784)" fill="#c9e3f6"/>
      <g id="그룹_1660" data-name="그룹 1660" transform="translate(11.722 18.413)">
        <rect id="사각형_2193" data-name="사각형 2193" width="4.911" height="19.335" rx="2.046" fill="#2e6fb0"/>
        <g id="그룹_1659" data-name="그룹 1659">
          <g id="그룹_1658" data-name="그룹 1658" clip-path="url(#clip-path)">
            <rect id="사각형_2194" data-name="사각형 2194" width="4.911" height="19.335" rx="2.046" fill="#205fab"/>
          </g>
        </g>
      </g>
      <g id="그룹_1663" data-name="그룹 1663" transform="translate(21.143 18.413)">
        <rect id="사각형_2196" data-name="사각형 2196" width="4.911" height="19.335" rx="2.046" fill="#2e6fb0"/>
        <g id="그룹_1662" data-name="그룹 1662">
          <g id="그룹_1661" data-name="그룹 1661" clip-path="url(#clip-path)">
            <rect id="사각형_2197" data-name="사각형 2197" width="4.911" height="19.335" rx="2.046" fill="#205fab"/>
          </g>
        </g>
      </g>
      <g id="그룹_1665" data-name="그룹 1665" transform="translate(0 1.072)">
        <g id="그룹_1664" data-name="그룹 1664" clip-path="url(#clip-path-3)">
          <rect id="사각형_2199" data-name="사각형 2199" width="39.799" height="3.958" transform="translate(4.995 31.154) rotate(-45)" fill="#ec441c"/>
        </g>
      </g>
    </g>
  </g>
</svg>
