<svg xmlns="http://www.w3.org/2000/svg" xmlns:xlink="http://www.w3.org/1999/xlink" width="50" height="50" viewBox="0 0 50 50">
  <defs>
    <clipPath id="clip-path">
      <rect id="사각형_2188" data-name="사각형 2188" width="2.456" height="19.405" fill="none"/>
    </clipPath>
  </defs>
  <g id="그룹_1657" data-name="그룹 1657" transform="translate(-587.367 -529.984)">
    <rect id="사각형_2185" data-name="사각형 2185" width="50" height="50" transform="translate(587.366 529.984)" fill="#fff"/>
    <g id="그룹_1656" data-name="그룹 1656" transform="translate(593.52 535.784)">
      <g id="패스_1621" data-name="패스 1621" transform="translate(-593.52 -535.784)" fill="#f9f3ec" stroke-miterlimit="10">
        <path d="M 612.3660278320312 573.6840209960938 C 607.4548950195312 573.6840209960938 602.8424682617188 571.7705078125 599.3783569335938 568.2960205078125 C 597.697265625 566.60986328125 596.3775634765625 564.6471557617188 595.4558715820312 562.4623413085938 C 594.5031127929688 560.2039794921875 594.02001953125 557.8070068359375 594.02001953125 555.3380126953125 C 594.02001953125 552.8612060546875 594.5050048828125 550.4586791992188 595.4615478515625 548.1972045898438 C 596.3856201171875 546.0126342773438 597.70849609375 544.0505981445312 599.3935546875 542.3655395507812 C 601.07861328125 540.6804809570312 603.0406494140625 539.3576049804688 605.2252197265625 538.4335327148438 C 607.4866943359375 537.4769897460938 609.8892211914062 536.9920043945312 612.3660278320312 536.9920043945312 C 617.2716674804688 536.9920043945312 621.8812866210938 538.9025268554688 625.345703125 542.3717041015625 C 627.0288696289062 544.05712890625 628.3502197265625 546.0194702148438 629.2731323242188 548.2041625976562 C 630.2279052734375 550.4642944335938 630.7119750976562 552.8644409179688 630.7119750976562 555.3380126953125 C 630.7119750976562 557.8019409179688 630.2301635742188 560.1953125 629.2799682617188 562.45166015625 C 628.3598022460938 564.6366577148438 627.042236328125 566.5997924804688 625.3638305664062 568.28662109375 C 621.9005126953125 571.7671508789062 617.2844848632812 573.6840209960938 612.3660278320312 573.6840209960938 Z" stroke="none"/>
        <path d="M 612.3660278320312 537.4920043945312 C 607.599365234375 537.4920043945312 603.1178588867188 539.3483276367188 599.7471313476562 542.7191162109375 C 596.3763427734375 546.08984375 594.52001953125 550.5713500976562 594.52001953125 555.3380126953125 C 594.52001953125 557.7398681640625 594.9898681640625 560.0714721679688 595.9165649414062 562.2680053710938 C 596.8131103515625 564.3932495117188 598.0969848632812 566.3026123046875 599.732421875 567.9429931640625 C 603.10205078125 571.3226928710938 607.5887451171875 573.1840209960938 612.3660278320312 573.1840209960938 C 617.1504516601562 573.1840209960938 621.640625 571.3195190429688 625.0093994140625 567.9338989257812 C 626.6422729492188 566.2928466796875 627.924072265625 564.383056640625 628.8191528320312 562.2576293945312 C 629.7433471679688 560.06298828125 630.2119750976562 557.7349243164062 630.2119750976562 555.3380126953125 C 630.2119750976562 552.931640625 629.7411499023438 550.596923828125 628.8125610351562 548.3987426757812 C 627.9148559570312 546.2736206054688 626.62939453125 544.3646850585938 624.9918823242188 542.7250366210938 C 621.6219482421875 539.3504638671875 617.1380004882812 537.4920043945312 612.3660278320312 537.4920043945312 M 612.3660278320312 536.4920043945312 C 622.7940063476562 536.4920043945312 631.2119750976562 544.947021484375 631.2119750976562 555.3380126953125 C 631.2119750976562 565.6799926757812 622.843994140625 574.1840209960938 612.3660278320312 574.1840209960938 C 601.916015625 574.1840209960938 593.52001953125 565.7059936523438 593.52001953125 555.3380126953125 C 593.52001953125 544.9299926757812 601.9580078125 536.4920043945312 612.3660278320312 536.4920043945312 Z" stroke="none" fill="#eae0d5"/>
      </g>
      <path id="패스_1622" data-name="패스 1622" d="M628.133,555.338a15.767,15.767,0,1,1-15.767-15.767A15.765,15.765,0,0,1,628.133,555.338Z" transform="translate(-593.52 -535.784)" fill="#ebe1d6"/>
      <path id="패스_1623" data-name="패스 1623" d="M626.26,555.338a13.894,13.894,0,1,1-13.894-13.894A13.892,13.892,0,0,1,626.26,555.338Z" transform="translate(-593.52 -535.784)" fill="#f6eee6"/>
      <path id="패스_1624" data-name="패스 1624" d="M608.706,573.1a1.668,1.668,0,0,1-.407.3,1.28,1.28,0,0,1-.6.152h0a1.42,1.42,0,0,1-1.006-.456,3.443,3.443,0,0,1-.822-2.621l.637-9.49q.184-2.754.185-5.519v-8.411h2.014v8.417q0,2.757.184,5.509l.636,9.494A3.46,3.46,0,0,1,608.706,573.1Z" transform="translate(-593.52 -535.784)" fill="#cecece"/>
      <path id="패스_1625" data-name="패스 1625" d="M608.706,573.1a1.668,1.668,0,0,1-.407.3,1.707,1.707,0,0,1-.407-.3,3.447,3.447,0,0,1-.821-2.621l.636-9.49q.185-2.754.185-5.519v-8.411h.814v8.417q0,2.757.184,5.509l.636,9.494A3.46,3.46,0,0,1,608.706,573.1Z" transform="translate(-593.52 -535.784)" fill="#e0e0df"/>
      <path id="패스_1626" data-name="패스 1626" d="M611.909,543.032c0,2.641-1.27,4.871-3.011,5.585a3.146,3.146,0,0,1-1.2.24c-2.326,0-4.211-2.607-4.211-5.825s1.649-7.242,3.975-7.242a2.408,2.408,0,0,1,1.221.361C610.48,537.208,611.909,540.393,611.909,543.032Z" transform="translate(-593.52 -535.784)" fill="#b4d6eb"/>
      <path id="패스_1627" data-name="패스 1627" d="M611.909,543.032c0,2.641-1.27,4.871-3.011,5.585-1.741-.714-3.011-2.944-3.011-5.585s1.111-5.824,2.795-6.881C610.48,537.208,611.909,540.393,611.909,543.032Z" transform="translate(-593.52 -535.784)" fill="#c9e3f6"/>
      <path id="패스_1628" data-name="패스 1628" d="M618.127,573.075a1.667,1.667,0,0,1-.407.3,1.279,1.279,0,0,1-.6.152h0a1.422,1.422,0,0,1-1.006-.456,3.451,3.451,0,0,1-.822-2.621l.637-9.49q.186-2.754.185-5.519v-8.411h2.014v8.417q0,2.757.185,5.509l.635,9.494A3.457,3.457,0,0,1,618.127,573.075Z" transform="translate(-593.52 -535.784)" fill="#cecece"/>
      <path id="패스_1629" data-name="패스 1629" d="M618.127,573.075a1.667,1.667,0,0,1-.407.3,1.729,1.729,0,0,1-.407-.3,3.447,3.447,0,0,1-.821-2.621l.636-9.49q.184-2.754.185-5.519v-8.411h.814v8.417q0,2.757.185,5.509l.635,9.494A3.457,3.457,0,0,1,618.127,573.075Z" transform="translate(-593.52 -535.784)" fill="#e0e0df"/>
      <path id="패스_1630" data-name="패스 1630" d="M621.246,536.528v8.731a3.323,3.323,0,0,1-3.327,3.327h-1.6a3.326,3.326,0,0,1-3.327-3.327v-8.731a.744.744,0,0,1,.744-.744h.168a.744.744,0,0,1,.744.744v4.17a.87.87,0,0,0,1.741,0v-4.17a.744.744,0,0,1,1.488,0v4.17a.87.87,0,0,0,.87.87h0a.871.871,0,0,0,.87-.87v-4.17a.745.745,0,0,1,.744-.744h.14A.745.745,0,0,1,621.246,536.528Z" transform="translate(-593.52 -535.784)" fill="#b4d6eb"/>
      <path id="패스_1631" data-name="패스 1631" d="M621.246,536.528v8.731a3.325,3.325,0,0,1-.266,1.307,3.421,3.421,0,0,1-5.373-2.813v-2.19a.87.87,0,0,0,.782-.865v-4.17a.744.744,0,0,1,1.488,0v4.17a.87.87,0,0,0,.87.87h0a.871.871,0,0,0,.87-.87v-4.17a.744.744,0,0,1,.743-.744h.141A.745.745,0,0,1,621.246,536.528Z" transform="translate(-593.52 -535.784)" fill="#c9e3f6"/>
      <g id="그룹_1652" data-name="그룹 1652" transform="translate(11.722 18.413)">
        <rect id="사각형_2186" data-name="사각형 2186" width="4.911" height="19.335" rx="2.046" fill="#2e6fb0"/>
        <g id="그룹_1651" data-name="그룹 1651">
          <g id="그룹_1650" data-name="그룹 1650" clip-path="url(#clip-path)">
            <rect id="사각형_2187" data-name="사각형 2187" width="4.911" height="19.335" rx="2.046" fill="#205fab"/>
          </g>
        </g>
      </g>
      <g id="그룹_1655" data-name="그룹 1655" transform="translate(21.143 18.413)">
        <rect id="사각형_2189" data-name="사각형 2189" width="4.911" height="19.335" rx="2.046" fill="#2e6fb0"/>
        <g id="그룹_1654" data-name="그룹 1654">
          <g id="그룹_1653" data-name="그룹 1653" clip-path="url(#clip-path)">
            <rect id="사각형_2190" data-name="사각형 2190" width="4.911" height="19.335" rx="2.046" fill="#205fab"/>
          </g>
        </g>
      </g>
    </g>
  </g>
</svg>
