<svg xmlns="http://www.w3.org/2000/svg" width="50" height="50" viewBox="0 0 50 50">
  <g id="그룹_1672" data-name="그룹 1672" transform="translate(-698.752 -529.984)">
    <g id="그룹_1671" data-name="그룹 1671" transform="translate(705.951 535.827)">
      <path id="패스_1644" data-name="패스 1644" d="M735.224,554.14a11.439,11.439,0,0,1-3.46,8.095,7.845,7.845,0,0,0-2.316,5.625v.013H718.056v-.289A7.6,7.6,0,0,0,715.7,562.2a11.472,11.472,0,0,1,8.589-19.63A11.569,11.569,0,0,1,735.224,554.14Z" transform="translate(-705.951 -535.827)" fill="#fba911"/>
      <g id="그룹_1668" data-name="그룹 1668" transform="translate(0 0)">
        <rect id="사각형_2200" data-name="사각형 2200" width="4.766" height="2.264" rx="1.132" transform="translate(0 21.143)" fill="#fcd087"/>
        <rect id="사각형_2201" data-name="사각형 2201" width="4.766" height="2.264" rx="1.132" transform="translate(30.837 21.143)" fill="#fcd087"/>
        <rect id="사각형_2202" data-name="사각형 2202" width="4.766" height="2.264" rx="1.132" transform="translate(30.734 10.613) rotate(-45)" fill="#fcd087"/>
        <rect id="사각형_2203" data-name="사각형 2203" width="4.766" height="2.264" rx="1.132" transform="translate(3.635 12.214) rotate(-135)" fill="#fcd087"/>
        <rect id="사각형_2204" data-name="사각형 2204" width="4.766" height="2.264" rx="1.132" transform="translate(18.49 0) rotate(90)" fill="#fcd087"/>
      </g>
      <path id="패스_1645" data-name="패스 1645" d="M729.147,556.072l-4.09,4.1v5.88a1.305,1.305,0,1,1-2.61,0v-5.88l-4.09-4.1a1.3,1.3,0,0,1,0-1.84,1.254,1.254,0,0,1,.92-.38,1.27,1.27,0,0,1,.92.38l3.56,3.56,3.55-3.56a1.286,1.286,0,0,1,.92-.38,1.254,1.254,0,0,1,.92.38A1.3,1.3,0,0,1,729.147,556.072Z" transform="translate(-705.951 -535.827)" fill="#fce5bd" opacity="0.33"/>
      <g id="그룹_1669" data-name="그룹 1669" transform="translate(8.845 34.468)">
        <rect id="사각형_2205" data-name="사각형 2205" width="17.913" height="3.845" rx="1.923" fill="#255590"/>
        <path id="패스_1646" data-name="패스 1646" d="M732.709,572.218h0a1.928,1.928,0,0,1-1.923,1.923H716.718a1.928,1.928,0,0,1-1.922-1.923h0" transform="translate(-714.796 -570.296)" fill="#2f5e90"/>
      </g>
      <g id="그룹_1670" data-name="그룹 1670" transform="translate(8.845 30.623)">
        <rect id="사각형_2206" data-name="사각형 2206" width="17.913" height="3.845" rx="1.923" fill="#255590"/>
        <path id="패스_1647" data-name="패스 1647" d="M732.709,568.373h0a1.929,1.929,0,0,1-1.923,1.923H716.718a1.929,1.929,0,0,1-1.922-1.923h0" transform="translate(-714.796 -566.45)" fill="#2f5e90"/>
      </g>
    </g>
    <rect id="사각형_2207" data-name="사각형 2207" width="50" height="50" transform="translate(698.752 529.984)" fill="none"/>
  </g>
</svg>
