<svg xmlns="http://www.w3.org/2000/svg" width="50" height="50" viewBox="0 0 50 50">
    <defs>
        <style>
            .cls-1{fill:#f9a300}.cls-2{fill:#f3a400}.cls-3{fill:#f6ad05}.cls-4{fill:#feb500}.cls-5{fill:#1a1818}.cls-6{fill:none}
        </style>
    </defs>
    <g id="그룹_2455" data-name="그룹 2455" transform="translate(-448.521 -198.16)">
        <g id="그룹_2454" data-name="그룹 2454">
            <path id="패스_2197" d="M467.433 239.81c.24.024.479.036.73.048-.156.012-.311.012-.466.012a1.7 1.7 0 0 1-.264-.06z" class="cls-1" data-name="패스 2197"/>
            <path id="패스_2198" d="M488.935 225.2a17.3 17.3 0 0 1-16.072 15.151 13.675 13.675 0 0 1-1.567.012 2.493 2.493 0 0 0 .3-.012 17.212 17.212 0 0 0 3.3-33.843c-.5-.191-1.005-.347-1.531-.49a17.238 17.238 0 0 1 15.57 19.182z" class="cls-2" data-name="패스 2198"/>
            <path id="패스_2199" d="M487.668 225.2a17.3 17.3 0 0 1-16.068 15.148 2.493 2.493 0 0 1-.3.012 16.958 16.958 0 0 1-3.6-.49c.155 0 .31 0 .466-.012h.012a17.184 17.184 0 0 0 17.83-15.176 18.051 18.051 0 0 0 .108-2.774c-.024-.371-.048-.73-.084-1.088a17.115 17.115 0 0 0-.741-3.468 5.559 5.559 0 0 0-.215-.622 16.743 16.743 0 0 0-1.77-3.516 6.86 6.86 0 0 0-.4-.574 16.435 16.435 0 0 0-1.865-2.2c-.144-.131-.276-.263-.419-.394a11.098 11.098 0 0 0-.706-.622c-.167-.144-.334-.275-.5-.407a16.99 16.99 0 0 0-4.484-2.5 17.237 17.237 0 0 1 12.736 18.683z" class="cls-3" data-name="패스 2199"/>
            <path id="패스_2200" d="M486.005 224.682a17.184 17.184 0 0 1-17.83 15.176c.155 0 .323 0 .49-.012a17.225 17.225 0 0 0 3.432-33.831 16.651 16.651 0 0 1 2.8.49 17.224 17.224 0 0 1 11.108 18.177z" class="cls-1" data-name="패스 2200"/>
            <path id="패스_2201" d="M486.005 224.682a17.192 17.192 0 0 1-18.572 15.128h-.012a17.081 17.081 0 0 1-6.218-3.1 13.545 13.545 0 0 0 1.411-.072 17.206 17.206 0 0 0 9.208-30.626.558.558 0 0 0-.083-.072h.083q.791 0 1.543.072a17.224 17.224 0 0 1 12.64 18.67z" class="cls-4" data-name="패스 2201"/>
            <g id="그룹_2451" data-name="그룹 2451">
                <path id="패스_2202" d="M472.62 217.348l-2.336 2.611h2.5a.65.65 0 0 1 .457.143.476.476 0 0 1 .154.367.448.448 0 0 1-.151.35.676.676 0 0 1-.46.135h-3.457a.81.81 0 0 1-.545-.158.553.553 0 0 1-.179-.435.542.542 0 0 1 .126-.329q.126-.166.523-.61.42-.467.764-.845t.637-.708c.2-.22.359-.406.489-.558s.233-.284.31-.393h-1.9a1.9 1.9 0 0 1-.594-.07c-.133-.046-.2-.17-.2-.369a.439.439 0 0 1 .152-.35.645.645 0 0 1 .432-.131h2.929a1.327 1.327 0 0 1 .624.119.445.445 0 0 1 .217.428.592.592 0 0 1-.042.212.791.791 0 0 1-.093.18c-.035.047-.081.1-.14.17s-.13.148-.217.241z" class="cls-5" data-name="패스 2202"/>
            </g>
            <g id="그룹_2452" data-name="그룹 2452">
                <path id="패스_2203" d="M465.383 223.894l-2.335 2.612h2.5a.653.653 0 0 1 .458.142.476.476 0 0 1 .154.367.448.448 0 0 1-.152.35.671.671 0 0 1-.46.136h-3.458a.8.8 0 0 1-.544-.159.557.557 0 0 1-.054-.764c.084-.11.259-.313.523-.609q.421-.468.764-.846t.638-.708c.2-.219.359-.406.488-.558s.233-.283.311-.392h-1.9a1.92 1.92 0 0 1-.593-.07q-.2-.07-.2-.369a.44.44 0 0 1 .152-.351.643.643 0 0 1 .432-.131h2.929a1.306 1.306 0 0 1 .623.12.443.443 0 0 1 .218.427.6.6 0 0 1-.042.213.726.726 0 0 1-.094.179c-.034.047-.081.1-.14.171s-.131.146-.218.24z" class="cls-5" data-name="패스 2203"/>
            </g>
            <g id="그룹_2453" data-name="그룹 2453">
                <path id="패스_2204" d="M462.011 214.39l-2.336 2.61h2.5a.653.653 0 0 1 .458.142.476.476 0 0 1 .154.367.448.448 0 0 1-.152.35.669.669 0 0 1-.46.136h-3.457a.8.8 0 0 1-.544-.159.557.557 0 0 1-.054-.764q.126-.165.524-.609.42-.468.763-.846t.638-.708q.294-.328.488-.558t.311-.392h-1.9a1.929 1.929 0 0 1-.593-.07q-.2-.071-.2-.369a.44.44 0 0 1 .152-.351.643.643 0 0 1 .432-.131h2.929a1.313 1.313 0 0 1 .624.12.444.444 0 0 1 .217.427.6.6 0 0 1-.042.213.725.725 0 0 1-.094.179c-.034.047-.081.1-.14.171s-.129.152-.218.242z" class="cls-5" data-name="패스 2204"/>
            </g>
        </g>
        <path id="사각형_2704" d="M0 0h50v50H0z" class="cls-6" data-name="사각형 2704" transform="translate(448.522 198.16)"/>
    </g>
</svg>
