<svg xmlns="http://www.w3.org/2000/svg" width="50" height="50" viewBox="0 0 50 50">
  <g id="그룹_1880" data-name="그룹 1880" transform="translate(-399.658 -459.315)">
    <g id="그룹_1879" data-name="그룹 1879" transform="translate(406.015 466.315)">
      <g id="그룹_1875" data-name="그룹 1875" transform="translate(0.287 0)">
        <g id="그룹_1871" data-name="그룹 1871" transform="translate(16.988)">
          <rect id="사각형_2330" data-name="사각형 2330" width="2" height="3" rx="1" fill="#7bc9c6"/>
          <rect id="사각형_2331" data-name="사각형 2331" width="2" height="3" rx="1" transform="translate(0.025 33)" fill="#7bc9c6"/>
        </g>
        <g id="그룹_1872" data-name="그룹 1872" transform="translate(4.557 4.574)">
          <rect id="사각형_2332" data-name="사각형 2332" width="2" height="3" rx="1" transform="translate(0 1.415) rotate(-45.044)" fill="#7bc9c6"/>
        </g>
        <g id="그룹_1873" data-name="그룹 1873" transform="translate(0 16.986)">
          <rect id="사각형_2333" data-name="사각형 2333" width="2" height="3" rx="1" transform="translate(0.002 2.027) rotate(-90.044)" fill="#7bc9c6"/>
          <rect id="사각형_2334" data-name="사각형 2334" width="2" height="3" rx="1" transform="translate(33.002 2.002) rotate(-90.044)" fill="#7bc9c6"/>
        </g>
        <g id="그룹_1874" data-name="그룹 1874" transform="translate(4.575 4.556)">
          <rect id="사각형_2335" data-name="사각형 2335" width="2" height="3" rx="1" transform="matrix(-0.708, -0.707, 0.707, -0.708, 1.415, 26.888)" fill="#7bc9c6"/>
          <rect id="사각형_2336" data-name="사각형 2336" width="2" height="3" rx="1" transform="translate(24.732 3.536) rotate(-135.043)" fill="#7bc9c6"/>
        </g>
      </g>
      <g id="그룹_1876" data-name="그룹 1876">
        <path id="패스_1884" data-name="패스 1884" d="M430.337,501.174a18.015,18.015,0,1,1,7.688-5.557" transform="translate(-406.015 -466.315)" fill="none" stroke="#06a7ce" stroke-linecap="round" stroke-miterlimit="10" stroke-width="2"/>
        <path id="패스_1885" data-name="패스 1885" d="M442.251,496.683l-5.217.5a.858.858,0,0,1-.4-.112.994.994,0,0,1-.5-.547.862.862,0,0,1-.072-.407l-.517-5.219a1,1,0,0,1,1.743-.623,1.022,1.022,0,0,1,.263.72l.557,4.236,4.236-.557a1,1,0,1,1-.1,2.006Z" transform="translate(-406.015 -466.315)" fill="#06a7ce"/>
      </g>
      <g id="그룹_1877" data-name="그룹 1877" transform="translate(15.464 8.267)">
        <path id="패스_1886" data-name="패스 1886" d="M426.648,476.453a3.473,3.473,0,0,0-.853-.36,3.806,3.806,0,0,0-.983-.119,1.729,1.729,0,0,0-.643.121,1.418,1.418,0,0,0-.551.4,2.354,2.354,0,0,0-.413.744,4.043,4.043,0,0,0-.2,1.158,1.939,1.939,0,0,1,.847-.565,3.236,3.236,0,0,1,1.1-.192,3.051,3.051,0,0,1,1.129.2,2.308,2.308,0,0,1,.851.563,2.486,2.486,0,0,1,.535.882,3.355,3.355,0,0,1,.188,1.139v.24a3,3,0,0,1-.209,1.123,2.564,2.564,0,0,1-.606.9,2.821,2.821,0,0,1-.965.6,3.642,3.642,0,0,1-1.29.217,3.509,3.509,0,0,1-1.416-.257,2.431,2.431,0,0,1-.961-.737,3.156,3.156,0,0,1-.547-1.158,6.105,6.105,0,0,1-.175-1.506v-.552a8.463,8.463,0,0,1,.268-2.346,3.674,3.674,0,0,1,.737-1.441,2.438,2.438,0,0,1,1.091-.72,4.379,4.379,0,0,1,1.332-.2,5.451,5.451,0,0,1,1.2.137,3.327,3.327,0,0,1,1.1.461Zm-3.62,4.166a1.351,1.351,0,0,0,1.513,1.486,1.652,1.652,0,0,0,1.194-.39,1.483,1.483,0,0,0,.4-1.111v-.131a1.52,1.52,0,0,0-.372-1.122,1.605,1.605,0,0,0-1.165-.365,1.979,1.979,0,0,0-.714.114,1.346,1.346,0,0,0-.485.313,1.209,1.209,0,0,0-.282.462,1.709,1.709,0,0,0-.089.564Z" transform="translate(-421.479 -474.582)" fill="#1a1818"/>
      </g>
      <g id="그룹_1878" data-name="그룹 1878" transform="translate(8.726 18.548)">
        <path id="패스_1887" data-name="패스 1887" d="M419.01,489.571q.321.351.7.725t.77.725l-.809.85c-.227-.213-.446-.425-.661-.635s-.413-.411-.6-.6-.356-.368-.49-.525a1.435,1.435,0,0,1-.251-.365h-.02a1.534,1.534,0,0,1-.274.4c-.149.178-.309.353-.475.526-.186.193-.383.392-.589.6s-.454.439-.74.7l-.831-.86a20.677,20.677,0,0,0,1.5-1.47,3.749,3.749,0,0,0,.365-.46,2.394,2.394,0,0,0,.234-.451,2.346,2.346,0,0,0,.13-.48,3.532,3.532,0,0,0,.04-.56l0-2.17h1.29l0,2.17c0,.2.009.38.025.54a1.887,1.887,0,0,0,.1.455,2.278,2.278,0,0,0,.217.429A2.729,2.729,0,0,0,419.01,489.571Zm3.524,4.6h-1.27l-.008-9.3h1.27Z" transform="translate(-414.741 -484.863)" fill="#535453"/>
        <path id="패스_1888" data-name="패스 1888" d="M423.88,489.777q1.059-.459,1.7-.785a5.185,5.185,0,0,0,.974-.617,1.427,1.427,0,0,0,.445-.59,2.178,2.178,0,0,0,.1-.71v-.56l-2.821,0v-1.08l4.08,0V487.2a3.123,3.123,0,0,1-.148,1.025,2.035,2.035,0,0,1-.579.826,5.979,5.979,0,0,1-1.205.8q-.774.411-2.025.952Zm2.783,3.208,4.739,0v1.08l-6.009,0,0-3.069h1.27Zm4.515-5.633H432.4v1.1h-1.219l0,3.03h-1.26l-.006-6.619h1.26Z" transform="translate(-414.741 -484.863)" fill="#535453"/>
      </g>
    </g>
    <rect id="사각형_2337" data-name="사각형 2337" width="50" height="50" transform="translate(399.659 459.315)" fill="none"/>
  </g>
</svg>
