<svg xmlns="http://www.w3.org/2000/svg" width="50" height="50" viewBox="0 0 50 50">
  <g id="그룹_1850" data-name="그룹 1850" transform="translate(-225.967 -459.315)">
    <g id="그룹_1849" data-name="그룹 1849" transform="translate(232.323 466.315)">
      <g id="그룹_1845" data-name="그룹 1845" transform="translate(0.287 0)">
        <g id="그룹_1841" data-name="그룹 1841" transform="translate(16.988)">
          <rect id="사각형_2306" data-name="사각형 2306" width="2" height="3" rx="1" fill="#7bc9c6"/>
          <rect id="사각형_2307" data-name="사각형 2307" width="2" height="3" rx="1" transform="translate(0.025 33)" fill="#7bc9c6"/>
        </g>
        <g id="그룹_1842" data-name="그룹 1842" transform="translate(4.557 4.574)">
          <rect id="사각형_2308" data-name="사각형 2308" width="2" height="3" rx="1" transform="translate(0 1.415) rotate(-45.044)" fill="#7bc9c6"/>
        </g>
        <g id="그룹_1843" data-name="그룹 1843" transform="translate(0 16.986)">
          <rect id="사각형_2309" data-name="사각형 2309" width="2" height="3" rx="1" transform="matrix(-0.001, -1, 1, -0.001, 0.002, 2.027)" fill="#7bc9c6"/>
          <rect id="사각형_2310" data-name="사각형 2310" width="2" height="3" rx="1" transform="translate(33.002 2.002) rotate(-90.044)" fill="#7bc9c6"/>
        </g>
        <g id="그룹_1844" data-name="그룹 1844" transform="translate(4.575 4.556)">
          <rect id="사각형_2311" data-name="사각형 2311" width="2" height="3" rx="1" transform="matrix(-0.708, -0.707, 0.707, -0.708, 1.415, 26.888)" fill="#7bc9c6"/>
          <rect id="사각형_2312" data-name="사각형 2312" width="2" height="3" rx="1" transform="translate(24.732 3.536) rotate(-135.043)" fill="#7bc9c6"/>
        </g>
      </g>
      <g id="그룹_1846" data-name="그룹 1846">
        <path id="패스_1869" data-name="패스 1869" d="M256.646,501.174a18.012,18.012,0,1,1,7.688-5.557" transform="translate(-232.323 -466.315)" fill="none" stroke="#06a7ce" stroke-linecap="round" stroke-miterlimit="10" stroke-width="2"/>
        <path id="패스_1870" data-name="패스 1870" d="M268.56,496.683l-5.218.5a.861.861,0,0,1-.4-.112.992.992,0,0,1-.5-.547.876.876,0,0,1-.073-.407l-.516-5.219a1.006,1.006,0,0,1,1.051-.954,1.015,1.015,0,0,1,.955,1.051l.557,4.236,4.236-.557a1,1,0,0,1-.1,2.006Z" transform="translate(-232.323 -466.315)" fill="#06a7ce"/>
      </g>
      <g id="그룹_1847" data-name="그룹 1847" transform="translate(15.322 8.268)">
        <path id="패스_1871" data-name="패스 1871" d="M247.88,475.833a3.408,3.408,0,0,1,1.032-.907,3.072,3.072,0,0,1,1.536-.343,3.612,3.612,0,0,1,1.1.155,2.525,2.525,0,0,1,.84.437,1.935,1.935,0,0,1,.541.684,2.019,2.019,0,0,1,.193.881v.12a3.123,3.123,0,0,1-.053.546,1.926,1.926,0,0,1-.581,1.063,1.846,1.846,0,0,1-.613.372,1.975,1.975,0,0,1,1.273.683,2.025,2.025,0,0,1,.409,1.272v.18a2.435,2.435,0,0,1-.19.948,2.253,2.253,0,0,1-.582.8,2.912,2.912,0,0,1-.984.559,4.151,4.151,0,0,1-1.386.211,4.556,4.556,0,0,1-1.458-.233,4.209,4.209,0,0,1-1.315-.725l.755-1.2c.208.152.4.279.571.383a3.015,3.015,0,0,0,.5.246,2.419,2.419,0,0,0,.468.126,3.29,3.29,0,0,0,.492.035,1.836,1.836,0,0,0,1.2-.325,1.116,1.116,0,0,0,.383-.9v-.156a1.117,1.117,0,0,0-.373-.93,1.943,1.943,0,0,0-1.2-.293h-1.164v-1.32h1.032a2.055,2.055,0,0,0,.666-.09.943.943,0,0,0,.4-.253.9.9,0,0,0,.2-.4,2.329,2.329,0,0,0,.053-.51v-.1a.809.809,0,0,0-.319-.713,1.466,1.466,0,0,0-.857-.221,1.736,1.736,0,0,0-.9.2,2.9,2.9,0,0,0-.629.516Z" transform="translate(-247.645 -474.583)" fill="#1a1818"/>
      </g>
      <g id="그룹_1848" data-name="그룹 1848" transform="translate(8.727 18.548)">
        <path id="패스_1872" data-name="패스 1872" d="M245.318,489.571c.214.234.449.475.7.725s.509.491.77.725l-.81.85q-.339-.32-.661-.635t-.6-.6c-.194-.194-.357-.368-.491-.525a1.452,1.452,0,0,1-.25-.365h-.02a1.534,1.534,0,0,1-.274.4c-.15.178-.309.353-.475.526q-.281.289-.59.6c-.206.2-.453.439-.739.7l-.831-.86q.849-.759,1.5-1.47a3.949,3.949,0,0,0,.365-.46,2.331,2.331,0,0,0,.233-.451,2.224,2.224,0,0,0,.13-.48,3.419,3.419,0,0,0,.04-.56l0-2.17h1.29l0,2.17a5.143,5.143,0,0,0,.026.54,1.886,1.886,0,0,0,.1.455,2.339,2.339,0,0,0,.217.429A2.838,2.838,0,0,0,245.318,489.571Zm3.525,4.6h-1.271l-.008-9.3h1.271Z" transform="translate(-241.05 -484.863)" fill="#535453"/>
        <path id="패스_1873" data-name="패스 1873" d="M250.188,489.777q1.061-.459,1.7-.785a5.138,5.138,0,0,0,.973-.617,1.43,1.43,0,0,0,.446-.59,2.18,2.18,0,0,0,.1-.71v-.56l-2.82,0v-1.08l4.08,0V487.2a3.149,3.149,0,0,1-.148,1.025,2.028,2.028,0,0,1-.58.826,5.951,5.951,0,0,1-1.205.8q-.772.411-2.024.952Zm2.784,3.208,4.739,0v1.08l-6.01,0,0-3.069h1.271Zm4.514-5.633h1.22v1.1h-1.22l0,3.03h-1.26l-.005-6.619h1.259Z" transform="translate(-241.05 -484.863)" fill="#535453"/>
      </g>
    </g>
    <rect id="사각형_2313" data-name="사각형 2313" width="50" height="50" transform="translate(225.967 459.315)" fill="none"/>
  </g>
</svg>
