<svg xmlns="http://www.w3.org/2000/svg" width="50" height="50" viewBox="0 0 50 50">
  <g id="그룹_1900" data-name="그룹 1900" transform="translate(-520.705 -459.315)">
    <g id="그룹_1899" data-name="그룹 1899" transform="translate(527.06 466.315)">
      <g id="그룹_1895" data-name="그룹 1895" transform="translate(0.288 0)">
        <g id="그룹_1891" data-name="그룹 1891" transform="translate(16.988)">
          <rect id="사각형_2346" data-name="사각형 2346" width="2" height="3" rx="1" fill="#7bc9c6"/>
          <rect id="사각형_2347" data-name="사각형 2347" width="2" height="3" rx="1" transform="translate(0.025 33)" fill="#7bc9c6"/>
        </g>
        <g id="그룹_1892" data-name="그룹 1892" transform="translate(4.557 4.574)">
          <rect id="사각형_2348" data-name="사각형 2348" width="2" height="3" rx="1" transform="translate(0 1.415) rotate(-45.044)" fill="#7bc9c6"/>
        </g>
        <g id="그룹_1893" data-name="그룹 1893" transform="translate(0 16.986)">
          <rect id="사각형_2349" data-name="사각형 2349" width="2" height="3" rx="1" transform="matrix(-0.001, -1, 1, -0.001, 0.002, 2.027)" fill="#7bc9c6"/>
          <rect id="사각형_2350" data-name="사각형 2350" width="2" height="3" rx="1" transform="translate(33.002 2.002) rotate(-90.044)" fill="#7bc9c6"/>
        </g>
        <g id="그룹_1894" data-name="그룹 1894" transform="translate(4.575 4.556)">
          <rect id="사각형_2351" data-name="사각형 2351" width="2" height="3" rx="1" transform="translate(1.415 26.888) rotate(-135.044)" fill="#7bc9c6"/>
          <rect id="사각형_2352" data-name="사각형 2352" width="2" height="3" rx="1" transform="translate(24.732 3.536) rotate(-135.043)" fill="#7bc9c6"/>
        </g>
      </g>
      <g id="그룹_1896" data-name="그룹 1896">
        <path id="패스_1894" data-name="패스 1894" d="M551.383,501.174a18.012,18.012,0,1,1,7.688-5.557" transform="translate(-527.06 -466.315)" fill="none" stroke="#06a7ce" stroke-linecap="round" stroke-miterlimit="10" stroke-width="2"/>
        <path id="패스_1895" data-name="패스 1895" d="M563.3,496.683l-5.217.5a.862.862,0,0,1-.4-.112,1,1,0,0,1-.5-.547.862.862,0,0,1-.072-.407l-.517-5.219a1.007,1.007,0,0,1,1.051-.954A1.015,1.015,0,0,1,558.6,491l.557,4.236,4.236-.557a1,1,0,1,1-.1,2.006Z" transform="translate(-527.06 -466.315)" fill="#06a7ce"/>
      </g>
      <g id="그룹_1897" data-name="그룹 1897" transform="translate(15.489 8.267)">
        <path id="패스_1896" data-name="패스 1896" d="M542.549,480.872a1.925,1.925,0,0,1,.119-.678,2.269,2.269,0,0,1,.319-.576,2.148,2.148,0,0,1,.45-.439,1.805,1.805,0,0,1,.526-.264,2.047,2.047,0,0,1-.534-.377,2.35,2.35,0,0,1-.365-.468,2.168,2.168,0,0,1-.218-.5,1.706,1.706,0,0,1-.071-.468v-.144a2.494,2.494,0,0,1,.161-.894,2.035,2.035,0,0,1,.5-.756,2.512,2.512,0,0,1,.862-.529,3.5,3.5,0,0,1,1.231-.2,3.44,3.44,0,0,1,1.217.2,2.591,2.591,0,0,1,.872.528,2.155,2.155,0,0,1,.522.755,2.362,2.362,0,0,1,.175.894v.144a1.724,1.724,0,0,1-.067.456,1.926,1.926,0,0,1-.209.48,2.513,2.513,0,0,1-.9.877,1.8,1.8,0,0,1,.534.269,2.1,2.1,0,0,1,.757,1.008,1.994,1.994,0,0,1,.114.678v.2a2.392,2.392,0,0,1-.19.96,2.1,2.1,0,0,1-.57.768,2.766,2.766,0,0,1-.929.511,4.009,4.009,0,0,1-1.273.187,4.23,4.23,0,0,1-1.313-.185,2.836,2.836,0,0,1-.955-.509,2.06,2.06,0,0,1-.576-.768,2.394,2.394,0,0,1-.194-.96Zm1.584.107a1.031,1.031,0,0,0,.4.87,1.663,1.663,0,0,0,1.044.3,1.558,1.558,0,0,0,1.019-.307,1.065,1.065,0,0,0,.371-.87v-.12a1.224,1.224,0,0,0-.114-.552,1.19,1.19,0,0,0-.3-.384,1.169,1.169,0,0,0-.437-.228,2.1,2.1,0,0,0-1.086,0,1.339,1.339,0,0,0-.456.223,1.122,1.122,0,0,0-.319.384,1.221,1.221,0,0,0-.119.558Zm.213-3.816a1.067,1.067,0,0,0,.109.5,1.052,1.052,0,0,0,.283.347,1.169,1.169,0,0,0,.389.2,1.483,1.483,0,0,0,.433.066,1.457,1.457,0,0,0,.438-.066,1.143,1.143,0,0,0,.377-.205.987.987,0,0,0,.27-.348,1.144,1.144,0,0,0,.1-.5v-.12a1.054,1.054,0,0,0-.331-.845,1.294,1.294,0,0,0-.871-.282,1.311,1.311,0,0,0-.851.283,1.021,1.021,0,0,0-.348.845Z" transform="translate(-542.549 -474.582)" fill="#1a1818"/>
      </g>
      <g id="그룹_1898" data-name="그룹 1898" transform="translate(8.727 18.548)">
        <path id="패스_1897" data-name="패스 1897" d="M540.056,489.571q.321.351.7.725t.77.725l-.809.85q-.34-.32-.661-.635t-.6-.6c-.193-.194-.356-.368-.49-.525a1.437,1.437,0,0,1-.251-.365h-.02a1.533,1.533,0,0,1-.274.4c-.15.178-.309.353-.475.526-.186.193-.384.392-.59.6s-.453.439-.739.7l-.831-.86a20.684,20.684,0,0,0,1.5-1.47,3.752,3.752,0,0,0,.365-.46,2.4,2.4,0,0,0,.234-.451,2.348,2.348,0,0,0,.13-.48,3.536,3.536,0,0,0,.04-.56l0-2.17h1.29l0,2.17c0,.2.009.38.025.54a1.889,1.889,0,0,0,.1.455,2.335,2.335,0,0,0,.216.429A2.793,2.793,0,0,0,540.056,489.571Zm3.524,4.6h-1.27l-.008-9.3h1.27Z" transform="translate(-535.787 -484.863)" fill="#535453"/>
        <path id="패스_1898" data-name="패스 1898" d="M544.926,489.777q1.059-.459,1.695-.785a5.182,5.182,0,0,0,.974-.617,1.427,1.427,0,0,0,.445-.59,2.177,2.177,0,0,0,.1-.71v-.56l-2.821,0v-1.08l4.08,0V487.2a3.15,3.15,0,0,1-.148,1.025,2.035,2.035,0,0,1-.579.826,5.981,5.981,0,0,1-1.205.8q-.774.411-2.025.952Zm2.783,3.208,4.739,0v1.08l-6.01,0,0-3.069h1.27Zm4.515-5.633h1.219v1.1h-1.219l0,3.03h-1.26l-.006-6.619h1.26Z" transform="translate(-535.787 -484.863)" fill="#535453"/>
      </g>
    </g>
    <rect id="사각형_2353" data-name="사각형 2353" width="50" height="50" transform="translate(520.705 459.315)" fill="none"/>
  </g>
</svg>
