<svg xmlns="http://www.w3.org/2000/svg" width="50" height="50" viewBox="0 0 50 50">
  <g id="그룹_1910" data-name="그룹 1910" transform="translate(-580.906 -459.315)">
    <g id="그룹_1909" data-name="그룹 1909" transform="translate(587.261 466.315)">
      <g id="그룹_1905" data-name="그룹 1905" transform="translate(0.287 0)">
        <g id="그룹_1901" data-name="그룹 1901" transform="translate(16.988)">
          <rect id="사각형_2354" data-name="사각형 2354" width="2" height="3" rx="1" fill="#7bc9c6"/>
          <rect id="사각형_2355" data-name="사각형 2355" width="2" height="3" rx="1" transform="translate(0.025 33)" fill="#7bc9c6"/>
        </g>
        <g id="그룹_1902" data-name="그룹 1902" transform="translate(4.557 4.574)">
          <rect id="사각형_2356" data-name="사각형 2356" width="2" height="3" rx="1" transform="translate(0 1.415) rotate(-45.044)" fill="#7bc9c6"/>
        </g>
        <g id="그룹_1903" data-name="그룹 1903" transform="translate(0 16.986)">
          <rect id="사각형_2357" data-name="사각형 2357" width="2" height="3" rx="1" transform="matrix(-0.001, -1, 1, -0.001, 0.002, 2.027)" fill="#7bc9c6"/>
          <rect id="사각형_2358" data-name="사각형 2358" width="2" height="3" rx="1" transform="translate(33.002 2.002) rotate(-90.044)" fill="#7bc9c6"/>
        </g>
        <g id="그룹_1904" data-name="그룹 1904" transform="translate(4.575 4.556)">
          <rect id="사각형_2359" data-name="사각형 2359" width="2" height="3" rx="1" transform="matrix(-0.708, -0.707, 0.707, -0.708, 1.415, 26.888)" fill="#7bc9c6"/>
          <rect id="사각형_2360" data-name="사각형 2360" width="2" height="3" rx="1" transform="translate(24.732 3.536) rotate(-135.043)" fill="#7bc9c6"/>
        </g>
      </g>
      <g id="그룹_1906" data-name="그룹 1906">
        <path id="패스_1899" data-name="패스 1899" d="M611.584,501.174a18.012,18.012,0,1,1,7.688-5.557" transform="translate(-587.261 -466.315)" fill="none" stroke="#06a7ce" stroke-linecap="round" stroke-miterlimit="10" stroke-width="2"/>
        <path id="패스_1900" data-name="패스 1900" d="M623.5,496.683l-5.218.5a.861.861,0,0,1-.4-.112,1,1,0,0,1-.5-.547.876.876,0,0,1-.073-.407L616.8,490.9a1.006,1.006,0,0,1,1.051-.954A1.015,1.015,0,0,1,618.8,491l.557,4.236,4.236-.557a1,1,0,0,1-.1,2.006Z" transform="translate(-587.261 -466.315)" fill="#06a7ce"/>
      </g>
      <g id="그룹_1907" data-name="그룹 1907" transform="translate(14.847 8.267)">
        <path id="패스_1901" data-name="패스 1901" d="M603.107,481.627a3.467,3.467,0,0,0,.852.36,3.773,3.773,0,0,0,.985.119,2.165,2.165,0,0,0,.744-.12,1.275,1.275,0,0,0,.551-.4,2.029,2.029,0,0,0,.353-.744,5.527,5.527,0,0,0,.161-1.158,1.927,1.927,0,0,1-.845.564,3.193,3.193,0,0,1-1.1.193,3.061,3.061,0,0,1-1.136-.2,2.377,2.377,0,0,1-.845-.557,2.436,2.436,0,0,1-.536-.87,3.351,3.351,0,0,1-.186-1.146v-.24a2.972,2.972,0,0,1,.209-1.121,2.6,2.6,0,0,1,.6-.907,2.792,2.792,0,0,1,.966-.6,3.642,3.642,0,0,1,1.29-.217,3.53,3.53,0,0,1,1.416.257,2.424,2.424,0,0,1,.961.738,3.159,3.159,0,0,1,.547,1.157,6.152,6.152,0,0,1,.175,1.506v.552a9.245,9.245,0,0,1-.244,2.346,3.6,3.6,0,0,1-.7,1.44,2.317,2.317,0,0,1-1.085.721,4.7,4.7,0,0,1-1.4.2,5.434,5.434,0,0,1-1.2-.137,3.338,3.338,0,0,1-1.106-.461Zm3.621-4.166a1.487,1.487,0,0,0-.386-1.1,1.515,1.515,0,0,0-1.128-.39,1.655,1.655,0,0,0-1.193.391,1.475,1.475,0,0,0-.4,1.11v.132a1.517,1.517,0,0,0,.373,1.122,1.607,1.607,0,0,0,1.165.365,1.966,1.966,0,0,0,.707-.115,1.331,1.331,0,0,0,.492-.312,1.221,1.221,0,0,0,.282-.462,1.71,1.71,0,0,0,.089-.564Z" transform="translate(-602.108 -474.582)" fill="#1a1818"/>
      </g>
      <g id="그룹_1908" data-name="그룹 1908" transform="translate(9.222 18.548)">
        <path id="패스_1902" data-name="패스 1902" d="M600.752,489.571q.321.351.7.725c.254.249.51.491.771.725l-.81.85c-.227-.213-.446-.425-.661-.635s-.413-.411-.6-.6-.356-.368-.49-.525a1.436,1.436,0,0,1-.251-.365h-.019a1.544,1.544,0,0,1-.275.4c-.149.178-.308.353-.474.526q-.281.289-.59.6c-.206.2-.453.439-.74.7l-.831-.86a20.684,20.684,0,0,0,1.5-1.47,3.864,3.864,0,0,0,.366-.46,2.452,2.452,0,0,0,.233-.451,2.222,2.222,0,0,0,.13-.48,3.536,3.536,0,0,0,.04-.56l0-2.17h1.29l0,2.17c0,.2.009.38.025.54a1.886,1.886,0,0,0,.105.455,2.337,2.337,0,0,0,.217.429A2.839,2.839,0,0,0,600.752,489.571Zm3.524,4.6h-1.27l-.008-9.3h1.271Z" transform="translate(-596.483 -484.863)" fill="#535453"/>
        <path id="패스_1903" data-name="패스 1903" d="M605.622,489.777q1.059-.459,1.7-.785a5.184,5.184,0,0,0,.974-.617,1.419,1.419,0,0,0,.445-.59,2.152,2.152,0,0,0,.1-.71v-.56l-2.82,0v-1.08l4.08,0V487.2a3.119,3.119,0,0,1-.149,1.025,2.025,2.025,0,0,1-.579.826,5.949,5.949,0,0,1-1.205.8q-.774.411-2.024.952Zm2.783,3.208,4.74,0v1.08l-6.01,0,0-3.069h1.27Zm4.515-5.633h1.22v1.1h-1.22l0,3.03h-1.26l-.006-6.619h1.26Z" transform="translate(-596.483 -484.863)" fill="#535453"/>
      </g>
    </g>
    <rect id="사각형_2361" data-name="사각형 2361" width="50" height="50" transform="translate(580.905 459.315)" fill="none"/>
  </g>
</svg>
