<svg xmlns="http://www.w3.org/2000/svg" width="50" height="50" viewBox="0 0 50 50">
  <g id="그룹_1840" data-name="그룹 1840" transform="translate(-166.463 -459.315)">
    <g id="그룹_1839" data-name="그룹 1839" transform="translate(172.819 466.315)">
      <g id="그룹_1835" data-name="그룹 1835" transform="translate(0.287 0)">
        <g id="그룹_1831" data-name="그룹 1831" transform="translate(16.988)">
          <rect id="사각형_2298" data-name="사각형 2298" width="2" height="3" rx="1" fill="#7bc9c6"/>
          <rect id="사각형_2299" data-name="사각형 2299" width="2" height="3" rx="1" transform="translate(0.025 33)" fill="#7bc9c6"/>
        </g>
        <g id="그룹_1832" data-name="그룹 1832" transform="translate(4.557 4.574)">
          <rect id="사각형_2300" data-name="사각형 2300" width="2" height="3" rx="1" transform="translate(0 1.415) rotate(-45.044)" fill="#7bc9c6"/>
        </g>
        <g id="그룹_1833" data-name="그룹 1833" transform="translate(0 16.986)">
          <rect id="사각형_2301" data-name="사각형 2301" width="2" height="3" rx="1" transform="matrix(-0.001, -1, 1, -0.001, 0.002, 2.027)" fill="#7bc9c6"/>
          <rect id="사각형_2302" data-name="사각형 2302" width="2" height="3" rx="1" transform="translate(33.002 2.002) rotate(-90.044)" fill="#7bc9c6"/>
        </g>
        <g id="그룹_1834" data-name="그룹 1834" transform="translate(4.575 4.556)">
          <rect id="사각형_2303" data-name="사각형 2303" width="2" height="3" rx="1" transform="matrix(-0.708, -0.707, 0.707, -0.708, 1.415, 26.888)" fill="#7bc9c6"/>
          <rect id="사각형_2304" data-name="사각형 2304" width="2" height="3" rx="1" transform="translate(24.732 3.536) rotate(-135.043)" fill="#7bc9c6"/>
        </g>
      </g>
      <g id="그룹_1836" data-name="그룹 1836">
        <path id="패스_1864" data-name="패스 1864" d="M197.141,501.174a18.015,18.015,0,1,1,7.688-5.557" transform="translate(-172.819 -466.315)" fill="none" stroke="#06a7ce" stroke-linecap="round" stroke-miterlimit="10" stroke-width="2"/>
        <path id="패스_1865" data-name="패스 1865" d="M209.055,496.683l-5.217.5a.861.861,0,0,1-.4-.112.994.994,0,0,1-.5-.547.875.875,0,0,1-.072-.407l-.517-5.219a1.008,1.008,0,0,1,1.052-.954,1.014,1.014,0,0,1,.954,1.051l.557,4.236,4.236-.557a1,1,0,1,1-.1,2.006Z" transform="translate(-172.819 -466.315)" fill="#06a7ce"/>
      </g>
      <g id="그룹_1837" data-name="그룹 1837" transform="translate(15.382 8.267)">
        <path id="패스_1866" data-name="패스 1866" d="M191.378,478.938a7.288,7.288,0,0,0,.588-.673,3.022,3.022,0,0,0,.323-.516,1.4,1.4,0,0,0,.132-.42,3,3,0,0,0,.024-.372v-.1a.871.871,0,0,0-.283-.629,1.32,1.32,0,0,0-.954-.282,2.428,2.428,0,0,0-.474.049,1.538,1.538,0,0,0-.462.18,1.919,1.919,0,0,0-.449.373,3.449,3.449,0,0,0-.438.611l-1.153-.754a6.514,6.514,0,0,1,.39-.6,2.866,2.866,0,0,1,.587-.594,3.25,3.25,0,0,1,.84-.451,3.321,3.321,0,0,1,1.146-.181,3.95,3.95,0,0,1,1.26.179,2.507,2.507,0,0,1,.871.486,1.9,1.9,0,0,1,.5.707,2.262,2.262,0,0,1,.163.846v.12a3,3,0,0,1-.317,1.35,4.833,4.833,0,0,1-.929,1.255l-2.542,2.57,4.116,0v1.272l-6.12,0v-1.152Z" transform="translate(-188.201 -474.582)" fill="#1a1818"/>
      </g>
      <g id="그룹_1838" data-name="그룹 1838" transform="translate(8.726 18.548)">
        <path id="패스_1867" data-name="패스 1867" d="M185.814,489.571q.321.351.7.725c.254.249.51.491.771.725l-.81.85q-.339-.32-.661-.635t-.6-.6c-.193-.194-.356-.368-.49-.525a1.436,1.436,0,0,1-.251-.365h-.019a1.544,1.544,0,0,1-.275.4c-.149.178-.308.353-.474.526q-.28.289-.59.6c-.206.2-.453.439-.74.7l-.831-.86a20.687,20.687,0,0,0,1.5-1.47,3.863,3.863,0,0,0,.366-.46,2.449,2.449,0,0,0,.233-.451,2.225,2.225,0,0,0,.13-.48,3.532,3.532,0,0,0,.04-.56l0-2.17h1.29l0,2.17c0,.2.009.38.025.54a1.886,1.886,0,0,0,.1.455,2.337,2.337,0,0,0,.217.429A2.838,2.838,0,0,0,185.814,489.571Zm3.524,4.6h-1.27l-.008-9.3h1.271Z" transform="translate(-181.545 -484.863)" fill="#535453"/>
        <path id="패스_1868" data-name="패스 1868" d="M190.684,489.777q1.059-.459,1.695-.785a5.183,5.183,0,0,0,.974-.617,1.418,1.418,0,0,0,.445-.59,2.152,2.152,0,0,0,.1-.71v-.56l-2.82,0v-1.08l4.08,0V487.2a3.121,3.121,0,0,1-.149,1.025,2.025,2.025,0,0,1-.579.826,5.951,5.951,0,0,1-1.205.8q-.774.411-2.024.952Zm2.783,3.208,4.74,0v1.08l-6.01,0,0-3.069h1.27Zm4.515-5.633h1.22v1.1h-1.22l0,3.03h-1.26l-.006-6.619h1.26Z" transform="translate(-181.545 -484.863)" fill="#535453"/>
      </g>
    </g>
    <rect id="사각형_2305" data-name="사각형 2305" width="50" height="50" transform="translate(166.463 459.315)" fill="none"/>
  </g>
</svg>
