<svg xmlns="http://www.w3.org/2000/svg" width="50" height="50" viewBox="0 0 50 50">
  <g id="그룹_1920" data-name="그룹 1920" transform="translate(-641.105 -459.315)">
    <g id="그룹_1919" data-name="그룹 1919" transform="translate(647.462 466.315)">
      <g id="그룹_1915" data-name="그룹 1915" transform="translate(0.287 0)">
        <g id="그룹_1911" data-name="그룹 1911" transform="translate(16.988)">
          <rect id="사각형_2362" data-name="사각형 2362" width="2" height="3" rx="1" fill="#7bc9c6"/>
          <rect id="사각형_2363" data-name="사각형 2363" width="2" height="3" rx="1" transform="translate(0.025 33)" fill="#7bc9c6"/>
        </g>
        <g id="그룹_1912" data-name="그룹 1912" transform="translate(4.557 4.574)">
          <rect id="사각형_2364" data-name="사각형 2364" width="2" height="3" rx="1" transform="translate(0 1.415) rotate(-45.044)" fill="#7bc9c6"/>
        </g>
        <g id="그룹_1913" data-name="그룹 1913" transform="translate(0 16.986)">
          <rect id="사각형_2365" data-name="사각형 2365" width="2" height="3" rx="1" transform="translate(0.002 2.027) rotate(-90.044)" fill="#7bc9c6"/>
          <rect id="사각형_2366" data-name="사각형 2366" width="2" height="3" rx="1" transform="translate(33.002 2.002) rotate(-90.044)" fill="#7bc9c6"/>
        </g>
        <g id="그룹_1914" data-name="그룹 1914" transform="translate(4.575 4.556)">
          <rect id="사각형_2367" data-name="사각형 2367" width="2" height="3" rx="1" transform="matrix(-0.708, -0.707, 0.707, -0.708, 1.415, 26.888)" fill="#7bc9c6"/>
          <rect id="사각형_2368" data-name="사각형 2368" width="2" height="3" rx="1" transform="translate(24.732 3.536) rotate(-135.043)" fill="#7bc9c6"/>
        </g>
      </g>
      <g id="그룹_1916" data-name="그룹 1916">
        <path id="패스_1904" data-name="패스 1904" d="M671.785,501.174a18.012,18.012,0,1,1,7.688-5.557" transform="translate(-647.462 -466.315)" fill="none" stroke="#06a7ce" stroke-linecap="round" stroke-miterlimit="10" stroke-width="2"/>
        <path id="패스_1905" data-name="패스 1905" d="M683.7,496.683l-5.218.5a.861.861,0,0,1-.4-.112.992.992,0,0,1-.5-.547.863.863,0,0,1-.073-.407L677,490.9a1.006,1.006,0,0,1,1.051-.954A1.014,1.014,0,0,1,679,491l.558,4.236,4.236-.557a1,1,0,0,1-.1,2.006Z" transform="translate(-647.462 -466.315)" fill="#06a7ce"/>
      </g>
      <g id="그룹_1917" data-name="그룹 1917" transform="translate(11.109 8.262)">
        <path id="패스_1906" data-name="패스 1906" d="M661.289,483.366l-.006-6.924-1.967,1.129-.745-1.247,2.891-1.61h1.356l.007,8.651Z" transform="translate(-658.571 -474.577)" fill="#1a1818"/>
        <path id="패스_1907" data-name="패스 1907" d="M671.57,479.7a4.424,4.424,0,0,1-.778,2.821,2.837,2.837,0,0,1-2.352.973,2.971,2.971,0,0,1-2.389-.982,4.212,4.212,0,0,1-.842-2.807v-1.344a4.2,4.2,0,0,1,.833-2.8,2.924,2.924,0,0,1,2.357-.979,2.887,2.887,0,0,1,2.352.976,4.266,4.266,0,0,1,.819,2.8Zm-1.55-1.355a4.253,4.253,0,0,0-.139-1.2,1.8,1.8,0,0,0-.361-.7,1.083,1.083,0,0,0-.516-.33,2.194,2.194,0,0,0-.605-.083,2.159,2.159,0,0,0-.595.084,1.139,1.139,0,0,0-.527.336,1.872,1.872,0,0,0-.377.708,4.005,4.005,0,0,0-.144,1.188v1.368a3.9,3.9,0,0,0,.152,1.2,1.839,1.839,0,0,0,.389.708,1.189,1.189,0,0,0,.541.336,2.268,2.268,0,0,0,.6.084,2.181,2.181,0,0,0,.6-.085,1.055,1.055,0,0,0,.5-.331,1.826,1.826,0,0,0,.348-.7,4.5,4.5,0,0,0,.131-1.212Z" transform="translate(-658.571 -474.577)" fill="#1a1818"/>
      </g>
      <g id="그룹_1918" data-name="그룹 1918" transform="translate(8.726 18.548)">
        <path id="패스_1908" data-name="패스 1908" d="M660.457,489.571q.321.351.7.725c.254.249.51.491.771.725l-.81.85q-.339-.32-.661-.635t-.6-.6c-.193-.194-.356-.368-.49-.525a1.437,1.437,0,0,1-.251-.365H659.1a1.544,1.544,0,0,1-.275.4c-.149.178-.308.353-.474.526q-.281.289-.59.6c-.206.2-.453.439-.739.7l-.832-.86a20.684,20.684,0,0,0,1.5-1.47,3.863,3.863,0,0,0,.366-.46,2.387,2.387,0,0,0,.233-.451,2.226,2.226,0,0,0,.13-.48,3.536,3.536,0,0,0,.04-.56l0-2.17h1.29l0,2.17c0,.2.009.38.025.54a1.889,1.889,0,0,0,.1.455,2.342,2.342,0,0,0,.217.429A2.838,2.838,0,0,0,660.457,489.571Zm3.524,4.6h-1.27l-.008-9.3h1.271Z" transform="translate(-656.188 -484.863)" fill="#535453"/>
        <path id="패스_1909" data-name="패스 1909" d="M665.327,489.777q1.059-.459,1.695-.785a5.148,5.148,0,0,0,.974-.617,1.418,1.418,0,0,0,.445-.59,2.152,2.152,0,0,0,.1-.71v-.56l-2.82,0v-1.08l4.08,0V487.2a3.121,3.121,0,0,1-.149,1.025,2.025,2.025,0,0,1-.579.826,5.953,5.953,0,0,1-1.205.8q-.774.411-2.024.952Zm2.783,3.208,4.74,0v1.08l-6.01,0,0-3.069h1.27Zm4.515-5.633h1.22v1.1h-1.22l0,3.03h-1.26l-.006-6.619h1.26Z" transform="translate(-656.188 -484.863)" fill="#535453"/>
      </g>
    </g>
    <rect id="사각형_2369" data-name="사각형 2369" width="50" height="50" transform="translate(641.106 459.315)" fill="none"/>
  </g>
</svg>
