<svg xmlns="http://www.w3.org/2000/svg" width="50" height="50" viewBox="0 0 50 50">
  <g id="그룹_1930" data-name="그룹 1930" transform="translate(-702.004 -459.315)">
    <g id="그룹_1929" data-name="그룹 1929" transform="translate(708.359 466.315)">
      <g id="그룹_1925" data-name="그룹 1925" transform="translate(0.287 0)">
        <g id="그룹_1921" data-name="그룹 1921" transform="translate(16.988)">
          <rect id="사각형_2370" data-name="사각형 2370" width="2" height="3" rx="1" fill="#7bc9c6"/>
          <rect id="사각형_2371" data-name="사각형 2371" width="2" height="3" rx="1" transform="translate(0.025 33)" fill="#7bc9c6"/>
        </g>
        <g id="그룹_1922" data-name="그룹 1922" transform="translate(4.557 4.574)">
          <rect id="사각형_2372" data-name="사각형 2372" width="2" height="3" rx="1" transform="translate(0 1.415) rotate(-45.044)" fill="#7bc9c6"/>
        </g>
        <g id="그룹_1923" data-name="그룹 1923" transform="translate(0 16.986)">
          <rect id="사각형_2373" data-name="사각형 2373" width="2" height="3" rx="1" transform="translate(0.002 2.027) rotate(-90.044)" fill="#7bc9c6"/>
          <rect id="사각형_2374" data-name="사각형 2374" width="2" height="3" rx="1" transform="matrix(-0.001, -1, 1, -0.001, 33.002, 2.002)" fill="#7bc9c6"/>
        </g>
        <g id="그룹_1924" data-name="그룹 1924" transform="translate(4.575 4.556)">
          <rect id="사각형_2375" data-name="사각형 2375" width="2" height="3" rx="1" transform="matrix(-0.708, -0.707, 0.707, -0.708, 1.415, 26.888)" fill="#7bc9c6"/>
          <rect id="사각형_2376" data-name="사각형 2376" width="2" height="3" rx="1" transform="translate(24.732 3.536) rotate(-135.043)" fill="#7bc9c6"/>
        </g>
      </g>
      <g id="그룹_1926" data-name="그룹 1926">
        <path id="패스_1910" data-name="패스 1910" d="M732.682,501.174a18.012,18.012,0,1,1,7.688-5.557" transform="translate(-708.359 -466.315)" fill="none" stroke="#06a7ce" stroke-linecap="round" stroke-miterlimit="10" stroke-width="2"/>
        <path id="패스_1911" data-name="패스 1911" d="M744.6,496.683l-5.218.5a.861.861,0,0,1-.4-.112,1,1,0,0,1-.5-.547.876.876,0,0,1-.073-.407l-.516-5.219a1.007,1.007,0,0,1,1.051-.954A1.015,1.015,0,0,1,739.9,491l.557,4.236,4.236-.557a1,1,0,0,1-.1,2.006Z" transform="translate(-708.359 -466.315)" fill="#06a7ce"/>
      </g>
      <g id="그룹_1927" data-name="그룹 1927" transform="translate(11.109 8.393)">
        <path id="패스_1912" data-name="패스 1912" d="M722.186,483.366l-.006-6.924-1.967,1.129-.745-1.247,2.892-1.61h1.355l.007,8.651Z" transform="translate(-719.468 -474.708)" fill="#1a1818"/>
        <path id="패스_1913" data-name="패스 1913" d="M729.625,483.36l-.005-6.923-1.967,1.128-.745-1.247,2.891-1.61h1.356l.007,8.651Z" transform="translate(-719.468 -474.708)" fill="#1a1818"/>
      </g>
      <g id="그룹_1928" data-name="그룹 1928" transform="translate(8.727 18.548)">
        <path id="패스_1914" data-name="패스 1914" d="M721.354,489.571c.214.234.449.475.7.725s.509.491.77.725l-.809.85q-.341-.32-.662-.635c-.212-.21-.413-.411-.6-.6s-.357-.368-.49-.525a1.435,1.435,0,0,1-.251-.365h-.02a1.535,1.535,0,0,1-.274.4c-.15.178-.309.353-.475.526-.186.193-.384.392-.59.6s-.453.439-.739.7l-.831-.86q.849-.759,1.5-1.47a3.848,3.848,0,0,0,.365-.46,2.4,2.4,0,0,0,.234-.451,2.281,2.281,0,0,0,.129-.48,3.411,3.411,0,0,0,.041-.56l0-2.17h1.29l0,2.17a5.153,5.153,0,0,0,.025.54,1.932,1.932,0,0,0,.1.455,2.337,2.337,0,0,0,.217.429A2.839,2.839,0,0,0,721.354,489.571Zm3.525,4.6h-1.271l-.007-9.3h1.27Z" transform="translate(-717.086 -484.863)" fill="#535453"/>
        <path id="패스_1915" data-name="패스 1915" d="M726.225,489.777q1.059-.459,1.7-.785a5.182,5.182,0,0,0,.974-.617,1.427,1.427,0,0,0,.445-.59,2.179,2.179,0,0,0,.1-.71v-.56l-2.82,0v-1.08l4.08,0V487.2a3.15,3.15,0,0,1-.148,1.025,2.035,2.035,0,0,1-.579.826,6.007,6.007,0,0,1-1.2.8q-.774.411-2.025.952Zm2.783,3.208,4.739,0v1.08l-6.01,0,0-3.069h1.271Zm4.514-5.633h1.22v1.1h-1.22l0,3.03h-1.259l-.006-6.619h1.26Z" transform="translate(-717.086 -484.863)" fill="#535453"/>
      </g>
    </g>
    <rect id="사각형_2377" data-name="사각형 2377" width="50" height="50" transform="translate(702.003 459.315)" fill="none"/>
  </g>
</svg>
