<svg xmlns="http://www.w3.org/2000/svg" width="50" height="50" viewBox="0 0 50 50">
  <g id="그룹_1830" data-name="그룹 1830" transform="translate(-106.959 -459.315)">
    <g id="그룹_1829" data-name="그룹 1829" transform="translate(113.314 466.315)">
      <g id="그룹_1825" data-name="그룹 1825" transform="translate(0.287 0)">
        <g id="그룹_1821" data-name="그룹 1821" transform="translate(16.988)">
          <rect id="사각형_2290" data-name="사각형 2290" width="2" height="3" rx="1" fill="#7bc9c6"/>
          <rect id="사각형_2291" data-name="사각형 2291" width="2" height="3" rx="1" transform="translate(0.025 33)" fill="#7bc9c6"/>
        </g>
        <g id="그룹_1822" data-name="그룹 1822" transform="translate(4.557 4.574)">
          <rect id="사각형_2292" data-name="사각형 2292" width="2" height="3" rx="1" transform="matrix(0.707, -0.708, 0.708, 0.707, 0, 1.415)" fill="#7bc9c6"/>
        </g>
        <g id="그룹_1823" data-name="그룹 1823" transform="translate(0 16.986)">
          <rect id="사각형_2293" data-name="사각형 2293" width="2" height="3" rx="1" transform="translate(0.002 2.027) rotate(-90.044)" fill="#7bc9c6"/>
          <rect id="사각형_2294" data-name="사각형 2294" width="2" height="3" rx="1" transform="translate(33.002 2.002) rotate(-90.044)" fill="#7bc9c6"/>
        </g>
        <g id="그룹_1824" data-name="그룹 1824" transform="translate(4.575 4.556)">
          <rect id="사각형_2295" data-name="사각형 2295" width="2" height="3" rx="1" transform="matrix(-0.708, -0.707, 0.707, -0.708, 1.415, 26.888)" fill="#7bc9c6"/>
          <rect id="사각형_2296" data-name="사각형 2296" width="2" height="3" rx="1" transform="translate(24.732 3.536) rotate(-135.043)" fill="#7bc9c6"/>
        </g>
      </g>
      <g id="그룹_1826" data-name="그룹 1826">
        <path id="패스_1859" data-name="패스 1859" d="M137.637,501.174a18.012,18.012,0,1,1,7.688-5.557" transform="translate(-113.314 -466.315)" fill="none" stroke="#06a7ce" stroke-linecap="round" stroke-miterlimit="10" stroke-width="2"/>
        <path id="패스_1860" data-name="패스 1860" d="M149.551,496.683l-5.218.5a.861.861,0,0,1-.4-.112.992.992,0,0,1-.5-.547.876.876,0,0,1-.073-.407l-.516-5.219a1.006,1.006,0,0,1,1.051-.954,1.015,1.015,0,0,1,.955,1.051l.557,4.236,4.236-.557a1,1,0,0,1-.1,2.006Z" transform="translate(-113.314 -466.315)" fill="#06a7ce"/>
      </g>
      <g id="그룹_1827" data-name="그룹 1827" transform="translate(15.109 8.398)">
        <path id="패스_1861" data-name="패스 1861" d="M131.141,483.366l-.006-6.924-1.967,1.129-.745-1.247,2.891-1.61h1.356l.007,8.651Z" transform="translate(-128.423 -474.713)" fill="#1a1818"/>
      </g>
      <g id="그룹_1828" data-name="그룹 1828" transform="translate(8.727 18.548)">
        <path id="패스_1862" data-name="패스 1862" d="M126.31,489.571c.213.234.448.475.7.725s.51.491.77.725l-.809.85q-.34-.32-.661-.635c-.213-.21-.414-.411-.6-.6s-.357-.368-.49-.525a1.436,1.436,0,0,1-.251-.365h-.02a1.534,1.534,0,0,1-.274.4c-.15.178-.309.353-.475.526-.186.193-.384.392-.59.6s-.453.439-.739.7l-.831-.86q.849-.759,1.5-1.47a3.749,3.749,0,0,0,.365-.46,2.394,2.394,0,0,0,.234-.451,2.345,2.345,0,0,0,.13-.48,3.533,3.533,0,0,0,.04-.56l0-2.17h1.29l0,2.17a5.161,5.161,0,0,0,.025.54,1.887,1.887,0,0,0,.1.455,2.271,2.271,0,0,0,.216.429A2.794,2.794,0,0,0,126.31,489.571Zm3.524,4.6h-1.271l-.007-9.3h1.27Z" transform="translate(-122.041 -484.863)" fill="#535453"/>
        <path id="패스_1863" data-name="패스 1863" d="M131.18,489.777q1.059-.459,1.7-.785a5.184,5.184,0,0,0,.974-.617,1.427,1.427,0,0,0,.445-.59,2.18,2.18,0,0,0,.1-.71v-.56l-2.82,0v-1.08l4.08,0V487.2a3.149,3.149,0,0,1-.148,1.025,2.035,2.035,0,0,1-.579.826,5.979,5.979,0,0,1-1.2.8q-.774.411-2.025.952Zm2.783,3.208,4.739,0v1.08l-6.01,0,0-3.069h1.271Zm4.515-5.633H139.7v1.1h-1.219l0,3.03h-1.259l-.006-6.619h1.26Z" transform="translate(-122.041 -484.863)" fill="#535453"/>
      </g>
    </g>
    <rect id="사각형_2297" data-name="사각형 2297" width="50" height="50" transform="translate(106.958 459.315)" fill="none"/>
  </g>
</svg>
