<svg xmlns="http://www.w3.org/2000/svg" width="50" height="50" viewBox="0 0 50 50">
  <g id="그룹_1860" data-name="그룹 1860" transform="translate(-285.473 -459.315)">
    <g id="그룹_1859" data-name="그룹 1859" transform="translate(291.828 466.315)">
      <g id="그룹_1855" data-name="그룹 1855" transform="translate(0.287 0)">
        <g id="그룹_1851" data-name="그룹 1851" transform="translate(16.988)">
          <rect id="사각형_2314" data-name="사각형 2314" width="2" height="3" rx="1" fill="#7bc9c6"/>
          <rect id="사각형_2315" data-name="사각형 2315" width="2" height="3" rx="1" transform="translate(0.025 33)" fill="#7bc9c6"/>
        </g>
        <g id="그룹_1852" data-name="그룹 1852" transform="translate(4.557 4.574)">
          <rect id="사각형_2316" data-name="사각형 2316" width="2" height="3" rx="1" transform="translate(0 1.415) rotate(-45.044)" fill="#7bc9c6"/>
        </g>
        <g id="그룹_1853" data-name="그룹 1853" transform="translate(0 16.986)">
          <rect id="사각형_2317" data-name="사각형 2317" width="2" height="3" rx="1" transform="matrix(-0.001, -1, 1, -0.001, 0.002, 2.027)" fill="#7bc9c6"/>
          <rect id="사각형_2318" data-name="사각형 2318" width="2" height="3" rx="1" transform="translate(33.002 2.002) rotate(-90.044)" fill="#7bc9c6"/>
        </g>
        <g id="그룹_1854" data-name="그룹 1854" transform="translate(4.575 4.556)">
          <rect id="사각형_2319" data-name="사각형 2319" width="2" height="3" rx="1" transform="matrix(-0.708, -0.707, 0.707, -0.708, 1.415, 26.888)" fill="#7bc9c6"/>
          <rect id="사각형_2320" data-name="사각형 2320" width="2" height="3" rx="1" transform="translate(24.732 3.536) rotate(-135.043)" fill="#7bc9c6"/>
        </g>
      </g>
      <g id="그룹_1856" data-name="그룹 1856">
        <path id="패스_1874" data-name="패스 1874" d="M316.15,501.174a18.015,18.015,0,1,1,7.688-5.557" transform="translate(-291.828 -466.315)" fill="none" stroke="#06a7ce" stroke-linecap="round" stroke-miterlimit="10" stroke-width="2"/>
        <path id="패스_1875" data-name="패스 1875" d="M328.064,496.683l-5.217.5a.861.861,0,0,1-.4-.112.994.994,0,0,1-.5-.547.876.876,0,0,1-.072-.407l-.517-5.219a1.008,1.008,0,0,1,1.052-.954,1.014,1.014,0,0,1,.954,1.051l.557,4.236,4.236-.557a1,1,0,1,1-.1,2.006Z" transform="translate(-291.828 -466.315)" fill="#06a7ce"/>
      </g>
      <g id="그룹_1857" data-name="그룹 1857" transform="translate(14.948 8.398)">
        <path id="패스_1876" data-name="패스 1876" d="M312.594,477.736l0,2.592h1.175v1.236H312.6l0,1.8h-1.512l0-1.8-4.309,0v-1l3.932-5.859h1.656l-3.776,5.618,2.5,0,0-2.592Z" transform="translate(-306.776 -474.713)" fill="#1a1818"/>
      </g>
      <g id="그룹_1858" data-name="그룹 1858" transform="translate(8.726 18.548)">
        <path id="패스_1877" data-name="패스 1877" d="M304.823,489.571q.321.351.7.725t.77.725l-.809.85c-.227-.213-.446-.425-.661-.635s-.413-.411-.6-.6-.356-.368-.49-.525a1.436,1.436,0,0,1-.251-.365h-.02a1.534,1.534,0,0,1-.274.4c-.149.178-.309.353-.475.526-.186.193-.383.392-.589.6s-.454.439-.74.7l-.831-.86a20.684,20.684,0,0,0,1.5-1.47,3.749,3.749,0,0,0,.365-.46,2.394,2.394,0,0,0,.234-.451,2.346,2.346,0,0,0,.13-.48,3.536,3.536,0,0,0,.04-.56l0-2.17h1.29l0,2.17c0,.2.009.38.025.54a1.886,1.886,0,0,0,.105.455,2.331,2.331,0,0,0,.216.429A2.794,2.794,0,0,0,304.823,489.571Zm3.524,4.6h-1.27l-.008-9.3h1.27Z" transform="translate(-300.554 -484.863)" fill="#535453"/>
        <path id="패스_1878" data-name="패스 1878" d="M309.693,489.777q1.059-.459,1.7-.785a5.183,5.183,0,0,0,.974-.617,1.427,1.427,0,0,0,.445-.59,2.178,2.178,0,0,0,.1-.71v-.56l-2.821,0v-1.08l4.08,0V487.2a3.123,3.123,0,0,1-.148,1.025,2.035,2.035,0,0,1-.579.826,5.979,5.979,0,0,1-1.2.8q-.774.411-2.025.952Zm2.783,3.208,4.739,0v1.08l-6.009,0,0-3.069h1.27Zm4.515-5.633h1.219v1.1h-1.219l0,3.03h-1.26l-.006-6.619h1.26Z" transform="translate(-300.554 -484.863)" fill="#535453"/>
      </g>
    </g>
    <rect id="사각형_2321" data-name="사각형 2321" width="50" height="50" transform="translate(285.472 459.315)" fill="none"/>
  </g>
</svg>
