<svg xmlns="http://www.w3.org/2000/svg" width="50" height="50" viewBox="0 0 50 50">
  <g id="그룹_1940" data-name="그룹 1940" transform="translate(-761.508 -459.315)">
    <g id="그룹_1939" data-name="그룹 1939" transform="translate(767.864 466.315)">
      <g id="그룹_1935" data-name="그룹 1935" transform="translate(0.287 0)">
        <g id="그룹_1931" data-name="그룹 1931" transform="translate(16.988)">
          <rect id="사각형_2378" data-name="사각형 2378" width="2" height="3" rx="1" fill="#7bc9c6"/>
          <rect id="사각형_2379" data-name="사각형 2379" width="2" height="3" rx="1" transform="translate(0.025 33)" fill="#7bc9c6"/>
        </g>
        <g id="그룹_1932" data-name="그룹 1932" transform="translate(4.557 4.574)">
          <rect id="사각형_2380" data-name="사각형 2380" width="2" height="3" rx="1" transform="translate(0 1.415) rotate(-45.043)" fill="#7bc9c6"/>
        </g>
        <g id="그룹_1933" data-name="그룹 1933" transform="translate(0 16.986)">
          <rect id="사각형_2381" data-name="사각형 2381" width="2" height="3" rx="1" transform="matrix(-0.001, -1, 1, -0.001, 0.002, 2.027)" fill="#7bc9c6"/>
          <rect id="사각형_2382" data-name="사각형 2382" width="2" height="3" rx="1" transform="matrix(-0.001, -1, 1, -0.001, 33.002, 2.002)" fill="#7bc9c6"/>
        </g>
        <g id="그룹_1934" data-name="그룹 1934" transform="translate(4.575 4.556)">
          <rect id="사각형_2383" data-name="사각형 2383" width="2" height="3" rx="1" transform="matrix(-0.708, -0.707, 0.707, -0.708, 1.415, 26.888)" fill="#7bc9c6"/>
          <rect id="사각형_2384" data-name="사각형 2384" width="2" height="3" rx="1" transform="translate(24.732 3.536) rotate(-135.043)" fill="#7bc9c6"/>
        </g>
      </g>
      <g id="그룹_1936" data-name="그룹 1936">
        <path id="패스_1916" data-name="패스 1916" d="M792.186,501.174a18.015,18.015,0,1,1,7.688-5.557" transform="translate(-767.864 -466.315)" fill="none" stroke="#06a7ce" stroke-linecap="round" stroke-miterlimit="10" stroke-width="2"/>
        <path id="패스_1917" data-name="패스 1917" d="M804.1,496.683l-5.217.5a.861.861,0,0,1-.4-.112.994.994,0,0,1-.5-.547.876.876,0,0,1-.072-.407L797.4,490.9a1.008,1.008,0,0,1,1.052-.954A1.014,1.014,0,0,1,799.4,491l.557,4.236,4.236-.557a1,1,0,1,1-.1,2.006Z" transform="translate(-767.864 -466.315)" fill="#06a7ce"/>
      </g>
      <g id="그룹_1937" data-name="그룹 1937" transform="translate(11.109 8.262)">
        <path id="패스_1918" data-name="패스 1918" d="M781.69,483.366l-.005-6.924-1.967,1.129-.745-1.247,2.891-1.61h1.356l.007,8.651Z" transform="translate(-778.973 -474.577)" fill="#1a1818"/>
        <path id="패스_1919" data-name="패스 1919" d="M788.862,478.932a7.151,7.151,0,0,0,.588-.672,2.967,2.967,0,0,0,.323-.517,1.338,1.338,0,0,0,.132-.42,3.007,3.007,0,0,0,.025-.372v-.1a.874.874,0,0,0-.284-.629,1.318,1.318,0,0,0-.954-.281,2.335,2.335,0,0,0-.473.048,1.516,1.516,0,0,0-.462.18,1.9,1.9,0,0,0-.449.373,3.46,3.46,0,0,0-.439.612l-1.152-.755a6.284,6.284,0,0,1,.389-.6,2.894,2.894,0,0,1,.587-.6,3.234,3.234,0,0,1,.84-.45,3.276,3.276,0,0,1,1.147-.181,3.891,3.891,0,0,1,1.259.179,2.519,2.519,0,0,1,.872.485,1.9,1.9,0,0,1,.5.708,2.263,2.263,0,0,1,.164.845v.12a3,3,0,0,1-.318,1.35,4.8,4.8,0,0,1-.929,1.255l-2.542,2.57,4.117,0v1.272l-6.12,0V482.21Z" transform="translate(-778.973 -474.577)" fill="#1a1818"/>
      </g>
      <g id="그룹_1938" data-name="그룹 1938" transform="translate(8.726 18.548)">
        <path id="패스_1920" data-name="패스 1920" d="M780.859,489.571q.321.351.7.725c.254.249.51.491.771.725l-.81.85c-.227-.213-.446-.425-.661-.635s-.413-.411-.6-.6-.356-.368-.49-.525a1.436,1.436,0,0,1-.251-.365H779.5a1.544,1.544,0,0,1-.275.4c-.149.178-.308.353-.475.526-.186.193-.383.392-.589.6s-.453.439-.74.7l-.831-.86a20.7,20.7,0,0,0,1.5-1.47,3.864,3.864,0,0,0,.366-.46,2.445,2.445,0,0,0,.233-.451,2.222,2.222,0,0,0,.13-.48,3.536,3.536,0,0,0,.04-.56l0-2.17h1.29l0,2.17c0,.2.009.38.025.54a1.886,1.886,0,0,0,.105.455,2.337,2.337,0,0,0,.217.429A2.782,2.782,0,0,0,780.859,489.571Zm3.524,4.6h-1.27l-.008-9.3h1.27Z" transform="translate(-776.59 -484.863)" fill="#535453"/>
        <path id="패스_1921" data-name="패스 1921" d="M785.729,489.777q1.059-.459,1.7-.785a5.184,5.184,0,0,0,.974-.617,1.419,1.419,0,0,0,.445-.59,2.152,2.152,0,0,0,.1-.71v-.56l-2.821,0v-1.08l4.081,0V487.2a3.119,3.119,0,0,1-.149,1.025,2.025,2.025,0,0,1-.579.826,5.949,5.949,0,0,1-1.205.8q-.774.411-2.024.952Zm2.783,3.208,4.739,0v1.08l-6.009,0,0-3.069h1.27Zm4.515-5.633h1.22v1.1h-1.22l0,3.03h-1.26l-.006-6.619h1.26Z" transform="translate(-776.59 -484.863)" fill="#535453"/>
      </g>
    </g>
    <rect id="사각형_2385" data-name="사각형 2385" width="50" height="50" transform="translate(761.508 459.315)" fill="none"/>
  </g>
</svg>
