<svg xmlns="http://www.w3.org/2000/svg" width="50" height="50" viewBox="0 0 50 50">
  <g id="그룹_1805" data-name="그룹 1805" transform="translate(-106.959 -556.497)">
    <rect id="사각형_2274" data-name="사각형 2274" width="50" height="50" transform="translate(106.958 556.497)" fill="none"/>
    <path id="사각형_2275" data-name="사각형 2275" d="M6,0H30a6,6,0,0,1,6,6V28a4,4,0,0,1-4,4H4a4,4,0,0,1-4-4V6A6,6,0,0,1,6,0Z" transform="translate(113.958 566.922)" fill="none" stroke="#06a7ce" stroke-linecap="round" stroke-miterlimit="10" stroke-width="2"/>
    <path id="패스_1843" data-name="패스 1843" d="M113.958,572.922a6,6,0,0,1,6-6h24a6,6,0,0,1,6,6Z" transform="translate(0)" fill="#06a7ce"/>
    <g id="그룹_1801" data-name="그룹 1801" transform="translate(121.958 564.071)">
      <rect id="사각형_2276" data-name="사각형 2276" width="4" height="5" rx="2" fill="#fba911"/>
      <rect id="사각형_2277" data-name="사각형 2277" width="4" height="5" rx="2" transform="translate(16)" fill="#fba911"/>
    </g>
    <g id="그룹_1802" data-name="그룹 1802" transform="translate(130.322 581.466)">
      <path id="패스_1844" data-name="패스 1844" d="M132.582,589.6v-5.769l-1.64.939-.62-1.04,2.41-1.339h1.13V589.6Z" transform="translate(-130.322 -581.466)" fill="#1a1818"/>
      <path id="패스_1845" data-name="패스 1845" d="M135.882,588.1h1.235c.383,0,.745,0,1.085-.01v-.69a2.549,2.549,0,0,1-.745-.231,2.025,2.025,0,0,1-.525-.369,1.375,1.375,0,0,1-.31-.46,1.359,1.359,0,0,1-.1-.511v-.359a1.355,1.355,0,0,1,.14-.591,1.541,1.541,0,0,1,.424-.52,2.256,2.256,0,0,1,.716-.37,3.791,3.791,0,0,1,2.034,0,2.242,2.242,0,0,1,.721.37,1.545,1.545,0,0,1,.425.52,1.355,1.355,0,0,1,.14.591v.359a1.379,1.379,0,0,1-.1.511,1.363,1.363,0,0,1-.311.46,2,2,0,0,1-.524.369,2.538,2.538,0,0,1-.735.231v.669q.75-.02,1.325-.054t1.045-.085l.09,1.059q-.431.051-.995.085t-1.3.055c-.491.014-1.043.023-1.66.03s-1.309.01-2.075.01Zm2.32-5.611v-1.019h1.25v1.019h2.009v1.061h-5.389v-1.061Zm.62,2.351a1.761,1.761,0,0,0-.505.064,1.023,1.023,0,0,0-.35.175.7.7,0,0,0-.2.245.6.6,0,0,0-.065.266v.119a.591.591,0,0,0,.065.271.717.717,0,0,0,.2.24,1.006,1.006,0,0,0,.35.175,1.761,1.761,0,0,0,.505.064,1.259,1.259,0,0,0,.849-.239.684.684,0,0,0,.271-.511v-.119a.684.684,0,0,0-.271-.511A1.253,1.253,0,0,0,138.822,584.836Zm4.73,5.949H142.3v-9.3h1.25Z" transform="translate(-130.322 -581.466)" fill="#1a1818"/>
    </g>
    <g id="그룹_1804" data-name="그룹 1804" transform="translate(120.135 581.486)">
      <g id="그룹_1803" data-name="그룹 1803">
        <path id="패스_1846" data-name="패스 1846" d="M120.135,584.866q1.15,0,2.026-.011t1.569-.029q.7-.02,1.245-.055t1.04-.085l.09.96c-.319.04-.685.074-1.1.1s-.891.047-1.445.06v1.21h-1.25v-1.19c-.326.007-.67.01-1.029.01h-1.151Zm2.95-.28a4.412,4.412,0,0,1-.915-.09,2.551,2.551,0,0,1-.74-.27,1.468,1.468,0,0,1-.5-.445,1.054,1.054,0,0,1-.18-.6v-.22a1.049,1.049,0,0,1,.18-.6,1.468,1.468,0,0,1,.5-.445,2.551,2.551,0,0,1,.74-.27,4.7,4.7,0,0,1,1.83,0,2.547,2.547,0,0,1,.741.27,1.455,1.455,0,0,1,.494.445,1.05,1.05,0,0,1,.181.6v.22a1.054,1.054,0,0,1-.181.6,1.455,1.455,0,0,1-.494.445,2.547,2.547,0,0,1-.741.27A4.405,4.405,0,0,1,123.085,584.586Zm4.75,2.71v2.24h-4.9v.42h5.17v.94h-6.39v-2.25h4.9v-.41h-4.95v-.94Zm-4.75-4.79a2.123,2.123,0,0,0-.86.135.415.415,0,0,0-.29.375v.1a.417.417,0,0,0,.29.375,2.811,2.811,0,0,0,1.721,0,.417.417,0,0,0,.289-.375v-.1a.415.415,0,0,0-.289-.375A2.132,2.132,0,0,0,123.085,582.506Zm1.65,3.48h1.841v-4.5h1.259v5.53h-1.259v-.14h-1.841Z" transform="translate(-120.135 -581.486)" fill="#535453"/>
      </g>
    </g>
  </g>
</svg>
