<svg xmlns="http://www.w3.org/2000/svg" width="50" height="50" viewBox="0 0 50 50">
  <g id="그룹_1810" data-name="그룹 1810" transform="translate(-166.463 -556.497)">
    <rect id="사각형_2278" data-name="사각형 2278" width="50" height="50" transform="translate(166.463 556.497)" fill="none"/>
    <path id="사각형_2279" data-name="사각형 2279" d="M6,0H30a6,6,0,0,1,6,6V28a4,4,0,0,1-4,4H4a4,4,0,0,1-4-4V6A6,6,0,0,1,6,0Z" transform="translate(173.463 566.922)" fill="none" stroke="#06a7ce" stroke-linecap="round" stroke-miterlimit="10" stroke-width="2"/>
    <path id="패스_1847" data-name="패스 1847" d="M173.463,572.922a6,6,0,0,1,6-6h24a6,6,0,0,1,6,6Z" fill="#06a7ce"/>
    <g id="그룹_1806" data-name="그룹 1806" transform="translate(181.463 564.071)">
      <rect id="사각형_2280" data-name="사각형 2280" width="4" height="5" rx="2" fill="#fba911"/>
      <rect id="사각형_2281" data-name="사각형 2281" width="4" height="5" rx="2" transform="translate(16)" fill="#fba911"/>
    </g>
    <g id="그룹_1807" data-name="그룹 1807" transform="translate(189.216 581.466)">
      <path id="패스_1848" data-name="패스 1848" d="M191.866,585.915a6,6,0,0,0,.49-.56,2.608,2.608,0,0,0,.27-.429,1.127,1.127,0,0,0,.11-.351,2.555,2.555,0,0,0,.02-.309v-.08a.727.727,0,0,0-.235-.526,1.1,1.1,0,0,0-.795-.234,1.87,1.87,0,0,0-.4.04,1.263,1.263,0,0,0-.385.149,1.6,1.6,0,0,0-.375.311,2.827,2.827,0,0,0-.365.51l-.96-.63a5.258,5.258,0,0,1,.325-.5,2.323,2.323,0,0,1,.491-.5,2.607,2.607,0,0,1,.7-.375,2.751,2.751,0,0,1,.955-.151,3.263,3.263,0,0,1,1.05.151,2.056,2.056,0,0,1,.725.405,1.57,1.57,0,0,1,.42.59,1.865,1.865,0,0,1,.135.7v.1a2.494,2.494,0,0,1-.265,1.125,4.018,4.018,0,0,1-.775,1.045l-2.12,2.141h3.43V589.6h-5.1v-.959Z" transform="translate(-189.216 -581.466)" fill="#1a1818"/>
      <path id="패스_1849" data-name="패스 1849" d="M195.387,588.1h1.234c.384,0,.745,0,1.085-.01v-.69a2.549,2.549,0,0,1-.745-.231,2,2,0,0,1-.524-.369,1.363,1.363,0,0,1-.311-.46,1.379,1.379,0,0,1-.1-.511v-.359a1.355,1.355,0,0,1,.14-.591,1.545,1.545,0,0,1,.425-.52,2.246,2.246,0,0,1,.716-.37,3.791,3.791,0,0,1,2.034,0,2.253,2.253,0,0,1,.721.37,1.541,1.541,0,0,1,.424.52,1.355,1.355,0,0,1,.14.591v.359a1.359,1.359,0,0,1-.1.511,1.374,1.374,0,0,1-.31.46,2.025,2.025,0,0,1-.525.369,2.538,2.538,0,0,1-.735.231v.669q.75-.02,1.325-.054c.383-.024.732-.052,1.045-.085l.09,1.059q-.429.051-.995.085t-1.3.055c-.49.014-1.043.023-1.66.03s-1.309.01-2.074.01Zm2.319-5.611v-1.019h1.25v1.019h2.01v1.061h-5.39v-1.061Zm.62,2.351a1.77,1.77,0,0,0-.505.064,1.027,1.027,0,0,0-.349.175.707.707,0,0,0-.2.245.616.616,0,0,0-.065.266v.119a.6.6,0,0,0,.065.271.721.721,0,0,0,.2.24,1.009,1.009,0,0,0,.349.175,1.77,1.77,0,0,0,.505.064,1.262,1.262,0,0,0,.85-.239.686.686,0,0,0,.27-.511v-.119a.686.686,0,0,0-.27-.511A1.256,1.256,0,0,0,198.326,584.836Zm4.731,5.949h-1.25v-9.3h1.25Z" transform="translate(-189.216 -581.466)" fill="#1a1818"/>
    </g>
    <g id="그룹_1809" data-name="그룹 1809" transform="translate(179.64 581.486)">
      <g id="그룹_1808" data-name="그룹 1808">
        <path id="패스_1850" data-name="패스 1850" d="M179.64,584.866q1.149,0,2.025-.011t1.569-.029q.7-.02,1.245-.055c.368-.023.714-.051,1.041-.085l.089.96c-.319.04-.684.074-1.094.1s-.892.047-1.446.06v1.21h-1.25v-1.19c-.326.007-.67.01-1.029.01h-1.15Zm2.95-.28a4.405,4.405,0,0,1-.915-.09,2.551,2.551,0,0,1-.74-.27,1.482,1.482,0,0,1-.5-.445,1.053,1.053,0,0,1-.179-.6v-.22a1.048,1.048,0,0,1,.179-.6,1.481,1.481,0,0,1,.5-.445,2.552,2.552,0,0,1,.74-.27,4.7,4.7,0,0,1,1.83,0,2.551,2.551,0,0,1,.74.27,1.455,1.455,0,0,1,.494.445,1.05,1.05,0,0,1,.181.6v.22a1.054,1.054,0,0,1-.181.6,1.455,1.455,0,0,1-.494.445,2.551,2.551,0,0,1-.74.27A4.412,4.412,0,0,1,182.59,584.586Zm4.75,2.71v2.24h-4.9v.42h5.17v.94H181.22v-2.25h4.9v-.41h-4.95v-.94Zm-4.75-4.79a2.128,2.128,0,0,0-.861.135.415.415,0,0,0-.29.375v.1a.417.417,0,0,0,.29.375,2.811,2.811,0,0,0,1.721,0,.416.416,0,0,0,.289-.375v-.1a.414.414,0,0,0-.289-.375A2.123,2.123,0,0,0,182.59,582.506Zm1.649,3.48h1.841v-4.5h1.26v5.53h-1.26v-.14h-1.841Z" transform="translate(-179.64 -581.486)" fill="#535453"/>
      </g>
    </g>
  </g>
</svg>
