<svg xmlns="http://www.w3.org/2000/svg" width="50" height="50" viewBox="0 0 50 50">
  <g id="그룹_1795" data-name="그룹 1795" transform="translate(-106.959 -507.906)">
    <rect id="사각형_2266" data-name="사각형 2266" width="50" height="50" transform="translate(106.958 507.906)" fill="none"/>
    <path id="사각형_2267" data-name="사각형 2267" d="M6,0H30a6,6,0,0,1,6,6V28a4,4,0,0,1-4,4H4a4,4,0,0,1-4-4V6A6,6,0,0,1,6,0Z" transform="translate(113.958 518.331)" fill="none" stroke="#06a7ce" stroke-linecap="round" stroke-miterlimit="10" stroke-width="2"/>
    <path id="패스_1835" data-name="패스 1835" d="M113.958,524.331a6,6,0,0,1,6-6h24a6,6,0,0,1,6,6Z" transform="translate(0 0)" fill="#06a7ce"/>
    <g id="그룹_1791" data-name="그룹 1791" transform="translate(121.958 515.481)">
      <rect id="사각형_2268" data-name="사각형 2268" width="4" height="5" rx="2" fill="#fba911"/>
      <rect id="사각형_2269" data-name="사각형 2269" width="4" height="5" rx="2" transform="translate(16)" fill="#fba911"/>
    </g>
    <g id="그룹_1792" data-name="그룹 1792" transform="translate(130.322 532.875)">
      <path id="패스_1836" data-name="패스 1836" d="M132.582,541.015v-5.77l-1.64.94-.62-1.04,2.41-1.34h1.13v7.21Z" transform="translate(-130.322 -532.875)" fill="#1a1818"/>
      <path id="패스_1837" data-name="패스 1837" d="M135.882,539.505h1.235c.383,0,.745,0,1.085-.01v-.69a2.549,2.549,0,0,1-.745-.23,2.053,2.053,0,0,1-.525-.37,1.354,1.354,0,0,1-.41-.97v-.36a1.351,1.351,0,0,1,.14-.59,1.523,1.523,0,0,1,.424-.52,2.234,2.234,0,0,1,.716-.37,3.763,3.763,0,0,1,2.034,0,2.221,2.221,0,0,1,.721.37,1.526,1.526,0,0,1,.425.52,1.351,1.351,0,0,1,.14.59v.36a1.378,1.378,0,0,1-.1.51,1.344,1.344,0,0,1-.311.46,2.029,2.029,0,0,1-.524.37,2.538,2.538,0,0,1-.735.23v.67q.75-.021,1.325-.055t1.045-.085l.09,1.06c-.287.033-.619.062-.995.085s-.81.041-1.3.055-1.043.023-1.66.03-1.309.01-2.075.01Zm2.32-5.61v-1.02h1.25v1.02h2.009v1.06h-5.389V533.9Zm.62,2.35a1.761,1.761,0,0,0-.505.065,1.024,1.024,0,0,0-.35.175.7.7,0,0,0-.2.245.6.6,0,0,0-.065.265v.12a.59.59,0,0,0,.065.27.717.717,0,0,0,.2.24,1.006,1.006,0,0,0,.35.175,1.758,1.758,0,0,0,.505.065,1.253,1.253,0,0,0,.849-.24.684.684,0,0,0,.271-.51v-.12a.684.684,0,0,0-.271-.51A1.253,1.253,0,0,0,138.822,536.245Zm4.73,5.95H142.3v-9.3h1.25Z" transform="translate(-130.322 -532.875)" fill="#1a1818"/>
    </g>
    <g id="그룹_1794" data-name="그룹 1794" transform="translate(120.005 533.405)">
      <g id="그룹_1793" data-name="그룹 1793">
        <path id="패스_1838" data-name="패스 1838" d="M128.525,538.1v1.07h-3.619v3.02h-1.271v-3.02H120V538.1Zm-7.47-4.7h6.42v1.071h-2.559v.079a1.02,1.02,0,0,0,.179.6,1.559,1.559,0,0,0,.611.465q.489.24,1.08.49t1.16.47l-.49.99c-.368-.146-.727-.3-1.081-.45s-.69-.3-1.009-.45a5.784,5.784,0,0,1-.716-.375,1.055,1.055,0,0,1-.355-.315h-.009a1.136,1.136,0,0,1-.38.326,6.871,6.871,0,0,1-.74.384q-.481.22-1.01.451t-1.08.449l-.491-1.01q.57-.219,1.161-.47c.392-.166.753-.33,1.08-.49a1.566,1.566,0,0,0,.609-.465,1.021,1.021,0,0,0,.181-.6v-.079h-2.561Z" transform="translate(-120.005 -533.405)" fill="#535453"/>
      </g>
    </g>
  </g>
</svg>
