<svg xmlns="http://www.w3.org/2000/svg" width="50" height="50" viewBox="0 0 50 50">
  <g id="그룹_1820" data-name="그룹 1820" transform="translate(-285.473 -507.906)">
    <rect id="사각형_2286" data-name="사각형 2286" width="50" height="50" transform="translate(285.472 507.906)" fill="none"/>
    <path id="사각형_2287" data-name="사각형 2287" d="M6,0H30a6,6,0,0,1,6,6V28a4,4,0,0,1-4,4H4a4,4,0,0,1-4-4V6A6,6,0,0,1,6,0Z" transform="translate(292.472 518.331)" fill="none" stroke="#06a7ce" stroke-linecap="round" stroke-miterlimit="10" stroke-width="2"/>
    <path id="패스_1855" data-name="패스 1855" d="M292.472,524.331a6,6,0,0,1,6-6h24a6,6,0,0,1,6,6Z" transform="translate(0 0)" fill="#06a7ce"/>
    <g id="그룹_1816" data-name="그룹 1816" transform="translate(300.472 515.481)">
      <rect id="사각형_2288" data-name="사각형 2288" width="4" height="5" rx="2" fill="#fba911"/>
      <rect id="사각형_2289" data-name="사각형 2289" width="4" height="5" rx="2" transform="translate(16)" fill="#fba911"/>
    </g>
    <g id="그룹_1817" data-name="그룹 1817" transform="translate(307.865 532.875)">
      <path id="패스_1856" data-name="패스 1856" d="M312.715,536.325v2.16h.98v1.03h-.98v1.5h-1.26v-1.5h-3.59v-.83l3.28-4.88h1.379l-3.149,4.68h2.08v-2.16Z" transform="translate(-307.865 -532.875)" fill="#1a1818"/>
      <path id="패스_1857" data-name="패스 1857" d="M314.4,539.505h1.234c.384,0,.745,0,1.085-.01v-.69a2.549,2.549,0,0,1-.745-.23,2.053,2.053,0,0,1-.525-.37,1.354,1.354,0,0,1-.41-.97v-.36a1.351,1.351,0,0,1,.14-.59,1.526,1.526,0,0,1,.425-.52,2.218,2.218,0,0,1,.715-.37,3.767,3.767,0,0,1,2.035,0,2.215,2.215,0,0,1,.72.37,1.526,1.526,0,0,1,.425.52,1.351,1.351,0,0,1,.14.59v.36a1.354,1.354,0,0,1-.41.97,2.053,2.053,0,0,1-.525.37,2.539,2.539,0,0,1-.735.23v.67q.75-.021,1.325-.055t1.045-.085l.09,1.06c-.286.033-.618.062-.995.085s-.81.041-1.3.055-1.043.023-1.66.03-1.309.01-2.074.01Zm2.319-5.61v-1.02h1.25v1.02h2.01v1.06h-5.39V533.9Zm.62,2.35a1.77,1.77,0,0,0-.505.065,1.033,1.033,0,0,0-.35.175.715.715,0,0,0-.2.245.6.6,0,0,0-.065.265v.12a.59.59,0,0,0,.065.27.729.729,0,0,0,.2.24,1.015,1.015,0,0,0,.35.175,1.768,1.768,0,0,0,.505.065,1.256,1.256,0,0,0,.85-.24.686.686,0,0,0,.27-.51v-.12a.686.686,0,0,0-.27-.51A1.256,1.256,0,0,0,317.335,536.245Zm4.73,5.95h-1.25v-9.3h1.25Z" transform="translate(-307.865 -532.875)" fill="#1a1818"/>
    </g>
    <g id="그룹_1819" data-name="그룹 1819" transform="translate(297.519 533.405)">
      <g id="그룹_1818" data-name="그룹 1818">
        <path id="패스_1858" data-name="패스 1858" d="M306.038,538.1v1.07h-3.619v3.02h-1.271v-3.02h-3.629V538.1Zm-7.47-4.7h6.42v1.071h-2.559v.079a1.02,1.02,0,0,0,.179.6,1.574,1.574,0,0,0,.611.465q.489.24,1.08.49t1.16.47l-.49.99q-.551-.219-1.08-.45t-1.01-.45a5.856,5.856,0,0,1-.716-.375,1.04,1.04,0,0,1-.354-.315h-.01a1.137,1.137,0,0,1-.38.326,6.779,6.779,0,0,1-.74.384q-.481.22-1.01.451t-1.08.449l-.49-1.01q.57-.219,1.16-.47c.392-.166.753-.33,1.08-.49a1.566,1.566,0,0,0,.609-.465,1.021,1.021,0,0,0,.181-.6v-.079h-2.561Z" transform="translate(-297.519 -533.405)" fill="#535453"/>
      </g>
    </g>
  </g>
</svg>
