<svg xmlns="http://www.w3.org/2000/svg" width="50" height="50" viewBox="0 0 50 50">
  <g id="그룹_1815" data-name="그룹 1815" transform="translate(-225.967 -507.906)">
    <rect id="사각형_2282" data-name="사각형 2282" width="50" height="50" transform="translate(225.967 507.906)" fill="none"/>
    <path id="사각형_2283" data-name="사각형 2283" d="M6,0H30a6,6,0,0,1,6,6V28a4,4,0,0,1-4,4H4a4,4,0,0,1-4-4V6A6,6,0,0,1,6,0Z" transform="translate(232.967 518.331)" fill="none" stroke="#06a7ce" stroke-linecap="round" stroke-miterlimit="10" stroke-width="2"/>
    <path id="패스_1851" data-name="패스 1851" d="M232.967,524.331a6,6,0,0,1,6-6h24a6,6,0,0,1,6,6Z" transform="translate(0 0)" fill="#06a7ce"/>
    <g id="그룹_1811" data-name="그룹 1811" transform="translate(240.967 515.481)">
      <rect id="사각형_2284" data-name="사각형 2284" width="4" height="5" rx="2" fill="#fba911"/>
      <rect id="사각형_2285" data-name="사각형 2285" width="4" height="5" rx="2" transform="translate(16)" fill="#fba911"/>
    </g>
    <g id="그룹_1812" data-name="그룹 1812" transform="translate(248.67 532.875)">
      <path id="패스_1852" data-name="패스 1852" d="M248.871,534.735a2.85,2.85,0,0,1,.859-.755,2.567,2.567,0,0,1,1.28-.285,3.024,3.024,0,0,1,.92.13,2.1,2.1,0,0,1,.7.365,1.633,1.633,0,0,1,.451.57,1.694,1.694,0,0,1,.16.735v.1a2.619,2.619,0,0,1-.045.455,1.617,1.617,0,0,1-.165.47,1.649,1.649,0,0,1-.321.415,1.527,1.527,0,0,1-.509.31,1.643,1.643,0,0,1,1.059.57,1.678,1.678,0,0,1,.34,1.06v.15a2.027,2.027,0,0,1-.159.79,1.882,1.882,0,0,1-.485.67,2.453,2.453,0,0,1-.821.465,3.482,3.482,0,0,1-1.155.175,3.794,3.794,0,0,1-1.215-.2,3.52,3.52,0,0,1-1.1-.6l.63-1c.174.127.332.233.476.32a2.487,2.487,0,0,0,.415.2,1.986,1.986,0,0,0,.39.105,2.62,2.62,0,0,0,.41.03,1.534,1.534,0,0,0,1-.27.929.929,0,0,0,.319-.75v-.13a.926.926,0,0,0-.31-.775,1.616,1.616,0,0,0-1-.245h-.969v-1.1h.859a1.724,1.724,0,0,0,.556-.075.789.789,0,0,0,.335-.21.736.736,0,0,0,.165-.33,1.951,1.951,0,0,0,.045-.425v-.08a.675.675,0,0,0-.266-.595,1.224,1.224,0,0,0-.715-.185,1.449,1.449,0,0,0-.745.17,2.378,2.378,0,0,0-.524.43Z" transform="translate(-248.67 -532.875)" fill="#1a1818"/>
      <path id="패스_1853" data-name="패스 1853" d="M254.891,539.505h1.234c.384,0,.746,0,1.085-.01v-.69a2.549,2.549,0,0,1-.745-.23,2.047,2.047,0,0,1-.524-.37,1.359,1.359,0,0,1-.311-.46,1.376,1.376,0,0,1-.1-.51v-.36a1.364,1.364,0,0,1,.139-.59,1.538,1.538,0,0,1,.425-.52,2.234,2.234,0,0,1,.716-.37,3.763,3.763,0,0,1,2.034,0,2.231,2.231,0,0,1,.721.37,1.538,1.538,0,0,1,.425.52,1.364,1.364,0,0,1,.139.59v.36a1.377,1.377,0,0,1-.1.51,1.359,1.359,0,0,1-.311.46,2.029,2.029,0,0,1-.524.37,2.536,2.536,0,0,1-.736.23v.67q.75-.021,1.326-.055c.382-.024.731-.052,1.045-.085l.089,1.06c-.286.033-.618.062-1,.085s-.809.041-1.3.055-1.042.023-1.66.03-1.308.01-2.074.01Zm2.319-5.61v-1.02h1.25v1.02h2.01v1.06h-5.389V533.9Zm.621,2.35a1.761,1.761,0,0,0-.505.065,1.024,1.024,0,0,0-.35.175.7.7,0,0,0-.2.245.6.6,0,0,0-.066.265v.12a.591.591,0,0,0,.066.27.717.717,0,0,0,.2.24,1.006,1.006,0,0,0,.35.175,1.758,1.758,0,0,0,.505.065,1.255,1.255,0,0,0,.849-.24.684.684,0,0,0,.271-.51v-.12a.684.684,0,0,0-.271-.51A1.255,1.255,0,0,0,257.831,536.245Zm4.73,5.95h-1.25v-9.3h1.25Z" transform="translate(-248.67 -532.875)" fill="#1a1818"/>
    </g>
    <g id="그룹_1814" data-name="그룹 1814" transform="translate(239.014 533.405)">
      <g id="그룹_1813" data-name="그룹 1813">
        <path id="패스_1854" data-name="패스 1854" d="M247.534,538.1v1.07h-3.619v3.02h-1.271v-3.02h-3.63V538.1Zm-7.47-4.7h6.42v1.071h-2.56v.079a1.02,1.02,0,0,0,.18.6,1.562,1.562,0,0,0,.61.465q.49.24,1.08.49t1.161.47l-.491.99c-.367-.146-.726-.3-1.08-.45s-.69-.3-1.009-.45a5.783,5.783,0,0,1-.716-.375,1.055,1.055,0,0,1-.355-.315h-.01a1.12,1.12,0,0,1-.379.326,6.9,6.9,0,0,1-.741.384q-.48.22-1.009.451t-1.081.449l-.49-1.01q.57-.219,1.16-.47t1.08-.49a1.562,1.562,0,0,0,.61-.465,1.021,1.021,0,0,0,.181-.6v-.079h-2.561Z" transform="translate(-239.014 -533.405)" fill="#535453"/>
      </g>
    </g>
  </g>
</svg>
